<svg width="920" height="697" viewBox="0 0 920 697" fill="none" xmlns="http://www.w3.org/2000/svg">
<rect width="920" height="697" rx="40" fill="#0D0D0E"/>
<g filter="url(#filter0_f_41_917)">
<circle cx="460" cy="250.5" r="7" transform="rotate(-90 460 250.5)" fill="#ABACB0"/>
</g>
<rect x="445" y="250" width="30" height="12" fill="#0D0D0E"/>
<path d="M530 205V218.758C530 223.177 526.418 226.758 522 226.758H468C463.582 226.758 460 230.34 460 234.758V250" stroke="url(#paint0_linear_41_917)"/>
<path d="M390 205V218.758C390 223.177 393.582 226.758 398 226.758H452C456.418 226.758 460 230.34 460 234.758V250" stroke="url(#paint1_linear_41_917)"/>
<path d="M109.5 205V219C109.5 223.418 113.082 227 117.5 227H452C456.418 227 460 230.582 460 235V250.5" stroke="url(#paint2_linear_41_917)"/>
<path d="M810 205V218.758C810 223.177 806.418 226.758 802 226.758H468C463.582 226.758 460 230.34 460 234.758V250" stroke="url(#paint3_linear_41_917)"/>
<path d="M670 205V218.758C670 223.177 666.418 226.758 662 226.758H468C463.582 226.758 460 230.34 460 234.758V250" stroke="url(#paint4_linear_41_917)"/>
<path d="M250 205V218.758C250 223.177 253.582 226.758 258 226.758H452C456.418 226.758 460 230.34 460 234.758V250" stroke="url(#paint5_linear_41_917)"/>
<path d="M110 110L110 155" stroke="url(#paint6_linear_41_917)" stroke-linecap="square"/>
<g filter="url(#filter1_f_41_917)">
<circle cx="110" cy="155" r="7" transform="rotate(-90 110 155)" fill="#3FCCFF"/>
</g>
<rect x="60.5" y="155.5" width="99" height="49" rx="7.5" fill="#0D0D0E"/>
<rect x="60.5" y="155.5" width="99" height="49" rx="7.5" stroke="url(#paint7_linear_41_917)"/>
<path d="M101.397 176.84H99.8766C99.8766 174.92 101.357 172.74 104.137 172.74C106.777 172.74 108.477 174.7 108.477 176.78C108.477 178.38 107.677 179.68 106.077 180.7L103.617 182.26C102.037 183.28 101.517 184.06 101.517 185.2V185.52H108.597V187H99.8966V185.26C99.8966 183.5 100.797 182.3 102.717 181.08L105.257 179.48C106.297 178.82 106.817 177.94 106.817 176.82C106.817 175.32 105.777 174.26 104.097 174.26C103.317 174.26 102.657 174.52 102.157 175.02C101.657 175.52 101.397 176.12 101.397 176.84ZM111.055 183.36H112.575C112.835 184.88 113.955 185.76 115.535 185.76C116.395 185.76 117.115 185.46 117.695 184.86C118.275 184.26 118.575 183.5 118.575 182.58C118.575 180.76 117.295 179.52 115.375 179.52C113.835 179.52 113.055 180.5 112.815 180.9H111.335L111.815 173H119.335V174.48H113.235L112.935 178.98H113.055C113.055 178.98 113.935 178.04 115.655 178.04C116.955 178.04 118.055 178.48 118.915 179.38C119.775 180.28 120.215 181.34 120.215 182.58C120.215 183.9 119.775 185.02 118.875 185.92C117.975 186.82 116.895 187.26 115.595 187.26C114.355 187.26 113.315 186.9 112.455 186.18C111.615 185.46 111.155 184.52 111.055 183.36Z" fill="white"/>
<rect x="60.5" y="60.5" width="99" height="49" rx="7.5" fill="#0D0D0E"/>
<rect x="60.5" y="60.5" width="99" height="49" rx="7.5" stroke="url(#paint8_linear_41_917)"/>
<path d="M88.4584 92L84.8784 78H86.6184L89.4784 90.02H89.5984L92.7384 78H94.7784L97.9184 90.02H98.0384L100.898 78H102.638L99.0584 92H96.9584L93.8184 80.18H93.6984L90.5584 92H88.4584ZM105.973 92H104.393V77H105.973V83.12H106.093C106.553 82.14 107.773 81.34 109.313 81.34C110.493 81.34 111.453 81.74 112.153 82.52C112.873 83.3 113.233 84.28 113.233 85.46V92H111.653V85.56C111.653 84.76 111.393 84.1 110.853 83.6C110.333 83.08 109.693 82.82 108.933 82.82C108.113 82.82 107.413 83.1 106.833 83.64C106.253 84.18 105.973 84.86 105.973 85.68V92ZM115.399 86.82C115.399 85.22 115.879 83.9 116.819 82.88C117.779 81.86 118.999 81.34 120.459 81.34C121.479 81.34 122.419 81.66 122.999 82.12C123.579 82.58 123.899 82.94 124.119 83.28H124.239V81.6H125.819V92H124.299V90.36H124.179C123.299 91.62 122.099 92.26 120.579 92.26C119.059 92.26 117.819 91.76 116.839 90.74C115.879 89.72 115.399 88.42 115.399 86.82ZM117.019 86.82C117.019 88.04 117.359 89.02 118.019 89.76C118.699 90.48 119.579 90.84 120.679 90.84C121.779 90.84 122.639 90.46 123.299 89.68C123.959 88.9 124.299 87.96 124.299 86.82C124.299 85.58 123.959 84.6 123.259 83.88C122.579 83.14 121.699 82.78 120.639 82.78C119.579 82.78 118.699 83.16 118.019 83.92C117.359 84.66 117.019 85.64 117.019 86.82ZM129.746 82.94H127.786V81.6H129.346C129.646 81.6 129.846 81.4 129.846 81.08V78.58H131.326V81.6H134.526V82.94H131.326V88.84C131.326 90.02 131.766 90.62 132.946 90.62H134.386V92H132.846C130.866 92 129.746 90.92 129.746 88.86V82.94Z" fill="white"/>
<path d="M250 110L250 155" stroke="url(#paint9_linear_41_917)" stroke-linecap="square"/>
<g filter="url(#filter2_f_41_917)">
<circle cx="250" cy="155" r="7" transform="rotate(-90 250 155)" fill="#3FCCFF"/>
</g>
<rect x="200.5" y="155.5" width="99" height="49" rx="7.5" fill="#0D0D0E"/>
<rect x="200.5" y="155.5" width="99" height="49" rx="7.5" stroke="url(#paint10_linear_41_917)"/>
<path d="M245.049 176.3H241.649V175C244.189 175 245.149 174.44 245.149 173H246.669V187H245.049V176.3ZM251.552 176.84H250.032C250.032 174.92 251.512 172.74 254.292 172.74C256.932 172.74 258.632 174.7 258.632 176.78C258.632 178.38 257.832 179.68 256.232 180.7L253.772 182.26C252.192 183.28 251.672 184.06 251.672 185.2V185.52H258.752V187H250.052V185.26C250.052 183.5 250.952 182.3 252.872 181.08L255.412 179.48C256.452 178.82 256.972 177.94 256.972 176.82C256.972 175.32 255.932 174.26 254.252 174.26C253.472 174.26 252.812 174.52 252.312 175.02C251.812 175.52 251.552 176.12 251.552 176.84Z" fill="white"/>
<rect x="200.5" y="60.5" width="99" height="49" rx="7.5" fill="#0D0D0E"/>
<rect x="200.5" y="60.5" width="99" height="49" rx="7.5" stroke="url(#paint11_linear_41_917)"/>
<path d="M243.917 78.56C243.917 77.92 244.397 77.42 245.057 77.42C245.717 77.42 246.217 77.92 246.217 78.56C246.217 79.22 245.717 79.72 245.057 79.72C244.397 79.72 243.917 79.22 243.917 78.56ZM245.817 92H244.237V81.6H245.817V92ZM248.177 88.98H249.717C249.897 90.24 250.777 90.88 252.297 90.88C253.817 90.88 254.717 90.16 254.717 89.06C254.717 86.16 248.497 88.34 248.497 84.24C248.497 83.36 248.857 82.66 249.557 82.14C250.257 81.6 251.157 81.34 252.257 81.34C253.237 81.34 254.077 81.62 254.777 82.16C255.477 82.7 255.857 83.42 255.937 84.34H254.417C254.277 83.32 253.497 82.7 252.157 82.7C250.857 82.7 250.017 83.34 250.017 84.24C250.017 86.88 256.257 84.7 256.257 88.98C256.257 89.96 255.877 90.76 255.137 91.36C254.397 91.96 253.437 92.26 252.217 92.26C249.817 92.26 248.357 90.98 248.177 88.98Z" fill="white"/>
<path d="M390 110L390 155" stroke="url(#paint12_linear_41_917)" stroke-linecap="square"/>
<g filter="url(#filter3_f_41_917)">
<circle cx="390" cy="155" r="7" transform="rotate(-90 390 155)" fill="#3FCCFF"/>
</g>
<rect x="340.5" y="155.5" width="99" height="49" rx="7.5" fill="#0D0D0E"/>
<rect x="340.5" y="155.5" width="99" height="49" rx="7.5" stroke="url(#paint13_linear_41_917)"/>
<path d="M369.62 176.84H368.1C368.1 174.92 369.58 172.74 372.36 172.74C375 172.74 376.7 174.7 376.7 176.78C376.7 178.38 375.9 179.68 374.3 180.7L371.84 182.26C370.26 183.28 369.74 184.06 369.74 185.2V185.52H376.82V187H368.12V185.26C368.12 183.5 369.02 182.3 370.94 181.08L373.48 179.48C374.52 178.82 375.04 177.94 375.04 176.82C375.04 175.32 374 174.26 372.32 174.26C371.54 174.26 370.88 174.52 370.38 175.02C369.88 175.52 369.62 176.12 369.62 176.84ZM379.479 182.82V177.18C379.479 174.4 381.719 172.74 383.999 172.74C386.299 172.74 388.519 174.4 388.519 177.18V182.82C388.539 185.54 386.259 187.32 383.999 187.26C381.739 187.32 379.459 185.54 379.479 182.82ZM381.079 177.28V182.72C381.079 183.58 381.359 184.3 381.899 184.88C382.459 185.44 383.159 185.72 383.999 185.72C384.859 185.72 385.559 185.44 386.099 184.88C386.639 184.3 386.919 183.58 386.919 182.72V177.28C386.919 176.42 386.639 175.72 386.079 175.14C385.539 174.56 384.839 174.28 383.999 174.28C383.179 174.28 382.479 174.56 381.919 175.14C381.359 175.72 381.079 176.42 381.079 177.28ZM391.48 182.82V177.18C391.48 174.4 393.72 172.74 396 172.74C398.3 172.74 400.52 174.4 400.52 177.18V182.82C400.54 185.54 398.26 187.32 396 187.26C393.74 187.32 391.46 185.54 391.48 182.82ZM393.08 177.28V182.72C393.08 183.58 393.36 184.3 393.9 184.88C394.46 185.44 395.16 185.72 396 185.72C396.86 185.72 397.56 185.44 398.1 184.88C398.64 184.3 398.92 183.58 398.92 182.72V177.28C398.92 176.42 398.64 175.72 398.08 175.14C397.54 174.56 396.84 174.28 396 174.28C395.18 174.28 394.48 174.56 393.92 175.14C393.36 175.72 393.08 176.42 393.08 177.28ZM404.901 176.84H403.381C403.381 174.92 404.861 172.74 407.641 172.74C410.281 172.74 411.981 174.7 411.981 176.78C411.981 178.38 411.181 179.68 409.581 180.7L407.121 182.26C405.541 183.28 405.021 184.06 405.021 185.2V185.52H412.101V187H403.401V185.26C403.401 183.5 404.301 182.3 406.221 181.08L408.761 179.48C409.801 178.82 410.321 177.94 410.321 176.82C410.321 175.32 409.281 174.26 407.601 174.26C406.821 174.26 406.161 174.52 405.661 175.02C405.161 175.52 404.901 176.12 404.901 176.84Z" fill="white"/>
<rect x="340.5" y="60.5" width="99" height="49" rx="7.5" fill="#0D0D0E"/>
<rect x="340.5" y="60.5" width="99" height="49" rx="7.5" stroke="url(#paint14_linear_41_917)"/>
<path d="M360.911 92H355.991V78H360.511C361.811 78 362.851 78.34 363.611 79C364.371 79.66 364.751 80.52 364.751 81.58C364.751 82.94 364.111 83.98 362.971 84.6V84.72C363.931 85.06 365.231 86.04 365.231 88.02C365.231 90.52 363.271 92 360.911 92ZM357.591 85.42V90.58H360.631C362.371 90.58 363.551 89.68 363.551 87.98C363.551 86.24 362.231 85.42 360.451 85.42H357.591ZM357.591 79.44V84.06H360.451C362.031 84.06 363.091 83.12 363.091 81.7C363.091 80.34 362.031 79.44 360.511 79.44H357.591ZM366.797 86.82C366.797 85.22 367.277 83.9 368.217 82.88C369.177 81.86 370.397 81.34 371.857 81.34C372.877 81.34 373.817 81.66 374.397 82.12C374.977 82.58 375.297 82.94 375.517 83.28H375.637V81.6H377.217V92H375.697V90.36H375.577C374.697 91.62 373.497 92.26 371.977 92.26C370.457 92.26 369.217 91.76 368.237 90.74C367.277 89.72 366.797 88.42 366.797 86.82ZM368.417 86.82C368.417 88.04 368.757 89.02 369.417 89.76C370.097 90.48 370.977 90.84 372.077 90.84C373.177 90.84 374.037 90.46 374.697 89.68C375.357 88.9 375.697 87.96 375.697 86.82C375.697 85.58 375.357 84.6 374.657 83.88C373.977 83.14 373.097 82.78 372.037 82.78C370.977 82.78 370.097 83.16 369.417 83.92C368.757 84.66 368.417 85.64 368.417 86.82ZM380.185 89.78V77H381.765V89.78C381.765 90.32 382.025 90.6 382.525 90.6H383.005V92H382.245C380.945 92 380.185 91.2 380.185 89.78ZM383.945 86.82C383.945 85.22 384.425 83.9 385.365 82.88C386.325 81.86 387.545 81.34 389.005 81.34C390.025 81.34 390.965 81.66 391.545 82.12C392.125 82.58 392.445 82.94 392.665 83.28H392.785V77H394.365V92H392.845V90.36H392.725C391.845 91.62 390.645 92.26 389.125 92.26C387.605 92.26 386.365 91.76 385.385 90.74C384.425 89.72 383.945 88.42 383.945 86.82ZM385.565 86.82C385.565 88.04 385.905 89.02 386.565 89.76C387.245 90.48 388.125 90.84 389.225 90.84C390.325 90.84 391.185 90.46 391.845 89.68C392.505 88.9 392.845 87.96 392.845 86.82C392.845 85.58 392.505 84.6 391.805 83.88C391.125 83.14 390.245 82.78 389.185 82.78C388.125 82.78 387.245 83.16 386.565 83.92C385.905 84.66 385.565 85.64 385.565 86.82ZM397.132 88.14V81.6H398.712V88.08C398.712 88.9 398.972 89.56 399.492 90.06C400.012 90.56 400.652 90.82 401.392 90.82C402.212 90.82 402.912 90.54 403.472 89.98C404.032 89.4 404.312 88.7 404.312 87.84V81.6H405.892V92H404.312V90.48H404.192C403.732 91.5 402.552 92.26 401.012 92.26C399.832 92.26 398.892 91.88 398.192 91.1C397.492 90.32 397.132 89.32 397.132 88.14ZM410.425 92H408.845V81.6H410.405V83.54H410.525C410.705 83.04 411.045 82.6 411.545 82.2C412.045 81.8 412.665 81.6 413.365 81.6H414.245V83.18H413.385C411.525 83.18 410.425 84.58 410.425 86.64V92ZM417.173 82.48H416.013L416.353 78H418.093L417.173 82.48ZM416.623 88.98H418.163C418.343 90.24 419.223 90.88 420.743 90.88C422.263 90.88 423.163 90.16 423.163 89.06C423.163 86.16 416.943 88.34 416.943 84.24C416.943 83.36 417.303 82.66 418.003 82.14C418.703 81.6 419.603 81.34 420.703 81.34C421.683 81.34 422.523 81.62 423.223 82.16C423.923 82.7 424.303 83.42 424.383 84.34H422.863C422.723 83.32 421.943 82.7 420.603 82.7C419.303 82.7 418.463 83.34 418.463 84.24C418.463 86.88 424.703 84.7 424.703 88.98C424.703 89.96 424.323 90.76 423.583 91.36C422.843 91.96 421.883 92.26 420.663 92.26C418.263 92.26 416.803 90.98 416.623 88.98Z" fill="white"/>
<path d="M530 110L530 155" stroke="url(#paint15_linear_41_917)" stroke-linecap="square"/>
<g filter="url(#filter4_f_41_917)">
<circle cx="530" cy="155" r="7" transform="rotate(-90 530 155)" fill="#3FCCFF"/>
</g>
<rect x="480.5" y="155.5" width="99" height="49" rx="7.5" fill="#0D0D0E"/>
<rect x="480.5" y="155.5" width="99" height="49" rx="7.5" stroke="url(#paint16_linear_41_917)"/>
<path d="M525.039 176.3H521.639V175C524.179 175 525.139 174.44 525.139 173H526.659V187H525.039V176.3ZM529.202 177.36C529.202 176.06 529.662 174.98 530.562 174.08C531.462 173.18 532.582 172.74 533.902 172.74C535.222 172.74 536.322 173.18 537.222 174.06C538.122 174.94 538.562 176.04 538.562 177.36C538.562 178.22 538.322 179.1 537.842 179.96L533.902 187H532.062L535.182 181.78L535.102 181.7C534.722 181.86 534.282 181.94 533.822 181.94C532.482 181.94 531.382 181.5 530.502 180.64C529.642 179.76 529.202 178.66 529.202 177.36ZM530.862 177.36C530.862 178.22 531.142 178.96 531.702 179.58C532.282 180.18 533.002 180.48 533.902 180.48C534.802 180.48 535.522 180.18 536.082 179.58C536.642 178.96 536.922 178.22 536.922 177.36C536.922 176.48 536.642 175.74 536.082 175.16C535.522 174.56 534.802 174.26 533.902 174.26C533.002 174.26 532.282 174.56 531.702 175.16C531.142 175.74 530.862 176.48 530.862 177.36Z" fill="white"/>
<rect x="480.5" y="60.5" width="99" height="49" rx="7.5" fill="#0D0D0E"/>
<rect x="480.5" y="60.5" width="99" height="49" rx="7.5" stroke="url(#paint17_linear_41_917)"/>
<path d="M506.67 85C506.67 80.88 509.69 77.74 513.87 77.74C515.45 77.74 516.81 78.16 517.99 79C519.17 79.84 519.99 80.94 520.45 82.28H518.65C517.87 80.42 516.19 79.26 513.87 79.26C510.59 79.26 508.35 81.72 508.35 85C508.35 88.3 510.63 90.74 513.91 90.74C516.79 90.74 518.99 88.86 519.11 86.06H513.43V84.64H520.93V84.72C520.93 85.68 520.81 86.56 520.57 87.38C519.63 90.62 516.91 92.26 513.89 92.26C509.73 92.26 506.67 89.14 506.67 85ZM522.499 86.82C522.499 85.22 522.979 83.9 523.919 82.88C524.879 81.86 526.099 81.34 527.559 81.34C528.579 81.34 529.519 81.66 530.099 82.12C530.679 82.58 530.999 82.94 531.219 83.28H531.339V81.6H532.919V92H531.399V90.36H531.279C530.399 91.62 529.199 92.26 527.679 92.26C526.159 92.26 524.919 91.76 523.939 90.74C522.979 89.72 522.499 88.42 522.499 86.82ZM524.119 86.82C524.119 88.04 524.459 89.02 525.119 89.76C525.799 90.48 526.679 90.84 527.779 90.84C528.879 90.84 529.739 90.46 530.399 89.68C531.059 88.9 531.399 87.96 531.399 86.82C531.399 85.58 531.059 84.6 530.359 83.88C529.679 83.14 528.799 82.78 527.739 82.78C526.679 82.78 525.799 83.16 525.119 83.92C524.459 84.66 524.119 85.64 524.119 86.82ZM536.847 82.94H534.887V81.6H536.447C536.747 81.6 536.947 81.4 536.947 81.08V78.58H538.427V81.6H541.627V82.94H538.427V88.84C538.427 90.02 538.867 90.62 540.047 90.62H541.487V92H539.947C537.967 92 536.847 90.92 536.847 88.86V82.94ZM543.182 86.8C543.182 83.48 545.462 81.34 548.282 81.34C551.382 81.32 553.382 83.7 553.322 86.66V87.36H544.842C544.922 89.46 546.262 90.82 548.402 90.82C549.842 90.82 551.122 90.14 551.582 88.94H553.222C552.642 90.92 550.782 92.26 548.382 92.26C545.222 92.26 543.182 89.92 543.182 86.8ZM544.882 85.96H551.642C551.502 83.96 550.122 82.78 548.282 82.78C547.382 82.78 546.622 83.08 545.962 83.66C545.322 84.24 544.962 85.02 544.882 85.96Z" fill="white"/>
<path d="M670 110L670 155" stroke="url(#paint18_linear_41_917)" stroke-linecap="square"/>
<g filter="url(#filter5_f_41_917)">
<circle cx="670" cy="155" r="7" transform="rotate(-90 670 155)" fill="#3FCCFF"/>
</g>
<rect x="620.5" y="155.5" width="99" height="49" rx="7.5" fill="#0D0D0E"/>
<rect x="620.5" y="155.5" width="99" height="49" rx="7.5" stroke="url(#paint19_linear_41_917)"/>
<path d="M665.361 176.3H661.961V175C664.501 175 665.461 174.44 665.461 173H666.981V187H665.361V176.3ZM676.965 174.48H670.045V173H678.645V174.38L673.705 187H671.985L676.965 174.6V174.48Z" fill="white"/>
<rect x="620.5" y="60.5" width="99" height="49" rx="7.5" fill="#0D0D0E"/>
<rect x="620.5" y="60.5" width="99" height="49" rx="7.5" stroke="url(#paint20_linear_41_917)"/>
<path d="M665.496 88.14H667.016C667.036 89.64 668.216 90.72 669.836 90.72C671.616 90.72 672.836 89.58 672.836 87.76C672.836 86.9 672.536 86.2 671.956 85.66C671.376 85.12 670.656 84.84 669.796 84.84H668.176V83.46L671.876 79.6V79.48H665.816V78H673.956V79.5L670.196 83.32V83.44C671.416 83.48 672.436 83.9 673.256 84.72C674.076 85.52 674.496 86.52 674.496 87.72C674.556 90.1 672.756 92.24 669.836 92.24C666.956 92.24 665.496 89.96 665.496 88.14Z" fill="white"/>
<path d="M810 110L810 155" stroke="url(#paint21_linear_41_917)" stroke-linecap="square"/>
<g filter="url(#filter6_f_41_917)">
<circle cx="810" cy="155" r="7" transform="rotate(-90 810 155)" fill="#3FCCFF"/>
</g>
<rect x="760.5" y="155.5" width="99" height="49" rx="7.5" fill="#0D0D0E"/>
<rect x="760.5" y="155.5" width="99" height="49" rx="7.5" stroke="url(#paint22_linear_41_917)"/>
<path d="M801.201 176.84H799.681C799.681 174.92 801.161 172.74 803.941 172.74C806.581 172.74 808.281 174.7 808.281 176.78C808.281 178.38 807.481 179.68 805.881 180.7L803.421 182.26C801.841 183.28 801.321 184.06 801.321 185.2V185.52H808.401V187H799.701V185.26C799.701 183.5 800.601 182.3 802.521 181.08L805.061 179.48C806.101 178.82 806.621 177.94 806.621 176.82C806.621 175.32 805.581 174.26 803.901 174.26C803.121 174.26 802.461 174.52 801.961 175.02C801.461 175.52 801.201 176.12 801.201 176.84ZM810.96 177.36C810.96 176.06 811.42 174.98 812.32 174.08C813.22 173.18 814.34 172.74 815.66 172.74C816.98 172.74 818.08 173.18 818.98 174.06C819.88 174.94 820.32 176.04 820.32 177.36C820.32 178.22 820.08 179.1 819.6 179.96L815.66 187H813.82L816.94 181.78L816.86 181.7C816.48 181.86 816.04 181.94 815.58 181.94C814.24 181.94 813.14 181.5 812.26 180.64C811.4 179.76 810.96 178.66 810.96 177.36ZM812.62 177.36C812.62 178.22 812.9 178.96 813.46 179.58C814.04 180.18 814.76 180.48 815.66 180.48C816.56 180.48 817.28 180.18 817.84 179.58C818.4 178.96 818.68 178.22 818.68 177.36C818.68 176.48 818.4 175.74 817.84 175.16C817.28 174.56 816.56 174.26 815.66 174.26C814.76 174.26 814.04 174.56 813.46 175.16C812.9 175.74 812.62 176.48 812.62 177.36Z" fill="white"/>
<rect x="760.5" y="60.5" width="99" height="49" rx="7.5" fill="#0D0D0E"/>
<rect x="760.5" y="60.5" width="99" height="49" rx="7.5" stroke="url(#paint23_linear_41_917)"/>
<path d="M807.46 81.7H805.98C805.98 79.76 807.32 77.74 809.98 77.74C811.2 77.74 812.16 78.1 812.9 78.8C813.64 79.5 814.02 80.36 814.02 81.4C814.02 82.2 813.84 82.86 813.44 83.4C813.04 83.94 812.78 84.16 812.28 84.62L811.2 85.56C810.7 85.98 810.44 86.5 810.44 87.1V88.28H808.88V87.1C808.88 86.12 809.24 85.42 810.1 84.64L811.24 83.62C812.04 82.9 812.38 82.36 812.38 81.46C812.38 80.1 811.48 79.18 809.98 79.18C808.46 79.18 807.46 80.26 807.46 81.7ZM808.9 91.94C808.44 91.48 808.44 90.78 808.9 90.36C809.36 89.9 810.06 89.9 810.48 90.36C810.94 90.78 810.94 91.48 810.48 91.94C810.06 92.36 809.36 92.36 808.9 91.94Z" fill="white"/>
<rect x="279.5" y="250.5" width="361" height="72" rx="7.5" fill="url(#paint24_linear_41_917)" fill-opacity="0.1"/>
<rect x="279.5" y="250.5" width="361" height="72" rx="7.5" stroke="#ABACB0"/>
<path d="M361.125 282H353.465V268H355.085V280.54H361.125V282ZM361.869 276.82C361.869 275.22 362.349 273.9 363.289 272.88C364.249 271.86 365.469 271.34 366.929 271.34C367.949 271.34 368.889 271.66 369.469 272.12C370.049 272.58 370.369 272.94 370.589 273.28H370.709V271.6H372.289V282H370.769V280.36H370.649C369.769 281.62 368.569 282.26 367.049 282.26C365.529 282.26 364.289 281.76 363.309 280.74C362.349 279.72 361.869 278.42 361.869 276.82ZM363.489 276.82C363.489 278.04 363.829 279.02 364.489 279.76C365.169 280.48 366.049 280.84 367.149 280.84C368.249 280.84 369.109 280.46 369.769 279.68C370.429 278.9 370.769 277.96 370.769 276.82C370.769 275.58 370.429 274.6 369.729 273.88C369.049 273.14 368.169 272.78 367.109 272.78C366.049 272.78 365.169 273.16 364.489 273.92C363.829 274.66 363.489 275.64 363.489 276.82ZM376.836 282H375.256V271.6H376.816V273.54H376.936C377.116 273.04 377.456 272.6 377.956 272.2C378.456 271.8 379.076 271.6 379.776 271.6H380.656V273.18H379.796C377.936 273.18 376.836 274.58 376.836 276.64V282ZM381.204 276.82C381.204 275.22 381.684 273.9 382.624 272.88C383.584 271.86 384.804 271.34 386.264 271.34C387.284 271.34 388.224 271.66 388.804 272.12C389.384 272.58 389.704 272.94 389.924 273.28H390.044V271.6H391.624V282C391.624 285.04 389.684 286.86 386.564 286.86C384.084 286.86 382.384 285.54 382.044 283.62H383.544C383.804 284.82 384.964 285.48 386.564 285.48C388.944 285.48 390.104 284.18 390.104 282V280.36H389.984C389.104 281.62 387.904 282.26 386.384 282.26C384.864 282.26 383.624 281.76 382.644 280.74C381.684 279.72 381.204 278.42 381.204 276.82ZM382.824 276.82C382.824 278.04 383.164 279.02 383.824 279.76C384.504 280.48 385.384 280.84 386.484 280.84C387.584 280.84 388.444 280.46 389.104 279.68C389.764 278.9 390.104 277.96 390.104 276.82C390.104 275.58 389.764 274.6 389.064 273.88C388.384 273.14 387.504 272.78 386.444 272.78C385.384 272.78 384.504 273.16 383.824 273.92C383.164 274.66 382.824 275.64 382.824 276.82ZM393.791 276.8C393.791 273.48 396.071 271.34 398.891 271.34C401.991 271.32 403.991 273.7 403.931 276.66V277.36H395.451C395.531 279.46 396.871 280.82 399.011 280.82C400.451 280.82 401.731 280.14 402.191 278.94H403.831C403.251 280.92 401.391 282.26 398.991 282.26C395.831 282.26 393.791 279.92 393.791 276.8ZM395.491 275.96H402.251C402.111 273.96 400.731 272.78 398.891 272.78C397.991 272.78 397.231 273.08 396.571 273.66C395.931 274.24 395.571 275.02 395.491 275.96ZM419.325 282H411.665V268H413.285V280.54H419.325V282ZM420.069 276.82C420.069 275.22 420.549 273.9 421.489 272.88C422.449 271.86 423.669 271.34 425.129 271.34C426.149 271.34 427.089 271.66 427.669 272.12C428.249 272.58 428.569 272.94 428.789 273.28H428.909V271.6H430.489V282H428.969V280.36H428.849C427.969 281.62 426.769 282.26 425.249 282.26C423.729 282.26 422.489 281.76 421.509 280.74C420.549 279.72 420.069 278.42 420.069 276.82ZM421.689 276.82C421.689 278.04 422.029 279.02 422.689 279.76C423.369 280.48 424.249 280.84 425.349 280.84C426.449 280.84 427.309 280.46 427.969 279.68C428.629 278.9 428.969 277.96 428.969 276.82C428.969 275.58 428.629 274.6 427.929 273.88C427.249 273.14 426.369 272.78 425.309 272.78C424.249 272.78 423.369 273.16 422.689 273.92C422.029 274.66 421.689 275.64 421.689 276.82ZM435.036 282H433.456V271.6H435.036V273.12H435.156C435.616 272.1 436.796 271.34 438.336 271.34C439.516 271.34 440.456 271.74 441.156 272.52C441.856 273.3 442.216 274.28 442.216 275.46V282H440.636V275.56C440.636 274.74 440.376 274.08 439.856 273.58C439.336 273.08 438.696 272.82 437.956 272.82C437.136 272.82 436.436 273.1 435.876 273.68C435.316 274.24 435.036 274.94 435.036 275.8V282ZM444.384 276.82C444.384 275.22 444.864 273.9 445.804 272.88C446.764 271.86 447.984 271.34 449.444 271.34C450.464 271.34 451.404 271.66 451.984 272.12C452.564 272.58 452.884 272.94 453.104 273.28H453.224V271.6H454.804V282C454.804 285.04 452.864 286.86 449.744 286.86C447.264 286.86 445.564 285.54 445.224 283.62H446.724C446.984 284.82 448.144 285.48 449.744 285.48C452.124 285.48 453.284 284.18 453.284 282V280.36H453.164C452.284 281.62 451.084 282.26 449.564 282.26C448.044 282.26 446.804 281.76 445.824 280.74C444.864 279.72 444.384 278.42 444.384 276.82ZM446.004 276.82C446.004 278.04 446.344 279.02 447.004 279.76C447.684 280.48 448.564 280.84 449.664 280.84C450.764 280.84 451.624 280.46 452.284 279.68C452.944 278.9 453.284 277.96 453.284 276.82C453.284 275.58 452.944 274.6 452.244 273.88C451.564 273.14 450.684 272.78 449.624 272.78C448.564 272.78 447.684 273.16 447.004 273.92C446.344 274.66 446.004 275.64 446.004 276.82ZM457.571 278.14V271.6H459.151V278.08C459.151 278.9 459.411 279.56 459.931 280.06C460.451 280.56 461.091 280.82 461.831 280.82C462.651 280.82 463.351 280.54 463.911 279.98C464.471 279.4 464.751 278.7 464.751 277.84V271.6H466.331V282H464.751V280.48H464.631C464.171 281.5 462.991 282.26 461.451 282.26C460.271 282.26 459.331 281.88 458.631 281.1C457.931 280.32 457.571 279.32 457.571 278.14ZM468.485 276.82C468.485 275.22 468.965 273.9 469.905 272.88C470.865 271.86 472.085 271.34 473.545 271.34C474.565 271.34 475.505 271.66 476.085 272.12C476.665 272.58 476.985 272.94 477.205 273.28H477.325V271.6H478.905V282H477.385V280.36H477.265C476.385 281.62 475.185 282.26 473.665 282.26C472.145 282.26 470.905 281.76 469.925 280.74C468.965 279.72 468.485 278.42 468.485 276.82ZM470.105 276.82C470.105 278.04 470.445 279.02 471.105 279.76C471.785 280.48 472.665 280.84 473.765 280.84C474.865 280.84 475.725 280.46 476.385 279.68C477.045 278.9 477.385 277.96 477.385 276.82C477.385 275.58 477.045 274.6 476.345 273.88C475.665 273.14 474.785 272.78 473.725 272.78C472.665 272.78 471.785 273.16 471.105 273.92C470.445 274.66 470.105 275.64 470.105 276.82ZM481.072 276.82C481.072 275.22 481.552 273.9 482.492 272.88C483.452 271.86 484.672 271.34 486.132 271.34C487.152 271.34 488.092 271.66 488.672 272.12C489.252 272.58 489.572 272.94 489.792 273.28H489.912V271.6H491.492V282C491.492 285.04 489.552 286.86 486.432 286.86C483.952 286.86 482.252 285.54 481.912 283.62H483.412C483.672 284.82 484.832 285.48 486.432 285.48C488.812 285.48 489.972 284.18 489.972 282V280.36H489.852C488.972 281.62 487.772 282.26 486.252 282.26C484.732 282.26 483.492 281.76 482.512 280.74C481.552 279.72 481.072 278.42 481.072 276.82ZM482.692 276.82C482.692 278.04 483.032 279.02 483.692 279.76C484.372 280.48 485.252 280.84 486.352 280.84C487.452 280.84 488.312 280.46 488.972 279.68C489.632 278.9 489.972 277.96 489.972 276.82C489.972 275.58 489.632 274.6 488.932 273.88C488.252 273.14 487.372 272.78 486.312 272.78C485.252 272.78 484.372 273.16 483.692 273.92C483.032 274.66 482.692 275.64 482.692 276.82ZM493.659 276.8C493.659 273.48 495.939 271.34 498.759 271.34C501.859 271.32 503.859 273.7 503.799 276.66V277.36H495.319C495.399 279.46 496.739 280.82 498.879 280.82C500.319 280.82 501.599 280.14 502.059 278.94H503.699C503.119 280.92 501.259 282.26 498.859 282.26C495.699 282.26 493.659 279.92 493.659 276.8ZM495.359 275.96H502.119C501.979 273.96 500.599 272.78 498.759 272.78C497.859 272.78 497.099 273.08 496.439 273.66C495.799 274.24 495.439 275.02 495.359 275.96ZM513.093 282H511.533V268H513.313L518.733 280.22H518.853L523.873 268H525.653V282H524.093V271.56H523.973L519.713 282H517.873L513.213 271.56H513.093V282ZM528.218 276.8C528.218 275.24 528.738 273.94 529.778 272.9C530.818 271.86 532.118 271.34 533.658 271.34C535.218 271.34 536.518 271.86 537.538 272.9C538.558 273.94 539.078 275.24 539.078 276.8C539.078 278.36 538.558 279.66 537.518 280.7C536.478 281.74 535.178 282.26 533.638 282.26C530.578 282.32 528.158 279.92 528.218 276.8ZM529.838 276.8C529.838 277.98 530.198 278.94 530.898 279.7C531.618 280.44 532.538 280.82 533.638 280.82C534.738 280.82 535.658 280.44 536.378 279.7C537.098 278.94 537.458 277.98 537.458 276.8C537.458 275.64 537.098 274.68 536.378 273.92C535.658 273.16 534.738 272.78 533.638 272.78C532.538 272.78 531.618 273.16 530.898 273.94C530.198 274.7 529.838 275.66 529.838 276.8ZM540.63 276.82C540.63 275.22 541.11 273.9 542.05 272.88C543.01 271.86 544.23 271.34 545.69 271.34C546.71 271.34 547.65 271.66 548.23 272.12C548.81 272.58 549.13 272.94 549.35 273.28H549.47V267H551.05V282H549.53V280.36H549.41C548.53 281.62 547.33 282.26 545.81 282.26C544.29 282.26 543.05 281.76 542.07 280.74C541.11 279.72 540.63 278.42 540.63 276.82ZM542.25 276.82C542.25 278.04 542.59 279.02 543.25 279.76C543.93 280.48 544.81 280.84 545.91 280.84C547.01 280.84 547.87 280.46 548.53 279.68C549.19 278.9 549.53 277.96 549.53 276.82C549.53 275.58 549.19 274.6 548.49 273.88C547.81 273.14 546.93 272.78 545.87 272.78C544.81 272.78 543.93 273.16 543.25 273.92C542.59 274.66 542.25 275.64 542.25 276.82ZM553.217 276.8C553.217 273.48 555.497 271.34 558.317 271.34C561.417 271.32 563.417 273.7 563.357 276.66V277.36H554.877C554.957 279.46 556.297 280.82 558.437 280.82C559.877 280.82 561.157 280.14 561.617 278.94H563.257C562.677 280.92 560.817 282.26 558.417 282.26C555.257 282.26 553.217 279.92 553.217 276.8ZM554.917 275.96H561.677C561.537 273.96 560.157 272.78 558.317 272.78C557.417 272.78 556.657 273.08 555.997 273.66C555.357 274.24 554.997 275.02 554.917 275.96ZM564.515 279.78V267H566.095V279.78C566.095 280.32 566.355 280.6 566.855 280.6H567.335V282H566.575C565.275 282 564.515 281.2 564.515 279.78ZM330.333 293.792L330.909 294.752C328.781 295.904 327.085 298.064 327.085 301.04C327.085 304.016 328.781 306.176 330.909 307.328L330.333 308.288C327.837 306.96 325.821 304.512 325.821 301.04C325.821 297.552 327.837 295.12 330.333 293.792ZM332.079 309.68V308.528H332.687C333.647 308.528 334.255 307.888 334.255 306.976V297.68H335.519V306.992C335.519 308.656 334.383 309.68 332.671 309.68H332.079ZM333.967 295.248C333.967 294.736 334.351 294.336 334.879 294.336C335.439 294.336 335.807 294.736 335.807 295.248C335.807 295.776 335.439 296.176 334.879 296.176C334.351 296.176 333.967 295.776 333.967 295.248ZM338.021 302.912V297.68H339.285V302.864C339.285 303.52 339.493 304.048 339.909 304.448C340.325 304.848 340.837 305.056 341.429 305.056C342.085 305.056 342.645 304.832 343.093 304.384C343.541 303.92 343.765 303.36 343.765 302.672V297.68H345.029V306H343.765V304.784H343.669C343.301 305.6 342.357 306.208 341.125 306.208C340.181 306.208 339.429 305.904 338.869 305.28C338.309 304.656 338.021 303.856 338.021 302.912ZM346.911 303.584H348.143C348.287 304.592 348.991 305.104 350.207 305.104C351.423 305.104 352.143 304.528 352.143 303.648C352.143 301.328 347.167 303.072 347.167 299.792C347.167 299.088 347.455 298.528 348.015 298.112C348.575 297.68 349.295 297.472 350.175 297.472C350.959 297.472 351.631 297.696 352.191 298.128C352.751 298.56 353.055 299.136 353.119 299.872H351.903C351.791 299.056 351.167 298.56 350.095 298.56C349.055 298.56 348.383 299.072 348.383 299.792C348.383 301.904 353.375 300.16 353.375 303.584C353.375 304.368 353.071 305.008 352.479 305.488C351.887 305.968 351.119 306.208 350.143 306.208C348.223 306.208 347.055 305.184 346.911 303.584ZM356.276 298.752H354.708V297.68H355.956C356.196 297.68 356.356 297.52 356.356 297.264V295.264H357.54V297.68H360.1V298.752H357.54V303.472C357.54 304.416 357.892 304.896 358.836 304.896H359.988V306H358.756C357.172 306 356.276 305.136 356.276 303.488V298.752ZM365.477 301.856C365.477 300.576 365.861 299.52 366.613 298.704C367.381 297.888 368.357 297.472 369.525 297.472C370.341 297.472 371.093 297.728 371.557 298.096C372.021 298.464 372.277 298.752 372.453 299.024H372.549V297.68H373.813V306H372.597V304.688H372.501C371.797 305.696 370.837 306.208 369.621 306.208C368.405 306.208 367.413 305.808 366.629 304.992C365.861 304.176 365.477 303.136 365.477 301.856ZM366.773 301.856C366.773 302.832 367.045 303.616 367.573 304.208C368.117 304.784 368.821 305.072 369.701 305.072C370.581 305.072 371.269 304.768 371.797 304.144C372.325 303.52 372.597 302.768 372.597 301.856C372.597 300.864 372.325 300.08 371.765 299.504C371.221 298.912 370.517 298.624 369.669 298.624C368.821 298.624 368.117 298.928 367.573 299.536C367.045 300.128 366.773 300.912 366.773 301.856ZM380.927 298.752H379.359V297.68H380.927V296.688C380.927 295.024 382.063 294 383.775 294H384.559V295.104H383.759C382.687 295.104 382.191 295.744 382.191 296.704V297.68H384.623V298.752H382.191V306H380.927V298.752ZM384.827 301.856C384.827 300.576 385.211 299.52 385.963 298.704C386.731 297.888 387.707 297.472 388.875 297.472C389.691 297.472 390.443 297.728 390.907 298.096C391.371 298.464 391.627 298.752 391.803 299.024H391.899V297.68H393.163V306H391.947V304.688H391.851C391.147 305.696 390.187 306.208 388.971 306.208C387.755 306.208 386.763 305.808 385.979 304.992C385.211 304.176 384.827 303.136 384.827 301.856ZM386.123 301.856C386.123 302.832 386.395 303.616 386.923 304.208C387.467 304.784 388.171 305.072 389.051 305.072C389.931 305.072 390.619 304.768 391.147 304.144C391.675 303.52 391.947 302.768 391.947 301.856C391.947 300.864 391.675 300.08 391.115 299.504C390.571 298.912 389.867 298.624 389.019 298.624C388.171 298.624 387.467 298.928 386.923 299.536C386.395 300.128 386.123 300.912 386.123 301.856ZM396.801 306H395.537V297.68H396.801V298.896H396.897C397.265 298.08 398.209 297.472 399.441 297.472C400.385 297.472 401.137 297.792 401.697 298.416C402.257 299.04 402.545 299.824 402.545 300.768V306H401.281V300.848C401.281 300.192 401.073 299.664 400.657 299.264C400.241 298.864 399.729 298.656 399.137 298.656C398.481 298.656 397.921 298.88 397.473 299.344C397.025 299.792 396.801 300.352 396.801 301.04V306ZM408.535 297.472C409.463 297.472 410.295 297.744 411.031 298.272C411.783 298.8 412.263 299.504 412.471 300.416H411.159C410.823 299.328 409.783 298.624 408.567 298.624C407.687 298.624 406.983 298.928 406.423 299.552C405.863 300.16 405.591 300.928 405.591 301.84C405.591 302.784 405.879 303.552 406.439 304.16C406.999 304.752 407.719 305.056 408.599 305.056C409.815 305.056 410.871 304.336 411.191 303.264H412.487C412.279 304.176 411.799 304.896 411.047 305.424C410.311 305.952 409.479 306.208 408.551 306.208C406.087 306.256 404.231 304.256 404.279 301.84C404.231 299.424 406.151 297.424 408.535 297.472ZM416.296 306.448L412.92 297.68H414.328L416.904 304.72H417L419.592 297.68H421.016L417.048 307.904C416.6 309.104 415.896 309.68 414.6 309.68H413.736V308.528H414.36C415.176 308.528 415.64 308.176 415.912 307.456L416.296 306.448ZM427.331 298.752H425.763V297.68H427.331V296.688C427.331 295.024 428.467 294 430.179 294H430.963V295.104H430.163C429.091 295.104 428.595 295.744 428.595 296.704V297.68H431.027V298.752H428.595V306H427.331V298.752ZM432.679 302.912V297.68H433.943V302.864C433.943 303.52 434.151 304.048 434.567 304.448C434.983 304.848 435.495 305.056 436.087 305.056C436.743 305.056 437.303 304.832 437.751 304.384C438.199 303.92 438.423 303.36 438.423 302.672V297.68H439.687V306H438.423V304.784H438.327C437.959 305.6 437.015 306.208 435.783 306.208C434.839 306.208 434.087 305.904 433.527 305.28C432.967 304.656 432.679 303.856 432.679 302.912ZM443.314 306H442.05V297.68H443.314V298.896H443.41C443.778 298.08 444.722 297.472 445.954 297.472C446.898 297.472 447.65 297.792 448.21 298.416C448.77 299.04 449.058 299.824 449.058 300.768V306H447.794V300.848C447.794 300.192 447.586 299.664 447.17 299.264C446.754 298.864 446.242 298.656 445.65 298.656C444.994 298.656 444.434 298.88 443.986 299.344C443.538 299.792 443.314 300.352 443.314 301.04V306ZM452.2 298.752H450.632V297.68H451.88C452.12 297.68 452.28 297.52 452.28 297.264V295.264H453.464V297.68H456.024V298.752H453.464V303.472C453.464 304.416 453.816 304.896 454.76 304.896H455.912V306H454.68C453.096 306 452.2 305.136 452.2 303.488V298.752ZM457.652 295.248C457.652 294.736 458.036 294.336 458.564 294.336C459.092 294.336 459.492 294.736 459.492 295.248C459.492 295.776 459.092 296.176 458.564 296.176C458.036 296.176 457.652 295.776 457.652 295.248ZM459.172 306H457.908V297.68H459.172V306ZM460.901 301.84C460.901 300.592 461.317 299.552 462.149 298.72C462.981 297.888 464.021 297.472 465.253 297.472C466.501 297.472 467.541 297.888 468.357 298.72C469.173 299.552 469.589 300.592 469.589 301.84C469.589 303.088 469.173 304.128 468.341 304.96C467.509 305.792 466.469 306.208 465.237 306.208C462.789 306.256 460.853 304.336 460.901 301.84ZM462.197 301.84C462.197 302.784 462.485 303.552 463.045 304.16C463.621 304.752 464.357 305.056 465.237 305.056C466.117 305.056 466.853 304.752 467.429 304.16C468.005 303.552 468.293 302.784 468.293 301.84C468.293 300.912 468.005 300.144 467.429 299.536C466.853 298.928 466.117 298.624 465.237 298.624C464.357 298.624 463.621 298.928 463.045 299.552C462.485 300.16 462.197 300.928 462.197 301.84ZM472.734 306H471.47V297.68H472.734V298.896H472.83C473.198 298.08 474.142 297.472 475.374 297.472C476.318 297.472 477.07 297.792 477.63 298.416C478.19 299.04 478.478 299.824 478.478 300.768V306H477.214V300.848C477.214 300.192 477.006 299.664 476.59 299.264C476.174 298.864 475.662 298.656 475.07 298.656C474.414 298.656 473.854 298.88 473.406 299.344C472.958 299.792 472.734 300.352 472.734 301.04V306ZM484.345 301.856C484.345 300.576 484.729 299.52 485.481 298.704C486.249 297.888 487.225 297.472 488.393 297.472C489.209 297.472 489.961 297.728 490.425 298.096C490.889 298.464 491.145 298.752 491.321 299.024H491.417V297.68H492.681V306H491.465V304.688H491.369C490.665 305.696 489.705 306.208 488.489 306.208C487.273 306.208 486.281 305.808 485.497 304.992C484.729 304.176 484.345 303.136 484.345 301.856ZM485.641 301.856C485.641 302.832 485.913 303.616 486.441 304.208C486.985 304.784 487.689 305.072 488.569 305.072C489.449 305.072 490.137 304.768 490.665 304.144C491.193 303.52 491.465 302.768 491.465 301.856C491.465 300.864 491.193 300.08 490.633 299.504C490.089 298.912 489.385 298.624 488.537 298.624C487.689 298.624 486.985 298.928 486.441 299.536C485.913 300.128 485.641 300.912 485.641 301.856ZM496.319 309.68H495.055V297.68H496.271V298.992H496.367C496.495 298.8 496.575 298.656 496.943 298.336C497.439 297.888 498.143 297.472 499.247 297.472C500.463 297.472 501.455 297.872 502.223 298.688C503.007 299.504 503.391 300.544 503.391 301.824C503.391 303.104 503.007 304.16 502.239 304.976C501.487 305.792 500.511 306.208 499.343 306.208C498.527 306.208 497.791 305.952 497.295 305.584C496.831 305.216 496.591 304.928 496.415 304.656H496.319V309.68ZM496.271 301.824C496.271 302.816 496.543 303.6 497.103 304.192C497.663 304.768 498.351 305.056 499.199 305.056C500.047 305.056 500.751 304.752 501.279 304.16C501.823 303.552 502.095 302.768 502.095 301.824C502.095 300.848 501.823 300.064 501.279 299.488C500.751 298.896 500.047 298.608 499.167 298.608C498.287 298.608 497.583 298.912 497.055 299.536C496.527 300.16 496.271 300.912 496.271 301.824ZM506.545 309.68H505.281V297.68H506.497V298.992H506.593C506.721 298.8 506.801 298.656 507.169 298.336C507.665 297.888 508.369 297.472 509.473 297.472C510.689 297.472 511.681 297.872 512.449 298.688C513.233 299.504 513.617 300.544 513.617 301.824C513.617 303.104 513.233 304.16 512.465 304.976C511.713 305.792 510.737 306.208 509.569 306.208C508.753 306.208 508.017 305.952 507.521 305.584C507.057 305.216 506.817 304.928 506.641 304.656H506.545V309.68ZM506.497 301.824C506.497 302.816 506.769 303.6 507.329 304.192C507.889 304.768 508.577 305.056 509.425 305.056C510.273 305.056 510.977 304.752 511.505 304.16C512.049 303.552 512.321 302.768 512.321 301.824C512.321 300.848 512.049 300.064 511.505 299.488C510.977 298.896 510.273 298.608 509.393 298.608C508.513 298.608 507.809 298.912 507.281 299.536C506.753 300.16 506.497 300.912 506.497 301.824ZM516.771 306H515.507V297.68H516.755V299.232H516.851C516.995 298.832 517.267 298.48 517.667 298.16C518.067 297.84 518.563 297.68 519.123 297.68H519.827V298.944H519.139C517.651 298.944 516.771 300.064 516.771 301.712V306ZM520.265 301.84C520.265 300.592 520.681 299.552 521.513 298.72C522.345 297.888 523.385 297.472 524.617 297.472C525.865 297.472 526.905 297.888 527.721 298.72C528.537 299.552 528.953 300.592 528.953 301.84C528.953 303.088 528.537 304.128 527.705 304.96C526.873 305.792 525.833 306.208 524.601 306.208C522.153 306.256 520.217 304.336 520.265 301.84ZM521.561 301.84C521.561 302.784 521.849 303.552 522.409 304.16C522.985 304.752 523.721 305.056 524.601 305.056C525.481 305.056 526.217 304.752 526.793 304.16C527.369 303.552 527.657 302.784 527.657 301.84C527.657 300.912 527.369 300.144 526.793 299.536C526.217 298.928 525.481 298.624 524.601 298.624C523.721 298.624 522.985 298.928 522.409 299.552C521.849 300.16 521.561 300.928 521.561 301.84ZM530.61 306H529.138L532.146 301.664L529.362 297.68H530.85L532.946 300.816H533.042L535.138 297.68H536.626L533.842 301.728L536.85 306H535.362L533.042 302.624H532.898L530.61 306ZM538.085 295.248C538.085 294.736 538.469 294.336 538.997 294.336C539.525 294.336 539.925 294.736 539.925 295.248C539.925 295.776 539.525 296.176 538.997 296.176C538.469 296.176 538.085 295.776 538.085 295.248ZM539.605 306H538.341V297.68H539.605V306ZM543.238 306H541.974V297.68H543.238V298.88H543.334C543.766 298.048 544.598 297.472 545.766 297.472C546.982 297.472 547.926 298.048 548.39 298.992H548.502C549.03 297.984 549.91 297.472 551.142 297.472C552.054 297.472 552.79 297.76 553.35 298.352C553.91 298.944 554.198 299.696 554.198 300.608V306H552.934V301.024C552.934 299.488 552.182 298.656 550.918 298.656C549.686 298.656 548.726 299.552 548.726 301.04V306H547.462V300.784C547.462 299.488 546.598 298.656 545.398 298.656C544.806 298.656 544.294 298.88 543.862 299.312C543.446 299.744 543.238 300.304 543.238 300.992V306ZM555.919 301.856C555.919 300.576 556.303 299.52 557.055 298.704C557.823 297.888 558.799 297.472 559.967 297.472C560.783 297.472 561.535 297.728 561.999 298.096C562.463 298.464 562.719 298.752 562.895 299.024H562.991V297.68H564.255V306H563.039V304.688H562.943C562.239 305.696 561.279 306.208 560.063 306.208C558.847 306.208 557.855 305.808 557.071 304.992C556.303 304.176 555.919 303.136 555.919 301.856ZM557.215 301.856C557.215 302.832 557.487 303.616 558.015 304.208C558.559 304.784 559.263 305.072 560.143 305.072C561.023 305.072 561.711 304.768 562.239 304.144C562.767 303.52 563.039 302.768 563.039 301.856C563.039 300.864 562.767 300.08 562.207 299.504C561.663 298.912 560.959 298.624 560.111 298.624C559.263 298.624 558.559 298.928 558.015 299.536C557.487 300.128 557.215 300.912 557.215 301.856ZM567.397 298.752H565.829V297.68H567.077C567.317 297.68 567.477 297.52 567.477 297.264V295.264H568.661V297.68H571.221V298.752H568.661V303.472C568.661 304.416 569.013 304.896 569.957 304.896H571.109V306H569.877C568.293 306 567.397 305.136 567.397 303.488V298.752ZM572.465 301.84C572.465 300.592 572.881 299.552 573.713 298.72C574.545 297.888 575.585 297.472 576.817 297.472C578.065 297.472 579.105 297.888 579.921 298.72C580.737 299.552 581.153 300.592 581.153 301.84C581.153 303.088 580.737 304.128 579.905 304.96C579.073 305.792 578.033 306.208 576.801 306.208C574.353 306.256 572.417 304.336 572.465 301.84ZM573.761 301.84C573.761 302.784 574.049 303.552 574.609 304.16C575.185 304.752 575.921 305.056 576.801 305.056C577.681 305.056 578.417 304.752 578.993 304.16C579.569 303.552 579.857 302.784 579.857 301.84C579.857 300.912 579.569 300.144 578.993 299.536C578.417 298.928 577.681 298.624 576.801 298.624C575.921 298.624 575.185 298.928 574.609 299.552C574.049 300.16 573.761 300.928 573.761 301.84ZM584.299 306H583.035V297.68H584.283V299.232H584.379C584.523 298.832 584.795 298.48 585.195 298.16C585.595 297.84 586.091 297.68 586.651 297.68H587.355V298.944H586.667C585.179 298.944 584.299 300.064 584.299 301.712V306ZM589.665 308.288L589.089 307.328C591.233 306.176 592.913 304.032 592.913 301.04C592.913 298.048 591.233 295.904 589.089 294.752L589.665 293.792C592.161 295.12 594.177 297.552 594.177 301.04C594.177 304.512 592.161 306.96 589.665 308.288Z" fill="white"/>
<path d="M460.5 323L460.5 368" stroke="url(#paint25_linear_41_917)" stroke-linecap="square"/>
<g filter="url(#filter7_f_41_917)">
<circle cx="460.5" cy="368" r="7" transform="rotate(-90 460.5 368)" fill="#FFB245"/>
</g>
<rect x="445" y="368" width="30" height="12" fill="#0D0D0E"/>
<rect x="279.5" y="368.5" width="361" height="79" rx="7.5" stroke="url(#paint26_linear_41_917)"/>
<path d="M291.148 400H289.448L294.848 386H296.748L302.128 400H300.428L299.168 396.68H292.408L291.148 400ZM295.728 387.88L292.968 395.2H298.608L295.848 387.88H295.728ZM310.63 404.6H309.05V389.6H310.57V391.24H310.69C310.85 391 310.95 390.82 311.41 390.42C312.03 389.86 312.91 389.34 314.29 389.34C315.81 389.34 317.05 389.84 318.01 390.86C318.99 391.88 319.47 393.18 319.47 394.78C319.47 396.38 318.99 397.7 318.03 398.72C317.09 399.74 315.87 400.26 314.41 400.26C313.39 400.26 312.47 399.94 311.85 399.48C311.27 399.02 310.97 398.66 310.75 398.32H310.63V404.6ZM310.57 394.78C310.57 396.02 310.91 397 311.61 397.74C312.31 398.46 313.17 398.82 314.23 398.82C315.29 398.82 316.17 398.44 316.83 397.7C317.51 396.94 317.85 395.96 317.85 394.78C317.85 393.56 317.51 392.58 316.83 391.86C316.17 391.12 315.29 390.76 314.19 390.76C313.09 390.76 312.21 391.14 311.55 391.92C310.89 392.7 310.57 393.64 310.57 394.78ZM323.412 400H321.832V389.6H323.392V391.54H323.512C323.692 391.04 324.032 390.6 324.532 390.2C325.032 389.8 325.652 389.6 326.352 389.6H327.232V391.18H326.372C324.512 391.18 323.412 392.58 323.412 394.64V400ZM327.78 394.8C327.78 393.24 328.3 391.94 329.34 390.9C330.38 389.86 331.68 389.34 333.22 389.34C334.78 389.34 336.08 389.86 337.1 390.9C338.12 391.94 338.64 393.24 338.64 394.8C338.64 396.36 338.12 397.66 337.08 398.7C336.04 399.74 334.74 400.26 333.2 400.26C330.14 400.32 327.72 397.92 327.78 394.8ZM329.4 394.8C329.4 395.98 329.76 396.94 330.46 397.7C331.18 398.44 332.1 398.82 333.2 398.82C334.3 398.82 335.22 398.44 335.94 397.7C336.66 396.94 337.02 395.98 337.02 394.8C337.02 393.64 336.66 392.68 335.94 391.92C335.22 391.16 334.3 390.78 333.2 390.78C332.1 390.78 331.18 391.16 330.46 391.94C329.76 392.7 329.4 393.66 329.4 394.8ZM342.511 400H340.991V385H342.571V391.28H342.691C342.911 390.94 343.211 390.58 343.791 390.12C344.411 389.66 345.331 389.34 346.351 389.34C347.811 389.34 349.031 389.86 349.971 390.88C350.931 391.9 351.411 393.22 351.411 394.82C351.411 396.42 350.931 397.72 349.951 398.74C348.991 399.76 347.751 400.26 346.231 400.26C345.371 400.26 344.551 399.98 344.071 399.72C343.831 399.58 343.591 399.4 343.351 399.2C342.891 398.78 342.791 398.6 342.631 398.36H342.511V400ZM342.511 394.82C342.511 395.96 342.831 396.9 343.491 397.68C344.151 398.46 345.031 398.84 346.131 398.84C347.231 398.84 348.111 398.48 348.771 397.76C349.451 397.02 349.791 396.04 349.791 394.82C349.791 393.64 349.451 392.66 348.771 391.92C348.111 391.16 347.231 390.78 346.171 390.78C345.111 390.78 344.251 391.14 343.551 391.88C342.851 392.6 342.511 393.58 342.511 394.82ZM352.974 394.82C352.974 393.22 353.454 391.9 354.394 390.88C355.354 389.86 356.574 389.34 358.034 389.34C359.054 389.34 359.994 389.66 360.574 390.12C361.154 390.58 361.474 390.94 361.694 391.28H361.814V389.6H363.394V400H361.874V398.36H361.754C360.874 399.62 359.674 400.26 358.154 400.26C356.634 400.26 355.394 399.76 354.414 398.74C353.454 397.72 352.974 396.42 352.974 394.82ZM354.594 394.82C354.594 396.04 354.934 397.02 355.594 397.76C356.274 398.48 357.154 398.84 358.254 398.84C359.354 398.84 360.214 398.46 360.874 397.68C361.534 396.9 361.874 395.96 361.874 394.82C361.874 393.58 361.534 392.6 360.834 391.88C360.154 391.14 359.274 390.78 358.214 390.78C357.154 390.78 356.274 391.16 355.594 391.92C354.934 392.66 354.594 393.64 354.594 394.82ZM367.881 400H366.361V385H367.941V391.28H368.061C368.281 390.94 368.581 390.58 369.161 390.12C369.781 389.66 370.701 389.34 371.721 389.34C373.181 389.34 374.401 389.86 375.341 390.88C376.301 391.9 376.781 393.22 376.781 394.82C376.781 396.42 376.301 397.72 375.321 398.74C374.361 399.76 373.121 400.26 371.601 400.26C370.741 400.26 369.921 399.98 369.441 399.72C369.201 399.58 368.961 399.4 368.721 399.2C368.261 398.78 368.161 398.6 368.001 398.36H367.881V400ZM367.881 394.82C367.881 395.96 368.201 396.9 368.861 397.68C369.521 398.46 370.401 398.84 371.501 398.84C372.601 398.84 373.481 398.48 374.141 397.76C374.821 397.02 375.161 396.04 375.161 394.82C375.161 393.64 374.821 392.66 374.141 391.92C373.481 391.16 372.601 390.78 371.541 390.78C370.481 390.78 369.621 391.14 368.921 391.88C368.221 392.6 367.881 393.58 367.881 394.82ZM378.824 386.56C378.824 385.92 379.304 385.42 379.964 385.42C380.624 385.42 381.124 385.92 381.124 386.56C381.124 387.22 380.624 387.72 379.964 387.72C379.304 387.72 378.824 387.22 378.824 386.56ZM380.724 400H379.144V389.6H380.724V400ZM383.685 397.78V385H385.265V397.78C385.265 398.32 385.525 398.6 386.025 398.6H386.505V400H385.745C384.445 400 383.685 399.2 383.685 397.78ZM387.925 386.56C387.925 385.92 388.405 385.42 389.065 385.42C389.725 385.42 390.225 385.92 390.225 386.56C390.225 387.22 389.725 387.72 389.065 387.72C388.405 387.72 387.925 387.22 387.925 386.56ZM389.825 400H388.245V389.6H389.825V400ZM393.745 390.94H391.785V389.6H393.345C393.645 389.6 393.845 389.4 393.845 389.08V386.58H395.325V389.6H398.525V390.94H395.325V396.84C395.325 398.02 395.765 398.62 396.945 398.62H398.385V400H396.845C394.865 400 393.745 398.92 393.745 396.86V390.94ZM403.9 400.56L399.68 389.6H401.44L404.66 398.4H404.78L408.02 389.6H409.8L404.84 402.38C404.28 403.88 403.4 404.6 401.78 404.6H400.7V403.16H401.48C402.5 403.16 403.08 402.72 403.42 401.82L403.9 400.56ZM416.134 394.82C416.134 393.22 416.614 391.9 417.554 390.88C418.514 389.86 419.734 389.34 421.194 389.34C422.214 389.34 423.154 389.66 423.734 390.12C424.314 390.58 424.634 390.94 424.854 391.28H424.974V385H426.554V400H425.034V398.36H424.914C424.034 399.62 422.834 400.26 421.314 400.26C419.794 400.26 418.554 399.76 417.574 398.74C416.614 397.72 416.134 396.42 416.134 394.82ZM417.754 394.82C417.754 396.04 418.094 397.02 418.754 397.76C419.434 398.48 420.314 398.84 421.414 398.84C422.514 398.84 423.374 398.46 424.034 397.68C424.694 396.9 425.034 395.96 425.034 394.82C425.034 393.58 424.694 392.6 423.994 391.88C423.314 391.14 422.434 390.78 421.374 390.78C420.314 390.78 419.434 391.16 418.754 391.92C418.094 392.66 417.754 393.64 417.754 394.82ZM429.201 386.56C429.201 385.92 429.681 385.42 430.341 385.42C431.001 385.42 431.501 385.92 431.501 386.56C431.501 387.22 431.001 387.72 430.341 387.72C429.681 387.72 429.201 387.22 429.201 386.56ZM431.101 400H429.521V389.6H431.101V400ZM433.462 396.98H435.002C435.182 398.24 436.062 398.88 437.582 398.88C439.102 398.88 440.002 398.16 440.002 397.06C440.002 394.16 433.782 396.34 433.782 392.24C433.782 391.36 434.142 390.66 434.842 390.14C435.542 389.6 436.442 389.34 437.542 389.34C438.522 389.34 439.362 389.62 440.062 390.16C440.762 390.7 441.142 391.42 441.222 392.34H439.702C439.562 391.32 438.782 390.7 437.442 390.7C436.142 390.7 435.302 391.34 435.302 392.24C435.302 394.88 441.542 392.7 441.542 396.98C441.542 397.96 441.162 398.76 440.422 399.36C439.682 399.96 438.722 400.26 437.502 400.26C435.102 400.26 433.642 398.98 433.462 396.98ZM445.168 390.94H443.208V389.6H444.768C445.068 389.6 445.268 389.4 445.268 389.08V386.58H446.748V389.6H449.948V390.94H446.748V396.84C446.748 398.02 447.188 398.62 448.368 398.62H449.808V400H448.268C446.288 400 445.168 398.92 445.168 396.86V390.94ZM453.883 400H452.303V389.6H453.863V391.54H453.983C454.163 391.04 454.503 390.6 455.003 390.2C455.503 389.8 456.123 389.6 456.823 389.6H457.703V391.18H456.843C454.983 391.18 453.883 392.58 453.883 394.64V400ZM459.55 386.56C459.55 385.92 460.03 385.42 460.69 385.42C461.35 385.42 461.85 385.92 461.85 386.56C461.85 387.22 461.35 387.72 460.69 387.72C460.03 387.72 459.55 387.22 459.55 386.56ZM461.45 400H459.87V389.6H461.45V400ZM465.931 400H464.411V385H465.991V391.28H466.111C466.331 390.94 466.631 390.58 467.211 390.12C467.831 389.66 468.751 389.34 469.771 389.34C471.231 389.34 472.451 389.86 473.391 390.88C474.351 391.9 474.831 393.22 474.831 394.82C474.831 396.42 474.351 397.72 473.371 398.74C472.411 399.76 471.171 400.26 469.651 400.26C468.791 400.26 467.971 399.98 467.491 399.72C467.251 399.58 467.011 399.4 466.771 399.2C466.311 398.78 466.211 398.6 466.051 398.36H465.931V400ZM465.931 394.82C465.931 395.96 466.251 396.9 466.911 397.68C467.571 398.46 468.451 398.84 469.551 398.84C470.651 398.84 471.531 398.48 472.191 397.76C472.871 397.02 473.211 396.04 473.211 394.82C473.211 393.64 472.871 392.66 472.191 391.92C471.531 391.16 470.651 390.78 469.591 390.78C468.531 390.78 467.671 391.14 466.971 391.88C466.271 392.6 465.931 393.58 465.931 394.82ZM476.994 396.14V389.6H478.574V396.08C478.574 396.9 478.834 397.56 479.354 398.06C479.874 398.56 480.514 398.82 481.254 398.82C482.074 398.82 482.774 398.54 483.334 397.98C483.894 397.4 484.174 396.7 484.174 395.84V389.6H485.754V400H484.174V398.48H484.054C483.594 399.5 482.414 400.26 480.874 400.26C479.694 400.26 478.754 399.88 478.054 399.1C477.354 398.32 476.994 397.32 476.994 396.14ZM489.667 390.94H487.707V389.6H489.267C489.567 389.6 489.767 389.4 489.767 389.08V386.58H491.247V389.6H494.447V390.94H491.247V396.84C491.247 398.02 491.687 398.62 492.867 398.62H494.307V400H492.767C490.787 400 489.667 398.92 489.667 396.86V390.94ZM496.482 386.56C496.482 385.92 496.962 385.42 497.622 385.42C498.282 385.42 498.782 385.92 498.782 386.56C498.782 387.22 498.282 387.72 497.622 387.72C496.962 387.72 496.482 387.22 496.482 386.56ZM498.382 400H496.802V389.6H498.382V400ZM500.542 394.8C500.542 393.24 501.062 391.94 502.102 390.9C503.142 389.86 504.442 389.34 505.982 389.34C507.542 389.34 508.842 389.86 509.862 390.9C510.882 391.94 511.402 393.24 511.402 394.8C511.402 396.36 510.882 397.66 509.842 398.7C508.802 399.74 507.502 400.26 505.962 400.26C502.902 400.32 500.482 397.92 500.542 394.8ZM502.162 394.8C502.162 395.98 502.522 396.94 503.222 397.7C503.942 398.44 504.862 398.82 505.962 398.82C507.062 398.82 507.982 398.44 508.702 397.7C509.422 396.94 509.782 395.98 509.782 394.8C509.782 393.64 509.422 392.68 508.702 391.92C507.982 391.16 507.062 390.78 505.962 390.78C504.862 390.78 503.942 391.16 503.222 391.94C502.522 392.7 502.162 393.66 502.162 394.8ZM515.334 400H513.754V389.6H515.334V391.12H515.454C515.914 390.1 517.094 389.34 518.634 389.34C519.814 389.34 520.754 389.74 521.454 390.52C522.154 391.3 522.514 392.28 522.514 393.46V400H520.934V393.56C520.934 392.74 520.674 392.08 520.154 391.58C519.634 391.08 518.994 390.82 518.254 390.82C517.434 390.82 516.734 391.1 516.174 391.68C515.614 392.24 515.334 392.94 515.334 393.8V400ZM532.687 400L529.447 389.6H531.167L533.687 398.2H533.807L536.567 389.6H538.367L541.107 398.2H541.227L543.767 389.6H545.487L542.227 400H540.187L537.527 391.56H537.407L534.727 400H532.687ZM545.833 394.8C545.833 391.48 548.113 389.34 550.933 389.34C554.033 389.32 556.033 391.7 555.973 394.66V395.36H547.493C547.573 397.46 548.913 398.82 551.053 398.82C552.493 398.82 553.773 398.14 554.233 396.94H555.873C555.293 398.92 553.433 400.26 551.033 400.26C547.873 400.26 545.833 397.92 545.833 394.8ZM547.533 393.96H554.293C554.153 391.96 552.773 390.78 550.933 390.78C550.033 390.78 549.273 391.08 548.613 391.66C547.973 392.24 547.613 393.02 547.533 393.96ZM562.907 396.98H564.447C564.627 398.24 565.507 398.88 567.027 398.88C568.547 398.88 569.447 398.16 569.447 397.06C569.447 394.16 563.227 396.34 563.227 392.24C563.227 391.36 563.587 390.66 564.287 390.14C564.987 389.6 565.887 389.34 566.987 389.34C567.967 389.34 568.807 389.62 569.507 390.16C570.207 390.7 570.587 391.42 570.667 392.34H569.147C569.007 391.32 568.227 390.7 566.887 390.7C565.587 390.7 564.747 391.34 564.747 392.24C564.747 394.88 570.987 392.7 570.987 396.98C570.987 397.96 570.607 398.76 569.867 399.36C569.127 399.96 568.167 400.26 566.947 400.26C564.547 400.26 563.087 398.98 562.907 396.98ZM572.853 394.82C572.853 393.22 573.333 391.9 574.273 390.88C575.233 389.86 576.453 389.34 577.913 389.34C578.933 389.34 579.873 389.66 580.453 390.12C581.033 390.58 581.353 390.94 581.573 391.28H581.693V389.6H583.273V400H581.753V398.36H581.633C580.753 399.62 579.553 400.26 578.033 400.26C576.513 400.26 575.273 399.76 574.293 398.74C573.333 397.72 572.853 396.42 572.853 394.82ZM574.473 394.82C574.473 396.04 574.813 397.02 575.473 397.76C576.153 398.48 577.033 398.84 578.133 398.84C579.233 398.84 580.093 398.46 580.753 397.68C581.413 396.9 581.753 395.96 581.753 394.82C581.753 393.58 581.413 392.6 580.713 391.88C580.033 391.14 579.153 390.78 578.093 390.78C577.033 390.78 576.153 391.16 575.473 391.92C574.813 392.66 574.473 393.64 574.473 394.82ZM587.82 400H586.24V389.6H587.82V391.1H587.94C588.48 390.06 589.52 389.34 590.98 389.34C592.5 389.34 593.68 390.06 594.26 391.24H594.4C595.06 389.98 596.16 389.34 597.7 389.34C598.84 389.34 599.76 389.7 600.46 390.44C601.16 391.18 601.52 392.12 601.52 393.26V400H599.94V393.78C599.94 391.86 599 390.82 597.42 390.82C595.88 390.82 594.68 391.94 594.68 393.8V400H593.1V393.48C593.1 391.86 592.02 390.82 590.52 390.82C589.78 390.82 589.14 391.1 588.6 391.64C588.08 392.18 587.82 392.88 587.82 393.74V400ZM606.052 404.6H604.472V389.6H605.992V391.24H606.112C606.272 391 606.372 390.82 606.832 390.42C607.452 389.86 608.332 389.34 609.712 389.34C611.232 389.34 612.472 389.84 613.432 390.86C614.412 391.88 614.892 393.18 614.892 394.78C614.892 396.38 614.412 397.7 613.452 398.72C612.512 399.74 611.292 400.26 609.832 400.26C608.812 400.26 607.892 399.94 607.272 399.48C606.692 399.02 606.392 398.66 606.172 398.32H606.052V404.6ZM605.992 394.78C605.992 396.02 606.332 397 607.032 397.74C607.732 398.46 608.592 398.82 609.652 398.82C610.712 398.82 611.592 398.44 612.252 397.7C612.932 396.94 613.272 395.96 613.272 394.78C613.272 393.56 612.932 392.58 612.252 391.86C611.592 391.12 610.712 390.76 609.612 390.76C608.512 390.76 607.632 391.14 606.972 391.92C606.312 392.7 605.992 393.64 605.992 394.78ZM616.044 397.78V385H617.624V397.78C617.624 398.32 617.884 398.6 618.384 398.6H618.864V400H618.104C616.804 400 616.044 399.2 616.044 397.78ZM619.804 394.8C619.804 391.48 622.084 389.34 624.904 389.34C628.004 389.32 630.004 391.7 629.944 394.66V395.36H621.464C621.544 397.46 622.884 398.82 625.024 398.82C626.464 398.82 627.744 398.14 628.204 396.94H629.844C629.264 398.92 627.404 400.26 625.004 400.26C621.844 400.26 619.804 397.92 619.804 394.8ZM621.504 393.96H628.264C628.124 391.96 626.744 390.78 624.904 390.78C624.004 390.78 623.244 391.08 622.584 391.66C621.944 392.24 621.584 393.02 621.504 393.96ZM337.542 420.94H335.582V419.6H337.542V418.36C337.542 416.28 338.962 415 341.102 415H342.082V416.38H341.082C339.742 416.38 339.122 417.18 339.122 418.38V419.6H342.162V420.94H339.122V430H337.542V420.94ZM346.008 430H344.428V419.6H345.988V421.54H346.108C346.288 421.04 346.628 420.6 347.128 420.2C347.628 419.8 348.248 419.6 348.948 419.6H349.828V421.18H348.968C347.108 421.18 346.008 422.58 346.008 424.64V430ZM350.376 424.8C350.376 423.24 350.896 421.94 351.936 420.9C352.976 419.86 354.276 419.34 355.816 419.34C357.376 419.34 358.676 419.86 359.696 420.9C360.716 421.94 361.236 423.24 361.236 424.8C361.236 426.36 360.716 427.66 359.676 428.7C358.636 429.74 357.336 430.26 355.796 430.26C352.736 430.32 350.316 427.92 350.376 424.8ZM351.996 424.8C351.996 425.98 352.356 426.94 353.056 427.7C353.776 428.44 354.696 428.82 355.796 428.82C356.896 428.82 357.816 428.44 358.536 427.7C359.256 426.94 359.616 425.98 359.616 424.8C359.616 423.64 359.256 422.68 358.536 421.92C357.816 421.16 356.896 420.78 355.796 420.78C354.696 420.78 353.776 421.16 353.056 421.94C352.356 422.7 351.996 423.66 351.996 424.8ZM365.167 430H363.587V419.6H365.167V421.1H365.287C365.827 420.06 366.867 419.34 368.327 419.34C369.847 419.34 371.027 420.06 371.607 421.24H371.747C372.407 419.98 373.507 419.34 375.047 419.34C376.187 419.34 377.107 419.7 377.807 420.44C378.507 421.18 378.867 422.12 378.867 423.26V430H377.287V423.78C377.287 421.86 376.347 420.82 374.767 420.82C373.227 420.82 372.027 421.94 372.027 423.8V430H370.447V423.48C370.447 421.86 369.367 420.82 367.867 420.82C367.127 420.82 366.487 421.1 365.947 421.64C365.427 422.18 365.167 422.88 365.167 423.74V430ZM387.945 420.94H385.985V419.6H387.545C387.845 419.6 388.045 419.4 388.045 419.08V416.58H389.525V419.6H392.725V420.94H389.525V426.84C389.525 428.02 389.965 428.62 391.145 428.62H392.585V430H391.045C389.065 430 387.945 428.92 387.945 426.86V420.94ZM394.28 424.8C394.28 423.24 394.8 421.94 395.84 420.9C396.88 419.86 398.18 419.34 399.72 419.34C401.28 419.34 402.58 419.86 403.6 420.9C404.62 421.94 405.14 423.24 405.14 424.8C405.14 426.36 404.62 427.66 403.58 428.7C402.54 429.74 401.24 430.26 399.7 430.26C396.64 430.32 394.22 427.92 394.28 424.8ZM395.9 424.8C395.9 425.98 396.26 426.94 396.96 427.7C397.68 428.44 398.6 428.82 399.7 428.82C400.8 428.82 401.72 428.44 402.44 427.7C403.16 426.94 403.52 425.98 403.52 424.8C403.52 423.64 403.16 422.68 402.44 421.92C401.72 421.16 400.8 420.78 399.7 420.78C398.6 420.78 397.68 421.16 396.96 421.94C396.26 422.7 395.9 423.66 395.9 424.8ZM411.857 424.82C411.857 423.22 412.337 421.9 413.277 420.88C414.237 419.86 415.457 419.34 416.917 419.34C417.937 419.34 418.877 419.66 419.457 420.12C420.037 420.58 420.357 420.94 420.577 421.28H420.697V419.6H422.277V430C422.277 433.04 420.337 434.86 417.217 434.86C414.737 434.86 413.037 433.54 412.697 431.62H414.197C414.457 432.82 415.617 433.48 417.217 433.48C419.597 433.48 420.757 432.18 420.757 430V428.36H420.637C419.757 429.62 418.557 430.26 417.037 430.26C415.517 430.26 414.277 429.76 413.297 428.74C412.337 427.72 411.857 426.42 411.857 424.82ZM413.477 424.82C413.477 426.04 413.817 427.02 414.477 427.76C415.157 428.48 416.037 428.84 417.137 428.84C418.237 428.84 419.097 428.46 419.757 427.68C420.417 426.9 420.757 425.96 420.757 424.82C420.757 423.58 420.417 422.6 419.717 421.88C419.037 421.14 418.157 420.78 417.097 420.78C416.037 420.78 415.157 421.16 414.477 421.92C413.817 422.66 413.477 423.64 413.477 424.82ZM424.444 424.8C424.444 421.48 426.724 419.34 429.544 419.34C432.644 419.32 434.644 421.7 434.584 424.66V425.36H426.104C426.184 427.46 427.524 428.82 429.664 428.82C431.104 428.82 432.384 428.14 432.844 426.94H434.484C433.904 428.92 432.044 430.26 429.644 430.26C426.484 430.26 424.444 427.92 424.444 424.8ZM426.144 423.96H432.904C432.764 421.96 431.384 420.78 429.544 420.78C428.644 420.78 427.884 421.08 427.224 421.66C426.584 422.24 426.224 423.02 426.144 423.96ZM437.913 420.94H435.953V419.6H437.513C437.813 419.6 438.013 419.4 438.013 419.08V416.58H439.493V419.6H442.693V420.94H439.493V426.84C439.493 428.02 439.933 428.62 441.113 428.62H442.553V430H441.013C439.033 430 437.913 428.92 437.913 426.86V420.94ZM451.173 420.94H449.213V419.6H450.773C451.073 419.6 451.273 419.4 451.273 419.08V416.58H452.753V419.6H455.953V420.94H452.753V426.84C452.753 428.02 453.193 428.62 454.373 428.62H455.813V430H454.273C452.293 430 451.173 428.92 451.173 426.86V420.94ZM459.889 430H458.309V415H459.889V421.12H460.009C460.469 420.14 461.689 419.34 463.229 419.34C464.409 419.34 465.369 419.74 466.069 420.52C466.789 421.3 467.149 422.28 467.149 423.46V430H465.569V423.56C465.569 422.76 465.309 422.1 464.769 421.6C464.249 421.08 463.609 420.82 462.849 420.82C462.029 420.82 461.329 421.1 460.749 421.64C460.169 422.18 459.889 422.86 459.889 423.68V430ZM469.315 424.8C469.315 421.48 471.595 419.34 474.415 419.34C477.515 419.32 479.515 421.7 479.455 424.66V425.36H470.975C471.055 427.46 472.395 428.82 474.535 428.82C475.975 428.82 477.255 428.14 477.715 426.94H479.355C478.775 428.92 476.915 430.26 474.515 430.26C471.355 430.26 469.315 427.92 469.315 424.8ZM471.015 423.96H477.775C477.635 421.96 476.255 420.78 474.415 420.78C473.515 420.78 472.755 421.08 472.095 421.66C471.455 422.24 471.095 423.02 471.015 423.96ZM488.569 430H486.989V419.6H488.569V421.12H488.689C489.149 420.1 490.329 419.34 491.869 419.34C493.049 419.34 493.989 419.74 494.689 420.52C495.389 421.3 495.749 422.28 495.749 423.46V430H494.169V423.56C494.169 422.74 493.909 422.08 493.389 421.58C492.869 421.08 492.229 420.82 491.489 420.82C490.669 420.82 489.969 421.1 489.409 421.68C488.849 422.24 488.569 422.94 488.569 423.8V430ZM497.916 424.8C497.916 421.48 500.196 419.34 503.016 419.34C506.116 419.32 508.116 421.7 508.056 424.66V425.36H499.576C499.656 427.46 500.996 428.82 503.136 428.82C504.576 428.82 505.856 428.14 506.316 426.94H507.956C507.376 428.92 505.516 430.26 503.116 430.26C499.956 430.26 497.916 427.92 497.916 424.8ZM499.616 423.96H506.376C506.236 421.96 504.856 420.78 503.016 420.78C502.116 420.78 501.356 421.08 500.696 421.66C500.056 422.24 499.696 423.02 499.616 423.96ZM510.145 430H508.305L512.065 424.58L508.585 419.6H510.445L513.065 423.52H513.185L515.805 419.6H517.665L514.185 424.66L517.945 430H516.085L513.185 425.78H513.005L510.145 430ZM520.769 420.94H518.809V419.6H520.369C520.669 419.6 520.869 419.4 520.869 419.08V416.58H522.349V419.6H525.549V420.94H522.349V426.84C522.349 428.02 522.789 428.62 523.969 428.62H525.409V430H523.869C521.889 430 520.769 428.92 520.769 426.86V420.94ZM534.03 420.94H532.07V419.6H533.63C533.93 419.6 534.13 419.4 534.13 419.08V416.58H535.61V419.6H538.81V420.94H535.61V426.84C535.61 428.02 536.05 428.62 537.23 428.62H538.67V430H537.13C535.15 430 534.03 428.92 534.03 426.86V420.94ZM540.365 424.8C540.365 423.24 540.885 421.94 541.925 420.9C542.965 419.86 544.265 419.34 545.805 419.34C547.365 419.34 548.665 419.86 549.685 420.9C550.705 421.94 551.225 423.24 551.225 424.8C551.225 426.36 550.705 427.66 549.665 428.7C548.625 429.74 547.325 430.26 545.785 430.26C542.725 430.32 540.305 427.92 540.365 424.8ZM541.985 424.8C541.985 425.98 542.345 426.94 543.045 427.7C543.765 428.44 544.685 428.82 545.785 428.82C546.885 428.82 547.805 428.44 548.525 427.7C549.245 426.94 549.605 425.98 549.605 424.8C549.605 423.64 549.245 422.68 548.525 421.92C547.805 421.16 546.885 420.78 545.785 420.78C544.685 420.78 543.765 421.16 543.045 421.94C542.345 422.7 541.985 423.66 541.985 424.8ZM555.156 430H553.576V415H555.156V424.5H555.276L559.736 419.6H561.736L557.956 423.64L561.996 430H560.196L556.896 424.8L555.156 426.66V430ZM562.141 424.8C562.141 421.48 564.421 419.34 567.241 419.34C570.341 419.32 572.341 421.7 572.281 424.66V425.36H563.801C563.881 427.46 565.221 428.82 567.361 428.82C568.801 428.82 570.081 428.14 570.541 426.94H572.181C571.601 428.92 569.741 430.26 567.341 430.26C564.181 430.26 562.141 427.92 562.141 424.8ZM563.841 423.96H570.601C570.461 421.96 569.081 420.78 567.241 420.78C566.341 420.78 565.581 421.08 564.921 421.66C564.281 422.24 563.921 423.02 563.841 423.96ZM576.23 430H574.65V419.6H576.23V421.12H576.35C576.81 420.1 577.99 419.34 579.53 419.34C580.71 419.34 581.65 419.74 582.35 420.52C583.05 421.3 583.41 422.28 583.41 423.46V430H581.83V423.56C581.83 422.74 581.57 422.08 581.05 421.58C580.53 421.08 579.89 420.82 579.15 420.82C578.33 420.82 577.63 421.1 577.07 421.68C576.51 422.24 576.23 422.94 576.23 423.8V430Z" fill="white"/>
<path d="M460.5 448L460.5 493" stroke="url(#paint27_linear_41_917)" stroke-linecap="square"/>
<g filter="url(#filter8_f_41_917)">
<circle cx="460.5" cy="493" r="7" transform="rotate(-90 460.5 493)" fill="#3FCCFF"/>
</g>
<rect x="445" y="493" width="30" height="12" fill="#0D0D0E"/>
<rect x="410.5" y="492.5" width="99" height="49" rx="7.5" fill="#0D0D0E"/>
<rect x="410.5" y="492.5" width="99" height="49" rx="7.5" stroke="url(#paint28_linear_41_917)"/>
<path d="M455.244 513.3H451.844V512C454.384 512 455.344 511.44 455.344 510H456.864V524H455.244V513.3ZM465.207 520.46H459.107V519.18L463.567 510H465.267L460.987 518.9V519.02H465.207V515.86H466.807V519.02H468.647V520.46H466.807V524H465.207V520.46Z" fill="white"/>
<path d="M460.5 542L460.5 587" stroke="url(#paint29_linear_41_917)" stroke-linecap="square"/>
<g filter="url(#filter9_f_41_917)">
<circle cx="460.5" cy="587" r="7" transform="rotate(-90 460.5 587)" fill="#8E66FF"/>
</g>
<rect x="445" y="587" width="30" height="12" fill="#0D0D0E"/>
<rect x="410.5" y="587.5" width="99" height="49" rx="7.5" fill="#0D0D0E"/>
<rect x="410.5" y="587.5" width="99" height="49" rx="7.5" stroke="url(#paint30_linear_41_917)"/>
<path d="M460.808 619H459.188V605H460.808V619Z" fill="white"/>
<defs>
<filter id="filter0_f_41_917" x="449" y="239.5" width="22" height="22" filterUnits="userSpaceOnUse" color-interpolation-filters="sRGB">
<feFlood flood-opacity="0" result="BackgroundImageFix"/>
<feBlend mode="normal" in="SourceGraphic" in2="BackgroundImageFix" result="shape"/>
<feGaussianBlur stdDeviation="2" result="effect1_foregroundBlur_41_917"/>
</filter>
<filter id="filter1_f_41_917" x="99" y="144" width="22" height="22" filterUnits="userSpaceOnUse" color-interpolation-filters="sRGB">
<feFlood flood-opacity="0" result="BackgroundImageFix"/>
<feBlend mode="normal" in="SourceGraphic" in2="BackgroundImageFix" result="shape"/>
<feGaussianBlur stdDeviation="2" result="effect1_foregroundBlur_41_917"/>
</filter>
<filter id="filter2_f_41_917" x="239" y="144" width="22" height="22" filterUnits="userSpaceOnUse" color-interpolation-filters="sRGB">
<feFlood flood-opacity="0" result="BackgroundImageFix"/>
<feBlend mode="normal" in="SourceGraphic" in2="BackgroundImageFix" result="shape"/>
<feGaussianBlur stdDeviation="2" result="effect1_foregroundBlur_41_917"/>
</filter>
<filter id="filter3_f_41_917" x="379" y="144" width="22" height="22" filterUnits="userSpaceOnUse" color-interpolation-filters="sRGB">
<feFlood flood-opacity="0" result="BackgroundImageFix"/>
<feBlend mode="normal" in="SourceGraphic" in2="BackgroundImageFix" result="shape"/>
<feGaussianBlur stdDeviation="2" result="effect1_foregroundBlur_41_917"/>
</filter>
<filter id="filter4_f_41_917" x="519" y="144" width="22" height="22" filterUnits="userSpaceOnUse" color-interpolation-filters="sRGB">
<feFlood flood-opacity="0" result="BackgroundImageFix"/>
<feBlend mode="normal" in="SourceGraphic" in2="BackgroundImageFix" result="shape"/>
<feGaussianBlur stdDeviation="2" result="effect1_foregroundBlur_41_917"/>
</filter>
<filter id="filter5_f_41_917" x="659" y="144" width="22" height="22" filterUnits="userSpaceOnUse" color-interpolation-filters="sRGB">
<feFlood flood-opacity="0" result="BackgroundImageFix"/>
<feBlend mode="normal" in="SourceGraphic" in2="BackgroundImageFix" result="shape"/>
<feGaussianBlur stdDeviation="2" result="effect1_foregroundBlur_41_917"/>
</filter>
<filter id="filter6_f_41_917" x="799" y="144" width="22" height="22" filterUnits="userSpaceOnUse" color-interpolation-filters="sRGB">
<feFlood flood-opacity="0" result="BackgroundImageFix"/>
<feBlend mode="normal" in="SourceGraphic" in2="BackgroundImageFix" result="shape"/>
<feGaussianBlur stdDeviation="2" result="effect1_foregroundBlur_41_917"/>
</filter>
<filter id="filter7_f_41_917" x="449.5" y="357" width="22" height="22" filterUnits="userSpaceOnUse" color-interpolation-filters="sRGB">
<feFlood flood-opacity="0" result="BackgroundImageFix"/>
<feBlend mode="normal" in="SourceGraphic" in2="BackgroundImageFix" result="shape"/>
<feGaussianBlur stdDeviation="2" result="effect1_foregroundBlur_41_917"/>
</filter>
<filter id="filter8_f_41_917" x="449.5" y="482" width="22" height="22" filterUnits="userSpaceOnUse" color-interpolation-filters="sRGB">
<feFlood flood-opacity="0" result="BackgroundImageFix"/>
<feBlend mode="normal" in="SourceGraphic" in2="BackgroundImageFix" result="shape"/>
<feGaussianBlur stdDeviation="2" result="effect1_foregroundBlur_41_917"/>
</filter>
<filter id="filter9_f_41_917" x="449.5" y="576" width="22" height="22" filterUnits="userSpaceOnUse" color-interpolation-filters="sRGB">
<feFlood flood-opacity="0" result="BackgroundImageFix"/>
<feBlend mode="normal" in="SourceGraphic" in2="BackgroundImageFix" result="shape"/>
<feGaussianBlur stdDeviation="2" result="effect1_foregroundBlur_41_917"/>
</filter>
<linearGradient id="paint0_linear_41_917" x1="529.9" y1="205" x2="458.892" y2="206.844" gradientUnits="userSpaceOnUse">
<stop stop-color="#3FABFF"/>
<stop offset="1" stop-color="#ABACB0"/>
</linearGradient>
<linearGradient id="paint1_linear_41_917" x1="390.1" y1="205" x2="461.108" y2="206.844" gradientUnits="userSpaceOnUse">
<stop stop-color="#3FABFF"/>
<stop offset="1" stop-color="#ABACB0"/>
</linearGradient>
<linearGradient id="paint2_linear_41_917" x1="110" y1="205" x2="460" y2="250" gradientUnits="userSpaceOnUse">
<stop stop-color="#3FABFF"/>
<stop offset="1" stop-color="#ABACB0"/>
</linearGradient>
<linearGradient id="paint3_linear_41_917" x1="809.501" y1="205" x2="460.11" y2="250.356" gradientUnits="userSpaceOnUse">
<stop stop-color="#3FABFF"/>
<stop offset="1" stop-color="#ABACB0"/>
</linearGradient>
<linearGradient id="paint4_linear_41_917" x1="669.7" y1="205" x2="457.819" y2="221.503" gradientUnits="userSpaceOnUse">
<stop stop-color="#3FABFF"/>
<stop offset="1" stop-color="#ABACB0"/>
</linearGradient>
<linearGradient id="paint5_linear_41_917" x1="250.3" y1="205" x2="462.181" y2="221.503" gradientUnits="userSpaceOnUse">
<stop stop-color="#3FABFF"/>
<stop offset="1" stop-color="#ABACB0"/>
</linearGradient>
<linearGradient id="paint6_linear_41_917" x1="110" y1="155" x2="110" y2="110.469" gradientUnits="userSpaceOnUse">
<stop stop-color="#3FCCFF"/>
<stop offset="1" stop-color="#6848FF"/>
</linearGradient>
<linearGradient id="paint7_linear_41_917" x1="160" y1="155" x2="120" y2="235" gradientUnits="userSpaceOnUse">
<stop stop-color="#3EDCFF"/>
<stop offset="1" stop-color="#3E9AFF"/>
</linearGradient>
<linearGradient id="paint8_linear_41_917" x1="60" y1="110" x2="100" y2="30" gradientUnits="userSpaceOnUse">
<stop stop-color="#5337FF"/>
<stop offset="1" stop-color="#A175FF"/>
</linearGradient>
<linearGradient id="paint9_linear_41_917" x1="250" y1="155" x2="250" y2="110.469" gradientUnits="userSpaceOnUse">
<stop stop-color="#3FCCFF"/>
<stop offset="1" stop-color="#6848FF"/>
</linearGradient>
<linearGradient id="paint10_linear_41_917" x1="300" y1="155" x2="260" y2="235" gradientUnits="userSpaceOnUse">
<stop stop-color="#3EDCFF"/>
<stop offset="1" stop-color="#3E9AFF"/>
</linearGradient>
<linearGradient id="paint11_linear_41_917" x1="200" y1="110" x2="240" y2="30" gradientUnits="userSpaceOnUse">
<stop stop-color="#5337FF"/>
<stop offset="1" stop-color="#A175FF"/>
</linearGradient>
<linearGradient id="paint12_linear_41_917" x1="390" y1="155" x2="390" y2="110.469" gradientUnits="userSpaceOnUse">
<stop stop-color="#3FCCFF"/>
<stop offset="1" stop-color="#6848FF"/>
</linearGradient>
<linearGradient id="paint13_linear_41_917" x1="440" y1="155" x2="400" y2="235" gradientUnits="userSpaceOnUse">
<stop stop-color="#3EDCFF"/>
<stop offset="1" stop-color="#3E9AFF"/>
</linearGradient>
<linearGradient id="paint14_linear_41_917" x1="340" y1="110" x2="380" y2="30" gradientUnits="userSpaceOnUse">
<stop stop-color="#5337FF"/>
<stop offset="1" stop-color="#A175FF"/>
</linearGradient>
<linearGradient id="paint15_linear_41_917" x1="530" y1="155" x2="530" y2="110.469" gradientUnits="userSpaceOnUse">
<stop stop-color="#3FCCFF"/>
<stop offset="1" stop-color="#6848FF"/>
</linearGradient>
<linearGradient id="paint16_linear_41_917" x1="580" y1="155" x2="540" y2="235" gradientUnits="userSpaceOnUse">
<stop stop-color="#3EDCFF"/>
<stop offset="1" stop-color="#3E9AFF"/>
</linearGradient>
<linearGradient id="paint17_linear_41_917" x1="480" y1="110" x2="520" y2="30" gradientUnits="userSpaceOnUse">
<stop stop-color="#5337FF"/>
<stop offset="1" stop-color="#A175FF"/>
</linearGradient>
<linearGradient id="paint18_linear_41_917" x1="670" y1="155" x2="670" y2="110.469" gradientUnits="userSpaceOnUse">
<stop stop-color="#3FCCFF"/>
<stop offset="1" stop-color="#6848FF"/>
</linearGradient>
<linearGradient id="paint19_linear_41_917" x1="720" y1="155" x2="680" y2="235" gradientUnits="userSpaceOnUse">
<stop stop-color="#3EDCFF"/>
<stop offset="1" stop-color="#3E9AFF"/>
</linearGradient>
<linearGradient id="paint20_linear_41_917" x1="620" y1="110" x2="660" y2="30" gradientUnits="userSpaceOnUse">
<stop stop-color="#5337FF"/>
<stop offset="1" stop-color="#A175FF"/>
</linearGradient>
<linearGradient id="paint21_linear_41_917" x1="810" y1="155" x2="810" y2="110.469" gradientUnits="userSpaceOnUse">
<stop stop-color="#3FCCFF"/>
<stop offset="1" stop-color="#6848FF"/>
</linearGradient>
<linearGradient id="paint22_linear_41_917" x1="860" y1="155" x2="820" y2="235" gradientUnits="userSpaceOnUse">
<stop stop-color="#3EDCFF"/>
<stop offset="1" stop-color="#3E9AFF"/>
</linearGradient>
<linearGradient id="paint23_linear_41_917" x1="760" y1="110" x2="800" y2="30" gradientUnits="userSpaceOnUse">
<stop stop-color="#5337FF"/>
<stop offset="1" stop-color="#A175FF"/>
</linearGradient>
<linearGradient id="paint24_linear_41_917" x1="641" y1="250" x2="612.709" y2="390.295" gradientUnits="userSpaceOnUse">
<stop stop-color="#3EDCFF"/>
<stop offset="1" stop-color="#3E9AFF"/>
</linearGradient>
<linearGradient id="paint25_linear_41_917" x1="460.5" y1="368" x2="460.5" y2="323.469" gradientUnits="userSpaceOnUse">
<stop stop-color="#FFB245"/>
<stop offset="1" stop-color="#ABACB0"/>
</linearGradient>
<linearGradient id="paint26_linear_41_917" x1="641" y1="368" x2="607.287" y2="520.55" gradientUnits="userSpaceOnUse">
<stop offset="0.229272" stop-color="#FFB444"/>
<stop offset="1" stop-color="#FF6644"/>
</linearGradient>
<linearGradient id="paint27_linear_41_917" x1="460.5" y1="493" x2="460.5" y2="448.469" gradientUnits="userSpaceOnUse">
<stop stop-color="#3FCCFF"/>
<stop offset="1" stop-color="#FF8045"/>
</linearGradient>
<linearGradient id="paint28_linear_41_917" x1="510" y1="492" x2="470" y2="572" gradientUnits="userSpaceOnUse">
<stop stop-color="#3EDCFF"/>
<stop offset="1" stop-color="#3E9AFF"/>
</linearGradient>
<linearGradient id="paint29_linear_41_917" x1="460.5" y1="587" x2="460.5" y2="542.469" gradientUnits="userSpaceOnUse">
<stop stop-color="#8E66FF"/>
<stop offset="1" stop-color="#3FCCFF"/>
</linearGradient>
<linearGradient id="paint30_linear_41_917" x1="410" y1="637" x2="450" y2="557" gradientUnits="userSpaceOnUse">
<stop stop-color="#5337FF"/>
<stop offset="1" stop-color="#A175FF"/>
</linearGradient>
</defs>
</svg>
