<svg width="920" height="455" viewBox="0 0 920 455" fill="none" xmlns="http://www.w3.org/2000/svg">
<rect width="920" height="455" rx="40" fill="#0D0D0E"/>
<g filter="url(#filter0_f_42_1302)">
<circle cx="460" cy="250.5" r="7" transform="rotate(-90 460 250.5)" fill="#ABACB0"/>
</g>
<rect x="445" y="250" width="30" height="12" fill="#0D0D0E"/>
<path d="M530 205V218.758C530 223.177 526.418 226.758 522 226.758H468C463.582 226.758 460 230.34 460 234.758V250" stroke="url(#paint0_linear_42_1302)"/>
<path d="M390 205V218.758C390 223.177 393.582 226.758 398 226.758H452C456.418 226.758 460 230.34 460 234.758V250" stroke="url(#paint1_linear_42_1302)"/>
<path d="M109.5 205V219C109.5 223.418 113.082 227 117.5 227H452C456.418 227 460 230.582 460 235V250.5" stroke="url(#paint2_linear_42_1302)"/>
<path d="M810 205V218.758C810 223.177 806.418 226.758 802 226.758H468C463.582 226.758 460 230.34 460 234.758V250" stroke="url(#paint3_linear_42_1302)"/>
<path d="M670 205V218.758C670 223.177 666.418 226.758 662 226.758H468C463.582 226.758 460 230.34 460 234.758V250" stroke="url(#paint4_linear_42_1302)"/>
<path d="M250 205V218.758C250 223.177 253.582 226.758 258 226.758H452C456.418 226.758 460 230.34 460 234.758V250" stroke="url(#paint5_linear_42_1302)"/>
<path d="M110 110L110 155" stroke="url(#paint6_linear_42_1302)" stroke-linecap="square"/>
<g filter="url(#filter1_f_42_1302)">
<circle cx="110" cy="155" r="7" transform="rotate(-90 110 155)" fill="#3FCCFF"/>
</g>
<rect x="60.5" y="155.5" width="99" height="49" rx="7.5" fill="#0D0D0E"/>
<rect x="60.5" y="155.5" width="99" height="49" rx="7.5" stroke="url(#paint7_linear_42_1302)"/>
<path d="M101.397 176.84H99.8766C99.8766 174.92 101.357 172.74 104.137 172.74C106.777 172.74 108.477 174.7 108.477 176.78C108.477 178.38 107.677 179.68 106.077 180.7L103.617 182.26C102.037 183.28 101.517 184.06 101.517 185.2V185.52H108.597V187H99.8966V185.26C99.8966 183.5 100.797 182.3 102.717 181.08L105.257 179.48C106.297 178.82 106.817 177.94 106.817 176.82C106.817 175.32 105.777 174.26 104.097 174.26C103.317 174.26 102.657 174.52 102.157 175.02C101.657 175.52 101.397 176.12 101.397 176.84ZM111.055 183.36H112.575C112.835 184.88 113.955 185.76 115.535 185.76C116.395 185.76 117.115 185.46 117.695 184.86C118.275 184.26 118.575 183.5 118.575 182.58C118.575 180.76 117.295 179.52 115.375 179.52C113.835 179.52 113.055 180.5 112.815 180.9H111.335L111.815 173H119.335V174.48H113.235L112.935 178.98H113.055C113.055 178.98 113.935 178.04 115.655 178.04C116.955 178.04 118.055 178.48 118.915 179.38C119.775 180.28 120.215 181.34 120.215 182.58C120.215 183.9 119.775 185.02 118.875 185.92C117.975 186.82 116.895 187.26 115.595 187.26C114.355 187.26 113.315 186.9 112.455 186.18C111.615 185.46 111.155 184.52 111.055 183.36Z" fill="white"/>
<rect x="60.5" y="60.5" width="99" height="49" rx="7.5" fill="#0D0D0E"/>
<rect x="60.5" y="60.5" width="99" height="49" rx="7.5" stroke="url(#paint8_linear_42_1302)"/>
<path d="M88.4584 92L84.8784 78H86.6184L89.4784 90.02H89.5984L92.7384 78H94.7784L97.9184 90.02H98.0384L100.898 78H102.638L99.0584 92H96.9584L93.8184 80.18H93.6984L90.5584 92H88.4584ZM105.973 92H104.393V77H105.973V83.12H106.093C106.553 82.14 107.773 81.34 109.313 81.34C110.493 81.34 111.453 81.74 112.153 82.52C112.873 83.3 113.233 84.28 113.233 85.46V92H111.653V85.56C111.653 84.76 111.393 84.1 110.853 83.6C110.333 83.08 109.693 82.82 108.933 82.82C108.113 82.82 107.413 83.1 106.833 83.64C106.253 84.18 105.973 84.86 105.973 85.68V92ZM115.399 86.82C115.399 85.22 115.879 83.9 116.819 82.88C117.779 81.86 118.999 81.34 120.459 81.34C121.479 81.34 122.419 81.66 122.999 82.12C123.579 82.58 123.899 82.94 124.119 83.28H124.239V81.6H125.819V92H124.299V90.36H124.179C123.299 91.62 122.099 92.26 120.579 92.26C119.059 92.26 117.819 91.76 116.839 90.74C115.879 89.72 115.399 88.42 115.399 86.82ZM117.019 86.82C117.019 88.04 117.359 89.02 118.019 89.76C118.699 90.48 119.579 90.84 120.679 90.84C121.779 90.84 122.639 90.46 123.299 89.68C123.959 88.9 124.299 87.96 124.299 86.82C124.299 85.58 123.959 84.6 123.259 83.88C122.579 83.14 121.699 82.78 120.639 82.78C119.579 82.78 118.699 83.16 118.019 83.92C117.359 84.66 117.019 85.64 117.019 86.82ZM129.746 82.94H127.786V81.6H129.346C129.646 81.6 129.846 81.4 129.846 81.08V78.58H131.326V81.6H134.526V82.94H131.326V88.84C131.326 90.02 131.766 90.62 132.946 90.62H134.386V92H132.846C130.866 92 129.746 90.92 129.746 88.86V82.94Z" fill="white"/>
<path d="M250 110L250 155" stroke="url(#paint9_linear_42_1302)" stroke-linecap="square"/>
<g filter="url(#filter2_f_42_1302)">
<circle cx="250" cy="155" r="7" transform="rotate(-90 250 155)" fill="#3FCCFF"/>
</g>
<rect x="200.5" y="155.5" width="99" height="49" rx="7.5" fill="#0D0D0E"/>
<rect x="200.5" y="155.5" width="99" height="49" rx="7.5" stroke="url(#paint10_linear_42_1302)"/>
<path d="M245.049 176.3H241.649V175C244.189 175 245.149 174.44 245.149 173H246.669V187H245.049V176.3ZM251.552 176.84H250.032C250.032 174.92 251.512 172.74 254.292 172.74C256.932 172.74 258.632 174.7 258.632 176.78C258.632 178.38 257.832 179.68 256.232 180.7L253.772 182.26C252.192 183.28 251.672 184.06 251.672 185.2V185.52H258.752V187H250.052V185.26C250.052 183.5 250.952 182.3 252.872 181.08L255.412 179.48C256.452 178.82 256.972 177.94 256.972 176.82C256.972 175.32 255.932 174.26 254.252 174.26C253.472 174.26 252.812 174.52 252.312 175.02C251.812 175.52 251.552 176.12 251.552 176.84Z" fill="white"/>
<rect x="200.5" y="60.5" width="99" height="49" rx="7.5" fill="#0D0D0E"/>
<rect x="200.5" y="60.5" width="99" height="49" rx="7.5" stroke="url(#paint11_linear_42_1302)"/>
<path d="M243.917 78.56C243.917 77.92 244.397 77.42 245.057 77.42C245.717 77.42 246.217 77.92 246.217 78.56C246.217 79.22 245.717 79.72 245.057 79.72C244.397 79.72 243.917 79.22 243.917 78.56ZM245.817 92H244.237V81.6H245.817V92ZM248.177 88.98H249.717C249.897 90.24 250.777 90.88 252.297 90.88C253.817 90.88 254.717 90.16 254.717 89.06C254.717 86.16 248.497 88.34 248.497 84.24C248.497 83.36 248.857 82.66 249.557 82.14C250.257 81.6 251.157 81.34 252.257 81.34C253.237 81.34 254.077 81.62 254.777 82.16C255.477 82.7 255.857 83.42 255.937 84.34H254.417C254.277 83.32 253.497 82.7 252.157 82.7C250.857 82.7 250.017 83.34 250.017 84.24C250.017 86.88 256.257 84.7 256.257 88.98C256.257 89.96 255.877 90.76 255.137 91.36C254.397 91.96 253.437 92.26 252.217 92.26C249.817 92.26 248.357 90.98 248.177 88.98Z" fill="white"/>
<path d="M390 110L390 155" stroke="url(#paint12_linear_42_1302)" stroke-linecap="square"/>
<g filter="url(#filter3_f_42_1302)">
<circle cx="390" cy="155" r="7" transform="rotate(-90 390 155)" fill="#3FCCFF"/>
</g>
<rect x="340.5" y="155.5" width="99" height="49" rx="7.5" fill="#0D0D0E"/>
<rect x="340.5" y="155.5" width="99" height="49" rx="7.5" stroke="url(#paint13_linear_42_1302)"/>
<path d="M369.62 176.84H368.1C368.1 174.92 369.58 172.74 372.36 172.74C375 172.74 376.7 174.7 376.7 176.78C376.7 178.38 375.9 179.68 374.3 180.7L371.84 182.26C370.26 183.28 369.74 184.06 369.74 185.2V185.52H376.82V187H368.12V185.26C368.12 183.5 369.02 182.3 370.94 181.08L373.48 179.48C374.52 178.82 375.04 177.94 375.04 176.82C375.04 175.32 374 174.26 372.32 174.26C371.54 174.26 370.88 174.52 370.38 175.02C369.88 175.52 369.62 176.12 369.62 176.84ZM379.479 182.82V177.18C379.479 174.4 381.719 172.74 383.999 172.74C386.299 172.74 388.519 174.4 388.519 177.18V182.82C388.539 185.54 386.259 187.32 383.999 187.26C381.739 187.32 379.459 185.54 379.479 182.82ZM381.079 177.28V182.72C381.079 183.58 381.359 184.3 381.899 184.88C382.459 185.44 383.159 185.72 383.999 185.72C384.859 185.72 385.559 185.44 386.099 184.88C386.639 184.3 386.919 183.58 386.919 182.72V177.28C386.919 176.42 386.639 175.72 386.079 175.14C385.539 174.56 384.839 174.28 383.999 174.28C383.179 174.28 382.479 174.56 381.919 175.14C381.359 175.72 381.079 176.42 381.079 177.28ZM391.48 182.82V177.18C391.48 174.4 393.72 172.74 396 172.74C398.3 172.74 400.52 174.4 400.52 177.18V182.82C400.54 185.54 398.26 187.32 396 187.26C393.74 187.32 391.46 185.54 391.48 182.82ZM393.08 177.28V182.72C393.08 183.58 393.36 184.3 393.9 184.88C394.46 185.44 395.16 185.72 396 185.72C396.86 185.72 397.56 185.44 398.1 184.88C398.64 184.3 398.92 183.58 398.92 182.72V177.28C398.92 176.42 398.64 175.72 398.08 175.14C397.54 174.56 396.84 174.28 396 174.28C395.18 174.28 394.48 174.56 393.92 175.14C393.36 175.72 393.08 176.42 393.08 177.28ZM404.901 176.84H403.381C403.381 174.92 404.861 172.74 407.641 172.74C410.281 172.74 411.981 174.7 411.981 176.78C411.981 178.38 411.181 179.68 409.581 180.7L407.121 182.26C405.541 183.28 405.021 184.06 405.021 185.2V185.52H412.101V187H403.401V185.26C403.401 183.5 404.301 182.3 406.221 181.08L408.761 179.48C409.801 178.82 410.321 177.94 410.321 176.82C410.321 175.32 409.281 174.26 407.601 174.26C406.821 174.26 406.161 174.52 405.661 175.02C405.161 175.52 404.901 176.12 404.901 176.84Z" fill="white"/>
<rect x="340.5" y="60.5" width="99" height="49" rx="7.5" fill="#0D0D0E"/>
<rect x="340.5" y="60.5" width="99" height="49" rx="7.5" stroke="url(#paint14_linear_42_1302)"/>
<path d="M360.911 92H355.991V78H360.511C361.811 78 362.851 78.34 363.611 79C364.371 79.66 364.751 80.52 364.751 81.58C364.751 82.94 364.111 83.98 362.971 84.6V84.72C363.931 85.06 365.231 86.04 365.231 88.02C365.231 90.52 363.271 92 360.911 92ZM357.591 85.42V90.58H360.631C362.371 90.58 363.551 89.68 363.551 87.98C363.551 86.24 362.231 85.42 360.451 85.42H357.591ZM357.591 79.44V84.06H360.451C362.031 84.06 363.091 83.12 363.091 81.7C363.091 80.34 362.031 79.44 360.511 79.44H357.591ZM366.797 86.82C366.797 85.22 367.277 83.9 368.217 82.88C369.177 81.86 370.397 81.34 371.857 81.34C372.877 81.34 373.817 81.66 374.397 82.12C374.977 82.58 375.297 82.94 375.517 83.28H375.637V81.6H377.217V92H375.697V90.36H375.577C374.697 91.62 373.497 92.26 371.977 92.26C370.457 92.26 369.217 91.76 368.237 90.74C367.277 89.72 366.797 88.42 366.797 86.82ZM368.417 86.82C368.417 88.04 368.757 89.02 369.417 89.76C370.097 90.48 370.977 90.84 372.077 90.84C373.177 90.84 374.037 90.46 374.697 89.68C375.357 88.9 375.697 87.96 375.697 86.82C375.697 85.58 375.357 84.6 374.657 83.88C373.977 83.14 373.097 82.78 372.037 82.78C370.977 82.78 370.097 83.16 369.417 83.92C368.757 84.66 368.417 85.64 368.417 86.82ZM380.185 89.78V77H381.765V89.78C381.765 90.32 382.025 90.6 382.525 90.6H383.005V92H382.245C380.945 92 380.185 91.2 380.185 89.78ZM383.945 86.82C383.945 85.22 384.425 83.9 385.365 82.88C386.325 81.86 387.545 81.34 389.005 81.34C390.025 81.34 390.965 81.66 391.545 82.12C392.125 82.58 392.445 82.94 392.665 83.28H392.785V77H394.365V92H392.845V90.36H392.725C391.845 91.62 390.645 92.26 389.125 92.26C387.605 92.26 386.365 91.76 385.385 90.74C384.425 89.72 383.945 88.42 383.945 86.82ZM385.565 86.82C385.565 88.04 385.905 89.02 386.565 89.76C387.245 90.48 388.125 90.84 389.225 90.84C390.325 90.84 391.185 90.46 391.845 89.68C392.505 88.9 392.845 87.96 392.845 86.82C392.845 85.58 392.505 84.6 391.805 83.88C391.125 83.14 390.245 82.78 389.185 82.78C388.125 82.78 387.245 83.16 386.565 83.92C385.905 84.66 385.565 85.64 385.565 86.82ZM397.132 88.14V81.6H398.712V88.08C398.712 88.9 398.972 89.56 399.492 90.06C400.012 90.56 400.652 90.82 401.392 90.82C402.212 90.82 402.912 90.54 403.472 89.98C404.032 89.4 404.312 88.7 404.312 87.84V81.6H405.892V92H404.312V90.48H404.192C403.732 91.5 402.552 92.26 401.012 92.26C399.832 92.26 398.892 91.88 398.192 91.1C397.492 90.32 397.132 89.32 397.132 88.14ZM410.425 92H408.845V81.6H410.405V83.54H410.525C410.705 83.04 411.045 82.6 411.545 82.2C412.045 81.8 412.665 81.6 413.365 81.6H414.245V83.18H413.385C411.525 83.18 410.425 84.58 410.425 86.64V92ZM417.173 82.48H416.013L416.353 78H418.093L417.173 82.48ZM416.623 88.98H418.163C418.343 90.24 419.223 90.88 420.743 90.88C422.263 90.88 423.163 90.16 423.163 89.06C423.163 86.16 416.943 88.34 416.943 84.24C416.943 83.36 417.303 82.66 418.003 82.14C418.703 81.6 419.603 81.34 420.703 81.34C421.683 81.34 422.523 81.62 423.223 82.16C423.923 82.7 424.303 83.42 424.383 84.34H422.863C422.723 83.32 421.943 82.7 420.603 82.7C419.303 82.7 418.463 83.34 418.463 84.24C418.463 86.88 424.703 84.7 424.703 88.98C424.703 89.96 424.323 90.76 423.583 91.36C422.843 91.96 421.883 92.26 420.663 92.26C418.263 92.26 416.803 90.98 416.623 88.98Z" fill="white"/>
<path d="M530 110L530 155" stroke="url(#paint15_linear_42_1302)" stroke-linecap="square"/>
<g filter="url(#filter4_f_42_1302)">
<circle cx="530" cy="155" r="7" transform="rotate(-90 530 155)" fill="#3FCCFF"/>
</g>
<rect x="480.5" y="155.5" width="99" height="49" rx="7.5" fill="#0D0D0E"/>
<rect x="480.5" y="155.5" width="99" height="49" rx="7.5" stroke="url(#paint16_linear_42_1302)"/>
<path d="M525.039 176.3H521.639V175C524.179 175 525.139 174.44 525.139 173H526.659V187H525.039V176.3ZM529.202 177.36C529.202 176.06 529.662 174.98 530.562 174.08C531.462 173.18 532.582 172.74 533.902 172.74C535.222 172.74 536.322 173.18 537.222 174.06C538.122 174.94 538.562 176.04 538.562 177.36C538.562 178.22 538.322 179.1 537.842 179.96L533.902 187H532.062L535.182 181.78L535.102 181.7C534.722 181.86 534.282 181.94 533.822 181.94C532.482 181.94 531.382 181.5 530.502 180.64C529.642 179.76 529.202 178.66 529.202 177.36ZM530.862 177.36C530.862 178.22 531.142 178.96 531.702 179.58C532.282 180.18 533.002 180.48 533.902 180.48C534.802 180.48 535.522 180.18 536.082 179.58C536.642 178.96 536.922 178.22 536.922 177.36C536.922 176.48 536.642 175.74 536.082 175.16C535.522 174.56 534.802 174.26 533.902 174.26C533.002 174.26 532.282 174.56 531.702 175.16C531.142 175.74 530.862 176.48 530.862 177.36Z" fill="white"/>
<rect x="480.5" y="60.5" width="99" height="49" rx="7.5" fill="#0D0D0E"/>
<rect x="480.5" y="60.5" width="99" height="49" rx="7.5" stroke="url(#paint17_linear_42_1302)"/>
<path d="M506.67 85C506.67 80.88 509.69 77.74 513.87 77.74C515.45 77.74 516.81 78.16 517.99 79C519.17 79.84 519.99 80.94 520.45 82.28H518.65C517.87 80.42 516.19 79.26 513.87 79.26C510.59 79.26 508.35 81.72 508.35 85C508.35 88.3 510.63 90.74 513.91 90.74C516.79 90.74 518.99 88.86 519.11 86.06H513.43V84.64H520.93V84.72C520.93 85.68 520.81 86.56 520.57 87.38C519.63 90.62 516.91 92.26 513.89 92.26C509.73 92.26 506.67 89.14 506.67 85ZM522.499 86.82C522.499 85.22 522.979 83.9 523.919 82.88C524.879 81.86 526.099 81.34 527.559 81.34C528.579 81.34 529.519 81.66 530.099 82.12C530.679 82.58 530.999 82.94 531.219 83.28H531.339V81.6H532.919V92H531.399V90.36H531.279C530.399 91.62 529.199 92.26 527.679 92.26C526.159 92.26 524.919 91.76 523.939 90.74C522.979 89.72 522.499 88.42 522.499 86.82ZM524.119 86.82C524.119 88.04 524.459 89.02 525.119 89.76C525.799 90.48 526.679 90.84 527.779 90.84C528.879 90.84 529.739 90.46 530.399 89.68C531.059 88.9 531.399 87.96 531.399 86.82C531.399 85.58 531.059 84.6 530.359 83.88C529.679 83.14 528.799 82.78 527.739 82.78C526.679 82.78 525.799 83.16 525.119 83.92C524.459 84.66 524.119 85.64 524.119 86.82ZM536.847 82.94H534.887V81.6H536.447C536.747 81.6 536.947 81.4 536.947 81.08V78.58H538.427V81.6H541.627V82.94H538.427V88.84C538.427 90.02 538.867 90.62 540.047 90.62H541.487V92H539.947C537.967 92 536.847 90.92 536.847 88.86V82.94ZM543.182 86.8C543.182 83.48 545.462 81.34 548.282 81.34C551.382 81.32 553.382 83.7 553.322 86.66V87.36H544.842C544.922 89.46 546.262 90.82 548.402 90.82C549.842 90.82 551.122 90.14 551.582 88.94H553.222C552.642 90.92 550.782 92.26 548.382 92.26C545.222 92.26 543.182 89.92 543.182 86.8ZM544.882 85.96H551.642C551.502 83.96 550.122 82.78 548.282 82.78C547.382 82.78 546.622 83.08 545.962 83.66C545.322 84.24 544.962 85.02 544.882 85.96Z" fill="white"/>
<path d="M670 110L670 155" stroke="url(#paint18_linear_42_1302)" stroke-linecap="square"/>
<g filter="url(#filter5_f_42_1302)">
<circle cx="670" cy="155" r="7" transform="rotate(-90 670 155)" fill="#3FCCFF"/>
</g>
<rect x="620.5" y="155.5" width="99" height="49" rx="7.5" fill="#0D0D0E"/>
<rect x="620.5" y="155.5" width="99" height="49" rx="7.5" stroke="url(#paint19_linear_42_1302)"/>
<path d="M665.361 176.3H661.961V175C664.501 175 665.461 174.44 665.461 173H666.981V187H665.361V176.3ZM676.965 174.48H670.045V173H678.645V174.38L673.705 187H671.985L676.965 174.6V174.48Z" fill="white"/>
<rect x="620.5" y="60.5" width="99" height="49" rx="7.5" fill="#0D0D0E"/>
<rect x="620.5" y="60.5" width="99" height="49" rx="7.5" stroke="url(#paint20_linear_42_1302)"/>
<path d="M665.496 88.14H667.016C667.036 89.64 668.216 90.72 669.836 90.72C671.616 90.72 672.836 89.58 672.836 87.76C672.836 86.9 672.536 86.2 671.956 85.66C671.376 85.12 670.656 84.84 669.796 84.84H668.176V83.46L671.876 79.6V79.48H665.816V78H673.956V79.5L670.196 83.32V83.44C671.416 83.48 672.436 83.9 673.256 84.72C674.076 85.52 674.496 86.52 674.496 87.72C674.556 90.1 672.756 92.24 669.836 92.24C666.956 92.24 665.496 89.96 665.496 88.14Z" fill="white"/>
<path d="M810 110L810 155" stroke="url(#paint21_linear_42_1302)" stroke-linecap="square"/>
<g filter="url(#filter6_f_42_1302)">
<circle cx="810" cy="155" r="7" transform="rotate(-90 810 155)" fill="#3FCCFF"/>
</g>
<rect x="760.5" y="155.5" width="99" height="49" rx="7.5" fill="#0D0D0E"/>
<rect x="760.5" y="155.5" width="99" height="49" rx="7.5" stroke="url(#paint22_linear_42_1302)"/>
<path d="M801.201 176.84H799.681C799.681 174.92 801.161 172.74 803.941 172.74C806.581 172.74 808.281 174.7 808.281 176.78C808.281 178.38 807.481 179.68 805.881 180.7L803.421 182.26C801.841 183.28 801.321 184.06 801.321 185.2V185.52H808.401V187H799.701V185.26C799.701 183.5 800.601 182.3 802.521 181.08L805.061 179.48C806.101 178.82 806.621 177.94 806.621 176.82C806.621 175.32 805.581 174.26 803.901 174.26C803.121 174.26 802.461 174.52 801.961 175.02C801.461 175.52 801.201 176.12 801.201 176.84ZM810.96 177.36C810.96 176.06 811.42 174.98 812.32 174.08C813.22 173.18 814.34 172.74 815.66 172.74C816.98 172.74 818.08 173.18 818.98 174.06C819.88 174.94 820.32 176.04 820.32 177.36C820.32 178.22 820.08 179.1 819.6 179.96L815.66 187H813.82L816.94 181.78L816.86 181.7C816.48 181.86 816.04 181.94 815.58 181.94C814.24 181.94 813.14 181.5 812.26 180.64C811.4 179.76 810.96 178.66 810.96 177.36ZM812.62 177.36C812.62 178.22 812.9 178.96 813.46 179.58C814.04 180.18 814.76 180.48 815.66 180.48C816.56 180.48 817.28 180.18 817.84 179.58C818.4 178.96 818.68 178.22 818.68 177.36C818.68 176.48 818.4 175.74 817.84 175.16C817.28 174.56 816.56 174.26 815.66 174.26C814.76 174.26 814.04 174.56 813.46 175.16C812.9 175.74 812.62 176.48 812.62 177.36Z" fill="white"/>
<rect x="760.5" y="60.5" width="99" height="49" rx="7.5" fill="#0D0D0E"/>
<rect x="760.5" y="60.5" width="99" height="49" rx="7.5" stroke="url(#paint23_linear_42_1302)"/>
<path d="M807.46 81.7H805.98C805.98 79.76 807.32 77.74 809.98 77.74C811.2 77.74 812.16 78.1 812.9 78.8C813.64 79.5 814.02 80.36 814.02 81.4C814.02 82.2 813.84 82.86 813.44 83.4C813.04 83.94 812.78 84.16 812.28 84.62L811.2 85.56C810.7 85.98 810.44 86.5 810.44 87.1V88.28H808.88V87.1C808.88 86.12 809.24 85.42 810.1 84.64L811.24 83.62C812.04 82.9 812.38 82.36 812.38 81.46C812.38 80.1 811.48 79.18 809.98 79.18C808.46 79.18 807.46 80.26 807.46 81.7ZM808.9 91.94C808.44 91.48 808.44 90.78 808.9 90.36C809.36 89.9 810.06 89.9 810.48 90.36C810.94 90.78 810.94 91.48 810.48 91.94C810.06 92.36 809.36 92.36 808.9 91.94Z" fill="white"/>
<rect x="279.5" y="250.5" width="361" height="49" rx="7.5" fill="url(#paint24_linear_42_1302)" fill-opacity="0.1"/>
<rect x="279.5" y="250.5" width="361" height="49" rx="7.5" stroke="#ABACB0"/>
<path d="M379.291 282H371.091V268H379.071V269.48H372.711V274.14H378.191V275.6H372.711V280.54H379.291V282ZM383.222 282H381.642V271.6H383.222V273.1H383.342C383.882 272.06 384.922 271.34 386.382 271.34C387.902 271.34 389.082 272.06 389.662 273.24H389.802C390.462 271.98 391.562 271.34 393.102 271.34C394.242 271.34 395.162 271.7 395.862 272.44C396.562 273.18 396.922 274.12 396.922 275.26V282H395.342V275.78C395.342 273.86 394.402 272.82 392.822 272.82C391.282 272.82 390.082 273.94 390.082 275.8V282H388.502V275.48C388.502 273.86 387.422 272.82 385.922 272.82C385.182 272.82 384.542 273.1 384.002 273.64C383.482 274.18 383.222 274.88 383.222 275.74V282ZM401.394 282H399.874V267H401.454V273.28H401.574C401.794 272.94 402.094 272.58 402.674 272.12C403.294 271.66 404.214 271.34 405.234 271.34C406.694 271.34 407.914 271.86 408.854 272.88C409.814 273.9 410.294 275.22 410.294 276.82C410.294 278.42 409.814 279.72 408.834 280.74C407.874 281.76 406.634 282.26 405.114 282.26C404.254 282.26 403.434 281.98 402.954 281.72C402.714 281.58 402.474 281.4 402.234 281.2C401.774 280.78 401.674 280.6 401.514 280.36H401.394V282ZM401.394 276.82C401.394 277.96 401.714 278.9 402.374 279.68C403.034 280.46 403.914 280.84 405.014 280.84C406.114 280.84 406.994 280.48 407.654 279.76C408.334 279.02 408.674 278.04 408.674 276.82C408.674 275.64 408.334 274.66 407.654 273.92C406.994 273.16 406.114 272.78 405.054 272.78C403.994 272.78 403.134 273.14 402.434 273.88C401.734 274.6 401.394 275.58 401.394 276.82ZM411.857 276.8C411.857 273.48 414.137 271.34 416.957 271.34C420.057 271.32 422.057 273.7 421.997 276.66V277.36H413.517C413.597 279.46 414.937 280.82 417.077 280.82C418.517 280.82 419.797 280.14 420.257 278.94H421.897C421.317 280.92 419.457 282.26 417.057 282.26C413.897 282.26 411.857 279.92 411.857 276.8ZM413.557 275.96H420.317C420.177 273.96 418.797 272.78 416.957 272.78C416.057 272.78 415.297 273.08 414.637 273.66C413.997 274.24 413.637 275.02 413.557 275.96ZM423.565 276.82C423.565 275.22 424.045 273.9 424.985 272.88C425.945 271.86 427.165 271.34 428.625 271.34C429.645 271.34 430.585 271.66 431.165 272.12C431.745 272.58 432.065 272.94 432.285 273.28H432.405V267H433.985V282H432.465V280.36H432.345C431.465 281.62 430.265 282.26 428.745 282.26C427.225 282.26 425.985 281.76 425.005 280.74C424.045 279.72 423.565 278.42 423.565 276.82ZM425.185 276.82C425.185 278.04 425.525 279.02 426.185 279.76C426.865 280.48 427.745 280.84 428.845 280.84C429.945 280.84 430.805 280.46 431.465 279.68C432.125 278.9 432.465 277.96 432.465 276.82C432.465 275.58 432.125 274.6 431.425 273.88C430.745 273.14 429.865 272.78 428.805 272.78C427.745 272.78 426.865 273.16 426.185 273.92C425.525 274.66 425.185 275.64 425.185 276.82ZM436.153 276.82C436.153 275.22 436.633 273.9 437.573 272.88C438.533 271.86 439.753 271.34 441.213 271.34C442.233 271.34 443.173 271.66 443.753 272.12C444.333 272.58 444.653 272.94 444.873 273.28H444.993V267H446.573V282H445.053V280.36H444.933C444.053 281.62 442.853 282.26 441.333 282.26C439.813 282.26 438.573 281.76 437.593 280.74C436.633 279.72 436.153 278.42 436.153 276.82ZM437.773 276.82C437.773 278.04 438.113 279.02 438.773 279.76C439.453 280.48 440.333 280.84 441.433 280.84C442.533 280.84 443.393 280.46 444.053 279.68C444.713 278.9 445.053 277.96 445.053 276.82C445.053 275.58 444.713 274.6 444.013 273.88C443.333 273.14 442.453 272.78 441.393 272.78C440.333 272.78 439.453 273.16 438.773 273.92C438.113 274.66 437.773 275.64 437.773 276.82ZM449.22 268.56C449.22 267.92 449.7 267.42 450.36 267.42C451.02 267.42 451.52 267.92 451.52 268.56C451.52 269.22 451.02 269.72 450.36 269.72C449.7 269.72 449.22 269.22 449.22 268.56ZM451.12 282H449.54V271.6H451.12V282ZM455.661 282H454.081V271.6H455.661V273.12H455.781C456.241 272.1 457.421 271.34 458.961 271.34C460.141 271.34 461.081 271.74 461.781 272.52C462.481 273.3 462.841 274.28 462.841 275.46V282H461.261V275.56C461.261 274.74 461.001 274.08 460.481 273.58C459.961 273.08 459.321 272.82 458.581 272.82C457.761 272.82 457.061 273.1 456.501 273.68C455.941 274.24 455.661 274.94 455.661 275.8V282ZM465.009 276.82C465.009 275.22 465.489 273.9 466.429 272.88C467.389 271.86 468.609 271.34 470.069 271.34C471.089 271.34 472.029 271.66 472.609 272.12C473.189 272.58 473.509 272.94 473.729 273.28H473.849V271.6H475.429V282C475.429 285.04 473.489 286.86 470.369 286.86C467.889 286.86 466.189 285.54 465.849 283.62H467.349C467.609 284.82 468.769 285.48 470.369 285.48C472.749 285.48 473.909 284.18 473.909 282V280.36H473.789C472.909 281.62 471.709 282.26 470.189 282.26C468.669 282.26 467.429 281.76 466.449 280.74C465.489 279.72 465.009 278.42 465.009 276.82ZM466.629 276.82C466.629 278.04 466.969 279.02 467.629 279.76C468.309 280.48 469.189 280.84 470.289 280.84C471.389 280.84 472.249 280.46 472.909 279.68C473.569 278.9 473.909 277.96 473.909 276.82C473.909 275.58 473.569 274.6 472.869 273.88C472.189 273.14 471.309 272.78 470.249 272.78C469.189 272.78 468.309 273.16 467.629 273.92C466.969 274.66 466.629 275.64 466.629 276.82ZM477.796 278.98H479.336C479.516 280.24 480.396 280.88 481.916 280.88C483.436 280.88 484.336 280.16 484.336 279.06C484.336 276.16 478.116 278.34 478.116 274.24C478.116 273.36 478.476 272.66 479.176 272.14C479.876 271.6 480.776 271.34 481.876 271.34C482.856 271.34 483.696 271.62 484.396 272.16C485.096 272.7 485.476 273.42 485.556 274.34H484.036C483.896 273.32 483.116 272.7 481.776 272.7C480.476 272.7 479.636 273.34 479.636 274.24C479.636 276.88 485.876 274.7 485.876 278.98C485.876 279.96 485.496 280.76 484.756 281.36C484.016 281.96 483.056 282.26 481.836 282.26C479.436 282.26 477.976 280.98 477.796 278.98ZM495.467 282H493.907V268H495.687L501.107 280.22H501.227L506.247 268H508.027V282H506.467V271.56H506.347L502.087 282H500.247L495.587 271.56H495.467V282ZM510.592 276.8C510.592 275.24 511.112 273.94 512.152 272.9C513.192 271.86 514.492 271.34 516.032 271.34C517.592 271.34 518.892 271.86 519.912 272.9C520.932 273.94 521.452 275.24 521.452 276.8C521.452 278.36 520.932 279.66 519.892 280.7C518.852 281.74 517.552 282.26 516.012 282.26C512.952 282.32 510.532 279.92 510.592 276.8ZM512.212 276.8C512.212 277.98 512.572 278.94 513.272 279.7C513.992 280.44 514.912 280.82 516.012 280.82C517.112 280.82 518.032 280.44 518.752 279.7C519.472 278.94 519.832 277.98 519.832 276.8C519.832 275.64 519.472 274.68 518.752 273.92C518.032 273.16 517.112 272.78 516.012 272.78C514.912 272.78 513.992 273.16 513.272 273.94C512.572 274.7 512.212 275.66 512.212 276.8ZM523.004 276.82C523.004 275.22 523.484 273.9 524.424 272.88C525.384 271.86 526.604 271.34 528.064 271.34C529.084 271.34 530.024 271.66 530.604 272.12C531.184 272.58 531.504 272.94 531.724 273.28H531.844V267H533.424V282H531.904V280.36H531.784C530.904 281.62 529.704 282.26 528.184 282.26C526.664 282.26 525.424 281.76 524.444 280.74C523.484 279.72 523.004 278.42 523.004 276.82ZM524.624 276.82C524.624 278.04 524.964 279.02 525.624 279.76C526.304 280.48 527.184 280.84 528.284 280.84C529.384 280.84 530.244 280.46 530.904 279.68C531.564 278.9 531.904 277.96 531.904 276.82C531.904 275.58 531.564 274.6 530.864 273.88C530.184 273.14 529.304 272.78 528.244 272.78C527.184 272.78 526.304 273.16 525.624 273.92C524.964 274.66 524.624 275.64 524.624 276.82ZM535.591 276.8C535.591 273.48 537.871 271.34 540.691 271.34C543.791 271.32 545.791 273.7 545.731 276.66V277.36H537.251C537.331 279.46 538.671 280.82 540.811 280.82C542.251 280.82 543.531 280.14 543.991 278.94H545.631C545.051 280.92 543.191 282.26 540.791 282.26C537.631 282.26 535.591 279.92 535.591 276.8ZM537.291 275.96H544.051C543.911 273.96 542.531 272.78 540.691 272.78C539.791 272.78 539.031 273.08 538.371 273.66C537.731 274.24 537.371 275.02 537.291 275.96ZM546.889 279.78V267H548.469V279.78C548.469 280.32 548.729 280.6 549.229 280.6H549.709V282H548.949C547.649 282 546.889 281.2 546.889 279.78Z" fill="white"/>
<path d="M460.5 300L460.5 345" stroke="url(#paint25_linear_42_1302)" stroke-linecap="square"/>
<g filter="url(#filter7_f_42_1302)">
<circle cx="460.5" cy="345" r="7" transform="rotate(-90 460.5 345)" fill="#FFB245"/>
</g>
<rect x="445" y="345" width="30" height="12" fill="#0D0D0E"/>
<rect x="258.5" y="345.5" width="402" height="49" rx="7.5" fill="url(#paint26_linear_42_1302)" fill-opacity="0.1"/>
<rect x="258.5" y="345.5" width="402" height="49" rx="7.5" stroke="url(#paint27_linear_42_1302)"/>
<path d="M274.476 379.86H270.236V361.74H274.476V363.12H271.816V378.48H274.476V379.86ZM278.131 372.82V367.18C278.131 364.4 280.371 362.74 282.651 362.74C284.951 362.74 287.171 364.4 287.171 367.18V372.82C287.191 375.54 284.911 377.32 282.651 377.26C280.391 377.32 278.111 375.54 278.131 372.82ZM279.731 367.28V372.72C279.731 373.58 280.011 374.3 280.551 374.88C281.111 375.44 281.811 375.72 282.651 375.72C283.511 375.72 284.211 375.44 284.751 374.88C285.291 374.3 285.571 373.58 285.571 372.72V367.28C285.571 366.42 285.291 365.72 284.731 365.14C284.191 364.56 283.491 364.28 282.651 364.28C281.831 364.28 281.131 364.56 280.571 365.14C280.011 365.72 279.731 366.42 279.731 367.28ZM287.521 376.94C287.061 376.48 287.061 375.78 287.521 375.36C287.981 374.9 288.681 374.9 289.101 375.36C289.561 375.78 289.561 376.48 289.101 376.94C288.681 377.36 287.981 377.36 287.521 376.94ZM292.209 373.14H293.729C293.749 374.64 294.929 375.72 296.549 375.72C298.329 375.72 299.549 374.58 299.549 372.76C299.549 371.9 299.249 371.2 298.669 370.66C298.089 370.12 297.369 369.84 296.509 369.84H294.889V368.46L298.589 364.6V364.48H292.529V363H300.669V364.5L296.909 368.32V368.44C298.129 368.48 299.149 368.9 299.969 369.72C300.789 370.52 301.209 371.52 301.209 372.72C301.269 375.1 299.469 377.24 296.549 377.24C293.669 377.24 292.209 374.96 292.209 373.14ZM307.576 366.3H304.176V365C306.716 365 307.676 364.44 307.676 363H309.196V377H307.576V366.3ZM313.84 379.62H312.68L313.02 375.14H314.76L313.84 379.62ZM327.498 371.72H322.398V370.24H327.498V371.72ZM330.148 372.82V367.18C330.148 364.4 332.388 362.74 334.668 362.74C336.968 362.74 339.188 364.4 339.188 367.18V372.82C339.208 375.54 336.928 377.32 334.668 377.26C332.408 377.32 330.128 375.54 330.148 372.82ZM331.748 367.28V372.72C331.748 373.58 332.028 374.3 332.568 374.88C333.128 375.44 333.828 375.72 334.668 375.72C335.528 375.72 336.228 375.44 336.768 374.88C337.308 374.3 337.588 373.58 337.588 372.72V367.28C337.588 366.42 337.308 365.72 336.748 365.14C336.208 364.56 335.508 364.28 334.668 364.28C333.848 364.28 333.148 364.56 332.588 365.14C332.028 365.72 331.748 366.42 331.748 367.28ZM339.538 376.94C339.078 376.48 339.078 375.78 339.538 375.36C339.998 374.9 340.698 374.9 341.118 375.36C341.578 375.78 341.578 376.48 341.118 376.94C340.698 377.36 339.998 377.36 339.538 376.94ZM345.747 366.84H344.227C344.227 364.92 345.707 362.74 348.487 362.74C351.127 362.74 352.827 364.7 352.827 366.78C352.827 368.38 352.027 369.68 350.427 370.7L347.967 372.26C346.387 373.28 345.867 374.06 345.867 375.2V375.52H352.947V377H344.247V375.26C344.247 373.5 345.147 372.3 347.067 371.08L349.607 369.48C350.647 368.82 351.167 367.94 351.167 366.82C351.167 365.32 350.127 364.26 348.447 364.26C347.667 364.26 347.007 364.52 346.507 365.02C346.007 365.52 345.747 366.12 345.747 366.84ZM355.506 373.14H357.026C357.046 374.64 358.226 375.72 359.846 375.72C361.626 375.72 362.846 374.58 362.846 372.76C362.846 371.9 362.546 371.2 361.966 370.66C361.386 370.12 360.666 369.84 359.806 369.84H358.186V368.46L361.886 364.6V364.48H355.826V363H363.966V364.5L360.206 368.32V368.44C361.426 368.48 362.446 368.9 363.266 369.72C364.086 370.52 364.506 371.52 364.506 372.72C364.566 375.1 362.766 377.24 359.846 377.24C356.966 377.24 355.506 374.96 355.506 373.14ZM366.092 379.62H364.932L365.272 375.14H367.012L366.092 379.62ZM374.95 372.82V367.18C374.95 364.4 377.19 362.74 379.47 362.74C381.77 362.74 383.99 364.4 383.99 367.18V372.82C384.01 375.54 381.73 377.32 379.47 377.26C377.21 377.32 374.93 375.54 374.95 372.82ZM376.55 367.28V372.72C376.55 373.58 376.83 374.3 377.37 374.88C377.93 375.44 378.63 375.72 379.47 375.72C380.33 375.72 381.03 375.44 381.57 374.88C382.11 374.3 382.39 373.58 382.39 372.72V367.28C382.39 366.42 382.11 365.72 381.55 365.14C381.01 364.56 380.31 364.28 379.47 364.28C378.65 364.28 377.95 364.56 377.39 365.14C376.83 365.72 376.55 366.42 376.55 367.28ZM384.34 376.94C383.88 376.48 383.88 375.78 384.34 375.36C384.8 374.9 385.5 374.9 385.92 375.36C386.38 375.78 386.38 376.48 385.92 376.94C385.5 377.36 384.8 377.36 384.34 376.94ZM388.928 373.36H390.448C390.708 374.88 391.828 375.76 393.408 375.76C394.268 375.76 394.988 375.46 395.568 374.86C396.148 374.26 396.448 373.5 396.448 372.58C396.448 370.76 395.168 369.52 393.248 369.52C391.708 369.52 390.928 370.5 390.688 370.9H389.208L389.688 363H397.208V364.48H391.108L390.808 368.98H390.928C390.928 368.98 391.808 368.04 393.528 368.04C394.828 368.04 395.928 368.48 396.788 369.38C397.648 370.28 398.088 371.34 398.088 372.58C398.088 373.9 397.648 375.02 396.748 375.92C395.848 376.82 394.768 377.26 393.468 377.26C392.228 377.26 391.188 376.9 390.328 376.18C389.488 375.46 389.028 374.52 388.928 373.36ZM407.376 364.48H400.456V363H409.056V364.38L404.116 377H402.396L407.376 364.6V364.48ZM406.948 379.62H405.788L406.128 375.14H407.868L406.948 379.62ZM415.806 372.82V367.18C415.806 364.4 418.046 362.74 420.326 362.74C422.626 362.74 424.846 364.4 424.846 367.18V372.82C424.866 375.54 422.586 377.32 420.326 377.26C418.066 377.32 415.786 375.54 415.806 372.82ZM417.406 367.28V372.72C417.406 373.58 417.686 374.3 418.226 374.88C418.786 375.44 419.486 375.72 420.326 375.72C421.186 375.72 421.886 375.44 422.426 374.88C422.966 374.3 423.246 373.58 423.246 372.72V367.28C423.246 366.42 422.966 365.72 422.406 365.14C421.866 364.56 421.166 364.28 420.326 364.28C419.506 364.28 418.806 364.56 418.246 365.14C417.686 365.72 417.406 366.42 417.406 367.28ZM425.196 376.94C424.736 376.48 424.736 375.78 425.196 375.36C425.656 374.9 426.356 374.9 426.776 375.36C427.236 375.78 427.236 376.48 426.776 376.94C426.356 377.36 425.656 377.36 425.196 376.94ZM429.885 373.14H431.405C431.425 374.64 432.605 375.72 434.225 375.72C436.005 375.72 437.225 374.58 437.225 372.76C437.225 371.9 436.925 371.2 436.345 370.66C435.765 370.12 435.045 369.84 434.185 369.84H432.565V368.46L436.265 364.6V364.48H430.205V363H438.345V364.5L434.585 368.32V368.44C435.805 368.48 436.825 368.9 437.645 369.72C438.465 370.52 438.885 371.52 438.885 372.72C438.945 375.1 437.145 377.24 434.225 377.24C431.345 377.24 429.885 374.96 429.885 373.14ZM441.652 367.36C441.652 366.06 442.112 364.98 443.012 364.08C443.912 363.18 445.032 362.74 446.352 362.74C447.672 362.74 448.772 363.18 449.672 364.06C450.572 364.94 451.012 366.04 451.012 367.36C451.012 368.22 450.772 369.1 450.292 369.96L446.352 377H444.512L447.632 371.78L447.552 371.7C447.172 371.86 446.732 371.94 446.272 371.94C444.932 371.94 443.832 371.5 442.952 370.64C442.092 369.76 441.652 368.66 441.652 367.36ZM443.312 367.36C443.312 368.22 443.592 368.96 444.152 369.58C444.732 370.18 445.452 370.48 446.352 370.48C447.252 370.48 447.972 370.18 448.532 369.58C449.092 368.96 449.372 368.22 449.372 367.36C449.372 366.48 449.092 365.74 448.532 365.16C447.972 364.56 447.252 364.26 446.352 364.26C445.452 364.26 444.732 364.56 444.152 365.16C443.592 365.74 443.312 366.48 443.312 367.36ZM449.308 379.62H448.148L448.488 375.14H450.228L449.308 379.62ZM458.406 376.94C457.946 376.48 457.946 375.78 458.406 375.36C458.866 374.9 459.566 374.9 459.986 375.36C460.446 375.78 460.446 376.48 459.986 376.94C459.566 377.36 458.866 377.36 458.406 376.94ZM463.046 376.94C462.586 376.48 462.606 375.78 463.026 375.36C463.486 374.9 464.166 374.9 464.626 375.36C465.086 375.78 465.086 376.48 464.626 376.94C464.166 377.36 463.466 377.36 463.046 376.94ZM467.666 376.94C467.206 376.48 467.206 375.78 467.666 375.36C468.126 374.9 468.826 374.9 469.246 375.36C469.706 375.78 469.706 376.48 469.246 376.94C468.826 377.36 468.126 377.36 467.666 376.94ZM477.618 372.82V367.18C477.618 364.4 479.858 362.74 482.138 362.74C484.438 362.74 486.658 364.4 486.658 367.18V372.82C486.678 375.54 484.398 377.32 482.138 377.26C479.878 377.32 477.598 375.54 477.618 372.82ZM479.218 367.28V372.72C479.218 373.58 479.498 374.3 480.038 374.88C480.598 375.44 481.298 375.72 482.138 375.72C482.998 375.72 483.698 375.44 484.238 374.88C484.778 374.3 485.058 373.58 485.058 372.72V367.28C485.058 366.42 484.778 365.72 484.218 365.14C483.678 364.56 482.978 364.28 482.138 364.28C481.318 364.28 480.618 364.56 480.058 365.14C479.498 365.72 479.218 366.42 479.218 367.28ZM487.008 376.94C486.548 376.48 486.548 375.78 487.008 375.36C487.468 374.9 488.168 374.9 488.588 375.36C489.048 375.78 489.048 376.48 488.588 376.94C488.168 377.36 487.468 377.36 487.008 376.94ZM493.217 366.84H491.697C491.697 364.92 493.177 362.74 495.957 362.74C498.597 362.74 500.297 364.7 500.297 366.78C500.297 368.38 499.497 369.68 497.897 370.7L495.437 372.26C493.857 373.28 493.337 374.06 493.337 375.2V375.52H500.417V377H491.717V375.26C491.717 373.5 492.617 372.3 494.537 371.08L497.077 369.48C498.117 368.82 498.637 367.94 498.637 366.82C498.637 365.32 497.597 364.26 495.917 364.26C495.137 364.26 494.477 364.52 493.977 365.02C493.477 365.52 493.217 366.12 493.217 366.84ZM502.975 373.08C502.975 371.02 504.475 369.96 505.335 369.58V369.46C504.435 368.98 503.575 367.92 503.575 366.48C503.575 365.38 503.975 364.5 504.755 363.8C505.555 363.1 506.515 362.74 507.655 362.74C508.795 362.74 509.755 363.1 510.535 363.8C511.335 364.5 511.735 365.38 511.735 366.48C511.735 367.92 510.875 368.98 509.975 369.46V369.58C510.855 369.96 512.335 371.02 512.335 373.08C512.335 374.34 511.895 375.36 511.035 376.12C510.175 376.88 509.035 377.26 507.635 377.26C506.255 377.26 505.115 376.88 504.255 376.12C503.395 375.36 502.975 374.34 502.975 373.08ZM504.635 373.08C504.635 374.62 505.795 375.78 507.655 375.78C509.515 375.78 510.675 374.62 510.675 373.08C510.675 371.4 509.355 370.34 507.655 370.34C505.955 370.34 504.635 371.4 504.635 373.08ZM505.215 366.54C505.215 367.82 506.215 368.86 507.655 368.86C509.095 368.86 510.095 367.82 510.095 366.54C510.095 365.24 509.155 364.24 507.655 364.24C506.155 364.24 505.215 365.24 505.215 366.54ZM514.733 379.62H513.573L513.913 375.14H515.653L514.733 379.62ZM528.391 371.72H523.291V370.24H528.391V371.72ZM531.042 372.82V367.18C531.042 364.4 533.282 362.74 535.562 362.74C537.862 362.74 540.082 364.4 540.082 367.18V372.82C540.102 375.54 537.822 377.32 535.562 377.26C533.302 377.32 531.022 375.54 531.042 372.82ZM532.642 367.28V372.72C532.642 373.58 532.922 374.3 533.462 374.88C534.022 375.44 534.722 375.72 535.562 375.72C536.422 375.72 537.122 375.44 537.662 374.88C538.202 374.3 538.482 373.58 538.482 372.72V367.28C538.482 366.42 538.202 365.72 537.642 365.14C537.102 364.56 536.402 364.28 535.562 364.28C534.742 364.28 534.042 364.56 533.482 365.14C532.922 365.72 532.642 366.42 532.642 367.28ZM540.432 376.94C539.972 376.48 539.972 375.78 540.432 375.36C540.892 374.9 541.592 374.9 542.012 375.36C542.472 375.78 542.472 376.48 542.012 376.94C541.592 377.36 540.892 377.36 540.432 376.94ZM545.12 373.08C545.12 371.02 546.62 369.96 547.48 369.58V369.46C546.58 368.98 545.72 367.92 545.72 366.48C545.72 365.38 546.12 364.5 546.9 363.8C547.7 363.1 548.66 362.74 549.8 362.74C550.94 362.74 551.9 363.1 552.68 363.8C553.48 364.5 553.88 365.38 553.88 366.48C553.88 367.92 553.02 368.98 552.12 369.46V369.58C553 369.96 554.48 371.02 554.48 373.08C554.48 374.34 554.04 375.36 553.18 376.12C552.32 376.88 551.18 377.26 549.78 377.26C548.4 377.26 547.26 376.88 546.4 376.12C545.54 375.36 545.12 374.34 545.12 373.08ZM546.78 373.08C546.78 374.62 547.94 375.78 549.8 375.78C551.66 375.78 552.82 374.62 552.82 373.08C552.82 371.4 551.5 370.34 549.8 370.34C548.1 370.34 546.78 371.4 546.78 373.08ZM547.36 366.54C547.36 367.82 548.36 368.86 549.8 368.86C551.24 368.86 552.24 367.82 552.24 366.54C552.24 365.24 551.3 364.24 549.8 364.24C548.3 364.24 547.36 365.24 547.36 366.54ZM560.839 366.3H557.439V365C559.979 365 560.939 364.44 560.939 363H562.459V377H560.839V366.3ZM567.103 379.62H565.943L566.283 375.14H568.023L567.103 379.62ZM575.96 372.82V367.18C575.96 364.4 578.2 362.74 580.48 362.74C582.78 362.74 585 364.4 585 367.18V372.82C585.02 375.54 582.74 377.32 580.48 377.26C578.22 377.32 575.94 375.54 575.96 372.82ZM577.56 367.28V372.72C577.56 373.58 577.84 374.3 578.38 374.88C578.94 375.44 579.64 375.72 580.48 375.72C581.34 375.72 582.04 375.44 582.58 374.88C583.12 374.3 583.4 373.58 583.4 372.72V367.28C583.4 366.42 583.12 365.72 582.56 365.14C582.02 364.56 581.32 364.28 580.48 364.28C579.66 364.28 578.96 364.56 578.4 365.14C577.84 365.72 577.56 366.42 577.56 367.28ZM585.35 376.94C584.89 376.48 584.89 375.78 585.35 375.36C585.81 374.9 586.51 374.9 586.93 375.36C587.39 375.78 587.39 376.48 586.93 376.94C586.51 377.36 585.81 377.36 585.35 376.94ZM590.517 366.3H587.117V365C589.657 365 590.617 364.44 590.617 363H592.137V377H590.517V366.3ZM602.121 364.48H595.201V363H603.801V364.38L598.861 377H597.141L602.121 364.6V364.48ZM601.692 379.62H600.532L600.872 375.14H602.612L601.692 379.62ZM610.55 372.82V367.18C610.55 364.4 612.79 362.74 615.07 362.74C617.37 362.74 619.59 364.4 619.59 367.18V372.82C619.61 375.54 617.33 377.32 615.07 377.26C612.81 377.32 610.53 375.54 610.55 372.82ZM612.15 367.28V372.72C612.15 373.58 612.43 374.3 612.97 374.88C613.53 375.44 614.23 375.72 615.07 375.72C615.93 375.72 616.63 375.44 617.17 374.88C617.71 374.3 617.99 373.58 617.99 372.72V367.28C617.99 366.42 617.71 365.72 617.15 365.14C616.61 364.56 615.91 364.28 615.07 364.28C614.25 364.28 613.55 364.56 612.99 365.14C612.43 365.72 612.15 366.42 612.15 367.28ZM619.94 376.94C619.48 376.48 619.48 375.78 619.94 375.36C620.4 374.9 621.1 374.9 621.52 375.36C621.98 375.78 621.98 376.48 621.52 376.94C621.1 377.36 620.4 377.36 619.94 376.94ZM629.217 364.48H622.297V363H630.897V364.38L625.957 377H624.237L629.217 364.6V364.48ZM631.611 372.64C631.611 371.78 631.851 370.9 632.331 370.04L636.271 363H638.111L634.991 368.22L635.071 368.3C635.451 368.14 635.871 368.06 636.351 368.06C637.691 368.06 638.791 368.5 639.651 369.38C640.531 370.24 640.971 371.34 640.971 372.64C640.971 373.94 640.511 375.02 639.611 375.92C638.711 376.82 637.591 377.26 636.271 377.26C634.951 377.26 633.851 376.82 632.951 375.94C632.051 375.06 631.611 373.96 631.611 372.64ZM633.251 372.64C633.251 374.42 634.491 375.74 636.271 375.74C637.171 375.74 637.891 375.44 638.451 374.86C639.031 374.26 639.311 373.52 639.311 372.64C639.311 371.78 639.031 371.04 638.451 370.44C637.891 369.82 637.171 369.52 636.271 369.52C635.391 369.52 634.671 369.82 634.091 370.44C633.531 371.04 633.251 371.78 633.251 372.64ZM644.529 379.86V378.48H647.189V363.12H644.529V361.74H648.769V379.86H644.529Z" fill="white"/>
<defs>
<filter id="filter0_f_42_1302" x="449" y="239.5" width="22" height="22" filterUnits="userSpaceOnUse" color-interpolation-filters="sRGB">
<feFlood flood-opacity="0" result="BackgroundImageFix"/>
<feBlend mode="normal" in="SourceGraphic" in2="BackgroundImageFix" result="shape"/>
<feGaussianBlur stdDeviation="2" result="effect1_foregroundBlur_42_1302"/>
</filter>
<filter id="filter1_f_42_1302" x="99" y="144" width="22" height="22" filterUnits="userSpaceOnUse" color-interpolation-filters="sRGB">
<feFlood flood-opacity="0" result="BackgroundImageFix"/>
<feBlend mode="normal" in="SourceGraphic" in2="BackgroundImageFix" result="shape"/>
<feGaussianBlur stdDeviation="2" result="effect1_foregroundBlur_42_1302"/>
</filter>
<filter id="filter2_f_42_1302" x="239" y="144" width="22" height="22" filterUnits="userSpaceOnUse" color-interpolation-filters="sRGB">
<feFlood flood-opacity="0" result="BackgroundImageFix"/>
<feBlend mode="normal" in="SourceGraphic" in2="BackgroundImageFix" result="shape"/>
<feGaussianBlur stdDeviation="2" result="effect1_foregroundBlur_42_1302"/>
</filter>
<filter id="filter3_f_42_1302" x="379" y="144" width="22" height="22" filterUnits="userSpaceOnUse" color-interpolation-filters="sRGB">
<feFlood flood-opacity="0" result="BackgroundImageFix"/>
<feBlend mode="normal" in="SourceGraphic" in2="BackgroundImageFix" result="shape"/>
<feGaussianBlur stdDeviation="2" result="effect1_foregroundBlur_42_1302"/>
</filter>
<filter id="filter4_f_42_1302" x="519" y="144" width="22" height="22" filterUnits="userSpaceOnUse" color-interpolation-filters="sRGB">
<feFlood flood-opacity="0" result="BackgroundImageFix"/>
<feBlend mode="normal" in="SourceGraphic" in2="BackgroundImageFix" result="shape"/>
<feGaussianBlur stdDeviation="2" result="effect1_foregroundBlur_42_1302"/>
</filter>
<filter id="filter5_f_42_1302" x="659" y="144" width="22" height="22" filterUnits="userSpaceOnUse" color-interpolation-filters="sRGB">
<feFlood flood-opacity="0" result="BackgroundImageFix"/>
<feBlend mode="normal" in="SourceGraphic" in2="BackgroundImageFix" result="shape"/>
<feGaussianBlur stdDeviation="2" result="effect1_foregroundBlur_42_1302"/>
</filter>
<filter id="filter6_f_42_1302" x="799" y="144" width="22" height="22" filterUnits="userSpaceOnUse" color-interpolation-filters="sRGB">
<feFlood flood-opacity="0" result="BackgroundImageFix"/>
<feBlend mode="normal" in="SourceGraphic" in2="BackgroundImageFix" result="shape"/>
<feGaussianBlur stdDeviation="2" result="effect1_foregroundBlur_42_1302"/>
</filter>
<filter id="filter7_f_42_1302" x="449.5" y="334" width="22" height="22" filterUnits="userSpaceOnUse" color-interpolation-filters="sRGB">
<feFlood flood-opacity="0" result="BackgroundImageFix"/>
<feBlend mode="normal" in="SourceGraphic" in2="BackgroundImageFix" result="shape"/>
<feGaussianBlur stdDeviation="2" result="effect1_foregroundBlur_42_1302"/>
</filter>
<linearGradient id="paint0_linear_42_1302" x1="529.9" y1="205" x2="458.892" y2="206.844" gradientUnits="userSpaceOnUse">
<stop stop-color="#3FABFF"/>
<stop offset="1" stop-color="#ABACB0"/>
</linearGradient>
<linearGradient id="paint1_linear_42_1302" x1="390.1" y1="205" x2="461.108" y2="206.844" gradientUnits="userSpaceOnUse">
<stop stop-color="#3FABFF"/>
<stop offset="1" stop-color="#ABACB0"/>
</linearGradient>
<linearGradient id="paint2_linear_42_1302" x1="110" y1="205" x2="460" y2="250" gradientUnits="userSpaceOnUse">
<stop stop-color="#3FABFF"/>
<stop offset="1" stop-color="#ABACB0"/>
</linearGradient>
<linearGradient id="paint3_linear_42_1302" x1="809.501" y1="205" x2="460.11" y2="250.356" gradientUnits="userSpaceOnUse">
<stop stop-color="#3FABFF"/>
<stop offset="1" stop-color="#ABACB0"/>
</linearGradient>
<linearGradient id="paint4_linear_42_1302" x1="669.7" y1="205" x2="457.819" y2="221.503" gradientUnits="userSpaceOnUse">
<stop stop-color="#3FABFF"/>
<stop offset="1" stop-color="#ABACB0"/>
</linearGradient>
<linearGradient id="paint5_linear_42_1302" x1="250.3" y1="205" x2="462.181" y2="221.503" gradientUnits="userSpaceOnUse">
<stop stop-color="#3FABFF"/>
<stop offset="1" stop-color="#ABACB0"/>
</linearGradient>
<linearGradient id="paint6_linear_42_1302" x1="110" y1="155" x2="110" y2="110.469" gradientUnits="userSpaceOnUse">
<stop stop-color="#3FCCFF"/>
<stop offset="1" stop-color="#6848FF"/>
</linearGradient>
<linearGradient id="paint7_linear_42_1302" x1="160" y1="155" x2="120" y2="235" gradientUnits="userSpaceOnUse">
<stop stop-color="#3EDCFF"/>
<stop offset="1" stop-color="#3E9AFF"/>
</linearGradient>
<linearGradient id="paint8_linear_42_1302" x1="60" y1="110" x2="100" y2="30" gradientUnits="userSpaceOnUse">
<stop stop-color="#5337FF"/>
<stop offset="1" stop-color="#A175FF"/>
</linearGradient>
<linearGradient id="paint9_linear_42_1302" x1="250" y1="155" x2="250" y2="110.469" gradientUnits="userSpaceOnUse">
<stop stop-color="#3FCCFF"/>
<stop offset="1" stop-color="#6848FF"/>
</linearGradient>
<linearGradient id="paint10_linear_42_1302" x1="300" y1="155" x2="260" y2="235" gradientUnits="userSpaceOnUse">
<stop stop-color="#3EDCFF"/>
<stop offset="1" stop-color="#3E9AFF"/>
</linearGradient>
<linearGradient id="paint11_linear_42_1302" x1="200" y1="110" x2="240" y2="30" gradientUnits="userSpaceOnUse">
<stop stop-color="#5337FF"/>
<stop offset="1" stop-color="#A175FF"/>
</linearGradient>
<linearGradient id="paint12_linear_42_1302" x1="390" y1="155" x2="390" y2="110.469" gradientUnits="userSpaceOnUse">
<stop stop-color="#3FCCFF"/>
<stop offset="1" stop-color="#6848FF"/>
</linearGradient>
<linearGradient id="paint13_linear_42_1302" x1="440" y1="155" x2="400" y2="235" gradientUnits="userSpaceOnUse">
<stop stop-color="#3EDCFF"/>
<stop offset="1" stop-color="#3E9AFF"/>
</linearGradient>
<linearGradient id="paint14_linear_42_1302" x1="340" y1="110" x2="380" y2="30" gradientUnits="userSpaceOnUse">
<stop stop-color="#5337FF"/>
<stop offset="1" stop-color="#A175FF"/>
</linearGradient>
<linearGradient id="paint15_linear_42_1302" x1="530" y1="155" x2="530" y2="110.469" gradientUnits="userSpaceOnUse">
<stop stop-color="#3FCCFF"/>
<stop offset="1" stop-color="#6848FF"/>
</linearGradient>
<linearGradient id="paint16_linear_42_1302" x1="580" y1="155" x2="540" y2="235" gradientUnits="userSpaceOnUse">
<stop stop-color="#3EDCFF"/>
<stop offset="1" stop-color="#3E9AFF"/>
</linearGradient>
<linearGradient id="paint17_linear_42_1302" x1="480" y1="110" x2="520" y2="30" gradientUnits="userSpaceOnUse">
<stop stop-color="#5337FF"/>
<stop offset="1" stop-color="#A175FF"/>
</linearGradient>
<linearGradient id="paint18_linear_42_1302" x1="670" y1="155" x2="670" y2="110.469" gradientUnits="userSpaceOnUse">
<stop stop-color="#3FCCFF"/>
<stop offset="1" stop-color="#6848FF"/>
</linearGradient>
<linearGradient id="paint19_linear_42_1302" x1="720" y1="155" x2="680" y2="235" gradientUnits="userSpaceOnUse">
<stop stop-color="#3EDCFF"/>
<stop offset="1" stop-color="#3E9AFF"/>
</linearGradient>
<linearGradient id="paint20_linear_42_1302" x1="620" y1="110" x2="660" y2="30" gradientUnits="userSpaceOnUse">
<stop stop-color="#5337FF"/>
<stop offset="1" stop-color="#A175FF"/>
</linearGradient>
<linearGradient id="paint21_linear_42_1302" x1="810" y1="155" x2="810" y2="110.469" gradientUnits="userSpaceOnUse">
<stop stop-color="#3FCCFF"/>
<stop offset="1" stop-color="#6848FF"/>
</linearGradient>
<linearGradient id="paint22_linear_42_1302" x1="860" y1="155" x2="820" y2="235" gradientUnits="userSpaceOnUse">
<stop stop-color="#3EDCFF"/>
<stop offset="1" stop-color="#3E9AFF"/>
</linearGradient>
<linearGradient id="paint23_linear_42_1302" x1="760" y1="110" x2="800" y2="30" gradientUnits="userSpaceOnUse">
<stop stop-color="#5337FF"/>
<stop offset="1" stop-color="#A175FF"/>
</linearGradient>
<linearGradient id="paint24_linear_42_1302" x1="641" y1="250" x2="627.446" y2="348.128" gradientUnits="userSpaceOnUse">
<stop stop-color="#3EDCFF"/>
<stop offset="1" stop-color="#3E9AFF"/>
</linearGradient>
<linearGradient id="paint25_linear_42_1302" x1="460.5" y1="345" x2="460.5" y2="300.469" gradientUnits="userSpaceOnUse">
<stop stop-color="#FFB245"/>
<stop offset="1" stop-color="#ABACB0"/>
</linearGradient>
<linearGradient id="paint26_linear_42_1302" x1="661" y1="345" x2="648.781" y2="443.484" gradientUnits="userSpaceOnUse">
<stop offset="0.229272" stop-color="#FFB444"/>
<stop offset="1" stop-color="#FF6644"/>
</linearGradient>
<linearGradient id="paint27_linear_42_1302" x1="661" y1="345" x2="648.781" y2="443.484" gradientUnits="userSpaceOnUse">
<stop offset="0.229272" stop-color="#FFB444"/>
<stop offset="1" stop-color="#FF6644"/>
</linearGradient>
</defs>
</svg>
