<svg width="531" height="455" viewBox="0 0 531 455" fill="none" xmlns="http://www.w3.org/2000/svg">
<rect width="531" height="455" rx="40" fill="#0D0D0E"/>
<g filter="url(#filter0_f_42_1219)">
<circle cx="265" cy="250.5" r="7" transform="rotate(-90 265 250.5)" fill="#ABACB0"/>
</g>
<rect x="250" y="250" width="30" height="12" fill="#0D0D0E"/>
<path d="M265 205L265 250" stroke="url(#paint0_linear_42_1219)"/>
<path d="M265 110L265 155" stroke="url(#paint1_linear_42_1219)" stroke-linecap="square"/>
<g filter="url(#filter1_f_42_1219)">
<circle cx="265" cy="155" r="7" transform="rotate(-90 265 155)" fill="#3FCCFF"/>
</g>
<rect x="215.5" y="155.5" width="99" height="49" rx="7.5" fill="#0D0D0E"/>
<rect x="215.5" y="155.5" width="99" height="49" rx="7.5" stroke="url(#paint2_linear_42_1219)"/>
<path d="M244.259 176.84H242.739C242.739 174.92 244.219 172.74 246.999 172.74C249.639 172.74 251.339 174.7 251.339 176.78C251.339 178.38 250.539 179.68 248.939 180.7L246.479 182.26C244.899 183.28 244.379 184.06 244.379 185.2V185.52H251.459V187H242.759V185.26C242.759 183.5 243.659 182.3 245.579 181.08L248.119 179.48C249.159 178.82 249.679 177.94 249.679 176.82C249.679 175.32 248.639 174.26 246.959 174.26C246.179 174.26 245.519 174.52 245.019 175.02C244.519 175.52 244.259 176.12 244.259 176.84ZM254.017 177.36C254.017 176.06 254.477 174.98 255.377 174.08C256.277 173.18 257.397 172.74 258.717 172.74C260.037 172.74 261.137 173.18 262.037 174.06C262.937 174.94 263.377 176.04 263.377 177.36C263.377 178.22 263.137 179.1 262.657 179.96L258.717 187H256.877L259.997 181.78L259.917 181.7C259.537 181.86 259.097 181.94 258.637 181.94C257.297 181.94 256.197 181.5 255.317 180.64C254.457 179.76 254.017 178.66 254.017 177.36ZM255.677 177.36C255.677 178.22 255.957 178.96 256.517 179.58C257.097 180.18 257.817 180.48 258.717 180.48C259.617 180.48 260.337 180.18 260.897 179.58C261.457 178.96 261.737 178.22 261.737 177.36C261.737 176.48 261.457 175.74 260.897 175.16C260.337 174.56 259.617 174.26 258.717 174.26C257.817 174.26 257.097 174.56 256.517 175.16C255.957 175.74 255.677 176.48 255.677 177.36ZM266.136 183.08C266.136 181.02 267.636 179.96 268.496 179.58V179.46C267.596 178.98 266.736 177.92 266.736 176.48C266.736 175.38 267.136 174.5 267.916 173.8C268.716 173.1 269.676 172.74 270.816 172.74C271.956 172.74 272.916 173.1 273.696 173.8C274.496 174.5 274.896 175.38 274.896 176.48C274.896 177.92 274.036 178.98 273.136 179.46V179.58C274.016 179.96 275.496 181.02 275.496 183.08C275.496 184.34 275.056 185.36 274.196 186.12C273.336 186.88 272.196 187.26 270.796 187.26C269.416 187.26 268.276 186.88 267.416 186.12C266.556 185.36 266.136 184.34 266.136 183.08ZM267.796 183.08C267.796 184.62 268.956 185.78 270.816 185.78C272.676 185.78 273.836 184.62 273.836 183.08C273.836 181.4 272.516 180.34 270.816 180.34C269.116 180.34 267.796 181.4 267.796 183.08ZM268.376 176.54C268.376 177.82 269.376 178.86 270.816 178.86C272.256 178.86 273.256 177.82 273.256 176.54C273.256 175.24 272.316 174.24 270.816 174.24C269.316 174.24 268.376 175.24 268.376 176.54ZM278.254 183.14H279.774C279.794 184.64 280.974 185.72 282.594 185.72C284.374 185.72 285.594 184.58 285.594 182.76C285.594 181.9 285.294 181.2 284.714 180.66C284.134 180.12 283.414 179.84 282.554 179.84H280.934V178.46L284.634 174.6V174.48H278.574V173H286.714V174.5L282.954 178.32V178.44C284.174 178.48 285.194 178.9 286.014 179.72C286.834 180.52 287.254 181.52 287.254 182.72C287.314 185.1 285.514 187.24 282.594 187.24C279.714 187.24 278.254 184.96 278.254 183.14Z" fill="white"/>
<rect x="215.5" y="60.5" width="99" height="49" rx="7.5" fill="#0D0D0E"/>
<rect x="215.5" y="60.5" width="99" height="49" rx="7.5" stroke="url(#paint3_linear_42_1219)"/>
<path d="M248.01 92H246.39V78H248.01V85.06H248.13L254.09 78H256.11L251.03 83.92L256.35 92H254.35L249.93 85.2L248.01 87.44V92ZM257.794 78.56C257.794 77.92 258.274 77.42 258.934 77.42C259.594 77.42 260.094 77.92 260.094 78.56C260.094 79.22 259.594 79.72 258.934 79.72C258.274 79.72 257.794 79.22 257.794 78.56ZM259.694 92H258.114V81.6H259.694V92ZM264.234 92H262.654V81.6H264.234V83.12H264.354C264.814 82.1 265.994 81.34 267.534 81.34C268.714 81.34 269.654 81.74 270.354 82.52C271.054 83.3 271.414 84.28 271.414 85.46V92H269.834V85.56C269.834 84.74 269.574 84.08 269.054 83.58C268.534 83.08 267.894 82.82 267.154 82.82C266.334 82.82 265.634 83.1 265.074 83.68C264.514 84.24 264.234 84.94 264.234 85.8V92ZM273.582 86.82C273.582 85.22 274.062 83.9 275.002 82.88C275.962 81.86 277.182 81.34 278.642 81.34C279.662 81.34 280.602 81.66 281.182 82.12C281.762 82.58 282.082 82.94 282.302 83.28H282.422V81.6H284.002V92C284.002 95.04 282.062 96.86 278.942 96.86C276.462 96.86 274.762 95.54 274.422 93.62H275.922C276.182 94.82 277.342 95.48 278.942 95.48C281.322 95.48 282.482 94.18 282.482 92V90.36H282.362C281.482 91.62 280.282 92.26 278.762 92.26C277.242 92.26 276.002 91.76 275.022 90.74C274.062 89.72 273.582 88.42 273.582 86.82ZM275.202 86.82C275.202 88.04 275.542 89.02 276.202 89.76C276.882 90.48 277.762 90.84 278.862 90.84C279.962 90.84 280.822 90.46 281.482 89.68C282.142 88.9 282.482 87.96 282.482 86.82C282.482 85.58 282.142 84.6 281.442 83.88C280.762 83.14 279.882 82.78 278.822 82.78C277.762 82.78 276.882 83.16 276.202 83.92C275.542 84.66 275.202 85.64 275.202 86.82Z" fill="white"/>
<rect x="164.5" y="250.5" width="201" height="49" rx="7.5" fill="url(#paint4_linear_42_1219)" fill-opacity="0.1"/>
<rect x="164.5" y="250.5" width="201" height="49" rx="7.5" stroke="#ABACB0"/>
<path d="M184.291 282H176.091V268H184.071V269.48H177.711V274.14H183.191V275.6H177.711V280.54H184.291V282ZM188.222 282H186.642V271.6H188.222V273.1H188.342C188.882 272.06 189.922 271.34 191.382 271.34C192.902 271.34 194.082 272.06 194.662 273.24H194.802C195.462 271.98 196.562 271.34 198.102 271.34C199.242 271.34 200.162 271.7 200.862 272.44C201.562 273.18 201.922 274.12 201.922 275.26V282H200.342V275.78C200.342 273.86 199.402 272.82 197.822 272.82C196.282 272.82 195.082 273.94 195.082 275.8V282H193.502V275.48C193.502 273.86 192.422 272.82 190.922 272.82C190.182 272.82 189.542 273.1 189.002 273.64C188.482 274.18 188.222 274.88 188.222 275.74V282ZM206.394 282H204.874V267H206.454V273.28H206.574C206.794 272.94 207.094 272.58 207.674 272.12C208.294 271.66 209.214 271.34 210.234 271.34C211.694 271.34 212.914 271.86 213.854 272.88C214.814 273.9 215.294 275.22 215.294 276.82C215.294 278.42 214.814 279.72 213.834 280.74C212.874 281.76 211.634 282.26 210.114 282.26C209.254 282.26 208.434 281.98 207.954 281.72C207.714 281.58 207.474 281.4 207.234 281.2C206.774 280.78 206.674 280.6 206.514 280.36H206.394V282ZM206.394 276.82C206.394 277.96 206.714 278.9 207.374 279.68C208.034 280.46 208.914 280.84 210.014 280.84C211.114 280.84 211.994 280.48 212.654 279.76C213.334 279.02 213.674 278.04 213.674 276.82C213.674 275.64 213.334 274.66 212.654 273.92C211.994 273.16 211.114 272.78 210.054 272.78C208.994 272.78 208.134 273.14 207.434 273.88C206.734 274.6 206.394 275.58 206.394 276.82ZM216.857 276.8C216.857 273.48 219.137 271.34 221.957 271.34C225.057 271.32 227.057 273.7 226.997 276.66V277.36H218.517C218.597 279.46 219.937 280.82 222.077 280.82C223.517 280.82 224.797 280.14 225.257 278.94H226.897C226.317 280.92 224.457 282.26 222.057 282.26C218.897 282.26 216.857 279.92 216.857 276.8ZM218.557 275.96H225.317C225.177 273.96 223.797 272.78 221.957 272.78C221.057 272.78 220.297 273.08 219.637 273.66C218.997 274.24 218.637 275.02 218.557 275.96ZM228.565 276.82C228.565 275.22 229.045 273.9 229.985 272.88C230.945 271.86 232.165 271.34 233.625 271.34C234.645 271.34 235.585 271.66 236.165 272.12C236.745 272.58 237.065 272.94 237.285 273.28H237.405V267H238.985V282H237.465V280.36H237.345C236.465 281.62 235.265 282.26 233.745 282.26C232.225 282.26 230.985 281.76 230.005 280.74C229.045 279.72 228.565 278.42 228.565 276.82ZM230.185 276.82C230.185 278.04 230.525 279.02 231.185 279.76C231.865 280.48 232.745 280.84 233.845 280.84C234.945 280.84 235.805 280.46 236.465 279.68C237.125 278.9 237.465 277.96 237.465 276.82C237.465 275.58 237.125 274.6 236.425 273.88C235.745 273.14 234.865 272.78 233.805 272.78C232.745 272.78 231.865 273.16 231.185 273.92C230.525 274.66 230.185 275.64 230.185 276.82ZM241.153 276.82C241.153 275.22 241.633 273.9 242.573 272.88C243.533 271.86 244.753 271.34 246.213 271.34C247.233 271.34 248.173 271.66 248.753 272.12C249.333 272.58 249.653 272.94 249.873 273.28H249.993V267H251.573V282H250.053V280.36H249.933C249.053 281.62 247.853 282.26 246.333 282.26C244.813 282.26 243.573 281.76 242.593 280.74C241.633 279.72 241.153 278.42 241.153 276.82ZM242.773 276.82C242.773 278.04 243.113 279.02 243.773 279.76C244.453 280.48 245.333 280.84 246.433 280.84C247.533 280.84 248.393 280.46 249.053 279.68C249.713 278.9 250.053 277.96 250.053 276.82C250.053 275.58 249.713 274.6 249.013 273.88C248.333 273.14 247.453 272.78 246.393 272.78C245.333 272.78 244.453 273.16 243.773 273.92C243.113 274.66 242.773 275.64 242.773 276.82ZM254.22 268.56C254.22 267.92 254.7 267.42 255.36 267.42C256.02 267.42 256.52 267.92 256.52 268.56C256.52 269.22 256.02 269.72 255.36 269.72C254.7 269.72 254.22 269.22 254.22 268.56ZM256.12 282H254.54V271.6H256.12V282ZM260.661 282H259.081V271.6H260.661V273.12H260.781C261.241 272.1 262.421 271.34 263.961 271.34C265.141 271.34 266.081 271.74 266.781 272.52C267.481 273.3 267.841 274.28 267.841 275.46V282H266.261V275.56C266.261 274.74 266.001 274.08 265.481 273.58C264.961 273.08 264.321 272.82 263.581 272.82C262.761 272.82 262.061 273.1 261.501 273.68C260.941 274.24 260.661 274.94 260.661 275.8V282ZM270.009 276.82C270.009 275.22 270.489 273.9 271.429 272.88C272.389 271.86 273.609 271.34 275.069 271.34C276.089 271.34 277.029 271.66 277.609 272.12C278.189 272.58 278.509 272.94 278.729 273.28H278.849V271.6H280.429V282C280.429 285.04 278.489 286.86 275.369 286.86C272.889 286.86 271.189 285.54 270.849 283.62H272.349C272.609 284.82 273.769 285.48 275.369 285.48C277.749 285.48 278.909 284.18 278.909 282V280.36H278.789C277.909 281.62 276.709 282.26 275.189 282.26C273.669 282.26 272.429 281.76 271.449 280.74C270.489 279.72 270.009 278.42 270.009 276.82ZM271.629 276.82C271.629 278.04 271.969 279.02 272.629 279.76C273.309 280.48 274.189 280.84 275.289 280.84C276.389 280.84 277.249 280.46 277.909 279.68C278.569 278.9 278.909 277.96 278.909 276.82C278.909 275.58 278.569 274.6 277.869 273.88C277.189 273.14 276.309 272.78 275.249 272.78C274.189 272.78 273.309 273.16 272.629 273.92C271.969 274.66 271.629 275.64 271.629 276.82ZM282.796 278.98H284.336C284.516 280.24 285.396 280.88 286.916 280.88C288.436 280.88 289.336 280.16 289.336 279.06C289.336 276.16 283.116 278.34 283.116 274.24C283.116 273.36 283.476 272.66 284.176 272.14C284.876 271.6 285.776 271.34 286.876 271.34C287.856 271.34 288.696 271.62 289.396 272.16C290.096 272.7 290.476 273.42 290.556 274.34H289.036C288.896 273.32 288.116 272.7 286.776 272.7C285.476 272.7 284.636 273.34 284.636 274.24C284.636 276.88 290.876 274.7 290.876 278.98C290.876 279.96 290.496 280.76 289.756 281.36C289.016 281.96 288.056 282.26 286.836 282.26C284.436 282.26 282.976 280.98 282.796 278.98ZM300.467 282H298.907V268H300.687L306.107 280.22H306.227L311.247 268H313.027V282H311.467V271.56H311.347L307.087 282H305.247L300.587 271.56H300.467V282ZM315.592 276.8C315.592 275.24 316.112 273.94 317.152 272.9C318.192 271.86 319.492 271.34 321.032 271.34C322.592 271.34 323.892 271.86 324.912 272.9C325.932 273.94 326.452 275.24 326.452 276.8C326.452 278.36 325.932 279.66 324.892 280.7C323.852 281.74 322.552 282.26 321.012 282.26C317.952 282.32 315.532 279.92 315.592 276.8ZM317.212 276.8C317.212 277.98 317.572 278.94 318.272 279.7C318.992 280.44 319.912 280.82 321.012 280.82C322.112 280.82 323.032 280.44 323.752 279.7C324.472 278.94 324.832 277.98 324.832 276.8C324.832 275.64 324.472 274.68 323.752 273.92C323.032 273.16 322.112 272.78 321.012 272.78C319.912 272.78 318.992 273.16 318.272 273.94C317.572 274.7 317.212 275.66 317.212 276.8ZM328.004 276.82C328.004 275.22 328.484 273.9 329.424 272.88C330.384 271.86 331.604 271.34 333.064 271.34C334.084 271.34 335.024 271.66 335.604 272.12C336.184 272.58 336.504 272.94 336.724 273.28H336.844V267H338.424V282H336.904V280.36H336.784C335.904 281.62 334.704 282.26 333.184 282.26C331.664 282.26 330.424 281.76 329.444 280.74C328.484 279.72 328.004 278.42 328.004 276.82ZM329.624 276.82C329.624 278.04 329.964 279.02 330.624 279.76C331.304 280.48 332.184 280.84 333.284 280.84C334.384 280.84 335.244 280.46 335.904 279.68C336.564 278.9 336.904 277.96 336.904 276.82C336.904 275.58 336.564 274.6 335.864 273.88C335.184 273.14 334.304 272.78 333.244 272.78C332.184 272.78 331.304 273.16 330.624 273.92C329.964 274.66 329.624 275.64 329.624 276.82ZM340.591 276.8C340.591 273.48 342.871 271.34 345.691 271.34C348.791 271.32 350.791 273.7 350.731 276.66V277.36H342.251C342.331 279.46 343.671 280.82 345.811 280.82C347.251 280.82 348.531 280.14 348.991 278.94H350.631C350.051 280.92 348.191 282.26 345.791 282.26C342.631 282.26 340.591 279.92 340.591 276.8ZM342.291 275.96H349.051C348.911 273.96 347.531 272.78 345.691 272.78C344.791 272.78 344.031 273.08 343.371 273.66C342.731 274.24 342.371 275.02 342.291 275.96ZM351.889 279.78V267H353.469V279.78C353.469 280.32 353.729 280.6 354.229 280.6H354.709V282H353.949C352.649 282 351.889 281.2 351.889 279.78Z" fill="white"/>
<path d="M265.5 300L265.5 345" stroke="url(#paint5_linear_42_1219)" stroke-linecap="square"/>
<g filter="url(#filter2_f_42_1219)">
<circle cx="265.5" cy="345" r="7" transform="rotate(-90 265.5 345)" fill="#FFB245"/>
</g>
<rect x="250" y="345" width="30" height="12" fill="#0D0D0E"/>
<rect x="59.5" y="345.5" width="411" height="49" rx="7.5" fill="url(#paint6_linear_42_1219)" fill-opacity="0.1"/>
<rect x="59.5" y="345.5" width="411" height="49" rx="7.5" stroke="url(#paint7_linear_42_1219)"/>
<path d="M75.4276 379.86H71.1876V361.74H75.4276V363.12H72.7676V378.48H75.4276V379.86ZM79.0827 372.82V367.18C79.0827 364.4 81.3227 362.74 83.6027 362.74C85.9027 362.74 88.1227 364.4 88.1227 367.18V372.82C88.1427 375.54 85.8627 377.32 83.6027 377.26C81.3427 377.32 79.0627 375.54 79.0827 372.82ZM80.6827 367.28V372.72C80.6827 373.58 80.9627 374.3 81.5027 374.88C82.0627 375.44 82.7627 375.72 83.6027 375.72C84.4627 375.72 85.1627 375.44 85.7027 374.88C86.2427 374.3 86.5227 373.58 86.5227 372.72V367.28C86.5227 366.42 86.2427 365.72 85.6827 365.14C85.1427 364.56 84.4427 364.28 83.6027 364.28C82.7827 364.28 82.0827 364.56 81.5227 365.14C80.9627 365.72 80.6827 366.42 80.6827 367.28ZM88.4726 376.94C88.0126 376.48 88.0126 375.78 88.4726 375.36C88.9326 374.9 89.6326 374.9 90.0526 375.36C90.5126 375.78 90.5126 376.48 90.0526 376.94C89.6326 377.36 88.9326 377.36 88.4726 376.94ZM94.2395 366.3H90.8395V365C93.3795 365 94.3395 364.44 94.3395 363H95.8595V377H94.2395V366.3ZM102.823 366.3H99.4229V365C101.963 365 102.923 364.44 102.923 363H104.443V377H102.823V366.3ZM109.086 379.62H107.926L108.266 375.14H110.006L109.086 379.62ZM122.744 371.72H117.644V370.24H122.744V371.72ZM125.395 372.82V367.18C125.395 364.4 127.635 362.74 129.915 362.74C132.215 362.74 134.435 364.4 134.435 367.18V372.82C134.455 375.54 132.175 377.32 129.915 377.26C127.655 377.32 125.375 375.54 125.395 372.82ZM126.995 367.28V372.72C126.995 373.58 127.275 374.3 127.815 374.88C128.375 375.44 129.075 375.72 129.915 375.72C130.775 375.72 131.475 375.44 132.015 374.88C132.555 374.3 132.835 373.58 132.835 372.72V367.28C132.835 366.42 132.555 365.72 131.995 365.14C131.455 364.56 130.755 364.28 129.915 364.28C129.095 364.28 128.395 364.56 127.835 365.14C127.275 365.72 126.995 366.42 126.995 367.28ZM134.785 376.94C134.325 376.48 134.325 375.78 134.785 375.36C135.245 374.9 135.945 374.9 136.365 375.36C136.825 375.78 136.825 376.48 136.365 376.94C135.945 377.36 135.245 377.36 134.785 376.94ZM139.474 373.14H140.994C141.014 374.64 142.194 375.72 143.814 375.72C145.594 375.72 146.814 374.58 146.814 372.76C146.814 371.9 146.514 371.2 145.934 370.66C145.354 370.12 144.634 369.84 143.774 369.84H142.154V368.46L145.854 364.6V364.48H139.794V363H147.934V364.5L144.174 368.32V368.44C145.394 368.48 146.414 368.9 147.234 369.72C148.054 370.52 148.474 371.52 148.474 372.72C148.534 375.1 146.734 377.24 143.814 377.24C140.934 377.24 139.474 374.96 139.474 373.14ZM152.761 366.84H151.241C151.241 364.92 152.721 362.74 155.501 362.74C158.141 362.74 159.841 364.7 159.841 366.78C159.841 368.38 159.041 369.68 157.441 370.7L154.981 372.26C153.401 373.28 152.881 374.06 152.881 375.2V375.52H159.961V377H151.261V375.26C151.261 373.5 152.161 372.3 154.081 371.08L156.621 369.48C157.661 368.82 158.181 367.94 158.181 366.82C158.181 365.32 157.141 364.26 155.461 364.26C154.681 364.26 154.021 364.52 153.521 365.02C153.021 365.52 152.761 366.12 152.761 366.84ZM163.799 379.62H162.639L162.979 375.14H164.719L163.799 379.62ZM172.657 372.82V367.18C172.657 364.4 174.897 362.74 177.177 362.74C179.477 362.74 181.697 364.4 181.697 367.18V372.82C181.717 375.54 179.437 377.32 177.177 377.26C174.917 377.32 172.637 375.54 172.657 372.82ZM174.257 367.28V372.72C174.257 373.58 174.537 374.3 175.077 374.88C175.637 375.44 176.337 375.72 177.177 375.72C178.037 375.72 178.737 375.44 179.277 374.88C179.817 374.3 180.097 373.58 180.097 372.72V367.28C180.097 366.42 179.817 365.72 179.257 365.14C178.717 364.56 178.017 364.28 177.177 364.28C176.357 364.28 175.657 364.56 175.097 365.14C174.537 365.72 174.257 366.42 174.257 367.28ZM182.047 376.94C181.587 376.48 181.587 375.78 182.047 375.36C182.507 374.9 183.207 374.9 183.627 375.36C184.087 375.78 184.087 376.48 183.627 376.94C183.207 377.36 182.507 377.36 182.047 376.94ZM192.536 373.46H186.436V372.18L190.896 363H192.596L188.316 371.9V372.02H192.536V368.86H194.136V372.02H195.976V373.46H194.136V377H192.536V373.46ZM198.444 372.64C198.444 371.78 198.684 370.9 199.164 370.04L203.104 363H204.944L201.824 368.22L201.904 368.3C202.284 368.14 202.704 368.06 203.184 368.06C204.524 368.06 205.624 368.5 206.484 369.38C207.364 370.24 207.804 371.34 207.804 372.64C207.804 373.94 207.344 375.02 206.444 375.92C205.544 376.82 204.424 377.26 203.104 377.26C201.784 377.26 200.684 376.82 199.784 375.94C198.884 375.06 198.444 373.96 198.444 372.64ZM200.084 372.64C200.084 374.42 201.324 375.74 203.104 375.74C204.004 375.74 204.724 375.44 205.284 374.86C205.864 374.26 206.144 373.52 206.144 372.64C206.144 371.78 205.864 371.04 205.284 370.44C204.724 369.82 204.004 369.52 203.104 369.52C202.224 369.52 201.504 369.82 200.924 370.44C200.364 371.04 200.084 371.78 200.084 372.64ZM209.382 379.62H208.222L208.562 375.14H210.302L209.382 379.62ZM218.24 372.82V367.18C218.24 364.4 220.48 362.74 222.76 362.74C225.06 362.74 227.28 364.4 227.28 367.18V372.82C227.3 375.54 225.02 377.32 222.76 377.26C220.5 377.32 218.22 375.54 218.24 372.82ZM219.84 367.28V372.72C219.84 373.58 220.12 374.3 220.66 374.88C221.22 375.44 221.92 375.72 222.76 375.72C223.62 375.72 224.32 375.44 224.86 374.88C225.4 374.3 225.68 373.58 225.68 372.72V367.28C225.68 366.42 225.4 365.72 224.84 365.14C224.3 364.56 223.6 364.28 222.76 364.28C221.94 364.28 221.24 364.56 220.68 365.14C220.12 365.72 219.84 366.42 219.84 367.28ZM227.63 376.94C227.17 376.48 227.17 375.78 227.63 375.36C228.09 374.9 228.79 374.9 229.21 375.36C229.67 375.78 229.67 376.48 229.21 376.94C228.79 377.36 228.09 377.36 227.63 376.94ZM232.319 373.08C232.319 371.02 233.819 369.96 234.679 369.58V369.46C233.779 368.98 232.919 367.92 232.919 366.48C232.919 365.38 233.319 364.5 234.099 363.8C234.899 363.1 235.859 362.74 236.999 362.74C238.139 362.74 239.099 363.1 239.879 363.8C240.679 364.5 241.079 365.38 241.079 366.48C241.079 367.92 240.219 368.98 239.319 369.46V369.58C240.199 369.96 241.679 371.02 241.679 373.08C241.679 374.34 241.239 375.36 240.379 376.12C239.519 376.88 238.379 377.26 236.979 377.26C235.599 377.26 234.459 376.88 233.599 376.12C232.739 375.36 232.319 374.34 232.319 373.08ZM233.979 373.08C233.979 374.62 235.139 375.78 236.999 375.78C238.859 375.78 240.019 374.62 240.019 373.08C240.019 371.4 238.699 370.34 236.999 370.34C235.299 370.34 233.979 371.4 233.979 373.08ZM234.559 366.54C234.559 367.82 235.559 368.86 236.999 368.86C238.439 368.86 239.439 367.82 239.439 366.54C239.439 365.24 238.499 364.24 236.999 364.24C235.499 364.24 234.559 365.24 234.559 366.54ZM245.957 366.84H244.437C244.437 364.92 245.917 362.74 248.697 362.74C251.337 362.74 253.037 364.7 253.037 366.78C253.037 368.38 252.237 369.68 250.637 370.7L248.177 372.26C246.597 373.28 246.077 374.06 246.077 375.2V375.52H253.157V377H244.457V375.26C244.457 373.5 245.357 372.3 247.277 371.08L249.817 369.48C250.857 368.82 251.377 367.94 251.377 366.82C251.377 365.32 250.337 364.26 248.657 364.26C247.877 364.26 247.217 364.52 246.717 365.02C246.217 365.52 245.957 366.12 245.957 366.84ZM256.996 379.62H255.836L256.176 375.14H257.916L256.996 379.62ZM266.094 376.94C265.634 376.48 265.634 375.78 266.094 375.36C266.554 374.9 267.254 374.9 267.674 375.36C268.134 375.78 268.134 376.48 267.674 376.94C267.254 377.36 266.554 377.36 266.094 376.94ZM270.734 376.94C270.274 376.48 270.294 375.78 270.714 375.36C271.174 374.9 271.854 374.9 272.314 375.36C272.774 375.78 272.774 376.48 272.314 376.94C271.854 377.36 271.154 377.36 270.734 376.94ZM275.354 376.94C274.894 376.48 274.894 375.78 275.354 375.36C275.814 374.9 276.514 374.9 276.934 375.36C277.394 375.78 277.394 376.48 276.934 376.94C276.514 377.36 275.814 377.36 275.354 376.94ZM285.306 372.82V367.18C285.306 364.4 287.546 362.74 289.826 362.74C292.126 362.74 294.346 364.4 294.346 367.18V372.82C294.366 375.54 292.086 377.32 289.826 377.26C287.566 377.32 285.286 375.54 285.306 372.82ZM286.906 367.28V372.72C286.906 373.58 287.186 374.3 287.726 374.88C288.286 375.44 288.986 375.72 289.826 375.72C290.686 375.72 291.386 375.44 291.926 374.88C292.466 374.3 292.746 373.58 292.746 372.72V367.28C292.746 366.42 292.466 365.72 291.906 365.14C291.366 364.56 290.666 364.28 289.826 364.28C289.006 364.28 288.306 364.56 287.746 365.14C287.186 365.72 286.906 366.42 286.906 367.28ZM294.696 376.94C294.236 376.48 294.236 375.78 294.696 375.36C295.156 374.9 295.856 374.9 296.276 375.36C296.736 375.78 296.736 376.48 296.276 376.94C295.856 377.36 295.156 377.36 294.696 376.94ZM303.973 364.48H297.053V363H305.653V364.38L300.713 377H298.993L303.973 364.6V364.48ZM308.007 367.36C308.007 366.06 308.467 364.98 309.367 364.08C310.267 363.18 311.387 362.74 312.707 362.74C314.027 362.74 315.127 363.18 316.027 364.06C316.927 364.94 317.367 366.04 317.367 367.36C317.367 368.22 317.127 369.1 316.647 369.96L312.707 377H310.867L313.987 371.78L313.907 371.7C313.527 371.86 313.087 371.94 312.627 371.94C311.287 371.94 310.187 371.5 309.307 370.64C308.447 369.76 308.007 368.66 308.007 367.36ZM309.667 367.36C309.667 368.22 309.947 368.96 310.507 369.58C311.087 370.18 311.807 370.48 312.707 370.48C313.607 370.48 314.327 370.18 314.887 369.58C315.447 368.96 315.727 368.22 315.727 367.36C315.727 366.48 315.447 365.74 314.887 365.16C314.327 364.56 313.607 364.26 312.707 364.26C311.807 364.26 311.087 364.56 310.507 365.16C309.947 365.74 309.667 366.48 309.667 367.36ZM315.663 379.62H314.503L314.843 375.14H316.583L315.663 379.62ZM329.321 371.72H324.221V370.24H329.321V371.72ZM331.972 372.82V367.18C331.972 364.4 334.212 362.74 336.492 362.74C338.792 362.74 341.012 364.4 341.012 367.18V372.82C341.032 375.54 338.752 377.32 336.492 377.26C334.232 377.32 331.952 375.54 331.972 372.82ZM333.572 367.28V372.72C333.572 373.58 333.852 374.3 334.392 374.88C334.952 375.44 335.652 375.72 336.492 375.72C337.352 375.72 338.052 375.44 338.592 374.88C339.132 374.3 339.412 373.58 339.412 372.72V367.28C339.412 366.42 339.132 365.72 338.572 365.14C338.032 364.56 337.332 364.28 336.492 364.28C335.672 364.28 334.972 364.56 334.412 365.14C333.852 365.72 333.572 366.42 333.572 367.28ZM341.362 376.94C340.902 376.48 340.902 375.78 341.362 375.36C341.822 374.9 342.522 374.9 342.942 375.36C343.402 375.78 343.402 376.48 342.942 376.94C342.522 377.36 341.822 377.36 341.362 376.94ZM343.199 367.36C343.199 366.06 343.659 364.98 344.559 364.08C345.459 363.18 346.579 362.74 347.899 362.74C349.219 362.74 350.319 363.18 351.219 364.06C352.119 364.94 352.559 366.04 352.559 367.36C352.559 368.22 352.319 369.1 351.839 369.96L347.899 377H346.059L349.179 371.78L349.099 371.7C348.719 371.86 348.279 371.94 347.819 371.94C346.479 371.94 345.379 371.5 344.499 370.64C343.639 369.76 343.199 368.66 343.199 367.36ZM344.859 367.36C344.859 368.22 345.139 368.96 345.699 369.58C346.279 370.18 346.999 370.48 347.899 370.48C348.799 370.48 349.519 370.18 350.079 369.58C350.639 368.96 350.919 368.22 350.919 367.36C350.919 366.48 350.639 365.74 350.079 365.16C349.519 364.56 348.799 364.26 347.899 364.26C346.999 364.26 346.279 364.56 345.699 365.16C345.139 365.74 344.859 366.48 344.859 367.36ZM354.497 373.14H356.017C356.037 374.64 357.217 375.72 358.837 375.72C360.617 375.72 361.837 374.58 361.837 372.76C361.837 371.9 361.537 371.2 360.957 370.66C360.377 370.12 359.657 369.84 358.797 369.84H357.177V368.46L360.877 364.6V364.48H354.817V363H362.957V364.5L359.197 368.32V368.44C360.417 368.48 361.437 368.9 362.257 369.72C363.077 370.52 363.497 371.52 363.497 372.72C363.557 375.1 361.757 377.24 358.837 377.24C355.957 377.24 354.497 374.96 354.497 373.14ZM365.083 379.62H363.923L364.263 375.14H366.003L365.083 379.62ZM373.941 372.82V367.18C373.941 364.4 376.181 362.74 378.461 362.74C380.761 362.74 382.981 364.4 382.981 367.18V372.82C383.001 375.54 380.721 377.32 378.461 377.26C376.201 377.32 373.921 375.54 373.941 372.82ZM375.541 367.28V372.72C375.541 373.58 375.821 374.3 376.361 374.88C376.921 375.44 377.621 375.72 378.461 375.72C379.321 375.72 380.021 375.44 380.561 374.88C381.101 374.3 381.381 373.58 381.381 372.72V367.28C381.381 366.42 381.101 365.72 380.541 365.14C380.001 364.56 379.301 364.28 378.461 364.28C377.641 364.28 376.941 364.56 376.381 365.14C375.821 365.72 375.541 366.42 375.541 367.28ZM383.331 376.94C382.871 376.48 382.871 375.78 383.331 375.36C383.791 374.9 384.491 374.9 384.911 375.36C385.371 375.78 385.371 376.48 384.911 376.94C384.491 377.36 383.791 377.36 383.331 376.94ZM389.54 366.84H388.02C388.02 364.92 389.5 362.74 392.28 362.74C394.92 362.74 396.62 364.7 396.62 366.78C396.62 368.38 395.82 369.68 394.22 370.7L391.76 372.26C390.18 373.28 389.66 374.06 389.66 375.2V375.52H396.74V377H388.04V375.26C388.04 373.5 388.94 372.3 390.86 371.08L393.4 369.48C394.44 368.82 394.96 367.94 394.96 366.82C394.96 365.32 393.92 364.26 392.24 364.26C391.46 364.26 390.8 364.52 390.3 365.02C389.8 365.52 389.54 366.12 389.54 366.84ZM399.299 367.36C399.299 366.06 399.759 364.98 400.659 364.08C401.559 363.18 402.679 362.74 403.999 362.74C405.319 362.74 406.419 363.18 407.319 364.06C408.219 364.94 408.659 366.04 408.659 367.36C408.659 368.22 408.419 369.1 407.939 369.96L403.999 377H402.159L405.279 371.78L405.199 371.7C404.819 371.86 404.379 371.94 403.919 371.94C402.579 371.94 401.479 371.5 400.599 370.64C399.739 369.76 399.299 368.66 399.299 367.36ZM400.959 367.36C400.959 368.22 401.239 368.96 401.799 369.58C402.379 370.18 403.099 370.48 403.999 370.48C404.899 370.48 405.619 370.18 406.179 369.58C406.739 368.96 407.019 368.22 407.019 367.36C407.019 366.48 406.739 365.74 406.179 365.16C405.619 364.56 404.899 364.26 403.999 364.26C403.099 364.26 402.379 364.56 401.799 365.16C401.239 365.74 400.959 366.48 400.959 367.36ZM406.955 379.62H405.795L406.135 375.14H407.875L406.955 379.62ZM415.813 372.82V367.18C415.813 364.4 418.053 362.74 420.333 362.74C422.633 362.74 424.853 364.4 424.853 367.18V372.82C424.873 375.54 422.593 377.32 420.333 377.26C418.073 377.32 415.793 375.54 415.813 372.82ZM417.413 367.28V372.72C417.413 373.58 417.693 374.3 418.233 374.88C418.793 375.44 419.493 375.72 420.333 375.72C421.193 375.72 421.893 375.44 422.433 374.88C422.973 374.3 423.253 373.58 423.253 372.72V367.28C423.253 366.42 422.973 365.72 422.413 365.14C421.873 364.56 421.173 364.28 420.333 364.28C419.513 364.28 418.813 364.56 418.253 365.14C417.693 365.72 417.413 366.42 417.413 367.28ZM425.203 376.94C424.743 376.48 424.743 375.78 425.203 375.36C425.663 374.9 426.363 374.9 426.783 375.36C427.243 375.78 427.243 376.48 426.783 376.94C426.363 377.36 425.663 377.36 425.203 376.94ZM429.892 373.08C429.892 371.02 431.392 369.96 432.252 369.58V369.46C431.352 368.98 430.492 367.92 430.492 366.48C430.492 365.38 430.892 364.5 431.672 363.8C432.472 363.1 433.432 362.74 434.572 362.74C435.712 362.74 436.672 363.1 437.452 363.8C438.252 364.5 438.652 365.38 438.652 366.48C438.652 367.92 437.792 368.98 436.892 369.46V369.58C437.772 369.96 439.252 371.02 439.252 373.08C439.252 374.34 438.812 375.36 437.952 376.12C437.092 376.88 435.952 377.26 434.552 377.26C433.172 377.26 432.032 376.88 431.172 376.12C430.312 375.36 429.892 374.34 429.892 373.08ZM431.552 373.08C431.552 374.62 432.712 375.78 434.572 375.78C436.432 375.78 437.592 374.62 437.592 373.08C437.592 371.4 436.272 370.34 434.572 370.34C432.872 370.34 431.552 371.4 431.552 373.08ZM432.132 366.54C432.132 367.82 433.132 368.86 434.572 368.86C436.012 368.86 437.012 367.82 437.012 366.54C437.012 365.24 436.072 364.24 434.572 364.24C433.072 364.24 432.132 365.24 432.132 366.54ZM442.01 373.14H443.53C443.55 374.64 444.73 375.72 446.35 375.72C448.13 375.72 449.35 374.58 449.35 372.76C449.35 371.9 449.05 371.2 448.47 370.66C447.89 370.12 447.17 369.84 446.31 369.84H444.69V368.46L448.39 364.6V364.48H442.33V363H450.47V364.5L446.71 368.32V368.44C447.93 368.48 448.95 368.9 449.77 369.72C450.59 370.52 451.01 371.52 451.01 372.72C451.07 375.1 449.27 377.24 446.35 377.24C443.47 377.24 442.01 374.96 442.01 373.14ZM454.577 379.86V378.48H457.237V363.12H454.577V361.74H458.817V379.86H454.577Z" fill="white"/>
<defs>
<filter id="filter0_f_42_1219" x="254" y="239.5" width="22" height="22" filterUnits="userSpaceOnUse" color-interpolation-filters="sRGB">
<feFlood flood-opacity="0" result="BackgroundImageFix"/>
<feBlend mode="normal" in="SourceGraphic" in2="BackgroundImageFix" result="shape"/>
<feGaussianBlur stdDeviation="2" result="effect1_foregroundBlur_42_1219"/>
</filter>
<filter id="filter1_f_42_1219" x="254" y="144" width="22" height="22" filterUnits="userSpaceOnUse" color-interpolation-filters="sRGB">
<feFlood flood-opacity="0" result="BackgroundImageFix"/>
<feBlend mode="normal" in="SourceGraphic" in2="BackgroundImageFix" result="shape"/>
<feGaussianBlur stdDeviation="2" result="effect1_foregroundBlur_42_1219"/>
</filter>
<filter id="filter2_f_42_1219" x="254.5" y="334" width="22" height="22" filterUnits="userSpaceOnUse" color-interpolation-filters="sRGB">
<feFlood flood-opacity="0" result="BackgroundImageFix"/>
<feBlend mode="normal" in="SourceGraphic" in2="BackgroundImageFix" result="shape"/>
<feGaussianBlur stdDeviation="2" result="effect1_foregroundBlur_42_1219"/>
</filter>
<linearGradient id="paint0_linear_42_1219" x1="265" y1="205" x2="286.662" y2="223.059" gradientUnits="userSpaceOnUse">
<stop stop-color="#3FABFF"/>
<stop offset="1" stop-color="#ABACB0"/>
</linearGradient>
<linearGradient id="paint1_linear_42_1219" x1="265" y1="155" x2="265" y2="110.469" gradientUnits="userSpaceOnUse">
<stop stop-color="#3FCCFF"/>
<stop offset="1" stop-color="#6848FF"/>
</linearGradient>
<linearGradient id="paint2_linear_42_1219" x1="315" y1="155" x2="275" y2="235" gradientUnits="userSpaceOnUse">
<stop stop-color="#3EDCFF"/>
<stop offset="1" stop-color="#3E9AFF"/>
</linearGradient>
<linearGradient id="paint3_linear_42_1219" x1="215" y1="110" x2="255" y2="30" gradientUnits="userSpaceOnUse">
<stop stop-color="#5337FF"/>
<stop offset="1" stop-color="#A175FF"/>
</linearGradient>
<linearGradient id="paint4_linear_42_1219" x1="366" y1="250" x2="342.677" y2="344.227" gradientUnits="userSpaceOnUse">
<stop stop-color="#3EDCFF"/>
<stop offset="1" stop-color="#3E9AFF"/>
</linearGradient>
<linearGradient id="paint5_linear_42_1219" x1="265.5" y1="345" x2="265.5" y2="300.469" gradientUnits="userSpaceOnUse">
<stop stop-color="#FFB245"/>
<stop offset="1" stop-color="#ABACB0"/>
</linearGradient>
<linearGradient id="paint6_linear_42_1219" x1="471" y1="345" x2="459.04" y2="443.549" gradientUnits="userSpaceOnUse">
<stop offset="0.229272" stop-color="#FFB444"/>
<stop offset="1" stop-color="#FF6644"/>
</linearGradient>
<linearGradient id="paint7_linear_42_1219" x1="471" y1="345" x2="459.04" y2="443.549" gradientUnits="userSpaceOnUse">
<stop offset="0.229272" stop-color="#FFB444"/>
<stop offset="1" stop-color="#FF6644"/>
</linearGradient>
</defs>
</svg>
