<svg width="580" height="248" viewBox="0 0 580 248" fill="none" xmlns="http://www.w3.org/2000/svg">
<rect width="580" height="248" rx="40" fill="#0D0D0E"/>
<path d="M380 124H200" stroke="url(#paint0_linear_39_736)"/>
<g filter="url(#filter0_f_39_736)">
<circle cx="380" cy="124" r="7" fill="#6B4AFF"/>
</g>
<rect x="233" y="70.5" width="114" height="43" rx="11.5" fill="url(#paint1_linear_39_736)" fill-opacity="0.1"/>
<rect x="233" y="70.5" width="114" height="43" rx="11.5" stroke="#2F3033"/>
<path d="M242.444 80.2727V89H241.438V80.2727H242.444ZM246.945 89.1364C246.354 89.1364 245.835 88.9957 245.389 88.7145C244.946 88.4332 244.6 88.0398 244.35 87.5341C244.102 87.0284 243.979 86.4375 243.979 85.7614C243.979 85.0795 244.102 84.4844 244.35 83.9759C244.6 83.4673 244.946 83.0724 245.389 82.7912C245.835 82.5099 246.354 82.3693 246.945 82.3693C247.536 82.3693 248.053 82.5099 248.496 82.7912C248.942 83.0724 249.289 83.4673 249.536 83.9759C249.786 84.4844 249.911 85.0795 249.911 85.7614C249.911 86.4375 249.786 87.0284 249.536 87.5341C249.289 88.0398 248.942 88.4332 248.496 88.7145C248.053 88.9957 247.536 89.1364 246.945 89.1364ZM246.945 88.233C247.394 88.233 247.763 88.1179 248.053 87.8878C248.343 87.6577 248.557 87.3551 248.696 86.9801C248.835 86.6051 248.905 86.1989 248.905 85.7614C248.905 85.3239 248.835 84.9162 248.696 84.5384C248.557 84.1605 248.343 83.8551 248.053 83.6222C247.763 83.3892 247.394 83.2727 246.945 83.2727C246.496 83.2727 246.127 83.3892 245.837 83.6222C245.547 83.8551 245.333 84.1605 245.193 84.5384C245.054 84.9162 244.985 85.3239 244.985 85.7614C244.985 86.1989 245.054 86.6051 245.193 86.9801C245.333 87.3551 245.547 87.6577 245.837 87.8878C246.127 88.1179 246.496 88.233 246.945 88.233ZM254.088 91.5909C253.602 91.5909 253.184 91.5284 252.835 91.4034C252.486 91.2812 252.194 91.1193 251.961 90.9176C251.731 90.7188 251.548 90.5057 251.412 90.2784L252.213 89.7159C252.304 89.8352 252.419 89.9716 252.558 90.125C252.697 90.2812 252.888 90.4162 253.129 90.5298C253.373 90.6463 253.693 90.7045 254.088 90.7045C254.616 90.7045 255.052 90.5767 255.396 90.321C255.74 90.0653 255.912 89.6648 255.912 89.1193V87.7898H255.827C255.753 87.9091 255.648 88.0568 255.511 88.233C255.378 88.4062 255.184 88.5611 254.932 88.6974C254.682 88.831 254.344 88.8977 253.917 88.8977C253.389 88.8977 252.915 88.7727 252.494 88.5227C252.077 88.2727 251.746 87.9091 251.501 87.4318C251.26 86.9545 251.139 86.375 251.139 85.6932C251.139 85.0227 251.257 84.4389 251.493 83.9418C251.729 83.4418 252.057 83.0554 252.477 82.7827C252.898 82.5071 253.383 82.3693 253.934 82.3693C254.361 82.3693 254.699 82.4403 254.949 82.5824C255.202 82.7216 255.395 82.8807 255.528 83.0597C255.665 83.2358 255.77 83.3807 255.844 83.4943H255.946V82.4545H256.917V89.1875C256.917 89.75 256.79 90.2074 256.534 90.5597C256.281 90.9148 255.94 91.1747 255.511 91.3395C255.085 91.5071 254.611 91.5909 254.088 91.5909ZM254.054 87.9943C254.457 87.9943 254.798 87.902 255.077 87.7173C255.355 87.5327 255.567 87.267 255.711 86.9205C255.856 86.5739 255.929 86.1591 255.929 85.6761C255.929 85.2045 255.858 84.7884 255.716 84.4276C255.574 84.0668 255.363 83.7841 255.085 83.5795C254.807 83.375 254.463 83.2727 254.054 83.2727C253.628 83.2727 253.273 83.3807 252.988 83.5966C252.707 83.8125 252.496 84.1023 252.354 84.4659C252.214 84.8295 252.145 85.233 252.145 85.6761C252.145 86.1307 252.216 86.5327 252.358 86.8821C252.503 87.2287 252.716 87.5014 252.997 87.7003C253.281 87.8963 253.633 87.9943 254.054 87.9943ZM258.758 89V82.4545H259.764V89H258.758ZM259.27 81.3636C259.074 81.3636 258.905 81.2969 258.763 81.1634C258.623 81.0298 258.554 80.8693 258.554 80.6818C258.554 80.4943 258.623 80.3338 258.763 80.2003C258.905 80.0668 259.074 80 259.27 80C259.466 80 259.633 80.0668 259.773 80.2003C259.915 80.3338 259.986 80.4943 259.986 80.6818C259.986 80.8693 259.915 81.0298 259.773 81.1634C259.633 81.2969 259.466 81.3636 259.27 81.3636ZM264.265 89.1364C263.651 89.1364 263.123 88.9915 262.68 88.7017C262.237 88.4119 261.896 88.0128 261.657 87.5043C261.419 86.9957 261.299 86.4148 261.299 85.7614C261.299 85.0966 261.421 84.5099 261.666 84.0014C261.913 83.4901 262.257 83.0909 262.697 82.804C263.14 82.5142 263.657 82.3693 264.248 82.3693C264.708 82.3693 265.123 82.4545 265.492 82.625C265.862 82.7955 266.164 83.0341 266.4 83.3409C266.636 83.6477 266.782 84.0057 266.839 84.4148H265.833C265.757 84.1165 265.586 83.8523 265.322 83.6222C265.061 83.3892 264.708 83.2727 264.265 83.2727C263.873 83.2727 263.529 83.375 263.234 83.5795C262.941 83.7812 262.713 84.0668 262.548 84.4361C262.386 84.8026 262.305 85.233 262.305 85.7273C262.305 86.233 262.384 86.6733 262.544 87.0483C262.705 87.4233 262.933 87.7145 263.225 87.9219C263.521 88.1293 263.867 88.233 264.265 88.233C264.526 88.233 264.764 88.1875 264.977 88.0966C265.19 88.0057 265.37 87.875 265.518 87.7045C265.666 87.5341 265.771 87.3295 265.833 87.0909H266.839C266.782 87.4773 266.642 87.8253 266.417 88.1349C266.195 88.4418 265.901 88.6861 265.535 88.8679C265.171 89.0469 264.748 89.1364 264.265 89.1364ZM270.235 89.1534C269.82 89.1534 269.444 89.0753 269.106 88.919C268.768 88.7599 268.499 88.5312 268.301 88.233C268.102 87.9318 268.002 87.5682 268.002 87.142C268.002 86.767 268.076 86.4631 268.224 86.2301C268.372 85.9943 268.569 85.8097 268.816 85.6761C269.063 85.5426 269.336 85.4432 269.634 85.3778C269.936 85.3097 270.238 85.2557 270.542 85.2159C270.94 85.1648 271.262 85.1264 271.509 85.1009C271.759 85.0724 271.941 85.0256 272.055 84.9602C272.171 84.8949 272.23 84.7812 272.23 84.6193V84.5852C272.23 84.1648 272.115 83.8381 271.884 83.6051C271.657 83.3722 271.312 83.2557 270.849 83.2557C270.369 83.2557 269.992 83.3608 269.72 83.571C269.447 83.7812 269.255 84.0057 269.144 84.2443L268.19 83.9034C268.36 83.5057 268.588 83.196 268.872 82.9744C269.159 82.75 269.471 82.5937 269.809 82.5057C270.15 82.4148 270.485 82.3693 270.815 82.3693C271.025 82.3693 271.267 82.3949 271.539 82.446C271.815 82.4943 272.08 82.5952 272.336 82.7486C272.595 82.902 272.809 83.1335 272.98 83.4432C273.15 83.7528 273.235 84.1676 273.235 84.6875V89H272.23V88.1136H272.178C272.11 88.2557 271.997 88.4077 271.838 88.5696C271.678 88.7315 271.467 88.8693 271.203 88.983C270.938 89.0966 270.616 89.1534 270.235 89.1534ZM270.389 88.25C270.786 88.25 271.122 88.1719 271.394 88.0156C271.67 87.8594 271.877 87.6577 272.017 87.4105C272.159 87.1634 272.23 86.9034 272.23 86.6307V85.7102C272.187 85.7614 272.093 85.8082 271.948 85.8509C271.806 85.8906 271.642 85.9261 271.454 85.9574C271.269 85.9858 271.089 86.0114 270.913 86.0341C270.74 86.054 270.599 86.071 270.491 86.0852C270.23 86.1193 269.985 86.1747 269.758 86.2514C269.534 86.3253 269.352 86.4375 269.213 86.5881C269.076 86.7358 269.008 86.9375 269.008 87.1932C269.008 87.5426 269.137 87.8068 269.396 87.9858C269.657 88.1619 269.988 88.25 270.389 88.25ZM276.077 80.2727V89H275.071V80.2727H276.077ZM281.294 89V82.4545H282.265V83.4432H282.333C282.453 83.1193 282.669 82.8565 282.981 82.6548C283.294 82.4531 283.646 82.3523 284.038 82.3523C284.112 82.3523 284.204 82.3537 284.315 82.3565C284.426 82.3594 284.509 82.3636 284.566 82.3693V83.392C284.532 83.3835 284.454 83.3707 284.332 83.3537C284.213 83.3338 284.086 83.3239 283.953 83.3239C283.634 83.3239 283.35 83.3906 283.1 83.5241C282.853 83.6548 282.657 83.8366 282.512 84.0696C282.37 84.2997 282.299 84.5625 282.299 84.858V89H281.294ZM288.303 89.1364C287.673 89.1364 287.129 88.9972 286.671 88.7188C286.217 88.4375 285.866 88.0455 285.619 87.5426C285.374 87.0369 285.252 86.4489 285.252 85.7784C285.252 85.108 285.374 84.517 285.619 84.0057C285.866 83.4915 286.21 83.0909 286.65 82.804C287.093 82.5142 287.61 82.3693 288.201 82.3693C288.542 82.3693 288.879 82.4261 289.211 82.5398C289.544 82.6534 289.846 82.8381 290.119 83.0938C290.392 83.3466 290.609 83.6818 290.771 84.0994C290.933 84.517 291.014 85.0312 291.014 85.642V86.0682H285.968V85.1989H289.991C289.991 84.8295 289.917 84.5 289.769 84.2102C289.624 83.9205 289.417 83.6918 289.147 83.5241C288.88 83.3565 288.565 83.2727 288.201 83.2727C287.801 83.2727 287.454 83.3722 287.161 83.571C286.872 83.767 286.649 84.0227 286.492 84.3381C286.336 84.6534 286.258 84.9915 286.258 85.3523V85.9318C286.258 86.4261 286.343 86.8452 286.514 87.1889C286.687 87.5298 286.927 87.7898 287.234 87.9688C287.541 88.1449 287.897 88.233 288.303 88.233C288.568 88.233 288.806 88.196 289.019 88.1222C289.235 88.0455 289.421 87.9318 289.578 87.7812C289.734 87.6278 289.855 87.4375 289.94 87.2102L290.911 87.483C290.809 87.8125 290.637 88.1023 290.396 88.3523C290.154 88.5994 289.856 88.7926 289.501 88.9318C289.146 89.0682 288.747 89.1364 288.303 89.1364ZM292.544 91.4545V82.4545H293.515V83.4943H293.634C293.708 83.3807 293.811 83.2358 293.941 83.0597C294.075 82.8807 294.265 82.7216 294.512 82.5824C294.762 82.4403 295.1 82.3693 295.526 82.3693C296.078 82.3693 296.563 82.5071 296.984 82.7827C297.404 83.0582 297.732 83.4489 297.968 83.9545C298.204 84.4602 298.322 85.0568 298.322 85.7443C298.322 86.4375 298.204 87.0384 297.968 87.5469C297.732 88.0526 297.406 88.4446 296.988 88.723C296.57 88.9986 296.089 89.1364 295.544 89.1364C295.123 89.1364 294.786 89.0668 294.534 88.9276C294.281 88.7855 294.086 88.625 293.95 88.446C293.813 88.2642 293.708 88.1136 293.634 87.9943H293.549V91.4545H292.544ZM293.532 85.7273C293.532 86.2216 293.605 86.6577 293.749 87.0355C293.894 87.4105 294.106 87.7045 294.384 87.9176C294.663 88.1278 295.004 88.233 295.407 88.233C295.828 88.233 296.178 88.1222 296.46 87.9006C296.744 87.6761 296.957 87.375 297.099 86.9972C297.244 86.6165 297.316 86.1932 297.316 85.7273C297.316 85.267 297.245 84.8523 297.103 84.483C296.964 84.1108 296.752 83.8168 296.468 83.6009C296.187 83.3821 295.833 83.2727 295.407 83.2727C294.998 83.2727 294.654 83.3764 294.376 83.5838C294.097 83.7884 293.887 84.0753 293.745 84.4446C293.603 84.8111 293.532 85.2386 293.532 85.7273ZM300.862 80.2727V89H299.856V80.2727H300.862ZM302.704 89V82.4545H303.709V89H302.704ZM303.215 81.3636C303.019 81.3636 302.85 81.2969 302.708 81.1634C302.569 81.0298 302.499 80.8693 302.499 80.6818C302.499 80.4943 302.569 80.3338 302.708 80.2003C302.85 80.0668 303.019 80 303.215 80C303.411 80 303.579 80.0668 303.718 80.2003C303.86 80.3338 303.931 80.4943 303.931 80.6818C303.931 80.8693 303.86 81.0298 303.718 81.1634C303.579 81.2969 303.411 81.3636 303.215 81.3636ZM308.21 89.1364C307.597 89.1364 307.068 88.9915 306.625 88.7017C306.182 88.4119 305.841 88.0128 305.602 87.5043C305.364 86.9957 305.244 86.4148 305.244 85.7614C305.244 85.0966 305.367 84.5099 305.611 84.0014C305.858 83.4901 306.202 83.0909 306.642 82.804C307.085 82.5142 307.602 82.3693 308.193 82.3693C308.654 82.3693 309.068 82.4545 309.438 82.625C309.807 82.7955 310.11 83.0341 310.345 83.3409C310.581 83.6477 310.727 84.0057 310.784 84.4148H309.779C309.702 84.1165 309.531 83.8523 309.267 83.6222C309.006 83.3892 308.654 83.2727 308.21 83.2727C307.818 83.2727 307.475 83.375 307.179 83.5795C306.887 83.7812 306.658 84.0668 306.493 84.4361C306.331 84.8026 306.25 85.233 306.25 85.7273C306.25 86.233 306.33 86.6733 306.489 87.0483C306.651 87.4233 306.878 87.7145 307.171 87.9219C307.466 88.1293 307.813 88.233 308.21 88.233C308.472 88.233 308.709 88.1875 308.922 88.0966C309.135 88.0057 309.316 87.875 309.463 87.7045C309.611 87.5341 309.716 87.3295 309.779 87.0909H310.784C310.727 87.4773 310.587 87.8253 310.362 88.1349C310.141 88.4418 309.847 88.6861 309.48 88.8679C309.117 89.0469 308.693 89.1364 308.21 89.1364ZM314.181 89.1534C313.766 89.1534 313.389 89.0753 313.051 88.919C312.713 88.7599 312.445 88.5312 312.246 88.233C312.047 87.9318 311.948 87.5682 311.948 87.142C311.948 86.767 312.021 86.4631 312.169 86.2301C312.317 85.9943 312.514 85.8097 312.762 85.6761C313.009 85.5426 313.281 85.4432 313.58 85.3778C313.881 85.3097 314.183 85.2557 314.487 85.2159C314.885 85.1648 315.208 85.1264 315.455 85.1009C315.705 85.0724 315.887 85.0256 316 84.9602C316.117 84.8949 316.175 84.7812 316.175 84.6193V84.5852C316.175 84.1648 316.06 83.8381 315.83 83.6051C315.602 83.3722 315.257 83.2557 314.794 83.2557C314.314 83.2557 313.938 83.3608 313.665 83.571C313.392 83.7812 313.2 84.0057 313.09 84.2443L312.135 83.9034C312.306 83.5057 312.533 83.196 312.817 82.9744C313.104 82.75 313.416 82.5937 313.754 82.5057C314.095 82.4148 314.431 82.3693 314.76 82.3693C314.97 82.3693 315.212 82.3949 315.485 82.446C315.76 82.4943 316.026 82.5952 316.281 82.7486C316.54 82.902 316.754 83.1335 316.925 83.4432C317.095 83.7528 317.181 84.1676 317.181 84.6875V89H316.175V88.1136H316.124C316.056 88.2557 315.942 88.4077 315.783 88.5696C315.624 88.7315 315.412 88.8693 315.148 88.983C314.884 89.0966 314.561 89.1534 314.181 89.1534ZM314.334 88.25C314.732 88.25 315.067 88.1719 315.34 88.0156C315.615 87.8594 315.823 87.6577 315.962 87.4105C316.104 87.1634 316.175 86.9034 316.175 86.6307V85.7102C316.132 85.7614 316.039 85.8082 315.894 85.8509C315.752 85.8906 315.587 85.9261 315.399 85.9574C315.215 85.9858 315.034 86.0114 314.858 86.0341C314.685 86.054 314.544 86.071 314.436 86.0852C314.175 86.1193 313.931 86.1747 313.703 86.2514C313.479 86.3253 313.297 86.4375 313.158 86.5881C313.021 86.7358 312.953 86.9375 312.953 87.1932C312.953 87.5426 313.083 87.8068 313.341 87.9858C313.602 88.1619 313.933 88.25 314.334 88.25ZM321.863 82.4545V83.3068H318.471V82.4545H321.863ZM319.459 80.8864H320.465V87.125C320.465 87.4091 320.506 87.6222 320.589 87.7642C320.674 87.9034 320.782 87.9972 320.912 88.0455C321.046 88.0909 321.187 88.1136 321.334 88.1136C321.445 88.1136 321.536 88.108 321.607 88.0966C321.678 88.0824 321.735 88.071 321.778 88.0625L321.982 88.9659C321.914 88.9915 321.819 89.017 321.697 89.0426C321.574 89.071 321.42 89.0852 321.232 89.0852C320.948 89.0852 320.67 89.0241 320.397 88.902C320.127 88.7798 319.903 88.5938 319.724 88.3438C319.547 88.0938 319.459 87.7784 319.459 87.3977V80.8864ZM323.376 89V82.4545H324.381V89H323.376ZM323.887 81.3636C323.691 81.3636 323.522 81.2969 323.38 81.1634C323.241 81.0298 323.171 80.8693 323.171 80.6818C323.171 80.4943 323.241 80.3338 323.38 80.2003C323.522 80.0668 323.691 80 323.887 80C324.083 80 324.251 80.0668 324.39 80.2003C324.532 80.3338 324.603 80.4943 324.603 80.6818C324.603 80.8693 324.532 81.0298 324.39 81.1634C324.251 81.2969 324.083 81.3636 323.887 81.3636ZM328.882 89.1364C328.291 89.1364 327.773 88.9957 327.327 88.7145C326.884 88.4332 326.537 88.0398 326.287 87.5341C326.04 87.0284 325.916 86.4375 325.916 85.7614C325.916 85.0795 326.04 84.4844 326.287 83.9759C326.537 83.4673 326.884 83.0724 327.327 82.7912C327.773 82.5099 328.291 82.3693 328.882 82.3693C329.473 82.3693 329.99 82.5099 330.433 82.7912C330.879 83.0724 331.226 83.4673 331.473 83.9759C331.723 84.4844 331.848 85.0795 331.848 85.7614C331.848 86.4375 331.723 87.0284 331.473 87.5341C331.226 88.0398 330.879 88.4332 330.433 88.7145C329.99 88.9957 329.473 89.1364 328.882 89.1364ZM328.882 88.233C329.331 88.233 329.7 88.1179 329.99 87.8878C330.28 87.6577 330.494 87.3551 330.634 86.9801C330.773 86.6051 330.843 86.1989 330.843 85.7614C330.843 85.3239 330.773 84.9162 330.634 84.5384C330.494 84.1605 330.28 83.8551 329.99 83.6222C329.7 83.3892 329.331 83.2727 328.882 83.2727C328.433 83.2727 328.064 83.3892 327.774 83.6222C327.485 83.8551 327.27 84.1605 327.131 84.5384C326.992 84.9162 326.922 85.3239 326.922 85.7614C326.922 86.1989 326.992 86.6051 327.131 86.9801C327.27 87.3551 327.485 87.6577 327.774 87.8878C328.064 88.1179 328.433 88.233 328.882 88.233ZM334.389 85.0625V89H333.383V82.4545H334.355V83.4773H334.44C334.594 83.1449 334.827 82.8778 335.139 82.6761C335.452 82.4716 335.855 82.3693 336.349 82.3693C336.792 82.3693 337.18 82.4602 337.513 82.642C337.845 82.821 338.104 83.0938 338.288 83.4602C338.473 83.8239 338.565 84.2841 338.565 84.8409V89H337.559V84.9091C337.559 84.3949 337.426 83.9943 337.159 83.7074C336.892 83.4176 336.525 83.2727 336.059 83.2727C335.738 83.2727 335.452 83.3423 335.199 83.4815C334.949 83.6207 334.751 83.8239 334.606 84.0909C334.461 84.358 334.389 84.6818 334.389 85.0625ZM276.022 97.9205L275.118 98.1761C275.061 98.0256 274.978 97.8793 274.867 97.7372C274.759 97.5923 274.611 97.473 274.424 97.3793C274.236 97.2855 273.996 97.2386 273.703 97.2386C273.303 97.2386 272.969 97.331 272.702 97.5156C272.438 97.6974 272.306 97.929 272.306 98.2102C272.306 98.4602 272.397 98.6577 272.578 98.8026C272.76 98.9474 273.044 99.0682 273.431 99.1648L274.402 99.4034C274.988 99.5455 275.424 99.7628 275.711 100.055C275.998 100.345 276.141 100.719 276.141 101.176C276.141 101.551 276.033 101.886 275.817 102.182C275.604 102.477 275.306 102.71 274.922 102.881C274.539 103.051 274.093 103.136 273.584 103.136C272.917 103.136 272.364 102.991 271.926 102.702C271.489 102.412 271.212 101.989 271.096 101.432L272.05 101.193C272.141 101.545 272.313 101.81 272.566 101.986C272.821 102.162 273.155 102.25 273.567 102.25C274.036 102.25 274.408 102.151 274.684 101.952C274.962 101.75 275.101 101.509 275.101 101.227C275.101 101 275.022 100.81 274.863 100.656C274.703 100.5 274.459 100.384 274.13 100.307L273.039 100.051C272.439 99.9091 271.999 99.6889 271.718 99.3906C271.439 99.0895 271.3 98.7131 271.3 98.2614C271.3 97.892 271.404 97.5653 271.611 97.2812C271.821 96.9972 272.107 96.7741 272.468 96.6122C272.831 96.4503 273.243 96.3693 273.703 96.3693C274.351 96.3693 274.86 96.5114 275.229 96.7955C275.601 97.0795 275.865 97.4545 276.022 97.9205ZM280.501 96.4545V97.3068H277.109V96.4545H280.501ZM278.098 94.8864H279.104V101.125C279.104 101.409 279.145 101.622 279.227 101.764C279.313 101.903 279.42 101.997 279.551 102.045C279.685 102.091 279.825 102.114 279.973 102.114C280.084 102.114 280.175 102.108 280.246 102.097C280.317 102.082 280.374 102.071 280.416 102.062L280.621 102.966C280.553 102.991 280.457 103.017 280.335 103.043C280.213 103.071 280.058 103.085 279.871 103.085C279.587 103.085 279.308 103.024 279.036 102.902C278.766 102.78 278.541 102.594 278.362 102.344C278.186 102.094 278.098 101.778 278.098 101.398V94.8864ZM282.014 103V96.4545H282.986V97.4432H283.054C283.173 97.1193 283.389 96.8565 283.702 96.6548C284.014 96.4531 284.366 96.3523 284.759 96.3523C284.832 96.3523 284.925 96.3537 285.036 96.3565C285.146 96.3594 285.23 96.3636 285.287 96.3693V97.392C285.253 97.3835 285.175 97.3707 285.053 97.3537C284.933 97.3338 284.807 97.3239 284.673 97.3239C284.355 97.3239 284.071 97.3906 283.821 97.5241C283.574 97.6548 283.378 97.8366 283.233 98.0696C283.091 98.2997 283.02 98.5625 283.02 98.858V103H282.014ZM289.024 103.136C288.393 103.136 287.849 102.997 287.392 102.719C286.938 102.438 286.587 102.045 286.339 101.543C286.095 101.037 285.973 100.449 285.973 99.7784C285.973 99.108 286.095 98.517 286.339 98.0057C286.587 97.4915 286.93 97.0909 287.371 96.804C287.814 96.5142 288.331 96.3693 288.922 96.3693C289.263 96.3693 289.599 96.4261 289.932 96.5398C290.264 96.6534 290.567 96.8381 290.839 97.0938C291.112 97.3466 291.33 97.6818 291.491 98.0994C291.653 98.517 291.734 99.0312 291.734 99.642V100.068H286.689V99.1989H290.712C290.712 98.8295 290.638 98.5 290.49 98.2102C290.345 97.9205 290.138 97.6918 289.868 97.5241C289.601 97.3565 289.286 97.2727 288.922 97.2727C288.521 97.2727 288.175 97.3722 287.882 97.571C287.592 97.767 287.369 98.0227 287.213 98.3381C287.057 98.6534 286.979 98.9915 286.979 99.3523V99.9318C286.979 100.426 287.064 100.845 287.234 101.189C287.408 101.53 287.648 101.79 287.955 101.969C288.261 102.145 288.618 102.233 289.024 102.233C289.288 102.233 289.527 102.196 289.74 102.122C289.956 102.045 290.142 101.932 290.298 101.781C290.455 101.628 290.575 101.437 290.661 101.21L291.632 101.483C291.53 101.812 291.358 102.102 291.116 102.352C290.875 102.599 290.577 102.793 290.222 102.932C289.866 103.068 289.467 103.136 289.024 103.136ZM295.19 103.153C294.776 103.153 294.399 103.075 294.061 102.919C293.723 102.76 293.455 102.531 293.256 102.233C293.057 101.932 292.957 101.568 292.957 101.142C292.957 100.767 293.031 100.463 293.179 100.23C293.327 99.9943 293.524 99.8097 293.771 99.6761C294.018 99.5426 294.291 99.4432 294.589 99.3778C294.891 99.3097 295.193 99.2557 295.497 99.2159C295.895 99.1648 296.217 99.1264 296.464 99.1009C296.714 99.0724 296.896 99.0256 297.01 98.9602C297.126 98.8949 297.185 98.7812 297.185 98.6193V98.5852C297.185 98.1648 297.07 97.8381 296.839 97.6051C296.612 97.3722 296.267 97.2557 295.804 97.2557C295.324 97.2557 294.947 97.3608 294.675 97.571C294.402 97.7812 294.21 98.0057 294.099 98.2443L293.145 97.9034C293.315 97.5057 293.543 97.196 293.827 96.9744C294.114 96.75 294.426 96.5937 294.764 96.5057C295.105 96.4148 295.44 96.3693 295.77 96.3693C295.98 96.3693 296.222 96.3949 296.494 96.446C296.77 96.4943 297.036 96.5952 297.291 96.7486C297.55 96.902 297.764 97.1335 297.935 97.4432C298.105 97.7528 298.19 98.1676 298.19 98.6875V103H297.185V102.114H297.134C297.065 102.256 296.952 102.408 296.793 102.57C296.634 102.732 296.422 102.869 296.158 102.983C295.893 103.097 295.571 103.153 295.19 103.153ZM295.344 102.25C295.741 102.25 296.077 102.172 296.349 102.016C296.625 101.859 296.832 101.658 296.972 101.411C297.114 101.163 297.185 100.903 297.185 100.631V99.7102C297.142 99.7614 297.048 99.8082 296.903 99.8509C296.761 99.8906 296.597 99.9261 296.409 99.9574C296.224 99.9858 296.044 100.011 295.868 100.034C295.695 100.054 295.554 100.071 295.446 100.085C295.185 100.119 294.94 100.175 294.713 100.251C294.489 100.325 294.307 100.437 294.168 100.588C294.031 100.736 293.963 100.937 293.963 101.193C293.963 101.543 294.092 101.807 294.351 101.986C294.612 102.162 294.943 102.25 295.344 102.25ZM300.026 103V96.4545H300.998V97.4773H301.083C301.219 97.1278 301.439 96.8565 301.743 96.6634C302.047 96.4673 302.412 96.3693 302.838 96.3693C303.27 96.3693 303.63 96.4673 303.917 96.6634C304.206 96.8565 304.432 97.1278 304.594 97.4773H304.662C304.83 97.1392 305.081 96.8707 305.417 96.6719C305.752 96.4702 306.154 96.3693 306.623 96.3693C307.208 96.3693 307.686 96.5526 308.059 96.919C308.431 97.2827 308.617 97.8494 308.617 98.6193V103H307.611V98.6193C307.611 98.1364 307.479 97.7912 307.215 97.5838C306.951 97.3764 306.64 97.2727 306.282 97.2727C305.821 97.2727 305.465 97.4119 305.212 97.6903C304.959 97.9659 304.833 98.3153 304.833 98.7386V103H303.81V98.517C303.81 98.1449 303.689 97.8452 303.448 97.6179C303.206 97.3878 302.895 97.2727 302.515 97.2727C302.253 97.2727 302.009 97.3423 301.782 97.4815C301.557 97.6207 301.375 97.8139 301.236 98.0611C301.1 98.3054 301.032 98.5881 301.032 98.9091V103H300.026Z" fill="white"/>
<path d="M519.5 169C519.5 171.357 517.733 173.726 514.229 175.975C510.748 178.209 505.677 180.24 499.367 181.952C486.753 185.376 469.299 187.5 450 187.5C430.701 187.5 413.247 185.376 400.634 181.952C394.323 180.24 389.252 178.209 385.771 175.975C382.267 173.726 380.5 171.357 380.5 169V79.5H519.5V169Z" fill="#0D0D0E" stroke="url(#paint2_linear_39_736)"/>
<path d="M519.5 79C519.5 81.3574 517.733 83.7261 514.229 85.9749C510.748 88.2089 505.677 90.2396 499.367 91.9525C486.753 95.3762 469.299 97.5 450 97.5C430.701 97.5 413.247 95.3762 400.634 91.9525C394.323 90.2396 389.252 88.2089 385.771 85.9749C382.267 83.7261 380.5 81.3574 380.5 79C380.5 76.6426 382.267 74.2739 385.771 72.0251C389.252 69.7911 394.323 67.7604 400.634 66.0475C413.247 62.6238 430.701 60.5 450 60.5C469.299 60.5 486.753 62.6238 499.367 66.0475C505.677 67.7604 510.748 69.7911 514.229 72.0251C517.733 74.2739 519.5 76.6426 519.5 79Z" fill="#0D0D0E" stroke="url(#paint3_linear_39_736)"/>
<path d="M401.511 133H398.667V120.4H403.545C404.805 120.4 405.849 120.796 406.677 121.588C407.523 122.362 407.937 123.37 407.937 124.612C407.937 127.096 405.957 128.86 403.545 128.86H401.511V133ZM401.511 122.83V126.448H403.257C404.283 126.448 405.039 125.71 405.039 124.612C405.039 123.532 404.319 122.83 403.257 122.83H401.511ZM408.04 128.248C408.04 125.44 410.11 123.262 413.17 123.262C414.664 123.262 415.888 123.748 416.842 124.702C417.796 125.656 418.282 126.826 418.282 128.248C418.282 131.056 416.194 133.234 413.152 133.234C410.128 133.234 408.04 131.02 408.04 128.248ZM410.866 128.248C410.866 129.688 411.838 130.714 413.152 130.714C414.466 130.714 415.456 129.688 415.456 128.248C415.456 126.808 414.466 125.782 413.152 125.782C411.838 125.782 410.866 126.808 410.866 128.248ZM419.571 130.084H422.109C422.181 130.732 422.739 131.092 423.657 131.092C424.593 131.092 425.115 130.768 425.115 130.21C425.115 128.5 419.751 130.39 419.751 126.286C419.751 125.44 420.093 124.72 420.795 124.144C421.497 123.55 422.451 123.262 423.657 123.262C425.907 123.262 427.437 124.342 427.563 126.286H425.151C425.061 125.692 424.539 125.314 423.657 125.314C422.811 125.314 422.271 125.656 422.271 126.16C422.271 127.726 427.815 125.854 427.815 130.066C427.815 131.956 426.285 133.234 423.639 133.234C420.975 133.234 419.643 132.046 419.571 130.084ZM430.681 125.674H429.151V123.514H430.051C430.537 123.514 430.825 123.172 430.825 122.668V120.922H433.471V123.496H435.955V125.674H433.471V129.562C433.471 130.282 433.903 130.696 434.695 130.696H435.919V133H433.993C431.905 133 430.681 131.794 430.681 129.706V125.674ZM437.131 128.194C437.131 126.7 437.527 125.494 438.337 124.612C439.147 123.712 440.173 123.262 441.415 123.262C442.783 123.262 443.719 123.946 444.133 124.576H444.277V123.496H447.067V132.892C447.067 135.394 445.501 137.374 442.099 137.374C439.147 137.374 437.671 135.682 437.581 133.864H440.137C440.263 134.638 440.929 135.124 442.099 135.124C443.557 135.124 444.295 134.386 444.295 132.892V131.794H444.151C443.791 132.28 443.017 133.108 441.487 133.108C439.021 133.108 437.131 131.236 437.131 128.194ZM439.957 128.194C439.957 129.652 440.839 130.588 442.153 130.588C443.467 130.588 444.331 129.616 444.331 128.194C444.331 126.7 443.431 125.782 442.135 125.782C440.839 125.782 439.957 126.736 439.957 128.194ZM452.028 133H449.238V123.496H451.866V124.936H452.01C452.388 124.126 453.288 123.424 454.458 123.424H455.376V126.052H454.278C452.91 126.052 452.028 127.042 452.028 128.68V133ZM456.045 128.302C456.045 126.808 456.495 125.602 457.395 124.666C458.313 123.73 459.483 123.262 460.923 123.262C464.055 123.262 465.693 125.566 465.693 128.212V129.022H458.691C458.781 130.246 459.681 131.092 460.977 131.092C462.039 131.092 462.795 130.606 463.083 129.958H465.603C465.171 131.974 463.407 133.234 460.869 133.234C458.187 133.288 455.991 131.11 456.045 128.302ZM458.745 127.168H463.101C463.011 126.142 462.147 125.386 460.923 125.386C459.771 125.386 458.871 126.178 458.745 127.168ZM466.997 130.084H469.535C469.607 130.732 470.165 131.092 471.083 131.092C472.019 131.092 472.541 130.768 472.541 130.21C472.541 128.5 467.177 130.39 467.177 126.286C467.177 125.44 467.519 124.72 468.221 124.144C468.923 123.55 469.877 123.262 471.083 123.262C473.333 123.262 474.863 124.342 474.989 126.286H472.577C472.487 125.692 471.965 125.314 471.083 125.314C470.237 125.314 469.697 125.656 469.697 126.16C469.697 127.726 475.241 125.854 475.241 130.066C475.241 131.956 473.711 133.234 471.065 133.234C468.401 133.234 467.069 132.046 466.997 130.084ZM479.889 133H477.153V120.4H480.663L484.065 128.95H484.173L487.161 120.4H490.689V133H487.935V125.872H487.827L485.199 133H482.913L479.997 125.584H479.889V133ZM500.925 133H493.149V120.4H495.993V130.462H500.925V133ZM408.323 159H404.163V145H408.323C412.743 145 415.343 147.9 415.343 152C415.343 154.18 414.723 155.88 413.483 157.14C412.263 158.38 410.543 159 408.323 159ZM405.783 146.46V157.56H408.323C411.663 157.56 413.683 155.5 413.683 152C413.683 150.3 413.203 148.94 412.243 147.96C411.303 146.96 409.983 146.46 408.323 146.46H405.783ZM416.903 153.82C416.903 152.22 417.383 150.9 418.323 149.88C419.283 148.86 420.503 148.34 421.963 148.34C422.983 148.34 423.923 148.66 424.503 149.12C425.083 149.58 425.403 149.94 425.623 150.28H425.743V148.6H427.323V159H425.803V157.36H425.683C424.803 158.62 423.603 159.26 422.083 159.26C420.563 159.26 419.323 158.76 418.343 157.74C417.383 156.72 416.903 155.42 416.903 153.82ZM418.523 153.82C418.523 155.04 418.863 156.02 419.523 156.76C420.203 157.48 421.083 157.84 422.183 157.84C423.283 157.84 424.143 157.46 424.803 156.68C425.463 155.9 425.803 154.96 425.803 153.82C425.803 152.58 425.463 151.6 424.763 150.88C424.083 150.14 423.203 149.78 422.143 149.78C421.083 149.78 420.203 150.16 419.523 150.92C418.863 151.66 418.523 152.64 418.523 153.82ZM431.25 149.94H429.29V148.6H430.85C431.15 148.6 431.35 148.4 431.35 148.08V145.58H432.83V148.6H436.03V149.94H432.83V155.84C432.83 157.02 433.27 157.62 434.45 157.62H435.89V159H434.35C432.37 159 431.25 157.92 431.25 155.86V149.94ZM437.585 153.82C437.585 152.22 438.065 150.9 439.005 149.88C439.965 148.86 441.185 148.34 442.645 148.34C443.665 148.34 444.605 148.66 445.185 149.12C445.765 149.58 446.085 149.94 446.305 150.28H446.425V148.6H448.005V159H446.485V157.36H446.365C445.485 158.62 444.285 159.26 442.765 159.26C441.245 159.26 440.005 158.76 439.025 157.74C438.065 156.72 437.585 155.42 437.585 153.82ZM439.205 153.82C439.205 155.04 439.545 156.02 440.205 156.76C440.885 157.48 441.765 157.84 442.865 157.84C443.965 157.84 444.825 157.46 445.485 156.68C446.145 155.9 446.485 154.96 446.485 153.82C446.485 152.58 446.145 151.6 445.445 150.88C444.765 150.14 443.885 149.78 442.825 149.78C441.765 149.78 440.885 150.16 440.205 150.92C439.545 151.66 439.205 152.64 439.205 153.82ZM452.493 159H450.973V144H452.553V150.28H452.673C452.893 149.94 453.193 149.58 453.773 149.12C454.393 148.66 455.313 148.34 456.333 148.34C457.793 148.34 459.013 148.86 459.953 149.88C460.913 150.9 461.393 152.22 461.393 153.82C461.393 155.42 460.913 156.72 459.933 157.74C458.973 158.76 457.733 159.26 456.213 159.26C455.353 159.26 454.533 158.98 454.053 158.72C453.813 158.58 453.573 158.4 453.333 158.2C452.873 157.78 452.773 157.6 452.613 157.36H452.493V159ZM452.493 153.82C452.493 154.96 452.813 155.9 453.473 156.68C454.133 157.46 455.013 157.84 456.113 157.84C457.213 157.84 458.093 157.48 458.753 156.76C459.433 156.02 459.773 155.04 459.773 153.82C459.773 152.64 459.433 151.66 458.753 150.92C458.093 150.16 457.213 149.78 456.153 149.78C455.093 149.78 454.233 150.14 453.533 150.88C452.833 151.6 452.493 152.58 452.493 153.82ZM462.955 153.82C462.955 152.22 463.435 150.9 464.375 149.88C465.335 148.86 466.555 148.34 468.015 148.34C469.035 148.34 469.975 148.66 470.555 149.12C471.135 149.58 471.455 149.94 471.675 150.28H471.795V148.6H473.375V159H471.855V157.36H471.735C470.855 158.62 469.655 159.26 468.135 159.26C466.615 159.26 465.375 158.76 464.395 157.74C463.435 156.72 462.955 155.42 462.955 153.82ZM464.575 153.82C464.575 155.04 464.915 156.02 465.575 156.76C466.255 157.48 467.135 157.84 468.235 157.84C469.335 157.84 470.195 157.46 470.855 156.68C471.515 155.9 471.855 154.96 471.855 153.82C471.855 152.58 471.515 151.6 470.815 150.88C470.135 150.14 469.255 149.78 468.195 149.78C467.135 149.78 466.255 150.16 465.575 150.92C464.915 151.66 464.575 152.64 464.575 153.82ZM475.743 155.98H477.283C477.463 157.24 478.343 157.88 479.863 157.88C481.383 157.88 482.283 157.16 482.283 156.06C482.283 153.16 476.063 155.34 476.063 151.24C476.063 150.36 476.423 149.66 477.123 149.14C477.823 148.6 478.723 148.34 479.823 148.34C480.803 148.34 481.643 148.62 482.343 149.16C483.043 149.7 483.423 150.42 483.503 151.34H481.983C481.843 150.32 481.063 149.7 479.723 149.7C478.423 149.7 477.583 150.34 477.583 151.24C477.583 153.88 483.823 151.7 483.823 155.98C483.823 156.96 483.443 157.76 482.703 158.36C481.963 158.96 481.003 159.26 479.783 159.26C477.383 159.26 475.923 157.98 475.743 155.98ZM485.689 153.8C485.689 150.48 487.969 148.34 490.789 148.34C493.889 148.32 495.889 150.7 495.829 153.66V154.36H487.349C487.429 156.46 488.769 157.82 490.909 157.82C492.349 157.82 493.629 157.14 494.089 155.94H495.729C495.149 157.92 493.289 159.26 490.889 159.26C487.729 159.26 485.689 156.92 485.689 153.8ZM487.389 152.96H494.149C494.009 150.96 492.629 149.78 490.789 149.78C489.889 149.78 489.129 150.08 488.469 150.66C487.829 151.24 487.469 152.02 487.389 152.96Z" fill="white"/>
<path d="M199.5 169C199.5 171.357 197.733 173.726 194.229 175.975C190.748 178.209 185.677 180.24 179.367 181.952C166.753 185.376 149.299 187.5 130 187.5C110.701 187.5 93.2473 185.376 80.6335 181.952C74.323 180.24 69.2523 178.209 65.771 175.975C62.2667 173.726 60.5 171.357 60.5 169V79.5H199.5V169Z" fill="#0D0D0E" stroke="url(#paint4_linear_39_736)"/>
<path d="M199.5 79C199.5 81.3574 197.733 83.7261 194.229 85.9749C190.748 88.2089 185.677 90.2396 179.367 91.9525C166.753 95.3762 149.299 97.5 130 97.5C110.701 97.5 93.2473 95.3762 80.6335 91.9525C74.323 90.2396 69.2523 88.2089 65.771 85.9749C62.2667 83.7261 60.5 81.3574 60.5 79C60.5 76.6426 62.2667 74.2739 65.771 72.0251C69.2523 69.7911 74.323 67.7604 80.6335 66.0475C93.2473 62.6238 110.701 60.5 130 60.5C149.299 60.5 166.753 62.6238 179.367 66.0475C185.677 67.7604 190.748 69.7911 194.229 72.0251C197.733 74.2739 199.5 76.6426 199.5 79Z" fill="#0D0D0E" stroke="url(#paint5_linear_39_736)"/>
<path d="M84.3497 133H81.5057V120.4H86.3837C87.6437 120.4 88.6877 120.796 89.5157 121.588C90.3617 122.362 90.7757 123.37 90.7757 124.612C90.7757 127.096 88.7957 128.86 86.3837 128.86H84.3497V133ZM84.3497 122.83V126.448H86.0957C87.1217 126.448 87.8777 125.71 87.8777 124.612C87.8777 123.532 87.1577 122.83 86.0957 122.83H84.3497ZM95.228 133H92.438V123.496H95.066V124.936H95.21C95.588 124.126 96.488 123.424 97.658 123.424H98.576V126.052H97.478C96.11 126.052 95.228 127.042 95.228 128.68V133ZM99.2457 128.248C99.2457 125.44 101.316 123.262 104.376 123.262C105.87 123.262 107.094 123.748 108.048 124.702C109.002 125.656 109.488 126.826 109.488 128.248C109.488 131.056 107.4 133.234 104.358 133.234C101.334 133.234 99.2457 131.02 99.2457 128.248ZM102.072 128.248C102.072 129.688 103.044 130.714 104.358 130.714C105.672 130.714 106.662 129.688 106.662 128.248C106.662 126.808 105.672 125.782 104.358 125.782C103.044 125.782 102.072 126.808 102.072 128.248ZM110.777 128.302C110.777 126.808 111.173 125.584 111.965 124.666C112.775 123.73 113.819 123.262 115.097 123.262C116.411 123.262 117.347 123.91 117.779 124.576H117.923V119.5H120.713V133H117.941V131.92H117.797C117.509 132.37 116.735 133.234 115.169 133.234C113.855 133.234 112.793 132.784 111.983 131.884C111.173 130.984 110.777 129.796 110.777 128.302ZM113.603 128.248C113.603 129.706 114.485 130.714 115.799 130.714C117.113 130.714 117.977 129.67 117.977 128.248C117.977 126.754 117.077 125.782 115.781 125.782C114.485 125.782 113.603 126.79 113.603 128.248ZM122.706 129.832V123.496H125.496V128.968C125.496 129.976 126.09 130.642 127.026 130.642C127.98 130.642 128.646 129.85 128.646 128.824V123.496H131.436V133H128.79V131.956H128.646C128.232 132.658 127.314 133.234 126.108 133.234C125.082 133.234 124.254 132.928 123.624 132.298C123.012 131.668 122.706 130.84 122.706 129.832ZM133.084 128.248C133.03 125.476 135.1 123.244 138.106 123.262C139.42 123.262 140.5 123.622 141.382 124.36C142.264 125.08 142.786 126.016 142.912 127.186H140.086C139.816 126.34 139.078 125.782 138.124 125.782C136.774 125.782 135.91 126.826 135.91 128.248C135.91 129.67 136.792 130.714 138.142 130.714C139.06 130.714 139.816 130.192 140.05 129.418H142.894C142.732 130.552 142.228 131.488 141.364 132.19C140.5 132.892 139.42 133.234 138.124 133.234C135.118 133.27 133.03 130.984 133.084 128.248ZM145.776 125.674H144.246V123.514H145.146C145.632 123.514 145.92 123.172 145.92 122.668V120.922H148.566V123.496H151.05V125.674H148.566V129.562C148.566 130.282 148.998 130.696 149.79 130.696H151.014V133H149.088C147 133 145.776 131.794 145.776 129.706V125.674ZM152.964 122.02C152.658 121.75 152.514 121.372 152.514 120.922C152.514 120.472 152.658 120.094 152.964 119.824C153.27 119.554 153.666 119.41 154.152 119.41C154.638 119.41 155.034 119.554 155.34 119.824C155.646 120.094 155.79 120.472 155.79 120.94C155.79 121.39 155.646 121.768 155.34 122.038C155.034 122.308 154.638 122.434 154.152 122.434C153.666 122.434 153.27 122.29 152.964 122.02ZM155.556 133H152.766V123.496H155.556V133ZM157.06 128.248C157.06 125.44 159.13 123.262 162.19 123.262C163.684 123.262 164.908 123.748 165.862 124.702C166.816 125.656 167.302 126.826 167.302 128.248C167.302 131.056 165.214 133.234 162.172 133.234C159.148 133.234 157.06 131.02 157.06 128.248ZM159.886 128.248C159.886 129.688 160.858 130.714 162.172 130.714C163.486 130.714 164.476 129.688 164.476 128.248C164.476 126.808 163.486 125.782 162.172 125.782C160.858 125.782 159.886 126.808 159.886 128.248ZM171.921 133H169.131V123.496H171.759V124.54H171.903C172.317 123.82 173.253 123.262 174.459 123.262C175.485 123.262 176.313 123.586 176.925 124.216C177.555 124.846 177.861 125.656 177.861 126.664V133H175.071V127.528C175.071 126.52 174.477 125.854 173.541 125.854C172.587 125.854 171.921 126.646 171.921 127.672V133ZM88.323 159H84.163V145H88.323C92.743 145 95.343 147.9 95.343 152C95.343 154.18 94.723 155.88 93.483 157.14C92.263 158.38 90.543 159 88.323 159ZM85.783 146.46V157.56H88.323C91.663 157.56 93.683 155.5 93.683 152C93.683 150.3 93.203 148.94 92.243 147.96C91.303 146.96 89.983 146.46 88.323 146.46H85.783ZM96.9027 153.82C96.9027 152.22 97.3827 150.9 98.3227 149.88C99.2827 148.86 100.503 148.34 101.963 148.34C102.983 148.34 103.923 148.66 104.503 149.12C105.083 149.58 105.403 149.94 105.623 150.28H105.743V148.6H107.323V159H105.803V157.36H105.683C104.803 158.62 103.603 159.26 102.083 159.26C100.563 159.26 99.3227 158.76 98.3427 157.74C97.3827 156.72 96.9027 155.42 96.9027 153.82ZM98.5227 153.82C98.5227 155.04 98.8627 156.02 99.5227 156.76C100.203 157.48 101.083 157.84 102.183 157.84C103.283 157.84 104.143 157.46 104.803 156.68C105.463 155.9 105.803 154.96 105.803 153.82C105.803 152.58 105.463 151.6 104.763 150.88C104.083 150.14 103.203 149.78 102.143 149.78C101.083 149.78 100.203 150.16 99.5227 150.92C98.8627 151.66 98.5227 152.64 98.5227 153.82ZM111.25 149.94H109.29V148.6H110.85C111.15 148.6 111.35 148.4 111.35 148.08V145.58H112.83V148.6H116.03V149.94H112.83V155.84C112.83 157.02 113.27 157.62 114.45 157.62H115.89V159H114.35C112.37 159 111.25 157.92 111.25 155.86V149.94ZM117.585 153.82C117.585 152.22 118.065 150.9 119.005 149.88C119.965 148.86 121.185 148.34 122.645 148.34C123.665 148.34 124.605 148.66 125.185 149.12C125.765 149.58 126.085 149.94 126.305 150.28H126.425V148.6H128.005V159H126.485V157.36H126.365C125.485 158.62 124.285 159.26 122.765 159.26C121.245 159.26 120.005 158.76 119.025 157.74C118.065 156.72 117.585 155.42 117.585 153.82ZM119.205 153.82C119.205 155.04 119.545 156.02 120.205 156.76C120.885 157.48 121.765 157.84 122.865 157.84C123.965 157.84 124.825 157.46 125.485 156.68C126.145 155.9 126.485 154.96 126.485 153.82C126.485 152.58 126.145 151.6 125.445 150.88C124.765 150.14 123.885 149.78 122.825 149.78C121.765 149.78 120.885 150.16 120.205 150.92C119.545 151.66 119.205 152.64 119.205 153.82ZM132.493 159H130.973V144H132.553V150.28H132.673C132.893 149.94 133.193 149.58 133.773 149.12C134.393 148.66 135.313 148.34 136.333 148.34C137.793 148.34 139.013 148.86 139.953 149.88C140.913 150.9 141.393 152.22 141.393 153.82C141.393 155.42 140.913 156.72 139.933 157.74C138.973 158.76 137.733 159.26 136.213 159.26C135.353 159.26 134.533 158.98 134.053 158.72C133.813 158.58 133.573 158.4 133.333 158.2C132.873 157.78 132.773 157.6 132.613 157.36H132.493V159ZM132.493 153.82C132.493 154.96 132.813 155.9 133.473 156.68C134.133 157.46 135.013 157.84 136.113 157.84C137.213 157.84 138.093 157.48 138.753 156.76C139.433 156.02 139.773 155.04 139.773 153.82C139.773 152.64 139.433 151.66 138.753 150.92C138.093 150.16 137.213 149.78 136.153 149.78C135.093 149.78 134.233 150.14 133.533 150.88C132.833 151.6 132.493 152.58 132.493 153.82ZM142.955 153.82C142.955 152.22 143.435 150.9 144.375 149.88C145.335 148.86 146.555 148.34 148.015 148.34C149.035 148.34 149.975 148.66 150.555 149.12C151.135 149.58 151.455 149.94 151.675 150.28H151.795V148.6H153.375V159H151.855V157.36H151.735C150.855 158.62 149.655 159.26 148.135 159.26C146.615 159.26 145.375 158.76 144.395 157.74C143.435 156.72 142.955 155.42 142.955 153.82ZM144.575 153.82C144.575 155.04 144.915 156.02 145.575 156.76C146.255 157.48 147.135 157.84 148.235 157.84C149.335 157.84 150.195 157.46 150.855 156.68C151.515 155.9 151.855 154.96 151.855 153.82C151.855 152.58 151.515 151.6 150.815 150.88C150.135 150.14 149.255 149.78 148.195 149.78C147.135 149.78 146.255 150.16 145.575 150.92C144.915 151.66 144.575 152.64 144.575 153.82ZM155.743 155.98H157.283C157.463 157.24 158.343 157.88 159.863 157.88C161.383 157.88 162.283 157.16 162.283 156.06C162.283 153.16 156.063 155.34 156.063 151.24C156.063 150.36 156.423 149.66 157.123 149.14C157.823 148.6 158.723 148.34 159.823 148.34C160.803 148.34 161.643 148.62 162.343 149.16C163.043 149.7 163.423 150.42 163.503 151.34H161.983C161.843 150.32 161.063 149.7 159.723 149.7C158.423 149.7 157.583 150.34 157.583 151.24C157.583 153.88 163.823 151.7 163.823 155.98C163.823 156.96 163.443 157.76 162.703 158.36C161.963 158.96 161.003 159.26 159.783 159.26C157.383 159.26 155.923 157.98 155.743 155.98ZM165.689 153.8C165.689 150.48 167.969 148.34 170.789 148.34C173.889 148.32 175.889 150.7 175.829 153.66V154.36H167.349C167.429 156.46 168.769 157.82 170.909 157.82C172.349 157.82 173.629 157.14 174.089 155.94H175.729C175.149 157.92 173.289 159.26 170.889 159.26C167.729 159.26 165.689 156.92 165.689 153.8ZM167.389 152.96H174.149C174.009 150.96 172.629 149.78 170.789 149.78C169.889 149.78 169.129 150.08 168.469 150.66C167.829 151.24 167.469 152.02 167.389 152.96Z" fill="white"/>
<defs>
<filter id="filter0_f_39_736" x="369" y="113" width="22" height="22" filterUnits="userSpaceOnUse" color-interpolation-filters="sRGB">
<feFlood flood-opacity="0" result="BackgroundImageFix"/>
<feBlend mode="normal" in="SourceGraphic" in2="BackgroundImageFix" result="shape"/>
<feGaussianBlur stdDeviation="2" result="effect1_foregroundBlur_39_736"/>
</filter>
<linearGradient id="paint0_linear_39_736" x1="380" y1="123.5" x2="200" y2="123.5" gradientUnits="userSpaceOnUse">
<stop stop-color="#6B4AFF"/>
<stop offset="1" stop-color="#3FCFFF"/>
</linearGradient>
<linearGradient id="paint1_linear_39_736" x1="232.5" y1="114" x2="261.87" y2="37.2373" gradientUnits="userSpaceOnUse">
<stop stop-color="#5337FF"/>
<stop offset="1" stop-color="#A175FF"/>
</linearGradient>
<linearGradient id="paint2_linear_39_736" x1="380" y1="188" x2="485.673" y2="52.2737" gradientUnits="userSpaceOnUse">
<stop stop-color="#5337FF"/>
<stop offset="1" stop-color="#A175FF"/>
</linearGradient>
<linearGradient id="paint3_linear_39_736" x1="380" y1="98" x2="399.213" y2="27.215" gradientUnits="userSpaceOnUse">
<stop stop-color="#5337FF"/>
<stop offset="1" stop-color="#A175FF"/>
</linearGradient>
<linearGradient id="paint4_linear_39_736" x1="200" y1="79" x2="94.3274" y2="214.726" gradientUnits="userSpaceOnUse">
<stop stop-color="#3EDCFF"/>
<stop offset="1" stop-color="#3E9AFF"/>
</linearGradient>
<linearGradient id="paint5_linear_39_736" x1="200" y1="60" x2="180.787" y2="130.785" gradientUnits="userSpaceOnUse">
<stop stop-color="#3EDCFF"/>
<stop offset="1" stop-color="#3E9AFF"/>
</linearGradient>
</defs>
</svg>
