<svg width="580" height="248" viewBox="0 0 580 248" fill="none" xmlns="http://www.w3.org/2000/svg">
<rect width="580" height="248" rx="40" fill="#0D0D0E"/>
<path d="M380 124H200" stroke="url(#paint0_linear_39_902)"/>
<g filter="url(#filter0_f_39_902)">
<circle cx="200" cy="124" r="7" fill="#3FCFFF"/>
</g>
<rect x="238.5" y="84.5" width="103" height="29" rx="11.5" fill="url(#paint1_linear_39_902)" fill-opacity="0.1"/>
<rect x="238.5" y="84.5" width="103" height="29" rx="11.5" stroke="#2F3033"/>
<path d="M250.031 96.4545V97.3068H246.502V96.4545H250.031ZM247.559 103V95.5511C247.559 95.1761 247.647 94.8636 247.823 94.6136C247.999 94.3636 248.228 94.1761 248.509 94.0511C248.79 93.9261 249.087 93.8636 249.4 93.8636C249.647 93.8636 249.849 93.8835 250.005 93.9233C250.161 93.9631 250.278 94 250.354 94.0341L250.065 94.9034C250.013 94.8864 249.942 94.8651 249.852 94.8395C249.763 94.8139 249.647 94.8011 249.502 94.8011C249.17 94.8011 248.93 94.8849 248.782 95.0526C248.637 95.2202 248.565 95.4659 248.565 95.7898V103H247.559ZM253.642 103.136C253.097 103.136 252.615 102.999 252.197 102.723C251.78 102.445 251.453 102.053 251.217 101.547C250.982 101.038 250.864 100.438 250.864 99.7443C250.864 99.0568 250.982 98.4602 251.217 97.9545C251.453 97.4489 251.781 97.0582 252.202 96.7827C252.622 96.5071 253.108 96.3693 253.659 96.3693C254.085 96.3693 254.422 96.4403 254.669 96.5824C254.919 96.7216 255.109 96.8807 255.24 97.0597C255.374 97.2358 255.477 97.3807 255.551 97.4943H255.636V94.2727H256.642V103H255.67V101.994H255.551C255.477 102.114 255.372 102.264 255.236 102.446C255.099 102.625 254.905 102.786 254.652 102.928C254.399 103.067 254.063 103.136 253.642 103.136ZM253.778 102.233C254.182 102.233 254.523 102.128 254.801 101.918C255.08 101.705 255.291 101.411 255.436 101.036C255.581 100.658 255.653 100.222 255.653 99.7273C255.653 99.2386 255.582 98.8111 255.44 98.4446C255.298 98.0753 255.088 97.7884 254.81 97.5838C254.531 97.3764 254.188 97.2727 253.778 97.2727C253.352 97.2727 252.997 97.3821 252.713 97.6009C252.432 97.8168 252.22 98.1108 252.078 98.483C251.939 98.8523 251.869 99.267 251.869 99.7273C251.869 100.193 251.94 100.616 252.082 100.997C252.227 101.375 252.44 101.676 252.722 101.901C253.006 102.122 253.358 102.233 253.778 102.233ZM260.107 103L258.112 96.4545H259.169L260.584 101.466H260.652L262.05 96.4545H263.124L264.504 101.449H264.572L265.987 96.4545H267.044L265.05 103H264.061L262.629 97.9716H262.527L261.095 103H260.107ZM274.408 103.136C273.794 103.136 273.266 102.991 272.822 102.702C272.379 102.412 272.038 102.013 271.8 101.504C271.561 100.996 271.442 100.415 271.442 99.7614C271.442 99.0966 271.564 98.5099 271.808 98.0014C272.055 97.4901 272.399 97.0909 272.839 96.804C273.283 96.5142 273.8 96.3693 274.391 96.3693C274.851 96.3693 275.266 96.4545 275.635 96.625C276.004 96.7955 276.307 97.0341 276.543 97.3409C276.778 97.6477 276.925 98.0057 276.982 98.4148H275.976C275.899 98.1165 275.729 97.8523 275.464 97.6222C275.203 97.3892 274.851 97.2727 274.408 97.2727C274.016 97.2727 273.672 97.375 273.376 97.5795C273.084 97.7812 272.855 98.0668 272.69 98.4361C272.528 98.8026 272.447 99.233 272.447 99.7273C272.447 100.233 272.527 100.673 272.686 101.048C272.848 101.423 273.075 101.714 273.368 101.922C273.663 102.129 274.01 102.233 274.408 102.233C274.669 102.233 274.906 102.188 275.119 102.097C275.332 102.006 275.513 101.875 275.661 101.705C275.808 101.534 275.913 101.33 275.976 101.091H276.982C276.925 101.477 276.784 101.825 276.56 102.135C276.338 102.442 276.044 102.686 275.678 102.868C275.314 103.047 274.891 103.136 274.408 103.136ZM281.111 103.136C280.52 103.136 280.001 102.996 279.555 102.714C279.112 102.433 278.766 102.04 278.516 101.534C278.268 101.028 278.145 100.437 278.145 99.7614C278.145 99.0795 278.268 98.4844 278.516 97.9759C278.766 97.4673 279.112 97.0724 279.555 96.7912C280.001 96.5099 280.52 96.3693 281.111 96.3693C281.702 96.3693 282.219 96.5099 282.662 96.7912C283.108 97.0724 283.455 97.4673 283.702 97.9759C283.952 98.4844 284.077 99.0795 284.077 99.7614C284.077 100.437 283.952 101.028 283.702 101.534C283.455 102.04 283.108 102.433 282.662 102.714C282.219 102.996 281.702 103.136 281.111 103.136ZM281.111 102.233C281.56 102.233 281.929 102.118 282.219 101.888C282.509 101.658 282.723 101.355 282.862 100.98C283.001 100.605 283.071 100.199 283.071 99.7614C283.071 99.3239 283.001 98.9162 282.862 98.5384C282.723 98.1605 282.509 97.8551 282.219 97.6222C281.929 97.3892 281.56 97.2727 281.111 97.2727C280.662 97.2727 280.293 97.3892 280.003 97.6222C279.713 97.8551 279.499 98.1605 279.359 98.5384C279.22 98.9162 279.151 99.3239 279.151 99.7614C279.151 100.199 279.22 100.605 279.359 100.98C279.499 101.355 279.713 101.658 280.003 101.888C280.293 102.118 280.662 102.233 281.111 102.233ZM286.618 99.0625V103H285.612V96.4545H286.583V97.4773H286.669C286.822 97.1449 287.055 96.8778 287.368 96.6761C287.68 96.4716 288.083 96.3693 288.578 96.3693C289.021 96.3693 289.409 96.4602 289.741 96.642C290.074 96.821 290.332 97.0938 290.517 97.4602C290.701 97.8239 290.794 98.2841 290.794 98.8409V103H289.788V98.9091C289.788 98.3949 289.654 97.9943 289.387 97.7074C289.12 97.4176 288.754 97.2727 288.288 97.2727C287.967 97.2727 287.68 97.3423 287.427 97.4815C287.177 97.6207 286.98 97.8239 286.835 98.0909C286.69 98.358 286.618 98.6818 286.618 99.0625ZM293.637 99.0625V103H292.631V96.4545H293.603V97.4773H293.688C293.842 97.1449 294.075 96.8778 294.387 96.6761C294.7 96.4716 295.103 96.3693 295.597 96.3693C296.04 96.3693 296.428 96.4602 296.761 96.642C297.093 96.821 297.352 97.0938 297.536 97.4602C297.721 97.8239 297.813 98.2841 297.813 98.8409V103H296.808V98.9091C296.808 98.3949 296.674 97.9943 296.407 97.7074C296.14 97.4176 295.773 97.2727 295.308 97.2727C294.987 97.2727 294.7 97.3423 294.447 97.4815C294.197 97.6207 293.999 97.8239 293.854 98.0909C293.71 98.358 293.637 98.6818 293.637 99.0625ZM302.395 103.136C301.765 103.136 301.221 102.997 300.763 102.719C300.309 102.438 299.958 102.045 299.711 101.543C299.466 101.037 299.344 100.449 299.344 99.7784C299.344 99.108 299.466 98.517 299.711 98.0057C299.958 97.4915 300.301 97.0909 300.742 96.804C301.185 96.5142 301.702 96.3693 302.293 96.3693C302.634 96.3693 302.971 96.4261 303.303 96.5398C303.635 96.6534 303.938 96.8381 304.211 97.0938C304.483 97.3466 304.701 97.6818 304.863 98.0994C305.025 98.517 305.105 99.0312 305.105 99.642V100.068H300.06V99.1989H304.083C304.083 98.8295 304.009 98.5 303.861 98.2102C303.716 97.9205 303.509 97.6918 303.239 97.5241C302.972 97.3565 302.657 97.2727 302.293 97.2727C301.892 97.2727 301.546 97.3722 301.253 97.571C300.963 97.767 300.74 98.0227 300.584 98.3381C300.428 98.6534 300.35 98.9915 300.35 99.3523V99.9318C300.35 100.426 300.435 100.845 300.605 101.189C300.779 101.53 301.019 101.79 301.326 101.969C301.632 102.145 301.989 102.233 302.395 102.233C302.659 102.233 302.898 102.196 303.111 102.122C303.327 102.045 303.513 101.932 303.669 101.781C303.826 101.628 303.946 101.437 304.032 101.21L305.003 101.483C304.901 101.812 304.729 102.102 304.488 102.352C304.246 102.599 303.948 102.793 303.593 102.932C303.238 103.068 302.838 103.136 302.395 103.136ZM309.294 103.136C308.681 103.136 308.152 102.991 307.709 102.702C307.266 102.412 306.925 102.013 306.686 101.504C306.448 100.996 306.328 100.415 306.328 99.7614C306.328 99.0966 306.451 98.5099 306.695 98.0014C306.942 97.4901 307.286 97.0909 307.726 96.804C308.169 96.5142 308.686 96.3693 309.277 96.3693C309.738 96.3693 310.152 96.4545 310.522 96.625C310.891 96.7955 311.194 97.0341 311.429 97.3409C311.665 97.6477 311.811 98.0057 311.868 98.4148H310.863C310.786 98.1165 310.615 97.8523 310.351 97.6222C310.09 97.3892 309.738 97.2727 309.294 97.2727C308.902 97.2727 308.559 97.375 308.263 97.5795C307.971 97.7812 307.742 98.0668 307.577 98.4361C307.415 98.8026 307.334 99.233 307.334 99.7273C307.334 100.233 307.414 100.673 307.573 101.048C307.735 101.423 307.962 101.714 308.255 101.922C308.55 102.129 308.897 102.233 309.294 102.233C309.556 102.233 309.793 102.188 310.006 102.097C310.219 102.006 310.4 101.875 310.547 101.705C310.695 101.534 310.8 101.33 310.863 101.091H311.868C311.811 101.477 311.671 101.825 311.446 102.135C311.225 102.442 310.931 102.686 310.564 102.868C310.201 103.047 309.777 103.136 309.294 103.136ZM316.185 96.4545V97.3068H312.793V96.4545H316.185ZM313.782 94.8864H314.787V101.125C314.787 101.409 314.828 101.622 314.911 101.764C314.996 101.903 315.104 101.997 315.235 102.045C315.368 102.091 315.509 102.114 315.657 102.114C315.767 102.114 315.858 102.108 315.929 102.097C316 102.082 316.057 102.071 316.1 102.062L316.304 102.966C316.236 102.991 316.141 103.017 316.019 103.043C315.897 103.071 315.742 103.085 315.554 103.085C315.27 103.085 314.992 103.024 314.719 102.902C314.449 102.78 314.225 102.594 314.046 102.344C313.87 102.094 313.782 101.778 313.782 101.398V94.8864ZM317.698 103V96.4545H318.703V103H317.698ZM318.209 95.3636C318.013 95.3636 317.844 95.2969 317.702 95.1634C317.563 95.0298 317.493 94.8693 317.493 94.6818C317.493 94.4943 317.563 94.3338 317.702 94.2003C317.844 94.0668 318.013 94 318.209 94C318.405 94 318.573 94.0668 318.712 94.2003C318.854 94.3338 318.925 94.4943 318.925 94.6818C318.925 94.8693 318.854 95.0298 318.712 95.1634C318.573 95.2969 318.405 95.3636 318.209 95.3636ZM323.205 103.136C322.614 103.136 322.095 102.996 321.649 102.714C321.206 102.433 320.859 102.04 320.609 101.534C320.362 101.028 320.239 100.437 320.239 99.7614C320.239 99.0795 320.362 98.4844 320.609 97.9759C320.859 97.4673 321.206 97.0724 321.649 96.7912C322.095 96.5099 322.614 96.3693 323.205 96.3693C323.795 96.3693 324.313 96.5099 324.756 96.7912C325.202 97.0724 325.548 97.4673 325.795 97.9759C326.045 98.4844 326.17 99.0795 326.17 99.7614C326.17 100.437 326.045 101.028 325.795 101.534C325.548 102.04 325.202 102.433 324.756 102.714C324.313 102.996 323.795 103.136 323.205 103.136ZM323.205 102.233C323.653 102.233 324.023 102.118 324.312 101.888C324.602 101.658 324.817 101.355 324.956 100.98C325.095 100.605 325.165 100.199 325.165 99.7614C325.165 99.3239 325.095 98.9162 324.956 98.5384C324.817 98.1605 324.602 97.8551 324.312 97.6222C324.023 97.3892 323.653 97.2727 323.205 97.2727C322.756 97.2727 322.386 97.3892 322.097 97.6222C321.807 97.8551 321.592 98.1605 321.453 98.5384C321.314 98.9162 321.244 99.3239 321.244 99.7614C321.244 100.199 321.314 100.605 321.453 100.98C321.592 101.355 321.807 101.658 322.097 101.888C322.386 102.118 322.756 102.233 323.205 102.233ZM328.711 99.0625V103H327.706V96.4545H328.677V97.4773H328.762C328.916 97.1449 329.149 96.8778 329.461 96.6761C329.774 96.4716 330.177 96.3693 330.672 96.3693C331.115 96.3693 331.502 96.4602 331.835 96.642C332.167 96.821 332.426 97.0938 332.61 97.4602C332.795 97.8239 332.887 98.2841 332.887 98.8409V103H331.882V98.9091C331.882 98.3949 331.748 97.9943 331.481 97.7074C331.214 97.4176 330.848 97.2727 330.382 97.2727C330.061 97.2727 329.774 97.3423 329.521 97.4815C329.271 97.6207 329.074 97.8239 328.929 98.0909C328.784 98.358 328.711 98.6818 328.711 99.0625Z" fill="white"/>
<path d="M519.5 169C519.5 171.357 517.733 173.726 514.229 175.975C510.748 178.209 505.677 180.24 499.367 181.952C486.753 185.376 469.299 187.5 450 187.5C430.701 187.5 413.247 185.376 400.634 181.952C394.323 180.24 389.252 178.209 385.771 175.975C382.267 173.726 380.5 171.357 380.5 169V79.5H519.5V169Z" fill="#0D0D0E" stroke="url(#paint2_linear_39_902)"/>
<path d="M519.5 79C519.5 81.3574 517.733 83.7261 514.229 85.9749C510.748 88.2089 505.677 90.2396 499.367 91.9525C486.753 95.3762 469.299 97.5 450 97.5C430.701 97.5 413.247 95.3762 400.634 91.9525C394.323 90.2396 389.252 88.2089 385.771 85.9749C382.267 83.7261 380.5 81.3574 380.5 79C380.5 76.6426 382.267 74.2739 385.771 72.0251C389.252 69.7911 394.323 67.7604 400.634 66.0475C413.247 62.6238 430.701 60.5 450 60.5C469.299 60.5 486.753 62.6238 499.367 66.0475C505.677 67.7604 510.748 69.7911 514.229 72.0251C517.733 74.2739 519.5 76.6426 519.5 79Z" fill="#0D0D0E" stroke="url(#paint3_linear_39_902)"/>
<path d="M401.511 133H398.667V120.4H403.545C404.805 120.4 405.849 120.796 406.677 121.588C407.523 122.362 407.937 123.37 407.937 124.612C407.937 127.096 405.957 128.86 403.545 128.86H401.511V133ZM401.511 122.83V126.448H403.257C404.283 126.448 405.039 125.71 405.039 124.612C405.039 123.532 404.319 122.83 403.257 122.83H401.511ZM408.04 128.248C408.04 125.44 410.11 123.262 413.17 123.262C414.664 123.262 415.888 123.748 416.842 124.702C417.796 125.656 418.282 126.826 418.282 128.248C418.282 131.056 416.194 133.234 413.152 133.234C410.128 133.234 408.04 131.02 408.04 128.248ZM410.866 128.248C410.866 129.688 411.838 130.714 413.152 130.714C414.466 130.714 415.456 129.688 415.456 128.248C415.456 126.808 414.466 125.782 413.152 125.782C411.838 125.782 410.866 126.808 410.866 128.248ZM419.571 130.084H422.109C422.181 130.732 422.739 131.092 423.657 131.092C424.593 131.092 425.115 130.768 425.115 130.21C425.115 128.5 419.751 130.39 419.751 126.286C419.751 125.44 420.093 124.72 420.795 124.144C421.497 123.55 422.451 123.262 423.657 123.262C425.907 123.262 427.437 124.342 427.563 126.286H425.151C425.061 125.692 424.539 125.314 423.657 125.314C422.811 125.314 422.271 125.656 422.271 126.16C422.271 127.726 427.815 125.854 427.815 130.066C427.815 131.956 426.285 133.234 423.639 133.234C420.975 133.234 419.643 132.046 419.571 130.084ZM430.681 125.674H429.151V123.514H430.051C430.537 123.514 430.825 123.172 430.825 122.668V120.922H433.471V123.496H435.955V125.674H433.471V129.562C433.471 130.282 433.903 130.696 434.695 130.696H435.919V133H433.993C431.905 133 430.681 131.794 430.681 129.706V125.674ZM437.131 128.194C437.131 126.7 437.527 125.494 438.337 124.612C439.147 123.712 440.173 123.262 441.415 123.262C442.783 123.262 443.719 123.946 444.133 124.576H444.277V123.496H447.067V132.892C447.067 135.394 445.501 137.374 442.099 137.374C439.147 137.374 437.671 135.682 437.581 133.864H440.137C440.263 134.638 440.929 135.124 442.099 135.124C443.557 135.124 444.295 134.386 444.295 132.892V131.794H444.151C443.791 132.28 443.017 133.108 441.487 133.108C439.021 133.108 437.131 131.236 437.131 128.194ZM439.957 128.194C439.957 129.652 440.839 130.588 442.153 130.588C443.467 130.588 444.331 129.616 444.331 128.194C444.331 126.7 443.431 125.782 442.135 125.782C440.839 125.782 439.957 126.736 439.957 128.194ZM452.028 133H449.238V123.496H451.866V124.936H452.01C452.388 124.126 453.288 123.424 454.458 123.424H455.376V126.052H454.278C452.91 126.052 452.028 127.042 452.028 128.68V133ZM456.045 128.302C456.045 126.808 456.495 125.602 457.395 124.666C458.313 123.73 459.483 123.262 460.923 123.262C464.055 123.262 465.693 125.566 465.693 128.212V129.022H458.691C458.781 130.246 459.681 131.092 460.977 131.092C462.039 131.092 462.795 130.606 463.083 129.958H465.603C465.171 131.974 463.407 133.234 460.869 133.234C458.187 133.288 455.991 131.11 456.045 128.302ZM458.745 127.168H463.101C463.011 126.142 462.147 125.386 460.923 125.386C459.771 125.386 458.871 126.178 458.745 127.168ZM466.997 130.084H469.535C469.607 130.732 470.165 131.092 471.083 131.092C472.019 131.092 472.541 130.768 472.541 130.21C472.541 128.5 467.177 130.39 467.177 126.286C467.177 125.44 467.519 124.72 468.221 124.144C468.923 123.55 469.877 123.262 471.083 123.262C473.333 123.262 474.863 124.342 474.989 126.286H472.577C472.487 125.692 471.965 125.314 471.083 125.314C470.237 125.314 469.697 125.656 469.697 126.16C469.697 127.726 475.241 125.854 475.241 130.066C475.241 131.956 473.711 133.234 471.065 133.234C468.401 133.234 467.069 132.046 466.997 130.084ZM479.889 133H477.153V120.4H480.663L484.065 128.95H484.173L487.161 120.4H490.689V133H487.935V125.872H487.827L485.199 133H482.913L479.997 125.584H479.889V133ZM500.925 133H493.149V120.4H495.993V130.462H500.925V133ZM408.323 159H404.163V145H408.323C412.743 145 415.343 147.9 415.343 152C415.343 154.18 414.723 155.88 413.483 157.14C412.263 158.38 410.543 159 408.323 159ZM405.783 146.46V157.56H408.323C411.663 157.56 413.683 155.5 413.683 152C413.683 150.3 413.203 148.94 412.243 147.96C411.303 146.96 409.983 146.46 408.323 146.46H405.783ZM416.903 153.82C416.903 152.22 417.383 150.9 418.323 149.88C419.283 148.86 420.503 148.34 421.963 148.34C422.983 148.34 423.923 148.66 424.503 149.12C425.083 149.58 425.403 149.94 425.623 150.28H425.743V148.6H427.323V159H425.803V157.36H425.683C424.803 158.62 423.603 159.26 422.083 159.26C420.563 159.26 419.323 158.76 418.343 157.74C417.383 156.72 416.903 155.42 416.903 153.82ZM418.523 153.82C418.523 155.04 418.863 156.02 419.523 156.76C420.203 157.48 421.083 157.84 422.183 157.84C423.283 157.84 424.143 157.46 424.803 156.68C425.463 155.9 425.803 154.96 425.803 153.82C425.803 152.58 425.463 151.6 424.763 150.88C424.083 150.14 423.203 149.78 422.143 149.78C421.083 149.78 420.203 150.16 419.523 150.92C418.863 151.66 418.523 152.64 418.523 153.82ZM431.25 149.94H429.29V148.6H430.85C431.15 148.6 431.35 148.4 431.35 148.08V145.58H432.83V148.6H436.03V149.94H432.83V155.84C432.83 157.02 433.27 157.62 434.45 157.62H435.89V159H434.35C432.37 159 431.25 157.92 431.25 155.86V149.94ZM437.585 153.82C437.585 152.22 438.065 150.9 439.005 149.88C439.965 148.86 441.185 148.34 442.645 148.34C443.665 148.34 444.605 148.66 445.185 149.12C445.765 149.58 446.085 149.94 446.305 150.28H446.425V148.6H448.005V159H446.485V157.36H446.365C445.485 158.62 444.285 159.26 442.765 159.26C441.245 159.26 440.005 158.76 439.025 157.74C438.065 156.72 437.585 155.42 437.585 153.82ZM439.205 153.82C439.205 155.04 439.545 156.02 440.205 156.76C440.885 157.48 441.765 157.84 442.865 157.84C443.965 157.84 444.825 157.46 445.485 156.68C446.145 155.9 446.485 154.96 446.485 153.82C446.485 152.58 446.145 151.6 445.445 150.88C444.765 150.14 443.885 149.78 442.825 149.78C441.765 149.78 440.885 150.16 440.205 150.92C439.545 151.66 439.205 152.64 439.205 153.82ZM452.493 159H450.973V144H452.553V150.28H452.673C452.893 149.94 453.193 149.58 453.773 149.12C454.393 148.66 455.313 148.34 456.333 148.34C457.793 148.34 459.013 148.86 459.953 149.88C460.913 150.9 461.393 152.22 461.393 153.82C461.393 155.42 460.913 156.72 459.933 157.74C458.973 158.76 457.733 159.26 456.213 159.26C455.353 159.26 454.533 158.98 454.053 158.72C453.813 158.58 453.573 158.4 453.333 158.2C452.873 157.78 452.773 157.6 452.613 157.36H452.493V159ZM452.493 153.82C452.493 154.96 452.813 155.9 453.473 156.68C454.133 157.46 455.013 157.84 456.113 157.84C457.213 157.84 458.093 157.48 458.753 156.76C459.433 156.02 459.773 155.04 459.773 153.82C459.773 152.64 459.433 151.66 458.753 150.92C458.093 150.16 457.213 149.78 456.153 149.78C455.093 149.78 454.233 150.14 453.533 150.88C452.833 151.6 452.493 152.58 452.493 153.82ZM462.955 153.82C462.955 152.22 463.435 150.9 464.375 149.88C465.335 148.86 466.555 148.34 468.015 148.34C469.035 148.34 469.975 148.66 470.555 149.12C471.135 149.58 471.455 149.94 471.675 150.28H471.795V148.6H473.375V159H471.855V157.36H471.735C470.855 158.62 469.655 159.26 468.135 159.26C466.615 159.26 465.375 158.76 464.395 157.74C463.435 156.72 462.955 155.42 462.955 153.82ZM464.575 153.82C464.575 155.04 464.915 156.02 465.575 156.76C466.255 157.48 467.135 157.84 468.235 157.84C469.335 157.84 470.195 157.46 470.855 156.68C471.515 155.9 471.855 154.96 471.855 153.82C471.855 152.58 471.515 151.6 470.815 150.88C470.135 150.14 469.255 149.78 468.195 149.78C467.135 149.78 466.255 150.16 465.575 150.92C464.915 151.66 464.575 152.64 464.575 153.82ZM475.743 155.98H477.283C477.463 157.24 478.343 157.88 479.863 157.88C481.383 157.88 482.283 157.16 482.283 156.06C482.283 153.16 476.063 155.34 476.063 151.24C476.063 150.36 476.423 149.66 477.123 149.14C477.823 148.6 478.723 148.34 479.823 148.34C480.803 148.34 481.643 148.62 482.343 149.16C483.043 149.7 483.423 150.42 483.503 151.34H481.983C481.843 150.32 481.063 149.7 479.723 149.7C478.423 149.7 477.583 150.34 477.583 151.24C477.583 153.88 483.823 151.7 483.823 155.98C483.823 156.96 483.443 157.76 482.703 158.36C481.963 158.96 481.003 159.26 479.783 159.26C477.383 159.26 475.923 157.98 475.743 155.98ZM485.689 153.8C485.689 150.48 487.969 148.34 490.789 148.34C493.889 148.32 495.889 150.7 495.829 153.66V154.36H487.349C487.429 156.46 488.769 157.82 490.909 157.82C492.349 157.82 493.629 157.14 494.089 155.94H495.729C495.149 157.92 493.289 159.26 490.889 159.26C487.729 159.26 485.689 156.92 485.689 153.8ZM487.389 152.96H494.149C494.009 150.96 492.629 149.78 490.789 149.78C489.889 149.78 489.129 150.08 488.469 150.66C487.829 151.24 487.469 152.02 487.389 152.96Z" fill="white"/>
<path d="M199.5 169C199.5 171.357 197.733 173.726 194.229 175.975C190.748 178.209 185.677 180.24 179.367 181.952C166.753 185.376 149.299 187.5 130 187.5C110.701 187.5 93.2473 185.376 80.6335 181.952C74.323 180.24 69.2523 178.209 65.771 175.975C62.2667 173.726 60.5 171.357 60.5 169V79.5H199.5V169Z" fill="#0D0D0E" stroke="url(#paint4_linear_39_902)"/>
<path d="M199.5 79C199.5 81.3574 197.733 83.7261 194.229 85.9749C190.748 88.2089 185.677 90.2396 179.367 91.9525C166.753 95.3762 149.299 97.5 130 97.5C110.701 97.5 93.2473 95.3762 80.6335 91.9525C74.323 90.2396 69.2523 88.2089 65.771 85.9749C62.2667 83.7261 60.5 81.3574 60.5 79C60.5 76.6426 62.2667 74.2739 65.771 72.0251C69.2523 69.7911 74.323 67.7604 80.6335 66.0475C93.2473 62.6238 110.701 60.5 130 60.5C149.299 60.5 166.753 62.6238 179.367 66.0475C185.677 67.7604 190.748 69.7911 194.229 72.0251C197.733 74.2739 199.5 76.6426 199.5 79Z" fill="#0D0D0E" stroke="url(#paint5_linear_39_902)"/>
<path d="M84.3497 133H81.5057V120.4H86.3837C87.6437 120.4 88.6877 120.796 89.5157 121.588C90.3617 122.362 90.7757 123.37 90.7757 124.612C90.7757 127.096 88.7957 128.86 86.3837 128.86H84.3497V133ZM84.3497 122.83V126.448H86.0957C87.1217 126.448 87.8777 125.71 87.8777 124.612C87.8777 123.532 87.1577 122.83 86.0957 122.83H84.3497ZM95.228 133H92.438V123.496H95.066V124.936H95.21C95.588 124.126 96.488 123.424 97.658 123.424H98.576V126.052H97.478C96.11 126.052 95.228 127.042 95.228 128.68V133ZM99.2457 128.248C99.2457 125.44 101.316 123.262 104.376 123.262C105.87 123.262 107.094 123.748 108.048 124.702C109.002 125.656 109.488 126.826 109.488 128.248C109.488 131.056 107.4 133.234 104.358 133.234C101.334 133.234 99.2457 131.02 99.2457 128.248ZM102.072 128.248C102.072 129.688 103.044 130.714 104.358 130.714C105.672 130.714 106.662 129.688 106.662 128.248C106.662 126.808 105.672 125.782 104.358 125.782C103.044 125.782 102.072 126.808 102.072 128.248ZM110.777 128.302C110.777 126.808 111.173 125.584 111.965 124.666C112.775 123.73 113.819 123.262 115.097 123.262C116.411 123.262 117.347 123.91 117.779 124.576H117.923V119.5H120.713V133H117.941V131.92H117.797C117.509 132.37 116.735 133.234 115.169 133.234C113.855 133.234 112.793 132.784 111.983 131.884C111.173 130.984 110.777 129.796 110.777 128.302ZM113.603 128.248C113.603 129.706 114.485 130.714 115.799 130.714C117.113 130.714 117.977 129.67 117.977 128.248C117.977 126.754 117.077 125.782 115.781 125.782C114.485 125.782 113.603 126.79 113.603 128.248ZM122.706 129.832V123.496H125.496V128.968C125.496 129.976 126.09 130.642 127.026 130.642C127.98 130.642 128.646 129.85 128.646 128.824V123.496H131.436V133H128.79V131.956H128.646C128.232 132.658 127.314 133.234 126.108 133.234C125.082 133.234 124.254 132.928 123.624 132.298C123.012 131.668 122.706 130.84 122.706 129.832ZM133.084 128.248C133.03 125.476 135.1 123.244 138.106 123.262C139.42 123.262 140.5 123.622 141.382 124.36C142.264 125.08 142.786 126.016 142.912 127.186H140.086C139.816 126.34 139.078 125.782 138.124 125.782C136.774 125.782 135.91 126.826 135.91 128.248C135.91 129.67 136.792 130.714 138.142 130.714C139.06 130.714 139.816 130.192 140.05 129.418H142.894C142.732 130.552 142.228 131.488 141.364 132.19C140.5 132.892 139.42 133.234 138.124 133.234C135.118 133.27 133.03 130.984 133.084 128.248ZM145.776 125.674H144.246V123.514H145.146C145.632 123.514 145.92 123.172 145.92 122.668V120.922H148.566V123.496H151.05V125.674H148.566V129.562C148.566 130.282 148.998 130.696 149.79 130.696H151.014V133H149.088C147 133 145.776 131.794 145.776 129.706V125.674ZM152.964 122.02C152.658 121.75 152.514 121.372 152.514 120.922C152.514 120.472 152.658 120.094 152.964 119.824C153.27 119.554 153.666 119.41 154.152 119.41C154.638 119.41 155.034 119.554 155.34 119.824C155.646 120.094 155.79 120.472 155.79 120.94C155.79 121.39 155.646 121.768 155.34 122.038C155.034 122.308 154.638 122.434 154.152 122.434C153.666 122.434 153.27 122.29 152.964 122.02ZM155.556 133H152.766V123.496H155.556V133ZM157.06 128.248C157.06 125.44 159.13 123.262 162.19 123.262C163.684 123.262 164.908 123.748 165.862 124.702C166.816 125.656 167.302 126.826 167.302 128.248C167.302 131.056 165.214 133.234 162.172 133.234C159.148 133.234 157.06 131.02 157.06 128.248ZM159.886 128.248C159.886 129.688 160.858 130.714 162.172 130.714C163.486 130.714 164.476 129.688 164.476 128.248C164.476 126.808 163.486 125.782 162.172 125.782C160.858 125.782 159.886 126.808 159.886 128.248ZM171.921 133H169.131V123.496H171.759V124.54H171.903C172.317 123.82 173.253 123.262 174.459 123.262C175.485 123.262 176.313 123.586 176.925 124.216C177.555 124.846 177.861 125.656 177.861 126.664V133H175.071V127.528C175.071 126.52 174.477 125.854 173.541 125.854C172.587 125.854 171.921 126.646 171.921 127.672V133ZM88.323 159H84.163V145H88.323C92.743 145 95.343 147.9 95.343 152C95.343 154.18 94.723 155.88 93.483 157.14C92.263 158.38 90.543 159 88.323 159ZM85.783 146.46V157.56H88.323C91.663 157.56 93.683 155.5 93.683 152C93.683 150.3 93.203 148.94 92.243 147.96C91.303 146.96 89.983 146.46 88.323 146.46H85.783ZM96.9027 153.82C96.9027 152.22 97.3827 150.9 98.3227 149.88C99.2827 148.86 100.503 148.34 101.963 148.34C102.983 148.34 103.923 148.66 104.503 149.12C105.083 149.58 105.403 149.94 105.623 150.28H105.743V148.6H107.323V159H105.803V157.36H105.683C104.803 158.62 103.603 159.26 102.083 159.26C100.563 159.26 99.3227 158.76 98.3427 157.74C97.3827 156.72 96.9027 155.42 96.9027 153.82ZM98.5227 153.82C98.5227 155.04 98.8627 156.02 99.5227 156.76C100.203 157.48 101.083 157.84 102.183 157.84C103.283 157.84 104.143 157.46 104.803 156.68C105.463 155.9 105.803 154.96 105.803 153.82C105.803 152.58 105.463 151.6 104.763 150.88C104.083 150.14 103.203 149.78 102.143 149.78C101.083 149.78 100.203 150.16 99.5227 150.92C98.8627 151.66 98.5227 152.64 98.5227 153.82ZM111.25 149.94H109.29V148.6H110.85C111.15 148.6 111.35 148.4 111.35 148.08V145.58H112.83V148.6H116.03V149.94H112.83V155.84C112.83 157.02 113.27 157.62 114.45 157.62H115.89V159H114.35C112.37 159 111.25 157.92 111.25 155.86V149.94ZM117.585 153.82C117.585 152.22 118.065 150.9 119.005 149.88C119.965 148.86 121.185 148.34 122.645 148.34C123.665 148.34 124.605 148.66 125.185 149.12C125.765 149.58 126.085 149.94 126.305 150.28H126.425V148.6H128.005V159H126.485V157.36H126.365C125.485 158.62 124.285 159.26 122.765 159.26C121.245 159.26 120.005 158.76 119.025 157.74C118.065 156.72 117.585 155.42 117.585 153.82ZM119.205 153.82C119.205 155.04 119.545 156.02 120.205 156.76C120.885 157.48 121.765 157.84 122.865 157.84C123.965 157.84 124.825 157.46 125.485 156.68C126.145 155.9 126.485 154.96 126.485 153.82C126.485 152.58 126.145 151.6 125.445 150.88C124.765 150.14 123.885 149.78 122.825 149.78C121.765 149.78 120.885 150.16 120.205 150.92C119.545 151.66 119.205 152.64 119.205 153.82ZM132.493 159H130.973V144H132.553V150.28H132.673C132.893 149.94 133.193 149.58 133.773 149.12C134.393 148.66 135.313 148.34 136.333 148.34C137.793 148.34 139.013 148.86 139.953 149.88C140.913 150.9 141.393 152.22 141.393 153.82C141.393 155.42 140.913 156.72 139.933 157.74C138.973 158.76 137.733 159.26 136.213 159.26C135.353 159.26 134.533 158.98 134.053 158.72C133.813 158.58 133.573 158.4 133.333 158.2C132.873 157.78 132.773 157.6 132.613 157.36H132.493V159ZM132.493 153.82C132.493 154.96 132.813 155.9 133.473 156.68C134.133 157.46 135.013 157.84 136.113 157.84C137.213 157.84 138.093 157.48 138.753 156.76C139.433 156.02 139.773 155.04 139.773 153.82C139.773 152.64 139.433 151.66 138.753 150.92C138.093 150.16 137.213 149.78 136.153 149.78C135.093 149.78 134.233 150.14 133.533 150.88C132.833 151.6 132.493 152.58 132.493 153.82ZM142.955 153.82C142.955 152.22 143.435 150.9 144.375 149.88C145.335 148.86 146.555 148.34 148.015 148.34C149.035 148.34 149.975 148.66 150.555 149.12C151.135 149.58 151.455 149.94 151.675 150.28H151.795V148.6H153.375V159H151.855V157.36H151.735C150.855 158.62 149.655 159.26 148.135 159.26C146.615 159.26 145.375 158.76 144.395 157.74C143.435 156.72 142.955 155.42 142.955 153.82ZM144.575 153.82C144.575 155.04 144.915 156.02 145.575 156.76C146.255 157.48 147.135 157.84 148.235 157.84C149.335 157.84 150.195 157.46 150.855 156.68C151.515 155.9 151.855 154.96 151.855 153.82C151.855 152.58 151.515 151.6 150.815 150.88C150.135 150.14 149.255 149.78 148.195 149.78C147.135 149.78 146.255 150.16 145.575 150.92C144.915 151.66 144.575 152.64 144.575 153.82ZM155.743 155.98H157.283C157.463 157.24 158.343 157.88 159.863 157.88C161.383 157.88 162.283 157.16 162.283 156.06C162.283 153.16 156.063 155.34 156.063 151.24C156.063 150.36 156.423 149.66 157.123 149.14C157.823 148.6 158.723 148.34 159.823 148.34C160.803 148.34 161.643 148.62 162.343 149.16C163.043 149.7 163.423 150.42 163.503 151.34H161.983C161.843 150.32 161.063 149.7 159.723 149.7C158.423 149.7 157.583 150.34 157.583 151.24C157.583 153.88 163.823 151.7 163.823 155.98C163.823 156.96 163.443 157.76 162.703 158.36C161.963 158.96 161.003 159.26 159.783 159.26C157.383 159.26 155.923 157.98 155.743 155.98ZM165.689 153.8C165.689 150.48 167.969 148.34 170.789 148.34C173.889 148.32 175.889 150.7 175.829 153.66V154.36H167.349C167.429 156.46 168.769 157.82 170.909 157.82C172.349 157.82 173.629 157.14 174.089 155.94H175.729C175.149 157.92 173.289 159.26 170.889 159.26C167.729 159.26 165.689 156.92 165.689 153.8ZM167.389 152.96H174.149C174.009 150.96 172.629 149.78 170.789 149.78C169.889 149.78 169.129 150.08 168.469 150.66C167.829 151.24 167.469 152.02 167.389 152.96Z" fill="white"/>
<defs>
<filter id="filter0_f_39_902" x="189" y="113" width="22" height="22" filterUnits="userSpaceOnUse" color-interpolation-filters="sRGB">
<feFlood flood-opacity="0" result="BackgroundImageFix"/>
<feBlend mode="normal" in="SourceGraphic" in2="BackgroundImageFix" result="shape"/>
<feGaussianBlur stdDeviation="2" result="effect1_foregroundBlur_39_902"/>
</filter>
<linearGradient id="paint0_linear_39_902" x1="380" y1="123.5" x2="200" y2="123.5" gradientUnits="userSpaceOnUse">
<stop stop-color="#6B4AFF"/>
<stop offset="1" stop-color="#3FCFFF"/>
</linearGradient>
<linearGradient id="paint1_linear_39_902" x1="238" y1="114" x2="253.978" y2="58.6091" gradientUnits="userSpaceOnUse">
<stop stop-color="#5337FF"/>
<stop offset="1" stop-color="#A175FF"/>
</linearGradient>
<linearGradient id="paint2_linear_39_902" x1="380" y1="188" x2="485.673" y2="52.2737" gradientUnits="userSpaceOnUse">
<stop stop-color="#5337FF"/>
<stop offset="1" stop-color="#A175FF"/>
</linearGradient>
<linearGradient id="paint3_linear_39_902" x1="380" y1="98" x2="399.213" y2="27.215" gradientUnits="userSpaceOnUse">
<stop stop-color="#5337FF"/>
<stop offset="1" stop-color="#A175FF"/>
</linearGradient>
<linearGradient id="paint4_linear_39_902" x1="200" y1="79" x2="94.3274" y2="214.726" gradientUnits="userSpaceOnUse">
<stop stop-color="#3EDCFF"/>
<stop offset="1" stop-color="#3E9AFF"/>
</linearGradient>
<linearGradient id="paint5_linear_39_902" x1="200" y1="60" x2="180.787" y2="130.785" gradientUnits="userSpaceOnUse">
<stop stop-color="#3EDCFF"/>
<stop offset="1" stop-color="#3E9AFF"/>
</linearGradient>
</defs>
</svg>
