<svg width="450" height="396" viewBox="0 0 450 396" fill="none" xmlns="http://www.w3.org/2000/svg">
<rect width="450" height="396" rx="40" fill="#0D0D0E"/>
<path d="M271.294 272H228.294C226.085 272 224.294 270.209 224.294 268V202C224.294 199.791 222.504 198 220.294 198H179.294" stroke="url(#paint0_linear_36_577)"/>
<path d="M271.294 124H228.294C226.085 124 224.294 125.791 224.294 128V194C224.294 196.209 222.504 198 220.294 198H179.794" stroke="url(#paint1_linear_36_577)"/>
<g filter="url(#filter0_f_36_577)">
<circle cx="270.792" cy="272" r="7" fill="#3FAEFF"/>
</g>
<g filter="url(#filter1_f_36_577)">
<circle cx="270.792" cy="124" r="7" fill="#6B4AFF"/>
</g>
<path d="M389.794 317C389.794 319.393 388.262 321.762 385.28 323.995C382.306 326.222 377.971 328.248 372.57 329.958C361.773 333.377 346.826 335.5 330.294 335.5C313.763 335.5 298.816 333.377 288.019 329.958C282.618 328.248 278.283 326.222 275.309 323.995C272.327 321.762 270.794 319.393 270.794 317V227.5H389.794V317Z" fill="#0D0D0E" stroke="url(#paint2_linear_36_577)"/>
<path d="M389.794 227C389.794 229.393 388.262 231.762 385.28 233.995C382.306 236.222 377.971 238.248 372.57 239.958C361.773 243.377 346.826 245.5 330.294 245.5C313.763 245.5 298.816 243.377 288.019 239.958C282.618 238.248 278.283 236.222 275.309 233.995C272.327 231.762 270.794 229.393 270.794 227C270.794 224.607 272.327 222.238 275.309 220.005C278.283 217.778 282.618 215.752 288.019 214.042C298.816 210.623 313.763 208.5 330.294 208.5C346.826 208.5 361.773 210.623 372.57 214.042C377.971 215.752 382.306 217.778 385.28 220.005C388.262 222.238 389.794 224.607 389.794 227Z" fill="#0D0D0E" stroke="url(#paint3_linear_36_577)"/>
<path d="M297.028 282H294.184V269.4H299.116C300.412 269.4 301.474 269.796 302.32 270.57C303.166 271.344 303.58 272.334 303.58 273.558C303.58 275.196 302.662 276.564 301.348 277.23L304.03 282H300.862L298.72 277.788H297.028V282ZM297.028 271.83V275.358H298.864C299.944 275.358 300.664 274.692 300.664 273.558C300.664 272.496 299.962 271.83 298.828 271.83H297.028ZM314.01 282H305.838V269.4H313.812V271.83H308.682V274.44H313.056V276.87H308.682V279.552H314.01V282ZM318.79 282H315.946V269.4H320.824C322.084 269.4 323.128 269.796 323.956 270.588C324.802 271.362 325.216 272.37 325.216 273.612C325.216 276.096 323.236 277.86 320.824 277.86H318.79V282ZM318.79 271.83V275.448H320.536C321.562 275.448 322.318 274.71 322.318 273.612C322.318 272.532 321.598 271.83 320.536 271.83H318.79ZM334.708 282H326.932V269.4H329.776V279.462H334.708V282ZM339.444 282H336.6V269.4H339.444V282ZM341.193 275.7C341.121 272.046 343.965 269.112 347.817 269.166C351.165 269.166 353.613 271.326 354.081 274.08H350.985C350.625 272.802 349.401 271.902 347.817 271.902C346.737 271.902 345.855 272.262 345.171 272.982C344.487 273.702 344.145 274.602 344.145 275.7C344.145 276.798 344.487 277.716 345.171 278.436C345.855 279.138 346.737 279.498 347.817 279.498C349.401 279.498 350.607 278.616 351.093 277.374H354.207C353.937 278.796 353.217 279.948 352.047 280.866C350.877 281.784 349.473 282.234 347.817 282.234C343.965 282.288 341.121 279.372 341.193 275.7ZM357.07 282H354.154L358.438 269.4H362.074L366.412 282H363.388L362.632 279.768H357.808L357.07 282ZM360.148 272.532L358.582 277.23H361.858L360.31 272.532H360.148ZM288.617 308H284.457V294H288.617C293.037 294 295.637 296.9 295.637 301C295.637 303.18 295.017 304.88 293.777 306.14C292.557 307.38 290.837 308 288.617 308ZM286.077 295.46V306.56H288.617C291.957 306.56 293.977 304.5 293.977 301C293.977 299.3 293.497 297.94 292.537 296.96C291.597 295.96 290.277 295.46 288.617 295.46H286.077ZM297.197 302.82C297.197 301.22 297.677 299.9 298.617 298.88C299.577 297.86 300.797 297.34 302.257 297.34C303.277 297.34 304.217 297.66 304.797 298.12C305.377 298.58 305.697 298.94 305.917 299.28H306.037V297.6H307.617V308H306.097V306.36H305.977C305.097 307.62 303.897 308.26 302.377 308.26C300.857 308.26 299.617 307.76 298.637 306.74C297.677 305.72 297.197 304.42 297.197 302.82ZM298.817 302.82C298.817 304.04 299.157 305.02 299.817 305.76C300.497 306.48 301.377 306.84 302.477 306.84C303.577 306.84 304.437 306.46 305.097 305.68C305.757 304.9 306.097 303.96 306.097 302.82C306.097 301.58 305.757 300.6 305.057 299.88C304.377 299.14 303.497 298.78 302.437 298.78C301.377 298.78 300.497 299.16 299.817 299.92C299.157 300.66 298.817 301.64 298.817 302.82ZM311.545 298.94H309.585V297.6H311.145C311.445 297.6 311.645 297.4 311.645 297.08V294.58H313.125V297.6H316.325V298.94H313.125V304.84C313.125 306.02 313.565 306.62 314.745 306.62H316.185V308H314.645C312.665 308 311.545 306.92 311.545 304.86V298.94ZM317.88 302.82C317.88 301.22 318.36 299.9 319.3 298.88C320.26 297.86 321.48 297.34 322.94 297.34C323.96 297.34 324.9 297.66 325.48 298.12C326.06 298.58 326.38 298.94 326.6 299.28H326.72V297.6H328.3V308H326.78V306.36H326.66C325.78 307.62 324.58 308.26 323.06 308.26C321.54 308.26 320.3 307.76 319.32 306.74C318.36 305.72 317.88 304.42 317.88 302.82ZM319.5 302.82C319.5 304.04 319.84 305.02 320.5 305.76C321.18 306.48 322.06 306.84 323.16 306.84C324.26 306.84 325.12 306.46 325.78 305.68C326.44 304.9 326.78 303.96 326.78 302.82C326.78 301.58 326.44 300.6 325.74 299.88C325.06 299.14 324.18 298.78 323.12 298.78C322.06 298.78 321.18 299.16 320.5 299.92C319.84 300.66 319.5 301.64 319.5 302.82ZM332.787 308H331.267V293H332.847V299.28H332.967C333.187 298.94 333.487 298.58 334.067 298.12C334.687 297.66 335.607 297.34 336.627 297.34C338.087 297.34 339.307 297.86 340.247 298.88C341.207 299.9 341.687 301.22 341.687 302.82C341.687 304.42 341.207 305.72 340.227 306.74C339.267 307.76 338.027 308.26 336.507 308.26C335.647 308.26 334.827 307.98 334.347 307.72C334.107 307.58 333.867 307.4 333.627 307.2C333.167 306.78 333.067 306.6 332.907 306.36H332.787V308ZM332.787 302.82C332.787 303.96 333.107 304.9 333.767 305.68C334.427 306.46 335.307 306.84 336.407 306.84C337.507 306.84 338.387 306.48 339.047 305.76C339.727 305.02 340.067 304.04 340.067 302.82C340.067 301.64 339.727 300.66 339.047 299.92C338.387 299.16 337.507 298.78 336.447 298.78C335.387 298.78 334.527 299.14 333.827 299.88C333.127 300.6 332.787 301.58 332.787 302.82ZM343.25 302.82C343.25 301.22 343.73 299.9 344.67 298.88C345.63 297.86 346.85 297.34 348.31 297.34C349.33 297.34 350.27 297.66 350.85 298.12C351.43 298.58 351.75 298.94 351.97 299.28H352.09V297.6H353.67V308H352.15V306.36H352.03C351.15 307.62 349.95 308.26 348.43 308.26C346.91 308.26 345.67 307.76 344.69 306.74C343.73 305.72 343.25 304.42 343.25 302.82ZM344.87 302.82C344.87 304.04 345.21 305.02 345.87 305.76C346.55 306.48 347.43 306.84 348.53 306.84C349.63 306.84 350.49 306.46 351.15 305.68C351.81 304.9 352.15 303.96 352.15 302.82C352.15 301.58 351.81 300.6 351.11 299.88C350.43 299.14 349.55 298.78 348.49 298.78C347.43 298.78 346.55 299.16 345.87 299.92C345.21 300.66 344.87 301.64 344.87 302.82ZM356.037 304.98H357.577C357.757 306.24 358.637 306.88 360.157 306.88C361.677 306.88 362.577 306.16 362.577 305.06C362.577 302.16 356.357 304.34 356.357 300.24C356.357 299.36 356.717 298.66 357.417 298.14C358.117 297.6 359.017 297.34 360.117 297.34C361.097 297.34 361.937 297.62 362.637 298.16C363.337 298.7 363.717 299.42 363.797 300.34H362.277C362.137 299.32 361.357 298.7 360.017 298.7C358.717 298.7 357.877 299.34 357.877 300.24C357.877 302.88 364.117 300.7 364.117 304.98C364.117 305.96 363.737 306.76 362.997 307.36C362.257 307.96 361.297 308.26 360.077 308.26C357.677 308.26 356.217 306.98 356.037 304.98ZM365.983 302.8C365.983 299.48 368.263 297.34 371.083 297.34C374.183 297.32 376.183 299.7 376.123 302.66V303.36H367.643C367.723 305.46 369.063 306.82 371.203 306.82C372.643 306.82 373.923 306.14 374.383 304.94H376.023C375.443 306.92 373.583 308.26 371.183 308.26C368.023 308.26 365.983 305.92 365.983 302.8ZM367.683 301.96H374.443C374.303 299.96 372.923 298.78 371.083 298.78C370.183 298.78 369.423 299.08 368.763 299.66C368.123 300.24 367.763 301.02 367.683 301.96Z" fill="white"/>
<path d="M389.794 169C389.794 171.393 388.262 173.762 385.28 175.995C382.306 178.222 377.971 180.248 372.57 181.958C361.773 185.377 346.826 187.5 330.294 187.5C313.763 187.5 298.816 185.377 288.019 181.958C282.618 180.248 278.283 178.222 275.309 175.995C272.327 173.762 270.794 171.393 270.794 169V79.5H389.794V169Z" fill="#0D0D0E" stroke="url(#paint4_linear_36_577)"/>
<path d="M389.794 79C389.794 81.3932 388.262 83.7624 385.28 85.9954C382.306 88.2217 377.971 90.2479 372.57 91.9584C361.773 95.3774 346.826 97.5 330.294 97.5C313.763 97.5 298.816 95.3774 288.019 91.9584C282.618 90.2479 278.283 88.2217 275.309 85.9954C272.327 83.7624 270.794 81.3932 270.794 79C270.794 76.6068 272.327 74.2376 275.309 72.0046C278.283 69.7783 282.618 67.7521 288.019 66.0416C298.816 62.6226 313.763 60.5 330.294 60.5C346.826 60.5 361.773 62.6226 372.57 66.0416C377.971 67.7521 382.306 69.7783 385.28 72.0046C388.262 74.2376 389.794 76.6068 389.794 79Z" fill="#0D0D0E" stroke="url(#paint5_linear_36_577)"/>
<path d="M294.576 134H291.732V121.4H296.61C297.87 121.4 298.914 121.796 299.742 122.588C300.588 123.362 301.002 124.37 301.002 125.612C301.002 128.096 299.022 129.86 296.61 129.86H294.576V134ZM294.576 123.83V127.448H296.322C297.348 127.448 298.104 126.71 298.104 125.612C298.104 124.532 297.384 123.83 296.322 123.83H294.576ZM305.562 134H302.718V121.4H307.65C308.946 121.4 310.008 121.796 310.854 122.57C311.7 123.344 312.114 124.334 312.114 125.558C312.114 127.196 311.196 128.564 309.882 129.23L312.564 134H309.396L307.254 129.788H305.562V134ZM305.562 123.83V127.358H307.398C308.478 127.358 309.198 126.692 309.198 125.558C309.198 124.496 308.496 123.83 307.362 123.83H305.562ZM317.216 134H314.372V121.4H317.216V134ZM322.435 134H319.699V121.4H323.209L326.611 129.95H326.719L329.707 121.4H333.235V134H330.481V126.872H330.373L327.745 134H325.459L322.543 126.584H322.435V134ZM337.603 134H334.687L338.971 121.4H342.607L346.945 134H343.921L343.165 131.768H338.341L337.603 134ZM340.681 124.532L339.115 129.23H342.391L340.843 124.532H340.681ZM351.265 134H348.421V121.4H353.353C354.649 121.4 355.711 121.796 356.557 122.57C357.403 123.344 357.817 124.334 357.817 125.558C357.817 127.196 356.899 128.564 355.585 129.23L358.267 134H355.099L352.957 129.788H351.265V134ZM351.265 123.83V127.358H353.101C354.181 127.358 354.901 126.692 354.901 125.558C354.901 124.496 354.199 123.83 353.065 123.83H351.265ZM361.684 129.122L357.31 121.4H360.424L362.998 126.242H363.16L365.716 121.4H368.866L364.546 129.104V134H361.684V129.122ZM288.617 160H284.457V146H288.617C293.037 146 295.637 148.9 295.637 153C295.637 155.18 295.017 156.88 293.777 158.14C292.557 159.38 290.837 160 288.617 160ZM286.077 147.46V158.56H288.617C291.957 158.56 293.977 156.5 293.977 153C293.977 151.3 293.497 149.94 292.537 148.96C291.597 147.96 290.277 147.46 288.617 147.46H286.077ZM297.197 154.82C297.197 153.22 297.677 151.9 298.617 150.88C299.577 149.86 300.797 149.34 302.257 149.34C303.277 149.34 304.217 149.66 304.797 150.12C305.377 150.58 305.697 150.94 305.917 151.28H306.037V149.6H307.617V160H306.097V158.36H305.977C305.097 159.62 303.897 160.26 302.377 160.26C300.857 160.26 299.617 159.76 298.637 158.74C297.677 157.72 297.197 156.42 297.197 154.82ZM298.817 154.82C298.817 156.04 299.157 157.02 299.817 157.76C300.497 158.48 301.377 158.84 302.477 158.84C303.577 158.84 304.437 158.46 305.097 157.68C305.757 156.9 306.097 155.96 306.097 154.82C306.097 153.58 305.757 152.6 305.057 151.88C304.377 151.14 303.497 150.78 302.437 150.78C301.377 150.78 300.497 151.16 299.817 151.92C299.157 152.66 298.817 153.64 298.817 154.82ZM311.545 150.94H309.585V149.6H311.145C311.445 149.6 311.645 149.4 311.645 149.08V146.58H313.125V149.6H316.325V150.94H313.125V156.84C313.125 158.02 313.565 158.62 314.745 158.62H316.185V160H314.645C312.665 160 311.545 158.92 311.545 156.86V150.94ZM317.88 154.82C317.88 153.22 318.36 151.9 319.3 150.88C320.26 149.86 321.48 149.34 322.94 149.34C323.96 149.34 324.9 149.66 325.48 150.12C326.06 150.58 326.38 150.94 326.6 151.28H326.72V149.6H328.3V160H326.78V158.36H326.66C325.78 159.62 324.58 160.26 323.06 160.26C321.54 160.26 320.3 159.76 319.32 158.74C318.36 157.72 317.88 156.42 317.88 154.82ZM319.5 154.82C319.5 156.04 319.84 157.02 320.5 157.76C321.18 158.48 322.06 158.84 323.16 158.84C324.26 158.84 325.12 158.46 325.78 157.68C326.44 156.9 326.78 155.96 326.78 154.82C326.78 153.58 326.44 152.6 325.74 151.88C325.06 151.14 324.18 150.78 323.12 150.78C322.06 150.78 321.18 151.16 320.5 151.92C319.84 152.66 319.5 153.64 319.5 154.82ZM332.787 160H331.267V145H332.847V151.28H332.967C333.187 150.94 333.487 150.58 334.067 150.12C334.687 149.66 335.607 149.34 336.627 149.34C338.087 149.34 339.307 149.86 340.247 150.88C341.207 151.9 341.687 153.22 341.687 154.82C341.687 156.42 341.207 157.72 340.227 158.74C339.267 159.76 338.027 160.26 336.507 160.26C335.647 160.26 334.827 159.98 334.347 159.72C334.107 159.58 333.867 159.4 333.627 159.2C333.167 158.78 333.067 158.6 332.907 158.36H332.787V160ZM332.787 154.82C332.787 155.96 333.107 156.9 333.767 157.68C334.427 158.46 335.307 158.84 336.407 158.84C337.507 158.84 338.387 158.48 339.047 157.76C339.727 157.02 340.067 156.04 340.067 154.82C340.067 153.64 339.727 152.66 339.047 151.92C338.387 151.16 337.507 150.78 336.447 150.78C335.387 150.78 334.527 151.14 333.827 151.88C333.127 152.6 332.787 153.58 332.787 154.82ZM343.25 154.82C343.25 153.22 343.73 151.9 344.67 150.88C345.63 149.86 346.85 149.34 348.31 149.34C349.33 149.34 350.27 149.66 350.85 150.12C351.43 150.58 351.75 150.94 351.97 151.28H352.09V149.6H353.67V160H352.15V158.36H352.03C351.15 159.62 349.95 160.26 348.43 160.26C346.91 160.26 345.67 159.76 344.69 158.74C343.73 157.72 343.25 156.42 343.25 154.82ZM344.87 154.82C344.87 156.04 345.21 157.02 345.87 157.76C346.55 158.48 347.43 158.84 348.53 158.84C349.63 158.84 350.49 158.46 351.15 157.68C351.81 156.9 352.15 155.96 352.15 154.82C352.15 153.58 351.81 152.6 351.11 151.88C350.43 151.14 349.55 150.78 348.49 150.78C347.43 150.78 346.55 151.16 345.87 151.92C345.21 152.66 344.87 153.64 344.87 154.82ZM356.037 156.98H357.577C357.757 158.24 358.637 158.88 360.157 158.88C361.677 158.88 362.577 158.16 362.577 157.06C362.577 154.16 356.357 156.34 356.357 152.24C356.357 151.36 356.717 150.66 357.417 150.14C358.117 149.6 359.017 149.34 360.117 149.34C361.097 149.34 361.937 149.62 362.637 150.16C363.337 150.7 363.717 151.42 363.797 152.34H362.277C362.137 151.32 361.357 150.7 360.017 150.7C358.717 150.7 357.877 151.34 357.877 152.24C357.877 154.88 364.117 152.7 364.117 156.98C364.117 157.96 363.737 158.76 362.997 159.36C362.257 159.96 361.297 160.26 360.077 160.26C357.677 160.26 356.217 158.98 356.037 156.98ZM365.983 154.8C365.983 151.48 368.263 149.34 371.083 149.34C374.183 149.32 376.183 151.7 376.123 154.66V155.36H367.643C367.723 157.46 369.063 158.82 371.203 158.82C372.643 158.82 373.923 158.14 374.383 156.94H376.023C375.443 158.92 373.583 160.26 371.183 160.26C368.023 160.26 365.983 157.92 365.983 154.8ZM367.683 153.96H374.443C374.303 151.96 372.923 150.78 371.083 150.78C370.183 150.78 369.423 151.08 368.763 151.66C368.123 152.24 367.763 153.02 367.683 153.96Z" fill="white"/>
<rect x="60.5" y="138.5" width="119" height="119" rx="59.5" fill="#0D0D0E"/>
<rect x="60.5" y="138.5" width="119" height="119" rx="59.5" stroke="#19D58D"/>
<g clip-path="url(#clip0_36_577)">
<path d="M128.062 177.506C126.69 177.506 125.402 178.031 124.434 178.983C122.874 180.519 122.495 182.841 123.448 184.764L120.001 186.973L116.555 184.764C117.507 182.841 117.129 180.519 115.569 178.983C114.601 178.031 113.312 177.506 111.94 177.506C110.568 177.506 109.279 178.031 108.312 178.983C107.344 179.935 106.812 181.203 106.812 182.554C106.812 183.904 107.345 185.172 108.312 186.125C109.28 187.077 110.568 187.602 111.94 187.602C112.906 187.602 113.835 187.341 114.647 186.844L118.595 189.374V192.093C116.416 192.705 114.87 194.692 114.87 196.951C114.87 199.735 117.172 202.001 120.001 202.001C122.83 202.001 125.132 199.735 125.132 196.951C125.132 194.692 123.587 192.705 121.408 192.093V189.374L125.356 186.844C126.167 187.341 127.096 187.602 128.062 187.602C129.434 187.602 130.723 187.077 131.691 186.125C133.691 184.156 133.691 180.952 131.691 178.983C130.723 178.031 129.434 177.506 128.062 177.506ZM129.702 184.168C128.8 185.056 127.331 185.057 126.426 184.171C126.426 184.171 126.424 184.17 126.424 184.169L126.416 184.162C125.519 183.272 125.521 181.829 126.423 180.941C126.86 180.511 127.442 180.274 128.062 180.274C128.683 180.274 129.265 180.511 129.702 180.941C130.606 181.831 130.606 183.278 129.702 184.168V184.168ZM122.32 196.951C122.32 198.209 121.28 199.233 120.001 199.233C118.723 199.233 117.683 198.209 117.683 196.951C117.683 195.692 118.723 194.669 120.001 194.669C121.28 194.669 122.32 195.692 122.32 196.951ZM110.301 184.168C109.864 183.738 109.623 183.164 109.623 182.554C109.623 181.944 109.864 181.371 110.301 180.941C110.738 180.51 111.32 180.273 111.94 180.273C112.561 180.273 113.143 180.51 113.58 180.941C114.017 181.371 114.258 181.944 114.258 182.554C114.258 183.165 114.019 183.733 113.585 184.163L113.575 184.173C112.67 185.057 111.203 185.055 110.301 184.168H110.301Z" fill="white"/>
<path d="M136.953 174.227L134.493 165.031C134.356 164.518 133.926 164.123 133.397 164.023C132.868 163.924 132.32 164.136 132.001 164.562L125.796 172.854C123.965 172.118 121.969 171.73 120 171.73C118.031 171.73 116.036 172.118 114.204 172.854L108.002 164.562C107.683 164.136 107.135 163.924 106.606 164.023C106.076 164.123 105.646 164.518 105.509 165.03L103.047 174.227C102.951 174.584 103.003 174.957 103.192 175.277C103.381 175.596 103.685 175.824 104.049 175.918C104.412 176.013 104.791 175.962 105.115 175.776C105.439 175.59 105.671 175.29 105.767 174.932L107.48 168.534L112.616 175.4C113.025 175.947 113.77 176.121 114.386 175.813C117.903 174.066 122.101 174.067 125.618 175.815C125.821 175.916 126.039 175.964 126.253 175.964C126.687 175.964 127.111 175.766 127.384 175.4L132.522 168.534L134.233 174.932C134.395 175.54 134.955 175.964 135.593 175.964C135.713 175.964 135.834 175.948 135.951 175.918C136.315 175.824 136.619 175.596 136.808 175.277C136.997 174.957 137.049 174.584 136.953 174.227L136.953 174.227Z" fill="white"/>
</g>
<path d="M93.6699 232H92.0499V218H97.0699C98.3499 218 99.3899 218.38 100.17 219.16C100.95 219.92 101.35 220.94 101.35 222.2C101.35 223.46 100.95 224.48 100.13 225.28C99.3299 226.06 98.3099 226.46 97.0699 226.46H93.6699V232ZM93.6699 219.44V225.02H96.9299C98.5899 225.02 99.6899 223.82 99.6899 222.2C99.6899 220.58 98.6099 219.44 96.9299 219.44H93.6699ZM101.899 226.82C101.899 225.22 102.379 223.9 103.319 222.88C104.279 221.86 105.499 221.34 106.959 221.34C107.979 221.34 108.919 221.66 109.499 222.12C110.079 222.58 110.399 222.94 110.619 223.28H110.739V221.6H112.319V232C112.319 235.04 110.379 236.86 107.259 236.86C104.779 236.86 103.079 235.54 102.739 233.62H104.239C104.499 234.82 105.659 235.48 107.259 235.48C109.639 235.48 110.799 234.18 110.799 232V230.36H110.679C109.799 231.62 108.599 232.26 107.079 232.26C105.559 232.26 104.319 231.76 103.339 230.74C102.379 229.72 101.899 228.42 101.899 226.82ZM103.519 226.82C103.519 228.04 103.859 229.02 104.519 229.76C105.199 230.48 106.079 230.84 107.179 230.84C108.279 230.84 109.139 230.46 109.799 229.68C110.459 228.9 110.799 227.96 110.799 226.82C110.799 225.58 110.459 224.6 109.759 223.88C109.079 223.14 108.199 222.78 107.139 222.78C106.079 222.78 105.199 223.16 104.519 223.92C103.859 224.66 103.519 225.64 103.519 226.82ZM114.486 225C114.486 220.88 117.546 217.74 121.686 217.74C123.266 217.74 124.646 218.18 125.806 219.04C126.986 219.9 127.806 221.04 128.266 222.48H126.526C125.806 220.42 123.926 219.26 121.686 219.26C118.586 219.26 116.166 221.74 116.166 225C116.106 228.24 118.626 230.8 121.686 230.74C123.926 230.74 125.806 229.6 126.466 227.52H128.266C127.826 228.98 127.006 230.12 125.826 230.98C124.646 231.84 123.266 232.26 121.666 232.26C117.606 232.34 114.426 229.08 114.486 225ZM129.828 226.82C129.828 225.22 130.308 223.9 131.248 222.88C132.208 221.86 133.428 221.34 134.888 221.34C135.908 221.34 136.848 221.66 137.428 222.12C138.008 222.58 138.328 222.94 138.548 223.28H138.668V221.6H140.248V232H138.728V230.36H138.608C137.728 231.62 136.528 232.26 135.008 232.26C133.488 232.26 132.248 231.76 131.268 230.74C130.308 229.72 129.828 228.42 129.828 226.82ZM131.448 226.82C131.448 228.04 131.788 229.02 132.448 229.76C133.128 230.48 134.008 230.84 135.108 230.84C136.208 230.84 137.068 230.46 137.728 229.68C138.388 228.9 138.728 227.96 138.728 226.82C138.728 225.58 138.388 224.6 137.688 223.88C137.008 223.14 136.128 222.78 135.068 222.78C134.008 222.78 133.128 223.16 132.448 223.92C131.788 224.66 131.448 225.64 131.448 226.82ZM144.175 222.94H142.215V221.6H143.775C144.075 221.6 144.275 221.4 144.275 221.08V218.58H145.755V221.6H148.955V222.94H145.755V228.84C145.755 230.02 146.195 230.62 147.375 230.62H148.815V232H147.275C145.295 232 144.175 230.92 144.175 228.86V222.94Z" fill="white"/>
<rect x="160.5" y="95.5" width="57" height="57" rx="11.5" fill="url(#paint6_linear_36_577)" fill-opacity="0.1"/>
<rect x="160.5" y="95.5" width="57" height="57" rx="11.5" stroke="#2F3033"/>
<path d="M170.114 105.273V114H169.057V105.273H170.114ZM173.102 110.062V114H172.096V107.455H173.068V108.477H173.153C173.306 108.145 173.539 107.878 173.852 107.676C174.164 107.472 174.568 107.369 175.062 107.369C175.505 107.369 175.893 107.46 176.225 107.642C176.558 107.821 176.816 108.094 177.001 108.46C177.186 108.824 177.278 109.284 177.278 109.841V114H176.272V109.909C176.272 109.395 176.139 108.994 175.872 108.707C175.605 108.418 175.238 108.273 174.772 108.273C174.451 108.273 174.164 108.342 173.912 108.482C173.662 108.621 173.464 108.824 173.319 109.091C173.174 109.358 173.102 109.682 173.102 110.062ZM183.752 108.92L182.849 109.176C182.792 109.026 182.708 108.879 182.597 108.737C182.489 108.592 182.342 108.473 182.154 108.379C181.967 108.286 181.727 108.239 181.434 108.239C181.033 108.239 180.7 108.331 180.433 108.516C180.168 108.697 180.036 108.929 180.036 109.21C180.036 109.46 180.127 109.658 180.309 109.803C180.491 109.947 180.775 110.068 181.161 110.165L182.133 110.403C182.718 110.545 183.154 110.763 183.441 111.055C183.728 111.345 183.871 111.719 183.871 112.176C183.871 112.551 183.763 112.886 183.548 113.182C183.335 113.477 183.036 113.71 182.653 113.881C182.269 114.051 181.823 114.136 181.315 114.136C180.647 114.136 180.094 113.991 179.657 113.702C179.219 113.412 178.942 112.989 178.826 112.432L179.781 112.193C179.871 112.545 180.043 112.81 180.296 112.986C180.552 113.162 180.886 113.25 181.298 113.25C181.766 113.25 182.138 113.151 182.414 112.952C182.692 112.75 182.832 112.509 182.832 112.227C182.832 112 182.752 111.81 182.593 111.656C182.434 111.5 182.19 111.384 181.86 111.307L180.769 111.051C180.17 110.909 179.729 110.689 179.448 110.391C179.17 110.089 179.031 109.713 179.031 109.261C179.031 108.892 179.134 108.565 179.342 108.281C179.552 107.997 179.837 107.774 180.198 107.612C180.562 107.45 180.974 107.369 181.434 107.369C182.082 107.369 182.59 107.511 182.96 107.795C183.332 108.08 183.596 108.455 183.752 108.92ZM188.13 114.136C187.499 114.136 186.955 113.997 186.498 113.719C186.043 113.438 185.692 113.045 185.445 112.543C185.201 112.037 185.078 111.449 185.078 110.778C185.078 110.108 185.201 109.517 185.445 109.006C185.692 108.491 186.036 108.091 186.476 107.804C186.919 107.514 187.436 107.369 188.027 107.369C188.368 107.369 188.705 107.426 189.037 107.54C189.37 107.653 189.672 107.838 189.945 108.094C190.218 108.347 190.435 108.682 190.597 109.099C190.759 109.517 190.84 110.031 190.84 110.642V111.068H185.794V110.199H189.817C189.817 109.83 189.743 109.5 189.596 109.21C189.451 108.92 189.243 108.692 188.973 108.524C188.706 108.357 188.391 108.273 188.027 108.273C187.627 108.273 187.28 108.372 186.988 108.571C186.698 108.767 186.475 109.023 186.319 109.338C186.162 109.653 186.084 109.991 186.084 110.352V110.932C186.084 111.426 186.169 111.845 186.34 112.189C186.513 112.53 186.753 112.79 187.06 112.969C187.367 113.145 187.723 113.233 188.13 113.233C188.394 113.233 188.632 113.196 188.846 113.122C189.061 113.045 189.248 112.932 189.404 112.781C189.56 112.628 189.681 112.437 189.766 112.21L190.738 112.483C190.635 112.812 190.463 113.102 190.222 113.352C189.98 113.599 189.682 113.793 189.327 113.932C188.972 114.068 188.573 114.136 188.13 114.136ZM192.37 114V107.455H193.341V108.443H193.409C193.529 108.119 193.745 107.857 194.057 107.655C194.37 107.453 194.722 107.352 195.114 107.352C195.188 107.352 195.28 107.354 195.391 107.357C195.502 107.359 195.586 107.364 195.642 107.369V108.392C195.608 108.384 195.53 108.371 195.408 108.354C195.289 108.334 195.162 108.324 195.029 108.324C194.711 108.324 194.426 108.391 194.176 108.524C193.929 108.655 193.733 108.837 193.588 109.07C193.446 109.3 193.375 109.562 193.375 109.858V114H192.37ZM200.091 107.455V108.307H196.699V107.455H200.091ZM197.688 105.886H198.694V112.125C198.694 112.409 198.735 112.622 198.817 112.764C198.902 112.903 199.01 112.997 199.141 113.045C199.275 113.091 199.415 113.114 199.563 113.114C199.674 113.114 199.765 113.108 199.836 113.097C199.907 113.082 199.963 113.071 200.006 113.062L200.211 113.966C200.142 113.991 200.047 114.017 199.925 114.043C199.803 114.071 199.648 114.085 199.461 114.085C199.176 114.085 198.898 114.024 198.625 113.902C198.355 113.78 198.131 113.594 197.952 113.344C197.776 113.094 197.688 112.778 197.688 112.398V105.886ZM174.784 119.273H175.841V125.051C175.841 125.648 175.7 126.18 175.419 126.649C175.141 127.115 174.747 127.483 174.239 127.753C173.73 128.02 173.134 128.153 172.449 128.153C171.764 128.153 171.168 128.02 170.659 127.753C170.151 127.483 169.756 127.115 169.474 126.649C169.196 126.18 169.057 125.648 169.057 125.051V119.273H170.114V124.966C170.114 125.392 170.207 125.771 170.395 126.104C170.582 126.433 170.849 126.693 171.196 126.884C171.545 127.071 171.963 127.165 172.449 127.165C172.935 127.165 173.352 127.071 173.702 126.884C174.051 126.693 174.318 126.433 174.503 126.104C174.69 125.771 174.784 125.392 174.784 124.966V119.273ZM177.815 130.455V121.455H178.787V122.494H178.906C178.98 122.381 179.082 122.236 179.213 122.06C179.346 121.881 179.537 121.722 179.784 121.582C180.034 121.44 180.372 121.369 180.798 121.369C181.349 121.369 181.835 121.507 182.255 121.783C182.676 122.058 183.004 122.449 183.24 122.955C183.475 123.46 183.593 124.057 183.593 124.744C183.593 125.438 183.475 126.038 183.24 126.547C183.004 127.053 182.677 127.445 182.26 127.723C181.842 127.999 181.36 128.136 180.815 128.136C180.395 128.136 180.058 128.067 179.805 127.928C179.552 127.786 179.358 127.625 179.221 127.446C179.085 127.264 178.98 127.114 178.906 126.994H178.821V130.455H177.815ZM178.804 124.727C178.804 125.222 178.876 125.658 179.021 126.036C179.166 126.411 179.377 126.705 179.656 126.918C179.934 127.128 180.275 127.233 180.679 127.233C181.099 127.233 181.45 127.122 181.731 126.901C182.015 126.676 182.228 126.375 182.37 125.997C182.515 125.616 182.588 125.193 182.588 124.727C182.588 124.267 182.517 123.852 182.375 123.483C182.235 123.111 182.024 122.817 181.74 122.601C181.458 122.382 181.105 122.273 180.679 122.273C180.27 122.273 179.926 122.376 179.647 122.584C179.369 122.788 179.159 123.075 179.017 123.445C178.875 123.811 178.804 124.239 178.804 124.727ZM187.599 128.136C187.054 128.136 186.572 127.999 186.154 127.723C185.737 127.445 185.41 127.053 185.174 126.547C184.939 126.038 184.821 125.438 184.821 124.744C184.821 124.057 184.939 123.46 185.174 122.955C185.41 122.449 185.738 122.058 186.159 121.783C186.579 121.507 187.065 121.369 187.616 121.369C188.042 121.369 188.379 121.44 188.626 121.582C188.876 121.722 189.066 121.881 189.197 122.06C189.331 122.236 189.434 122.381 189.508 122.494H189.593V119.273H190.599V128H189.627V126.994H189.508C189.434 127.114 189.329 127.264 189.193 127.446C189.056 127.625 188.862 127.786 188.609 127.928C188.356 128.067 188.02 128.136 187.599 128.136ZM187.735 127.233C188.139 127.233 188.48 127.128 188.758 126.918C189.037 126.705 189.248 126.411 189.393 126.036C189.538 125.658 189.61 125.222 189.61 124.727C189.61 124.239 189.539 123.811 189.397 123.445C189.255 123.075 189.045 122.788 188.767 122.584C188.488 122.376 188.145 122.273 187.735 122.273C187.309 122.273 186.954 122.382 186.67 122.601C186.389 122.817 186.177 123.111 186.035 123.483C185.896 123.852 185.826 124.267 185.826 124.727C185.826 125.193 185.897 125.616 186.039 125.997C186.184 126.375 186.397 126.676 186.679 126.901C186.963 127.122 187.315 127.233 187.735 127.233ZM194.507 128.153C194.092 128.153 193.716 128.075 193.377 127.919C193.039 127.76 192.771 127.531 192.572 127.233C192.373 126.932 192.274 126.568 192.274 126.142C192.274 125.767 192.348 125.463 192.495 125.23C192.643 124.994 192.841 124.81 193.088 124.676C193.335 124.543 193.608 124.443 193.906 124.378C194.207 124.31 194.51 124.256 194.814 124.216C195.211 124.165 195.534 124.126 195.781 124.101C196.031 124.072 196.213 124.026 196.326 123.96C196.443 123.895 196.501 123.781 196.501 123.619V123.585C196.501 123.165 196.386 122.838 196.156 122.605C195.929 122.372 195.583 122.256 195.12 122.256C194.64 122.256 194.264 122.361 193.991 122.571C193.718 122.781 193.527 123.006 193.416 123.244L192.461 122.903C192.632 122.506 192.859 122.196 193.143 121.974C193.43 121.75 193.743 121.594 194.081 121.506C194.422 121.415 194.757 121.369 195.086 121.369C195.297 121.369 195.538 121.395 195.811 121.446C196.086 121.494 196.352 121.595 196.608 121.749C196.866 121.902 197.081 122.134 197.251 122.443C197.422 122.753 197.507 123.168 197.507 123.688V128H196.501V127.114H196.45C196.382 127.256 196.268 127.408 196.109 127.57C195.95 127.732 195.738 127.869 195.474 127.983C195.21 128.097 194.887 128.153 194.507 128.153ZM194.66 127.25C195.058 127.25 195.393 127.172 195.666 127.016C195.941 126.859 196.149 126.658 196.288 126.411C196.43 126.163 196.501 125.903 196.501 125.631V124.71C196.458 124.761 196.365 124.808 196.22 124.851C196.078 124.891 195.913 124.926 195.725 124.957C195.541 124.986 195.36 125.011 195.184 125.034C195.011 125.054 194.87 125.071 194.762 125.085C194.501 125.119 194.257 125.175 194.029 125.251C193.805 125.325 193.623 125.437 193.484 125.588C193.348 125.736 193.279 125.937 193.279 126.193C193.279 126.543 193.409 126.807 193.667 126.986C193.929 127.162 194.26 127.25 194.66 127.25ZM202.189 121.455V122.307H198.797V121.455H202.189ZM199.786 119.886H200.791V126.125C200.791 126.409 200.832 126.622 200.915 126.764C201 126.903 201.108 126.997 201.239 127.045C201.372 127.091 201.513 127.114 201.661 127.114C201.771 127.114 201.862 127.108 201.933 127.097C202.004 127.082 202.061 127.071 202.104 127.062L202.308 127.966C202.24 127.991 202.145 128.017 202.023 128.043C201.901 128.071 201.746 128.085 201.558 128.085C201.274 128.085 200.996 128.024 200.723 127.902C200.453 127.78 200.229 127.594 200.05 127.344C199.874 127.094 199.786 126.778 199.786 126.398V119.886ZM206.376 128.136C205.745 128.136 205.201 127.997 204.744 127.719C204.289 127.438 203.938 127.045 203.691 126.543C203.447 126.037 203.325 125.449 203.325 124.778C203.325 124.108 203.447 123.517 203.691 123.006C203.938 122.491 204.282 122.091 204.722 121.804C205.165 121.514 205.683 121.369 206.273 121.369C206.614 121.369 206.951 121.426 207.283 121.54C207.616 121.653 207.918 121.838 208.191 122.094C208.464 122.347 208.681 122.682 208.843 123.099C209.005 123.517 209.086 124.031 209.086 124.642V125.068H204.04V124.199H208.063C208.063 123.83 207.989 123.5 207.842 123.21C207.697 122.92 207.489 122.692 207.219 122.524C206.952 122.357 206.637 122.273 206.273 122.273C205.873 122.273 205.526 122.372 205.234 122.571C204.944 122.767 204.721 123.023 204.565 123.338C204.408 123.653 204.33 123.991 204.33 124.352V124.932C204.33 125.426 204.415 125.845 204.586 126.189C204.759 126.53 204.999 126.79 205.306 126.969C205.613 127.145 205.969 127.233 206.376 127.233C206.64 127.233 206.879 127.196 207.092 127.122C207.308 127.045 207.494 126.932 207.65 126.781C207.806 126.628 207.927 126.437 208.012 126.21L208.984 126.483C208.881 126.812 208.71 127.102 208.468 127.352C208.227 127.599 207.928 127.793 207.573 127.932C207.218 128.068 206.819 128.136 206.376 128.136ZM171.75 142H169.057V133.273H171.869C172.716 133.273 173.44 133.447 174.043 133.797C174.645 134.143 175.107 134.642 175.428 135.293C175.749 135.94 175.909 136.716 175.909 137.619C175.909 138.528 175.747 139.311 175.423 139.967C175.099 140.621 174.628 141.124 174.009 141.476C173.389 141.825 172.636 142 171.75 142ZM170.114 141.062H171.682C172.403 141.062 173.001 140.923 173.476 140.645C173.95 140.366 174.304 139.97 174.537 139.456C174.77 138.942 174.886 138.33 174.886 137.619C174.886 136.915 174.771 136.308 174.541 135.8C174.311 135.288 173.967 134.896 173.51 134.624C173.053 134.348 172.483 134.21 171.801 134.21H170.114V141.062ZM180.29 142.136C179.659 142.136 179.115 141.997 178.658 141.719C178.203 141.438 177.852 141.045 177.605 140.543C177.361 140.037 177.239 139.449 177.239 138.778C177.239 138.108 177.361 137.517 177.605 137.006C177.852 136.491 178.196 136.091 178.636 135.804C179.08 135.514 179.597 135.369 180.188 135.369C180.528 135.369 180.865 135.426 181.197 135.54C181.53 135.653 181.832 135.838 182.105 136.094C182.378 136.347 182.595 136.682 182.757 137.099C182.919 137.517 183 138.031 183 138.642V139.068H177.955V138.199H181.977C181.977 137.83 181.903 137.5 181.756 137.21C181.611 136.92 181.403 136.692 181.134 136.524C180.866 136.357 180.551 136.273 180.188 136.273C179.787 136.273 179.44 136.372 179.148 136.571C178.858 136.767 178.635 137.023 178.479 137.338C178.322 137.653 178.244 137.991 178.244 138.352V138.932C178.244 139.426 178.33 139.845 178.5 140.189C178.673 140.53 178.913 140.79 179.22 140.969C179.527 141.145 179.884 141.233 180.29 141.233C180.554 141.233 180.793 141.196 181.006 141.122C181.222 141.045 181.408 140.932 181.564 140.781C181.72 140.628 181.841 140.437 181.926 140.21L182.898 140.483C182.795 140.812 182.624 141.102 182.382 141.352C182.141 141.599 181.842 141.793 181.487 141.932C181.132 142.068 180.733 142.136 180.29 142.136ZM185.536 133.273V142H184.53V133.273H185.536ZM190.122 142.136C189.491 142.136 188.947 141.997 188.49 141.719C188.035 141.438 187.684 141.045 187.437 140.543C187.193 140.037 187.071 139.449 187.071 138.778C187.071 138.108 187.193 137.517 187.437 137.006C187.684 136.491 188.028 136.091 188.468 135.804C188.912 135.514 189.429 135.369 190.02 135.369C190.36 135.369 190.697 135.426 191.029 135.54C191.362 135.653 191.664 135.838 191.937 136.094C192.21 136.347 192.427 136.682 192.589 137.099C192.751 137.517 192.832 138.031 192.832 138.642V139.068H187.787V138.199H191.809C191.809 137.83 191.735 137.5 191.588 137.21C191.443 136.92 191.235 136.692 190.966 136.524C190.699 136.357 190.383 136.273 190.02 136.273C189.619 136.273 189.272 136.372 188.98 136.571C188.69 136.767 188.467 137.023 188.311 137.338C188.154 137.653 188.076 137.991 188.076 138.352V138.932C188.076 139.426 188.162 139.845 188.332 140.189C188.505 140.53 188.745 140.79 189.052 140.969C189.359 141.145 189.716 141.233 190.122 141.233C190.386 141.233 190.625 141.196 190.838 141.122C191.054 141.045 191.24 140.932 191.396 140.781C191.552 140.628 191.673 140.437 191.758 140.21L192.73 140.483C192.627 140.812 192.456 141.102 192.214 141.352C191.973 141.599 191.674 141.793 191.319 141.932C190.964 142.068 190.565 142.136 190.122 142.136ZM197.208 135.455V136.307H193.816V135.455H197.208ZM194.805 133.886H195.811V140.125C195.811 140.409 195.852 140.622 195.934 140.764C196.02 140.903 196.127 140.997 196.258 141.045C196.392 141.091 196.532 141.114 196.68 141.114C196.791 141.114 196.882 141.108 196.953 141.097C197.024 141.082 197.081 141.071 197.123 141.062L197.328 141.966C197.26 141.991 197.164 142.017 197.042 142.043C196.92 142.071 196.765 142.085 196.578 142.085C196.294 142.085 196.015 142.024 195.743 141.902C195.473 141.78 195.248 141.594 195.069 141.344C194.893 141.094 194.805 140.778 194.805 140.398V133.886ZM201.395 142.136C200.765 142.136 200.221 141.997 199.763 141.719C199.309 141.438 198.958 141.045 198.711 140.543C198.466 140.037 198.344 139.449 198.344 138.778C198.344 138.108 198.466 137.517 198.711 137.006C198.958 136.491 199.301 136.091 199.742 135.804C200.185 135.514 200.702 135.369 201.293 135.369C201.634 135.369 201.971 135.426 202.303 135.54C202.635 135.653 202.938 135.838 203.211 136.094C203.483 136.347 203.701 136.682 203.863 137.099C204.025 137.517 204.105 138.031 204.105 138.642V139.068H199.06V138.199H203.083C203.083 137.83 203.009 137.5 202.861 137.21C202.716 136.92 202.509 136.692 202.239 136.524C201.972 136.357 201.657 136.273 201.293 136.273C200.892 136.273 200.546 136.372 200.253 136.571C199.963 136.767 199.74 137.023 199.584 137.338C199.428 137.653 199.35 137.991 199.35 138.352V138.932C199.35 139.426 199.435 139.845 199.605 140.189C199.779 140.53 200.019 140.79 200.326 140.969C200.632 141.145 200.989 141.233 201.395 141.233C201.659 141.233 201.898 141.196 202.111 141.122C202.327 141.045 202.513 140.932 202.669 140.781C202.826 140.628 202.946 140.437 203.032 140.21L204.003 140.483C203.901 140.812 203.729 141.102 203.488 141.352C203.246 141.599 202.948 141.793 202.593 141.932C202.238 142.068 201.838 142.136 201.395 142.136Z" fill="white"/>
<rect x="160.5" y="257.5" width="57" height="29" rx="11.5" fill="url(#paint7_linear_36_577)" fill-opacity="0.1"/>
<rect x="160.5" y="257.5" width="57" height="29" rx="11.5" stroke="#2F3033"/>
<path d="M177.064 269.455C177.013 269.023 176.805 268.688 176.442 268.449C176.078 268.21 175.632 268.091 175.104 268.091C174.717 268.091 174.379 268.153 174.089 268.278C173.803 268.403 173.578 268.575 173.416 268.794C173.257 269.013 173.178 269.261 173.178 269.54C173.178 269.773 173.233 269.973 173.344 270.141C173.457 270.305 173.602 270.443 173.778 270.554C173.955 270.662 174.139 270.751 174.332 270.822C174.526 270.891 174.703 270.946 174.865 270.989L175.751 271.227C175.979 271.287 176.232 271.369 176.51 271.474C176.791 271.58 177.06 271.723 177.315 271.905C177.574 272.084 177.787 272.314 177.955 272.595C178.122 272.876 178.206 273.222 178.206 273.631C178.206 274.102 178.082 274.528 177.835 274.909C177.591 275.29 177.233 275.592 176.761 275.817C176.293 276.041 175.723 276.153 175.053 276.153C174.428 276.153 173.886 276.053 173.429 275.851C172.974 275.649 172.616 275.368 172.355 275.007C172.097 274.646 171.95 274.227 171.916 273.75H173.007C173.036 274.08 173.146 274.352 173.339 274.568C173.536 274.781 173.783 274.94 174.081 275.045C174.382 275.148 174.706 275.199 175.053 275.199C175.456 275.199 175.818 275.134 176.139 275.003C176.46 274.869 176.714 274.685 176.902 274.449C177.089 274.21 177.183 273.932 177.183 273.614C177.183 273.324 177.102 273.088 176.94 272.906C176.778 272.724 176.565 272.577 176.301 272.463C176.037 272.349 175.751 272.25 175.445 272.165L174.371 271.858C173.689 271.662 173.149 271.382 172.751 271.018C172.354 270.655 172.155 270.179 172.155 269.591C172.155 269.102 172.287 268.676 172.551 268.312C172.818 267.946 173.176 267.662 173.625 267.46C174.077 267.256 174.581 267.153 175.138 267.153C175.7 267.153 176.2 267.254 176.638 267.456C177.075 267.655 177.422 267.928 177.678 268.274C177.936 268.621 178.072 269.014 178.087 269.455H177.064ZM182.551 276.136C181.921 276.136 181.377 275.997 180.919 275.719C180.465 275.438 180.114 275.045 179.867 274.543C179.623 274.037 179.5 273.449 179.5 272.778C179.5 272.108 179.623 271.517 179.867 271.006C180.114 270.491 180.458 270.091 180.898 269.804C181.341 269.514 181.858 269.369 182.449 269.369C182.79 269.369 183.127 269.426 183.459 269.54C183.792 269.653 184.094 269.838 184.367 270.094C184.64 270.347 184.857 270.682 185.019 271.099C185.181 271.517 185.262 272.031 185.262 272.642V273.068H180.216V272.199H184.239C184.239 271.83 184.165 271.5 184.017 271.21C183.873 270.92 183.665 270.692 183.395 270.524C183.128 270.357 182.813 270.273 182.449 270.273C182.049 270.273 181.702 270.372 181.409 270.571C181.12 270.767 180.897 271.023 180.74 271.338C180.584 271.653 180.506 271.991 180.506 272.352V272.932C180.506 273.426 180.591 273.845 180.762 274.189C180.935 274.53 181.175 274.79 181.482 274.969C181.789 275.145 182.145 275.233 182.551 275.233C182.816 275.233 183.054 275.196 183.267 275.122C183.483 275.045 183.669 274.932 183.826 274.781C183.982 274.628 184.103 274.437 184.188 274.21L185.159 274.483C185.057 274.812 184.885 275.102 184.644 275.352C184.402 275.599 184.104 275.793 183.749 275.932C183.394 276.068 182.995 276.136 182.551 276.136ZM187.797 267.273V276H186.792V267.273H187.797ZM192.384 276.136C191.753 276.136 191.209 275.997 190.751 275.719C190.297 275.438 189.946 275.045 189.699 274.543C189.455 274.037 189.332 273.449 189.332 272.778C189.332 272.108 189.455 271.517 189.699 271.006C189.946 270.491 190.29 270.091 190.73 269.804C191.173 269.514 191.69 269.369 192.281 269.369C192.622 269.369 192.959 269.426 193.291 269.54C193.624 269.653 193.926 269.838 194.199 270.094C194.472 270.347 194.689 270.682 194.851 271.099C195.013 271.517 195.094 272.031 195.094 272.642V273.068H190.048V272.199H194.071C194.071 271.83 193.997 271.5 193.849 271.21C193.705 270.92 193.497 270.692 193.227 270.524C192.96 270.357 192.645 270.273 192.281 270.273C191.881 270.273 191.534 270.372 191.241 270.571C190.952 270.767 190.729 271.023 190.572 271.338C190.416 271.653 190.338 271.991 190.338 272.352V272.932C190.338 273.426 190.423 273.845 190.594 274.189C190.767 274.53 191.007 274.79 191.314 274.969C191.621 275.145 191.977 275.233 192.384 275.233C192.648 275.233 192.886 275.196 193.099 275.122C193.315 275.045 193.501 274.932 193.658 274.781C193.814 274.628 193.935 274.437 194.02 274.21L194.991 274.483C194.889 274.812 194.717 275.102 194.476 275.352C194.234 275.599 193.936 275.793 193.581 275.932C193.226 276.068 192.827 276.136 192.384 276.136ZM199.283 276.136C198.669 276.136 198.141 275.991 197.697 275.702C197.254 275.412 196.913 275.013 196.675 274.504C196.436 273.996 196.317 273.415 196.317 272.761C196.317 272.097 196.439 271.51 196.683 271.001C196.93 270.49 197.274 270.091 197.714 269.804C198.158 269.514 198.675 269.369 199.266 269.369C199.726 269.369 200.141 269.455 200.51 269.625C200.879 269.795 201.182 270.034 201.418 270.341C201.653 270.648 201.8 271.006 201.857 271.415H200.851C200.774 271.116 200.604 270.852 200.339 270.622C200.078 270.389 199.726 270.273 199.283 270.273C198.891 270.273 198.547 270.375 198.251 270.58C197.959 270.781 197.73 271.067 197.565 271.436C197.403 271.803 197.322 272.233 197.322 272.727C197.322 273.233 197.402 273.673 197.561 274.048C197.723 274.423 197.95 274.714 198.243 274.922C198.538 275.129 198.885 275.233 199.283 275.233C199.544 275.233 199.781 275.188 199.994 275.097C200.207 275.006 200.388 274.875 200.536 274.705C200.683 274.534 200.788 274.33 200.851 274.091H201.857C201.8 274.477 201.659 274.825 201.435 275.135C201.213 275.442 200.919 275.686 200.553 275.868C200.189 276.047 199.766 276.136 199.283 276.136ZM206.173 269.455V270.307H202.781V269.455H206.173ZM203.77 267.886H204.776V274.125C204.776 274.409 204.817 274.622 204.899 274.764C204.984 274.903 205.092 274.997 205.223 275.045C205.357 275.091 205.497 275.114 205.645 275.114C205.756 275.114 205.847 275.108 205.918 275.097C205.989 275.082 206.045 275.071 206.088 275.062L206.293 275.966C206.224 275.991 206.129 276.017 206.007 276.043C205.885 276.071 205.73 276.085 205.543 276.085C205.259 276.085 204.98 276.024 204.707 275.902C204.438 275.78 204.213 275.594 204.034 275.344C203.858 275.094 203.77 274.778 203.77 274.398V267.886Z" fill="white"/>
<defs>
<filter id="filter0_f_36_577" x="259.792" y="261" width="22" height="22" filterUnits="userSpaceOnUse" color-interpolation-filters="sRGB">
<feFlood flood-opacity="0" result="BackgroundImageFix"/>
<feBlend mode="normal" in="SourceGraphic" in2="BackgroundImageFix" result="shape"/>
<feGaussianBlur stdDeviation="2" result="effect1_foregroundBlur_36_577"/>
</filter>
<filter id="filter1_f_36_577" x="259.792" y="113" width="22" height="22" filterUnits="userSpaceOnUse" color-interpolation-filters="sRGB">
<feFlood flood-opacity="0" result="BackgroundImageFix"/>
<feBlend mode="normal" in="SourceGraphic" in2="BackgroundImageFix" result="shape"/>
<feGaussianBlur stdDeviation="2" result="effect1_foregroundBlur_36_577"/>
</filter>
<linearGradient id="paint0_linear_36_577" x1="179" y1="254.41" x2="271.294" y2="254.41" gradientUnits="userSpaceOnUse">
<stop stop-color="#19D58D"/>
<stop offset="1" stop-color="#3FB3FF"/>
</linearGradient>
<linearGradient id="paint1_linear_36_577" x1="180" y1="141.59" x2="271.294" y2="141.59" gradientUnits="userSpaceOnUse">
<stop stop-color="#19D58D"/>
<stop offset="1" stop-color="#6B4AFF"/>
</linearGradient>
<linearGradient id="paint2_linear_36_577" x1="390.294" y1="227" x2="281.796" y2="346.448" gradientUnits="userSpaceOnUse">
<stop stop-color="#3EDCFF"/>
<stop offset="1" stop-color="#3E9AFF"/>
</linearGradient>
<linearGradient id="paint3_linear_36_577" x1="390.294" y1="208" x2="368.421" y2="277.073" gradientUnits="userSpaceOnUse">
<stop stop-color="#3EDCFF"/>
<stop offset="1" stop-color="#3E9AFF"/>
</linearGradient>
<linearGradient id="paint4_linear_36_577" x1="270.294" y1="188" x2="378.793" y2="68.5525" gradientUnits="userSpaceOnUse">
<stop stop-color="#5337FF"/>
<stop offset="1" stop-color="#A175FF"/>
</linearGradient>
<linearGradient id="paint5_linear_36_577" x1="270.294" y1="98" x2="292.168" y2="28.9265" gradientUnits="userSpaceOnUse">
<stop stop-color="#5337FF"/>
<stop offset="1" stop-color="#A175FF"/>
</linearGradient>
<linearGradient id="paint6_linear_36_577" x1="160" y1="153" x2="218" y2="95" gradientUnits="userSpaceOnUse">
<stop stop-color="#5337FF"/>
<stop offset="1" stop-color="#A175FF"/>
</linearGradient>
<linearGradient id="paint7_linear_36_577" x1="160" y1="287" x2="184.484" y2="239.664" gradientUnits="userSpaceOnUse">
<stop stop-color="#5337FF"/>
<stop offset="1" stop-color="#A175FF"/>
</linearGradient>
<clipPath id="clip0_36_577">
<rect width="34" height="38" fill="white" transform="translate(103 164)"/>
</clipPath>
</defs>
</svg>
