<?xml version="1.0" encoding="utf-8"?>
<!-- Generator: Adobe Illustrator 28.3.0, SVG Export Plug-In . SVG Version: 6.00 Build 0)  -->
<svg version="1.1" id="Layer_1" xmlns="http://www.w3.org/2000/svg" xmlns:xlink="http://www.w3.org/1999/xlink" x="0px" y="0px"
	 viewBox="0 0 1290.7 1500" style="enable-background:new 0 0 1290.7 1500;" xml:space="preserve">
<g>
	<g>
		<defs>
			<path id="SVGID_1_" d="M946.9,541.2c-51.3,0-99.5,19.9-135.7,56.1c0,0,0,0,0,0c-58.4,58.4-72.5,146.6-36.9,219.7l-128.9,83.9
				L516.5,817c35.6-73.1,21.5-161.3-36.9-219.7c-36.2-36.2-84.4-56.1-135.7-56.1c0,0,0,0,0,0c-51.3,0-99.5,19.9-135.7,56.1
				C172,633.5,152,681.7,152,733c0,51.3,19.9,99.5,56.1,135.7c36.2,36.2,84.4,56.1,135.7,56.1c36.1,0,70.9-9.9,101.2-28.8
				l147.7,96.2v103.3c-81.5,23.3-139.3,98.8-139.3,184.6c0,105.8,86.1,191.9,191.9,191.9s191.9-86.1,191.9-191.9
				c0-85.8-57.8-161.3-139.3-184.6V992.2l147.7-96.2c30.3,18.9,65.1,28.8,101.2,28.8c51.3,0,99.5-19.9,135.7-56.1
				c74.8-74.8,74.8-196.6,0-271.4C1046.4,561.1,998.2,541.2,946.9,541.2z M1008.2,794.4c-33.7,33.7-88.7,33.8-122.5,0.1
				c0,0-0.1-0.1-0.1-0.1l-0.3-0.3c-33.6-33.8-33.5-88.7,0.2-122.4c16.3-16.3,38.1-25.4,61.3-25.4c23.2,0,45,9,61.3,25.4
				C1042.1,705.5,1042.1,760.5,1008.2,794.4z M732.1,1280.2c0,47.8-38.9,86.7-86.7,86.7s-86.7-38.9-86.7-86.7
				c0-47.8,38.9-86.7,86.7-86.7S732.1,1232.3,732.1,1280.2z M282.5,794.4L282.5,794.4c-16.3-16.3-25.4-38.1-25.4-61.3
				c0-23.2,9-45,25.4-61.3c16.3-16.3,38.1-25.4,61.3-25.4c23.2,0,45,9,61.3,25.4c16.3,16.3,25.4,38.1,25.4,61.3
				c0,23.1-8.9,44.8-25.2,61.1l-0.4,0.4C371.2,828.2,316.3,828.1,282.5,794.4z"/>
		</defs>
		<clipPath id="SVGID_00000119076508056648399060000013635313113015570065_">
			<use xlink:href="#SVGID_1_"  style="overflow:visible;"/>
		</clipPath>
		
			<linearGradient id="SVGID_00000031906526344871235700000017652582792784120229_" gradientUnits="userSpaceOnUse" x1="-107.7263" y1="1508.5135" x2="1445.3259" y2="-44.5387">
			<stop  offset="0" style="stop-color:#FF417A"/>
			<stop  offset="0.3333" style="stop-color:#BD00FF"/>
			<stop  offset="0.6666" style="stop-color:#3452F0"/>
			<stop  offset="1" style="stop-color:#00D1FF"/>
		</linearGradient>
		
			<rect x="-76.2" y="-76.1" style="clip-path:url(#SVGID_00000119076508056648399060000013635313113015570065_);fill:url(#SVGID_00000031906526344871235700000017652582792784120229_);" width="1490" height="1616.1"/>
	</g>
	<g>
		<defs>
			<path id="SVGID_00000022535808193020550200000014811097901898538625_" d="M1279.5,416.6l-92-349.5c-5.1-19.5-21.2-34.5-41-38.3
				c-19.8-3.8-40.3,4.3-52.2,20.5L862.1,364.5c-68.5-28-143.1-42.7-216.8-42.8c-73.6,0-148.3,14.8-216.8,42.8l-232-315.1
				c-11.9-16.2-32.4-24.3-52.2-20.5c-19.8,3.8-35.9,18.8-41,38.3L11.2,416.6c-3.6,13.6-1.7,27.8,5.4,39.9
				c7.1,12.1,18.5,20.8,32,24.4c13.6,3.6,27.8,1.7,39.9-5.4c12.1-7.1,20.8-18.5,24.4-32L177,200.3l192.1,260.9
				c15.3,20.8,43.2,27.4,66.2,15.7c131.5-66.4,288.6-66.4,420.1,0.1c7.6,3.8,15.7,5.7,23.8,5.7c16.2,0,32.1-7.6,42.3-21.4
				l192.2-260.9l64,243.1c6.1,23.1,27,39.2,50.8,39.2c4.5,0,9-0.6,13.4-1.7c13.6-3.6,25-12.2,32-24.4
				C1281.1,444.4,1283,430.2,1279.5,416.6z"/>
		</defs>
		<clipPath id="SVGID_00000160892283191952050940000016608330304830399622_">
			<use xlink:href="#SVGID_00000022535808193020550200000014811097901898538625_"  style="overflow:visible;"/>
		</clipPath>
		
			<linearGradient id="SVGID_00000018215637855022765170000014295346133922378933_" gradientUnits="userSpaceOnUse" x1="-107.7263" y1="1508.5135" x2="1445.3259" y2="-44.5387">
			<stop  offset="0" style="stop-color:#FF417A"/>
			<stop  offset="0.3333" style="stop-color:#BD00FF"/>
			<stop  offset="0.6666" style="stop-color:#3452F0"/>
			<stop  offset="1" style="stop-color:#00D1FF"/>
		</linearGradient>
		
			<rect x="-76.2" y="-76.1" style="clip-path:url(#SVGID_00000160892283191952050940000016608330304830399622_);fill:url(#SVGID_00000018215637855022765170000014295346133922378933_);" width="1490" height="1616.1"/>
	</g>
</g>
</svg>
