<svg version="1.1" viewBox="0.0 0.0 600.0 371.0" fill="none" stroke="none" stroke-linecap="square" stroke-miterlimit="10" width="600" height="371" xmlns:xlink="http://www.w3.org/1999/xlink" xmlns="http://www.w3.org/2000/svg"><path fill="#ffffff" d="M0 0L600.0 0L600.0 371.0L0 371.0L0 0Z" fill-rule="nonzero"/><path stroke="#333333" stroke-width="1.0" stroke-linecap="butt" d="M91.5 300.5L581.5 300.5" fill-rule="nonzero"/><path stroke="#cccccc" stroke-width="1.0" stroke-linecap="butt" d="M91.5 258.5L581.5 258.5" fill-rule="nonzero"/><path stroke="#cccccc" stroke-width="1.0" stroke-linecap="butt" d="M91.5 215.5L581.5 215.5" fill-rule="nonzero"/><path stroke="#cccccc" stroke-width="1.0" stroke-linecap="butt" d="M91.5 173.5L581.5 173.5" fill-rule="nonzero"/><path stroke="#cccccc" stroke-width="1.0" stroke-linecap="butt" d="M91.5 130.5L581.5 130.5" fill-rule="nonzero"/><path stroke="#cccccc" stroke-width="1.0" stroke-linecap="butt" d="M91.5 88.5L581.5 88.5" fill-rule="nonzero"/><clipPath id="id_0"><path d="M91.55 88.28333L581.45 88.28333L581.45 300.45L91.55 300.45L91.55 88.28333Z" clip-rule="nonzero"/></clipPath><path stroke="#000000" stroke-width="2.0" stroke-linecap="butt" stroke-opacity="0.0" clip-path="url(#id_0)" d="M155.0 300.0L133.0 300.0L133.0 258.0C133.0 256.89542 133.89543 256.0 135.0 256.0L153.0 256.0C154.10457 256.0 155.0 256.89542 155.0 258.0Z" fill-rule="nonzero"/><path fill="#4285f4" clip-path="url(#id_0)" d="M155.0 300.0L133.0 300.0L133.0 258.0C133.0 256.89542 133.89543 256.0 135.0 256.0L153.0 256.0C154.10457 256.0 155.0 256.89542 155.0 258.0Z" fill-rule="nonzero"/><path stroke="#000000" stroke-width="2.0" stroke-linecap="butt" stroke-opacity="0.0" clip-path="url(#id_0)" d="M267.0 300.0L245.0 300.0L245.0 179.0C245.0 177.89543 245.89543 177.0 247.0 177.0L265.0 177.0C266.10458 177.0 267.0 177.89543 267.0 179.0Z" fill-rule="nonzero"/><path fill="#4285f4" clip-path="url(#id_0)" d="M267.0 300.0L245.0 300.0L245.0 179.0C245.0 177.89543 245.89543 177.0 247.0 177.0L265.0 177.0C266.10458 177.0 267.0 177.89543 267.0 179.0Z" fill-rule="nonzero"/><path stroke="#000000" stroke-width="2.0" stroke-linecap="butt" stroke-opacity="0.0" clip-path="url(#id_0)" d="M380.0 300.0L358.0 300.0L358.0 182.0C358.0 180.89543 358.89542 180.0 360.0 180.0L378.0 180.0C379.10458 180.0 380.0 180.89543 380.0 182.0Z" fill-rule="nonzero"/><path fill="#4285f4" clip-path="url(#id_0)" d="M380.0 300.0L358.0 300.0L358.0 182.0C358.0 180.89543 358.89542 180.0 360.0 180.0L378.0 180.0C379.10458 180.0 380.0 180.89543 380.0 182.0Z" fill-rule="nonzero"/><path stroke="#000000" stroke-width="2.0" stroke-linecap="butt" stroke-opacity="0.0" clip-path="url(#id_0)" d="M492.0 300.0L470.0 300.0L470.0 190.0C470.0 188.89543 470.89542 188.0 472.0 188.0L490.0 188.0C491.10458 188.0 492.0 188.89543 492.0 190.0Z" fill-rule="nonzero"/><path fill="#4285f4" clip-path="url(#id_0)" d="M492.0 300.0L470.0 300.0L470.0 190.0C470.0 188.89543 470.89542 188.0 472.0 188.0L490.0 188.0C491.10458 188.0 492.0 188.89543 492.0 190.0Z" fill-rule="nonzero"/><path stroke="#000000" stroke-width="2.0" stroke-linecap="butt" stroke-opacity="0.0" clip-path="url(#id_0)" d="M179.0 300.0L157.0 300.0L157.0 266.0C157.0 264.89542 157.89543 264.0 159.0 264.0L177.0 264.0C178.10457 264.0 179.0 264.89542 179.0 266.0Z" fill-rule="nonzero"/><path fill="#ea4335" clip-path="url(#id_0)" d="M179.0 300.0L157.0 300.0L157.0 266.0C157.0 264.89542 157.89543 264.0 159.0 264.0L177.0 264.0C178.10457 264.0 179.0 264.89542 179.0 266.0Z" fill-rule="nonzero"/><path stroke="#000000" stroke-width="2.0" stroke-linecap="butt" stroke-opacity="0.0" clip-path="url(#id_0)" d="M291.0 300.0L269.0 300.0L269.0 195.0C269.0 193.89543 269.89542 193.0 271.0 193.0L289.0 193.0C290.10458 193.0 291.0 193.89543 291.0 195.0Z" fill-rule="nonzero"/><path fill="#ea4335" clip-path="url(#id_0)" d="M291.0 300.0L269.0 300.0L269.0 195.0C269.0 193.89543 269.89542 193.0 271.0 193.0L289.0 193.0C290.10458 193.0 291.0 193.89543 291.0 195.0Z" fill-rule="nonzero"/><path stroke="#000000" stroke-width="2.0" stroke-linecap="butt" stroke-opacity="0.0" clip-path="url(#id_0)" d="M404.0 300.0L382.0 300.0L382.0 196.0C382.0 194.89543 382.89542 194.0 384.0 194.0L402.0 194.0C403.10458 194.0 404.0 194.89543 404.0 196.0Z" fill-rule="nonzero"/><path fill="#ea4335" clip-path="url(#id_0)" d="M404.0 300.0L382.0 300.0L382.0 196.0C382.0 194.89543 382.89542 194.0 384.0 194.0L402.0 194.0C403.10458 194.0 404.0 194.89543 404.0 196.0Z" fill-rule="nonzero"/><path stroke="#000000" stroke-width="2.0" stroke-linecap="butt" stroke-opacity="0.0" clip-path="url(#id_0)" d="M516.0 300.0L494.0 300.0L494.0 203.0C494.0 201.89543 494.89542 201.0 496.0 201.0L514.0 201.0C515.10455 201.0 516.0 201.89543 516.0 203.0Z" fill-rule="nonzero"/><path fill="#ea4335" clip-path="url(#id_0)" d="M516.0 300.0L494.0 300.0L494.0 203.0C494.0 201.89543 494.89542 201.0 496.0 201.0L514.0 201.0C515.10455 201.0 516.0 201.89543 516.0 203.0Z" fill-rule="nonzero"/><path stroke="#000000" stroke-width="2.0" stroke-linecap="butt" stroke-opacity="0.0" clip-path="url(#id_0)" d="M203.0 300.0L181.0 300.0L181.0 269.0C181.0 267.89542 181.89543 267.0 183.0 267.0L201.0 267.0C202.10457 267.0 203.0 267.89542 203.0 269.0Z" fill-rule="nonzero"/><path fill="#fbbc04" clip-path="url(#id_0)" d="M203.0 300.0L181.0 300.0L181.0 269.0C181.0 267.89542 181.89543 267.0 183.0 267.0L201.0 267.0C202.10457 267.0 203.0 267.89542 203.0 269.0Z" fill-rule="nonzero"/><path stroke="#000000" stroke-width="2.0" stroke-linecap="butt" stroke-opacity="0.0" clip-path="url(#id_0)" d="M315.0 300.0L293.0 300.0L293.0 147.0C293.0 145.89543 293.89542 145.0 295.0 145.0L313.0 145.0C314.10458 145.0 315.0 145.89543 315.0 147.0Z" fill-rule="nonzero"/><path fill="#fbbc04" clip-path="url(#id_0)" d="M315.0 300.0L293.0 300.0L293.0 147.0C293.0 145.89543 293.89542 145.0 295.0 145.0L313.0 145.0C314.10458 145.0 315.0 145.89543 315.0 147.0Z" fill-rule="nonzero"/><path stroke="#000000" stroke-width="2.0" stroke-linecap="butt" stroke-opacity="0.0" clip-path="url(#id_0)" d="M428.0 300.0L406.0 300.0L406.0 131.0C406.0 129.89543 406.89542 129.0 408.0 129.0L426.0 129.0C427.10458 129.0 428.0 129.89543 428.0 131.0Z" fill-rule="nonzero"/><path fill="#fbbc04" clip-path="url(#id_0)" d="M428.0 300.0L406.0 300.0L406.0 131.0C406.0 129.89543 406.89542 129.0 408.0 129.0L426.0 129.0C427.10458 129.0 428.0 129.89543 428.0 131.0Z" fill-rule="nonzero"/><path stroke="#000000" stroke-width="2.0" stroke-linecap="butt" stroke-opacity="0.0" clip-path="url(#id_0)" d="M540.0 300.0L518.0 300.0L518.0 171.0C518.0 169.89543 518.89545 169.0 520.0 169.0L538.0 169.0C539.10455 169.0 540.0 169.89543 540.0 171.0Z" fill-rule="nonzero"/><path fill="#fbbc04" clip-path="url(#id_0)" d="M540.0 300.0L518.0 300.0L518.0 171.0C518.0 169.89543 518.89545 169.0 520.0 169.0L538.0 169.0C539.10455 169.0 540.0 169.89543 540.0 171.0Z" fill-rule="nonzero"/><path fill="#000000" d="M288.92188 349.45L288.92188 340.85626L290.07812 340.85626L294.59375 347.60626L294.59375 340.85626L295.6875 340.85626L295.6875 349.45L294.51562 349.45L290.0 342.7L290.0 349.45L288.92188 349.45ZM301.875 349.45L301.875 348.52814Q301.14062 349.59064 299.89062 349.59064Q299.34375 349.59064 298.85938 349.3875Q298.39062 349.16876 298.15625 348.85626Q297.92188 348.52814 297.82812 348.0594Q297.76562 347.7625 297.76562 347.075L297.76562 343.23126L298.82812 343.23126L298.82812 346.6844Q298.82812 347.4969 298.89062 347.79376Q298.98438 348.2 299.29688 348.45Q299.625 348.6844 300.10938 348.6844Q300.57812 348.6844 300.98438 348.45Q301.40625 348.2 301.57812 347.77814Q301.76562 347.35626 301.76562 346.5594L301.76562 343.23126L302.8125 343.23126L302.8125 349.45L301.875 349.45ZM304.79688 349.45L304.79688 343.23126L305.73438 343.23126L305.73438 344.10626Q306.03125 343.6375 306.51562 343.3719Q307.0 343.09064 307.625 343.09064Q308.3125 343.09064 308.75 343.3719Q309.20312 343.65314 309.375 344.16876Q310.125 343.09064 311.29688 343.09064Q312.23438 343.09064 312.71875 343.60626Q313.21875 344.10626 313.21875 345.1844L313.21875 349.45L312.17188 349.45L312.17188 345.52814Q312.17188 344.90314 312.0625 344.6219Q311.96875 344.34064 311.70312 344.16876Q311.4375 343.9969 311.0625 343.9969Q310.40625 343.9969 309.96875 344.4344Q309.54688 344.8719 309.54688 345.84064L309.54688 349.45L308.48438 349.45L308.48438 345.40314Q308.48438 344.7 308.21875 344.35626Q307.96875 343.9969 307.39062 343.9969Q306.9375 343.9969 306.5625 344.23126Q306.1875 344.46564 306.01562 344.91876Q305.84375 345.3719 305.84375 346.21564L305.84375 349.45L304.79688 349.45ZM316.76562 349.45L315.78125 349.45L315.78125 340.85626L316.84375 340.85626L316.84375 343.91876Q317.51562 343.09064 318.54688 343.09064Q319.125 343.09064 319.625 343.325Q320.14062 343.54376 320.46875 343.96564Q320.8125 344.3875 321.0 344.98126Q321.1875 345.575 321.1875 346.2469Q321.1875 347.84064 320.39062 348.71564Q319.59375 349.59064 318.5 349.59064Q317.39062 349.59064 316.76562 348.66876L316.76562 349.45ZM316.75 346.29376Q316.75 347.40314 317.0625 347.90314Q317.5625 348.71564 318.40625 348.71564Q319.09375 348.71564 319.59375 348.1219Q320.10938 347.52814 320.10938 346.325Q320.10938 345.10626 319.625 344.52814Q319.14062 343.95 318.45312 343.95Q317.76562 343.95 317.25 344.5594Q316.75 345.15314 316.75 346.29376ZM327.04688 347.45L328.14062 347.575Q327.89062 348.52814 327.1875 349.0594Q326.48438 349.59064 325.40625 349.59064Q324.04688 349.59064 323.23438 348.7469Q322.4375 347.90314 322.4375 346.3875Q322.4375 344.825 323.25 343.96564Q324.0625 343.09064 325.34375 343.09064Q326.59375 343.09064 327.375 343.9344Q328.17188 344.77814 328.17188 346.325Q328.17188 346.41876 328.17188 346.60626L323.53125 346.60626Q323.59375 347.6375 324.10938 348.1844Q324.625 348.71564 325.40625 348.71564Q325.98438 348.71564 326.39062 348.41876Q326.8125 348.10626 327.04688 347.45ZM323.59375 345.7469L327.0625 345.7469Q327.0 344.95 326.67188 344.5594Q326.15625 343.95 325.35938 343.95Q324.625 343.95 324.125 344.4344Q323.64062 344.91876 323.59375 345.7469ZM329.78125 349.45L329.78125 343.23126L330.73438 343.23126L330.73438 344.16876Q331.09375 343.5125 331.39062 343.3094Q331.70312 343.09064 332.07812 343.09064Q332.60938 343.09064 333.15625 343.41876L332.79688 344.40314Q332.40625 344.16876 332.03125 344.16876Q331.67188 344.16876 331.39062 344.3875Q331.125 344.59064 331.01562 344.96564Q330.82812 345.52814 330.82812 346.1844L330.82812 349.45L329.78125 349.45ZM336.40625 346.34064Q336.40625 344.60626 337.35938 343.77814Q338.15625 343.09064 339.3125 343.09064Q340.59375 343.09064 341.40625 343.9344Q342.23438 344.7625 342.23438 346.2469Q342.23438 347.45 341.875 348.1375Q341.51562 348.825 340.8125 349.21564Q340.125 349.59064 339.3125 349.59064Q338.01562 349.59064 337.20312 348.7625Q336.40625 347.91876 336.40625 346.34064ZM337.48438 346.34064Q337.48438 347.52814 338.0 348.1219Q338.53125 348.71564 339.3125 348.71564Q340.10938 348.71564 340.625 348.1219Q341.14062 347.52814 341.14062 346.3094Q341.14062 345.15314 340.60938 344.5594Q340.09375 343.96564 339.3125 343.96564Q338.53125 343.96564 338.0 344.5594Q337.48438 345.1375 337.48438 346.34064ZM344.04688 349.45L344.04688 344.04376L343.10938 344.04376L343.10938 343.23126L344.04688 343.23126L344.04688 342.5594Q344.04688 341.9344 344.15625 341.6375Q344.3125 341.21564 344.6875 340.96564Q345.07812 340.71564 345.76562 340.71564Q346.21875 340.71564 346.75 340.825L346.59375 341.73126Q346.26562 341.6844 345.96875 341.6844Q345.48438 341.6844 345.28125 341.8875Q345.09375 342.09064 345.09375 342.65314L345.09375 343.23126L346.3125 343.23126L346.3125 344.04376L345.09375 344.04376L345.09375 349.45L344.04688 349.45ZM353.85938 347.16876L354.89062 347.3094Q354.71875 348.3719 354.01562 348.98126Q353.3125 349.59064 352.29688 349.59064Q351.01562 349.59064 350.23438 348.7625Q349.46875 347.91876 349.46875 346.35626Q349.46875 345.35626 349.79688 344.60626Q350.14062 343.84064 350.8125 343.46564Q351.5 343.09064 352.3125 343.09064Q353.3125 343.09064 353.95312 343.60626Q354.60938 344.10626 354.79688 345.0594L353.76562 345.21564Q353.625 344.59064 353.25 344.27814Q352.875 343.95 352.34375 343.95Q351.54688 343.95 351.04688 344.52814Q350.54688 345.09064 350.54688 346.325Q350.54688 347.59064 351.03125 348.15314Q351.51562 348.71564 352.28125 348.71564Q352.90625 348.71564 353.3125 348.34064Q353.73438 347.96564 353.85938 347.16876ZM355.76562 349.45L355.76562 340.85626L356.82812 340.85626L356.82812 349.45L355.76562 349.45ZM358.79688 342.075L358.79688 340.85626L359.85938 340.85626L359.85938 342.075L358.79688 342.075ZM358.79688 349.45L358.79688 343.23126L359.85938 343.23126L359.85938 349.45L358.79688 349.45ZM366.04688 347.45L367.14062 347.575Q366.89062 348.52814 366.1875 349.0594Q365.48438 349.59064 364.40625 349.59064Q363.04688 349.59064 362.23438 348.7469Q361.4375 347.90314 361.4375 346.3875Q361.4375 344.825 362.25 343.96564Q363.0625 343.09064 364.34375 343.09064Q365.59375 343.09064 366.375 343.9344Q367.17188 344.77814 367.17188 346.325Q367.17188 346.41876 367.17188 346.60626L362.53125 346.60626Q362.59375 347.6375 363.10938 348.1844Q363.625 348.71564 364.40625 348.71564Q364.98438 348.71564 365.39062 348.41876Q365.8125 348.10626 366.04688 347.45ZM362.59375 345.7469L366.0625 345.7469Q366.0 344.95 365.67188 344.5594Q365.15625 343.95 364.35938 343.95Q363.625 343.95 363.125 344.4344Q362.64062 344.91876 362.59375 345.7469ZM368.79688 349.45L368.79688 343.23126L369.73438 343.23126L369.73438 344.10626Q370.42188 343.09064 371.71875 343.09064Q372.28125 343.09064 372.75 343.29376Q373.23438 343.4969 373.46875 343.825Q373.70312 344.15314 373.79688 344.59064Q373.84375 344.8875 373.84375 345.6219L373.84375 349.45L372.79688 349.45L372.79688 345.66876Q372.79688 345.0125 372.67188 344.7Q372.54688 344.3875 372.23438 344.2Q371.92188 343.9969 371.5 343.9969Q370.82812 343.9969 370.32812 344.4344Q369.84375 344.85626 369.84375 346.04376L369.84375 349.45L368.79688 349.45ZM378.09375 348.5125L378.25 349.4344Q377.79688 349.52814 377.45312 349.52814Q376.875 349.52814 376.5625 349.35626Q376.25 349.16876 376.10938 348.8719Q375.98438 348.575 375.98438 347.6219L375.98438 344.04376L375.21875 344.04376L375.21875 343.23126L375.98438 343.23126L375.98438 341.6844L377.03125 341.0594L377.03125 343.23126L378.09375 343.23126L378.09375 344.04376L377.03125 344.04376L377.03125 347.6844Q377.03125 348.1375 377.07812 348.2625Q377.14062 348.3875 377.26562 348.46564Q377.39062 348.54376 377.625 348.54376Q377.8125 348.54376 378.09375 348.5125ZM378.375 347.59064L379.40625 347.4344Q379.5 348.0594 379.89062 348.3875Q380.29688 348.71564 381.03125 348.71564Q381.75 348.71564 382.09375 348.4344Q382.45312 348.1375 382.45312 347.73126Q382.45312 347.3719 382.14062 347.16876Q381.92188 347.02814 381.0625 346.8094Q379.90625 346.5125 379.45312 346.3094Q379.01562 346.09064 378.78125 345.71564Q378.54688 345.34064 378.54688 344.8719Q378.54688 344.46564 378.73438 344.10626Q378.92188 343.7469 379.25 343.5125Q379.5 343.34064 379.92188 343.21564Q380.34375 343.09064 380.84375 343.09064Q381.5625 343.09064 382.10938 343.3094Q382.67188 343.5125 382.9375 343.8719Q383.20312 344.23126 383.29688 344.825L382.26562 344.96564Q382.20312 344.4969 381.85938 344.23126Q381.53125 343.95 380.90625 343.95Q380.1875 343.95 379.875 344.2Q379.5625 344.4344 379.5625 344.7625Q379.5625 344.96564 379.6875 345.1219Q379.82812 345.29376 380.09375 345.40314Q380.25 345.46564 381.03125 345.66876Q382.15625 345.98126 382.59375 346.16876Q383.03125 346.35626 383.28125 346.71564Q383.53125 347.075 383.53125 347.6219Q383.53125 348.15314 383.21875 348.6219Q382.92188 349.075 382.34375 349.34064Q381.76562 349.59064 381.03125 349.59064Q379.8125 349.59064 379.17188 349.09064Q378.54688 348.575 378.375 347.59064Z" fill-rule="nonzero"/><path fill="#000000" d="M28.628138 247.92917Q29.175013 247.1323 29.425013 246.47604L30.221888 246.80417Q29.878138 247.72604 29.159388 248.64792Q29.690638 249.60104 29.690638 250.7573Q29.690638 251.92917 29.128138 252.8823Q28.565638 253.8198 27.550013 254.33542Q26.534388 254.85104 25.253138 254.85104Q23.987513 254.85104 22.940638 254.33542Q21.893763 253.8198 21.346888 252.86667Q20.800013 251.91354 20.800013 250.74167Q20.800013 249.55417 21.378138 248.60104Q21.940638 247.6323 22.956263 247.1323Q23.971888 246.6323 25.253138 246.6323Q26.315638 246.6323 27.159388 246.96042Q28.003138 247.27292 28.628138 247.92917ZM27.175013 250.42917Q27.456263 249.4448 28.003138 248.80417Q27.081263 247.80417 25.253138 247.80417Q24.206263 247.80417 23.425013 248.16354Q22.643763 248.52292 22.221888 249.21042Q21.784388 249.8823 21.784388 250.72604Q21.784388 252.0073 22.659388 252.85104Q23.518763 253.67917 25.253138 253.67917Q26.925013 253.67917 27.831263 252.85104Q28.721888 252.02292 28.721888 250.72604Q28.721888 250.11667 28.487513 249.58542Q28.143763 250.11667 28.003138 250.71042L27.175013 250.42917ZM29.550013 241.49167L28.628138 241.49167Q29.690638 242.22604 29.690638 243.47604Q29.690638 244.02292 29.487513 244.5073Q29.268763 244.97604 28.956263 245.21042Q28.628138 245.4448 28.159388 245.53854Q27.862513 245.60104 27.175013 245.60104L23.331263 245.60104L23.331263 244.53854L26.784388 244.53854Q27.596888 244.53854 27.893763 244.47604Q28.300013 244.3823 28.550013 244.0698Q28.784388 243.74167 28.784388 243.2573Q28.784388 242.78854 28.550013 242.3823Q28.300013 241.96042 27.878138 241.78854Q27.456263 241.60104 26.659388 241.60104L23.331263 241.60104L23.331263 240.55417L29.550013 240.55417L29.550013 241.49167ZM27.550013 234.3198L27.675013 233.22604Q28.628138 233.47604 29.159388 234.17917Q29.690638 234.8823 29.690638 235.96042Q29.690638 237.3198 28.846888 238.1323Q28.003138 238.92917 26.487513 238.92917Q24.925013 238.92917 24.065638 238.11667Q23.190638 237.30417 23.190638 236.02292Q23.190638 234.77292 24.034388 233.99167Q24.878138 233.1948 26.425013 233.1948Q26.518763 233.1948 26.706263 233.1948L26.706263 237.83542Q27.737513 237.77292 28.284388 237.2573Q28.815638 236.74167 28.815638 235.96042Q28.815638 235.3823 28.518763 234.97604Q28.206263 234.55417 27.550013 234.3198ZM25.846888 237.77292L25.846888 234.30417Q25.050013 234.36667 24.659388 234.6948Q24.050013 235.21042 24.050013 236.0073Q24.050013 236.74167 24.534388 237.24167Q25.018763 237.72604 25.846888 237.77292ZM29.550013 231.58542L23.331263 231.58542L23.331263 230.6323L24.268763 230.6323Q23.612513 230.27292 23.409388 229.97604Q23.190638 229.66354 23.190638 229.28854Q23.190638 228.7573 23.518763 228.21042L24.503138 228.5698Q24.268763 228.96042 24.268763 229.33542Q24.268763 229.6948 24.487513 229.97604Q24.690638 230.24167 25.065638 230.35104Q25.628138 230.53854 26.284388 230.53854L29.550013 230.53854L29.550013 231.58542ZM22.175013 227.5698L20.956263 227.5698L20.956263 226.5073L22.175013 226.5073L22.175013 227.5698ZM29.550013 227.5698L23.331263 227.5698L23.331263 226.5073L29.550013 226.5073L29.550013 227.5698ZM27.550013 220.3198L27.675013 219.22604Q28.628138 219.47604 29.159388 220.17917Q29.690638 220.8823 29.690638 221.96042Q29.690638 223.3198 28.846888 224.1323Q28.003138 224.92917 26.487513 224.92917Q24.925013 224.92917 24.065638 224.11667Q23.190638 223.30417 23.190638 222.02292Q23.190638 220.77292 24.034388 219.99167Q24.878138 219.1948 26.425013 219.1948Q26.518763 219.1948 26.706263 219.1948L26.706263 223.83542Q27.737513 223.77292 28.284388 223.2573Q28.815638 222.74167 28.815638 221.96042Q28.815638 221.3823 28.518763 220.97604Q28.206263 220.55417 27.550013 220.3198ZM25.846888 223.77292L25.846888 220.30417Q25.050013 220.36667 24.659388 220.6948Q24.050013 221.21042 24.050013 222.0073Q24.050013 222.74167 24.534388 223.24167Q25.018763 223.72604 25.846888 223.77292ZM27.690638 217.99167L27.534388 216.96042Q28.159388 216.86667 28.487513 216.47604Q28.815638 216.0698 28.815638 215.33542Q28.815638 214.61667 28.534388 214.27292Q28.237513 213.91354 27.831263 213.91354Q27.471888 213.91354 27.268763 214.22604Q27.128138 214.4448 26.909388 215.30417Q26.612513 216.46042 26.409388 216.91354Q26.190638 217.35104 25.815638 217.58542Q25.440638 217.8198 24.971888 217.8198Q24.565638 217.8198 24.206263 217.6323Q23.846888 217.4448 23.612513 217.11667Q23.440638 216.86667 23.315638 216.4448Q23.190638 216.02292 23.190638 215.52292Q23.190638 214.80417 23.409388 214.2573Q23.612513 213.6948 23.971888 213.42917Q24.331263 213.16354 24.925013 213.0698L25.065638 214.10104Q24.596888 214.16354 24.331263 214.5073Q24.050013 214.83542 24.050013 215.46042Q24.050013 216.17917 24.300013 216.49167Q24.534388 216.80417 24.862513 216.80417Q25.065638 216.80417 25.221888 216.67917Q25.393763 216.53854 25.503138 216.27292Q25.565638 216.11667 25.768763 215.33542Q26.081263 214.21042 26.268763 213.77292Q26.456263 213.33542 26.815638 213.08542Q27.175013 212.83542 27.721888 212.83542Q28.253138 212.83542 28.721888 213.14792Q29.175013 213.4448 29.440638 214.02292Q29.690638 214.60104 29.690638 215.33542Q29.690638 216.55417 29.190638 217.1948Q28.675013 217.8198 27.690638 217.99167ZM31.940638 207.5698L23.331263 207.5698L23.331263 206.61667L24.128138 206.61667Q23.659388 206.27292 23.425013 205.85104Q23.190638 205.41354 23.190638 204.80417Q23.190638 204.0073 23.596888 203.39792Q24.003138 202.78854 24.753138 202.49167Q25.503138 202.17917 26.393763 202.17917Q27.346888 202.17917 28.112513 202.52292Q28.878138 202.85104 29.284388 203.5073Q29.690638 204.16354 29.690638 204.8823Q29.690638 205.41354 29.471888 205.83542Q29.237513 206.2573 28.909388 206.52292L31.940638 206.52292L31.940638 207.5698ZM26.471888 206.61667Q27.675013 206.61667 28.253138 206.1323Q28.815638 205.64792 28.815638 204.96042Q28.815638 204.2573 28.221888 203.7573Q27.628138 203.2573 26.378138 203.2573Q25.190638 203.2573 24.612513 203.74167Q24.018763 204.22604 24.018763 204.91354Q24.018763 205.58542 24.643763 206.10104Q25.268763 206.61667 26.471888 206.61667ZM27.550013 196.3198L27.675013 195.22604Q28.628138 195.47604 29.159388 196.17917Q29.690638 196.8823 29.690638 197.96042Q29.690638 199.3198 28.846888 200.1323Q28.003138 200.92917 26.487513 200.92917Q24.925013 200.92917 24.065638 200.11667Q23.190638 199.30417 23.190638 198.02292Q23.190638 196.77292 24.034388 195.99167Q24.878138 195.1948 26.425013 195.1948Q26.518763 195.1948 26.706263 195.1948L26.706263 199.83542Q27.737513 199.77292 28.284388 199.2573Q28.815638 198.74167 28.815638 197.96042Q28.815638 197.3823 28.518763 196.97604Q28.206263 196.55417 27.550013 196.3198ZM25.846888 199.77292L25.846888 196.30417Q25.050013 196.36667 24.659388 196.6948Q24.050013 197.21042 24.050013 198.0073Q24.050013 198.74167 24.534388 199.24167Q25.018763 199.72604 25.846888 199.77292ZM29.550013 193.58542L23.331263 193.58542L23.331263 192.6323L24.268763 192.6323Q23.612513 192.27292 23.409388 191.97604Q23.190638 191.66354 23.190638 191.28854Q23.190638 190.7573 23.518763 190.21042L24.503138 190.5698Q24.268763 190.96042 24.268763 191.33542Q24.268763 191.6948 24.487513 191.97604Q24.690638 192.24167 25.065638 192.35104Q25.628138 192.53854 26.284388 192.53854L29.550013 192.53854L29.550013 193.58542ZM27.690638 186.99167L27.534388 185.96042Q28.159388 185.86667 28.487513 185.47604Q28.815638 185.0698 28.815638 184.33542Q28.815638 183.61667 28.534388 183.27292Q28.237513 182.91354 27.831263 182.91354Q27.471888 182.91354 27.268763 183.22604Q27.128138 183.4448 26.909388 184.30417Q26.612513 185.46042 26.409388 185.91354Q26.190638 186.35104 25.815638 186.58542Q25.440638 186.8198 24.971888 186.8198Q24.565638 186.8198 24.206263 186.6323Q23.846888 186.4448 23.612513 186.11667Q23.440638 185.86667 23.315638 185.4448Q23.190638 185.02292 23.190638 184.52292Q23.190638 183.80417 23.409388 183.2573Q23.612513 182.6948 23.971888 182.42917Q24.331263 182.16354 24.925013 182.0698L25.065638 183.10104Q24.596888 183.16354 24.331263 183.5073Q24.050013 183.83542 24.050013 184.46042Q24.050013 185.17917 24.300013 185.49167Q24.534388 185.80417 24.862513 185.80417Q25.065638 185.80417 25.221888 185.67917Q25.393763 185.53854 25.503138 185.27292Q25.565638 185.11667 25.768763 184.33542Q26.081263 183.21042 26.268763 182.77292Q26.456263 182.33542 26.815638 182.08542Q27.175013 181.83542 27.721888 181.83542Q28.253138 181.83542 28.721888 182.14792Q29.175013 182.4448 29.440638 183.02292Q29.690638 183.60104 29.690638 184.33542Q29.690638 185.55417 29.190638 186.1948Q28.675013 186.8198 27.690638 186.99167ZM27.550013 175.3198L27.675013 174.22604Q28.628138 174.47604 29.159388 175.17917Q29.690638 175.8823 29.690638 176.96042Q29.690638 178.3198 28.846888 179.1323Q28.003138 179.92917 26.487513 179.92917Q24.925013 179.92917 24.065638 179.11667Q23.190638 178.30417 23.190638 177.02292Q23.190638 175.77292 24.034388 174.99167Q24.878138 174.1948 26.425013 174.1948Q26.518763 174.1948 26.706263 174.1948L26.706263 178.83542Q27.737513 178.77292 28.284388 178.2573Q28.815638 177.74167 28.815638 176.96042Q28.815638 176.3823 28.518763 175.97604Q28.206263 175.55417 27.550013 175.3198ZM25.846888 178.77292L25.846888 175.30417Q25.050013 175.36667 24.659388 175.6948Q24.050013 176.21042 24.050013 177.0073Q24.050013 177.74167 24.534388 178.24167Q25.018763 178.72604 25.846888 178.77292ZM27.268763 168.5073L27.409388 167.47604Q28.471888 167.64792 29.081263 168.35104Q29.690638 169.05417 29.690638 170.0698Q29.690638 171.35104 28.862513 172.1323Q28.018763 172.89792 26.456263 172.89792Q25.456263 172.89792 24.706263 172.5698Q23.940638 172.22604 23.565638 171.55417Q23.190638 170.86667 23.190638 170.05417Q23.190638 169.05417 23.706263 168.41354Q24.206263 167.7573 25.159388 167.5698L25.315638 168.60104Q24.690638 168.74167 24.378138 169.11667Q24.050013 169.49167 24.050013 170.02292Q24.050013 170.8198 24.628138 171.3198Q25.190638 171.8198 26.425013 171.8198Q27.690638 171.8198 28.253138 171.33542Q28.815638 170.85104 28.815638 170.08542Q28.815638 169.46042 28.440638 169.05417Q28.065638 168.6323 27.268763 168.5073ZM26.440638 166.96042Q24.706263 166.96042 23.878138 166.0073Q23.190638 165.21042 23.190638 164.05417Q23.190638 162.77292 24.034388 161.96042Q24.862513 161.1323 26.346888 161.1323Q27.550013 161.1323 28.237513 161.49167Q28.925013 161.85104 29.315638 162.55417Q29.690638 163.24167 29.690638 164.05417Q29.690638 165.35104 28.862513 166.16354Q28.018763 166.96042 26.440638 166.96042ZM26.440638 165.8823Q27.628138 165.8823 28.221888 165.36667Q28.815638 164.83542 28.815638 164.05417Q28.815638 163.2573 28.221888 162.74167Q27.628138 162.22604 26.409388 162.22604Q25.253138 162.22604 24.659388 162.7573Q24.065638 163.27292 24.065638 164.05417Q24.065638 164.83542 24.659388 165.36667Q25.237513 165.8823 26.440638 165.8823ZM29.550013 159.5698L23.331263 159.5698L23.331263 158.6323L24.206263 158.6323Q23.190638 157.9448 23.190638 156.64792Q23.190638 156.08542 23.393763 155.61667Q23.596888 155.1323 23.925013 154.89792Q24.253138 154.66354 24.690638 154.5698Q24.987513 154.52292 25.721888 154.52292L29.550013 154.52292L29.550013 155.5698L25.768763 155.5698Q25.112513 155.5698 24.800013 155.6948Q24.487513 155.8198 24.300013 156.1323Q24.096888 156.4448 24.096888 156.86667Q24.096888 157.53854 24.534388 158.03854Q24.956263 158.52292 26.143763 158.52292L29.550013 158.52292L29.550013 159.5698ZM29.550013 148.53854L28.768763 148.53854Q29.690638 149.1323 29.690638 150.27292Q29.690638 151.02292 29.284388 151.64792Q28.862513 152.27292 28.128138 152.61667Q27.393763 152.96042 26.440638 152.96042Q25.518763 152.96042 24.753138 152.64792Q23.987513 152.33542 23.596888 151.71042Q23.190638 151.08542 23.190638 150.3198Q23.190638 149.7573 23.425013 149.3198Q23.659388 148.8823 24.034388 148.60104L20.956263 148.60104L20.956263 147.55417L29.550013 147.55417L29.550013 148.53854ZM26.440638 151.86667Q27.643763 151.86667 28.237513 151.36667Q28.815638 150.86667 28.815638 150.17917Q28.815638 149.49167 28.253138 149.0073Q27.690638 148.52292 26.534388 148.52292Q25.253138 148.52292 24.659388 149.02292Q24.065638 149.5073 24.065638 150.22604Q24.065638 150.92917 24.643763 151.39792Q25.206263 151.86667 26.440638 151.86667Z" fill-rule="nonzero"/><path fill="#000000" d="M79.05 300.21564Q79.05 298.6844 79.3625 297.7625Q79.675 296.825 80.28438 296.325Q80.90938 295.825 81.84688 295.825Q82.53438 295.825 83.05 296.10626Q83.58125 296.3875 83.925 296.91876Q84.26875 297.4344 84.45625 298.1844Q84.64375 298.9344 84.64375 300.21564Q84.64375 301.73126 84.33125 302.65314Q84.03438 303.575 83.40938 304.09064Q82.8 304.59064 81.84688 304.59064Q80.6125 304.59064 79.89375 303.7Q79.05 302.6375 79.05 300.21564ZM80.12813 300.21564Q80.12813 302.325 80.62813 303.02814Q81.12813 303.73126 81.84688 303.73126Q82.58125 303.73126 83.06563 303.02814Q83.56563 302.325 83.56563 300.21564Q83.56563 298.09064 83.06563 297.40314Q82.58125 296.7 81.83125 296.7Q81.1125 296.7 80.675 297.3094Q80.12813 298.09064 80.12813 300.21564Z" fill-rule="nonzero"/><path fill="#000000" d="M58.05 259.76666L59.159374 259.6729Q59.284374 260.4854 59.721874 260.89166Q60.175 261.2979 60.815624 261.2979Q61.565624 261.2979 62.096874 260.7198Q62.628124 260.14166 62.628124 259.20416Q62.628124 258.2979 62.1125 257.7823Q61.6125 257.25104 60.784374 257.25104Q60.284374 257.25104 59.8625 257.4854Q59.45625 257.7198 59.221874 258.07916L58.2375 257.95416L59.065624 253.54791L63.346874 253.54791L63.346874 254.54791L59.909374 254.54791L59.45625 256.8604Q60.221874 256.31354 61.065624 256.31354Q62.190624 256.31354 62.95625 257.0948Q63.7375 257.87604 63.7375 259.1104Q63.7375 260.26666 63.065624 261.12604Q62.2375 262.1573 60.815624 262.1573Q59.64375 262.1573 58.89375 261.50104Q58.159374 260.8448 58.05 259.76666ZM65.05 257.7823Q65.05 256.25104 65.3625 255.32916Q65.675 254.39166 66.28438 253.89166Q66.90938 253.39166 67.84688 253.39166Q68.53438 253.39166 69.05 253.67291Q69.58125 253.95416 69.925 254.48541Q70.26875 255.00104 70.45625 255.75104Q70.64375 256.50104 70.64375 257.7823Q70.64375 259.2979 70.33125 260.2198Q70.03438 261.14166 69.40938 261.6573Q68.8 262.1573 67.84688 262.1573Q66.6125 262.1573 65.89375 261.26666Q65.05 260.20416 65.05 257.7823ZM66.12813 257.7823Q66.12813 259.89166 66.62813 260.5948Q67.12813 261.2979 67.84688 261.2979Q68.58125 261.2979 69.06563 260.5948Q69.56563 259.89166 69.56563 257.7823Q69.56563 255.65729 69.06563 254.96979Q68.58125 254.26666 67.83125 254.26666Q67.1125 254.26666 66.675 254.87604Q66.12813 255.65729 66.12813 257.7823ZM72.05 257.7823Q72.05 256.25104 72.3625 255.32916Q72.675 254.39166 73.28438 253.89166Q73.90938 253.39166 74.84688 253.39166Q75.53438 253.39166 76.05 253.67291Q76.58125 253.95416 76.925 254.48541Q77.26875 255.00104 77.45625 255.75104Q77.64375 256.50104 77.64375 257.7823Q77.64375 259.2979 77.33125 260.2198Q77.03438 261.14166 76.40938 261.6573Q75.8 262.1573 74.84688 262.1573Q73.6125 262.1573 72.89375 261.26666Q72.05 260.20416 72.05 257.7823ZM73.12813 257.7823Q73.12813 259.89166 73.62813 260.5948Q74.12813 261.2979 74.84688 261.2979Q75.58125 261.2979 76.06563 260.5948Q76.56563 259.89166 76.56563 257.7823Q76.56563 255.65729 76.06563 254.96979Q75.58125 254.26666 74.83125 254.26666Q74.1125 254.26666 73.675 254.87604Q73.12813 255.65729 73.12813 257.7823ZM79.05 257.7823Q79.05 256.25104 79.3625 255.32916Q79.675 254.39166 80.28438 253.89166Q80.90938 253.39166 81.84688 253.39166Q82.53438 253.39166 83.05 253.67291Q83.58125 253.95416 83.925 254.48541Q84.26875 255.00104 84.45625 255.75104Q84.64375 256.50104 84.64375 257.7823Q84.64375 259.2979 84.33125 260.2198Q84.03438 261.14166 83.40938 261.6573Q82.8 262.1573 81.84688 262.1573Q80.6125 262.1573 79.89375 261.26666Q79.05 260.20416 79.05 257.7823ZM80.12813 257.7823Q80.12813 259.89166 80.62813 260.5948Q81.12813 261.2979 81.84688 261.2979Q82.58125 261.2979 83.06563 260.5948Q83.56563 259.89166 83.56563 257.7823Q83.56563 255.65729 83.06563 254.96979Q82.58125 254.26666 81.83125 254.26666Q81.1125 254.26666 80.675 254.87604Q80.12813 255.65729 80.12813 257.7823Z" fill-rule="nonzero"/><path fill="#000000" d="M55.01875 219.58333L53.971874 219.58333L53.971874 212.86458Q53.58125 213.22395 52.95625 213.59895Q52.346874 213.95833 51.8625 214.1302L51.8625 213.11458Q52.7375 212.6927 53.39375 212.11458Q54.065624 211.52083 54.346874 210.95833L55.01875 210.95833L55.01875 219.58333ZM58.05 215.34895Q58.05 213.8177 58.3625 212.89583Q58.675 211.95833 59.284374 211.45833Q59.909374 210.95833 60.846874 210.95833Q61.534374 210.95833 62.05 211.23958Q62.58125 211.52083 62.925 212.05208Q63.26875 212.5677 63.45625 213.3177Q63.64375 214.0677 63.64375 215.34895Q63.64375 216.86458 63.33125 217.78645Q63.034374 218.70833 62.409374 219.22395Q61.8 219.72395 60.846874 219.72395Q59.6125 219.72395 58.89375 218.83333Q58.05 217.77083 58.05 215.34895ZM59.128124 215.34895Q59.128124 217.45833 59.628124 218.16145Q60.128124 218.86458 60.846874 218.86458Q61.58125 218.86458 62.065624 218.16145Q62.565624 217.45833 62.565624 215.34895Q62.565624 213.22395 62.065624 212.53645Q61.58125 211.83333 60.83125 211.83333Q60.1125 211.83333 59.675 212.4427Q59.128124 213.22395 59.128124 215.34895ZM65.05 215.34895Q65.05 213.8177 65.3625 212.89583Q65.675 211.95833 66.28438 211.45833Q66.90938 210.95833 67.84688 210.95833Q68.53438 210.95833 69.05 211.23958Q69.58125 211.52083 69.925 212.05208Q70.26875 212.5677 70.45625 213.3177Q70.64375 214.0677 70.64375 215.34895Q70.64375 216.86458 70.33125 217.78645Q70.03438 218.70833 69.40938 219.22395Q68.8 219.72395 67.84688 219.72395Q66.6125 219.72395 65.89375 218.83333Q65.05 217.77083 65.05 215.34895ZM66.12813 215.34895Q66.12813 217.45833 66.62813 218.16145Q67.12813 218.86458 67.84688 218.86458Q68.58125 218.86458 69.06563 218.16145Q69.56563 217.45833 69.56563 215.34895Q69.56563 213.22395 69.06563 212.53645Q68.58125 211.83333 67.83125 211.83333Q67.1125 211.83333 66.675 212.4427Q66.12813 213.22395 66.12813 215.34895ZM72.05 215.34895Q72.05 213.8177 72.3625 212.89583Q72.675 211.95833 73.28438 211.45833Q73.90938 210.95833 74.84688 210.95833Q75.53438 210.95833 76.05 211.23958Q76.58125 211.52083 76.925 212.05208Q77.26875 212.5677 77.45625 213.3177Q77.64375 214.0677 77.64375 215.34895Q77.64375 216.86458 77.33125 217.78645Q77.03438 218.70833 76.40938 219.22395Q75.8 219.72395 74.84688 219.72395Q73.6125 219.72395 72.89375 218.83333Q72.05 217.77083 72.05 215.34895ZM73.12813 215.34895Q73.12813 217.45833 73.62813 218.16145Q74.12813 218.86458 74.84688 218.86458Q75.58125 218.86458 76.06563 218.16145Q76.56563 217.45833 76.56563 215.34895Q76.56563 213.22395 76.06563 212.53645Q75.58125 211.83333 74.83125 211.83333Q74.1125 211.83333 73.675 212.4427Q73.12813 213.22395 73.12813 215.34895ZM79.05 215.34895Q79.05 213.8177 79.3625 212.89583Q79.675 211.95833 80.28438 211.45833Q80.90938 210.95833 81.84688 210.95833Q82.53438 210.95833 83.05 211.23958Q83.58125 211.52083 83.925 212.05208Q84.26875 212.5677 84.45625 213.3177Q84.64375 214.0677 84.64375 215.34895Q84.64375 216.86458 84.33125 217.78645Q84.03438 218.70833 83.40938 219.22395Q82.8 219.72395 81.84688 219.72395Q80.6125 219.72395 79.89375 218.83333Q79.05 217.77083 79.05 215.34895ZM80.12813 215.34895Q80.12813 217.45833 80.62813 218.16145Q81.12813 218.86458 81.84688 218.86458Q82.58125 218.86458 83.06563 218.16145Q83.56563 217.45833 83.56563 215.34895Q83.56563 213.22395 83.06563 212.53645Q82.58125 211.83333 81.83125 211.83333Q81.1125 211.83333 80.675 212.4427Q80.12813 213.22395 80.12813 215.34895Z" fill-rule="nonzero"/><path fill="#000000" d="M55.01875 177.15L53.971874 177.15L53.971874 170.43124Q53.58125 170.79062 52.95625 171.16562Q52.346874 171.525 51.8625 171.69687L51.8625 170.68124Q52.7375 170.25937 53.39375 169.68124Q54.065624 169.0875 54.346874 168.525L55.01875 168.525L55.01875 177.15ZM58.05 174.9L59.159374 174.80624Q59.284374 175.61874 59.721874 176.025Q60.175 176.43124 60.815624 176.43124Q61.565624 176.43124 62.096874 175.85312Q62.628124 175.275 62.628124 174.3375Q62.628124 173.43124 62.1125 172.91562Q61.6125 172.38437 60.784374 172.38437Q60.284374 172.38437 59.8625 172.61874Q59.45625 172.85312 59.221874 173.2125L58.2375 173.0875L59.065624 168.68124L63.346874 168.68124L63.346874 169.68124L59.909374 169.68124L59.45625 171.99374Q60.221874 171.44687 61.065624 171.44687Q62.190624 171.44687 62.95625 172.22812Q63.7375 173.00937 63.7375 174.24374Q63.7375 175.4 63.065624 176.25937Q62.2375 177.29062 60.815624 177.29062Q59.64375 177.29062 58.89375 176.63437Q58.159374 175.97812 58.05 174.9ZM65.05 172.91562Q65.05 171.38437 65.3625 170.4625Q65.675 169.525 66.28438 169.025Q66.90938 168.525 67.84688 168.525Q68.53438 168.525 69.05 168.80624Q69.58125 169.0875 69.925 169.61874Q70.26875 170.13437 70.45625 170.88437Q70.64375 171.63437 70.64375 172.91562Q70.64375 174.43124 70.33125 175.35312Q70.03438 176.275 69.40938 176.79062Q68.8 177.29062 67.84688 177.29062Q66.6125 177.29062 65.89375 176.4Q65.05 175.3375 65.05 172.91562ZM66.12813 172.91562Q66.12813 175.025 66.62813 175.72812Q67.12813 176.43124 67.84688 176.43124Q68.58125 176.43124 69.06563 175.72812Q69.56563 175.025 69.56563 172.91562Q69.56563 170.79062 69.06563 170.10312Q68.58125 169.4 67.83125 169.4Q67.1125 169.4 66.675 170.00937Q66.12813 170.79062 66.12813 172.91562ZM72.05 172.91562Q72.05 171.38437 72.3625 170.4625Q72.675 169.525 73.28438 169.025Q73.90938 168.525 74.84688 168.525Q75.53438 168.525 76.05 168.80624Q76.58125 169.0875 76.925 169.61874Q77.26875 170.13437 77.45625 170.88437Q77.64375 171.63437 77.64375 172.91562Q77.64375 174.43124 77.33125 175.35312Q77.03438 176.275 76.40938 176.79062Q75.8 177.29062 74.84688 177.29062Q73.6125 177.29062 72.89375 176.4Q72.05 175.3375 72.05 172.91562ZM73.12813 172.91562Q73.12813 175.025 73.62813 175.72812Q74.12813 176.43124 74.84688 176.43124Q75.58125 176.43124 76.06563 175.72812Q76.56563 175.025 76.56563 172.91562Q76.56563 170.79062 76.06563 170.10312Q75.58125 169.4 74.83125 169.4Q74.1125 169.4 73.675 170.00937Q73.12813 170.79062 73.12813 172.91562ZM79.05 172.91562Q79.05 171.38437 79.3625 170.4625Q79.675 169.525 80.28438 169.025Q80.90938 168.525 81.84688 168.525Q82.53438 168.525 83.05 168.80624Q83.58125 169.0875 83.925 169.61874Q84.26875 170.13437 84.45625 170.88437Q84.64375 171.63437 84.64375 172.91562Q84.64375 174.43124 84.33125 175.35312Q84.03438 176.275 83.40938 176.79062Q82.8 177.29062 81.84688 177.29062Q80.6125 177.29062 79.89375 176.4Q79.05 175.3375 79.05 172.91562ZM80.12813 172.91562Q80.12813 175.025 80.62813 175.72812Q81.12813 176.43124 81.84688 176.43124Q82.58125 176.43124 83.06563 175.72812Q83.56563 175.025 83.56563 172.91562Q83.56563 170.79062 83.06563 170.10312Q82.58125 169.4 81.83125 169.4Q81.1125 169.4 80.675 170.00937Q80.12813 170.79062 80.12813 172.91562Z" fill-rule="nonzero"/><path fill="#000000" d="M56.596874 133.70103L56.596874 134.71666L50.909374 134.71666Q50.909374 134.34166 51.034374 133.98228Q51.253124 133.40416 51.721874 132.84166Q52.20625 132.27916 53.1125 131.54478Q54.51875 130.38853 55.003124 129.71666Q55.503124 129.04478 55.503124 128.45103Q55.503124 127.826035 55.05 127.40416Q54.596874 126.96666 53.878124 126.96666Q53.1125 126.96666 52.659374 127.419785Q52.20625 127.87291 52.190624 128.68541L51.1125 128.57603Q51.221874 127.357285 51.940624 126.732285Q52.675 126.09166 53.909374 126.09166Q55.14375 126.09166 55.8625 126.77916Q56.58125 127.46666 56.58125 128.48228Q56.58125 128.99791 56.3625 129.49791Q56.159374 129.98228 55.659374 130.54478Q55.175 131.09166 54.05 132.04478Q53.096874 132.84166 52.815624 133.13853Q52.55 133.41978 52.378124 133.70103L56.596874 133.70103ZM58.05 130.48228Q58.05 128.95103 58.3625 128.02916Q58.675 127.09166 59.284374 126.59166Q59.909374 126.09166 60.846874 126.09166Q61.534374 126.09166 62.05 126.37291Q62.58125 126.65416 62.925 127.18541Q63.26875 127.701035 63.45625 128.45103Q63.64375 129.20103 63.64375 130.48228Q63.64375 131.99791 63.33125 132.91978Q63.034374 133.84166 62.409374 134.35728Q61.8 134.85728 60.846874 134.85728Q59.6125 134.85728 58.89375 133.96666Q58.05 132.90416 58.05 130.48228ZM59.128124 130.48228Q59.128124 132.59166 59.628124 133.29478Q60.128124 133.99791 60.846874 133.99791Q61.58125 133.99791 62.065624 133.29478Q62.565624 132.59166 62.565624 130.48228Q62.565624 128.35728 62.065624 127.669785Q61.58125 126.96666 60.83125 126.96666Q60.1125 126.96666 59.675 127.576035Q59.128124 128.35728 59.128124 130.48228ZM65.05 130.48228Q65.05 128.95103 65.3625 128.02916Q65.675 127.09166 66.28438 126.59166Q66.90938 126.09166 67.84688 126.09166Q68.53438 126.09166 69.05 126.37291Q69.58125 126.65416 69.925 127.18541Q70.26875 127.701035 70.45625 128.45103Q70.64375 129.20103 70.64375 130.48228Q70.64375 131.99791 70.33125 132.91978Q70.03438 133.84166 69.40938 134.35728Q68.8 134.85728 67.84688 134.85728Q66.6125 134.85728 65.89375 133.96666Q65.05 132.90416 65.05 130.48228ZM66.12813 130.48228Q66.12813 132.59166 66.62813 133.29478Q67.12813 133.99791 67.84688 133.99791Q68.58125 133.99791 69.06563 133.29478Q69.56563 132.59166 69.56563 130.48228Q69.56563 128.35728 69.06563 127.669785Q68.58125 126.96666 67.83125 126.96666Q67.1125 126.96666 66.675 127.576035Q66.12813 128.35728 66.12813 130.48228ZM72.05 130.48228Q72.05 128.95103 72.3625 128.02916Q72.675 127.09166 73.28438 126.59166Q73.90938 126.09166 74.84688 126.09166Q75.53438 126.09166 76.05 126.37291Q76.58125 126.65416 76.925 127.18541Q77.26875 127.701035 77.45625 128.45103Q77.64375 129.20103 77.64375 130.48228Q77.64375 131.99791 77.33125 132.91978Q77.03438 133.84166 76.40938 134.35728Q75.8 134.85728 74.84688 134.85728Q73.6125 134.85728 72.89375 133.96666Q72.05 132.90416 72.05 130.48228ZM73.12813 130.48228Q73.12813 132.59166 73.62813 133.29478Q74.12813 133.99791 74.84688 133.99791Q75.58125 133.99791 76.06563 133.29478Q76.56563 132.59166 76.56563 130.48228Q76.56563 128.35728 76.06563 127.669785Q75.58125 126.96666 74.83125 126.96666Q74.1125 126.96666 73.675 127.576035Q73.12813 128.35728 73.12813 130.48228ZM79.05 130.48228Q79.05 128.95103 79.3625 128.02916Q79.675 127.09166 80.28438 126.59166Q80.90938 126.09166 81.84688 126.09166Q82.53438 126.09166 83.05 126.37291Q83.58125 126.65416 83.925 127.18541Q84.26875 127.701035 84.45625 128.45103Q84.64375 129.20103 84.64375 130.48228Q84.64375 131.99791 84.33125 132.91978Q84.03438 133.84166 83.40938 134.35728Q82.8 134.85728 81.84688 134.85728Q80.6125 134.85728 79.89375 133.96666Q79.05 132.90416 79.05 130.48228ZM80.12813 130.48228Q80.12813 132.59166 80.62813 133.29478Q81.12813 133.99791 81.84688 133.99791Q82.58125 133.99791 83.06563 133.29478Q83.56563 132.59166 83.56563 130.48228Q83.56563 128.35728 83.06563 127.669785Q82.58125 126.96666 81.83125 126.96666Q81.1125 126.96666 80.675 127.576035Q80.12813 128.35728 80.12813 130.48228Z" fill-rule="nonzero"/><path fill="#000000" d="M56.596874 91.26771L56.596874 92.28333L50.909374 92.28333Q50.909374 91.90833 51.034374 91.54896Q51.253124 90.97083 51.721874 90.40833Q52.20625 89.84583 53.1125 89.11146Q54.51875 87.95521 55.003124 87.28333Q55.503124 86.61146 55.503124 86.01771Q55.503124 85.39271 55.05 84.97083Q54.596874 84.53333 53.878124 84.53333Q53.1125 84.53333 52.659374 84.98646Q52.20625 85.43958 52.190624 86.25208L51.1125 86.14271Q51.221874 84.92396 51.940624 84.29896Q52.675 83.65833 53.909374 83.65833Q55.14375 83.65833 55.8625 84.34583Q56.58125 85.03333 56.58125 86.04896Q56.58125 86.56458 56.3625 87.06458Q56.159374 87.54896 55.659374 88.11146Q55.175 88.65833 54.05 89.61146Q53.096874 90.40833 52.815624 90.70521Q52.55 90.98646 52.378124 91.26771L56.596874 91.26771ZM58.05 90.03333L59.159374 89.93958Q59.284374 90.75208 59.721874 91.15833Q60.175 91.56458 60.815624 91.56458Q61.565624 91.56458 62.096874 90.98646Q62.628124 90.40833 62.628124 89.47083Q62.628124 88.56458 62.1125 88.04896Q61.6125 87.51771 60.784374 87.51771Q60.284374 87.51771 59.8625 87.75208Q59.45625 87.98646 59.221874 88.34583L58.2375 88.22083L59.065624 83.81458L63.346874 83.81458L63.346874 84.81458L59.909374 84.81458L59.45625 87.12708Q60.221874 86.58021 61.065624 86.58021Q62.190624 86.58021 62.95625 87.36146Q63.7375 88.14271 63.7375 89.37708Q63.7375 90.53333 63.065624 91.39271Q62.2375 92.42396 60.815624 92.42396Q59.64375 92.42396 58.89375 91.76771Q58.159374 91.11146 58.05 90.03333ZM65.05 88.04896Q65.05 86.51771 65.3625 85.59583Q65.675 84.65833 66.28438 84.15833Q66.90938 83.65833 67.84688 83.65833Q68.53438 83.65833 69.05 83.93958Q69.58125 84.22083 69.925 84.75208Q70.26875 85.26771 70.45625 86.01771Q70.64375 86.76771 70.64375 88.04896Q70.64375 89.56458 70.33125 90.48646Q70.03438 91.40833 69.40938 91.92396Q68.8 92.42396 67.84688 92.42396Q66.6125 92.42396 65.89375 91.53333Q65.05 90.47083 65.05 88.04896ZM66.12813 88.04896Q66.12813 90.15833 66.62813 90.86146Q67.12813 91.56458 67.84688 91.56458Q68.58125 91.56458 69.06563 90.86146Q69.56563 90.15833 69.56563 88.04896Q69.56563 85.92396 69.06563 85.23646Q68.58125 84.53333 67.83125 84.53333Q67.1125 84.53333 66.675 85.14271Q66.12813 85.92396 66.12813 88.04896ZM72.05 88.04896Q72.05 86.51771 72.3625 85.59583Q72.675 84.65833 73.28438 84.15833Q73.90938 83.65833 74.84688 83.65833Q75.53438 83.65833 76.05 83.93958Q76.58125 84.22083 76.925 84.75208Q77.26875 85.26771 77.45625 86.01771Q77.64375 86.76771 77.64375 88.04896Q77.64375 89.56458 77.33125 90.48646Q77.03438 91.40833 76.40938 91.92396Q75.8 92.42396 74.84688 92.42396Q73.6125 92.42396 72.89375 91.53333Q72.05 90.47083 72.05 88.04896ZM73.12813 88.04896Q73.12813 90.15833 73.62813 90.86146Q74.12813 91.56458 74.84688 91.56458Q75.58125 91.56458 76.06563 90.86146Q76.56563 90.15833 76.56563 88.04896Q76.56563 85.92396 76.06563 85.23646Q75.58125 84.53333 74.83125 84.53333Q74.1125 84.53333 73.675 85.14271Q73.12813 85.92396 73.12813 88.04896ZM79.05 88.04896Q79.05 86.51771 79.3625 85.59583Q79.675 84.65833 80.28438 84.15833Q80.90938 83.65833 81.84688 83.65833Q82.53438 83.65833 83.05 83.93958Q83.58125 84.22083 83.925 84.75208Q84.26875 85.26771 84.45625 86.01771Q84.64375 86.76771 84.64375 88.04896Q84.64375 89.56458 84.33125 90.48646Q84.03438 91.40833 83.40938 91.92396Q82.8 92.42396 81.84688 92.42396Q80.6125 92.42396 79.89375 91.53333Q79.05 90.47083 79.05 88.04896ZM80.12813 88.04896Q80.12813 90.15833 80.62813 90.86146Q81.12813 91.56458 81.84688 91.56458Q82.58125 91.56458 83.06563 90.86146Q83.56563 90.15833 83.56563 88.04896Q83.56563 85.92396 83.06563 85.23646Q82.58125 84.53333 81.83125 84.53333Q81.1125 84.53333 80.675 85.14271Q80.12813 85.92396 80.12813 88.04896Z" fill-rule="nonzero"/><path fill="#000000" d="M168.53772 317.45L167.49084 317.45L167.49084 310.73126Q167.10022 311.09064 166.47522 311.46564Q165.86584 311.825 165.38147 311.9969L165.38147 310.98126Q166.25647 310.5594 166.91272 309.98126Q167.5846 309.3875 167.86584 308.825L168.53772 308.825L168.53772 317.45Z" fill-rule="nonzero"/><path fill="#000000" d="M277.65842 317.45L276.61154 317.45L276.61154 310.73126Q276.22092 311.09064 275.59592 311.46564Q274.98654 311.825 274.50217 311.9969L274.50217 310.98126Q275.37717 310.5594 276.03342 309.98126Q276.7053 309.3875 276.98654 308.825L277.65842 308.825L277.65842 317.45ZM280.68967 313.21564Q280.68967 311.6844 281.00217 310.7625Q281.31467 309.825 281.92404 309.325Q282.54904 308.825 283.48654 308.825Q284.17404 308.825 284.68967 309.10626Q285.22092 309.3875 285.56467 309.91876Q285.90842 310.4344 286.09592 311.1844Q286.28342 311.9344 286.28342 313.21564Q286.28342 314.73126 285.97092 315.65314Q285.67404 316.575 285.04904 317.09064Q284.43967 317.59064 283.48654 317.59064Q282.25217 317.59064 281.53342 316.7Q280.68967 315.6375 280.68967 313.21564ZM281.7678 313.21564Q281.7678 315.325 282.2678 316.02814Q282.7678 316.73126 283.48654 316.73126Q284.22092 316.73126 284.7053 316.02814Q285.2053 315.325 285.2053 313.21564Q285.2053 311.09064 284.7053 310.40314Q284.22092 309.7 283.47092 309.7Q282.75217 309.7 282.31467 310.3094Q281.7678 311.09064 281.7678 313.21564Z" fill-rule="nonzero"/><path fill="#000000" d="M386.77908 317.45L385.7322 317.45L385.7322 310.73126Q385.34158 311.09064 384.71658 311.46564Q384.1072 311.825 383.62283 311.9969L383.62283 310.98126Q384.49783 310.5594 385.15408 309.98126Q385.82596 309.3875 386.1072 308.825L386.77908 308.825L386.77908 317.45ZM389.81033 313.21564Q389.81033 311.6844 390.12283 310.7625Q390.43533 309.825 391.0447 309.325Q391.6697 308.825 392.6072 308.825Q393.2947 308.825 393.81033 309.10626Q394.34158 309.3875 394.68533 309.91876Q395.02908 310.4344 395.21658 311.1844Q395.40408 311.9344 395.40408 313.21564Q395.40408 314.73126 395.09158 315.65314Q394.7947 316.575 394.1697 317.09064Q393.56033 317.59064 392.6072 317.59064Q391.37283 317.59064 390.65408 316.7Q389.81033 315.6375 389.81033 313.21564ZM390.88846 313.21564Q390.88846 315.325 391.38846 316.02814Q391.88846 316.73126 392.6072 316.73126Q393.34158 316.73126 393.82596 316.02814Q394.32596 315.325 394.32596 313.21564Q394.32596 311.09064 393.82596 310.40314Q393.34158 309.7 392.59158 309.7Q391.87283 309.7 391.43533 310.3094Q390.88846 311.09064 390.88846 313.21564ZM396.81033 313.21564Q396.81033 311.6844 397.12283 310.7625Q397.43533 309.825 398.0447 309.325Q398.6697 308.825 399.6072 308.825Q400.2947 308.825 400.81033 309.10626Q401.34158 309.3875 401.68533 309.91876Q402.02908 310.4344 402.21658 311.1844Q402.40408 311.9344 402.40408 313.21564Q402.40408 314.73126 402.09158 315.65314Q401.7947 316.575 401.1697 317.09064Q400.56033 317.59064 399.6072 317.59064Q398.37283 317.59064 397.65408 316.7Q396.81033 315.6375 396.81033 313.21564ZM397.88846 313.21564Q397.88846 315.325 398.38846 316.02814Q398.88846 316.73126 399.6072 316.73126Q400.34158 316.73126 400.82596 316.02814Q401.32596 315.325 401.32596 313.21564Q401.32596 311.09064 400.82596 310.40314Q400.34158 309.7 399.59158 309.7Q398.87283 309.7 398.43533 310.3094Q397.88846 311.09064 397.88846 313.21564Z" fill-rule="nonzero"/><path fill="#000000" d="M495.89978 317.45L494.8529 317.45L494.8529 310.73126Q494.46228 311.09064 493.83728 311.46564Q493.2279 311.825 492.74353 311.9969L492.74353 310.98126Q493.61853 310.5594 494.27478 309.98126Q494.94666 309.3875 495.2279 308.825L495.89978 308.825L495.89978 317.45ZM498.93103 313.21564Q498.93103 311.6844 499.24353 310.7625Q499.55603 309.825 500.1654 309.325Q500.7904 308.825 501.7279 308.825Q502.4154 308.825 502.93103 309.10626Q503.46228 309.3875 503.80603 309.91876Q504.14978 310.4344 504.33728 311.1844Q504.52478 311.9344 504.52478 313.21564Q504.52478 314.73126 504.21228 315.65314Q503.9154 316.575 503.2904 317.09064Q502.68103 317.59064 501.7279 317.59064Q500.49353 317.59064 499.77478 316.7Q498.93103 315.6375 498.93103 313.21564ZM500.00916 313.21564Q500.00916 315.325 500.50916 316.02814Q501.00916 316.73126 501.7279 316.73126Q502.46228 316.73126 502.94666 316.02814Q503.44666 315.325 503.44666 313.21564Q503.44666 311.09064 502.94666 310.40314Q502.46228 309.7 501.71228 309.7Q500.99353 309.7 500.55603 310.3094Q500.00916 311.09064 500.00916 313.21564ZM505.93103 313.21564Q505.93103 311.6844 506.24353 310.7625Q506.55603 309.825 507.1654 309.325Q507.7904 308.825 508.7279 308.825Q509.4154 308.825 509.93103 309.10626Q510.46228 309.3875 510.80603 309.91876Q511.14978 310.4344 511.33728 311.1844Q511.52478 311.9344 511.52478 313.21564Q511.52478 314.73126 511.21228 315.65314Q510.9154 316.575 510.2904 317.09064Q509.68103 317.59064 508.7279 317.59064Q507.49353 317.59064 506.77478 316.7Q505.93103 315.6375 505.93103 313.21564ZM507.00916 313.21564Q507.00916 315.325 507.50916 316.02814Q508.00916 316.73126 508.7279 316.73126Q509.46228 316.73126 509.94666 316.02814Q510.44666 315.325 510.44666 313.21564Q510.44666 311.09064 509.94666 310.40314Q509.46228 309.7 508.71228 309.7Q507.99353 309.7 507.55603 310.3094Q507.00916 311.09064 507.00916 313.21564ZM512.931 313.21564Q512.931 311.6844 513.2435 310.7625Q513.556 309.825 514.1654 309.325Q514.7904 308.825 515.7279 308.825Q516.4154 308.825 516.931 309.10626Q517.4623 309.3875 517.806 309.91876Q518.1498 310.4344 518.3373 311.1844Q518.5248 311.9344 518.5248 313.21564Q518.5248 314.73126 518.2123 315.65314Q517.9154 316.575 517.2904 317.09064Q516.681 317.59064 515.7279 317.59064Q514.4935 317.59064 513.7748 316.7Q512.931 315.6375 512.931 313.21564ZM514.00916 313.21564Q514.00916 315.325 514.50916 316.02814Q515.00916 316.73126 515.7279 316.73126Q516.4623 316.73126 516.94666 316.02814Q517.44666 315.325 517.44666 313.21564Q517.44666 311.09064 516.94666 310.40314Q516.4623 309.7 515.7123 309.7Q514.9935 309.7 514.556 310.3094Q514.00916 311.09064 514.00916 313.21564Z" fill-rule="nonzero"/><path fill="#4285f4" d="M185.0 56.916668C185.0 56.364384 185.44771 55.916668 186.0 55.916668L196.0 55.916668C196.55229 55.916668 197.0 56.364384 197.0 56.916668L197.0 66.916664C197.0 67.46895 196.55229 67.916664 196.0 67.916664L186.0 67.916664C185.44771 67.916664 185.0 67.46895 185.0 66.916664Z" fill-rule="nonzero"/><path fill="#1a1a1a" d="M205.375 64.05729L206.40625 63.90104Q206.5 64.52604 206.89062 64.854164Q207.29688 65.18229 208.03125 65.18229Q208.75 65.18229 209.09375 64.90104Q209.45312 64.604164 209.45312 64.197914Q209.45312 63.83854 209.14062 63.635414Q208.92188 63.49479 208.0625 63.27604Q206.90625 62.979164 206.45312 62.77604Q206.01562 62.55729 205.78125 62.18229Q205.54688 61.80729 205.54688 61.33854Q205.54688 60.93229 205.73438 60.572914Q205.92188 60.21354 206.25 59.979164Q206.5 59.80729 206.92188 59.68229Q207.34375 59.55729 207.84375 59.55729Q208.5625 59.55729 209.10938 59.77604Q209.67188 59.979164 209.9375 60.33854Q210.20312 60.697914 210.29688 61.291664L209.26562 61.43229Q209.20312 60.96354 208.85938 60.697914Q208.53125 60.416664 207.90625 60.416664Q207.1875 60.416664 206.875 60.666664Q206.5625 60.90104 206.5625 61.229164Q206.5625 61.43229 206.6875 61.58854Q206.82812 61.760414 207.09375 61.86979Q207.25 61.93229 208.03125 62.135414Q209.15625 62.447914 209.59375 62.635414Q210.03125 62.822914 210.28125 63.18229Q210.53125 63.541664 210.53125 64.08854Q210.53125 64.61979 210.21875 65.08854Q209.92188 65.541664 209.34375 65.80729Q208.76562 66.05729 208.03125 66.05729Q206.8125 66.05729 206.17188 65.55729Q205.54688 65.041664 205.375 64.05729ZM212.79688 58.541664L212.79688 57.322914L213.85938 57.322914L213.85938 58.541664L212.79688 58.541664ZM212.79688 65.916664L212.79688 59.697914L213.85938 59.697914L213.85938 65.916664L212.79688 65.916664ZM215.79688 65.916664L215.79688 59.697914L216.73438 59.697914L216.73438 60.572914Q217.03125 60.104164 217.51562 59.83854Q218.0 59.55729 218.625 59.55729Q219.3125 59.55729 219.75 59.83854Q220.20312 60.11979 220.375 60.635414Q221.125 59.55729 222.29688 59.55729Q223.23438 59.55729 223.71875 60.072914Q224.21875 60.572914 224.21875 61.65104L224.21875 65.916664L223.17188 65.916664L223.17188 61.99479Q223.17188 61.36979 223.0625 61.08854Q222.96875 60.80729 222.70312 60.635414Q222.4375 60.46354 222.0625 60.46354Q221.40625 60.46354 220.96875 60.90104Q220.54688 61.33854 220.54688 62.30729L220.54688 65.916664L219.48438 65.916664L219.48438 61.86979Q219.48438 61.166664 219.21875 60.822914Q218.96875 60.46354 218.39062 60.46354Q217.9375 60.46354 217.5625 60.697914Q217.1875 60.93229 217.01562 61.385414Q216.84375 61.83854 216.84375 62.68229L216.84375 65.916664L215.79688 65.916664ZM226.79688 68.30729L226.79688 59.697914L227.75 59.697914L227.75 60.49479Q228.09375 60.02604 228.51562 59.791664Q228.95312 59.55729 229.5625 59.55729Q230.35938 59.55729 230.96875 59.96354Q231.57812 60.36979 231.875 61.11979Q232.1875 61.86979 232.1875 62.760414Q232.1875 63.71354 231.84375 64.479164Q231.51562 65.24479 230.85938 65.65104Q230.20312 66.05729 229.48438 66.05729Q228.95312 66.05729 228.53125 65.83854Q228.10938 65.604164 227.84375 65.27604L227.84375 68.30729L226.79688 68.30729ZM227.75 62.83854Q227.75 64.041664 228.23438 64.61979Q228.71875 65.18229 229.40625 65.18229Q230.10938 65.18229 230.60938 64.58854Q231.10938 63.99479 231.10938 62.74479Q231.10938 61.55729 230.625 60.979164Q230.14062 60.385414 229.45312 60.385414Q228.78125 60.385414 228.26562 61.010414Q227.75 61.635414 227.75 62.83854ZM233.76562 65.916664L233.76562 57.322914L234.82812 57.322914L234.82812 65.916664L233.76562 65.916664ZM241.04688 63.916664L242.14062 64.041664Q241.89062 64.99479 241.1875 65.52604Q240.48438 66.05729 239.40625 66.05729Q238.04688 66.05729 237.23438 65.21354Q236.4375 64.36979 236.4375 62.854164Q236.4375 61.291664 237.25 60.43229Q238.0625 59.55729 239.34375 59.55729Q240.59375 59.55729 241.375 60.40104Q242.17188 61.24479 242.17188 62.791664Q242.17188 62.885414 242.17188 63.072914L237.53125 63.072914Q237.59375 64.104164 238.10938 64.65104Q238.625 65.18229 239.40625 65.18229Q239.98438 65.18229 240.39062 64.885414Q240.8125 64.572914 241.04688 63.916664ZM237.59375 62.21354L241.0625 62.21354Q241.0 61.416664 240.67188 61.02604Q240.15625 60.416664 239.35938 60.416664Q238.625 60.416664 238.125 60.90104Q237.64062 61.385414 237.59375 62.21354Z" fill-rule="nonzero"/><path fill="#ea4335" d="M259.0 56.916668C259.0 56.364384 259.44772 55.916668 260.0 55.916668L270.0 55.916668C270.55228 55.916668 271.0 56.364384 271.0 56.916668L271.0 66.916664C271.0 67.46895 270.55228 67.916664 270.0 67.916664L260.0 67.916664C259.44772 67.916664 259.0 67.46895 259.0 66.916664Z" fill-rule="nonzero"/><path fill="#1a1a1a" d="M284.04688 63.916664L285.14062 64.041664Q284.89062 64.99479 284.1875 65.52604Q283.48438 66.05729 282.40625 66.05729Q281.04688 66.05729 280.23438 65.21354Q279.4375 64.36979 279.4375 62.854164Q279.4375 61.291664 280.25 60.43229Q281.0625 59.55729 282.34375 59.55729Q283.59375 59.55729 284.375 60.40104Q285.17188 61.24479 285.17188 62.791664Q285.17188 62.885414 285.17188 63.072914L280.53125 63.072914Q280.59375 64.104164 281.10938 64.65104Q281.625 65.18229 282.40625 65.18229Q282.98438 65.18229 283.39062 64.885414Q283.8125 64.572914 284.04688 63.916664ZM280.59375 62.21354L284.0625 62.21354Q284.0 61.416664 283.67188 61.02604Q283.15625 60.416664 282.35938 60.416664Q281.625 60.416664 281.125 60.90104Q280.64062 61.385414 280.59375 62.21354ZM286.09375 65.916664L288.35938 62.68229L286.26562 59.697914L287.57812 59.697914L288.53125 61.15104Q288.79688 61.572914 288.96875 61.854164Q289.21875 61.46354 289.4375 61.166664L290.48438 59.697914L291.75 59.697914L289.59375 62.61979L291.90625 65.916664L290.625 65.916664L289.34375 63.979164L289.0 63.46354L287.35938 65.916664L286.09375 65.916664ZM294.09375 64.979164L294.25 65.90104Q293.79688 65.99479 293.45312 65.99479Q292.875 65.99479 292.5625 65.822914Q292.25 65.635414 292.10938 65.33854Q291.98438 65.041664 291.98438 64.08854L291.98438 60.510414L291.21875 60.510414L291.21875 59.697914L291.98438 59.697914L291.98438 58.15104L293.03125 57.52604L293.03125 59.697914L294.09375 59.697914L294.09375 60.510414L293.03125 60.510414L293.03125 64.15104Q293.03125 64.604164 293.07812 64.729164Q293.14062 64.854164 293.26562 64.93229Q293.39062 65.010414 293.625 65.010414Q293.8125 65.010414 294.09375 64.979164ZM299.04688 63.916664L300.14062 64.041664Q299.89062 64.99479 299.1875 65.52604Q298.48438 66.05729 297.40625 66.05729Q296.04688 66.05729 295.23438 65.21354Q294.4375 64.36979 294.4375 62.854164Q294.4375 61.291664 295.25 60.43229Q296.0625 59.55729 297.34375 59.55729Q298.59375 59.55729 299.375 60.40104Q300.17188 61.24479 300.17188 62.791664Q300.17188 62.885414 300.17188 63.072914L295.53125 63.072914Q295.59375 64.104164 296.10938 64.65104Q296.625 65.18229 297.40625 65.18229Q297.98438 65.18229 298.39062 64.885414Q298.8125 64.572914 299.04688 63.916664ZM295.59375 62.21354L299.0625 62.21354Q299.0 61.416664 298.67188 61.02604Q298.15625 60.416664 297.35938 60.416664Q296.625 60.416664 296.125 60.90104Q295.64062 61.385414 295.59375 62.21354ZM301.79688 65.916664L301.79688 59.697914L302.73438 59.697914L302.73438 60.572914Q303.42188 59.55729 304.71875 59.55729Q305.28125 59.55729 305.75 59.760414Q306.23438 59.96354 306.46875 60.291664Q306.70312 60.61979 306.79688 61.05729Q306.84375 61.354164 306.84375 62.08854L306.84375 65.916664L305.79688 65.916664L305.79688 62.135414Q305.79688 61.479164 305.67188 61.166664Q305.54688 60.854164 305.23438 60.666664Q304.92188 60.46354 304.5 60.46354Q303.82812 60.46354 303.32812 60.90104Q302.84375 61.322914 302.84375 62.510414L302.84375 65.916664L301.79688 65.916664ZM312.82812 65.916664L312.82812 65.135414Q312.23438 66.05729 311.09375 66.05729Q310.34375 66.05729 309.71875 65.65104Q309.09375 65.229164 308.75 64.49479Q308.40625 63.760414 308.40625 62.80729Q308.40625 61.885414 308.71875 61.11979Q309.03125 60.354164 309.65625 59.96354Q310.28125 59.55729 311.04688 59.55729Q311.60938 59.55729 312.04688 59.791664Q312.48438 60.02604 312.76562 60.40104L312.76562 57.322914L313.8125 57.322914L313.8125 65.916664L312.82812 65.916664ZM309.5 62.80729Q309.5 64.010414 310.0 64.604164Q310.5 65.18229 311.1875 65.18229Q311.875 65.18229 312.35938 64.61979Q312.84375 64.05729 312.84375 62.90104Q312.84375 61.61979 312.34375 61.02604Q311.85938 60.43229 311.14062 60.43229Q310.4375 60.43229 309.96875 61.010414Q309.5 61.572914 309.5 62.80729ZM320.04688 63.916664L321.14062 64.041664Q320.89062 64.99479 320.1875 65.52604Q319.48438 66.05729 318.40625 66.05729Q317.04688 66.05729 316.23438 65.21354Q315.4375 64.36979 315.4375 62.854164Q315.4375 61.291664 316.25 60.43229Q317.0625 59.55729 318.34375 59.55729Q319.59375 59.55729 320.375 60.40104Q321.17188 61.24479 321.17188 62.791664Q321.17188 62.885414 321.17188 63.072914L316.53125 63.072914Q316.59375 64.104164 317.10938 64.65104Q317.625 65.18229 318.40625 65.18229Q318.98438 65.18229 319.39062 64.885414Q319.8125 64.572914 320.04688 63.916664ZM316.59375 62.21354L320.0625 62.21354Q320.0 61.416664 319.67188 61.02604Q319.15625 60.416664 318.35938 60.416664Q317.625 60.416664 317.125 60.90104Q316.64062 61.385414 316.59375 62.21354ZM326.82812 65.916664L326.82812 65.135414Q326.23438 66.05729 325.09375 66.05729Q324.34375 66.05729 323.71875 65.65104Q323.09375 65.229164 322.75 64.49479Q322.40625 63.760414 322.40625 62.80729Q322.40625 61.885414 322.71875 61.11979Q323.03125 60.354164 323.65625 59.96354Q324.28125 59.55729 325.04688 59.55729Q325.60938 59.55729 326.04688 59.791664Q326.48438 60.02604 326.76562 60.40104L326.76562 57.322914L327.8125 57.322914L327.8125 65.916664L326.82812 65.916664ZM323.5 62.80729Q323.5 64.010414 324.0 64.604164Q324.5 65.18229 325.1875 65.18229Q325.875 65.18229 326.35938 64.61979Q326.84375 64.05729 326.84375 62.90104Q326.84375 61.61979 326.34375 61.02604Q325.85938 60.43229 325.14062 60.43229Q324.4375 60.43229 323.96875 61.010414Q323.5 61.572914 323.5 62.80729Z" fill-rule="nonzero"/><path fill="#fbbc04" d="M345.0 56.916668C345.0 56.364384 345.44772 55.916668 346.0 55.916668L356.0 55.916668C356.55228 55.916668 357.0 56.364384 357.0 56.916668L357.0 66.916664C357.0 67.46895 356.55228 67.916664 356.0 67.916664L346.0 67.916664C345.44772 67.916664 345.0 67.46895 345.0 66.916664Z" fill-rule="nonzero"/><path fill="#1a1a1a" d="M365.79688 68.30729L365.79688 59.697914L366.75 59.697914L366.75 60.49479Q367.09375 60.02604 367.51562 59.791664Q367.95312 59.55729 368.5625 59.55729Q369.35938 59.55729 369.96875 59.96354Q370.57812 60.36979 370.875 61.11979Q371.1875 61.86979 371.1875 62.760414Q371.1875 63.71354 370.84375 64.479164Q370.51562 65.24479 369.85938 65.65104Q369.20312 66.05729 368.48438 66.05729Q367.95312 66.05729 367.53125 65.83854Q367.10938 65.604164 366.84375 65.27604L366.84375 68.30729L365.79688 68.30729ZM366.75 62.83854Q366.75 64.041664 367.23438 64.61979Q367.71875 65.18229 368.40625 65.18229Q369.10938 65.18229 369.60938 64.58854Q370.10938 63.99479 370.10938 62.74479Q370.10938 61.55729 369.625 60.979164Q369.14062 60.385414 368.45312 60.385414Q367.78125 60.385414 367.26562 61.010414Q366.75 61.635414 366.75 62.83854ZM372.78125 65.916664L372.78125 59.697914L373.73438 59.697914L373.73438 60.635414Q374.09375 59.979164 374.39062 59.77604Q374.70312 59.55729 375.07812 59.55729Q375.60938 59.55729 376.15625 59.885414L375.79688 60.86979Q375.40625 60.635414 375.03125 60.635414Q374.67188 60.635414 374.39062 60.854164Q374.125 61.05729 374.01562 61.43229Q373.82812 61.99479 373.82812 62.65104L373.82812 65.916664L372.78125 65.916664ZM381.04688 63.916664L382.14062 64.041664Q381.89062 64.99479 381.1875 65.52604Q380.48438 66.05729 379.40625 66.05729Q378.04688 66.05729 377.23438 65.21354Q376.4375 64.36979 376.4375 62.854164Q376.4375 61.291664 377.25 60.43229Q378.0625 59.55729 379.34375 59.55729Q380.59375 59.55729 381.375 60.40104Q382.17188 61.24479 382.17188 62.791664Q382.17188 62.885414 382.17188 63.072914L377.53125 63.072914Q377.59375 64.104164 378.10938 64.65104Q378.625 65.18229 379.40625 65.18229Q379.98438 65.18229 380.39062 64.885414Q380.8125 64.572914 381.04688 63.916664ZM377.59375 62.21354L381.0625 62.21354Q381.0 61.416664 380.67188 61.02604Q380.15625 60.416664 379.35938 60.416664Q378.625 60.416664 378.125 60.90104Q377.64062 61.385414 377.59375 62.21354ZM383.79688 68.30729L383.79688 59.697914L384.75 59.697914L384.75 60.49479Q385.09375 60.02604 385.51562 59.791664Q385.95312 59.55729 386.5625 59.55729Q387.35938 59.55729 387.96875 59.96354Q388.57812 60.36979 388.875 61.11979Q389.1875 61.86979 389.1875 62.760414Q389.1875 63.71354 388.84375 64.479164Q388.51562 65.24479 387.85938 65.65104Q387.20312 66.05729 386.48438 66.05729Q385.95312 66.05729 385.53125 65.83854Q385.10938 65.604164 384.84375 65.27604L384.84375 68.30729L383.79688 68.30729ZM384.75 62.83854Q384.75 64.041664 385.23438 64.61979Q385.71875 65.18229 386.40625 65.18229Q387.10938 65.18229 387.60938 64.58854Q388.10938 63.99479 388.10938 62.74479Q388.10938 61.55729 387.625 60.979164Q387.14062 60.385414 386.45312 60.385414Q385.78125 60.385414 385.26562 61.010414Q384.75 61.635414 384.75 62.83854ZM394.85938 65.15104Q394.26562 65.65104 393.71875 65.854164Q393.1875 66.05729 392.5625 66.05729Q391.53125 66.05729 390.98438 65.55729Q390.4375 65.05729 390.4375 64.27604Q390.4375 63.822914 390.64062 63.447914Q390.84375 63.05729 391.1875 62.83854Q391.53125 62.604164 391.95312 62.49479Q392.25 62.40104 392.89062 62.322914Q394.15625 62.18229 394.76562 61.96354Q394.76562 61.74479 394.76562 61.697914Q394.76562 61.041664 394.46875 60.77604Q394.0625 60.43229 393.26562 60.43229Q392.53125 60.43229 392.17188 60.697914Q391.8125 60.947914 391.64062 61.604164L390.60938 61.46354Q390.75 60.80729 391.07812 60.40104Q391.40625 59.99479 392.01562 59.77604Q392.625 59.55729 393.42188 59.55729Q394.21875 59.55729 394.71875 59.74479Q395.21875 59.93229 395.45312 60.21354Q395.6875 60.49479 395.78125 60.93229Q395.82812 61.197914 395.82812 61.90104L395.82812 63.30729Q395.82812 64.77604 395.89062 65.166664Q395.96875 65.55729 396.17188 65.916664L395.0625 65.916664Q394.90625 65.58854 394.85938 65.15104ZM394.76562 62.791664Q394.1875 63.02604 393.04688 63.197914Q392.39062 63.291664 392.125 63.416664Q391.85938 63.52604 391.70312 63.74479Q391.5625 63.96354 391.5625 64.24479Q391.5625 64.666664 391.875 64.947914Q392.20312 65.229164 392.8125 65.229164Q393.42188 65.229164 393.89062 64.96354Q394.375 64.697914 394.59375 64.229164Q394.76562 63.86979 394.76562 63.18229L394.76562 62.791664ZM397.78125 65.916664L397.78125 59.697914L398.73438 59.697914L398.73438 60.635414Q399.09375 59.979164 399.39062 59.77604Q399.70312 59.55729 400.07812 59.55729Q400.60938 59.55729 401.15625 59.885414L400.79688 60.86979Q400.40625 60.635414 400.03125 60.635414Q399.67188 60.635414 399.39062 60.854164Q399.125 61.05729 399.01562 61.43229Q398.82812 61.99479 398.82812 62.65104L398.82812 65.916664L397.78125 65.916664ZM406.04688 63.916664L407.14062 64.041664Q406.89062 64.99479 406.1875 65.52604Q405.48438 66.05729 404.40625 66.05729Q403.04688 66.05729 402.23438 65.21354Q401.4375 64.36979 401.4375 62.854164Q401.4375 61.291664 402.25 60.43229Q403.0625 59.55729 404.34375 59.55729Q405.59375 59.55729 406.375 60.40104Q407.17188 61.24479 407.17188 62.791664Q407.17188 62.885414 407.17188 63.072914L402.53125 63.072914Q402.59375 64.104164 403.10938 64.65104Q403.625 65.18229 404.40625 65.18229Q404.98438 65.18229 405.39062 64.885414Q405.8125 64.572914 406.04688 63.916664ZM402.59375 62.21354L406.0625 62.21354Q406.0 61.416664 405.67188 61.02604Q405.15625 60.416664 404.35938 60.416664Q403.625 60.416664 403.125 60.90104Q402.64062 61.385414 402.59375 62.21354ZM412.82812 65.916664L412.82812 65.135414Q412.23438 66.05729 411.09375 66.05729Q410.34375 66.05729 409.71875 65.65104Q409.09375 65.229164 408.75 64.49479Q408.40625 63.760414 408.40625 62.80729Q408.40625 61.885414 408.71875 61.11979Q409.03125 60.354164 409.65625 59.96354Q410.28125 59.55729 411.04688 59.55729Q411.60938 59.55729 412.04688 59.791664Q412.48438 60.02604 412.76562 60.40104L412.76562 57.322914L413.8125 57.322914L413.8125 65.916664L412.82812 65.916664ZM409.5 62.80729Q409.5 64.010414 410.0 64.604164Q410.5 65.18229 411.1875 65.18229Q411.875 65.18229 412.35938 64.61979Q412.84375 64.05729 412.84375 62.90104Q412.84375 61.61979 412.34375 61.02604Q411.85938 60.43229 411.14062 60.43229Q410.4375 60.43229 409.96875 61.010414Q409.5 61.572914 409.5 62.80729Z" fill-rule="nonzero"/><path fill="#757575" d="M184.6875 37.55L184.6875 24.925L179.96875 24.925L179.96875 23.2375L191.3125 23.2375L191.3125 24.925L186.57812 24.925L186.57812 37.55L184.6875 37.55ZM192.8125 37.55L192.8125 23.2375L194.57812 23.2375L194.57812 28.3625Q195.8125 26.940624 197.6875 26.940624Q198.82812 26.940624 199.67188 27.39375Q200.53125 27.846874 200.89062 28.659374Q201.26562 29.45625 201.26562 30.971874L201.26562 37.55L199.51562 37.55L199.51562 30.971874Q199.51562 29.659374 198.9375 29.065624Q198.35938 28.45625 197.32812 28.45625Q196.54688 28.45625 195.84375 28.8625Q195.15625 29.26875 194.85938 29.971874Q194.57812 30.659374 194.57812 31.878124L194.57812 37.55L192.8125 37.55ZM202.79688 37.55L202.79688 27.175L204.375 27.175L204.375 28.753124Q204.98438 27.64375 205.5 27.3Q206.01562 26.940624 206.625 26.940624Q207.51562 26.940624 208.4375 27.503124L207.82812 29.14375Q207.1875 28.753124 206.54688 28.753124Q205.96875 28.753124 205.5 29.1125Q205.04688 29.45625 204.84375 30.065624Q204.5625 31.003124 204.5625 32.1125L204.5625 37.55L202.79688 37.55ZM209.17188 32.3625Q209.17188 29.4875 210.76562 28.096874Q212.10938 26.940624 214.03125 26.940624Q216.17188 26.940624 217.51562 28.346874Q218.875 29.753124 218.875 32.221874Q218.875 34.221874 218.28125 35.378124Q217.6875 36.51875 216.53125 37.159374Q215.39062 37.784374 214.03125 37.784374Q211.84375 37.784374 210.5 36.39375Q209.17188 34.9875 209.17188 32.3625ZM210.96875 32.3625Q210.96875 34.3625 211.82812 35.346874Q212.70312 36.33125 214.03125 36.33125Q215.34375 36.33125 216.20312 35.346874Q217.07812 34.346874 217.07812 32.3Q217.07812 30.378124 216.20312 29.39375Q215.32812 28.39375 214.03125 28.39375Q212.70312 28.39375 211.82812 29.39375Q210.96875 30.378124 210.96875 32.3625ZM227.60938 37.55L227.60938 36.01875Q226.40625 37.784374 224.32812 37.784374Q223.40625 37.784374 222.60938 37.440624Q221.8125 37.08125 221.42188 36.55Q221.04688 36.01875 220.89062 35.2375Q220.78125 34.721874 220.78125 33.596874L220.78125 27.175L222.53125 27.175L222.53125 32.925Q222.53125 34.3 222.64062 34.784374Q222.8125 35.471874 223.34375 35.878124Q223.89062 36.26875 224.67188 36.26875Q225.46875 36.26875 226.15625 35.8625Q226.85938 35.45625 227.14062 34.76875Q227.4375 34.065624 227.4375 32.7375L227.4375 27.175L229.1875 27.175L229.1875 37.55L227.60938 37.55ZM230.5 38.409374L232.20312 38.659374Q232.3125 39.45625 232.79688 39.815624Q233.45312 40.3 234.59375 40.3Q235.8125 40.3 236.46875 39.815624Q237.14062 39.33125 237.375 38.45625Q237.51562 37.909374 237.5 36.190624Q236.34375 37.55 234.625 37.55Q232.48438 37.55 231.3125 36.003124Q230.14062 34.45625 230.14062 32.3Q230.14062 30.815624 230.67188 29.565624Q231.21875 28.315624 232.23438 27.628124Q233.26562 26.940624 234.64062 26.940624Q236.46875 26.940624 237.67188 28.425L237.67188 27.175L239.28125 27.175L239.28125 36.14375Q239.28125 38.565624 238.78125 39.565624Q238.29688 40.58125 237.21875 41.159374Q236.15625 41.753124 234.59375 41.753124Q232.75 41.753124 231.59375 40.925Q230.45312 40.096874 230.5 38.409374ZM231.95312 32.175Q231.95312 34.221874 232.76562 35.159374Q233.57812 36.096874 234.79688 36.096874Q236.0 36.096874 236.8125 35.159374Q237.64062 34.221874 237.64062 32.2375Q237.64062 30.33125 236.79688 29.3625Q235.95312 28.39375 234.76562 28.39375Q233.59375 28.39375 232.76562 29.346874Q231.95312 30.3 231.95312 32.175ZM241.8125 37.55L241.8125 23.2375L243.57812 23.2375L243.57812 28.3625Q244.8125 26.940624 246.6875 26.940624Q247.82812 26.940624 248.67188 27.39375Q249.53125 27.846874 249.89062 28.659374Q250.26562 29.45625 250.26562 30.971874L250.26562 37.55L248.51562 37.55L248.51562 30.971874Q248.51562 29.659374 247.9375 29.065624Q247.35938 28.45625 246.32812 28.45625Q245.54688 28.45625 244.84375 28.8625Q244.15625 29.26875 243.85938 29.971874Q243.57812 30.659374 243.57812 31.878124L243.57812 37.55L241.8125 37.55ZM251.8125 41.51875L251.8125 27.175L253.42188 27.175L253.42188 28.51875Q253.98438 27.7375 254.6875 27.346874Q255.40625 26.940624 256.42188 26.940624Q257.75 26.940624 258.76562 27.628124Q259.78125 28.315624 260.29688 29.565624Q260.82812 30.8 260.82812 32.284374Q260.82812 33.878124 260.25 35.159374Q259.6875 36.425 258.59375 37.1125Q257.5 37.784374 256.29688 37.784374Q255.42188 37.784374 254.71875 37.409374Q254.03125 37.034374 253.57812 36.471874L253.57812 41.51875L251.8125 41.51875ZM253.40625 32.425Q253.40625 34.425 254.21875 35.378124Q255.03125 36.33125 256.1875 36.33125Q257.35938 36.33125 258.1875 35.346874Q259.03125 34.3625 259.03125 32.26875Q259.03125 30.3 258.20312 29.315624Q257.39062 28.315624 256.26562 28.315624Q255.14062 28.315624 254.26562 29.378124Q253.40625 30.425 253.40625 32.425ZM269.60938 37.55L269.60938 36.01875Q268.40625 37.784374 266.32812 37.784374Q265.40625 37.784374 264.60938 37.440624Q263.8125 37.08125 263.42188 36.55Q263.04688 36.01875 262.89062 35.2375Q262.78125 34.721874 262.78125 33.596874L262.78125 27.175L264.53125 27.175L264.53125 32.925Q264.53125 34.3 264.64062 34.784374Q264.8125 35.471874 265.34375 35.878124Q265.89062 36.26875 266.67188 36.26875Q267.46875 36.26875 268.15625 35.8625Q268.85938 35.45625 269.14062 34.76875Q269.4375 34.065624 269.4375 32.7375L269.4375 27.175L271.1875 27.175L271.1875 37.55L269.60938 37.55ZM276.65625 35.971874L276.90625 37.534374Q276.17188 37.690624 275.57812 37.690624Q274.625 37.690624 274.09375 37.39375Q273.57812 37.08125 273.35938 36.596874Q273.14062 36.096874 273.14062 34.51875L273.14062 28.55L271.85938 28.55L271.85938 27.175L273.14062 27.175L273.14062 24.6125L274.89062 23.55L274.89062 27.175L276.65625 27.175L276.65625 28.55L274.89062 28.55L274.89062 34.6125Q274.89062 35.3625 274.98438 35.58125Q275.07812 35.784374 275.28125 35.925Q275.5 36.05 275.89062 36.05Q276.17188 36.05 276.65625 35.971874ZM288.17188 41.753124Q286.71875 39.925 285.71875 37.471874Q284.71875 35.003124 284.71875 32.3625Q284.71875 30.034374 285.46875 27.909374Q286.34375 25.440624 288.17188 22.9875L289.4375 22.9875Q288.25 25.01875 287.875 25.89375Q287.28125 27.2375 286.9375 28.70625Q286.51562 30.534374 286.51562 32.378124Q286.51562 37.065624 289.4375 41.753124L288.17188 41.753124ZM291.8125 37.55L291.8125 27.175L293.39062 27.175L293.39062 28.628124Q293.875 27.878124 294.6875 27.409374Q295.5 26.940624 296.53125 26.940624Q297.6875 26.940624 298.42188 27.425Q299.15625 27.89375 299.46875 28.753124Q300.70312 26.940624 302.67188 26.940624Q304.21875 26.940624 305.04688 27.8Q305.875 28.659374 305.875 30.425L305.875 37.55L304.125 37.55L304.125 31.01875Q304.125 29.95625 303.95312 29.503124Q303.78125 29.034374 303.32812 28.753124Q302.89062 28.471874 302.28125 28.471874Q301.1875 28.471874 300.45312 29.20625Q299.73438 29.925 299.73438 31.51875L299.73438 37.55L297.98438 37.55L297.98438 30.815624Q297.98438 29.64375 297.54688 29.065624Q297.125 28.471874 296.14062 28.471874Q295.40625 28.471874 294.76562 28.8625Q294.14062 29.253124 293.85938 30.003124Q293.57812 30.753124 293.57812 32.175L293.57812 37.55L291.8125 37.55ZM307.17188 32.3625Q307.17188 29.4875 308.76562 28.096874Q310.10938 26.940624 312.03125 26.940624Q314.17188 26.940624 315.51562 28.346874Q316.875 29.753124 316.875 32.221874Q316.875 34.221874 316.28125 35.378124Q315.6875 36.51875 314.53125 37.159374Q313.39062 37.784374 312.03125 37.784374Q309.84375 37.784374 308.5 36.39375Q307.17188 34.9875 307.17188 32.3625ZM308.96875 32.3625Q308.96875 34.3625 309.82812 35.346874Q310.70312 36.33125 312.03125 36.33125Q313.34375 36.33125 314.20312 35.346874Q315.07812 34.346874 315.07812 32.3Q315.07812 30.378124 314.20312 29.39375Q313.32812 28.39375 312.03125 28.39375Q310.70312 28.39375 309.82812 29.39375Q308.96875 30.378124 308.96875 32.3625ZM318.79688 37.55L318.79688 27.175L320.375 27.175L320.375 28.753124Q320.98438 27.64375 321.5 27.3Q322.01562 26.940624 322.625 26.940624Q323.51562 26.940624 324.4375 27.503124L323.82812 29.14375Q323.1875 28.753124 322.54688 28.753124Q321.96875 28.753124 321.5 29.1125Q321.04688 29.45625 320.84375 30.065624Q320.5625 31.003124 320.5625 32.1125L320.5625 37.55L318.79688 37.55ZM332.92188 34.20625L334.73438 34.440624Q334.3125 36.01875 333.14062 36.909374Q331.98438 37.784374 330.17188 37.784374Q327.90625 37.784374 326.5625 36.39375Q325.23438 34.9875 325.23438 32.45625Q325.23438 29.83125 326.57812 28.39375Q327.92188 26.940624 330.07812 26.940624Q332.15625 26.940624 333.46875 28.3625Q334.79688 29.76875 334.79688 32.346874Q334.79688 32.503124 334.78125 32.815624L327.04688 32.815624Q327.14062 34.51875 328.01562 35.425Q328.89062 36.33125 330.1875 36.33125Q331.15625 36.33125 331.82812 35.83125Q332.51562 35.315624 332.92188 34.20625ZM327.14062 31.3625L332.9375 31.3625Q332.82812 30.065624 332.28125 29.409374Q331.4375 28.39375 330.09375 28.39375Q328.89062 28.39375 328.0625 29.20625Q327.23438 30.003124 327.14062 31.3625ZM342.82812 25.253124L342.82812 23.2375L344.59375 23.2375L344.59375 25.253124L342.82812 25.253124ZM342.82812 37.55L342.82812 27.175L344.59375 27.175L344.59375 37.55L342.82812 37.55ZM346.10938 34.45625L347.85938 34.175Q348.0 35.221874 348.67188 35.784374Q349.34375 36.33125 350.54688 36.33125Q351.75 36.33125 352.32812 35.846874Q352.92188 35.346874 352.92188 34.690624Q352.92188 34.096874 352.40625 33.753124Q352.04688 33.51875 350.60938 33.159374Q348.67188 32.659374 347.92188 32.315624Q347.1875 31.95625 346.79688 31.33125Q346.40625 30.690624 346.40625 29.925Q346.40625 29.2375 346.71875 28.64375Q347.04688 28.05 347.59375 27.659374Q348.0 27.3625 348.70312 27.159374Q349.42188 26.940624 350.23438 26.940624Q351.45312 26.940624 352.375 27.3Q353.29688 27.64375 353.73438 28.253124Q354.17188 28.846874 354.34375 29.846874L352.625 30.08125Q352.5 29.284374 351.9375 28.846874Q351.375 28.39375 350.35938 28.39375Q349.14062 28.39375 348.625 28.8Q348.10938 29.190624 348.10938 29.721874Q348.10938 30.065624 348.32812 30.346874Q348.53125 30.628124 349.0 30.815624Q349.26562 30.909374 350.54688 31.253124Q352.42188 31.753124 353.15625 32.08125Q353.89062 32.39375 354.3125 33.003124Q354.73438 33.596874 354.73438 34.503124Q354.73438 35.378124 354.21875 36.159374Q353.70312 36.940624 352.73438 37.3625Q351.76562 37.784374 350.54688 37.784374Q348.53125 37.784374 347.46875 36.940624Q346.40625 36.096874 346.10938 34.45625ZM364.4375 37.55L362.8125 37.55L362.8125 23.2375L364.5625 23.2375L364.5625 28.346874Q365.6875 26.940624 367.40625 26.940624Q368.35938 26.940624 369.21875 27.33125Q370.07812 27.721874 370.625 28.425Q371.17188 29.1125 371.48438 30.096874Q371.79688 31.08125 371.79688 32.20625Q371.79688 34.878124 370.48438 36.33125Q369.17188 37.784374 367.32812 37.784374Q365.48438 37.784374 364.4375 36.253124L364.4375 37.55ZM364.42188 32.284374Q364.42188 34.14375 364.92188 34.9875Q365.76562 36.33125 367.17188 36.33125Q368.32812 36.33125 369.15625 35.33125Q370.0 34.33125 370.0 32.346874Q370.0 30.315624 369.1875 29.3625Q368.39062 28.39375 367.25 28.39375Q366.09375 28.39375 365.25 29.39375Q364.42188 30.39375 364.42188 32.284374ZM380.92188 34.20625L382.73438 34.440624Q382.3125 36.01875 381.14062 36.909374Q379.98438 37.784374 378.17188 37.784374Q375.90625 37.784374 374.5625 36.39375Q373.23438 34.9875 373.23438 32.45625Q373.23438 29.83125 374.57812 28.39375Q375.92188 26.940624 378.07812 26.940624Q380.15625 26.940624 381.46875 28.3625Q382.79688 29.76875 382.79688 32.346874Q382.79688 32.503124 382.78125 32.815624L375.04688 32.815624Q375.14062 34.51875 376.01562 35.425Q376.89062 36.33125 378.1875 36.33125Q379.15625 36.33125 379.82812 35.83125Q380.51562 35.315624 380.92188 34.20625ZM375.14062 31.3625L380.9375 31.3625Q380.82812 30.065624 380.28125 29.409374Q379.4375 28.39375 378.09375 28.39375Q376.89062 28.39375 376.0625 29.20625Q375.23438 30.003124 375.14062 31.3625ZM388.65625 35.971874L388.90625 37.534374Q388.17188 37.690624 387.57812 37.690624Q386.625 37.690624 386.09375 37.39375Q385.57812 37.08125 385.35938 36.596874Q385.14062 36.096874 385.14062 34.51875L385.14062 28.55L383.85938 28.55L383.85938 27.175L385.14062 27.175L385.14062 24.6125L386.89062 23.55L386.89062 27.175L388.65625 27.175L388.65625 28.55L386.89062 28.55L386.89062 34.6125Q386.89062 35.3625 386.98438 35.58125Q387.07812 35.784374 387.28125 35.925Q387.5 36.05 387.89062 36.05Q388.17188 36.05 388.65625 35.971874ZM394.65625 35.971874L394.90625 37.534374Q394.17188 37.690624 393.57812 37.690624Q392.625 37.690624 392.09375 37.39375Q391.57812 37.08125 391.35938 36.596874Q391.14062 36.096874 391.14062 34.51875L391.14062 28.55L389.85938 28.55L389.85938 27.175L391.14062 27.175L391.14062 24.6125L392.89062 23.55L392.89062 27.175L394.65625 27.175L394.65625 28.55L392.89062 28.55L392.89062 34.6125Q392.89062 35.3625 392.98438 35.58125Q393.07812 35.784374 393.28125 35.925Q393.5 36.05 393.89062 36.05Q394.17188 36.05 394.65625 35.971874ZM403.92188 34.20625L405.73438 34.440624Q405.3125 36.01875 404.14062 36.909374Q402.98438 37.784374 401.17188 37.784374Q398.90625 37.784374 397.5625 36.39375Q396.23438 34.9875 396.23438 32.45625Q396.23438 29.83125 397.57812 28.39375Q398.92188 26.940624 401.07812 26.940624Q403.15625 26.940624 404.46875 28.3625Q405.79688 29.76875 405.79688 32.346874Q405.79688 32.503124 405.78125 32.815624L398.04688 32.815624Q398.14062 34.51875 399.01562 35.425Q399.89062 36.33125 401.1875 36.33125Q402.15625 36.33125 402.82812 35.83125Q403.51562 35.315624 403.92188 34.20625ZM398.14062 31.3625L403.9375 31.3625Q403.82812 30.065624 403.28125 29.409374Q402.4375 28.39375 401.09375 28.39375Q399.89062 28.39375 399.0625 29.20625Q398.23438 30.003124 398.14062 31.3625ZM407.79688 37.55L407.79688 27.175L409.375 27.175L409.375 28.753124Q409.98438 27.64375 410.5 27.3Q411.01562 26.940624 411.625 26.940624Q412.51562 26.940624 413.4375 27.503124L412.82812 29.14375Q412.1875 28.753124 411.54688 28.753124Q410.96875 28.753124 410.5 29.1125Q410.04688 29.45625 409.84375 30.065624Q409.5625 31.003124 409.5625 32.1125L409.5625 37.55L407.79688 37.55ZM415.96875 41.753124L414.71875 41.753124Q417.625 37.065624 417.625 32.378124Q417.625 30.534374 417.21875 28.7375Q416.875 27.26875 416.28125 25.925Q415.90625 25.034374 414.71875 22.9875L415.96875 22.9875Q417.8125 25.440624 418.6875 27.909374Q419.4375 30.034374 419.4375 32.3625Q419.4375 35.003124 418.42188 37.471874Q417.42188 39.925 415.96875 41.753124Z" fill-rule="nonzero"/></svg>