<svg width="540" height="544" viewBox="0 0 540 544" fill="none" xmlns="http://www.w3.org/2000/svg">
<rect width="540" height="544" rx="40" fill="#0D0D0E"/>
<path d="M361 420H272.022C269.813 420 268.022 418.209 268.022 416V276C268.022 273.791 266.231 272 264.022 272H179" stroke="url(#paint0_linear_36_612)"/>
<path d="M361 124H272.541C270.332 124 268.541 125.791 268.541 128V268C268.541 270.209 266.75 272 264.541 272H181" stroke="url(#paint1_linear_36_612)"/>
<path d="M361 272H180" stroke="url(#paint2_linear_36_612)"/>
<g filter="url(#filter0_f_36_612)">
<circle cx="360.792" cy="420" r="7" fill="#D5488C"/>
</g>
<g filter="url(#filter1_f_36_612)">
<circle cx="360.792" cy="272" r="7" fill="#D5488C"/>
</g>
<g filter="url(#filter2_f_36_612)">
<circle cx="360.792" cy="124" r="7" fill="#D5488C"/>
</g>
<path d="M479.794 465C479.794 467.393 478.262 469.762 475.28 471.995C472.306 474.222 467.971 476.248 462.57 477.958C451.773 481.377 436.826 483.5 420.294 483.5C403.763 483.5 388.816 481.377 378.019 477.958C372.618 476.248 368.283 474.222 365.309 471.995C362.327 469.762 360.794 467.393 360.794 465V375.5H479.794V465Z" fill="#0D0D0E" stroke="url(#paint3_linear_36_612)"/>
<path d="M479.794 375C479.794 377.393 478.262 379.762 475.28 381.995C472.306 384.222 467.971 386.248 462.57 387.958C451.773 391.377 436.826 393.5 420.294 393.5C403.763 393.5 388.816 391.377 378.019 387.958C372.618 386.248 368.283 384.222 365.309 381.995C362.327 379.762 360.794 377.393 360.794 375C360.794 372.607 362.327 370.238 365.309 368.005C368.283 365.778 372.618 363.752 378.019 362.042C388.816 358.623 403.763 356.5 420.294 356.5C436.826 356.5 451.773 358.623 462.57 362.042C467.971 363.752 472.306 365.778 475.28 368.005C478.262 370.238 479.794 372.607 479.794 375Z" fill="#0D0D0E" stroke="url(#paint4_linear_36_612)"/>
<path d="M389.081 425.95V425.896H391.799C391.871 426.922 392.699 427.624 394.085 427.624C395.255 427.624 395.975 427.174 395.975 426.382C395.975 424.042 389.405 426.148 389.405 420.946C389.405 419.848 389.801 418.948 390.611 418.246C391.421 417.526 392.537 417.166 393.941 417.166C395.291 417.166 396.407 417.508 397.253 418.21C398.117 418.894 398.567 419.884 398.621 421.18H395.777C395.759 420.298 395.093 419.704 393.941 419.704C392.861 419.704 392.249 420.172 392.249 420.874C392.249 423.124 398.945 421.054 398.945 426.166C398.945 427.372 398.513 428.344 397.631 429.1C396.749 429.856 395.543 430.234 393.995 430.234C392.465 430.252 391.277 429.856 390.395 429.046C389.513 428.272 389.081 427.228 389.081 425.95ZM403.614 430H400.77V417.4H403.614V422.278H408.636V417.4H411.498V430H408.636V425.014H403.614V430ZM415.879 430H412.963L417.247 417.4H420.883L425.221 430H422.197L421.441 427.768H416.617L415.879 430ZM418.957 420.532L417.391 425.23H420.667L419.119 420.532H418.957ZM429.542 430H426.698V417.4H431.63C432.926 417.4 433.988 417.796 434.834 418.57C435.68 419.344 436.094 420.334 436.094 421.558C436.094 423.196 435.176 424.564 433.862 425.23L436.544 430H433.376L431.234 425.788H429.542V430ZM429.542 419.83V423.358H431.378C432.458 423.358 433.178 422.692 433.178 421.558C433.178 420.496 432.476 419.83 431.342 419.83H429.542ZM442.834 430H438.352V417.4H442.834C446.866 417.4 449.314 419.956 449.314 423.646C449.314 425.608 448.738 427.156 447.568 428.29C446.416 429.424 444.832 430 442.834 430ZM441.196 419.866V427.534H442.708C444.562 427.534 446.344 426.508 446.344 423.646C446.344 420.928 444.544 419.866 442.708 419.866H441.196ZM410.478 451.76H408.898V450.46H410.678L411.118 447.56H409.498V446.26H411.318L411.958 442H413.378L412.738 446.26H414.918L415.558 442H416.978L416.338 446.26H417.918V447.56H416.138L415.698 450.46H417.318V451.76H415.498L414.858 456H413.438L414.078 451.76H411.898L411.258 456H409.838L410.478 451.76ZM412.538 447.56L412.098 450.46H414.278L414.718 447.56H412.538ZM420.284 452.14H421.804C421.824 453.64 423.004 454.72 424.624 454.72C426.404 454.72 427.624 453.58 427.624 451.76C427.624 450.9 427.324 450.2 426.744 449.66C426.164 449.12 425.444 448.84 424.584 448.84H422.964V447.46L426.664 443.6V443.48H420.604V442H428.744V443.5L424.984 447.32V447.44C426.204 447.48 427.224 447.9 428.044 448.72C428.864 449.52 429.284 450.52 429.284 451.72C429.344 454.1 427.544 456.24 424.624 456.24C421.744 456.24 420.284 453.96 420.284 452.14Z" fill="white"/>
<path d="M479.794 317C479.794 319.393 478.262 321.762 475.28 323.995C472.306 326.222 467.971 328.248 462.57 329.958C451.773 333.377 436.826 335.5 420.294 335.5C403.763 335.5 388.816 333.377 378.019 329.958C372.618 328.248 368.283 326.222 365.309 323.995C362.327 321.762 360.794 319.393 360.794 317V227.5H479.794V317Z" fill="#0D0D0E" stroke="url(#paint5_linear_36_612)"/>
<path d="M479.794 227C479.794 229.393 478.262 231.762 475.28 233.995C472.306 236.222 467.971 238.248 462.57 239.958C451.773 243.377 436.826 245.5 420.294 245.5C403.763 245.5 388.816 243.377 378.019 239.958C372.618 238.248 368.283 236.222 365.309 233.995C362.327 231.762 360.794 229.393 360.794 227C360.794 224.607 362.327 222.238 365.309 220.005C368.283 217.778 372.618 215.752 378.019 214.042C388.816 210.623 403.763 208.5 420.294 208.5C436.826 208.5 451.773 210.623 462.57 214.042C467.971 215.752 472.306 217.778 475.28 220.005C478.262 222.238 479.794 224.607 479.794 227Z" fill="#0D0D0E" stroke="url(#paint6_linear_36_612)"/>
<path d="M389.081 277.95V277.896H391.799C391.871 278.922 392.699 279.624 394.085 279.624C395.255 279.624 395.975 279.174 395.975 278.382C395.975 276.042 389.405 278.148 389.405 272.946C389.405 271.848 389.801 270.948 390.611 270.246C391.421 269.526 392.537 269.166 393.941 269.166C395.291 269.166 396.407 269.508 397.253 270.21C398.117 270.894 398.567 271.884 398.621 273.18H395.777C395.759 272.298 395.093 271.704 393.941 271.704C392.861 271.704 392.249 272.172 392.249 272.874C392.249 275.124 398.945 273.054 398.945 278.166C398.945 279.372 398.513 280.344 397.631 281.1C396.749 281.856 395.543 282.234 393.995 282.234C392.465 282.252 391.277 281.856 390.395 281.046C389.513 280.272 389.081 279.228 389.081 277.95ZM403.614 282H400.77V269.4H403.614V274.278H408.636V269.4H411.498V282H408.636V277.014H403.614V282ZM415.879 282H412.963L417.247 269.4H420.883L425.221 282H422.197L421.441 279.768H416.617L415.879 282ZM418.957 272.532L417.391 277.23H420.667L419.119 272.532H418.957ZM429.542 282H426.698V269.4H431.63C432.926 269.4 433.988 269.796 434.834 270.57C435.68 271.344 436.094 272.334 436.094 273.558C436.094 275.196 435.176 276.564 433.862 277.23L436.544 282H433.376L431.234 277.788H429.542V282ZM429.542 271.83V275.358H431.378C432.458 275.358 433.178 274.692 433.178 273.558C433.178 272.496 432.476 271.83 431.342 271.83H429.542ZM442.834 282H438.352V269.4H442.834C446.866 269.4 449.314 271.956 449.314 275.646C449.314 277.608 448.738 279.156 447.568 280.29C446.416 281.424 444.832 282 442.834 282ZM441.196 271.866V279.534H442.708C444.562 279.534 446.344 278.508 446.344 275.646C446.344 272.928 444.544 271.866 442.708 271.866H441.196ZM410.722 303.76H409.142V302.46H410.922L411.362 299.56H409.742V298.26H411.562L412.202 294H413.622L412.982 298.26H415.162L415.802 294H417.222L416.582 298.26H418.162V299.56H416.382L415.942 302.46H417.562V303.76H415.742L415.102 308H413.682L414.322 303.76H412.142L411.502 308H410.082L410.722 303.76ZM412.782 299.56L412.342 302.46H414.522L414.962 299.56H412.782ZM422.048 297.84H420.528C420.528 295.92 422.008 293.74 424.788 293.74C427.428 293.74 429.128 295.7 429.128 297.78C429.128 299.38 428.328 300.68 426.728 301.7L424.268 303.26C422.688 304.28 422.168 305.06 422.168 306.2V306.52H429.248V308H420.548V306.26C420.548 304.5 421.448 303.3 423.368 302.08L425.908 300.48C426.948 299.82 427.468 298.94 427.468 297.82C427.468 296.32 426.428 295.26 424.748 295.26C423.968 295.26 423.308 295.52 422.808 296.02C422.308 296.52 422.048 297.12 422.048 297.84Z" fill="white"/>
<path d="M479.794 169C479.794 171.393 478.262 173.762 475.28 175.995C472.306 178.222 467.971 180.248 462.57 181.958C451.773 185.377 436.826 187.5 420.294 187.5C403.763 187.5 388.816 185.377 378.019 181.958C372.618 180.248 368.283 178.222 365.309 175.995C362.327 173.762 360.794 171.393 360.794 169V79.5H479.794V169Z" fill="#0D0D0E" stroke="url(#paint7_linear_36_612)"/>
<path d="M479.794 79C479.794 81.3932 478.262 83.7624 475.28 85.9954C472.306 88.2217 467.971 90.2479 462.57 91.9584C451.773 95.3774 436.826 97.5 420.294 97.5C403.763 97.5 388.816 95.3774 378.019 91.9584C372.618 90.2479 368.283 88.2217 365.309 85.9954C362.327 83.7624 360.794 81.3932 360.794 79C360.794 76.6068 362.327 74.2376 365.309 72.0046C368.283 69.7783 372.618 67.7521 378.019 66.0416C388.816 62.6226 403.763 60.5 420.294 60.5C436.826 60.5 451.773 62.6226 462.57 66.0416C467.971 67.7521 472.306 69.7783 475.28 72.0046C478.262 74.2376 479.794 76.6068 479.794 79Z" fill="#0D0D0E" stroke="url(#paint8_linear_36_612)"/>
<path d="M389.081 129.95V129.896H391.799C391.871 130.922 392.699 131.624 394.085 131.624C395.255 131.624 395.975 131.174 395.975 130.382C395.975 128.042 389.405 130.148 389.405 124.946C389.405 123.848 389.801 122.948 390.611 122.246C391.421 121.526 392.537 121.166 393.941 121.166C395.291 121.166 396.407 121.508 397.253 122.21C398.117 122.894 398.567 123.884 398.621 125.18H395.777C395.759 124.298 395.093 123.704 393.941 123.704C392.861 123.704 392.249 124.172 392.249 124.874C392.249 127.124 398.945 125.054 398.945 130.166C398.945 131.372 398.513 132.344 397.631 133.1C396.749 133.856 395.543 134.234 393.995 134.234C392.465 134.252 391.277 133.856 390.395 133.046C389.513 132.272 389.081 131.228 389.081 129.95ZM403.614 134H400.77V121.4H403.614V126.278H408.636V121.4H411.498V134H408.636V129.014H403.614V134ZM415.879 134H412.963L417.247 121.4H420.883L425.221 134H422.197L421.441 131.768H416.617L415.879 134ZM418.957 124.532L417.391 129.23H420.667L419.119 124.532H418.957ZM429.542 134H426.698V121.4H431.63C432.926 121.4 433.988 121.796 434.834 122.57C435.68 123.344 436.094 124.334 436.094 125.558C436.094 127.196 435.176 128.564 433.862 129.23L436.544 134H433.376L431.234 129.788H429.542V134ZM429.542 123.83V127.358H431.378C432.458 127.358 433.178 126.692 433.178 125.558C433.178 124.496 432.476 123.83 431.342 123.83H429.542ZM442.834 134H438.352V121.4H442.834C446.866 121.4 449.314 123.956 449.314 127.646C449.314 129.608 448.738 131.156 447.568 132.29C446.416 133.424 444.832 134 442.834 134ZM441.196 123.866V131.534H442.708C444.562 131.534 446.344 130.508 446.344 127.646C446.344 124.928 444.544 123.866 442.708 123.866H441.196ZM412.07 155.76H410.49V154.46H412.27L412.71 151.56H411.09V150.26H412.91L413.55 146H414.97L414.33 150.26H416.51L417.15 146H418.57L417.93 150.26H419.51V151.56H417.73L417.29 154.46H418.91V155.76H417.09L416.45 160H415.03L415.67 155.76H413.49L412.85 160H411.43L412.07 155.76ZM414.13 151.56L413.69 154.46H415.87L416.31 151.56H414.13ZM425.476 149.3H422.076V148C424.616 148 425.576 147.44 425.576 146H427.096V160H425.476V149.3Z" fill="white"/>
<rect x="60.5" y="212.5" width="119" height="119" rx="59.5" fill="#0D0D0E"/>
<rect x="60.5" y="212.5" width="119" height="119" rx="59.5" stroke="#19D58D"/>
<g clip-path="url(#clip0_36_612)">
<path d="M128.062 251.506C126.69 251.506 125.402 252.031 124.434 252.983C122.874 254.519 122.495 256.841 123.448 258.764L120.001 260.973L116.555 258.764C117.507 256.841 117.129 254.519 115.569 252.983C114.601 252.031 113.312 251.506 111.94 251.506C110.568 251.506 109.279 252.031 108.312 252.983C107.344 253.935 106.812 255.203 106.812 256.554C106.812 257.904 107.345 259.172 108.312 260.125C109.28 261.077 110.568 261.602 111.94 261.602C112.906 261.602 113.835 261.341 114.647 260.844L118.595 263.374V266.093C116.416 266.705 114.87 268.692 114.87 270.951C114.87 273.735 117.172 276.001 120.001 276.001C122.83 276.001 125.132 273.735 125.132 270.951C125.132 268.692 123.587 266.705 121.408 266.093V263.374L125.356 260.844C126.167 261.341 127.096 261.602 128.062 261.602C129.434 261.602 130.723 261.077 131.691 260.125C133.691 258.156 133.691 254.952 131.691 252.983C130.723 252.031 129.434 251.506 128.062 251.506ZM129.702 258.168C128.8 259.056 127.331 259.057 126.426 258.171C126.426 258.171 126.424 258.17 126.424 258.169L126.416 258.162C125.519 257.272 125.521 255.829 126.423 254.941C126.86 254.511 127.442 254.274 128.062 254.274C128.683 254.274 129.265 254.511 129.702 254.941C130.606 255.831 130.606 257.278 129.702 258.168V258.168ZM122.32 270.951C122.32 272.209 121.28 273.233 120.001 273.233C118.723 273.233 117.683 272.209 117.683 270.951C117.683 269.692 118.723 268.669 120.001 268.669C121.28 268.669 122.32 269.692 122.32 270.951ZM110.301 258.168C109.864 257.738 109.623 257.164 109.623 256.554C109.623 255.944 109.864 255.371 110.301 254.941C110.738 254.51 111.32 254.273 111.94 254.273C112.561 254.273 113.143 254.51 113.58 254.941C114.017 255.371 114.258 255.944 114.258 256.554C114.258 257.165 114.019 257.733 113.585 258.163L113.575 258.173C112.67 259.057 111.203 259.055 110.301 258.168H110.301Z" fill="white"/>
<path d="M136.953 248.227L134.493 239.031C134.356 238.518 133.926 238.123 133.397 238.023C132.868 237.924 132.32 238.136 132.001 238.562L125.796 246.854C123.965 246.118 121.969 245.73 120 245.73C118.031 245.73 116.036 246.118 114.204 246.854L108.002 238.562C107.683 238.136 107.135 237.924 106.606 238.023C106.076 238.123 105.646 238.518 105.509 239.03L103.047 248.227C102.951 248.584 103.003 248.957 103.192 249.277C103.381 249.596 103.685 249.824 104.049 249.918C104.412 250.013 104.791 249.962 105.115 249.776C105.439 249.59 105.671 249.29 105.767 248.932L107.48 242.534L112.616 249.4C113.025 249.947 113.77 250.121 114.386 249.813C117.903 248.066 122.101 248.067 125.618 249.815C125.821 249.916 126.039 249.964 126.253 249.964C126.687 249.964 127.111 249.766 127.384 249.4L132.522 242.534L134.233 248.932C134.395 249.54 134.955 249.964 135.593 249.964C135.713 249.964 135.834 249.948 135.951 249.918C136.315 249.824 136.619 249.596 136.808 249.277C136.997 248.957 137.049 248.584 136.953 248.227L136.953 248.227Z" fill="white"/>
</g>
<path d="M93.6699 306H92.0499V292H97.0699C98.3499 292 99.3899 292.38 100.17 293.16C100.95 293.92 101.35 294.94 101.35 296.2C101.35 297.46 100.95 298.48 100.13 299.28C99.3299 300.06 98.3099 300.46 97.0699 300.46H93.6699V306ZM93.6699 293.44V299.02H96.9299C98.5899 299.02 99.6899 297.82 99.6899 296.2C99.6899 294.58 98.6099 293.44 96.9299 293.44H93.6699ZM101.899 300.82C101.899 299.22 102.379 297.9 103.319 296.88C104.279 295.86 105.499 295.34 106.959 295.34C107.979 295.34 108.919 295.66 109.499 296.12C110.079 296.58 110.399 296.94 110.619 297.28H110.739V295.6H112.319V306C112.319 309.04 110.379 310.86 107.259 310.86C104.779 310.86 103.079 309.54 102.739 307.62H104.239C104.499 308.82 105.659 309.48 107.259 309.48C109.639 309.48 110.799 308.18 110.799 306V304.36H110.679C109.799 305.62 108.599 306.26 107.079 306.26C105.559 306.26 104.319 305.76 103.339 304.74C102.379 303.72 101.899 302.42 101.899 300.82ZM103.519 300.82C103.519 302.04 103.859 303.02 104.519 303.76C105.199 304.48 106.079 304.84 107.179 304.84C108.279 304.84 109.139 304.46 109.799 303.68C110.459 302.9 110.799 301.96 110.799 300.82C110.799 299.58 110.459 298.6 109.759 297.88C109.079 297.14 108.199 296.78 107.139 296.78C106.079 296.78 105.199 297.16 104.519 297.92C103.859 298.66 103.519 299.64 103.519 300.82ZM114.486 299C114.486 294.88 117.546 291.74 121.686 291.74C123.266 291.74 124.646 292.18 125.806 293.04C126.986 293.9 127.806 295.04 128.266 296.48H126.526C125.806 294.42 123.926 293.26 121.686 293.26C118.586 293.26 116.166 295.74 116.166 299C116.106 302.24 118.626 304.8 121.686 304.74C123.926 304.74 125.806 303.6 126.466 301.52H128.266C127.826 302.98 127.006 304.12 125.826 304.98C124.646 305.84 123.266 306.26 121.666 306.26C117.606 306.34 114.426 303.08 114.486 299ZM129.828 300.82C129.828 299.22 130.308 297.9 131.248 296.88C132.208 295.86 133.428 295.34 134.888 295.34C135.908 295.34 136.848 295.66 137.428 296.12C138.008 296.58 138.328 296.94 138.548 297.28H138.668V295.6H140.248V306H138.728V304.36H138.608C137.728 305.62 136.528 306.26 135.008 306.26C133.488 306.26 132.248 305.76 131.268 304.74C130.308 303.72 129.828 302.42 129.828 300.82ZM131.448 300.82C131.448 302.04 131.788 303.02 132.448 303.76C133.128 304.48 134.008 304.84 135.108 304.84C136.208 304.84 137.068 304.46 137.728 303.68C138.388 302.9 138.728 301.96 138.728 300.82C138.728 299.58 138.388 298.6 137.688 297.88C137.008 297.14 136.128 296.78 135.068 296.78C134.008 296.78 133.128 297.16 132.448 297.92C131.788 298.66 131.448 299.64 131.448 300.82ZM144.175 296.94H142.215V295.6H143.775C144.075 295.6 144.275 295.4 144.275 295.08V292.58H145.755V295.6H148.955V296.94H145.755V302.84C145.755 304.02 146.195 304.62 147.375 304.62H148.815V306H147.275C145.295 306 144.175 304.92 144.175 302.86V296.94Z" fill="white"/>
<rect x="261" y="364" width="15" height="48" fill="#0D0D0E"/>
<rect x="261" y="216" width="15" height="48" fill="#0D0D0E"/>
<rect x="258.5" y="70.5" width="92" height="43" rx="11.5" fill="url(#paint9_linear_36_612)" fill-opacity="0.1"/>
<rect x="258.5" y="70.5" width="92" height="43" rx="11.5" stroke="#2F3033"/>
<path d="M271.83 82.4545C271.778 82.0227 271.571 81.6875 271.207 81.4489C270.844 81.2102 270.398 81.0909 269.869 81.0909C269.483 81.0909 269.145 81.1534 268.855 81.2784C268.568 81.4034 268.344 81.5753 268.182 81.794C268.023 82.0128 267.943 82.2614 267.943 82.5398C267.943 82.7727 267.999 82.973 268.109 83.1406C268.223 83.3054 268.368 83.4432 268.544 83.554C268.72 83.6619 268.905 83.7514 269.098 83.8224C269.291 83.8906 269.469 83.946 269.631 83.9886L270.517 84.2273C270.744 84.2869 270.997 84.3693 271.276 84.4744C271.557 84.5795 271.825 84.723 272.081 84.9048C272.339 85.0838 272.553 85.3139 272.72 85.5952C272.888 85.8764 272.972 86.2216 272.972 86.6307C272.972 87.1023 272.848 87.5284 272.601 87.9091C272.357 88.2898 271.999 88.5923 271.527 88.8168C271.058 89.0412 270.489 89.1534 269.818 89.1534C269.193 89.1534 268.652 89.0526 268.195 88.8509C267.74 88.6491 267.382 88.3679 267.121 88.0071C266.862 87.6463 266.716 87.2273 266.682 86.75H267.773C267.801 87.0795 267.912 87.3523 268.105 87.5682C268.301 87.7812 268.548 87.9403 268.847 88.0455C269.148 88.1477 269.472 88.1989 269.818 88.1989C270.222 88.1989 270.584 88.1335 270.905 88.0028C271.226 87.8693 271.48 87.6847 271.668 87.4489C271.855 87.2102 271.949 86.9318 271.949 86.6136C271.949 86.3239 271.868 86.0881 271.706 85.9062C271.544 85.7244 271.331 85.5767 271.067 85.4631C270.803 85.3494 270.517 85.25 270.21 85.1648L269.136 84.858C268.455 84.6619 267.915 84.3821 267.517 84.0185C267.119 83.6548 266.92 83.179 266.92 82.5909C266.92 82.1023 267.053 81.6761 267.317 81.3125C267.584 80.946 267.942 80.6619 268.391 80.4602C268.842 80.2557 269.347 80.1534 269.903 80.1534C270.466 80.1534 270.966 80.2543 271.403 80.456C271.841 80.6548 272.188 80.9276 272.443 81.2741C272.702 81.6207 272.838 82.0142 272.852 82.4545H271.83ZM274.709 89V80.2727H279.976V81.2102H275.766V84.1591H279.703V85.0966H275.766V88.0625H280.044V89H274.709ZM281.881 89V80.2727H282.938V88.0625H286.995V89H281.881ZM288.631 89V80.2727H293.898V81.2102H289.688V84.1591H293.625V85.0966H289.688V88.0625H293.966V89H288.631ZM302.826 83H301.769C301.706 82.696 301.597 82.429 301.441 82.1989C301.287 81.9688 301.1 81.7756 300.878 81.6193C300.659 81.4602 300.417 81.3409 300.15 81.2614C299.882 81.1818 299.604 81.142 299.314 81.142C298.786 81.142 298.307 81.2756 297.878 81.5426C297.452 81.8097 297.113 82.2031 296.86 82.723C296.61 83.2429 296.485 83.8807 296.485 84.6364C296.485 85.392 296.61 86.0298 296.86 86.5497C297.113 87.0696 297.452 87.4631 297.878 87.7301C298.307 87.9972 298.786 88.1307 299.314 88.1307C299.604 88.1307 299.882 88.0909 300.15 88.0114C300.417 87.9318 300.659 87.8139 300.878 87.6577C301.1 87.4986 301.287 87.304 301.441 87.0739C301.597 86.8409 301.706 86.5739 301.769 86.2727H302.826C302.746 86.7187 302.601 87.1179 302.391 87.4702C302.181 87.8224 301.919 88.1222 301.607 88.3693C301.294 88.6136 300.944 88.7997 300.554 88.9276C300.168 89.0554 299.755 89.1193 299.314 89.1193C298.57 89.1193 297.908 88.9375 297.328 88.5739C296.749 88.2102 296.293 87.6932 295.961 87.0227C295.628 86.3523 295.462 85.5568 295.462 84.6364C295.462 83.7159 295.628 82.9205 295.961 82.25C296.293 81.5795 296.749 81.0625 297.328 80.6989C297.908 80.3352 298.57 80.1534 299.314 80.1534C299.755 80.1534 300.168 80.2173 300.554 80.3452C300.944 80.473 301.294 80.6605 301.607 80.9077C301.919 81.152 302.181 81.4503 302.391 81.8026C302.601 82.152 302.746 82.5511 302.826 83ZM304.056 81.2102V80.2727H310.602V81.2102H307.857V89H306.8V81.2102H304.056ZM316.204 89.0682C315.994 89.0682 315.814 88.9929 315.663 88.8423C315.512 88.6918 315.437 88.5114 315.437 88.3011C315.437 88.0909 315.512 87.9105 315.663 87.7599C315.814 87.6094 315.994 87.5341 316.204 87.5341C316.414 87.5341 316.595 87.6094 316.745 87.7599C316.896 87.9105 316.971 88.0909 316.971 88.3011C316.971 88.4403 316.936 88.5682 316.865 88.6847C316.797 88.8011 316.704 88.8949 316.588 88.9659C316.474 89.0341 316.346 89.0682 316.204 89.0682ZM319.509 89.0682C319.299 89.0682 319.118 88.9929 318.968 88.8423C318.817 88.6918 318.742 88.5114 318.742 88.3011C318.742 88.0909 318.817 87.9105 318.968 87.7599C319.118 87.6094 319.299 87.5341 319.509 87.5341C319.719 87.5341 319.9 87.6094 320.05 87.7599C320.201 87.9105 320.276 88.0909 320.276 88.3011C320.276 88.4403 320.24 88.5682 320.169 88.6847C320.101 88.8011 320.009 88.8949 319.892 88.9659C319.779 89.0341 319.651 89.0682 319.509 89.0682ZM322.814 89.0682C322.603 89.0682 322.423 88.9929 322.272 88.8423C322.122 88.6918 322.047 88.5114 322.047 88.3011C322.047 88.0909 322.122 87.9105 322.272 87.7599C322.423 87.6094 322.603 87.5341 322.814 87.5341C323.024 87.5341 323.204 87.6094 323.355 87.7599C323.505 87.9105 323.581 88.0909 323.581 88.3011C323.581 88.4403 323.545 88.5682 323.474 88.6847C323.406 88.8011 323.314 88.8949 323.197 88.9659C323.083 89.0341 322.956 89.0682 322.814 89.0682ZM268.642 103L266.256 94.2727H267.33L269.153 101.381H269.239L271.097 94.2727H272.29L274.148 101.381H274.233L276.057 94.2727H277.131L274.744 103H273.653L271.727 96.0455H271.659L269.733 103H268.642ZM278.447 103V94.2727H279.504V98.1591H284.158V94.2727H285.214V103H284.158V99.0966H279.504V103H278.447ZM287.33 103V94.2727H292.597V95.2102H288.387V98.1591H292.325V99.0966H288.387V102.062H292.665V103H287.33ZM294.502 103V94.2727H297.451C298.133 94.2727 298.692 94.3892 299.13 94.6222C299.567 94.8523 299.891 95.169 300.102 95.5724C300.312 95.9759 300.417 96.4347 300.417 96.9489C300.417 97.4631 300.312 97.919 300.102 98.3168C299.891 98.7145 299.569 99.027 299.134 99.2543C298.7 99.4787 298.144 99.5909 297.468 99.5909H295.082V98.6364H297.434C297.9 98.6364 298.275 98.5682 298.559 98.4318C298.846 98.2955 299.053 98.1023 299.181 97.8523C299.312 97.5994 299.377 97.2983 299.377 96.9489C299.377 96.5994 299.312 96.294 299.181 96.0327C299.05 95.7713 298.842 95.5696 298.555 95.4276C298.268 95.2827 297.888 95.2102 297.417 95.2102H295.559V103H294.502ZM298.61 99.0795L300.758 103H299.531L297.417 99.0795H298.61ZM302.178 103V94.2727H307.445V95.2102H303.235V98.1591H307.172V99.0966H303.235V102.062H307.513V103H302.178ZM312.588 103V96.4545H313.594V103H312.588ZM313.1 95.3636C312.904 95.3636 312.735 95.2969 312.593 95.1634C312.453 95.0298 312.384 94.8693 312.384 94.6818C312.384 94.4943 312.453 94.3338 312.593 94.2003C312.735 94.0668 312.904 94 313.1 94C313.296 94 313.463 94.0668 313.603 94.2003C313.745 94.3338 313.816 94.4943 313.816 94.6818C313.816 94.8693 313.745 95.0298 313.603 95.1634C313.463 95.2969 313.296 95.3636 313.1 95.3636ZM317.908 103.136C317.362 103.136 316.881 102.999 316.463 102.723C316.045 102.445 315.719 102.053 315.483 101.547C315.247 101.038 315.129 100.438 315.129 99.7443C315.129 99.0568 315.247 98.4602 315.483 97.9545C315.719 97.4489 316.047 97.0582 316.467 96.7827C316.888 96.5071 317.374 96.3693 317.925 96.3693C318.351 96.3693 318.688 96.4403 318.935 96.5824C319.185 96.7216 319.375 96.8807 319.506 97.0597C319.639 97.2358 319.743 97.3807 319.817 97.4943H319.902V94.2727H320.908V103H319.936V101.994H319.817C319.743 102.114 319.638 102.264 319.501 102.446C319.365 102.625 319.17 102.786 318.918 102.928C318.665 103.067 318.328 103.136 317.908 103.136ZM318.044 102.233C318.447 102.233 318.788 102.128 319.067 101.918C319.345 101.705 319.557 101.411 319.702 101.036C319.847 100.658 319.919 100.222 319.919 99.7273C319.919 99.2386 319.848 98.8111 319.706 98.4446C319.564 98.0753 319.354 97.7884 319.075 97.5838C318.797 97.3764 318.453 97.2727 318.044 97.2727C317.618 97.2727 317.263 97.3821 316.979 97.6009C316.697 97.8168 316.486 98.1108 316.344 98.483C316.205 98.8523 316.135 99.267 316.135 99.7273C316.135 100.193 316.206 100.616 316.348 100.997C316.493 101.375 316.706 101.676 316.987 101.901C317.271 102.122 317.624 102.233 318.044 102.233ZM326.673 97.8352V96.9148H331.923V97.8352H326.673ZM326.673 100.358V99.4375H331.923V100.358H326.673ZM340.6 94.2727V103H339.544V95.3807H339.493L337.362 96.7955V95.7216L339.544 94.2727H340.6Z" fill="white"/>
<rect x="258.5" y="218.5" width="93" height="43" rx="11.5" fill="url(#paint10_linear_36_612)" fill-opacity="0.1"/>
<rect x="258.5" y="218.5" width="93" height="43" rx="11.5" stroke="#2F3033"/>
<path d="M271.83 230.455C271.778 230.023 271.571 229.688 271.207 229.449C270.844 229.21 270.398 229.091 269.869 229.091C269.483 229.091 269.145 229.153 268.855 229.278C268.568 229.403 268.344 229.575 268.182 229.794C268.023 230.013 267.943 230.261 267.943 230.54C267.943 230.773 267.999 230.973 268.109 231.141C268.223 231.305 268.368 231.443 268.544 231.554C268.72 231.662 268.905 231.751 269.098 231.822C269.291 231.891 269.469 231.946 269.631 231.989L270.517 232.227C270.744 232.287 270.997 232.369 271.276 232.474C271.557 232.58 271.825 232.723 272.081 232.905C272.339 233.084 272.553 233.314 272.72 233.595C272.888 233.876 272.972 234.222 272.972 234.631C272.972 235.102 272.848 235.528 272.601 235.909C272.357 236.29 271.999 236.592 271.527 236.817C271.058 237.041 270.489 237.153 269.818 237.153C269.193 237.153 268.652 237.053 268.195 236.851C267.74 236.649 267.382 236.368 267.121 236.007C266.862 235.646 266.716 235.227 266.682 234.75H267.773C267.801 235.08 267.912 235.352 268.105 235.568C268.301 235.781 268.548 235.94 268.847 236.045C269.148 236.148 269.472 236.199 269.818 236.199C270.222 236.199 270.584 236.134 270.905 236.003C271.226 235.869 271.48 235.685 271.668 235.449C271.855 235.21 271.949 234.932 271.949 234.614C271.949 234.324 271.868 234.088 271.706 233.906C271.544 233.724 271.331 233.577 271.067 233.463C270.803 233.349 270.517 233.25 270.21 233.165L269.136 232.858C268.455 232.662 267.915 232.382 267.517 232.018C267.119 231.655 266.92 231.179 266.92 230.591C266.92 230.102 267.053 229.676 267.317 229.312C267.584 228.946 267.942 228.662 268.391 228.46C268.842 228.256 269.347 228.153 269.903 228.153C270.466 228.153 270.966 228.254 271.403 228.456C271.841 228.655 272.188 228.928 272.443 229.274C272.702 229.621 272.838 230.014 272.852 230.455H271.83ZM274.709 237V228.273H279.976V229.21H275.766V232.159H279.703V233.097H275.766V236.062H280.044V237H274.709ZM281.881 237V228.273H282.938V236.062H286.995V237H281.881ZM288.631 237V228.273H293.898V229.21H289.688V232.159H293.625V233.097H289.688V236.062H293.966V237H288.631ZM302.826 231H301.769C301.706 230.696 301.597 230.429 301.441 230.199C301.287 229.969 301.1 229.776 300.878 229.619C300.659 229.46 300.417 229.341 300.15 229.261C299.882 229.182 299.604 229.142 299.314 229.142C298.786 229.142 298.307 229.276 297.878 229.543C297.452 229.81 297.113 230.203 296.86 230.723C296.61 231.243 296.485 231.881 296.485 232.636C296.485 233.392 296.61 234.03 296.86 234.55C297.113 235.07 297.452 235.463 297.878 235.73C298.307 235.997 298.786 236.131 299.314 236.131C299.604 236.131 299.882 236.091 300.15 236.011C300.417 235.932 300.659 235.814 300.878 235.658C301.1 235.499 301.287 235.304 301.441 235.074C301.597 234.841 301.706 234.574 301.769 234.273H302.826C302.746 234.719 302.601 235.118 302.391 235.47C302.181 235.822 301.919 236.122 301.607 236.369C301.294 236.614 300.944 236.8 300.554 236.928C300.168 237.055 299.755 237.119 299.314 237.119C298.57 237.119 297.908 236.938 297.328 236.574C296.749 236.21 296.293 235.693 295.961 235.023C295.628 234.352 295.462 233.557 295.462 232.636C295.462 231.716 295.628 230.92 295.961 230.25C296.293 229.58 296.749 229.062 297.328 228.699C297.908 228.335 298.57 228.153 299.314 228.153C299.755 228.153 300.168 228.217 300.554 228.345C300.944 228.473 301.294 228.661 301.607 228.908C301.919 229.152 302.181 229.45 302.391 229.803C302.601 230.152 302.746 230.551 302.826 231ZM304.056 229.21V228.273H310.602V229.21H307.857V237H306.8V229.21H304.056ZM316.204 237.068C315.994 237.068 315.814 236.993 315.663 236.842C315.512 236.692 315.437 236.511 315.437 236.301C315.437 236.091 315.512 235.911 315.663 235.76C315.814 235.609 315.994 235.534 316.204 235.534C316.414 235.534 316.595 235.609 316.745 235.76C316.896 235.911 316.971 236.091 316.971 236.301C316.971 236.44 316.936 236.568 316.865 236.685C316.797 236.801 316.704 236.895 316.588 236.966C316.474 237.034 316.346 237.068 316.204 237.068ZM319.509 237.068C319.299 237.068 319.118 236.993 318.968 236.842C318.817 236.692 318.742 236.511 318.742 236.301C318.742 236.091 318.817 235.911 318.968 235.76C319.118 235.609 319.299 235.534 319.509 235.534C319.719 235.534 319.9 235.609 320.05 235.76C320.201 235.911 320.276 236.091 320.276 236.301C320.276 236.44 320.24 236.568 320.169 236.685C320.101 236.801 320.009 236.895 319.892 236.966C319.779 237.034 319.651 237.068 319.509 237.068ZM322.814 237.068C322.603 237.068 322.423 236.993 322.272 236.842C322.122 236.692 322.047 236.511 322.047 236.301C322.047 236.091 322.122 235.911 322.272 235.76C322.423 235.609 322.603 235.534 322.814 235.534C323.024 235.534 323.204 235.609 323.355 235.76C323.505 235.911 323.581 236.091 323.581 236.301C323.581 236.44 323.545 236.568 323.474 236.685C323.406 236.801 323.314 236.895 323.197 236.966C323.083 237.034 322.956 237.068 322.814 237.068ZM268.642 251L266.256 242.273H267.33L269.153 249.381H269.239L271.097 242.273H272.29L274.148 249.381H274.233L276.057 242.273H277.131L274.744 251H273.653L271.727 244.045H271.659L269.733 251H268.642ZM278.447 251V242.273H279.504V246.159H284.158V242.273H285.214V251H284.158V247.097H279.504V251H278.447ZM287.33 251V242.273H292.597V243.21H288.387V246.159H292.325V247.097H288.387V250.062H292.665V251H287.33ZM294.502 251V242.273H297.451C298.133 242.273 298.692 242.389 299.13 242.622C299.567 242.852 299.891 243.169 300.102 243.572C300.312 243.976 300.417 244.435 300.417 244.949C300.417 245.463 300.312 245.919 300.102 246.317C299.891 246.714 299.569 247.027 299.134 247.254C298.7 247.479 298.144 247.591 297.468 247.591H295.082V246.636H297.434C297.9 246.636 298.275 246.568 298.559 246.432C298.846 246.295 299.053 246.102 299.181 245.852C299.312 245.599 299.377 245.298 299.377 244.949C299.377 244.599 299.312 244.294 299.181 244.033C299.05 243.771 298.842 243.57 298.555 243.428C298.268 243.283 297.888 243.21 297.417 243.21H295.559V251H294.502ZM298.61 247.08L300.758 251H299.531L297.417 247.08H298.61ZM302.178 251V242.273H307.445V243.21H303.235V246.159H307.172V247.097H303.235V250.062H307.513V251H302.178ZM312.588 251V244.455H313.594V251H312.588ZM313.1 243.364C312.904 243.364 312.735 243.297 312.593 243.163C312.453 243.03 312.384 242.869 312.384 242.682C312.384 242.494 312.453 242.334 312.593 242.2C312.735 242.067 312.904 242 313.1 242C313.296 242 313.463 242.067 313.603 242.2C313.745 242.334 313.816 242.494 313.816 242.682C313.816 242.869 313.745 243.03 313.603 243.163C313.463 243.297 313.296 243.364 313.1 243.364ZM317.908 251.136C317.362 251.136 316.881 250.999 316.463 250.723C316.045 250.445 315.719 250.053 315.483 249.547C315.247 249.038 315.129 248.438 315.129 247.744C315.129 247.057 315.247 246.46 315.483 245.955C315.719 245.449 316.047 245.058 316.467 244.783C316.888 244.507 317.374 244.369 317.925 244.369C318.351 244.369 318.688 244.44 318.935 244.582C319.185 244.722 319.375 244.881 319.506 245.06C319.639 245.236 319.743 245.381 319.817 245.494H319.902V242.273H320.908V251H319.936V249.994H319.817C319.743 250.114 319.638 250.264 319.501 250.446C319.365 250.625 319.17 250.786 318.918 250.928C318.665 251.067 318.328 251.136 317.908 251.136ZM318.044 250.233C318.447 250.233 318.788 250.128 319.067 249.918C319.345 249.705 319.557 249.411 319.702 249.036C319.847 248.658 319.919 248.222 319.919 247.727C319.919 247.239 319.848 246.811 319.706 246.445C319.564 246.075 319.354 245.788 319.075 245.584C318.797 245.376 318.453 245.273 318.044 245.273C317.618 245.273 317.263 245.382 316.979 245.601C316.697 245.817 316.486 246.111 316.344 246.483C316.205 246.852 316.135 247.267 316.135 247.727C316.135 248.193 316.206 248.616 316.348 248.997C316.493 249.375 316.706 249.676 316.987 249.901C317.271 250.122 317.624 250.233 318.044 250.233ZM326.673 245.835V244.915H331.923V245.835H326.673ZM326.673 248.358V247.438H331.923V248.358H326.673ZM337.532 251V250.233L340.413 247.08C340.751 246.71 341.029 246.389 341.248 246.116C341.467 245.841 341.629 245.582 341.734 245.341C341.842 245.097 341.896 244.841 341.896 244.574C341.896 244.267 341.822 244.001 341.674 243.777C341.529 243.553 341.331 243.379 341.078 243.257C340.825 243.135 340.541 243.074 340.225 243.074C339.89 243.074 339.598 243.143 339.348 243.283C339.1 243.419 338.909 243.611 338.772 243.858C338.639 244.105 338.572 244.395 338.572 244.727H337.566C337.566 244.216 337.684 243.767 337.92 243.381C338.156 242.994 338.477 242.693 338.883 242.477C339.292 242.261 339.751 242.153 340.26 242.153C340.771 242.153 341.224 242.261 341.619 242.477C342.014 242.693 342.324 242.984 342.548 243.351C342.772 243.717 342.885 244.125 342.885 244.574C342.885 244.895 342.826 245.209 342.71 245.516C342.596 245.82 342.397 246.159 342.113 246.534C341.832 246.906 341.441 247.361 340.941 247.898L338.981 249.994V250.062H343.038V251H337.532Z" fill="white"/>
<rect x="258.5" y="366.5" width="94" height="43" rx="11.5" fill="url(#paint11_linear_36_612)" fill-opacity="0.1"/>
<rect x="258.5" y="366.5" width="94" height="43" rx="11.5" stroke="#2F3033"/>
<path d="M271.83 378.455C271.778 378.023 271.571 377.688 271.207 377.449C270.844 377.21 270.398 377.091 269.869 377.091C269.483 377.091 269.145 377.153 268.855 377.278C268.568 377.403 268.344 377.575 268.182 377.794C268.023 378.013 267.943 378.261 267.943 378.54C267.943 378.773 267.999 378.973 268.109 379.141C268.223 379.305 268.368 379.443 268.544 379.554C268.72 379.662 268.905 379.751 269.098 379.822C269.291 379.891 269.469 379.946 269.631 379.989L270.517 380.227C270.744 380.287 270.997 380.369 271.276 380.474C271.557 380.58 271.825 380.723 272.081 380.905C272.339 381.084 272.553 381.314 272.72 381.595C272.888 381.876 272.972 382.222 272.972 382.631C272.972 383.102 272.848 383.528 272.601 383.909C272.357 384.29 271.999 384.592 271.527 384.817C271.058 385.041 270.489 385.153 269.818 385.153C269.193 385.153 268.652 385.053 268.195 384.851C267.74 384.649 267.382 384.368 267.121 384.007C266.862 383.646 266.716 383.227 266.682 382.75H267.773C267.801 383.08 267.912 383.352 268.105 383.568C268.301 383.781 268.548 383.94 268.847 384.045C269.148 384.148 269.472 384.199 269.818 384.199C270.222 384.199 270.584 384.134 270.905 384.003C271.226 383.869 271.48 383.685 271.668 383.449C271.855 383.21 271.949 382.932 271.949 382.614C271.949 382.324 271.868 382.088 271.706 381.906C271.544 381.724 271.331 381.577 271.067 381.463C270.803 381.349 270.517 381.25 270.21 381.165L269.136 380.858C268.455 380.662 267.915 380.382 267.517 380.018C267.119 379.655 266.92 379.179 266.92 378.591C266.92 378.102 267.053 377.676 267.317 377.312C267.584 376.946 267.942 376.662 268.391 376.46C268.842 376.256 269.347 376.153 269.903 376.153C270.466 376.153 270.966 376.254 271.403 376.456C271.841 376.655 272.188 376.928 272.443 377.274C272.702 377.621 272.838 378.014 272.852 378.455H271.83ZM274.709 385V376.273H279.976V377.21H275.766V380.159H279.703V381.097H275.766V384.062H280.044V385H274.709ZM281.881 385V376.273H282.938V384.062H286.995V385H281.881ZM288.631 385V376.273H293.898V377.21H289.688V380.159H293.625V381.097H289.688V384.062H293.966V385H288.631ZM302.826 379H301.769C301.706 378.696 301.597 378.429 301.441 378.199C301.287 377.969 301.1 377.776 300.878 377.619C300.659 377.46 300.417 377.341 300.15 377.261C299.882 377.182 299.604 377.142 299.314 377.142C298.786 377.142 298.307 377.276 297.878 377.543C297.452 377.81 297.113 378.203 296.86 378.723C296.61 379.243 296.485 379.881 296.485 380.636C296.485 381.392 296.61 382.03 296.86 382.55C297.113 383.07 297.452 383.463 297.878 383.73C298.307 383.997 298.786 384.131 299.314 384.131C299.604 384.131 299.882 384.091 300.15 384.011C300.417 383.932 300.659 383.814 300.878 383.658C301.1 383.499 301.287 383.304 301.441 383.074C301.597 382.841 301.706 382.574 301.769 382.273H302.826C302.746 382.719 302.601 383.118 302.391 383.47C302.181 383.822 301.919 384.122 301.607 384.369C301.294 384.614 300.944 384.8 300.554 384.928C300.168 385.055 299.755 385.119 299.314 385.119C298.57 385.119 297.908 384.938 297.328 384.574C296.749 384.21 296.293 383.693 295.961 383.023C295.628 382.352 295.462 381.557 295.462 380.636C295.462 379.716 295.628 378.92 295.961 378.25C296.293 377.58 296.749 377.062 297.328 376.699C297.908 376.335 298.57 376.153 299.314 376.153C299.755 376.153 300.168 376.217 300.554 376.345C300.944 376.473 301.294 376.661 301.607 376.908C301.919 377.152 302.181 377.45 302.391 377.803C302.601 378.152 302.746 378.551 302.826 379ZM304.056 377.21V376.273H310.602V377.21H307.857V385H306.8V377.21H304.056ZM316.204 385.068C315.994 385.068 315.814 384.993 315.663 384.842C315.512 384.692 315.437 384.511 315.437 384.301C315.437 384.091 315.512 383.911 315.663 383.76C315.814 383.609 315.994 383.534 316.204 383.534C316.414 383.534 316.595 383.609 316.745 383.76C316.896 383.911 316.971 384.091 316.971 384.301C316.971 384.44 316.936 384.568 316.865 384.685C316.797 384.801 316.704 384.895 316.588 384.966C316.474 385.034 316.346 385.068 316.204 385.068ZM319.509 385.068C319.299 385.068 319.118 384.993 318.968 384.842C318.817 384.692 318.742 384.511 318.742 384.301C318.742 384.091 318.817 383.911 318.968 383.76C319.118 383.609 319.299 383.534 319.509 383.534C319.719 383.534 319.9 383.609 320.05 383.76C320.201 383.911 320.276 384.091 320.276 384.301C320.276 384.44 320.24 384.568 320.169 384.685C320.101 384.801 320.009 384.895 319.892 384.966C319.779 385.034 319.651 385.068 319.509 385.068ZM322.814 385.068C322.603 385.068 322.423 384.993 322.272 384.842C322.122 384.692 322.047 384.511 322.047 384.301C322.047 384.091 322.122 383.911 322.272 383.76C322.423 383.609 322.603 383.534 322.814 383.534C323.024 383.534 323.204 383.609 323.355 383.76C323.505 383.911 323.581 384.091 323.581 384.301C323.581 384.44 323.545 384.568 323.474 384.685C323.406 384.801 323.314 384.895 323.197 384.966C323.083 385.034 322.956 385.068 322.814 385.068ZM268.642 399L266.256 390.273H267.33L269.153 397.381H269.239L271.097 390.273H272.29L274.148 397.381H274.233L276.057 390.273H277.131L274.744 399H273.653L271.727 392.045H271.659L269.733 399H268.642ZM278.447 399V390.273H279.504V394.159H284.158V390.273H285.214V399H284.158V395.097H279.504V399H278.447ZM287.33 399V390.273H292.597V391.21H288.387V394.159H292.325V395.097H288.387V398.062H292.665V399H287.33ZM294.502 399V390.273H297.451C298.133 390.273 298.692 390.389 299.13 390.622C299.567 390.852 299.891 391.169 300.102 391.572C300.312 391.976 300.417 392.435 300.417 392.949C300.417 393.463 300.312 393.919 300.102 394.317C299.891 394.714 299.569 395.027 299.134 395.254C298.7 395.479 298.144 395.591 297.468 395.591H295.082V394.636H297.434C297.9 394.636 298.275 394.568 298.559 394.432C298.846 394.295 299.053 394.102 299.181 393.852C299.312 393.599 299.377 393.298 299.377 392.949C299.377 392.599 299.312 392.294 299.181 392.033C299.05 391.771 298.842 391.57 298.555 391.428C298.268 391.283 297.888 391.21 297.417 391.21H295.559V399H294.502ZM298.61 395.08L300.758 399H299.531L297.417 395.08H298.61ZM302.178 399V390.273H307.445V391.21H303.235V394.159H307.172V395.097H303.235V398.062H307.513V399H302.178ZM312.588 399V392.455H313.594V399H312.588ZM313.1 391.364C312.904 391.364 312.735 391.297 312.593 391.163C312.453 391.03 312.384 390.869 312.384 390.682C312.384 390.494 312.453 390.334 312.593 390.2C312.735 390.067 312.904 390 313.1 390C313.296 390 313.463 390.067 313.603 390.2C313.745 390.334 313.816 390.494 313.816 390.682C313.816 390.869 313.745 391.03 313.603 391.163C313.463 391.297 313.296 391.364 313.1 391.364ZM317.908 399.136C317.362 399.136 316.881 398.999 316.463 398.723C316.045 398.445 315.719 398.053 315.483 397.547C315.247 397.038 315.129 396.438 315.129 395.744C315.129 395.057 315.247 394.46 315.483 393.955C315.719 393.449 316.047 393.058 316.467 392.783C316.888 392.507 317.374 392.369 317.925 392.369C318.351 392.369 318.688 392.44 318.935 392.582C319.185 392.722 319.375 392.881 319.506 393.06C319.639 393.236 319.743 393.381 319.817 393.494H319.902V390.273H320.908V399H319.936V397.994H319.817C319.743 398.114 319.638 398.264 319.501 398.446C319.365 398.625 319.17 398.786 318.918 398.928C318.665 399.067 318.328 399.136 317.908 399.136ZM318.044 398.233C318.447 398.233 318.788 398.128 319.067 397.918C319.345 397.705 319.557 397.411 319.702 397.036C319.847 396.658 319.919 396.222 319.919 395.727C319.919 395.239 319.848 394.811 319.706 394.445C319.564 394.075 319.354 393.788 319.075 393.584C318.797 393.376 318.453 393.273 318.044 393.273C317.618 393.273 317.263 393.382 316.979 393.601C316.697 393.817 316.486 394.111 316.344 394.483C316.205 394.852 316.135 395.267 316.135 395.727C316.135 396.193 316.206 396.616 316.348 396.997C316.493 397.375 316.706 397.676 316.987 397.901C317.271 398.122 317.624 398.233 318.044 398.233ZM326.673 393.835V392.915H331.923V393.835H326.673ZM326.673 396.358V395.438H331.923V396.358H326.673ZM340.481 399.119C339.919 399.119 339.417 399.023 338.977 398.83C338.539 398.636 338.191 398.368 337.933 398.024C337.677 397.678 337.538 397.276 337.515 396.818H338.589C338.612 397.099 338.708 397.342 338.879 397.547C339.049 397.749 339.272 397.905 339.548 398.016C339.824 398.126 340.129 398.182 340.464 398.182C340.839 398.182 341.172 398.116 341.461 397.986C341.751 397.855 341.978 397.673 342.143 397.44C342.308 397.207 342.39 396.938 342.39 396.631C342.39 396.31 342.311 396.027 342.152 395.783C341.993 395.536 341.76 395.342 341.453 395.203C341.146 395.064 340.771 394.994 340.328 394.994H339.629V394.057H340.328C340.674 394.057 340.978 393.994 341.24 393.869C341.504 393.744 341.71 393.568 341.858 393.341C342.008 393.114 342.083 392.847 342.083 392.54C342.083 392.244 342.018 391.987 341.887 391.768C341.757 391.55 341.572 391.379 341.333 391.257C341.098 391.135 340.819 391.074 340.498 391.074C340.197 391.074 339.913 391.129 339.646 391.24C339.382 391.348 339.166 391.506 338.998 391.713C338.831 391.918 338.74 392.165 338.725 392.455H337.703C337.72 391.997 337.858 391.597 338.116 391.253C338.375 390.906 338.713 390.636 339.13 390.443C339.551 390.25 340.012 390.153 340.515 390.153C341.055 390.153 341.518 390.263 341.904 390.482C342.291 390.697 342.588 390.983 342.795 391.338C343.002 391.693 343.106 392.077 343.106 392.489C343.106 392.98 342.977 393.399 342.718 393.746C342.463 394.092 342.115 394.332 341.674 394.466V394.534C342.225 394.625 342.656 394.859 342.966 395.237C343.275 395.612 343.43 396.077 343.43 396.631C343.43 397.105 343.301 397.531 343.042 397.909C342.787 398.284 342.437 398.58 341.994 398.795C341.551 399.011 341.047 399.119 340.481 399.119Z" fill="white"/>
<defs>
<filter id="filter0_f_36_612" x="349.792" y="409" width="22" height="22" filterUnits="userSpaceOnUse" color-interpolation-filters="sRGB">
<feFlood flood-opacity="0" result="BackgroundImageFix"/>
<feBlend mode="normal" in="SourceGraphic" in2="BackgroundImageFix" result="shape"/>
<feGaussianBlur stdDeviation="2" result="effect1_foregroundBlur_36_612"/>
</filter>
<filter id="filter1_f_36_612" x="349.792" y="261" width="22" height="22" filterUnits="userSpaceOnUse" color-interpolation-filters="sRGB">
<feFlood flood-opacity="0" result="BackgroundImageFix"/>
<feBlend mode="normal" in="SourceGraphic" in2="BackgroundImageFix" result="shape"/>
<feGaussianBlur stdDeviation="2" result="effect1_foregroundBlur_36_612"/>
</filter>
<filter id="filter2_f_36_612" x="349.792" y="113" width="22" height="22" filterUnits="userSpaceOnUse" color-interpolation-filters="sRGB">
<feFlood flood-opacity="0" result="BackgroundImageFix"/>
<feBlend mode="normal" in="SourceGraphic" in2="BackgroundImageFix" result="shape"/>
<feGaussianBlur stdDeviation="2" result="effect1_foregroundBlur_36_612"/>
</filter>
<linearGradient id="paint0_linear_36_612" x1="178.418" y1="384.82" x2="361" y2="384.82" gradientUnits="userSpaceOnUse">
<stop stop-color="#19D58D"/>
<stop offset="1" stop-color="#D3488C"/>
</linearGradient>
<linearGradient id="paint1_linear_36_612" x1="181.404" y1="159.18" x2="361" y2="159.18" gradientUnits="userSpaceOnUse">
<stop stop-color="#19D58D"/>
<stop offset="1" stop-color="#D4488C"/>
</linearGradient>
<linearGradient id="paint2_linear_36_612" x1="180.836" y1="294.107" x2="361" y2="294.107" gradientUnits="userSpaceOnUse">
<stop stop-color="#19D58D"/>
<stop offset="1" stop-color="#D4488C"/>
</linearGradient>
<linearGradient id="paint3_linear_36_612" x1="369.84" y1="484" x2="468.922" y2="365.492" gradientUnits="userSpaceOnUse">
<stop stop-color="#C44899"/>
<stop offset="1" stop-color="#FF4567"/>
</linearGradient>
<linearGradient id="paint4_linear_36_612" x1="369.84" y1="394" x2="388.698" y2="329.302" gradientUnits="userSpaceOnUse">
<stop stop-color="#C44899"/>
<stop offset="1" stop-color="#FF4567"/>
</linearGradient>
<linearGradient id="paint5_linear_36_612" x1="369.84" y1="336" x2="468.922" y2="217.492" gradientUnits="userSpaceOnUse">
<stop stop-color="#C44899"/>
<stop offset="1" stop-color="#FF4567"/>
</linearGradient>
<linearGradient id="paint6_linear_36_612" x1="369.84" y1="246" x2="388.698" y2="181.302" gradientUnits="userSpaceOnUse">
<stop stop-color="#C44899"/>
<stop offset="1" stop-color="#FF4567"/>
</linearGradient>
<linearGradient id="paint7_linear_36_612" x1="369.84" y1="188" x2="468.922" y2="69.4919" gradientUnits="userSpaceOnUse">
<stop stop-color="#C44899"/>
<stop offset="1" stop-color="#FF4567"/>
</linearGradient>
<linearGradient id="paint8_linear_36_612" x1="369.84" y1="98" x2="388.698" y2="33.3017" gradientUnits="userSpaceOnUse">
<stop stop-color="#C44899"/>
<stop offset="1" stop-color="#FF4567"/>
</linearGradient>
<linearGradient id="paint9_linear_36_612" x1="258" y1="114" x2="292.019" y2="42.0952" gradientUnits="userSpaceOnUse">
<stop stop-color="#5337FF"/>
<stop offset="1" stop-color="#A175FF"/>
</linearGradient>
<linearGradient id="paint10_linear_36_612" x1="258" y1="262" x2="291.788" y2="189.816" gradientUnits="userSpaceOnUse">
<stop stop-color="#5337FF"/>
<stop offset="1" stop-color="#A175FF"/>
</linearGradient>
<linearGradient id="paint11_linear_36_612" x1="258" y1="410" x2="291.559" y2="337.543" gradientUnits="userSpaceOnUse">
<stop stop-color="#5337FF"/>
<stop offset="1" stop-color="#A175FF"/>
</linearGradient>
<clipPath id="clip0_36_612">
<rect width="34" height="38" fill="white" transform="translate(103 238)"/>
</clipPath>
</defs>
</svg>
