<svg width="450" height="396" viewBox="0 0 450 396" fill="none" xmlns="http://www.w3.org/2000/svg">
<rect width="450" height="396" rx="40" fill="#0D0D0E"/>
<path d="M271.294 272H228.294C226.085 272 224.294 270.209 224.294 268V202C224.294 199.791 222.504 198 220.294 198H179.294" stroke="url(#paint0_linear_36_530)"/>
<path d="M271.294 124H228.294C226.085 124 224.294 125.791 224.294 128V194C224.294 196.209 222.504 198 220.294 198H179.794" stroke="url(#paint1_linear_36_530)"/>
<g filter="url(#filter0_f_36_530)">
<circle cx="270.792" cy="272" r="7" fill="#FF4668"/>
</g>
<g filter="url(#filter1_f_36_530)">
<circle cx="270.792" cy="124" r="7" fill="#3FAEFF"/>
</g>
<path d="M389.794 317C389.794 319.393 388.262 321.762 385.28 323.995C382.306 326.222 377.971 328.248 372.57 329.958C361.773 333.377 346.826 335.5 330.294 335.5C313.763 335.5 298.816 333.377 288.019 329.958C282.618 328.248 278.283 326.222 275.309 323.995C272.327 321.762 270.794 319.393 270.794 317V227.5H389.794V317Z" fill="#0D0D0E" stroke="url(#paint2_linear_36_530)"/>
<path d="M389.794 227C389.794 229.393 388.262 231.762 385.28 233.995C382.306 236.222 377.971 238.248 372.57 239.958C361.773 243.377 346.826 245.5 330.294 245.5C313.763 245.5 298.816 243.377 288.019 239.958C282.618 238.248 278.283 236.222 275.309 233.995C272.327 231.762 270.794 229.393 270.794 227C270.794 224.607 272.327 222.238 275.309 220.005C278.283 217.778 282.618 215.752 288.019 214.042C298.816 210.623 313.763 208.5 330.294 208.5C346.826 208.5 361.773 210.623 372.57 214.042C377.971 215.752 382.306 217.778 385.28 220.005C388.262 222.238 389.794 224.607 389.794 227Z" fill="#0D0D0E" stroke="url(#paint3_linear_36_530)"/>
<path d="M297.028 282H294.184V269.4H299.116C300.412 269.4 301.474 269.796 302.32 270.57C303.166 271.344 303.58 272.334 303.58 273.558C303.58 275.196 302.662 276.564 301.348 277.23L304.03 282H300.862L298.72 277.788H297.028V282ZM297.028 271.83V275.358H298.864C299.944 275.358 300.664 274.692 300.664 273.558C300.664 272.496 299.962 271.83 298.828 271.83H297.028ZM314.01 282H305.838V269.4H313.812V271.83H308.682V274.44H313.056V276.87H308.682V279.552H314.01V282ZM318.79 282H315.946V269.4H320.824C322.084 269.4 323.128 269.796 323.956 270.588C324.802 271.362 325.216 272.37 325.216 273.612C325.216 276.096 323.236 277.86 320.824 277.86H318.79V282ZM318.79 271.83V275.448H320.536C321.562 275.448 322.318 274.71 322.318 273.612C322.318 272.532 321.598 271.83 320.536 271.83H318.79ZM334.708 282H326.932V269.4H329.776V279.462H334.708V282ZM339.444 282H336.6V269.4H339.444V282ZM341.193 275.7C341.121 272.046 343.965 269.112 347.817 269.166C351.165 269.166 353.613 271.326 354.081 274.08H350.985C350.625 272.802 349.401 271.902 347.817 271.902C346.737 271.902 345.855 272.262 345.171 272.982C344.487 273.702 344.145 274.602 344.145 275.7C344.145 276.798 344.487 277.716 345.171 278.436C345.855 279.138 346.737 279.498 347.817 279.498C349.401 279.498 350.607 278.616 351.093 277.374H354.207C353.937 278.796 353.217 279.948 352.047 280.866C350.877 281.784 349.473 282.234 347.817 282.234C343.965 282.288 341.121 279.372 341.193 275.7ZM357.07 282H354.154L358.438 269.4H362.074L366.412 282H363.388L362.632 279.768H357.808L357.07 282ZM360.148 272.532L358.582 277.23H361.858L360.31 272.532H360.148ZM288.617 308H284.457V294H288.617C293.037 294 295.637 296.9 295.637 301C295.637 303.18 295.017 304.88 293.777 306.14C292.557 307.38 290.837 308 288.617 308ZM286.077 295.46V306.56H288.617C291.957 306.56 293.977 304.5 293.977 301C293.977 299.3 293.497 297.94 292.537 296.96C291.597 295.96 290.277 295.46 288.617 295.46H286.077ZM297.197 302.82C297.197 301.22 297.677 299.9 298.617 298.88C299.577 297.86 300.797 297.34 302.257 297.34C303.277 297.34 304.217 297.66 304.797 298.12C305.377 298.58 305.697 298.94 305.917 299.28H306.037V297.6H307.617V308H306.097V306.36H305.977C305.097 307.62 303.897 308.26 302.377 308.26C300.857 308.26 299.617 307.76 298.637 306.74C297.677 305.72 297.197 304.42 297.197 302.82ZM298.817 302.82C298.817 304.04 299.157 305.02 299.817 305.76C300.497 306.48 301.377 306.84 302.477 306.84C303.577 306.84 304.437 306.46 305.097 305.68C305.757 304.9 306.097 303.96 306.097 302.82C306.097 301.58 305.757 300.6 305.057 299.88C304.377 299.14 303.497 298.78 302.437 298.78C301.377 298.78 300.497 299.16 299.817 299.92C299.157 300.66 298.817 301.64 298.817 302.82ZM311.545 298.94H309.585V297.6H311.145C311.445 297.6 311.645 297.4 311.645 297.08V294.58H313.125V297.6H316.325V298.94H313.125V304.84C313.125 306.02 313.565 306.62 314.745 306.62H316.185V308H314.645C312.665 308 311.545 306.92 311.545 304.86V298.94ZM317.88 302.82C317.88 301.22 318.36 299.9 319.3 298.88C320.26 297.86 321.48 297.34 322.94 297.34C323.96 297.34 324.9 297.66 325.48 298.12C326.06 298.58 326.38 298.94 326.6 299.28H326.72V297.6H328.3V308H326.78V306.36H326.66C325.78 307.62 324.58 308.26 323.06 308.26C321.54 308.26 320.3 307.76 319.32 306.74C318.36 305.72 317.88 304.42 317.88 302.82ZM319.5 302.82C319.5 304.04 319.84 305.02 320.5 305.76C321.18 306.48 322.06 306.84 323.16 306.84C324.26 306.84 325.12 306.46 325.78 305.68C326.44 304.9 326.78 303.96 326.78 302.82C326.78 301.58 326.44 300.6 325.74 299.88C325.06 299.14 324.18 298.78 323.12 298.78C322.06 298.78 321.18 299.16 320.5 299.92C319.84 300.66 319.5 301.64 319.5 302.82ZM332.787 308H331.267V293H332.847V299.28H332.967C333.187 298.94 333.487 298.58 334.067 298.12C334.687 297.66 335.607 297.34 336.627 297.34C338.087 297.34 339.307 297.86 340.247 298.88C341.207 299.9 341.687 301.22 341.687 302.82C341.687 304.42 341.207 305.72 340.227 306.74C339.267 307.76 338.027 308.26 336.507 308.26C335.647 308.26 334.827 307.98 334.347 307.72C334.107 307.58 333.867 307.4 333.627 307.2C333.167 306.78 333.067 306.6 332.907 306.36H332.787V308ZM332.787 302.82C332.787 303.96 333.107 304.9 333.767 305.68C334.427 306.46 335.307 306.84 336.407 306.84C337.507 306.84 338.387 306.48 339.047 305.76C339.727 305.02 340.067 304.04 340.067 302.82C340.067 301.64 339.727 300.66 339.047 299.92C338.387 299.16 337.507 298.78 336.447 298.78C335.387 298.78 334.527 299.14 333.827 299.88C333.127 300.6 332.787 301.58 332.787 302.82ZM343.25 302.82C343.25 301.22 343.73 299.9 344.67 298.88C345.63 297.86 346.85 297.34 348.31 297.34C349.33 297.34 350.27 297.66 350.85 298.12C351.43 298.58 351.75 298.94 351.97 299.28H352.09V297.6H353.67V308H352.15V306.36H352.03C351.15 307.62 349.95 308.26 348.43 308.26C346.91 308.26 345.67 307.76 344.69 306.74C343.73 305.72 343.25 304.42 343.25 302.82ZM344.87 302.82C344.87 304.04 345.21 305.02 345.87 305.76C346.55 306.48 347.43 306.84 348.53 306.84C349.63 306.84 350.49 306.46 351.15 305.68C351.81 304.9 352.15 303.96 352.15 302.82C352.15 301.58 351.81 300.6 351.11 299.88C350.43 299.14 349.55 298.78 348.49 298.78C347.43 298.78 346.55 299.16 345.87 299.92C345.21 300.66 344.87 301.64 344.87 302.82ZM356.037 304.98H357.577C357.757 306.24 358.637 306.88 360.157 306.88C361.677 306.88 362.577 306.16 362.577 305.06C362.577 302.16 356.357 304.34 356.357 300.24C356.357 299.36 356.717 298.66 357.417 298.14C358.117 297.6 359.017 297.34 360.117 297.34C361.097 297.34 361.937 297.62 362.637 298.16C363.337 298.7 363.717 299.42 363.797 300.34H362.277C362.137 299.32 361.357 298.7 360.017 298.7C358.717 298.7 357.877 299.34 357.877 300.24C357.877 302.88 364.117 300.7 364.117 304.98C364.117 305.96 363.737 306.76 362.997 307.36C362.257 307.96 361.297 308.26 360.077 308.26C357.677 308.26 356.217 306.98 356.037 304.98ZM365.983 302.8C365.983 299.48 368.263 297.34 371.083 297.34C374.183 297.32 376.183 299.7 376.123 302.66V303.36H367.643C367.723 305.46 369.063 306.82 371.203 306.82C372.643 306.82 373.923 306.14 374.383 304.94H376.023C375.443 306.92 373.583 308.26 371.183 308.26C368.023 308.26 365.983 305.92 365.983 302.8ZM367.683 301.96H374.443C374.303 299.96 372.923 298.78 371.083 298.78C370.183 298.78 369.423 299.08 368.763 299.66C368.123 300.24 367.763 301.02 367.683 301.96Z" fill="white"/>
<path d="M389.794 169C389.794 171.393 388.262 173.762 385.28 175.995C382.306 178.222 377.971 180.248 372.57 181.958C361.773 185.377 346.826 187.5 330.294 187.5C313.763 187.5 298.816 185.377 288.019 181.958C282.618 180.248 278.283 178.222 275.309 175.995C272.327 173.762 270.794 171.393 270.794 169V79.5H389.794V169Z" fill="#0D0D0E" stroke="url(#paint4_linear_36_530)"/>
<path d="M389.794 79C389.794 81.3932 388.262 83.7624 385.28 85.9954C382.306 88.2217 377.971 90.2479 372.57 91.9584C361.773 95.3774 346.826 97.5 330.294 97.5C313.763 97.5 298.816 95.3774 288.019 91.9584C282.618 90.2479 278.283 88.2217 275.309 85.9954C272.327 83.7624 270.794 81.3932 270.794 79C270.794 76.6068 272.327 74.2376 275.309 72.0046C278.283 69.7783 282.618 67.7521 288.019 66.0416C298.816 62.6226 313.763 60.5 330.294 60.5C346.826 60.5 361.773 62.6226 372.57 66.0416C377.971 67.7521 382.306 69.7783 385.28 72.0046C388.262 74.2376 389.794 76.6068 389.794 79Z" fill="#0D0D0E" stroke="url(#paint5_linear_36_530)"/>
<path d="M297.028 134H294.184V121.4H299.116C300.412 121.4 301.474 121.796 302.32 122.57C303.166 123.344 303.58 124.334 303.58 125.558C303.58 127.196 302.662 128.564 301.348 129.23L304.03 134H300.862L298.72 129.788H297.028V134ZM297.028 123.83V127.358H298.864C299.944 127.358 300.664 126.692 300.664 125.558C300.664 124.496 299.962 123.83 298.828 123.83H297.028ZM314.01 134H305.838V121.4H313.812V123.83H308.682V126.44H313.056V128.87H308.682V131.552H314.01V134ZM318.79 134H315.946V121.4H320.824C322.084 121.4 323.128 121.796 323.956 122.588C324.802 123.362 325.216 124.37 325.216 125.612C325.216 128.096 323.236 129.86 320.824 129.86H318.79V134ZM318.79 123.83V127.448H320.536C321.562 127.448 322.318 126.71 322.318 125.612C322.318 124.532 321.598 123.83 320.536 123.83H318.79ZM334.708 134H326.932V121.4H329.776V131.462H334.708V134ZM339.444 134H336.6V121.4H339.444V134ZM341.193 127.7C341.121 124.046 343.965 121.112 347.817 121.166C351.165 121.166 353.613 123.326 354.081 126.08H350.985C350.625 124.802 349.401 123.902 347.817 123.902C346.737 123.902 345.855 124.262 345.171 124.982C344.487 125.702 344.145 126.602 344.145 127.7C344.145 128.798 344.487 129.716 345.171 130.436C345.855 131.138 346.737 131.498 347.817 131.498C349.401 131.498 350.607 130.616 351.093 129.374H354.207C353.937 130.796 353.217 131.948 352.047 132.866C350.877 133.784 349.473 134.234 347.817 134.234C343.965 134.288 341.121 131.372 341.193 127.7ZM357.07 134H354.154L358.438 121.4H362.074L366.412 134H363.388L362.632 131.768H357.808L357.07 134ZM360.148 124.532L358.582 129.23H361.858L360.31 124.532H360.148ZM288.617 160H284.457V146H288.617C293.037 146 295.637 148.9 295.637 153C295.637 155.18 295.017 156.88 293.777 158.14C292.557 159.38 290.837 160 288.617 160ZM286.077 147.46V158.56H288.617C291.957 158.56 293.977 156.5 293.977 153C293.977 151.3 293.497 149.94 292.537 148.96C291.597 147.96 290.277 147.46 288.617 147.46H286.077ZM297.197 154.82C297.197 153.22 297.677 151.9 298.617 150.88C299.577 149.86 300.797 149.34 302.257 149.34C303.277 149.34 304.217 149.66 304.797 150.12C305.377 150.58 305.697 150.94 305.917 151.28H306.037V149.6H307.617V160H306.097V158.36H305.977C305.097 159.62 303.897 160.26 302.377 160.26C300.857 160.26 299.617 159.76 298.637 158.74C297.677 157.72 297.197 156.42 297.197 154.82ZM298.817 154.82C298.817 156.04 299.157 157.02 299.817 157.76C300.497 158.48 301.377 158.84 302.477 158.84C303.577 158.84 304.437 158.46 305.097 157.68C305.757 156.9 306.097 155.96 306.097 154.82C306.097 153.58 305.757 152.6 305.057 151.88C304.377 151.14 303.497 150.78 302.437 150.78C301.377 150.78 300.497 151.16 299.817 151.92C299.157 152.66 298.817 153.64 298.817 154.82ZM311.545 150.94H309.585V149.6H311.145C311.445 149.6 311.645 149.4 311.645 149.08V146.58H313.125V149.6H316.325V150.94H313.125V156.84C313.125 158.02 313.565 158.62 314.745 158.62H316.185V160H314.645C312.665 160 311.545 158.92 311.545 156.86V150.94ZM317.88 154.82C317.88 153.22 318.36 151.9 319.3 150.88C320.26 149.86 321.48 149.34 322.94 149.34C323.96 149.34 324.9 149.66 325.48 150.12C326.06 150.58 326.38 150.94 326.6 151.28H326.72V149.6H328.3V160H326.78V158.36H326.66C325.78 159.62 324.58 160.26 323.06 160.26C321.54 160.26 320.3 159.76 319.32 158.74C318.36 157.72 317.88 156.42 317.88 154.82ZM319.5 154.82C319.5 156.04 319.84 157.02 320.5 157.76C321.18 158.48 322.06 158.84 323.16 158.84C324.26 158.84 325.12 158.46 325.78 157.68C326.44 156.9 326.78 155.96 326.78 154.82C326.78 153.58 326.44 152.6 325.74 151.88C325.06 151.14 324.18 150.78 323.12 150.78C322.06 150.78 321.18 151.16 320.5 151.92C319.84 152.66 319.5 153.64 319.5 154.82ZM332.787 160H331.267V145H332.847V151.28H332.967C333.187 150.94 333.487 150.58 334.067 150.12C334.687 149.66 335.607 149.34 336.627 149.34C338.087 149.34 339.307 149.86 340.247 150.88C341.207 151.9 341.687 153.22 341.687 154.82C341.687 156.42 341.207 157.72 340.227 158.74C339.267 159.76 338.027 160.26 336.507 160.26C335.647 160.26 334.827 159.98 334.347 159.72C334.107 159.58 333.867 159.4 333.627 159.2C333.167 158.78 333.067 158.6 332.907 158.36H332.787V160ZM332.787 154.82C332.787 155.96 333.107 156.9 333.767 157.68C334.427 158.46 335.307 158.84 336.407 158.84C337.507 158.84 338.387 158.48 339.047 157.76C339.727 157.02 340.067 156.04 340.067 154.82C340.067 153.64 339.727 152.66 339.047 151.92C338.387 151.16 337.507 150.78 336.447 150.78C335.387 150.78 334.527 151.14 333.827 151.88C333.127 152.6 332.787 153.58 332.787 154.82ZM343.25 154.82C343.25 153.22 343.73 151.9 344.67 150.88C345.63 149.86 346.85 149.34 348.31 149.34C349.33 149.34 350.27 149.66 350.85 150.12C351.43 150.58 351.75 150.94 351.97 151.28H352.09V149.6H353.67V160H352.15V158.36H352.03C351.15 159.62 349.95 160.26 348.43 160.26C346.91 160.26 345.67 159.76 344.69 158.74C343.73 157.72 343.25 156.42 343.25 154.82ZM344.87 154.82C344.87 156.04 345.21 157.02 345.87 157.76C346.55 158.48 347.43 158.84 348.53 158.84C349.63 158.84 350.49 158.46 351.15 157.68C351.81 156.9 352.15 155.96 352.15 154.82C352.15 153.58 351.81 152.6 351.11 151.88C350.43 151.14 349.55 150.78 348.49 150.78C347.43 150.78 346.55 151.16 345.87 151.92C345.21 152.66 344.87 153.64 344.87 154.82ZM356.037 156.98H357.577C357.757 158.24 358.637 158.88 360.157 158.88C361.677 158.88 362.577 158.16 362.577 157.06C362.577 154.16 356.357 156.34 356.357 152.24C356.357 151.36 356.717 150.66 357.417 150.14C358.117 149.6 359.017 149.34 360.117 149.34C361.097 149.34 361.937 149.62 362.637 150.16C363.337 150.7 363.717 151.42 363.797 152.34H362.277C362.137 151.32 361.357 150.7 360.017 150.7C358.717 150.7 357.877 151.34 357.877 152.24C357.877 154.88 364.117 152.7 364.117 156.98C364.117 157.96 363.737 158.76 362.997 159.36C362.257 159.96 361.297 160.26 360.077 160.26C357.677 160.26 356.217 158.98 356.037 156.98ZM365.983 154.8C365.983 151.48 368.263 149.34 371.083 149.34C374.183 149.32 376.183 151.7 376.123 154.66V155.36H367.643C367.723 157.46 369.063 158.82 371.203 158.82C372.643 158.82 373.923 158.14 374.383 156.94H376.023C375.443 158.92 373.583 160.26 371.183 160.26C368.023 160.26 365.983 157.92 365.983 154.8ZM367.683 153.96H374.443C374.303 151.96 372.923 150.78 371.083 150.78C370.183 150.78 369.423 151.08 368.763 151.66C368.123 152.24 367.763 153.02 367.683 153.96Z" fill="white"/>
<rect x="60.5" y="138.5" width="119" height="119" rx="59.5" fill="#0D0D0E"/>
<rect x="60.5" y="138.5" width="119" height="119" rx="59.5" stroke="#19D58D"/>
<g clip-path="url(#clip0_36_530)">
<path d="M128.062 177.506C126.69 177.506 125.402 178.031 124.434 178.983C122.874 180.519 122.495 182.841 123.448 184.764L120.001 186.973L116.555 184.764C117.507 182.841 117.129 180.519 115.569 178.983C114.601 178.031 113.312 177.506 111.94 177.506C110.568 177.506 109.279 178.031 108.312 178.983C107.344 179.935 106.812 181.203 106.812 182.554C106.812 183.904 107.345 185.172 108.312 186.125C109.28 187.077 110.568 187.602 111.94 187.602C112.906 187.602 113.835 187.341 114.647 186.844L118.595 189.374V192.093C116.416 192.705 114.87 194.692 114.87 196.951C114.87 199.735 117.172 202.001 120.001 202.001C122.83 202.001 125.132 199.735 125.132 196.951C125.132 194.692 123.587 192.705 121.408 192.093V189.374L125.356 186.844C126.167 187.341 127.096 187.602 128.062 187.602C129.434 187.602 130.723 187.077 131.691 186.125C133.691 184.156 133.691 180.952 131.691 178.983C130.723 178.031 129.434 177.506 128.062 177.506ZM129.702 184.168C128.8 185.056 127.331 185.057 126.426 184.171C126.426 184.171 126.424 184.17 126.424 184.169L126.416 184.162C125.519 183.272 125.521 181.829 126.423 180.941C126.86 180.511 127.442 180.274 128.062 180.274C128.683 180.274 129.265 180.511 129.702 180.941C130.606 181.831 130.606 183.278 129.702 184.168V184.168ZM122.32 196.951C122.32 198.209 121.28 199.233 120.001 199.233C118.723 199.233 117.683 198.209 117.683 196.951C117.683 195.692 118.723 194.669 120.001 194.669C121.28 194.669 122.32 195.692 122.32 196.951ZM110.301 184.168C109.864 183.738 109.623 183.164 109.623 182.554C109.623 181.944 109.864 181.371 110.301 180.941C110.738 180.51 111.32 180.273 111.94 180.273C112.561 180.273 113.143 180.51 113.58 180.941C114.017 181.371 114.258 181.944 114.258 182.554C114.258 183.165 114.019 183.733 113.585 184.163L113.575 184.173C112.67 185.057 111.203 185.055 110.301 184.168H110.301Z" fill="white"/>
<path d="M136.953 174.227L134.493 165.031C134.356 164.518 133.926 164.123 133.397 164.023C132.868 163.924 132.32 164.136 132.001 164.562L125.796 172.854C123.965 172.118 121.969 171.73 120 171.73C118.031 171.73 116.036 172.118 114.204 172.854L108.002 164.562C107.683 164.136 107.135 163.924 106.606 164.023C106.076 164.123 105.646 164.518 105.509 165.03L103.047 174.227C102.951 174.584 103.003 174.957 103.192 175.277C103.381 175.596 103.685 175.824 104.049 175.918C104.412 176.013 104.791 175.962 105.115 175.776C105.439 175.59 105.671 175.29 105.767 174.932L107.48 168.534L112.616 175.4C113.025 175.947 113.77 176.121 114.386 175.813C117.903 174.066 122.101 174.067 125.618 175.815C125.821 175.916 126.039 175.964 126.253 175.964C126.687 175.964 127.111 175.766 127.384 175.4L132.522 168.534L134.233 174.932C134.395 175.54 134.955 175.964 135.593 175.964C135.713 175.964 135.834 175.948 135.951 175.918C136.315 175.824 136.619 175.596 136.808 175.277C136.997 174.957 137.049 174.584 136.953 174.227L136.953 174.227Z" fill="white"/>
</g>
<path d="M93.6699 232H92.0499V218H97.0699C98.3499 218 99.3899 218.38 100.17 219.16C100.95 219.92 101.35 220.94 101.35 222.2C101.35 223.46 100.95 224.48 100.13 225.28C99.3299 226.06 98.3099 226.46 97.0699 226.46H93.6699V232ZM93.6699 219.44V225.02H96.9299C98.5899 225.02 99.6899 223.82 99.6899 222.2C99.6899 220.58 98.6099 219.44 96.9299 219.44H93.6699ZM101.899 226.82C101.899 225.22 102.379 223.9 103.319 222.88C104.279 221.86 105.499 221.34 106.959 221.34C107.979 221.34 108.919 221.66 109.499 222.12C110.079 222.58 110.399 222.94 110.619 223.28H110.739V221.6H112.319V232C112.319 235.04 110.379 236.86 107.259 236.86C104.779 236.86 103.079 235.54 102.739 233.62H104.239C104.499 234.82 105.659 235.48 107.259 235.48C109.639 235.48 110.799 234.18 110.799 232V230.36H110.679C109.799 231.62 108.599 232.26 107.079 232.26C105.559 232.26 104.319 231.76 103.339 230.74C102.379 229.72 101.899 228.42 101.899 226.82ZM103.519 226.82C103.519 228.04 103.859 229.02 104.519 229.76C105.199 230.48 106.079 230.84 107.179 230.84C108.279 230.84 109.139 230.46 109.799 229.68C110.459 228.9 110.799 227.96 110.799 226.82C110.799 225.58 110.459 224.6 109.759 223.88C109.079 223.14 108.199 222.78 107.139 222.78C106.079 222.78 105.199 223.16 104.519 223.92C103.859 224.66 103.519 225.64 103.519 226.82ZM114.486 225C114.486 220.88 117.546 217.74 121.686 217.74C123.266 217.74 124.646 218.18 125.806 219.04C126.986 219.9 127.806 221.04 128.266 222.48H126.526C125.806 220.42 123.926 219.26 121.686 219.26C118.586 219.26 116.166 221.74 116.166 225C116.106 228.24 118.626 230.8 121.686 230.74C123.926 230.74 125.806 229.6 126.466 227.52H128.266C127.826 228.98 127.006 230.12 125.826 230.98C124.646 231.84 123.266 232.26 121.666 232.26C117.606 232.34 114.426 229.08 114.486 225ZM129.828 226.82C129.828 225.22 130.308 223.9 131.248 222.88C132.208 221.86 133.428 221.34 134.888 221.34C135.908 221.34 136.848 221.66 137.428 222.12C138.008 222.58 138.328 222.94 138.548 223.28H138.668V221.6H140.248V232H138.728V230.36H138.608C137.728 231.62 136.528 232.26 135.008 232.26C133.488 232.26 132.248 231.76 131.268 230.74C130.308 229.72 129.828 228.42 129.828 226.82ZM131.448 226.82C131.448 228.04 131.788 229.02 132.448 229.76C133.128 230.48 134.008 230.84 135.108 230.84C136.208 230.84 137.068 230.46 137.728 229.68C138.388 228.9 138.728 227.96 138.728 226.82C138.728 225.58 138.388 224.6 137.688 223.88C137.008 223.14 136.128 222.78 135.068 222.78C134.008 222.78 133.128 223.16 132.448 223.92C131.788 224.66 131.448 225.64 131.448 226.82ZM144.175 222.94H142.215V221.6H143.775C144.075 221.6 144.275 221.4 144.275 221.08V218.58H145.755V221.6H148.955V222.94H145.755V228.84C145.755 230.02 146.195 230.62 147.375 230.62H148.815V232H147.275C145.295 232 144.175 230.92 144.175 228.86V222.94Z" fill="white"/>
<defs>
<filter id="filter0_f_36_530" x="259.792" y="261" width="22" height="22" filterUnits="userSpaceOnUse" color-interpolation-filters="sRGB">
<feFlood flood-opacity="0" result="BackgroundImageFix"/>
<feBlend mode="normal" in="SourceGraphic" in2="BackgroundImageFix" result="shape"/>
<feGaussianBlur stdDeviation="2" result="effect1_foregroundBlur_36_530"/>
</filter>
<filter id="filter1_f_36_530" x="259.792" y="113" width="22" height="22" filterUnits="userSpaceOnUse" color-interpolation-filters="sRGB">
<feFlood flood-opacity="0" result="BackgroundImageFix"/>
<feBlend mode="normal" in="SourceGraphic" in2="BackgroundImageFix" result="shape"/>
<feGaussianBlur stdDeviation="2" result="effect1_foregroundBlur_36_530"/>
</filter>
<linearGradient id="paint0_linear_36_530" x1="186.613" y1="198" x2="251.984" y2="286.297" gradientUnits="userSpaceOnUse">
<stop stop-color="#C44899"/>
<stop offset="1" stop-color="#FF4567"/>
</linearGradient>
<linearGradient id="paint1_linear_36_530" x1="224.294" y1="141.59" x2="271.294" y2="141.59" gradientUnits="userSpaceOnUse">
<stop stop-color="#19D58D"/>
<stop offset="1" stop-color="#3FB3FF"/>
</linearGradient>
<linearGradient id="paint2_linear_36_530" x1="390.294" y1="227" x2="281.796" y2="346.448" gradientUnits="userSpaceOnUse">
<stop stop-color="#3EDCFF"/>
<stop offset="1" stop-color="#3E9AFF"/>
</linearGradient>
<linearGradient id="paint3_linear_36_530" x1="390.294" y1="208" x2="368.421" y2="277.073" gradientUnits="userSpaceOnUse">
<stop stop-color="#3EDCFF"/>
<stop offset="1" stop-color="#3E9AFF"/>
</linearGradient>
<linearGradient id="paint4_linear_36_530" x1="390.294" y1="79" x2="281.796" y2="198.448" gradientUnits="userSpaceOnUse">
<stop stop-color="#3EDCFF"/>
<stop offset="1" stop-color="#3E9AFF"/>
</linearGradient>
<linearGradient id="paint5_linear_36_530" x1="390.294" y1="60" x2="368.421" y2="129.073" gradientUnits="userSpaceOnUse">
<stop stop-color="#3EDCFF"/>
<stop offset="1" stop-color="#3E9AFF"/>
</linearGradient>
<clipPath id="clip0_36_530">
<rect width="34" height="38" fill="white" transform="translate(103 164)"/>
</clipPath>
</defs>
</svg>
