<svg width="1040" height="754" viewBox="0 0 1040 754" fill="none" xmlns="http://www.w3.org/2000/svg">
<rect width="1040" height="754" rx="40" fill="#0D0D0E"/>
<path d="M543.998 377V596C543.998 598.209 545.789 600 547.998 600H590.998" stroke="url(#paint0_linear_35_147)"/>
<path d="M543.998 377V168C543.998 165.791 545.789 164 547.998 164H590.998" stroke="url(#paint1_linear_35_147)"/>
<path d="M498.998 377L589.998 377" stroke="url(#paint2_linear_35_147)" stroke-linecap="round"/>
<g filter="url(#filter0_f_35_147)">
<circle cx="590.498" cy="377" r="7" fill="#ABACB0"/>
</g>
<rect width="12" height="22" transform="matrix(-1 0 0 1 601.998 366)" fill="#0D0D0E"/>
<g filter="url(#filter1_f_35_147)">
<circle cx="590.498" cy="600" r="7" fill="#ABACB0"/>
</g>
<rect width="12" height="22" transform="matrix(-1 0 0 1 601.998 589)" fill="#0D0D0E"/>
<g filter="url(#filter2_f_35_147)">
<circle cx="590.498" cy="164" r="7" fill="#ABACB0"/>
</g>
<rect width="12" height="22" transform="matrix(-1 0 0 1 601.998 153)" fill="#0D0D0E"/>
<rect x="590.206" y="506.5" width="329" height="187" rx="9.5" fill="url(#paint3_linear_35_147)" fill-opacity="0.1" stroke="#ABACB0"/>
<path d="M589.706 504C589.706 499.582 593.287 496 597.706 496H650.706C652.915 496 654.706 497.791 654.706 500V513C654.706 515.209 652.915 517 650.706 517H589.706V504Z" fill="#ABACB0"/>
<path d="M605.854 511H598.308V509.068L602.984 503.202V503.09H598.476V501.2H605.826V503.118L601.122 508.984V509.096H605.854V511ZM606.326 506.1C606.326 503.216 608.552 501.018 611.534 501.018C614.53 501.018 616.742 503.23 616.742 506.1C616.784 508.914 614.46 511.238 611.534 511.182C608.524 511.182 606.326 508.998 606.326 506.1ZM608.622 506.1C608.622 506.954 608.888 507.654 609.434 508.214C609.98 508.774 610.68 509.054 611.534 509.054C612.374 509.054 613.06 508.774 613.606 508.214C614.152 507.654 614.432 506.954 614.432 506.1C614.432 505.26 614.152 504.56 613.606 504C613.06 503.426 612.374 503.146 611.534 503.146C610.68 503.146 609.98 503.426 609.434 504C608.888 504.56 608.622 505.26 608.622 506.1ZM620.147 511H618.005V501.2H620.455L624.207 507.36H624.291V501.2H626.433V511H623.969L620.231 504.84H620.147V511ZM634.473 511H628.117V501.2H634.319V503.09H630.329V505.12H633.731V507.01H630.329V509.096H634.473V511ZM639.055 507.976H641.085C641.099 508.606 641.589 509.082 642.317 509.082C643.101 509.082 643.605 508.564 643.605 507.892C643.605 507.234 643.087 506.702 642.289 506.702H640.903V505.036L642.877 503.258V503.16H639.223V501.186H645.565V503.104L643.521 504.938V505.022C644.193 505.148 644.739 505.484 645.173 506.016C645.607 506.534 645.817 507.164 645.817 507.892C645.817 509.628 644.529 511.168 642.345 511.168C640.175 511.168 639.055 509.6 639.055 507.976Z" fill="#0D0D0E"/>
<path d="M739.206 645C739.206 647.393 737.673 649.762 734.691 651.995C731.717 654.222 727.382 656.248 721.981 657.958C711.184 661.377 696.237 663.5 679.706 663.5C663.174 663.5 648.227 661.377 637.43 657.958C632.029 656.248 627.694 654.222 624.72 651.995C621.738 649.762 620.206 647.393 620.206 645V555.5H739.206V645Z" fill="#0D0D0E" stroke="url(#paint4_linear_35_147)"/>
<path d="M739.206 555C739.206 557.393 737.673 559.762 734.691 561.995C731.717 564.222 727.382 566.248 721.981 567.958C711.184 571.377 696.237 573.5 679.706 573.5C663.174 573.5 648.227 571.377 637.43 567.958C632.029 566.248 627.694 564.222 624.72 561.995C621.738 559.762 620.206 557.393 620.206 555C620.206 552.607 621.738 550.238 624.72 548.005C627.694 545.778 632.029 543.752 637.43 542.042C648.227 538.623 663.174 536.5 679.706 536.5C696.237 536.5 711.184 538.623 721.981 542.042C727.382 543.752 731.717 545.778 734.691 548.005C737.673 550.238 739.206 552.607 739.206 555Z" fill="#0D0D0E" stroke="url(#paint5_linear_35_147)"/>
<path d="M643.487 610H640.643V597.4H645.521C646.781 597.4 647.825 597.796 648.653 598.588C649.499 599.362 649.913 600.37 649.913 601.612C649.913 604.096 647.933 605.86 645.521 605.86H643.487V610ZM643.487 599.83V603.448H645.233C646.259 603.448 647.015 602.71 647.015 601.612C647.015 600.532 646.295 599.83 645.233 599.83H643.487ZM654.473 610H651.629V597.4H656.561C657.857 597.4 658.919 597.796 659.765 598.57C660.611 599.344 661.025 600.334 661.025 601.558C661.025 603.196 660.107 604.564 658.793 605.23L661.475 610H658.307L656.165 605.788H654.473V610ZM654.473 599.83V603.358H656.309C657.389 603.358 658.109 602.692 658.109 601.558C658.109 600.496 657.407 599.83 656.273 599.83H654.473ZM666.128 610H663.284V597.4H666.128V610ZM671.346 610H668.61V597.4H672.12L675.522 605.95H675.63L678.618 597.4H682.146V610H679.392V602.872H679.284L676.656 610H674.37L671.454 602.584H671.346V610ZM686.514 610H683.598L687.882 597.4H691.518L695.856 610H692.832L692.076 607.768H687.252L686.514 610ZM689.592 600.532L688.026 605.23H691.302L689.754 600.532H689.592ZM700.176 610H697.332V597.4H702.264C703.56 597.4 704.622 597.796 705.468 598.57C706.314 599.344 706.728 600.334 706.728 601.558C706.728 603.196 705.81 604.564 704.496 605.23L707.178 610H704.01L701.868 605.788H700.176V610ZM700.176 599.83V603.358H702.012C703.092 603.358 703.812 602.692 703.812 601.558C703.812 600.496 703.11 599.83 701.976 599.83H700.176ZM710.595 605.122L706.221 597.4H709.335L711.909 602.242H712.071L714.627 597.4H717.777L713.457 605.104V610H710.595V605.122ZM637.903 631.84H639.523C639.523 632.66 639.843 633.36 640.463 633.92C641.083 634.48 641.923 634.76 642.963 634.76C644.823 634.76 646.123 633.84 646.123 632.4C646.123 628 638.383 631.08 638.383 625.48C638.383 624.44 638.783 623.56 639.603 622.84C640.423 622.1 641.503 621.74 642.863 621.74C644.963 621.74 647.463 622.92 647.463 625.8H645.803C645.803 624.2 644.743 623.22 642.843 623.22C640.983 623.22 640.003 624.22 640.003 625.48C640.003 629.3 647.763 626.64 647.763 632.3C647.763 633.44 647.323 634.38 646.443 635.14C645.563 635.88 644.383 636.26 642.903 636.26C640.163 636.34 637.863 634.38 637.903 631.84ZM651.701 636H650.121V621H651.701V627.12H651.821C652.281 626.14 653.501 625.34 655.041 625.34C656.221 625.34 657.181 625.74 657.881 626.52C658.601 627.3 658.961 628.28 658.961 629.46V636H657.381V629.56C657.381 628.76 657.121 628.1 656.581 627.6C656.061 627.08 655.421 626.82 654.661 626.82C653.841 626.82 653.141 627.1 652.561 627.64C651.981 628.18 651.701 628.86 651.701 629.68V636ZM661.127 630.82C661.127 629.22 661.607 627.9 662.547 626.88C663.507 625.86 664.727 625.34 666.187 625.34C667.207 625.34 668.147 625.66 668.727 626.12C669.307 626.58 669.627 626.94 669.847 627.28H669.967V625.6H671.547V636H670.027V634.36H669.907C669.027 635.62 667.827 636.26 666.307 636.26C664.787 636.26 663.547 635.76 662.567 634.74C661.607 633.72 661.127 632.42 661.127 630.82ZM662.747 630.82C662.747 632.04 663.087 633.02 663.747 633.76C664.427 634.48 665.307 634.84 666.407 634.84C667.507 634.84 668.367 634.46 669.027 633.68C669.687 632.9 670.027 631.96 670.027 630.82C670.027 629.58 669.687 628.6 668.987 627.88C668.307 627.14 667.427 626.78 666.367 626.78C665.307 626.78 664.427 627.16 663.747 627.92C663.087 628.66 662.747 629.64 662.747 630.82ZM676.095 636H674.515V625.6H676.075V627.54H676.195C676.375 627.04 676.715 626.6 677.215 626.2C677.715 625.8 678.335 625.6 679.035 625.6H679.915V627.18H679.055C677.195 627.18 676.095 628.58 676.095 630.64V636ZM680.462 630.82C680.462 629.22 680.942 627.9 681.882 626.88C682.842 625.86 684.062 625.34 685.522 625.34C686.542 625.34 687.482 625.66 688.062 626.12C688.642 626.58 688.962 626.94 689.182 627.28H689.302V621H690.882V636H689.362V634.36H689.242C688.362 635.62 687.162 636.26 685.642 636.26C684.122 636.26 682.882 635.76 681.902 634.74C680.942 633.72 680.462 632.42 680.462 630.82ZM682.082 630.82C682.082 632.04 682.422 633.02 683.082 633.76C683.762 634.48 684.642 634.84 685.742 634.84C686.842 634.84 687.702 634.46 688.362 633.68C689.022 632.9 689.362 631.96 689.362 630.82C689.362 629.58 689.022 628.6 688.322 627.88C687.642 627.14 686.762 626.78 685.702 626.78C684.642 626.78 683.762 627.16 683.082 627.92C682.422 628.66 682.082 629.64 682.082 630.82ZM699.995 631.76H698.415V630.46H700.195L700.635 627.56H699.015V626.26H700.835L701.475 622H702.895L702.255 626.26H704.435L705.075 622H706.495L705.855 626.26H707.435V627.56H705.655L705.215 630.46H706.835V631.76H705.015L704.375 636H702.955L703.595 631.76H701.415L700.775 636H699.355L699.995 631.76ZM702.055 627.56L701.615 630.46H703.795L704.235 627.56H702.055ZM709.801 632.14H711.321C711.341 633.64 712.521 634.72 714.141 634.72C715.921 634.72 717.141 633.58 717.141 631.76C717.141 630.9 716.841 630.2 716.261 629.66C715.681 629.12 714.961 628.84 714.101 628.84H712.481V627.46L716.181 623.6V623.48H710.121V622H718.261V623.5L714.501 627.32V627.44C715.721 627.48 716.741 627.9 717.561 628.72C718.381 629.52 718.801 630.52 718.801 631.72C718.861 634.1 717.061 636.24 714.141 636.24C711.261 636.24 709.801 633.96 709.801 632.14Z" fill="white"/>
<path d="M889.206 645C889.206 647.393 887.673 649.762 884.691 651.995C881.717 654.222 877.382 656.248 871.981 657.958C861.184 661.377 846.237 663.5 829.706 663.5C813.174 663.5 798.227 661.377 787.43 657.958C782.029 656.248 777.694 654.222 774.72 651.995C771.738 649.762 770.206 647.393 770.206 645V555.5H889.206V645Z" fill="#0D0D0E" stroke="url(#paint6_linear_35_147)"/>
<path d="M889.206 555C889.206 557.393 887.673 559.762 884.691 561.995C881.717 564.222 877.382 566.248 871.981 567.958C861.184 571.377 846.237 573.5 829.706 573.5C813.174 573.5 798.227 571.377 787.43 567.958C782.029 566.248 777.694 564.222 774.72 561.995C771.738 559.762 770.206 557.393 770.206 555C770.206 552.607 771.738 550.238 774.72 548.005C777.694 545.778 782.029 543.752 787.43 542.042C798.227 538.623 813.174 536.5 829.706 536.5C846.237 536.5 861.184 538.623 871.981 542.042C877.382 543.752 881.717 545.778 884.691 548.005C887.673 550.238 889.206 552.607 889.206 555Z" fill="#0D0D0E" stroke="url(#paint7_linear_35_147)"/>
<path d="M796.439 610H793.595V597.4H798.527C799.823 597.4 800.885 597.796 801.731 598.57C802.577 599.344 802.991 600.334 802.991 601.558C802.991 603.196 802.073 604.564 800.759 605.23L803.441 610H800.273L798.131 605.788H796.439V610ZM796.439 599.83V603.358H798.275C799.355 603.358 800.075 602.692 800.075 601.558C800.075 600.496 799.373 599.83 798.239 599.83H796.439ZM813.421 610H805.249V597.4H813.223V599.83H808.093V602.44H812.467V604.87H808.093V607.552H813.421V610ZM818.201 610H815.357V597.4H820.235C821.495 597.4 822.539 597.796 823.367 598.588C824.213 599.362 824.627 600.37 824.627 601.612C824.627 604.096 822.647 605.86 820.235 605.86H818.201V610ZM818.201 599.83V603.448H819.947C820.973 603.448 821.729 602.71 821.729 601.612C821.729 600.532 821.009 599.83 819.947 599.83H818.201ZM834.119 610H826.343V597.4H829.187V607.462H834.119V610ZM838.855 610H836.011V597.4H838.855V610ZM840.604 603.7C840.532 600.046 843.376 597.112 847.228 597.166C850.576 597.166 853.024 599.326 853.492 602.08H850.396C850.036 600.802 848.812 599.902 847.228 599.902C846.148 599.902 845.266 600.262 844.582 600.982C843.898 601.702 843.556 602.602 843.556 603.7C843.556 604.798 843.898 605.716 844.582 606.436C845.266 607.138 846.148 607.498 847.228 607.498C848.812 607.498 850.018 606.616 850.504 605.374H853.618C853.348 606.796 852.628 607.948 851.458 608.866C850.288 609.784 848.884 610.234 847.228 610.234C843.376 610.288 840.532 607.372 840.604 603.7ZM856.482 610H853.566L857.85 597.4H861.486L865.824 610H862.8L862.044 607.768H857.22L856.482 610ZM859.56 600.532L857.994 605.23H861.27L859.722 600.532H859.56ZM788.648 631.84H790.268C790.268 632.66 790.588 633.36 791.208 633.92C791.828 634.48 792.668 634.76 793.708 634.76C795.568 634.76 796.868 633.84 796.868 632.4C796.868 628 789.128 631.08 789.128 625.48C789.128 624.44 789.528 623.56 790.348 622.84C791.168 622.1 792.248 621.74 793.608 621.74C795.708 621.74 798.208 622.92 798.208 625.8H796.548C796.548 624.2 795.488 623.22 793.588 623.22C791.728 623.22 790.748 624.22 790.748 625.48C790.748 629.3 798.508 626.64 798.508 632.3C798.508 633.44 798.068 634.38 797.188 635.14C796.308 635.88 795.128 636.26 793.648 636.26C790.908 636.34 788.608 634.38 788.648 631.84ZM802.445 636H800.865V621H802.445V627.12H802.565C803.025 626.14 804.245 625.34 805.785 625.34C806.965 625.34 807.925 625.74 808.625 626.52C809.345 627.3 809.705 628.28 809.705 629.46V636H808.125V629.56C808.125 628.76 807.865 628.1 807.325 627.6C806.805 627.08 806.165 626.82 805.405 626.82C804.585 626.82 803.885 627.1 803.305 627.64C802.725 628.18 802.445 628.86 802.445 629.68V636ZM811.871 630.82C811.871 629.22 812.351 627.9 813.291 626.88C814.251 625.86 815.471 625.34 816.931 625.34C817.951 625.34 818.891 625.66 819.471 626.12C820.051 626.58 820.371 626.94 820.591 627.28H820.711V625.6H822.291V636H820.771V634.36H820.651C819.771 635.62 818.571 636.26 817.051 636.26C815.531 636.26 814.291 635.76 813.311 634.74C812.351 633.72 811.871 632.42 811.871 630.82ZM813.491 630.82C813.491 632.04 813.831 633.02 814.491 633.76C815.171 634.48 816.051 634.84 817.151 634.84C818.251 634.84 819.111 634.46 819.771 633.68C820.431 632.9 820.771 631.96 820.771 630.82C820.771 629.58 820.431 628.6 819.731 627.88C819.051 627.14 818.171 626.78 817.111 626.78C816.051 626.78 815.171 627.16 814.491 627.92C813.831 628.66 813.491 629.64 813.491 630.82ZM826.839 636H825.259V625.6H826.819V627.54H826.939C827.119 627.04 827.459 626.6 827.959 626.2C828.459 625.8 829.079 625.6 829.779 625.6H830.659V627.18H829.799C827.939 627.18 826.839 628.58 826.839 630.64V636ZM831.206 630.82C831.206 629.22 831.686 627.9 832.626 626.88C833.586 625.86 834.806 625.34 836.266 625.34C837.286 625.34 838.226 625.66 838.806 626.12C839.386 626.58 839.706 626.94 839.926 627.28H840.046V621H841.626V636H840.106V634.36H839.986C839.106 635.62 837.906 636.26 836.386 636.26C834.866 636.26 833.626 635.76 832.646 634.74C831.686 633.72 831.206 632.42 831.206 630.82ZM832.826 630.82C832.826 632.04 833.166 633.02 833.826 633.76C834.506 634.48 835.386 634.84 836.486 634.84C837.586 634.84 838.446 634.46 839.106 633.68C839.766 632.9 840.106 631.96 840.106 630.82C840.106 629.58 839.766 628.6 839.066 627.88C838.386 627.14 837.506 626.78 836.446 626.78C835.386 626.78 834.506 627.16 833.826 627.92C833.166 628.66 832.826 629.64 832.826 630.82ZM850.739 631.76H849.159V630.46H850.939L851.379 627.56H849.759V626.26H851.579L852.219 622H853.639L852.999 626.26H855.179L855.819 622H857.239L856.599 626.26H858.179V627.56H856.399L855.959 630.46H857.579V631.76H855.759L855.119 636H853.699L854.339 631.76H852.159L851.519 636H850.099L850.739 631.76ZM852.799 627.56L852.359 630.46H854.539L854.979 627.56H852.799ZM862.065 625.84H860.545C860.545 623.92 862.025 621.74 864.805 621.74C867.445 621.74 869.145 623.7 869.145 625.78C869.145 627.38 868.345 628.68 866.745 629.7L864.285 631.26C862.705 632.28 862.185 633.06 862.185 634.2V634.52H869.265V636H860.565V634.26C860.565 632.5 861.465 631.3 863.385 630.08L865.925 628.48C866.965 627.82 867.485 626.94 867.485 625.82C867.485 624.32 866.445 623.26 864.765 623.26C863.985 623.26 863.325 623.52 862.825 624.02C862.325 624.52 862.065 625.12 862.065 625.84Z" fill="white"/>
<rect x="590.206" y="288.5" width="329" height="187" rx="9.5" fill="url(#paint8_linear_35_147)" fill-opacity="0.1" stroke="#ABACB0"/>
<path d="M589.706 286C589.706 281.582 593.287 278 597.706 278H650.706C652.915 278 654.706 279.791 654.706 282V295C654.706 297.209 652.915 299 650.706 299H589.706V286Z" fill="#ABACB0"/>
<path d="M605.854 293H598.308V291.068L602.984 285.202V285.09H598.476V283.2H605.826V285.118L601.122 290.984V291.096H605.854V293ZM606.326 288.1C606.326 285.216 608.552 283.018 611.534 283.018C614.53 283.018 616.742 285.23 616.742 288.1C616.784 290.914 614.46 293.238 611.534 293.182C608.524 293.182 606.326 290.998 606.326 288.1ZM608.622 288.1C608.622 288.954 608.888 289.654 609.434 290.214C609.98 290.774 610.68 291.054 611.534 291.054C612.374 291.054 613.06 290.774 613.606 290.214C614.152 289.654 614.432 288.954 614.432 288.1C614.432 287.26 614.152 286.56 613.606 286C613.06 285.426 612.374 285.146 611.534 285.146C610.68 285.146 609.98 285.426 609.434 286C608.888 286.56 608.622 287.26 608.622 288.1ZM620.147 293H618.005V283.2H620.455L624.207 289.36H624.291V283.2H626.433V293H623.969L620.231 286.84H620.147V293ZM634.473 293H628.117V283.2H634.319V285.09H630.329V287.12H633.731V289.01H630.329V291.096H634.473V293ZM640.987 286.21H638.943C638.943 284.572 640.077 283.018 642.219 283.018C643.241 283.018 644.067 283.298 644.683 283.872C645.313 284.446 645.621 285.146 645.621 286C645.621 287.288 645.019 288.142 643.787 288.87L641.827 290.018C641.337 290.312 641.155 290.592 641.155 290.97V291.082H645.607V293H638.957V291.278C638.957 289.99 639.517 289.15 640.819 288.352L642.639 287.232C643.157 286.896 643.409 286.588 643.409 286.084C643.409 285.482 642.947 285.048 642.205 285.048C641.477 285.048 640.987 285.58 640.987 286.21Z" fill="#0D0D0E"/>
<path d="M889.498 427C889.498 429.393 887.966 431.762 884.983 433.995C882.01 436.222 877.675 438.248 872.274 439.958C861.477 443.377 846.53 445.5 829.998 445.5C813.466 445.5 798.519 443.377 787.723 439.958C782.321 438.248 777.986 436.222 775.013 433.995C772.03 431.762 770.498 429.393 770.498 427V337.5H889.498V427Z" fill="#0D0D0E" stroke="url(#paint9_linear_35_147)"/>
<path d="M889.498 337C889.498 339.393 887.966 341.762 884.983 343.995C882.01 346.222 877.675 348.248 872.274 349.958C861.477 353.377 846.53 355.5 829.998 355.5C813.466 355.5 798.519 353.377 787.723 349.958C782.321 348.248 777.986 346.222 775.013 343.995C772.03 341.762 770.498 339.393 770.498 337C770.498 334.607 772.03 332.238 775.013 330.005C777.986 327.778 782.321 325.752 787.723 324.042C798.519 320.623 813.466 318.5 829.998 318.5C846.53 318.5 861.477 320.623 872.274 324.042C877.675 325.752 882.01 327.778 884.983 330.005C887.966 332.238 889.498 334.607 889.498 337Z" fill="#0D0D0E" stroke="url(#paint10_linear_35_147)"/>
<path d="M794.279 392H791.435V379.4H796.313C797.573 379.4 798.617 379.796 799.445 380.588C800.291 381.362 800.705 382.37 800.705 383.612C800.705 386.096 798.725 387.86 796.313 387.86H794.279V392ZM794.279 381.83V385.448H796.025C797.051 385.448 797.807 384.71 797.807 383.612C797.807 382.532 797.087 381.83 796.025 381.83H794.279ZM805.266 392H802.422V379.4H807.354C808.65 379.4 809.712 379.796 810.558 380.57C811.404 381.344 811.818 382.334 811.818 383.558C811.818 385.196 810.9 386.564 809.586 387.23L812.268 392H809.1L806.958 387.788H805.266V392ZM805.266 381.83V385.358H807.102C808.182 385.358 808.902 384.692 808.902 383.558C808.902 382.496 808.2 381.83 807.066 381.83H805.266ZM816.92 392H814.076V379.4H816.92V392ZM822.138 392H819.402V379.4H822.912L826.314 387.95H826.422L829.41 379.4H832.938V392H830.184V384.872H830.076L827.448 392H825.162L822.246 384.584H822.138V392ZM837.306 392H834.39L838.674 379.4H842.31L846.648 392H843.624L842.868 389.768H838.044L837.306 392ZM840.384 382.532L838.818 387.23H842.094L840.546 382.532H840.384ZM850.969 392H848.125V379.4H853.057C854.353 379.4 855.415 379.796 856.261 380.57C857.107 381.344 857.521 382.334 857.521 383.558C857.521 385.196 856.603 386.564 855.289 387.23L857.971 392H854.803L852.661 387.788H850.969V392ZM850.969 381.83V385.358H852.805C853.885 385.358 854.605 384.692 854.605 383.558C854.605 382.496 853.903 381.83 852.769 381.83H850.969ZM861.387 387.122L857.013 379.4H860.127L862.701 384.242H862.863L865.419 379.4H868.569L864.249 387.104V392H861.387V387.122ZM788.94 413.84H790.56C790.56 414.66 790.88 415.36 791.5 415.92C792.12 416.48 792.96 416.76 794 416.76C795.86 416.76 797.16 415.84 797.16 414.4C797.16 410 789.42 413.08 789.42 407.48C789.42 406.44 789.82 405.56 790.64 404.84C791.46 404.1 792.54 403.74 793.9 403.74C796 403.74 798.5 404.92 798.5 407.8H796.84C796.84 406.2 795.78 405.22 793.88 405.22C792.02 405.22 791.04 406.22 791.04 407.48C791.04 411.3 798.8 408.64 798.8 414.3C798.8 415.44 798.36 416.38 797.48 417.14C796.6 417.88 795.42 418.26 793.94 418.26C791.2 418.34 788.9 416.38 788.94 413.84ZM802.738 418H801.158V403H802.738V409.12H802.858C803.318 408.14 804.538 407.34 806.078 407.34C807.258 407.34 808.218 407.74 808.918 408.52C809.638 409.3 809.998 410.28 809.998 411.46V418H808.418V411.56C808.418 410.76 808.158 410.1 807.618 409.6C807.098 409.08 806.458 408.82 805.698 408.82C804.878 408.82 804.178 409.1 803.598 409.64C803.018 410.18 802.738 410.86 802.738 411.68V418ZM812.164 412.82C812.164 411.22 812.644 409.9 813.584 408.88C814.544 407.86 815.764 407.34 817.224 407.34C818.244 407.34 819.184 407.66 819.764 408.12C820.344 408.58 820.664 408.94 820.884 409.28H821.004V407.6H822.584V418H821.064V416.36H820.944C820.064 417.62 818.864 418.26 817.344 418.26C815.824 418.26 814.584 417.76 813.604 416.74C812.644 415.72 812.164 414.42 812.164 412.82ZM813.784 412.82C813.784 414.04 814.124 415.02 814.784 415.76C815.464 416.48 816.344 416.84 817.444 416.84C818.544 416.84 819.404 416.46 820.064 415.68C820.724 414.9 821.064 413.96 821.064 412.82C821.064 411.58 820.724 410.6 820.024 409.88C819.344 409.14 818.464 408.78 817.404 408.78C816.344 408.78 815.464 409.16 814.784 409.92C814.124 410.66 813.784 411.64 813.784 412.82ZM827.131 418H825.551V407.6H827.111V409.54H827.231C827.411 409.04 827.751 408.6 828.251 408.2C828.751 407.8 829.371 407.6 830.071 407.6H830.951V409.18H830.091C828.231 409.18 827.131 410.58 827.131 412.64V418ZM831.499 412.82C831.499 411.22 831.979 409.9 832.919 408.88C833.879 407.86 835.099 407.34 836.559 407.34C837.579 407.34 838.519 407.66 839.099 408.12C839.679 408.58 839.999 408.94 840.219 409.28H840.339V403H841.919V418H840.399V416.36H840.279C839.399 417.62 838.199 418.26 836.679 418.26C835.159 418.26 833.919 417.76 832.939 416.74C831.979 415.72 831.499 414.42 831.499 412.82ZM833.119 412.82C833.119 414.04 833.459 415.02 834.119 415.76C834.799 416.48 835.679 416.84 836.779 416.84C837.879 416.84 838.739 416.46 839.399 415.68C840.059 414.9 840.399 413.96 840.399 412.82C840.399 411.58 840.059 410.6 839.359 409.88C838.679 409.14 837.799 408.78 836.739 408.78C835.679 408.78 834.799 409.16 834.119 409.92C833.459 410.66 833.119 411.64 833.119 412.82ZM851.032 413.76H849.452V412.46H851.232L851.672 409.56H850.052V408.26H851.872L852.512 404H853.932L853.292 408.26H855.472L856.112 404H857.532L856.892 408.26H858.472V409.56H856.692L856.252 412.46H857.872V413.76H856.052L855.412 418H853.992L854.632 413.76H852.452L851.812 418H850.392L851.032 413.76ZM853.092 409.56L852.652 412.46H854.832L855.272 409.56H853.092ZM862.357 407.84H860.837C860.837 405.92 862.317 403.74 865.097 403.74C867.737 403.74 869.437 405.7 869.437 407.78C869.437 409.38 868.637 410.68 867.037 411.7L864.577 413.26C862.997 414.28 862.477 415.06 862.477 416.2V416.52H869.557V418H860.857V416.26C860.857 414.5 861.757 413.3 863.677 412.08L866.217 410.48C867.257 409.82 867.777 408.94 867.777 407.82C867.777 406.32 866.737 405.26 865.057 405.26C864.277 405.26 863.617 405.52 863.117 406.02C862.617 406.52 862.357 407.12 862.357 407.84Z" fill="white"/>
<path d="M739.498 427C739.498 429.393 737.966 431.762 734.983 433.995C732.01 436.222 727.675 438.248 722.274 439.958C711.477 443.377 696.53 445.5 679.998 445.5C663.466 445.5 648.519 443.377 637.723 439.958C632.321 438.248 627.986 436.222 625.013 433.995C622.03 431.762 620.498 429.393 620.498 427V337.5H739.498V427Z" fill="#0D0D0E" stroke="url(#paint11_linear_35_147)"/>
<path d="M739.498 337C739.498 339.393 737.966 341.762 734.983 343.995C732.01 346.222 727.675 348.248 722.274 349.958C711.477 353.377 696.53 355.5 679.998 355.5C663.466 355.5 648.519 353.377 637.723 349.958C632.321 348.248 627.986 346.222 625.013 343.995C622.03 341.762 620.498 339.393 620.498 337C620.498 334.607 622.03 332.238 625.013 330.005C627.986 327.778 632.321 325.752 637.723 324.042C648.519 320.623 663.466 318.5 679.998 318.5C696.53 318.5 711.477 320.623 722.274 324.042C727.675 325.752 732.01 327.778 734.983 330.005C737.966 332.238 739.498 334.607 739.498 337Z" fill="#0D0D0E" stroke="url(#paint12_linear_35_147)"/>
<path d="M646.732 392H643.888V379.4H648.82C650.116 379.4 651.178 379.796 652.024 380.57C652.87 381.344 653.284 382.334 653.284 383.558C653.284 385.196 652.366 386.564 651.052 387.23L653.734 392H650.566L648.424 387.788H646.732V392ZM646.732 381.83V385.358H648.568C649.648 385.358 650.368 384.692 650.368 383.558C650.368 382.496 649.666 381.83 648.532 381.83H646.732ZM663.714 392H655.542V379.4H663.516V381.83H658.386V384.44H662.76V386.87H658.386V389.552H663.714V392ZM668.493 392H665.649V379.4H670.527C671.787 379.4 672.831 379.796 673.659 380.588C674.505 381.362 674.919 382.37 674.919 383.612C674.919 386.096 672.939 387.86 670.527 387.86H668.493V392ZM668.493 381.83V385.448H670.239C671.265 385.448 672.021 384.71 672.021 383.612C672.021 382.532 671.301 381.83 670.239 381.83H668.493ZM684.412 392H676.636V379.4H679.48V389.462H684.412V392ZM689.148 392H686.304V379.4H689.148V392ZM690.897 385.7C690.825 382.046 693.669 379.112 697.521 379.166C700.869 379.166 703.317 381.326 703.785 384.08H700.689C700.329 382.802 699.105 381.902 697.521 381.902C696.441 381.902 695.559 382.262 694.875 382.982C694.191 383.702 693.849 384.602 693.849 385.7C693.849 386.798 694.191 387.716 694.875 388.436C695.559 389.138 696.441 389.498 697.521 389.498C699.105 389.498 700.311 388.616 700.797 387.374H703.911C703.641 388.796 702.921 389.948 701.751 390.866C700.581 391.784 699.177 392.234 697.521 392.234C693.669 392.288 690.825 389.372 690.897 385.7ZM706.774 392H703.858L708.142 379.4H711.778L716.116 392H713.092L712.336 389.768H707.512L706.774 392ZM709.852 382.532L708.286 387.23H711.562L710.014 382.532H709.852ZM640.288 413.84H641.908C641.908 414.66 642.228 415.36 642.848 415.92C643.468 416.48 644.308 416.76 645.348 416.76C647.208 416.76 648.508 415.84 648.508 414.4C648.508 410 640.768 413.08 640.768 407.48C640.768 406.44 641.168 405.56 641.988 404.84C642.808 404.1 643.888 403.74 645.248 403.74C647.348 403.74 649.848 404.92 649.848 407.8H648.188C648.188 406.2 647.128 405.22 645.228 405.22C643.368 405.22 642.388 406.22 642.388 407.48C642.388 411.3 650.148 408.64 650.148 414.3C650.148 415.44 649.708 416.38 648.828 417.14C647.948 417.88 646.768 418.26 645.288 418.26C642.548 418.34 640.248 416.38 640.288 413.84ZM654.085 418H652.505V403H654.085V409.12H654.205C654.665 408.14 655.885 407.34 657.425 407.34C658.605 407.34 659.565 407.74 660.265 408.52C660.985 409.3 661.345 410.28 661.345 411.46V418H659.765V411.56C659.765 410.76 659.505 410.1 658.965 409.6C658.445 409.08 657.805 408.82 657.045 408.82C656.225 408.82 655.525 409.1 654.945 409.64C654.365 410.18 654.085 410.86 654.085 411.68V418ZM663.512 412.82C663.512 411.22 663.992 409.9 664.932 408.88C665.892 407.86 667.112 407.34 668.572 407.34C669.592 407.34 670.532 407.66 671.112 408.12C671.692 408.58 672.012 408.94 672.232 409.28H672.352V407.6H673.932V418H672.412V416.36H672.292C671.412 417.62 670.212 418.26 668.692 418.26C667.172 418.26 665.932 417.76 664.952 416.74C663.992 415.72 663.512 414.42 663.512 412.82ZM665.132 412.82C665.132 414.04 665.472 415.02 666.132 415.76C666.812 416.48 667.692 416.84 668.792 416.84C669.892 416.84 670.752 416.46 671.412 415.68C672.072 414.9 672.412 413.96 672.412 412.82C672.412 411.58 672.072 410.6 671.372 409.88C670.692 409.14 669.812 408.78 668.752 408.78C667.692 408.78 666.812 409.16 666.132 409.92C665.472 410.66 665.132 411.64 665.132 412.82ZM678.479 418H676.899V407.6H678.459V409.54H678.579C678.759 409.04 679.099 408.6 679.599 408.2C680.099 407.8 680.719 407.6 681.419 407.6H682.299V409.18H681.439C679.579 409.18 678.479 410.58 678.479 412.64V418ZM682.846 412.82C682.846 411.22 683.326 409.9 684.266 408.88C685.226 407.86 686.446 407.34 687.906 407.34C688.926 407.34 689.866 407.66 690.446 408.12C691.026 408.58 691.346 408.94 691.566 409.28H691.686V403H693.266V418H691.746V416.36H691.626C690.746 417.62 689.546 418.26 688.026 418.26C686.506 418.26 685.266 417.76 684.286 416.74C683.326 415.72 682.846 414.42 682.846 412.82ZM684.466 412.82C684.466 414.04 684.806 415.02 685.466 415.76C686.146 416.48 687.026 416.84 688.126 416.84C689.226 416.84 690.086 416.46 690.746 415.68C691.406 414.9 691.746 413.96 691.746 412.82C691.746 411.58 691.406 410.6 690.706 409.88C690.026 409.14 689.146 408.78 688.086 408.78C687.026 408.78 686.146 409.16 685.466 409.92C684.806 410.66 684.466 411.64 684.466 412.82ZM702.379 413.76H700.799V412.46H702.579L703.019 409.56H701.399V408.26H703.219L703.859 404H705.279L704.639 408.26H706.819L707.459 404H708.879L708.239 408.26H709.819V409.56H708.039L707.599 412.46H709.219V413.76H707.399L706.759 418H705.339L705.979 413.76H703.799L703.159 418H701.739L702.379 413.76ZM704.439 409.56L703.999 412.46H706.179L706.619 409.56H704.439ZM715.785 407.3H712.385V406C714.925 406 715.885 405.44 715.885 404H717.405V418H715.785V407.3Z" fill="white"/>
<rect x="590.206" y="70.5" width="329" height="187" rx="9.5" fill="url(#paint13_linear_35_147)" fill-opacity="0.1" stroke="#ABACB0"/>
<path d="M589.706 68C589.706 63.5817 593.287 60 597.706 60H648.706C650.915 60 652.706 61.7909 652.706 64V77C652.706 79.2091 650.915 81 648.706 81H589.706V68Z" fill="#ABACB0"/>
<path d="M605.854 75H598.308V73.068L602.984 67.202V67.09H598.476V65.2H605.826V67.118L601.122 72.984V73.096H605.854V75ZM606.326 70.1C606.326 67.216 608.552 65.018 611.534 65.018C614.53 65.018 616.742 67.23 616.742 70.1C616.784 72.914 614.46 75.238 611.534 75.182C608.524 75.182 606.326 72.998 606.326 70.1ZM608.622 70.1C608.622 70.954 608.888 71.654 609.434 72.214C609.98 72.774 610.68 73.054 611.534 73.054C612.374 73.054 613.06 72.774 613.606 72.214C614.152 71.654 614.432 70.954 614.432 70.1C614.432 69.26 614.152 68.56 613.606 68C613.06 67.426 612.374 67.146 611.534 67.146C610.68 67.146 609.98 67.426 609.434 68C608.888 68.56 608.622 69.26 608.622 70.1ZM620.147 75H618.005V65.2H620.455L624.207 71.36H624.291V65.2H626.433V75H623.969L620.231 68.84H620.147V75ZM634.473 75H628.117V65.2H634.319V67.09H630.329V69.12H633.731V71.01H630.329V73.096H634.473V75ZM641.267 68.336H638.985V66.698C640.819 66.698 641.435 66.222 641.435 65.2H643.465V75H641.267V68.336Z" fill="#0D0D0E"/>
<path d="M739.206 209C739.206 211.393 737.673 213.762 734.691 215.995C731.717 218.222 727.382 220.248 721.981 221.958C711.184 225.377 696.237 227.5 679.706 227.5C663.174 227.5 648.227 225.377 637.43 221.958C632.029 220.248 627.694 218.222 624.72 215.995C621.738 213.762 620.206 211.393 620.206 209V119.5H739.206V209Z" fill="#0D0D0E" stroke="url(#paint14_linear_35_147)"/>
<path d="M739.206 119C739.206 121.393 737.673 123.762 734.691 125.995C731.717 128.222 727.382 130.248 721.981 131.958C711.184 135.377 696.237 137.5 679.706 137.5C663.174 137.5 648.227 135.377 637.43 131.958C632.029 130.248 627.694 128.222 624.72 125.995C621.738 123.762 620.206 121.393 620.206 119C620.206 116.607 621.738 114.238 624.72 112.005C627.694 109.778 632.029 107.752 637.43 106.042C648.227 102.623 663.174 100.5 679.706 100.5C696.237 100.5 711.184 102.623 721.981 106.042C727.382 107.752 731.717 109.778 734.691 112.005C737.673 114.238 739.206 116.607 739.206 119Z" fill="#0D0D0E" stroke="url(#paint15_linear_35_147)"/>
<path d="M643.987 174H641.143V161.4H646.021C647.281 161.4 648.325 161.796 649.153 162.588C649.999 163.362 650.413 164.37 650.413 165.612C650.413 168.096 648.433 169.86 646.021 169.86H643.987V174ZM643.987 163.83V167.448H645.733C646.759 167.448 647.515 166.71 647.515 165.612C647.515 164.532 646.795 163.83 645.733 163.83H643.987ZM654.973 174H652.129V161.4H657.061C658.357 161.4 659.419 161.796 660.265 162.57C661.111 163.344 661.525 164.334 661.525 165.558C661.525 167.196 660.607 168.564 659.293 169.23L661.975 174H658.807L656.665 169.788H654.973V174ZM654.973 163.83V167.358H656.809C657.889 167.358 658.609 166.692 658.609 165.558C658.609 164.496 657.907 163.83 656.773 163.83H654.973ZM666.628 174H663.784V161.4H666.628V174ZM671.846 174H669.11V161.4H672.62L676.022 169.95H676.13L679.118 161.4H682.646V174H679.892V166.872H679.784L677.156 174H674.87L671.954 166.584H671.846V174ZM687.014 174H684.098L688.382 161.4H692.018L696.356 174H693.332L692.576 171.768H687.752L687.014 174ZM690.092 164.532L688.526 169.23H691.802L690.254 164.532H690.092ZM700.676 174H697.832V161.4H702.764C704.06 161.4 705.122 161.796 705.968 162.57C706.814 163.344 707.228 164.334 707.228 165.558C707.228 167.196 706.31 168.564 704.996 169.23L707.678 174H704.51L702.368 169.788H700.676V174ZM700.676 163.83V167.358H702.512C703.592 167.358 704.312 166.692 704.312 165.558C704.312 164.496 703.61 163.83 702.476 163.83H700.676ZM711.095 169.122L706.721 161.4H709.835L712.409 166.242H712.571L715.127 161.4H718.277L713.957 169.104V174H711.095V169.122ZM639.995 195.84H641.615C641.615 196.66 641.935 197.36 642.555 197.92C643.175 198.48 644.015 198.76 645.055 198.76C646.915 198.76 648.215 197.84 648.215 196.4C648.215 192 640.475 195.08 640.475 189.48C640.475 188.44 640.875 187.56 641.695 186.84C642.515 186.1 643.595 185.74 644.955 185.74C647.055 185.74 649.555 186.92 649.555 189.8H647.895C647.895 188.2 646.835 187.22 644.935 187.22C643.075 187.22 642.095 188.22 642.095 189.48C642.095 193.3 649.855 190.64 649.855 196.3C649.855 197.44 649.415 198.38 648.535 199.14C647.655 199.88 646.475 200.26 644.995 200.26C642.255 200.34 639.955 198.38 639.995 195.84ZM653.793 200H652.213V185H653.793V191.12H653.913C654.373 190.14 655.593 189.34 657.133 189.34C658.313 189.34 659.273 189.74 659.973 190.52C660.693 191.3 661.053 192.28 661.053 193.46V200H659.473V193.56C659.473 192.76 659.213 192.1 658.673 191.6C658.153 191.08 657.513 190.82 656.753 190.82C655.933 190.82 655.233 191.1 654.653 191.64C654.073 192.18 653.793 192.86 653.793 193.68V200ZM663.219 194.82C663.219 193.22 663.699 191.9 664.639 190.88C665.599 189.86 666.819 189.34 668.279 189.34C669.299 189.34 670.239 189.66 670.819 190.12C671.399 190.58 671.719 190.94 671.939 191.28H672.059V189.6H673.639V200H672.119V198.36H671.999C671.119 199.62 669.919 200.26 668.399 200.26C666.879 200.26 665.639 199.76 664.659 198.74C663.699 197.72 663.219 196.42 663.219 194.82ZM664.839 194.82C664.839 196.04 665.179 197.02 665.839 197.76C666.519 198.48 667.399 198.84 668.499 198.84C669.599 198.84 670.459 198.46 671.119 197.68C671.779 196.9 672.119 195.96 672.119 194.82C672.119 193.58 671.779 192.6 671.079 191.88C670.399 191.14 669.519 190.78 668.459 190.78C667.399 190.78 666.519 191.16 665.839 191.92C665.179 192.66 664.839 193.64 664.839 194.82ZM678.186 200H676.606V189.6H678.166V191.54H678.286C678.466 191.04 678.806 190.6 679.306 190.2C679.806 189.8 680.426 189.6 681.126 189.6H682.006V191.18H681.146C679.286 191.18 678.186 192.58 678.186 194.64V200ZM682.554 194.82C682.554 193.22 683.034 191.9 683.974 190.88C684.934 189.86 686.154 189.34 687.614 189.34C688.634 189.34 689.574 189.66 690.154 190.12C690.734 190.58 691.054 190.94 691.274 191.28H691.394V185H692.974V200H691.454V198.36H691.334C690.454 199.62 689.254 200.26 687.734 200.26C686.214 200.26 684.974 199.76 683.994 198.74C683.034 197.72 682.554 196.42 682.554 194.82ZM684.174 194.82C684.174 196.04 684.514 197.02 685.174 197.76C685.854 198.48 686.734 198.84 687.834 198.84C688.934 198.84 689.794 198.46 690.454 197.68C691.114 196.9 691.454 195.96 691.454 194.82C691.454 193.58 691.114 192.6 690.414 191.88C689.734 191.14 688.854 190.78 687.794 190.78C686.734 190.78 685.854 191.16 685.174 191.92C684.514 192.66 684.174 193.64 684.174 194.82ZM702.087 195.76H700.507V194.46H702.287L702.727 191.56H701.107V190.26H702.927L703.567 186H704.987L704.347 190.26H706.527L707.167 186H708.587L707.947 190.26H709.527V191.56H707.747L707.307 194.46H708.927V195.76H707.107L706.467 200H705.047L705.687 195.76H703.507L702.867 200H701.447L702.087 195.76ZM704.147 191.56L703.707 194.46H705.887L706.327 191.56H704.147ZM715.493 189.3H712.093V188C714.633 188 715.593 187.44 715.593 186H717.113V200H715.493V189.3Z" fill="white"/>
<path d="M889.206 209C889.206 211.393 887.673 213.762 884.691 215.995C881.717 218.222 877.382 220.248 871.981 221.958C861.184 225.377 846.237 227.5 829.706 227.5C813.174 227.5 798.227 225.377 787.43 221.958C782.029 220.248 777.694 218.222 774.72 215.995C771.738 213.762 770.206 211.393 770.206 209V119.5H889.206V209Z" fill="#0D0D0E" stroke="url(#paint16_linear_35_147)"/>
<path d="M889.206 119C889.206 121.393 887.673 123.762 884.691 125.995C881.717 128.222 877.382 130.248 871.981 131.958C861.184 135.377 846.237 137.5 829.706 137.5C813.174 137.5 798.227 135.377 787.43 131.958C782.029 130.248 777.694 128.222 774.72 125.995C771.738 123.762 770.206 121.393 770.206 119C770.206 116.607 771.738 114.238 774.72 112.005C777.694 109.778 782.029 107.752 787.43 106.042C798.227 102.623 813.174 100.5 829.706 100.5C846.237 100.5 861.184 102.623 871.981 106.042C877.382 107.752 881.717 109.778 884.691 112.005C887.673 114.238 889.206 116.607 889.206 119Z" fill="#0D0D0E" stroke="url(#paint17_linear_35_147)"/>
<path d="M795.939 174H793.095V161.4H798.027C799.323 161.4 800.385 161.796 801.231 162.57C802.077 163.344 802.491 164.334 802.491 165.558C802.491 167.196 801.573 168.564 800.259 169.23L802.941 174H799.773L797.631 169.788H795.939V174ZM795.939 163.83V167.358H797.775C798.855 167.358 799.575 166.692 799.575 165.558C799.575 164.496 798.873 163.83 797.739 163.83H795.939ZM812.921 174H804.749V161.4H812.723V163.83H807.593V166.44H811.967V168.87H807.593V171.552H812.921V174ZM817.701 174H814.857V161.4H819.735C820.995 161.4 822.039 161.796 822.867 162.588C823.713 163.362 824.127 164.37 824.127 165.612C824.127 168.096 822.147 169.86 819.735 169.86H817.701V174ZM817.701 163.83V167.448H819.447C820.473 167.448 821.229 166.71 821.229 165.612C821.229 164.532 820.509 163.83 819.447 163.83H817.701ZM833.619 174H825.843V161.4H828.687V171.462H833.619V174ZM838.355 174H835.511V161.4H838.355V174ZM840.104 167.7C840.032 164.046 842.876 161.112 846.728 161.166C850.076 161.166 852.524 163.326 852.992 166.08H849.896C849.536 164.802 848.312 163.902 846.728 163.902C845.648 163.902 844.766 164.262 844.082 164.982C843.398 165.702 843.056 166.602 843.056 167.7C843.056 168.798 843.398 169.716 844.082 170.436C844.766 171.138 845.648 171.498 846.728 171.498C848.312 171.498 849.518 170.616 850.004 169.374H853.118C852.848 170.796 852.128 171.948 850.958 172.866C849.788 173.784 848.384 174.234 846.728 174.234C842.876 174.288 840.032 171.372 840.104 167.7ZM855.982 174H853.066L857.35 161.4H860.986L865.324 174H862.3L861.544 171.768H856.72L855.982 174ZM859.06 164.532L857.494 169.23H860.77L859.222 164.532H859.06ZM787.903 195.84H789.523C789.523 196.66 789.843 197.36 790.463 197.92C791.083 198.48 791.923 198.76 792.963 198.76C794.823 198.76 796.123 197.84 796.123 196.4C796.123 192 788.383 195.08 788.383 189.48C788.383 188.44 788.783 187.56 789.603 186.84C790.423 186.1 791.503 185.74 792.863 185.74C794.963 185.74 797.463 186.92 797.463 189.8H795.803C795.803 188.2 794.743 187.22 792.843 187.22C790.983 187.22 790.003 188.22 790.003 189.48C790.003 193.3 797.763 190.64 797.763 196.3C797.763 197.44 797.323 198.38 796.443 199.14C795.563 199.88 794.383 200.26 792.903 200.26C790.163 200.34 787.863 198.38 787.903 195.84ZM801.701 200H800.121V185H801.701V191.12H801.821C802.281 190.14 803.501 189.34 805.041 189.34C806.221 189.34 807.181 189.74 807.881 190.52C808.601 191.3 808.961 192.28 808.961 193.46V200H807.381V193.56C807.381 192.76 807.121 192.1 806.581 191.6C806.061 191.08 805.421 190.82 804.661 190.82C803.841 190.82 803.141 191.1 802.561 191.64C801.981 192.18 801.701 192.86 801.701 193.68V200ZM811.127 194.82C811.127 193.22 811.607 191.9 812.547 190.88C813.507 189.86 814.727 189.34 816.187 189.34C817.207 189.34 818.147 189.66 818.727 190.12C819.307 190.58 819.627 190.94 819.847 191.28H819.967V189.6H821.547V200H820.027V198.36H819.907C819.027 199.62 817.827 200.26 816.307 200.26C814.787 200.26 813.547 199.76 812.567 198.74C811.607 197.72 811.127 196.42 811.127 194.82ZM812.747 194.82C812.747 196.04 813.087 197.02 813.747 197.76C814.427 198.48 815.307 198.84 816.407 198.84C817.507 198.84 818.367 198.46 819.027 197.68C819.687 196.9 820.027 195.96 820.027 194.82C820.027 193.58 819.687 192.6 818.987 191.88C818.307 191.14 817.427 190.78 816.367 190.78C815.307 190.78 814.427 191.16 813.747 191.92C813.087 192.66 812.747 193.64 812.747 194.82ZM826.095 200H824.515V189.6H826.075V191.54H826.195C826.375 191.04 826.715 190.6 827.215 190.2C827.715 189.8 828.335 189.6 829.035 189.6H829.915V191.18H829.055C827.195 191.18 826.095 192.58 826.095 194.64V200ZM830.462 194.82C830.462 193.22 830.942 191.9 831.882 190.88C832.842 189.86 834.062 189.34 835.522 189.34C836.542 189.34 837.482 189.66 838.062 190.12C838.642 190.58 838.962 190.94 839.182 191.28H839.302V185H840.882V200H839.362V198.36H839.242C838.362 199.62 837.162 200.26 835.642 200.26C834.122 200.26 832.882 199.76 831.902 198.74C830.942 197.72 830.462 196.42 830.462 194.82ZM832.082 194.82C832.082 196.04 832.422 197.02 833.082 197.76C833.762 198.48 834.642 198.84 835.742 198.84C836.842 198.84 837.702 198.46 838.362 197.68C839.022 196.9 839.362 195.96 839.362 194.82C839.362 193.58 839.022 192.6 838.322 191.88C837.642 191.14 836.762 190.78 835.702 190.78C834.642 190.78 833.762 191.16 833.082 191.92C832.422 192.66 832.082 193.64 832.082 194.82ZM849.995 195.76H848.415V194.46H850.195L850.635 191.56H849.015V190.26H850.835L851.475 186H852.895L852.255 190.26H854.435L855.075 186H856.495L855.855 190.26H857.435V191.56H855.655L855.215 194.46H856.835V195.76H855.015L854.375 200H852.955L853.595 195.76H851.415L850.775 200H849.355L849.995 195.76ZM852.055 191.56L851.615 194.46H853.795L854.235 191.56H852.055ZM859.801 196.14H861.321C861.341 197.64 862.521 198.72 864.141 198.72C865.921 198.72 867.141 197.58 867.141 195.76C867.141 194.9 866.841 194.2 866.261 193.66C865.681 193.12 864.961 192.84 864.101 192.84H862.481V191.46L866.181 187.6V187.48H860.121V186H868.261V187.5L864.501 191.32V191.44C865.721 191.48 866.741 191.9 867.561 192.72C868.381 193.52 868.801 194.52 868.801 195.72C868.861 198.1 867.061 200.24 864.141 200.24C861.261 200.24 859.801 197.96 859.801 196.14Z" fill="white"/>
<path d="M285.853 377L379.853 377" stroke="url(#paint18_linear_35_147)" stroke-linecap="round"/>
<g filter="url(#filter3_f_35_147)">
<circle cx="380.353" cy="377" r="7" transform="rotate(-180 380.353 377)" fill="url(#paint19_linear_35_147)"/>
</g>
<rect x="380.206" y="317.5" width="119" height="119" rx="59.5" fill="#0D0D0E"/>
<rect x="380.206" y="317.5" width="119" height="119" rx="59.5" stroke="#19D58D"/>
<g clip-path="url(#clip0_35_147)">
<path d="M447.768 356.506C446.396 356.506 445.108 357.031 444.14 357.983C442.58 359.519 442.201 361.841 443.153 363.764L439.707 365.973L436.26 363.764C437.213 361.841 436.835 359.519 435.274 357.983C434.306 357.031 433.018 356.506 431.646 356.506C430.274 356.506 428.985 357.031 428.018 357.983C427.05 358.935 426.517 360.203 426.517 361.554C426.517 362.904 427.05 364.172 428.018 365.125C428.986 366.077 430.274 366.602 431.646 366.602C432.612 366.602 433.541 366.341 434.352 365.844L438.301 368.374V371.093C436.121 371.705 434.576 373.692 434.576 375.951C434.576 378.735 436.878 381.001 439.707 381.001C442.536 381.001 444.838 378.735 444.838 375.951C444.838 373.692 443.293 371.705 441.113 371.093V368.374L445.062 365.844C445.873 366.341 446.802 366.602 447.768 366.602C449.14 366.602 450.429 366.077 451.396 365.125C453.397 363.156 453.397 359.952 451.396 357.983C450.428 357.031 449.14 356.506 447.768 356.506ZM449.407 363.168C448.505 364.056 447.036 364.057 446.132 363.171C446.131 363.171 446.13 363.17 446.129 363.169L446.122 363.162C445.224 362.272 445.226 360.829 446.128 359.941C446.565 359.511 447.147 359.274 447.768 359.274C448.388 359.274 448.97 359.511 449.407 359.941C450.311 360.831 450.311 362.278 449.407 363.168V363.168ZM442.025 375.951C442.025 377.209 440.985 378.233 439.707 378.233C438.428 378.233 437.388 377.209 437.388 375.951C437.388 374.692 438.428 373.669 439.707 373.669C440.985 373.669 442.025 374.692 442.025 375.951ZM430.006 363.168C429.569 362.738 429.328 362.164 429.328 361.554C429.328 360.944 429.569 360.371 430.006 359.941C430.443 359.51 431.025 359.273 431.646 359.273C432.266 359.273 432.848 359.51 433.285 359.941C433.723 360.371 433.963 360.944 433.963 361.554C433.963 362.165 433.724 362.733 433.291 363.163L433.28 363.173C432.376 364.057 430.908 364.055 430.007 363.168H430.006Z" fill="white"/>
<path d="M456.658 353.227L454.199 344.031C454.062 343.518 453.631 343.123 453.102 343.023C452.573 342.924 452.025 343.136 451.706 343.562L445.501 351.854C443.67 351.118 441.675 350.73 439.705 350.73C437.737 350.73 435.741 351.118 433.91 351.854L427.707 343.562C427.388 343.136 426.84 342.924 426.311 343.023C425.782 343.123 425.352 343.518 425.215 344.03L422.753 353.227C422.657 353.584 422.708 353.957 422.897 354.277C423.087 354.596 423.391 354.824 423.754 354.918C424.117 355.013 424.496 354.962 424.821 354.776C425.145 354.59 425.377 354.29 425.473 353.932L427.185 347.534L432.322 354.4C432.731 354.947 433.476 355.121 434.092 354.813C437.609 353.066 441.807 353.067 445.323 354.815C445.527 354.916 445.744 354.964 445.959 354.964C446.393 354.964 446.817 354.766 447.09 354.4L452.227 347.534L453.939 353.932C454.101 354.54 454.66 354.964 455.298 354.964C455.419 354.964 455.539 354.948 455.657 354.918C456.02 354.824 456.325 354.596 456.514 354.277C456.703 353.957 456.754 353.584 456.659 353.227L456.658 353.227Z" fill="white"/>
</g>
<path d="M413.375 411H411.755V397H416.775C418.055 397 419.095 397.38 419.875 398.16C420.655 398.92 421.055 399.94 421.055 401.2C421.055 402.46 420.655 403.48 419.835 404.28C419.035 405.06 418.015 405.46 416.775 405.46H413.375V411ZM413.375 398.44V404.02H416.635C418.295 404.02 419.395 402.82 419.395 401.2C419.395 399.58 418.315 398.44 416.635 398.44H413.375ZM421.605 405.82C421.605 404.22 422.085 402.9 423.025 401.88C423.985 400.86 425.205 400.34 426.665 400.34C427.685 400.34 428.625 400.66 429.205 401.12C429.785 401.58 430.105 401.94 430.325 402.28H430.445V400.6H432.025V411C432.025 414.04 430.085 415.86 426.965 415.86C424.485 415.86 422.785 414.54 422.445 412.62H423.945C424.205 413.82 425.365 414.48 426.965 414.48C429.345 414.48 430.505 413.18 430.505 411V409.36H430.385C429.505 410.62 428.305 411.26 426.785 411.26C425.265 411.26 424.025 410.76 423.045 409.74C422.085 408.72 421.605 407.42 421.605 405.82ZM423.225 405.82C423.225 407.04 423.565 408.02 424.225 408.76C424.905 409.48 425.785 409.84 426.885 409.84C427.985 409.84 428.845 409.46 429.505 408.68C430.165 407.9 430.505 406.96 430.505 405.82C430.505 404.58 430.165 403.6 429.465 402.88C428.785 402.14 427.905 401.78 426.845 401.78C425.785 401.78 424.905 402.16 424.225 402.92C423.565 403.66 423.225 404.64 423.225 405.82ZM434.192 404C434.192 399.88 437.252 396.74 441.392 396.74C442.972 396.74 444.352 397.18 445.512 398.04C446.692 398.9 447.512 400.04 447.972 401.48H446.232C445.512 399.42 443.632 398.26 441.392 398.26C438.292 398.26 435.872 400.74 435.872 404C435.812 407.24 438.332 409.8 441.392 409.74C443.632 409.74 445.512 408.6 446.172 406.52H447.972C447.532 407.98 446.712 409.12 445.532 409.98C444.352 410.84 442.972 411.26 441.372 411.26C437.312 411.34 434.132 408.08 434.192 404ZM449.533 405.82C449.533 404.22 450.013 402.9 450.953 401.88C451.913 400.86 453.133 400.34 454.593 400.34C455.613 400.34 456.553 400.66 457.133 401.12C457.713 401.58 458.033 401.94 458.253 402.28H458.373V400.6H459.953V411H458.433V409.36H458.313C457.433 410.62 456.233 411.26 454.713 411.26C453.193 411.26 451.953 410.76 450.973 409.74C450.013 408.72 449.533 407.42 449.533 405.82ZM451.153 405.82C451.153 407.04 451.493 408.02 452.153 408.76C452.833 409.48 453.713 409.84 454.813 409.84C455.913 409.84 456.773 409.46 457.433 408.68C458.093 407.9 458.433 406.96 458.433 405.82C458.433 404.58 458.093 403.6 457.393 402.88C456.713 402.14 455.833 401.78 454.773 401.78C453.713 401.78 452.833 402.16 452.153 402.92C451.493 403.66 451.153 404.64 451.153 405.82ZM463.88 401.94H461.92V400.6H463.48C463.78 400.6 463.98 400.4 463.98 400.08V397.58H465.46V400.6H468.66V401.94H465.46V407.84C465.46 409.02 465.9 409.62 467.08 409.62H468.52V411H466.98C465 411 463.88 409.92 463.88 407.86V401.94Z" fill="white"/>
<rect x="204.853" y="292.707" width="119" height="119" rx="7.5" transform="rotate(45 204.853 292.707)" fill="#0D0D0E"/>
<rect x="204.853" y="292.707" width="119" height="119" rx="7.5" transform="rotate(45 204.853 292.707)" stroke="url(#paint20_linear_35_147)"/>
<path d="M147.993 377H146.373V363H151.393C152.673 363 153.713 363.38 154.493 364.16C155.273 364.92 155.673 365.94 155.673 367.2C155.673 368.46 155.273 369.48 154.453 370.28C153.653 371.06 152.633 371.46 151.393 371.46H147.993V377ZM147.993 364.44V370.02H151.253C152.913 370.02 154.013 368.82 154.013 367.2C154.013 365.58 152.933 364.44 151.253 364.44H147.993ZM156.222 371.8C156.222 370.24 156.742 368.94 157.782 367.9C158.822 366.86 160.122 366.34 161.662 366.34C163.222 366.34 164.522 366.86 165.542 367.9C166.562 368.94 167.082 370.24 167.082 371.8C167.082 373.36 166.562 374.66 165.522 375.7C164.482 376.74 163.182 377.26 161.642 377.26C158.582 377.32 156.162 374.92 156.222 371.8ZM157.842 371.8C157.842 372.98 158.202 373.94 158.902 374.7C159.622 375.44 160.542 375.82 161.642 375.82C162.742 375.82 163.662 375.44 164.382 374.7C165.102 373.94 165.462 372.98 165.462 371.8C165.462 370.64 165.102 369.68 164.382 368.92C163.662 368.16 162.742 367.78 161.642 367.78C160.542 367.78 159.622 368.16 158.902 368.94C158.202 369.7 157.842 370.66 157.842 371.8ZM168.834 373.98H170.374C170.554 375.24 171.434 375.88 172.954 375.88C174.474 375.88 175.374 375.16 175.374 374.06C175.374 371.16 169.154 373.34 169.154 369.24C169.154 368.36 169.514 367.66 170.214 367.14C170.914 366.6 171.814 366.34 172.914 366.34C173.894 366.34 174.734 366.62 175.434 367.16C176.134 367.7 176.514 368.42 176.594 369.34H175.074C174.934 368.32 174.154 367.7 172.814 367.7C171.514 367.7 170.674 368.34 170.674 369.24C170.674 371.88 176.914 369.7 176.914 373.98C176.914 374.96 176.534 375.76 175.794 376.36C175.054 376.96 174.094 377.26 172.874 377.26C170.474 377.26 169.014 375.98 168.834 373.98ZM180.54 367.94H178.58V366.6H180.14C180.44 366.6 180.64 366.4 180.64 366.08V363.58H182.12V366.6H185.32V367.94H182.12V373.84C182.12 375.02 182.56 375.62 183.74 375.62H185.18V377H183.64C181.66 377 180.54 375.92 180.54 373.86V367.94ZM186.875 371.82C186.875 370.22 187.355 368.9 188.295 367.88C189.255 366.86 190.475 366.34 191.935 366.34C192.955 366.34 193.895 366.66 194.475 367.12C195.055 367.58 195.375 367.94 195.595 368.28H195.715V366.6H197.295V377C197.295 380.04 195.355 381.86 192.235 381.86C189.755 381.86 188.055 380.54 187.715 378.62H189.215C189.475 379.82 190.635 380.48 192.235 380.48C194.615 380.48 195.775 379.18 195.775 377V375.36H195.655C194.775 376.62 193.575 377.26 192.055 377.26C190.535 377.26 189.295 376.76 188.315 375.74C187.355 374.72 186.875 373.42 186.875 371.82ZM188.495 371.82C188.495 373.04 188.835 374.02 189.495 374.76C190.175 375.48 191.055 375.84 192.155 375.84C193.255 375.84 194.115 375.46 194.775 374.68C195.435 373.9 195.775 372.96 195.775 371.82C195.775 370.58 195.435 369.6 194.735 368.88C194.055 368.14 193.175 367.78 192.115 367.78C191.055 367.78 190.175 368.16 189.495 368.92C188.835 369.66 188.495 370.64 188.495 371.82ZM201.842 377H200.262V366.6H201.822V368.54H201.942C202.122 368.04 202.462 367.6 202.962 367.2C203.462 366.8 204.082 366.6 204.782 366.6H205.662V368.18H204.802C202.942 368.18 201.842 369.58 201.842 371.64V377ZM206.21 371.8C206.21 368.48 208.49 366.34 211.31 366.34C214.41 366.32 216.41 368.7 216.35 371.66V372.36H207.87C207.95 374.46 209.29 375.82 211.43 375.82C212.87 375.82 214.15 375.14 214.61 373.94H216.25C215.67 375.92 213.81 377.26 211.41 377.26C208.25 377.26 206.21 374.92 206.21 371.8ZM207.91 370.96H214.67C214.53 368.96 213.15 367.78 211.31 367.78C210.41 367.78 209.65 368.08 208.99 368.66C208.35 369.24 207.99 370.02 207.91 370.96ZM218.118 373.98H219.658C219.838 375.24 220.718 375.88 222.238 375.88C223.758 375.88 224.658 375.16 224.658 374.06C224.658 371.16 218.438 373.34 218.438 369.24C218.438 368.36 218.798 367.66 219.498 367.14C220.198 366.6 221.098 366.34 222.198 366.34C223.178 366.34 224.018 366.62 224.718 367.16C225.418 367.7 225.798 368.42 225.878 369.34H224.358C224.218 368.32 223.438 367.7 222.098 367.7C220.798 367.7 219.958 368.34 219.958 369.24C219.958 371.88 226.198 369.7 226.198 373.98C226.198 374.96 225.818 375.76 225.078 376.36C224.338 376.96 223.378 377.26 222.158 377.26C219.758 377.26 218.298 375.98 218.118 373.98ZM227.964 372.84H229.584C229.584 373.66 229.904 374.36 230.524 374.92C231.144 375.48 231.984 375.76 233.024 375.76C234.884 375.76 236.184 374.84 236.184 373.4C236.184 369 228.444 372.08 228.444 366.48C228.444 365.44 228.844 364.56 229.664 363.84C230.484 363.1 231.564 362.74 232.924 362.74C235.024 362.74 237.524 363.92 237.524 366.8H235.864C235.864 365.2 234.804 364.22 232.904 364.22C231.044 364.22 230.064 365.22 230.064 366.48C230.064 370.3 237.824 367.64 237.824 373.3C237.824 374.44 237.384 375.38 236.504 376.14C235.624 376.88 234.444 377.26 232.964 377.26C230.224 377.34 227.924 375.38 227.964 372.84ZM239.382 370C239.382 365.88 242.462 362.74 246.622 362.74C250.802 362.74 253.862 365.9 253.862 370C253.862 371.94 253.182 373.68 251.982 374.98L253.622 377H251.722L250.862 375.96C249.602 376.82 248.182 377.26 246.602 377.26C242.442 377.26 239.382 374.14 239.382 370ZM241.062 370C241.062 373.32 243.442 375.74 246.622 375.74C247.882 375.74 248.962 375.4 249.862 374.74L246.842 371.04H248.762L250.942 373.72C251.762 372.68 252.182 371.44 252.182 370C252.182 366.74 249.802 364.26 246.622 364.26C243.442 364.26 241.062 366.74 241.062 370ZM264.086 377H256.426V363H258.046V375.54H264.086V377ZM172.452 400C172.452 395.88 175.512 392.74 179.652 392.74C181.232 392.74 182.612 393.18 183.772 394.04C184.952 394.9 185.772 396.04 186.232 397.48H184.492C183.772 395.42 181.892 394.26 179.652 394.26C176.552 394.26 174.132 396.74 174.132 400C174.072 403.24 176.592 405.8 179.652 405.74C181.892 405.74 183.772 404.6 184.432 402.52H186.232C185.792 403.98 184.972 405.12 183.792 405.98C182.612 406.84 181.232 407.26 179.632 407.26C175.572 407.34 172.392 404.08 172.452 400ZM188.594 404.78V392H190.174V404.78C190.174 405.32 190.434 405.6 190.934 405.6H191.414V407H190.654C189.354 407 188.594 406.2 188.594 404.78ZM192.834 393.56C192.834 392.92 193.314 392.42 193.974 392.42C194.634 392.42 195.134 392.92 195.134 393.56C195.134 394.22 194.634 394.72 193.974 394.72C193.314 394.72 192.834 394.22 192.834 393.56ZM194.734 407H193.154V396.6H194.734V407ZM196.894 401.8C196.894 398.48 199.174 396.34 201.994 396.34C205.094 396.32 207.094 398.7 207.034 401.66V402.36H198.554C198.634 404.46 199.974 405.82 202.114 405.82C203.554 405.82 204.834 405.14 205.294 403.94H206.934C206.354 405.92 204.494 407.26 202.094 407.26C198.934 407.26 196.894 404.92 196.894 401.8ZM198.594 400.96H205.354C205.214 398.96 203.834 397.78 201.994 397.78C201.094 397.78 200.334 398.08 199.674 398.66C199.034 399.24 198.674 400.02 198.594 400.96ZM210.982 407H209.402V396.6H210.982V398.12H211.102C211.562 397.1 212.742 396.34 214.282 396.34C215.462 396.34 216.402 396.74 217.102 397.52C217.802 398.3 218.162 399.28 218.162 400.46V407H216.582V400.56C216.582 399.74 216.322 399.08 215.802 398.58C215.282 398.08 214.642 397.82 213.902 397.82C213.082 397.82 212.382 398.1 211.822 398.68C211.262 399.24 210.982 399.94 210.982 400.8V407ZM222.09 397.94H220.13V396.6H221.69C221.99 396.6 222.19 396.4 222.19 396.08V393.58H223.67V396.6H226.87V397.94H223.67V403.84C223.67 405.02 224.11 405.62 225.29 405.62H226.73V407H225.19C223.21 407 222.09 405.92 222.09 403.86V397.94ZM228.626 403.98H230.166C230.346 405.24 231.226 405.88 232.746 405.88C234.266 405.88 235.166 405.16 235.166 404.06C235.166 401.16 228.946 403.34 228.946 399.24C228.946 398.36 229.306 397.66 230.006 397.14C230.706 396.6 231.606 396.34 232.706 396.34C233.686 396.34 234.526 396.62 235.226 397.16C235.926 397.7 236.306 398.42 236.386 399.34H234.866C234.726 398.32 233.946 397.7 232.606 397.7C231.306 397.7 230.466 398.34 230.466 399.24C230.466 401.88 236.706 399.7 236.706 403.98C236.706 404.96 236.326 405.76 235.586 406.36C234.846 406.96 233.886 407.26 232.666 407.26C230.266 407.26 228.806 405.98 228.626 403.98Z" fill="white"/>
<defs>
<filter id="filter0_f_35_147" x="579.498" y="366" width="22" height="22" filterUnits="userSpaceOnUse" color-interpolation-filters="sRGB">
<feFlood flood-opacity="0" result="BackgroundImageFix"/>
<feBlend mode="normal" in="SourceGraphic" in2="BackgroundImageFix" result="shape"/>
<feGaussianBlur stdDeviation="2" result="effect1_foregroundBlur_35_147"/>
</filter>
<filter id="filter1_f_35_147" x="579.498" y="589" width="22" height="22" filterUnits="userSpaceOnUse" color-interpolation-filters="sRGB">
<feFlood flood-opacity="0" result="BackgroundImageFix"/>
<feBlend mode="normal" in="SourceGraphic" in2="BackgroundImageFix" result="shape"/>
<feGaussianBlur stdDeviation="2" result="effect1_foregroundBlur_35_147"/>
</filter>
<filter id="filter2_f_35_147" x="579.498" y="153" width="22" height="22" filterUnits="userSpaceOnUse" color-interpolation-filters="sRGB">
<feFlood flood-opacity="0" result="BackgroundImageFix"/>
<feBlend mode="normal" in="SourceGraphic" in2="BackgroundImageFix" result="shape"/>
<feGaussianBlur stdDeviation="2" result="effect1_foregroundBlur_35_147"/>
</filter>
<filter id="filter3_f_35_147" x="369.353" y="366" width="22" height="22" filterUnits="userSpaceOnUse" color-interpolation-filters="sRGB">
<feFlood flood-opacity="0" result="BackgroundImageFix"/>
<feBlend mode="normal" in="SourceGraphic" in2="BackgroundImageFix" result="shape"/>
<feGaussianBlur stdDeviation="2" result="effect1_foregroundBlur_35_147"/>
</filter>
<linearGradient id="paint0_linear_35_147" x1="543.998" y1="546.992" x2="590.998" y2="546.992" gradientUnits="userSpaceOnUse">
<stop stop-color="#2CB9C4"/>
<stop offset="1" stop-color="#ABACB0"/>
</linearGradient>
<linearGradient id="paint1_linear_35_147" x1="543.998" y1="214.631" x2="590.998" y2="214.631" gradientUnits="userSpaceOnUse">
<stop stop-color="#2CB9C4"/>
<stop offset="1" stop-color="#ABACB0"/>
</linearGradient>
<linearGradient id="paint2_linear_35_147" x1="589.998" y1="377" x2="499.946" y2="377" gradientUnits="userSpaceOnUse">
<stop stop-color="#ABACB0"/>
<stop offset="1" stop-color="#19D58D"/>
</linearGradient>
<linearGradient id="paint3_linear_35_147" x1="589.706" y1="694" x2="751.425" y2="410.131" gradientUnits="userSpaceOnUse">
<stop stop-color="#5337FF"/>
<stop offset="1" stop-color="#A175FF"/>
</linearGradient>
<linearGradient id="paint4_linear_35_147" x1="739.706" y1="555" x2="631.207" y2="674.448" gradientUnits="userSpaceOnUse">
<stop offset="0.229272" stop-color="#FFB444"/>
<stop offset="1" stop-color="#FF6644"/>
</linearGradient>
<linearGradient id="paint5_linear_35_147" x1="739.706" y1="536" x2="717.832" y2="605.073" gradientUnits="userSpaceOnUse">
<stop offset="0.229272" stop-color="#FFB444"/>
<stop offset="1" stop-color="#FF6644"/>
</linearGradient>
<linearGradient id="paint6_linear_35_147" x1="769.706" y1="664" x2="878.204" y2="544.552" gradientUnits="userSpaceOnUse">
<stop stop-color="#5337FF"/>
<stop offset="1" stop-color="#A175FF"/>
</linearGradient>
<linearGradient id="paint7_linear_35_147" x1="769.706" y1="574" x2="791.579" y2="504.927" gradientUnits="userSpaceOnUse">
<stop stop-color="#5337FF"/>
<stop offset="1" stop-color="#A175FF"/>
</linearGradient>
<linearGradient id="paint8_linear_35_147" x1="589.706" y1="476" x2="751.425" y2="192.131" gradientUnits="userSpaceOnUse">
<stop stop-color="#5337FF"/>
<stop offset="1" stop-color="#A175FF"/>
</linearGradient>
<linearGradient id="paint9_linear_35_147" x1="889.998" y1="337" x2="781.5" y2="456.448" gradientUnits="userSpaceOnUse">
<stop offset="0.229272" stop-color="#FFB444"/>
<stop offset="1" stop-color="#FF6644"/>
</linearGradient>
<linearGradient id="paint10_linear_35_147" x1="889.998" y1="318" x2="868.125" y2="387.073" gradientUnits="userSpaceOnUse">
<stop offset="0.229272" stop-color="#FFB444"/>
<stop offset="1" stop-color="#FF6644"/>
</linearGradient>
<linearGradient id="paint11_linear_35_147" x1="619.998" y1="446" x2="728.496" y2="326.552" gradientUnits="userSpaceOnUse">
<stop stop-color="#5337FF"/>
<stop offset="1" stop-color="#A175FF"/>
</linearGradient>
<linearGradient id="paint12_linear_35_147" x1="619.998" y1="356" x2="641.871" y2="286.927" gradientUnits="userSpaceOnUse">
<stop stop-color="#5337FF"/>
<stop offset="1" stop-color="#A175FF"/>
</linearGradient>
<linearGradient id="paint13_linear_35_147" x1="589.706" y1="258" x2="751.425" y2="-25.869" gradientUnits="userSpaceOnUse">
<stop stop-color="#5337FF"/>
<stop offset="1" stop-color="#A175FF"/>
</linearGradient>
<linearGradient id="paint14_linear_35_147" x1="739.706" y1="119" x2="631.207" y2="238.448" gradientUnits="userSpaceOnUse">
<stop offset="0.229272" stop-color="#FFB444"/>
<stop offset="1" stop-color="#FF6644"/>
</linearGradient>
<linearGradient id="paint15_linear_35_147" x1="739.706" y1="100" x2="717.832" y2="169.073" gradientUnits="userSpaceOnUse">
<stop offset="0.229272" stop-color="#FFB444"/>
<stop offset="1" stop-color="#FF6644"/>
</linearGradient>
<linearGradient id="paint16_linear_35_147" x1="769.706" y1="228" x2="878.204" y2="108.552" gradientUnits="userSpaceOnUse">
<stop stop-color="#5337FF"/>
<stop offset="1" stop-color="#A175FF"/>
</linearGradient>
<linearGradient id="paint17_linear_35_147" x1="769.706" y1="138" x2="791.579" y2="68.9265" gradientUnits="userSpaceOnUse">
<stop stop-color="#5337FF"/>
<stop offset="1" stop-color="#A175FF"/>
</linearGradient>
<linearGradient id="paint18_linear_35_147" x1="379.853" y1="377" x2="286.832" y2="377" gradientUnits="userSpaceOnUse">
<stop stop-color="#19D58D"/>
<stop offset="1" stop-color="#3FDBFF"/>
</linearGradient>
<linearGradient id="paint19_linear_35_147" x1="387.353" y1="370" x2="373.353" y2="384" gradientUnits="userSpaceOnUse">
<stop stop-color="#44FFDD"/>
<stop offset="1" stop-color="#05C168"/>
</linearGradient>
<linearGradient id="paint20_linear_35_147" x1="324.853" y1="292" x2="204.853" y2="412" gradientUnits="userSpaceOnUse">
<stop stop-color="#3EDCFF"/>
<stop offset="1" stop-color="#3E9AFF"/>
</linearGradient>
<clipPath id="clip0_35_147">
<rect width="34" height="38" fill="white" transform="translate(422.706 343)"/>
</clipPath>
</defs>
</svg>
