<svg width="1463" height="705" viewBox="0 0 1463 705" fill="none" xmlns="http://www.w3.org/2000/svg">
<rect width="1463" height="705" rx="40" fill="#0D0D0E"/>
<rect x="60.5" y="54.25" width="1012" height="590" rx="9.5" fill="url(#paint0_linear_9_270)" fill-opacity="0.1" stroke="#ABACB0"/>
<path d="M435.992 92.162L429.188 80.15H434.032L438.036 87.682H438.288L442.264 80.15H447.164L440.444 92.134V99.75H435.992V92.162ZM442.957 92.358C442.957 87.99 446.177 84.602 450.937 84.602C453.261 84.602 455.165 85.358 456.649 86.842C458.133 88.326 458.889 90.146 458.889 92.358C458.889 96.726 455.641 100.114 450.909 100.114C446.205 100.114 442.957 96.67 442.957 92.358ZM447.353 92.358C447.353 94.598 448.865 96.194 450.909 96.194C452.953 96.194 454.493 94.598 454.493 92.358C454.493 90.118 452.953 88.522 450.909 88.522C448.865 88.522 447.353 90.118 447.353 92.358ZM461.651 94.822V84.966H465.991V93.478C465.991 95.046 466.915 96.082 468.371 96.082C469.855 96.082 470.891 94.85 470.891 93.254V84.966H475.231V99.75H471.115V98.126H470.891C470.247 99.218 468.819 100.114 466.943 100.114C465.347 100.114 464.059 99.638 463.079 98.658C462.127 97.678 461.651 96.39 461.651 94.822ZM482.973 99.75H478.633V84.966H482.721V87.206H482.945C483.533 85.946 484.933 84.854 486.753 84.854H488.181V88.942H486.473C484.345 88.942 482.973 90.482 482.973 93.03V99.75ZM497.538 89.95C497.426 84.266 501.85 79.702 507.842 79.786C513.05 79.786 516.858 83.146 517.586 87.43H512.77C512.21 85.442 510.306 84.042 507.842 84.042C506.162 84.042 504.79 84.602 503.726 85.722C502.662 86.842 502.13 88.242 502.13 89.95C502.13 91.658 502.662 93.086 503.726 94.206C504.79 95.298 506.162 95.858 507.842 95.858C510.306 95.858 512.182 94.486 512.938 92.554H517.782C517.362 94.766 516.242 96.558 514.422 97.986C512.602 99.414 510.418 100.114 507.842 100.114C501.85 100.198 497.426 95.662 497.538 89.95ZM520.715 95.102V78.75H525.055V94.598C525.055 95.494 525.475 95.942 526.287 95.942H526.819V99.75H525.335C522.395 99.75 520.715 98.014 520.715 95.102ZM528.16 92.358C528.16 87.99 531.38 84.602 536.14 84.602C538.464 84.602 540.368 85.358 541.852 86.842C543.336 88.326 544.092 90.146 544.092 92.358C544.092 96.726 540.844 100.114 536.112 100.114C531.408 100.114 528.16 96.67 528.16 92.358ZM532.556 92.358C532.556 94.598 534.068 96.194 536.112 96.194C538.156 96.194 539.696 94.598 539.696 92.358C539.696 90.118 538.156 88.522 536.112 88.522C534.068 88.522 532.556 90.118 532.556 92.358ZM546.854 94.822V84.966H551.194V93.478C551.194 95.046 552.118 96.082 553.574 96.082C555.058 96.082 556.094 94.85 556.094 93.254V84.966H560.434V99.75H556.318V98.126H556.094C555.45 99.218 554.022 100.114 552.146 100.114C550.55 100.114 549.262 99.638 548.282 98.658C547.33 97.678 546.854 96.39 546.854 94.822ZM562.996 92.442C562.996 90.118 563.612 88.214 564.844 86.786C566.104 85.33 567.728 84.602 569.716 84.602C571.76 84.602 573.216 85.61 573.888 86.646H574.112V78.75H578.452V99.75H574.14V98.07H573.916C573.468 98.77 572.264 100.114 569.828 100.114C567.784 100.114 566.132 99.414 564.872 98.014C563.612 96.614 562.996 94.766 562.996 92.442ZM567.392 92.358C567.392 94.626 568.764 96.194 570.808 96.194C572.852 96.194 574.196 94.57 574.196 92.358C574.196 90.034 572.796 88.522 570.78 88.522C568.764 88.522 567.392 90.09 567.392 92.358ZM591.908 99.75H587.372L594.036 80.15H599.692L606.44 99.75H601.736L600.56 96.278H593.056L591.908 99.75ZM596.696 85.022L594.26 92.33H599.356L596.948 85.022H596.696ZM606.446 92.358C606.361 88.046 609.582 84.574 614.258 84.602C616.302 84.602 617.982 85.162 619.354 86.31C620.726 87.43 621.538 88.886 621.734 90.706H617.338C616.918 89.39 615.77 88.522 614.286 88.522C612.186 88.522 610.842 90.146 610.842 92.358C610.842 94.57 612.214 96.194 614.314 96.194C615.742 96.194 616.918 95.382 617.282 94.178H621.706C621.454 95.942 620.67 97.398 619.326 98.49C617.982 99.582 616.302 100.114 614.286 100.114C609.61 100.17 606.361 96.614 606.446 92.358ZM623.781 92.358C623.697 88.046 626.917 84.574 631.593 84.602C633.637 84.602 635.317 85.162 636.689 86.31C638.061 87.43 638.873 88.886 639.069 90.706H634.673C634.253 89.39 633.105 88.522 631.621 88.522C629.521 88.522 628.177 90.146 628.177 92.358C628.177 94.57 629.549 96.194 631.649 96.194C633.077 96.194 634.253 95.382 634.617 94.178H639.041C638.789 95.942 638.005 97.398 636.661 98.49C635.317 99.582 633.637 100.114 631.621 100.114C626.945 100.17 623.697 96.614 623.781 92.358ZM641.117 92.358C641.117 87.99 644.337 84.602 649.097 84.602C651.421 84.602 653.325 85.358 654.809 86.842C656.293 88.326 657.049 90.146 657.049 92.358C657.049 96.726 653.801 100.114 649.069 100.114C644.365 100.114 641.117 96.67 641.117 92.358ZM645.513 92.358C645.513 94.598 647.025 96.194 649.069 96.194C651.113 96.194 652.653 94.598 652.653 92.358C652.653 90.118 651.113 88.522 649.069 88.522C647.025 88.522 645.513 90.118 645.513 92.358ZM659.811 94.822V84.966H664.151V93.478C664.151 95.046 665.075 96.082 666.531 96.082C668.015 96.082 669.051 94.85 669.051 93.254V84.966H673.391V99.75H669.275V98.126H669.051C668.407 99.218 666.979 100.114 665.103 100.114C663.507 100.114 662.219 99.638 661.239 98.658C660.287 97.678 659.811 96.39 659.811 94.822ZM681.133 99.75H676.793V84.966H680.881V86.59H681.105C681.749 85.47 683.205 84.602 685.081 84.602C686.677 84.602 687.965 85.106 688.917 86.086C689.897 87.066 690.373 88.326 690.373 89.894V99.75H686.033V91.238C686.033 89.67 685.109 88.634 683.653 88.634C682.169 88.634 681.133 89.866 681.133 91.462V99.75ZM695.15 88.354H692.77V84.994H694.17C694.926 84.994 695.374 84.462 695.374 83.678V80.962H699.49V84.966H703.354V88.354H699.49V94.402C699.49 95.522 700.162 96.166 701.394 96.166H703.298V99.75H700.302C697.054 99.75 695.15 97.874 695.15 94.626V88.354Z" fill="white"/>
<rect x="450.5" y="122.25" width="577" height="477" rx="9.5" fill="#0D0D0E" stroke="#ABACB0"/>
<rect x="450.5" y="122.25" width="577" height="477" rx="9.5" fill="url(#paint1_linear_9_270)" fill-opacity="0.1" stroke="#ABACB0"/>
<path d="M720.074 161.75L713.882 144.95H718.106L721.97 156.614H722.162L726.05 144.95H730.226L723.986 161.75H720.074ZM735.987 161.75H732.195V144.95H738.699C740.379 144.95 741.771 145.478 742.875 146.534C744.003 147.566 744.555 148.91 744.555 150.566C744.555 153.878 741.915 156.23 738.699 156.23H735.987V161.75ZM735.987 148.19V153.014H738.315C739.683 153.014 740.691 152.03 740.691 150.566C740.691 149.126 739.731 148.19 738.315 148.19H735.987ZM746.148 153.35C746.052 148.478 749.844 144.566 754.98 144.638C759.444 144.638 762.708 147.518 763.332 151.19H759.204C758.724 149.486 757.092 148.286 754.98 148.286C753.54 148.286 752.364 148.766 751.452 149.726C750.54 150.686 750.084 151.886 750.084 153.35C750.084 154.814 750.54 156.038 751.452 156.998C752.364 157.934 753.54 158.414 754.98 158.414C757.092 158.414 758.7 157.238 759.348 155.582H763.5C763.14 157.478 762.18 159.014 760.62 160.238C759.06 161.462 757.188 162.062 754.98 162.062C749.844 162.134 746.052 158.246 746.148 153.35Z" fill="white"/>
<rect x="799.5" y="477.25" width="127" height="77" rx="7.5" fill="#0D0D0E"/>
<rect x="799.5" y="477.25" width="127" height="77" rx="7.5" stroke="#2C6FA4"/>
<path d="M829.277 522.75H824.357V508.75H828.877C830.177 508.75 831.217 509.09 831.977 509.75C832.737 510.41 833.117 511.27 833.117 512.33C833.117 513.69 832.477 514.73 831.337 515.35V515.47C832.297 515.81 833.597 516.79 833.597 518.77C833.597 521.27 831.637 522.75 829.277 522.75ZM825.957 516.17V521.33H828.997C830.737 521.33 831.917 520.43 831.917 518.73C831.917 516.99 830.597 516.17 828.817 516.17H825.957ZM825.957 510.19V514.81H828.817C830.397 514.81 831.457 513.87 831.457 512.45C831.457 511.09 830.397 510.19 828.877 510.19H825.957ZM835.163 517.57C835.163 515.97 835.643 514.65 836.583 513.63C837.543 512.61 838.763 512.09 840.223 512.09C841.243 512.09 842.183 512.41 842.763 512.87C843.343 513.33 843.663 513.69 843.883 514.03H844.003V512.35H845.583V522.75H844.063V521.11H843.943C843.063 522.37 841.863 523.01 840.343 523.01C838.823 523.01 837.583 522.51 836.603 521.49C835.643 520.47 835.163 519.17 835.163 517.57ZM836.783 517.57C836.783 518.79 837.123 519.77 837.783 520.51C838.463 521.23 839.343 521.59 840.443 521.59C841.543 521.59 842.403 521.21 843.063 520.43C843.723 519.65 844.063 518.71 844.063 517.57C844.063 516.33 843.723 515.35 843.023 514.63C842.343 513.89 841.463 513.53 840.403 513.53C839.343 513.53 838.463 513.91 837.783 514.67C837.123 515.41 836.783 516.39 836.783 517.57ZM853.071 512.09C854.231 512.09 855.271 512.43 856.191 513.09C857.131 513.75 857.731 514.63 857.991 515.77H856.351C855.931 514.41 854.631 513.53 853.111 513.53C852.011 513.53 851.131 513.91 850.431 514.69C849.731 515.45 849.391 516.41 849.391 517.55C849.391 518.73 849.751 519.69 850.451 520.45C851.151 521.19 852.051 521.57 853.151 521.57C854.671 521.57 855.991 520.67 856.391 519.33H858.011C857.751 520.47 857.151 521.37 856.211 522.03C855.291 522.69 854.251 523.01 853.091 523.01C850.011 523.07 847.691 520.57 847.751 517.55C847.691 514.53 850.091 512.03 853.071 512.09ZM861.956 522.75H860.376V507.75H861.956V517.25H862.076L866.536 512.35H868.536L864.756 516.39L868.796 522.75H866.996L863.696 517.55L861.956 519.41V522.75ZM870.361 518.89V512.35H871.941V518.83C871.941 519.65 872.201 520.31 872.721 520.81C873.241 521.31 873.881 521.57 874.621 521.57C875.441 521.57 876.141 521.29 876.701 520.73C877.261 520.15 877.541 519.45 877.541 518.59V512.35H879.121V522.75H877.541V521.23H877.421C876.961 522.25 875.781 523.01 874.241 523.01C873.061 523.01 872.121 522.63 871.421 521.85C870.721 521.07 870.361 520.07 870.361 518.89ZM883.654 527.35H882.074V512.35H883.594V513.99H883.714C883.874 513.75 883.974 513.57 884.434 513.17C885.054 512.61 885.934 512.09 887.314 512.09C888.834 512.09 890.074 512.59 891.034 513.61C892.014 514.63 892.494 515.93 892.494 517.53C892.494 519.13 892.014 520.45 891.054 521.47C890.114 522.49 888.894 523.01 887.434 523.01C886.414 523.01 885.494 522.69 884.874 522.23C884.294 521.77 883.994 521.41 883.774 521.07H883.654V527.35ZM883.594 517.53C883.594 518.77 883.934 519.75 884.634 520.49C885.334 521.21 886.194 521.57 887.254 521.57C888.314 521.57 889.194 521.19 889.854 520.45C890.534 519.69 890.874 518.71 890.874 517.53C890.874 516.31 890.534 515.33 889.854 514.61C889.194 513.87 888.314 513.51 887.214 513.51C886.114 513.51 885.234 513.89 884.574 514.67C883.914 515.45 883.594 516.39 883.594 517.53ZM894.257 519.73H895.797C895.977 520.99 896.857 521.63 898.377 521.63C899.897 521.63 900.797 520.91 900.797 519.81C900.797 516.91 894.577 519.09 894.577 514.99C894.577 514.11 894.937 513.41 895.637 512.89C896.337 512.35 897.237 512.09 898.337 512.09C899.317 512.09 900.157 512.37 900.857 512.91C901.557 513.45 901.937 514.17 902.017 515.09H900.497C900.357 514.07 899.577 513.45 898.237 513.45C896.937 513.45 896.097 514.09 896.097 514.99C896.097 517.63 902.337 515.45 902.337 519.73C902.337 520.71 901.957 521.51 901.217 522.11C900.477 522.71 899.517 523.01 898.297 523.01C895.897 523.01 894.437 521.73 894.257 519.73Z" fill="white"/>
<rect x="495.5" y="477.25" width="127" height="77" rx="7.5" fill="#0D0D0E"/>
<rect x="495.5" y="477.25" width="127" height="77" rx="7.5" stroke="#158A5E"/>
<path d="M537.854 522.75H536.154L541.554 508.75H543.454L548.834 522.75H547.134L545.874 519.43H539.114L537.854 522.75ZM542.434 510.63L539.674 517.95H545.314L542.554 510.63H542.434ZM552.35 522.75H550.79V508.75H552.57L557.99 520.97H558.11L563.13 508.75H564.91V522.75H563.35V512.31H563.23L558.97 522.75H557.13L552.47 512.31H552.35V522.75ZM570.095 522.75H568.475V508.75H570.095V522.75ZM572.86 519.73H574.4C574.58 520.99 575.46 521.63 576.98 521.63C578.5 521.63 579.4 520.91 579.4 519.81C579.4 516.91 573.18 519.09 573.18 514.99C573.18 514.11 573.54 513.41 574.24 512.89C574.94 512.35 575.84 512.09 576.94 512.09C577.92 512.09 578.76 512.37 579.46 512.91C580.16 513.45 580.54 514.17 580.62 515.09H579.1C578.96 514.07 578.18 513.45 576.84 513.45C575.54 513.45 574.7 514.09 574.7 514.99C574.7 517.63 580.94 515.45 580.94 519.73C580.94 520.71 580.56 521.51 579.82 522.11C579.08 522.71 578.12 523.01 576.9 523.01C574.5 523.01 573.04 521.73 572.86 519.73Z" fill="white"/>
<path d="M1182 308.25H983" stroke="url(#paint2_linear_9_270)" stroke-linecap="round"/>
<g filter="url(#filter0_f_9_270)">
<ellipse cx="1182.5" cy="308.25" rx="7" ry="7.5" transform="rotate(-180 1182.5 308.25)" fill="#FFC845"/>
</g>
<path d="M1198 375.736C1178.58 375.206 1163 359.297 1163 339.75C1163 319.868 1179.12 303.75 1199 303.75C1200.38 303.75 1201.74 303.827 1203.08 303.978C1204.78 267.666 1234.77 238.75 1271.5 238.75C1298.61 238.75 1322.04 254.5 1333.15 277.348C1338.98 275.027 1345.34 273.75 1352 273.75C1380.17 273.75 1403 296.583 1403 324.75C1403 352.917 1380.17 375.75 1352 375.75H1198L1198 375.736Z" fill="#0D0D0E" stroke="url(#paint3_linear_9_270)"/>
<path d="M1231.6 311.75H1229.98V297.75H1235C1236.28 297.75 1237.32 298.13 1238.1 298.91C1238.88 299.67 1239.28 300.69 1239.28 301.95C1239.28 303.21 1238.88 304.23 1238.06 305.03C1237.26 305.81 1236.24 306.21 1235 306.21H1231.6V311.75ZM1231.6 299.19V304.77H1234.86C1236.52 304.77 1237.62 303.57 1237.62 301.95C1237.62 300.33 1236.54 299.19 1234.86 299.19H1231.6ZM1239.83 306.55C1239.83 304.99 1240.35 303.69 1241.39 302.65C1242.43 301.61 1243.73 301.09 1245.27 301.09C1246.83 301.09 1248.13 301.61 1249.15 302.65C1250.17 303.69 1250.69 304.99 1250.69 306.55C1250.69 308.11 1250.17 309.41 1249.13 310.45C1248.09 311.49 1246.79 312.01 1245.25 312.01C1242.19 312.07 1239.77 309.67 1239.83 306.55ZM1241.45 306.55C1241.45 307.73 1241.81 308.69 1242.51 309.45C1243.23 310.19 1244.15 310.57 1245.25 310.57C1246.35 310.57 1247.27 310.19 1247.99 309.45C1248.71 308.69 1249.07 307.73 1249.07 306.55C1249.07 305.39 1248.71 304.43 1247.99 303.67C1247.27 302.91 1246.35 302.53 1245.25 302.53C1244.15 302.53 1243.23 302.91 1242.51 303.69C1241.81 304.45 1241.45 305.41 1241.45 306.55ZM1252.44 308.73H1253.98C1254.16 309.99 1255.04 310.63 1256.56 310.63C1258.08 310.63 1258.98 309.91 1258.98 308.81C1258.98 305.91 1252.76 308.09 1252.76 303.99C1252.76 303.11 1253.12 302.41 1253.82 301.89C1254.52 301.35 1255.42 301.09 1256.52 301.09C1257.5 301.09 1258.34 301.37 1259.04 301.91C1259.74 302.45 1260.12 303.17 1260.2 304.09H1258.68C1258.54 303.07 1257.76 302.45 1256.42 302.45C1255.12 302.45 1254.28 303.09 1254.28 303.99C1254.28 306.63 1260.52 304.45 1260.52 308.73C1260.52 309.71 1260.14 310.51 1259.4 311.11C1258.66 311.71 1257.7 312.01 1256.48 312.01C1254.08 312.01 1252.62 310.73 1252.44 308.73ZM1264.15 302.69H1262.19V301.35H1263.75C1264.05 301.35 1264.25 301.15 1264.25 300.83V298.33H1265.73V301.35H1268.93V302.69H1265.73V308.59C1265.73 309.77 1266.17 310.37 1267.35 310.37H1268.79V311.75H1267.25C1265.27 311.75 1264.15 310.67 1264.15 308.61V302.69ZM1270.48 306.57C1270.48 304.97 1270.96 303.65 1271.9 302.63C1272.86 301.61 1274.08 301.09 1275.54 301.09C1276.56 301.09 1277.5 301.41 1278.08 301.87C1278.66 302.33 1278.98 302.69 1279.2 303.03H1279.32V301.35H1280.9V311.75C1280.9 314.79 1278.96 316.61 1275.84 316.61C1273.36 316.61 1271.66 315.29 1271.32 313.37H1272.82C1273.08 314.57 1274.24 315.23 1275.84 315.23C1278.22 315.23 1279.38 313.93 1279.38 311.75V310.11H1279.26C1278.38 311.37 1277.18 312.01 1275.66 312.01C1274.14 312.01 1272.9 311.51 1271.92 310.49C1270.96 309.47 1270.48 308.17 1270.48 306.57ZM1272.1 306.57C1272.1 307.79 1272.44 308.77 1273.1 309.51C1273.78 310.23 1274.66 310.59 1275.76 310.59C1276.86 310.59 1277.72 310.21 1278.38 309.43C1279.04 308.65 1279.38 307.71 1279.38 306.57C1279.38 305.33 1279.04 304.35 1278.34 303.63C1277.66 302.89 1276.78 302.53 1275.72 302.53C1274.66 302.53 1273.78 302.91 1273.1 303.67C1272.44 304.41 1272.1 305.39 1272.1 306.57ZM1285.45 311.75H1283.87V301.35H1285.43V303.29H1285.55C1285.73 302.79 1286.07 302.35 1286.57 301.95C1287.07 301.55 1287.69 301.35 1288.39 301.35H1289.27V302.93H1288.41C1286.55 302.93 1285.45 304.33 1285.45 306.39V311.75ZM1289.82 306.55C1289.82 303.23 1292.1 301.09 1294.92 301.09C1298.02 301.07 1300.02 303.45 1299.96 306.41V307.11H1291.48C1291.56 309.21 1292.9 310.57 1295.04 310.57C1296.48 310.57 1297.76 309.89 1298.22 308.69H1299.86C1299.28 310.67 1297.42 312.01 1295.02 312.01C1291.86 312.01 1289.82 309.67 1289.82 306.55ZM1291.52 305.71H1298.28C1298.14 303.71 1296.76 302.53 1294.92 302.53C1294.02 302.53 1293.26 302.83 1292.6 303.41C1291.96 303.99 1291.6 304.77 1291.52 305.71ZM1301.72 308.73H1303.26C1303.44 309.99 1304.32 310.63 1305.84 310.63C1307.36 310.63 1308.26 309.91 1308.26 308.81C1308.26 305.91 1302.04 308.09 1302.04 303.99C1302.04 303.11 1302.4 302.41 1303.1 301.89C1303.8 301.35 1304.7 301.09 1305.8 301.09C1306.78 301.09 1307.62 301.37 1308.32 301.91C1309.02 302.45 1309.4 303.17 1309.48 304.09H1307.96C1307.82 303.07 1307.04 302.45 1305.7 302.45C1304.4 302.45 1303.56 303.09 1303.56 303.99C1303.56 306.63 1309.8 304.45 1309.8 308.73C1309.8 309.71 1309.42 310.51 1308.68 311.11C1307.94 311.71 1306.98 312.01 1305.76 312.01C1303.36 312.01 1301.9 310.73 1301.72 308.73ZM1314.23 311.75H1312.67V297.75H1314.45L1319.87 309.97H1319.99L1325.01 297.75H1326.79V311.75H1325.23V301.31H1325.11L1320.85 311.75H1319.01L1314.35 301.31H1314.23V311.75ZM1338.02 311.75H1330.36V297.75H1331.98V310.29H1338.02V311.75ZM1220.12 334.75C1220.12 330.63 1223.18 327.49 1227.32 327.49C1228.9 327.49 1230.28 327.93 1231.44 328.79C1232.62 329.65 1233.44 330.79 1233.9 332.23H1232.16C1231.44 330.17 1229.56 329.01 1227.32 329.01C1224.22 329.01 1221.8 331.49 1221.8 334.75C1221.74 337.99 1224.26 340.55 1227.32 340.49C1229.56 340.49 1231.44 339.35 1232.1 337.27H1233.9C1233.46 338.73 1232.64 339.87 1231.46 340.73C1230.28 341.59 1228.9 342.01 1227.3 342.01C1223.24 342.09 1220.06 338.83 1220.12 334.75ZM1235.46 336.55C1235.46 334.99 1235.98 333.69 1237.02 332.65C1238.06 331.61 1239.36 331.09 1240.9 331.09C1242.46 331.09 1243.76 331.61 1244.78 332.65C1245.8 333.69 1246.32 334.99 1246.32 336.55C1246.32 338.11 1245.8 339.41 1244.76 340.45C1243.72 341.49 1242.42 342.01 1240.88 342.01C1237.82 342.07 1235.4 339.67 1235.46 336.55ZM1237.08 336.55C1237.08 337.73 1237.44 338.69 1238.14 339.45C1238.86 340.19 1239.78 340.57 1240.88 340.57C1241.98 340.57 1242.9 340.19 1243.62 339.45C1244.34 338.69 1244.7 337.73 1244.7 336.55C1244.7 335.39 1244.34 334.43 1243.62 333.67C1242.9 332.91 1241.98 332.53 1240.88 332.53C1239.78 332.53 1238.86 332.91 1238.14 333.69C1237.44 334.45 1237.08 335.41 1237.08 336.55ZM1250.25 341.75H1248.67V331.35H1250.25V332.87H1250.37C1250.83 331.85 1252.01 331.09 1253.55 331.09C1254.73 331.09 1255.67 331.49 1256.37 332.27C1257.07 333.05 1257.43 334.03 1257.43 335.21V341.75H1255.85V335.31C1255.85 334.49 1255.59 333.83 1255.07 333.33C1254.55 332.83 1253.91 332.57 1253.17 332.57C1252.35 332.57 1251.65 332.85 1251.09 333.43C1250.53 333.99 1250.25 334.69 1250.25 335.55V341.75ZM1261.36 332.69H1259.4V331.35H1260.96C1261.26 331.35 1261.46 331.15 1261.46 330.83V328.33H1262.94V331.35H1266.14V332.69H1262.94V338.59C1262.94 339.77 1263.38 340.37 1264.56 340.37H1266V341.75H1264.46C1262.48 341.75 1261.36 340.67 1261.36 338.61V332.69ZM1270.07 341.75H1268.49V331.35H1270.05V333.29H1270.17C1270.35 332.79 1270.69 332.35 1271.19 331.95C1271.69 331.55 1272.31 331.35 1273.01 331.35H1273.89V332.93H1273.03C1271.17 332.93 1270.07 334.33 1270.07 336.39V341.75ZM1274.44 336.55C1274.44 334.99 1274.96 333.69 1276 332.65C1277.04 331.61 1278.34 331.09 1279.88 331.09C1281.44 331.09 1282.74 331.61 1283.76 332.65C1284.78 333.69 1285.3 334.99 1285.3 336.55C1285.3 338.11 1284.78 339.41 1283.74 340.45C1282.7 341.49 1281.4 342.01 1279.86 342.01C1276.8 342.07 1274.38 339.67 1274.44 336.55ZM1276.06 336.55C1276.06 337.73 1276.42 338.69 1277.12 339.45C1277.84 340.19 1278.76 340.57 1279.86 340.57C1280.96 340.57 1281.88 340.19 1282.6 339.45C1283.32 338.69 1283.68 337.73 1283.68 336.55C1283.68 335.39 1283.32 334.43 1282.6 333.67C1281.88 332.91 1280.96 332.53 1279.86 332.53C1278.76 332.53 1277.84 332.91 1277.12 333.69C1276.42 334.45 1276.06 335.41 1276.06 336.55ZM1286.44 339.53V326.75H1288.02V339.53C1288.02 340.07 1288.28 340.35 1288.78 340.35H1289.26V341.75H1288.5C1287.2 341.75 1286.44 340.95 1286.44 339.53ZM1298.81 341.75H1297.19V327.75H1302.21C1303.49 327.75 1304.53 328.13 1305.31 328.91C1306.09 329.67 1306.49 330.69 1306.49 331.95C1306.49 333.21 1306.09 334.23 1305.27 335.03C1304.47 335.81 1303.45 336.21 1302.21 336.21H1298.81V341.75ZM1298.81 329.19V334.77H1302.07C1303.73 334.77 1304.83 333.57 1304.83 331.95C1304.83 330.33 1303.75 329.19 1302.07 329.19H1298.81ZM1308.66 339.53V326.75H1310.24V339.53C1310.24 340.07 1310.5 340.35 1311 340.35H1311.48V341.75H1310.72C1309.42 341.75 1308.66 340.95 1308.66 339.53ZM1312.42 336.57C1312.42 334.97 1312.9 333.65 1313.84 332.63C1314.8 331.61 1316.02 331.09 1317.48 331.09C1318.5 331.09 1319.44 331.41 1320.02 331.87C1320.6 332.33 1320.92 332.69 1321.14 333.03H1321.26V331.35H1322.84V341.75H1321.32V340.11H1321.2C1320.32 341.37 1319.12 342.01 1317.6 342.01C1316.08 342.01 1314.84 341.51 1313.86 340.49C1312.9 339.47 1312.42 338.17 1312.42 336.57ZM1314.04 336.57C1314.04 337.79 1314.38 338.77 1315.04 339.51C1315.72 340.23 1316.6 340.59 1317.7 340.59C1318.8 340.59 1319.66 340.21 1320.32 339.43C1320.98 338.65 1321.32 337.71 1321.32 336.57C1321.32 335.33 1320.98 334.35 1320.28 333.63C1319.6 332.89 1318.72 332.53 1317.66 332.53C1316.6 332.53 1315.72 332.91 1315.04 333.67C1314.38 334.41 1314.04 335.39 1314.04 336.57ZM1327.39 341.75H1325.81V331.35H1327.39V332.87H1327.51C1327.97 331.85 1329.15 331.09 1330.69 331.09C1331.87 331.09 1332.81 331.49 1333.51 332.27C1334.21 333.05 1334.57 334.03 1334.57 335.21V341.75H1332.99V335.31C1332.99 334.49 1332.73 333.83 1332.21 333.33C1331.69 332.83 1331.05 332.57 1330.31 332.57C1329.49 332.57 1328.79 332.85 1328.23 333.43C1327.67 333.99 1327.39 334.69 1327.39 335.55V341.75ZM1336.73 336.55C1336.73 333.23 1339.01 331.09 1341.83 331.09C1344.93 331.07 1346.93 333.45 1346.87 336.41V337.11H1338.39C1338.47 339.21 1339.81 340.57 1341.95 340.57C1343.39 340.57 1344.67 339.89 1345.13 338.69H1346.77C1346.19 340.67 1344.33 342.01 1341.93 342.01C1338.77 342.01 1336.73 339.67 1336.73 336.55ZM1338.43 335.71H1345.19C1345.05 333.71 1343.67 332.53 1341.83 332.53C1340.93 332.53 1340.17 332.83 1339.51 333.41C1338.87 333.99 1338.51 334.77 1338.43 335.71Z" fill="white"/>
<path d="M496 307.75H376" stroke="url(#paint4_linear_9_270)" stroke-linecap="round"/>
<g filter="url(#filter1_f_9_270)">
<circle cx="496.5" cy="307.75" r="7" transform="rotate(-180 496.5 307.75)" fill="url(#paint5_linear_9_270)"/>
</g>
<path d="M668 307.75V281.75C668 279.541 669.791 277.75 672 277.75H684" stroke="url(#paint6_linear_9_270)"/>
<g filter="url(#filter2_f_9_270)">
<circle cx="684.5" cy="277.75" r="7" fill="#2B6D9F"/>
</g>
<path d="M803 371.75C869.274 371.75 923 363.243 923 352.75V202.75H683V352.75C683 363.243 736.726 371.75 803 371.75Z" fill="#0D0D0E"/>
<path d="M922.5 352.75C922.5 353.832 921.807 354.984 920.256 356.184C918.715 357.376 916.41 358.548 913.395 359.677C907.368 361.933 898.62 363.974 887.775 365.691C866.092 369.124 836.119 371.25 803 371.25C769.881 371.25 739.908 369.124 718.225 365.691C707.38 363.974 698.632 361.933 692.605 359.677C689.59 358.548 687.285 357.376 685.744 356.184C684.193 354.984 683.5 353.832 683.5 352.75V203.25H922.5V352.75Z" stroke="url(#paint7_linear_9_270)" stroke-opacity="0.6"/>
<ellipse cx="803" cy="202.75" rx="120" ry="19" fill="#0D0D0E"/>
<path d="M922.5 202.75C922.5 203.832 921.807 204.984 920.256 206.184C918.715 207.376 916.41 208.548 913.395 209.677C907.368 211.933 898.62 213.974 887.775 215.691C866.092 219.124 836.119 221.25 803 221.25C769.881 221.25 739.908 219.124 718.225 215.691C707.38 213.974 698.632 211.933 692.605 209.677C689.59 208.548 687.285 207.376 685.744 206.184C684.193 204.984 683.5 203.832 683.5 202.75C683.5 201.668 684.193 200.516 685.744 199.316C687.285 198.124 689.59 196.952 692.605 195.823C698.632 193.567 707.38 191.526 718.225 189.809C739.908 186.376 769.881 184.25 803 184.25C836.119 184.25 866.092 186.376 887.775 189.809C898.62 191.526 907.368 193.567 913.395 195.823C916.41 196.952 918.715 198.124 920.256 199.316C921.807 200.516 922.5 201.668 922.5 202.75Z" stroke="url(#paint8_linear_9_270)" stroke-opacity="0.6"/>
<path d="M623 307.75L713 307.75" stroke="url(#paint9_linear_9_270)" stroke-linecap="round"/>
<g filter="url(#filter3_f_9_270)">
<circle cx="713.5" cy="307.75" r="7" fill="#358DCF"/>
</g>
<path d="M833 401.75C899.274 401.75 953 393.243 953 382.75V232.75H713V382.75C713 393.243 766.726 401.75 833 401.75Z" fill="#0D0D0E"/>
<path d="M952.5 382.75C952.5 383.832 951.807 384.984 950.256 386.184C948.715 387.376 946.41 388.548 943.395 389.677C937.368 391.933 928.62 393.974 917.775 395.691C896.092 399.124 866.119 401.25 833 401.25C799.881 401.25 769.908 399.124 748.225 395.691C737.38 393.974 728.632 391.933 722.605 389.677C719.59 388.548 717.285 387.376 715.744 386.184C714.193 384.984 713.5 383.832 713.5 382.75V233.25H952.5V382.75Z" stroke="url(#paint10_linear_9_270)" stroke-opacity="0.8"/>
<ellipse cx="833" cy="232.75" rx="120" ry="19" fill="#0D0D0E"/>
<path d="M952.5 232.75C952.5 233.832 951.807 234.984 950.256 236.184C948.715 237.376 946.41 238.548 943.395 239.677C937.368 241.933 928.62 243.974 917.775 245.691C896.092 249.124 866.119 251.25 833 251.25C799.881 251.25 769.908 249.124 748.225 245.691C737.38 243.974 728.632 241.933 722.605 239.677C719.59 238.548 717.285 237.376 715.744 236.184C714.193 234.984 713.5 233.832 713.5 232.75C713.5 231.668 714.193 230.516 715.744 229.316C717.285 228.124 719.59 226.952 722.605 225.823C728.632 223.567 737.38 221.526 748.225 219.809C769.908 216.376 799.881 214.25 833 214.25C866.119 214.25 896.092 216.376 917.775 219.809C928.62 221.526 937.368 223.567 943.395 225.823C946.41 226.952 948.715 228.124 950.256 229.316C951.807 230.516 952.5 231.668 952.5 232.75Z" stroke="url(#paint11_linear_9_270)" stroke-opacity="0.8"/>
<path d="M668 307.75V333.75C668 335.959 669.791 337.75 672 337.75H744" stroke="url(#paint12_linear_9_270)"/>
<g filter="url(#filter4_f_9_270)">
<circle cx="743.5" cy="337.75" r="7" fill="#3F9BFF"/>
</g>
<path d="M982.5 412.75C982.5 413.832 981.807 414.984 980.256 416.184C978.715 417.376 976.41 418.548 973.395 419.677C967.368 421.933 958.62 423.974 947.775 425.691C926.092 429.124 896.119 431.25 863 431.25C829.881 431.25 799.908 429.124 778.225 425.691C767.38 423.974 758.632 421.933 752.605 419.677C749.59 418.548 747.285 417.376 745.744 416.184C744.193 414.984 743.5 413.832 743.5 412.75V263.25H982.5V412.75Z" fill="#0D0D0E" stroke="url(#paint13_linear_9_270)"/>
<path d="M982.5 262.75C982.5 263.832 981.807 264.984 980.256 266.184C978.715 267.376 976.41 268.548 973.395 269.677C967.368 271.933 958.62 273.974 947.775 275.691C926.092 279.124 896.119 281.25 863 281.25C829.881 281.25 799.908 279.124 778.225 275.691C767.38 273.974 758.632 271.933 752.605 269.677C749.59 268.548 747.285 267.376 745.744 266.184C744.193 264.984 743.5 263.832 743.5 262.75C743.5 261.668 744.193 260.516 745.744 259.316C747.285 258.124 749.59 256.952 752.605 255.823C758.632 253.567 767.38 251.526 778.225 249.809C799.908 246.376 829.881 244.25 863 244.25C896.119 244.25 926.092 246.376 947.775 249.809C958.62 251.526 967.368 253.567 973.395 255.823C976.41 256.952 978.715 258.124 980.256 259.316C981.807 260.516 982.5 261.668 982.5 262.75Z" fill="#0D0D0E" stroke="url(#paint14_linear_9_270)"/>
<path d="M870.967 318.767C870.915 318.711 870.861 318.656 870.806 318.601C870.735 318.686 870.659 318.766 870.576 318.844C869.956 319.47 869.034 319.855 868.157 319.855C867.23 319.855 866.407 319.464 865.738 318.844C865.066 318.222 864.776 317.296 864.736 316.403C864.73 316.245 864.737 316.09 864.757 315.938C864.666 315.933 864.574 315.929 864.483 315.928C862.587 315.887 861.579 316.171 861.234 316.91C860.844 317.743 861.323 318.49 862.768 320.268C864.286 322.136 866.925 323.161 869.236 323.244C871.371 323.322 872.388 323.119 872.732 322.38C873.122 321.547 872.784 320.693 870.967 318.767L870.967 318.767Z" fill="white"/>
<path d="M875.138 290.348C889.05 298.908 894.519 313.526 881.811 325.795C881.475 326.119 880.921 325.999 880.748 325.563C879.679 322.876 878.821 319.98 877.21 317.604C873.503 312.135 867.524 310.33 861.444 309.184C853.437 307.674 852.928 308.134 853.696 316.43C854.396 323.982 857.809 330.237 863.91 334.681C870.63 339.577 879.88 339.853 885.776 331.308C886.124 330.803 886.908 331.007 886.967 331.619C888.623 348.46 875.936 363.947 856.462 363.517C855.893 363.504 855.609 362.817 856 362.4C856.819 361.527 857.553 360.748 858.257 359.943C865.329 351.847 864.063 340.176 855.57 335.247C855.112 334.982 854.624 334.768 854.076 334.644C853.391 334.488 852.977 335.398 853.542 335.818C853.547 335.821 853.551 335.825 853.555 335.828C859.76 340.337 859.119 349.716 854.908 355.294C850.636 360.953 844.997 364.132 837.741 365.242C837.301 365.31 836.924 364.921 836.998 364.479C838.015 358.372 839.06 352.435 839.963 346.476C841.697 335.035 843.564 323.606 844.922 312.118C845.593 306.435 843.885 300.945 841.337 295.809C841.063 295.257 840.779 294.71 840.432 294.044C840.15 293.501 840.69 292.895 841.255 293.122C843.174 293.891 844.839 294.598 846.564 295.091C851.529 296.513 855.094 299.153 866.495 299.242C872.387 299.287 874.744 296.305 874.147 290.986C874.086 290.441 874.675 290.062 875.139 290.348H875.138Z" fill="white"/>
<path d="M838.585 399.42H836.965V385.42H841.985C843.265 385.42 844.305 385.8 845.085 386.58C845.865 387.34 846.265 388.36 846.265 389.62C846.265 390.88 845.865 391.9 845.045 392.7C844.245 393.48 843.225 393.88 841.985 393.88H838.585V399.42ZM838.585 386.86V392.44H841.845C843.505 392.44 844.605 391.24 844.605 389.62C844.605 388 843.525 386.86 841.845 386.86H838.585ZM847.634 392.42C847.634 388.3 850.654 385.16 854.834 385.16C856.414 385.16 857.774 385.58 858.954 386.42C860.134 387.26 860.954 388.36 861.414 389.7H859.614C858.834 387.84 857.154 386.68 854.834 386.68C851.554 386.68 849.314 389.14 849.314 392.42C849.314 395.72 851.594 398.16 854.874 398.16C857.754 398.16 859.954 396.28 860.074 393.48H854.394V392.06H861.894V392.14C861.894 393.1 861.774 393.98 861.534 394.8C860.594 398.04 857.874 399.68 854.854 399.68C850.694 399.68 847.634 396.56 847.634 392.42ZM866.024 399.42H864.464V385.42H866.244L871.664 397.64H871.784L876.804 385.42H878.584V399.42H877.024V388.98H876.904L872.644 399.42H870.804L866.144 388.98H866.024V399.42ZM889.809 399.42H882.149V385.42H883.769V397.96H889.809V399.42Z" fill="white"/>
<path d="M743 249.75C743 245.332 746.582 241.75 751 241.75H823C825.209 241.75 827 243.541 827 245.75V258.75C827 260.959 825.209 262.75 823 262.75H743V249.75Z" fill="url(#paint15_linear_9_270)"/>
<path d="M755.772 256.75H752.286V246.95H755.772C758.908 246.95 760.812 248.938 760.812 251.808C760.812 253.334 760.364 254.538 759.454 255.42C758.558 256.302 757.326 256.75 755.772 256.75ZM754.498 248.868V254.832H755.674C757.116 254.832 758.502 254.034 758.502 251.808C758.502 249.694 757.102 248.868 755.674 248.868H754.498ZM762.787 256.75H760.519L763.851 246.95H766.679L770.053 256.75H767.701L767.113 255.014H763.361L762.787 256.75ZM765.181 249.386L763.963 253.04H766.511L765.307 249.386H765.181ZM771.451 248.868H768.721V246.95H776.421V248.868H773.677V256.75H771.451V248.868ZM777.349 256.75H775.081L778.413 246.95H781.241L784.615 256.75H782.263L781.675 255.014H777.923L777.349 256.75ZM779.743 249.386L778.525 253.04H781.073L779.869 249.386H779.743ZM789.642 256.75H785.512V246.95H789.348C790.286 246.95 791.028 247.188 791.574 247.678C792.12 248.168 792.386 248.784 792.386 249.554C792.386 250.408 791.966 251.136 791.28 251.542V251.626C792.05 251.976 792.708 252.746 792.708 253.88C792.722 255.644 791.224 256.806 789.642 256.75ZM787.626 252.48V254.888H789.054C789.852 254.888 790.356 254.454 790.356 253.656C790.356 252.886 789.768 252.48 789.026 252.48H787.626ZM787.626 248.756V250.884H789.054C789.768 250.884 790.216 250.436 790.216 249.778C790.216 249.176 789.754 248.756 789.068 248.756H787.626ZM795.357 256.75H793.089L796.421 246.95H799.249L802.623 256.75H800.271L799.683 255.014H795.931L795.357 256.75ZM797.751 249.386L796.533 253.04H799.081L797.877 249.386H797.751ZM802.946 253.6V253.558H805.06C805.116 254.356 805.76 254.902 806.838 254.902C807.748 254.902 808.308 254.552 808.308 253.936C808.308 252.116 803.198 253.754 803.198 249.708C803.198 248.854 803.506 248.154 804.136 247.608C804.766 247.048 805.634 246.768 806.726 246.768C807.776 246.768 808.644 247.034 809.302 247.58C809.974 248.112 810.324 248.882 810.366 249.89H808.154C808.14 249.204 807.622 248.742 806.726 248.742C805.886 248.742 805.41 249.106 805.41 249.652C805.41 251.402 810.618 249.792 810.618 253.768C810.618 254.706 810.282 255.462 809.596 256.05C808.91 256.638 807.972 256.932 806.768 256.932C805.578 256.946 804.654 256.638 803.968 256.008C803.282 255.406 802.946 254.594 802.946 253.6ZM818.141 256.75H811.785V246.95H817.987V248.84H813.997V250.87H817.399V252.76H813.997V254.846H818.141V256.75Z" fill="#0D0D0E"/>
<rect x="495.5" y="218.25" width="127" height="178.667" rx="7.5" fill="#0D0D0E"/>
<rect x="495.5" y="218.25" width="127" height="178.667" rx="7.5" stroke="#19D58D"/>
<g clip-path="url(#clip0_9_270)">
<g clip-path="url(#clip1_9_270)">
<path d="M575.125 278.762C572.38 278.762 569.804 279.811 567.868 281.716C564.748 284.788 563.991 289.432 565.896 293.278L559.003 297.696L552.109 293.278C554.015 289.432 553.258 284.788 550.137 281.716C548.201 279.811 545.625 278.762 542.881 278.762C540.136 278.762 537.559 279.811 535.624 281.715C533.688 283.621 532.623 286.156 532.623 288.857C532.623 291.558 533.689 294.094 535.624 295.999C537.56 297.905 540.136 298.954 542.881 298.954C544.812 298.954 546.671 298.432 548.293 297.439L556.19 302.499V307.937C551.831 309.16 548.741 313.133 548.741 317.651C548.741 323.221 553.345 327.751 559.003 327.751C564.66 327.751 569.265 323.22 569.265 317.651C569.265 313.133 566.174 309.16 561.815 307.937V302.499L569.712 297.439C571.335 298.432 573.192 298.954 575.125 298.954C577.869 298.954 580.446 297.905 582.381 296.001C586.382 292.062 586.382 285.655 582.381 281.716C580.445 279.811 577.869 278.762 575.125 278.762ZM578.404 292.086C576.6 293.862 573.661 293.864 571.852 292.093C571.851 292.091 571.849 292.089 571.848 292.088L571.833 292.075C570.038 290.294 570.041 287.408 571.845 285.632C572.72 284.772 573.884 284.298 575.125 284.298C576.366 284.298 577.529 284.772 578.404 285.632C580.211 287.411 580.211 290.307 578.404 292.087V292.086ZM563.64 317.651C563.64 320.168 561.56 322.215 559.003 322.215C556.446 322.215 554.365 320.168 554.365 317.651C554.365 315.135 556.446 313.087 559.003 313.087C561.56 313.087 563.64 315.135 563.64 317.651ZM539.601 292.086C538.727 291.225 538.246 290.079 538.246 288.858C538.246 287.638 538.727 286.492 539.601 285.631C540.476 284.771 541.64 284.297 542.881 284.297C544.122 284.297 545.285 284.771 546.16 285.631C547.034 286.492 547.515 287.637 547.515 288.858C547.515 290.08 547.037 291.216 546.17 292.076L546.149 292.096C544.341 293.864 541.406 293.86 539.603 292.086H539.601Z" fill="white"/>
<path d="M592.906 272.205L587.986 253.811C587.712 252.787 586.852 251.995 585.793 251.797C584.735 251.598 583.639 252.021 583.001 252.874L570.591 269.459C566.929 267.986 562.938 267.209 558.999 267.209C555.063 267.209 551.072 267.986 547.409 269.459L535.003 252.875C534.365 252.021 533.269 251.599 532.211 251.797C531.153 251.995 530.292 252.786 530.019 253.81L525.094 272.203C524.902 272.919 525.006 273.664 525.384 274.303C525.762 274.943 526.37 275.397 527.097 275.586C527.824 275.775 528.581 275.673 529.231 275.301C529.879 274.929 530.342 274.33 530.534 273.615L533.96 260.818L544.232 274.55C545.051 275.644 546.54 275.992 547.772 275.376C554.806 271.883 563.203 271.884 570.236 275.379C570.642 275.582 571.077 275.679 571.506 275.679C572.375 275.679 573.222 275.281 573.768 274.55L584.044 260.818L587.466 273.614C587.791 274.83 588.909 275.678 590.185 275.678C590.426 275.678 590.668 275.647 590.903 275.586C591.63 275.398 592.238 274.943 592.616 274.303C592.994 273.664 593.098 272.919 592.907 272.203L592.906 272.205Z" fill="white"/>
</g>
</g>
<path d="M532.67 365.417H531.05V351.417H536.07C537.35 351.417 538.39 351.797 539.17 352.577C539.95 353.337 540.35 354.357 540.35 355.617C540.35 356.877 539.95 357.897 539.13 358.697C538.33 359.477 537.31 359.877 536.07 359.877H532.67V365.417ZM532.67 352.857V358.437H535.93C537.59 358.437 538.69 357.237 538.69 355.617C538.69 353.997 537.61 352.857 535.93 352.857H532.67ZM540.899 360.237C540.899 358.637 541.379 357.317 542.319 356.297C543.279 355.277 544.499 354.757 545.959 354.757C546.979 354.757 547.919 355.077 548.499 355.537C549.079 355.997 549.399 356.357 549.619 356.697H549.739V355.017H551.319V365.417C551.319 368.457 549.379 370.277 546.259 370.277C543.779 370.277 542.079 368.957 541.739 367.037H543.239C543.499 368.237 544.659 368.897 546.259 368.897C548.639 368.897 549.799 367.597 549.799 365.417V363.777H549.679C548.799 365.037 547.599 365.677 546.079 365.677C544.559 365.677 543.319 365.177 542.339 364.157C541.379 363.137 540.899 361.837 540.899 360.237ZM542.519 360.237C542.519 361.457 542.859 362.437 543.519 363.177C544.199 363.897 545.079 364.257 546.179 364.257C547.279 364.257 548.139 363.877 548.799 363.097C549.459 362.317 549.799 361.377 549.799 360.237C549.799 358.997 549.459 358.017 548.759 357.297C548.079 356.557 547.199 356.197 546.139 356.197C545.079 356.197 544.199 356.577 543.519 357.337C542.859 358.077 542.519 359.057 542.519 360.237ZM553.486 358.417C553.486 354.297 556.546 351.157 560.686 351.157C562.266 351.157 563.646 351.597 564.806 352.457C565.986 353.317 566.806 354.457 567.266 355.897H565.526C564.806 353.837 562.926 352.677 560.686 352.677C557.586 352.677 555.166 355.157 555.166 358.417C555.106 361.657 557.626 364.217 560.686 364.157C562.926 364.157 564.806 363.017 565.466 360.937H567.266C566.826 362.397 566.006 363.537 564.826 364.397C563.646 365.257 562.266 365.677 560.666 365.677C556.606 365.757 553.426 362.497 553.486 358.417ZM568.828 360.237C568.828 358.637 569.308 357.317 570.248 356.297C571.208 355.277 572.428 354.757 573.888 354.757C574.908 354.757 575.848 355.077 576.428 355.537C577.008 355.997 577.328 356.357 577.548 356.697H577.668V355.017H579.248V365.417H577.728V363.777H577.608C576.728 365.037 575.528 365.677 574.008 365.677C572.488 365.677 571.248 365.177 570.268 364.157C569.308 363.137 568.828 361.837 568.828 360.237ZM570.448 360.237C570.448 361.457 570.788 362.437 571.448 363.177C572.128 363.897 573.008 364.257 574.108 364.257C575.208 364.257 576.068 363.877 576.728 363.097C577.388 362.317 577.728 361.377 577.728 360.237C577.728 358.997 577.388 358.017 576.688 357.297C576.008 356.557 575.128 356.197 574.068 356.197C573.008 356.197 572.128 356.577 571.448 357.337C570.788 358.077 570.448 359.057 570.448 360.237ZM583.175 356.357H581.215V355.017H582.775C583.075 355.017 583.275 354.817 583.275 354.497V351.997H584.755V355.017H587.955V356.357H584.755V362.257C584.755 363.437 585.195 364.037 586.375 364.037H587.815V365.417H586.275C584.295 365.417 583.175 364.337 583.175 362.277V356.357Z" fill="white"/>
<path d="M495 215.75C495 211.332 498.582 207.75 503 207.75H551C553.209 207.75 555 209.541 555 211.75V224.75C555 226.959 553.209 228.75 551 228.75H495V215.75Z" fill="url(#paint16_linear_9_270)"/>
<path d="M503.768 219.6V219.558H505.882C505.938 220.356 506.582 220.902 507.66 220.902C508.57 220.902 509.13 220.552 509.13 219.936C509.13 218.116 504.02 219.754 504.02 215.708C504.02 214.854 504.328 214.154 504.958 213.608C505.588 213.048 506.456 212.768 507.548 212.768C508.598 212.768 509.466 213.034 510.124 213.58C510.796 214.112 511.146 214.882 511.188 215.89H508.976C508.962 215.204 508.444 214.742 507.548 214.742C506.708 214.742 506.232 215.106 506.232 215.652C506.232 217.402 511.44 215.792 511.44 219.768C511.44 220.706 511.104 221.462 510.418 222.05C509.732 222.638 508.794 222.932 507.59 222.932C506.4 222.946 505.476 222.638 504.79 222.008C504.104 221.406 503.768 220.594 503.768 219.6ZM512.202 217.85C512.146 215.008 514.358 212.726 517.354 212.768C519.958 212.768 521.862 214.448 522.226 216.59H519.818C519.538 215.596 518.586 214.896 517.354 214.896C516.514 214.896 515.828 215.176 515.296 215.736C514.764 216.296 514.498 216.996 514.498 217.85C514.498 218.704 514.764 219.418 515.296 219.978C515.828 220.524 516.514 220.804 517.354 220.804C518.586 220.804 519.524 220.118 519.902 219.152H522.324C522.114 220.258 521.554 221.154 520.644 221.868C519.734 222.582 518.642 222.932 517.354 222.932C514.358 222.974 512.146 220.706 512.202 217.85ZM524.299 222.75H522.031L525.363 212.95H528.191L531.565 222.75H529.213L528.625 221.014H524.873L524.299 222.75ZM526.693 215.386L525.475 219.04H528.023L526.819 215.386H526.693ZM538.509 222.75H532.461V212.95H534.673V220.776H538.509V222.75ZM546.085 222.75H539.729V212.95H545.931V214.84H541.941V216.87H545.343V218.76H541.941V220.846H546.085V222.75Z" fill="#0D0D0E"/>
<rect x="105" y="187.75" width="240" height="179.667" rx="8" fill="#0D0D0E"/>
<rect x="105.5" y="188.25" width="239" height="178.667" rx="7.5" stroke="#FF6845" stroke-opacity="0.6"/>
<rect x="135" y="217.75" width="240" height="179.667" rx="8" fill="#0D0D0E"/>
<rect x="135.5" y="218.25" width="239" height="178.667" rx="7.5" stroke="#FF6845" stroke-opacity="0.8"/>
<rect x="165.5" y="248.25" width="239" height="178.667" rx="7.5" fill="#0D0D0E"/>
<rect x="165.5" y="248.25" width="239" height="178.667" rx="7.5" stroke="#FF6845"/>
<g clip-path="url(#clip2_9_270)">
<path d="M245 304.414V277.75H271.664C271.664 292.478 259.728 304.414 245 304.414Z" fill="white"/>
<path d="M298.336 357.75V331.086H325C325 345.814 313.064 357.75 298.336 357.75Z" fill="white"/>
<path d="M273.376 306.126C256.952 311.094 245 326.342 245 344.382V357.75H271.664C271.664 343.022 283.6 331.086 298.328 331.086C298.328 316.358 310.264 304.422 324.992 304.422V277.75H311.632C293.592 277.75 278.344 289.702 273.376 306.126Z" fill="white"/>
</g>
<path d="M256.937 395.417H255.317V381.417H256.937V388.477H257.057L263.017 381.417H265.037L259.957 387.337L265.277 395.417H263.277L258.857 388.617L256.937 390.857V395.417ZM265.029 390.217C265.029 388.657 265.549 387.357 266.589 386.317C267.629 385.277 268.929 384.757 270.469 384.757C272.029 384.757 273.329 385.277 274.349 386.317C275.369 387.357 275.889 388.657 275.889 390.217C275.889 391.777 275.369 393.077 274.329 394.117C273.289 395.157 271.989 395.677 270.449 395.677C267.389 395.737 264.969 393.337 265.029 390.217ZM266.649 390.217C266.649 391.397 267.009 392.357 267.709 393.117C268.429 393.857 269.349 394.237 270.449 394.237C271.549 394.237 272.469 393.857 273.189 393.117C273.909 392.357 274.269 391.397 274.269 390.217C274.269 389.057 273.909 388.097 273.189 387.337C272.469 386.577 271.549 386.197 270.449 386.197C269.349 386.197 268.429 386.577 267.709 387.357C267.009 388.117 266.649 389.077 266.649 390.217ZM279.821 395.417H278.241V385.017H279.801V386.957H279.921C280.101 386.457 280.441 386.017 280.941 385.617C281.441 385.217 282.061 385.017 282.761 385.017H283.641V386.597H282.781C280.921 386.597 279.821 387.997 279.821 390.057V395.417ZM288.689 395.417L284.609 385.017H286.309L289.449 393.477H289.569L292.689 385.017H294.429L290.329 395.417H288.689ZM296.184 391.557V385.017H297.764V391.497C297.764 392.317 298.024 392.977 298.544 393.477C299.064 393.977 299.704 394.237 300.444 394.237C301.264 394.237 301.964 393.957 302.524 393.397C303.084 392.817 303.364 392.117 303.364 391.257V385.017H304.944V395.417H303.364V393.897H303.244C302.784 394.917 301.604 395.677 300.064 395.677C298.884 395.677 297.944 395.297 297.244 394.517C296.544 393.737 296.184 392.737 296.184 391.557ZM307.297 392.397H308.837C309.017 393.657 309.897 394.297 311.417 394.297C312.937 394.297 313.837 393.577 313.837 392.477C313.837 389.577 307.617 391.757 307.617 387.657C307.617 386.777 307.977 386.077 308.677 385.557C309.377 385.017 310.277 384.757 311.377 384.757C312.357 384.757 313.197 385.037 313.897 385.577C314.597 386.117 314.977 386.837 315.057 387.757H313.537C313.397 386.737 312.617 386.117 311.277 386.117C309.977 386.117 309.137 386.757 309.137 387.657C309.137 390.297 315.377 388.117 315.377 392.397C315.377 393.377 314.997 394.177 314.257 394.777C313.517 395.377 312.557 395.677 311.337 395.677C308.937 395.677 307.477 394.397 307.297 392.397Z" fill="white"/>
<path d="M165 245.75C165 241.332 168.582 237.75 173 237.75H266C268.209 237.75 270 239.541 270 241.75V254.75C270 256.959 268.209 258.75 266 258.75H165V245.75Z" fill="url(#paint17_linear_9_270)"/>
<path d="M175.45 252.75H173.182L176.514 242.95H179.342L182.716 252.75H180.364L179.776 251.014H176.024L175.45 252.75ZM177.844 245.386L176.626 249.04H179.174L177.97 245.386H177.844ZM185.825 252.75H183.613V242.95H187.407C188.387 242.95 189.199 243.258 189.843 243.874C190.501 244.476 190.823 245.26 190.823 246.226C190.823 248.158 189.283 249.53 187.407 249.53H185.825V252.75ZM185.825 244.84V247.654H187.183C187.981 247.654 188.569 247.08 188.569 246.226C188.569 245.386 188.009 244.84 187.183 244.84H185.825ZM194.118 252.75H191.906V242.95H195.7C196.68 242.95 197.492 243.258 198.136 243.874C198.794 244.476 199.116 245.26 199.116 246.226C199.116 248.158 197.576 249.53 195.7 249.53H194.118V252.75ZM194.118 244.84V247.654H195.476C196.274 247.654 196.862 247.08 196.862 246.226C196.862 245.386 196.302 244.84 195.476 244.84H194.118ZM206.247 252.75H200.199V242.95H202.411V250.776H206.247V252.75ZM209.678 252.75H207.466V242.95H209.678V252.75ZM210.787 247.85C210.731 245.008 212.943 242.726 215.939 242.768C218.543 242.768 220.447 244.448 220.811 246.59H218.403C218.123 245.596 217.171 244.896 215.939 244.896C215.099 244.896 214.413 245.176 213.881 245.736C213.349 246.296 213.083 246.996 213.083 247.85C213.083 248.704 213.349 249.418 213.881 249.978C214.413 250.524 215.099 250.804 215.939 250.804C217.171 250.804 218.109 250.118 218.487 249.152H220.909C220.699 250.258 220.139 251.154 219.229 251.868C218.319 252.582 217.227 252.932 215.939 252.932C212.943 252.974 210.731 250.706 210.787 247.85ZM222.884 252.75H220.616L223.948 242.95H226.776L230.15 252.75H227.798L227.21 251.014H223.458L222.884 252.75ZM225.278 245.386L224.06 249.04H226.608L225.404 245.386H225.278ZM231.547 244.868H228.817V242.95H236.517V244.868H233.773V252.75H231.547V244.868ZM239.815 252.75H237.603V242.95H239.815V252.75ZM240.923 247.85C240.923 244.966 243.149 242.768 246.131 242.768C249.127 242.768 251.339 244.98 251.339 247.85C251.381 250.664 249.057 252.988 246.131 252.932C243.121 252.932 240.923 250.748 240.923 247.85ZM243.219 247.85C243.219 248.704 243.485 249.404 244.031 249.964C244.577 250.524 245.277 250.804 246.131 250.804C246.971 250.804 247.657 250.524 248.203 249.964C248.749 249.404 249.029 248.704 249.029 247.85C249.029 247.01 248.749 246.31 248.203 245.75C247.657 245.176 246.971 244.896 246.131 244.896C245.277 244.896 244.577 245.176 244.031 245.75C243.485 246.31 243.219 247.01 243.219 247.85ZM254.744 252.75H252.602V242.95H255.052L258.804 249.11H258.888V242.95H261.03V252.75H258.566L254.828 246.59H254.744V252.75Z" fill="#0D0D0E"/>
<defs>
<filter id="filter0_f_9_270" x="1171.5" y="296.75" width="22" height="23" filterUnits="userSpaceOnUse" color-interpolation-filters="sRGB">
<feFlood flood-opacity="0" result="BackgroundImageFix"/>
<feBlend mode="normal" in="SourceGraphic" in2="BackgroundImageFix" result="shape"/>
<feGaussianBlur stdDeviation="2" result="effect1_foregroundBlur_9_270"/>
</filter>
<filter id="filter1_f_9_270" x="485.5" y="296.75" width="22" height="22" filterUnits="userSpaceOnUse" color-interpolation-filters="sRGB">
<feFlood flood-opacity="0" result="BackgroundImageFix"/>
<feBlend mode="normal" in="SourceGraphic" in2="BackgroundImageFix" result="shape"/>
<feGaussianBlur stdDeviation="2" result="effect1_foregroundBlur_9_270"/>
</filter>
<filter id="filter2_f_9_270" x="673.5" y="266.75" width="22" height="22" filterUnits="userSpaceOnUse" color-interpolation-filters="sRGB">
<feFlood flood-opacity="0" result="BackgroundImageFix"/>
<feBlend mode="normal" in="SourceGraphic" in2="BackgroundImageFix" result="shape"/>
<feGaussianBlur stdDeviation="2" result="effect1_foregroundBlur_9_270"/>
</filter>
<filter id="filter3_f_9_270" x="702.5" y="296.75" width="22" height="22" filterUnits="userSpaceOnUse" color-interpolation-filters="sRGB">
<feFlood flood-opacity="0" result="BackgroundImageFix"/>
<feBlend mode="normal" in="SourceGraphic" in2="BackgroundImageFix" result="shape"/>
<feGaussianBlur stdDeviation="2" result="effect1_foregroundBlur_9_270"/>
</filter>
<filter id="filter4_f_9_270" x="732.5" y="326.75" width="22" height="22" filterUnits="userSpaceOnUse" color-interpolation-filters="sRGB">
<feFlood flood-opacity="0" result="BackgroundImageFix"/>
<feBlend mode="normal" in="SourceGraphic" in2="BackgroundImageFix" result="shape"/>
<feGaussianBlur stdDeviation="2" result="effect1_foregroundBlur_9_270"/>
</filter>
<linearGradient id="paint0_linear_9_270" x1="60" y1="644.75" x2="574.481" y2="-237.094" gradientUnits="userSpaceOnUse">
<stop stop-color="#5337FF"/>
<stop offset="1" stop-color="#A175FF"/>
</linearGradient>
<linearGradient id="paint1_linear_9_270" x1="1028" y1="121.75" x2="558.497" y2="689.476" gradientUnits="userSpaceOnUse">
<stop stop-color="#3EDCFF"/>
<stop offset="1" stop-color="#3E9AFF"/>
</linearGradient>
<linearGradient id="paint2_linear_9_270" x1="983" y1="308.25" x2="1179.93" y2="308.25" gradientUnits="userSpaceOnUse">
<stop stop-color="#3FD4FF"/>
<stop offset="1" stop-color="#FFC845"/>
</linearGradient>
<linearGradient id="paint3_linear_9_270" x1="1403" y1="195.539" x2="1308.24" y2="476.226" gradientUnits="userSpaceOnUse">
<stop offset="0.444792" stop-color="#FFEC44"/>
<stop offset="0.923958" stop-color="#FF7C44"/>
</linearGradient>
<linearGradient id="paint4_linear_9_270" x1="376" y1="307.75" x2="494.75" y2="307.75" gradientUnits="userSpaceOnUse">
<stop stop-color="#FF6845"/>
<stop offset="1" stop-color="#19D58D"/>
</linearGradient>
<linearGradient id="paint5_linear_9_270" x1="503.5" y1="300.75" x2="489.5" y2="314.75" gradientUnits="userSpaceOnUse">
<stop stop-color="#44FFDD"/>
<stop offset="1" stop-color="#05C168"/>
</linearGradient>
<linearGradient id="paint6_linear_9_270" x1="668" y1="284.881" x2="684" y2="284.881" gradientUnits="userSpaceOnUse">
<stop stop-color="#2CB9C4"/>
<stop offset="1" stop-color="#2B6F9F"/>
</linearGradient>
<linearGradient id="paint7_linear_9_270" x1="923" y1="202.75" x2="763.888" y2="428.708" gradientUnits="userSpaceOnUse">
<stop stop-color="#3EDCFF"/>
<stop offset="1" stop-color="#3E9AFF"/>
</linearGradient>
<linearGradient id="paint8_linear_9_270" x1="923" y1="183.75" x2="911.261" y2="257.891" gradientUnits="userSpaceOnUse">
<stop stop-color="#3EDCFF"/>
<stop offset="1" stop-color="#3E9AFF"/>
</linearGradient>
<linearGradient id="paint9_linear_9_270" x1="713" y1="307.75" x2="623.937" y2="307.75" gradientUnits="userSpaceOnUse">
<stop stop-color="#358DCF"/>
<stop offset="1" stop-color="#19D58D"/>
</linearGradient>
<linearGradient id="paint10_linear_9_270" x1="953" y1="232.75" x2="793.888" y2="458.708" gradientUnits="userSpaceOnUse">
<stop stop-color="#3EDCFF"/>
<stop offset="1" stop-color="#3E9AFF"/>
</linearGradient>
<linearGradient id="paint11_linear_9_270" x1="953" y1="213.75" x2="941.261" y2="287.891" gradientUnits="userSpaceOnUse">
<stop stop-color="#3EDCFF"/>
<stop offset="1" stop-color="#3E9AFF"/>
</linearGradient>
<linearGradient id="paint12_linear_9_270" x1="668" y1="330.619" x2="744" y2="330.619" gradientUnits="userSpaceOnUse">
<stop stop-color="#2CB9C4"/>
<stop offset="1" stop-color="#3FADFF"/>
</linearGradient>
<linearGradient id="paint13_linear_9_270" x1="983" y1="262.75" x2="823.888" y2="488.708" gradientUnits="userSpaceOnUse">
<stop stop-color="#3EDCFF"/>
<stop offset="1" stop-color="#3E9AFF"/>
</linearGradient>
<linearGradient id="paint14_linear_9_270" x1="983" y1="243.75" x2="971.261" y2="317.891" gradientUnits="userSpaceOnUse">
<stop stop-color="#3EDCFF"/>
<stop offset="1" stop-color="#3E9AFF"/>
</linearGradient>
<linearGradient id="paint15_linear_9_270" x1="827" y1="241.75" x2="817.118" y2="281.279" gradientUnits="userSpaceOnUse">
<stop stop-color="#3EDCFF"/>
<stop offset="1" stop-color="#3E9AFF"/>
</linearGradient>
<linearGradient id="paint16_linear_9_270" x1="555" y1="207.75" x2="541.904" y2="245.166" gradientUnits="userSpaceOnUse">
<stop stop-color="#44FFDD"/>
<stop offset="1" stop-color="#05C168"/>
</linearGradient>
<linearGradient id="paint17_linear_9_270" x1="270" y1="237.75" x2="261.923" y2="278.135" gradientUnits="userSpaceOnUse">
<stop offset="0.229272" stop-color="#FFB444"/>
<stop offset="1" stop-color="#FF6644"/>
</linearGradient>
<clipPath id="clip0_9_270">
<rect width="80" height="80" fill="white" transform="translate(519 247.75)"/>
</clipPath>
<clipPath id="clip1_9_270">
<rect width="68" height="76" fill="white" transform="translate(525 251.75)"/>
</clipPath>
<clipPath id="clip2_9_270">
<rect width="80" height="80" fill="white" transform="translate(245 277.75)"/>
</clipPath>
</defs>
</svg>
