<svg xmlns="http://www.w3.org/2000/svg" width="114" height="113" viewBox="0 0 114 113" fill="none">
  <path d="M41.6437 3.63822C41.8177 2.84616 42.8125 2.57961 43.3591 3.17859L54.4965 15.3821C54.9133 15.8388 55.6405 15.8116 56.022 15.325L66.2163 2.32333C66.7166 1.68518 67.7286 1.87665 67.9612 2.65349L72.7007 18.4808C72.8781 19.0731 73.5451 19.3641 74.1 19.0913L88.9259 11.8003C89.6536 11.4424 90.4822 12.054 90.3548 12.8548L87.7577 29.1711C87.6605 29.7818 88.1352 30.3334 88.7535 30.3283L105.275 30.1921C106.086 30.1854 106.567 31.0959 106.104 31.7621L96.6852 45.3358C96.3327 45.8438 96.5211 46.5467 97.0804 46.8104L112.024 53.8559C112.758 54.2017 112.796 55.2309 112.091 55.6306L97.7151 63.7732C97.177 64.0779 97.0417 64.793 97.4312 65.2732L107.838 78.105C108.349 78.7348 107.937 79.6788 107.128 79.7327L90.6432 80.8315C90.0263 80.8726 89.5941 81.4581 89.7367 82.0598L93.5458 98.1364C93.7327 98.9255 92.9521 99.5973 92.1997 99.2948L76.8704 93.1321C76.2967 92.9015 75.6533 93.2416 75.5207 93.8455L71.9772 109.983C71.8033 110.775 70.8085 111.041 70.2618 110.442L59.1245 98.2388C58.7076 97.7821 57.9804 97.8093 57.5989 98.2959L47.4046 111.298C46.9043 111.936 45.8923 111.744 45.6597 110.967L40.9202 95.1401C40.7428 94.5478 40.0758 94.2568 39.5209 94.5296L24.695 101.821C23.9673 102.178 23.1387 101.567 23.2662 100.766L25.8632 84.4498C25.9604 83.8392 25.4857 83.2875 24.8674 83.2926L8.34627 83.4289C7.53537 83.4355 7.05414 82.525 7.51646 81.8588L16.9357 68.2851C17.2882 67.7771 17.0998 67.0742 16.5406 66.8105L1.59644 59.765C0.86295 59.4192 0.824441 58.39 1.53004 57.9903L15.9059 49.8478C16.4439 49.543 16.5792 48.828 16.1897 48.3477L5.78243 35.5159C5.27162 34.8861 5.68346 33.9422 6.49259 33.8882L22.9777 32.7894C23.5946 32.7483 24.0268 32.1628 23.8842 31.5611L20.0751 15.4845C19.8882 14.6954 20.6688 14.0237 21.4212 14.3261L36.7505 20.4888C37.3242 20.7194 37.9676 20.3794 38.1003 19.7754L41.6437 3.63822Z" fill="#17181A" fill-opacity="0.3" stroke="#00E0FF" stroke-width="2"/>
</svg>