<svg xmlns="http://www.w3.org/2000/svg" width="280" height="280" viewBox="0 0 280 280" fill="none">
  <path d="M130.936 76.4332C135.799 71.095 144.2 71.095 149.063 76.4332C152.816 80.5521 158.624 82.1083 163.933 80.4176C170.814 78.2264 178.09 82.4267 179.633 89.4816C180.823 94.9249 185.075 99.1765 190.518 100.367C197.573 101.91 201.773 109.185 199.582 116.066C197.891 121.376 199.447 127.183 203.566 130.936C208.905 135.8 208.905 144.2 203.566 149.064C199.447 152.817 197.891 158.624 199.582 163.934C201.773 170.815 197.573 178.09 190.518 179.633C185.075 180.824 180.823 185.075 179.633 190.518C178.09 197.573 170.814 201.774 163.933 199.582C158.624 197.892 152.816 199.448 149.063 203.567C144.2 208.905 135.799 208.905 130.936 203.567C127.183 199.448 121.375 197.892 116.066 199.582C109.185 201.774 101.909 197.573 100.367 190.518C99.176 185.075 94.9244 180.824 89.4811 179.633C82.4262 178.09 78.2259 170.815 80.4171 163.934C82.1078 158.624 80.5516 152.817 76.4327 149.064C71.0945 144.2 71.0945 135.8 76.4327 130.936C80.5516 127.183 82.1078 121.376 80.4171 116.066C78.2259 109.185 82.4262 101.91 89.4811 100.367C94.9244 99.1765 99.176 94.9249 100.367 89.4816C101.909 82.4267 109.185 78.2264 116.066 80.4176C121.375 82.1083 127.183 80.5521 130.936 76.4332Z" stroke="url(#paint0_linear_467_1640)" stroke-width="2"/>
  <path d="M190.051 129.757C190.38 131.383 190.206 132.826 189.549 134.083C188.895 135.356 187.932 136.247 186.646 136.777L185.917 133.165C186.675 132.671 187.122 131.618 186.877 130.403C186.698 129.512 186.261 128.853 185.567 128.424C184.894 128.009 184.101 127.885 183.226 128.064C182.317 128.249 181.618 128.677 181.125 129.329C180.635 129.999 180.489 130.778 180.668 131.667C180.927 132.952 181.669 133.799 182.335 134.001L181.817 131.434L184.477 130.892L185.731 137.106C185.546 137.162 185.373 137.197 185.185 137.235C183.35 137.608 181.771 137.395 180.418 136.619C178.938 135.745 178.003 134.295 177.599 132.293C176.828 128.475 178.986 125.363 182.537 124.639C186.088 123.915 189.289 125.972 190.052 129.756L190.051 129.757Z" fill="#9185FF"/>
  <path d="M178.577 138.582L190.824 138.728L190.775 142.081L178.528 141.935L178.577 138.582Z" fill="#9185FF"/>
  <path d="M191.054 143.278L190.336 146.968L182.457 147.897L182.427 148.051L189.389 151.824L188.687 155.427L177.526 148.695L178.167 145.401L191.053 143.279L191.054 143.278Z" fill="#9185FF"/>
  <path d="M176.808 151.828L187.988 156.796L184.679 164.188L182.092 163.038L184.03 158.711L182.336 157.959L180.699 161.615L178.112 160.466L179.749 156.81L178.04 156.05L176.031 160.537L173.428 159.38L176.809 151.829L176.808 151.828Z" fill="#9185FF"/>
  <path d="M170.283 163.605L179.541 171.588L177.342 174.129L168.083 166.146L170.283 163.605Z" fill="#9185FF"/>
  <path d="M174.518 173.254L176.362 175.468L168.7 181.836L166.857 179.623L169.401 177.508L163.423 170.33L166.008 168.181L171.986 175.359L174.517 173.254L174.518 173.254Z" fill="#9185FF"/>
  <path d="M157.343 174.628L157.224 187.47L153.062 188.768L145.609 178.289L149.036 177.219L150.119 178.82L154.098 177.579L154.084 175.645L157.343 174.628ZM154.143 180.675L151.835 181.395L154.018 184.647L154.185 184.595L154.142 180.676L154.143 180.675Z" fill="#9185FF"/>
  <path d="M141.164 182.601L137.993 182.308C137.998 181.519 137.385 180.952 136.253 180.848C135.295 180.759 134.798 180.994 134.745 181.551C134.592 183.152 140.942 181.985 140.459 187.048C140.351 188.179 139.864 189.046 138.977 189.683C138.09 190.321 136.94 190.583 135.494 190.449C132.638 190.185 131.017 188.561 131.123 185.989L134.432 186.296C134.425 186.927 134.888 187.408 135.777 187.491C136.56 187.564 137.077 187.313 137.121 186.843C137.281 185.173 130.746 186.428 131.218 181.488C131.336 180.252 131.869 179.284 132.829 178.6C133.789 177.934 135.045 177.664 136.63 177.81C138.216 177.957 139.398 178.452 140.177 179.315C140.956 180.177 141.293 181.243 141.169 182.549L141.164 182.601Z" fill="#9185FF"/>
  <path d="M131.281 177.432L127.143 188.954L122.532 187.313C120.193 186.481 118.902 184.128 119.741 181.791C120.514 179.485 123.201 178.363 125.435 179.231L126.885 179.747L128.12 176.306L131.282 177.431L131.281 177.432ZM125.926 182.414L124.806 182.016C124.015 181.735 123.26 182.079 122.953 182.935C122.652 183.774 123.028 184.484 123.819 184.765L124.939 185.163L125.926 182.415L125.926 182.414Z" fill="#9185FF"/>
  <path d="M122.518 174.004L116.442 184.64L113.525 182.983L119.6 172.347L122.517 174.003L122.518 174.004Z" fill="#9185FF"/>
  <path d="M118.473 172.049L110.255 181.14L107.465 178.627L109.1 170.933L109.022 170.863L104.455 175.915L102.054 173.752L110.272 164.661L113.061 167.174L111.427 174.868L111.505 174.938L116.072 169.886L118.473 172.049Z" fill="#9185FF"/>
  <path d="M90.232 149.917C89.9036 148.291 90.0776 146.848 90.7345 145.591C91.3879 144.317 92.3513 143.426 93.6377 142.897L94.3664 146.509C93.6084 147.003 93.161 148.056 93.406 149.271C93.5856 150.162 94.0223 150.821 94.7162 151.25C95.3895 151.665 96.1823 151.789 97.0569 151.61C97.9661 151.425 98.6653 150.997 99.1585 150.345C99.6482 149.675 99.7947 148.896 99.6156 148.006C99.3562 146.722 98.6141 145.875 97.9478 145.673L98.4662 148.24L95.8067 148.782L94.5527 142.568C94.7383 142.512 94.9098 142.477 95.0979 142.439C96.9334 142.065 98.5125 142.278 99.8649 143.055C101.345 143.929 102.28 145.379 102.684 147.381C103.455 151.198 101.297 154.311 97.746 155.035C94.1959 155.758 90.994 153.702 90.2311 149.917L90.232 149.917Z" fill="#9185FF"/>
  <path d="M101.707 141.092L89.4596 140.946L89.5084 137.592L101.756 137.738L101.707 141.092Z" fill="#9185FF"/>
  <path d="M89.2304 136.395L89.9488 132.705L97.8266 131.777L97.857 131.622L90.8945 127.85L91.5968 124.246L102.758 130.979L102.116 134.273L89.2304 136.395Z" fill="#9185FF"/>
  <path d="M103.476 127.847L92.2968 122.88L95.6061 115.488L98.1939 116.638L96.2561 120.964L97.9492 121.716L99.5862 118.06L102.174 119.21L100.537 122.866L102.246 123.625L104.254 119.138L106.858 120.295L103.476 127.847Z" fill="#9185FF"/>
  <path d="M110.001 116.069L100.743 108.086L102.942 105.544L112.201 113.527L110.001 116.069Z" fill="#9185FF"/>
  <path d="M105.766 106.42L103.923 104.207L111.584 97.8378L113.428 100.051L110.883 102.167L116.86 109.345L114.276 111.494L108.298 104.316L105.766 106.42Z" fill="#9185FF"/>
  <path d="M122.941 105.045L123.06 92.2035L127.222 90.905L134.675 101.385L131.249 102.454L130.165 100.853L126.187 102.094L126.201 104.028L122.941 105.045ZM126.142 98.9982L128.449 98.2785L126.266 95.0263L126.099 95.0784L126.142 98.9977L126.142 98.9982Z" fill="#9185FF"/>
  <path d="M139.12 97.0737L142.291 97.367C142.286 98.1559 142.899 98.7224 144.031 98.8268C144.989 98.9153 145.486 98.6806 145.539 98.1235C145.692 96.5227 139.342 97.6898 139.825 92.6272C139.933 91.4962 140.42 90.629 141.307 89.9914C142.194 89.3537 143.344 89.0918 144.79 89.2258C147.646 89.49 149.267 91.1142 149.161 93.6854L145.852 93.3786C145.859 92.748 145.396 92.2664 144.507 92.1835C143.724 92.1108 143.207 92.361 143.163 92.8314C143.003 94.5021 149.538 93.2464 149.066 98.1872C148.949 99.4226 148.416 100.391 147.455 101.075C146.495 101.741 145.239 102.011 143.654 101.865C142.068 101.718 140.886 101.222 140.107 100.36C139.328 99.4983 138.991 98.4315 139.115 97.1263L139.12 97.0737Z" fill="#9185FF"/>
  <path d="M149.002 102.243L153.141 90.721L157.752 92.362C160.09 93.194 161.382 95.5472 160.542 97.8843C159.77 100.19 157.082 101.312 154.849 100.445L153.399 99.9289L152.164 103.369L149.002 102.245L149.002 102.243ZM154.358 97.2616L155.478 97.6597C156.269 97.9411 157.024 97.5966 157.331 96.7409C157.632 95.9014 157.256 95.1919 156.465 94.9105L155.345 94.5124L154.358 97.2616Z" fill="#9185FF"/>
  <path d="M157.765 105.67L163.84 95.0328L166.758 96.6894L160.683 107.326L157.765 105.67Z" fill="#9185FF"/>
  <path d="M161.812 107.625L170.029 98.5345L172.819 101.047L171.185 108.741L171.263 108.812L175.83 103.759L178.231 105.922L170.013 115.013L167.223 112.5L168.857 104.806L168.78 104.736L164.213 109.788L161.812 107.625Z" fill="#9185FF"/>
  <defs>
    <linearGradient id="paint0_linear_467_1640" x1="201.29" y1="208.548" x2="79.1126" y2="65" gradientUnits="userSpaceOnUse">
      <stop stop-color="#5337FF"/>
      <stop offset="1" stop-color="#A175FF"/>
    </linearGradient>
  </defs>
</svg>
