<svg width="138" height="138" viewBox="0 0 138 138" fill="none" xmlns="http://www.w3.org/2000/svg">
<path d="M59.9358 5.43324C64.7994 0.0949883 73.2001 0.0949879 78.0637 5.43324C81.8164 9.55209 87.6242 11.1083 92.9335 9.41758C99.8147 7.22635 107.09 11.4267 108.633 18.4816C109.823 23.9249 114.075 28.1765 119.518 29.367C126.573 30.9099 130.773 38.1851 128.582 45.0662C126.891 50.3756 128.448 56.1833 132.567 59.936C137.905 64.7997 137.905 73.2003 132.567 78.064C128.448 81.8167 126.891 87.6244 128.582 92.9338C130.773 99.8149 126.573 107.09 119.518 108.633C114.075 109.824 109.823 114.075 108.633 119.518C107.09 126.573 99.8147 130.774 92.9335 128.582C87.6242 126.892 81.8164 128.448 78.0637 132.567C73.2001 137.905 64.7994 137.905 59.9358 132.567C56.1831 128.448 50.3754 126.892 45.066 128.582C38.1848 130.774 30.9097 126.573 29.3667 119.518C28.1763 114.075 23.9247 109.824 18.4813 108.633C11.4264 107.09 7.22611 99.8149 9.41734 92.9338C11.108 87.6244 9.55185 81.8167 5.43299 78.064C0.0947442 73.2003 0.0947437 64.7997 5.43299 59.936C9.55185 56.1833 11.108 50.3756 9.41734 45.0662C7.22611 38.1851 11.4264 30.9099 18.4813 29.367C23.9247 28.1765 28.1763 23.9249 29.3667 18.4816C30.9097 11.4267 38.1848 7.22635 45.066 9.41758C50.3753 11.1083 56.1831 9.55209 59.9358 5.43324Z" stroke="url(#paint0_linear_467_1642)" stroke-width="2"/>
<defs>
<linearGradient id="paint0_linear_467_1642" x1="130.29" y1="137.548" x2="8.11286" y2="-6" gradientUnits="userSpaceOnUse">
<stop stop-color="#5337FF"/>
<stop offset="1" stop-color="#A175FF"/>
</linearGradient>
</defs>
</svg>
