<svg xmlns="http://www.w3.org/2000/svg" width="119" height="117" viewBox="0 0 119 117" fill="none">
  <path d="M45.0578 3.75269L58.293 18.2548L70.4074 2.80417L76.0397 21.6127L93.6582 12.9484L90.572 32.338L110.205 32.1761L99.0116 48.3065L116.771 56.6792L99.6869 66.3555L112.055 81.6043L92.4643 82.9101L96.9908 102.015L78.7741 94.6914L74.5631 113.868L61.3279 99.3661L49.2135 114.817L43.5812 96.0082L25.9627 104.673L29.0489 85.2829L9.41588 85.4448L20.6093 69.3144L2.85032 60.9418L19.934 51.2654L7.56641 36.0166L27.1567 34.7109L22.6301 15.6061L40.8468 22.9295L45.0578 3.75269Z" fill="#17181A" fill-opacity="0.3" stroke="url(#paint0_linear_265_1301)" stroke-width="2"/>
  <defs>
    <linearGradient id="paint0_linear_265_1301" x1="100.116" y1="-11" x2="19.5054" y2="128.621" gradientUnits="userSpaceOnUse">
      <stop stop-color="#44FFDD"/>
      <stop offset="1" stop-color="#05C168"/>
    </linearGradient>
  </defs>
</svg>
