<?xml version="1.0" encoding="UTF-8"?>
<!-- Generated by Pixelmator Pro 3.4.1 -->
<svg width="513" height="513" viewBox="0 0 513 513" xmlns="http://www.w3.org/2000/svg">
    <path id="Path" fill="#f0f0ef" stroke="none" d="M 240.036697 60.322266 C 240.036697 51.916443 246.850967 45.102173 255.256805 45.102173 C 263.662628 45.102173 270.476898 51.916443 270.476898 60.322266 C 270.476898 68.728119 263.662628 75.542389 255.256805 75.542389 C 246.850967 75.542389 240.036697 68.728119 240.036697 60.322266 M 58.451752 198.119415 C 58.451752 189.713593 65.266022 182.899323 73.671852 182.899323 C 82.077682 182.899323 88.89196 189.713593 88.89196 198.119415 C 88.891953 206.525269 82.077682 213.339539 73.671852 213.339539 C 65.266022 213.339539 58.451752 206.525269 58.451752 198.119415 M 421.621643 198.823608 C 421.621643 190.417755 428.435913 183.603485 436.841736 183.603485 C 445.247589 183.603485 452.061829 190.417755 452.061829 198.823608 C 452.061829 207.229431 445.247589 214.043701 436.841736 214.043701 C 428.435913 214.043701 421.621643 207.229431 421.621643 198.823608 M 102.495628 219.72522 C 109.497383 216.598175 112.652794 208.398376 109.553528 201.384277 L 102.799706 186.11618 L 129.366867 186.11618 L 129.366867 305.82843 L 75.768417 305.82843 C 69.155029 282.595764 67.095367 258.30365 69.702782 234.289154 Z M 213.597565 222.670013 L 213.597565 187.380524 L 276.846588 187.380524 C 280.111481 187.380524 299.892822 191.157532 299.892822 205.945526 C 299.892822 218.236847 284.688751 222.654022 272.205353 222.654022 Z M 127.238297 412.657227 C 127.238297 404.251404 134.052567 397.437134 142.458389 397.437134 C 150.864227 397.437134 157.678497 404.251404 157.678497 412.657227 C 157.678497 421.063049 150.864227 427.877319 142.458389 427.877319 C 134.052567 427.877319 127.238297 421.063049 127.238297 412.657227 M 352.787079 413.36142 C 352.787079 404.955597 359.601349 398.141327 368.007202 398.141327 C 376.413025 398.141327 383.227295 404.955597 383.227295 413.36142 C 383.227295 421.767273 376.413025 428.581543 368.007202 428.581543 C 359.601349 428.581543 352.787079 421.767273 352.787079 413.36142 M 357.492371 378.840149 C 349.970306 377.239685 342.608337 382.008972 341.007904 389.515015 L 333.373871 425.172607 C 283.65564 447.69104 226.590866 447.416382 177.091736 424.42041 L 169.457672 388.762787 C 167.857239 381.240784 160.495255 376.471497 152.973236 378.087921 L 121.492744 384.841736 C 115.643524 378.8172 110.205811 372.406372 105.216362 365.652557 L 258.377625 365.652557 C 260.10611 365.652557 261.258423 365.332458 261.258423 363.764038 L 261.258423 309.589447 C 261.258423 307.989014 260.10611 307.700928 258.377625 307.700928 L 213.565552 307.700928 L 213.565552 273.355682 L 262.01059 273.355682 C 266.427795 273.355682 285.648987 274.636017 291.810669 299.186646 L 300.853058 339.197449 C 303.733856 347.999817 315.464996 365.652557 327.948395 365.652557 L 407.009705 365.652557 C 401.703613 372.749817 395.900818 379.461792 389.64502 385.737976 Z M 442.539276 235.793579 C 443.615692 246.607056 443.749573 257.493652 442.939362 268.330322 L 423.734222 268.330322 C 421.81369 268.330322 421.013489 269.610687 421.013489 271.483215 L 421.013489 280.317566 C 421.013489 301.123169 409.298309 305.60437 399.023529 306.772705 C 389.260895 307.893005 378.37796 302.675598 377.065643 296.689972 C 371.304077 264.233215 361.701477 257.319366 346.65744 245.316132 C 365.494507 233.34491 385.099762 215.70816 385.099762 192.069763 C 385.099762 166.558929 367.607086 150.49057 355.683868 142.616425 C 338.959351 131.573486 320.442352 129.380859 315.449005 129.380859 L 116.435379 129.380859 C 143.925385 98.664612 180.775558 77.86853 221.279633 70.212952 L 244.725967 94.811554 C 250.007385 100.365051 258.809753 100.57312 264.347229 95.259674 L 290.59433 70.180939 C 344.707336 80.313202 391.628204 113.726135 418.900909 161.549561 L 400.944061 202.104492 C 397.844788 209.118622 401.000214 217.31839 408.001984 220.445435 Z M 487.319336 236.433746 L 486.711182 230.160034 L 505.212158 212.90741 C 508.973175 209.386444 507.564789 202.344574 502.763519 200.552063 L 479.125122 191.717682 L 477.268616 185.636047 L 491.992615 165.150513 C 495.001404 160.98941 492.232666 154.347626 487.191315 153.515381 L 462.256592 149.466309 L 459.263763 143.864777 L 469.746613 120.866577 C 471.891174 116.177338 467.906128 110.191711 462.752716 110.383759 L 437.465912 111.263977 L 433.464844 106.414703 L 439.274384 81.768066 C 440.442688 76.758728 435.369324 71.685333 430.359985 72.853638 L 405.713348 78.663208 L 400.848053 74.66214 L 401.728271 49.375336 C 401.920319 44.253967 395.934692 40.252869 391.261444 42.381439 L 368.279266 52.864288 L 362.677734 49.855438 L 358.612671 24.920746 C 357.812408 19.863373 351.138641 17.110626 346.977509 20.119415 L 326.492004 34.843384 L 320.410339 33.002899 L 311.575958 9.364532 C 309.783478 4.563232 302.725586 3.154877 299.220642 6.899872 L 281.968018 25.400848 L 275.694305 24.792694 L 262.378723 3.266907 C 259.690002 -1.086304 252.456039 -1.086304 249.783325 3.266907 L 236.467743 24.792694 L 230.194046 25.400848 L 212.909393 6.867859 C 209.388428 3.122833 202.346542 4.515259 200.554047 9.33252 L 191.719666 32.970917 L 185.638031 34.811401 L 165.152512 20.087433 C 160.991394 17.078644 154.333603 19.847351 153.51738 24.888733 L 149.452286 49.823456 L 143.850769 52.832245 L 120.868576 42.349426 C 116.19532 40.220856 110.193703 44.221924 110.401756 49.343292 L 111.28199 74.630127 L 106.416679 78.631195 L 81.770035 72.821655 C 76.760681 71.653351 71.687317 76.726685 72.855637 81.736053 L 78.665199 106.38266 L 74.664116 111.231995 L 49.377304 110.351746 C 44.255924 110.191711 40.254848 116.145294 42.383423 120.834595 L 52.866249 143.832764 L 49.857437 149.434296 L 24.922716 153.483368 C 19.865353 154.283569 17.11261 160.957367 20.121422 165.11853 L 34.84539 185.604034 L 32.988888 191.685699 L 9.350519 200.52005 C 4.549225 202.312531 3.140845 209.370453 6.901859 212.875397 L 25.402845 230.128052 L 24.794682 236.401703 L 3.26888 249.717316 C -1.084293 252.406036 -1.084293 259.640015 3.26888 262.312744 L 24.794682 275.628296 L 25.402845 281.901978 L 6.853846 299.218689 C 3.108837 302.739624 4.501212 309.781494 9.302506 311.573975 L 32.940876 320.408386 L 34.797379 326.48999 L 20.07341 346.975525 C 17.080603 351.136658 19.833345 357.794434 24.874702 358.610687 L 49.793419 362.659729 L 52.802231 368.261261 L 42.319405 391.243469 C 40.19083 395.916718 44.207912 401.918335 49.31329 401.726257 L 74.600105 400.846069 L 78.601189 405.711365 L 72.791618 430.358032 C 71.623306 435.351318 76.696671 440.440735 81.706017 439.256409 L 106.352661 433.446838 L 111.217979 437.447906 L 110.337738 462.734711 C 110.145683 467.85611 116.131294 471.857178 120.804558 469.728607 L 143.786758 459.245789 L 149.388275 462.254608 L 153.453354 487.173309 C 154.253586 492.246674 160.927368 494.983429 165.088501 492.006622 L 185.57402 477.25061 L 191.655655 479.107147 L 200.490036 502.745514 C 202.282516 507.546814 209.340424 508.9552 212.845352 505.194153 L 230.098007 486.693176 L 236.371704 487.333374 L 249.687286 508.859161 C 252.376022 513.180359 259.577972 513.212341 262.282684 508.859161 L 275.598267 487.333374 L 281.871979 486.693176 L 299.124603 505.194153 C 302.645569 508.9552 309.687439 507.546814 311.47995 502.745514 L 320.314331 479.107147 L 326.395966 477.25061 L 346.8815 492.006622 C 351.042633 494.99942 357.700378 492.246674 358.516632 487.173309 L 362.581726 462.254608 L 368.183228 459.245789 L 391.165436 469.728607 C 395.838684 471.857178 401.82428 467.872131 401.632233 462.734711 L 400.752014 437.447906 L 405.601318 433.446838 L 430.247955 439.256409 C 435.257294 440.424713 440.330658 435.351318 439.162354 430.358032 L 433.352814 405.711365 L 437.353882 400.846069 L 462.640686 401.726257 C 467.762085 401.934326 471.763153 395.916718 469.634583 391.243469 L 459.151733 368.261261 L 462.144562 362.659729 L 487.079285 358.610687 C 492.152649 357.810425 494.921387 351.152649 491.880585 346.975525 L 477.156586 326.48999 L 479.013092 320.408386 L 502.651489 311.573975 C 507.452759 309.765503 508.861145 302.723602 505.100128 299.218689 L 486.599152 281.966003 L 487.207306 275.692322 L 508.733093 262.37674 C 513.086304 259.687988 513.102295 252.486084 508.733093 249.781342 Z"/>
</svg>
