<svg version="1.1" viewBox="0.0 0.0 600.0 371.0" fill="none" stroke="none" stroke-linecap="square" stroke-miterlimit="10" width="600" height="371" xmlns:xlink="http://www.w3.org/1999/xlink" xmlns="http://www.w3.org/2000/svg"><path fill="#ffffff" d="M0 0L600.0 0L600.0 371.0L0 371.0L0 0Z" fill-rule="nonzero"/><path stroke="#333333" stroke-width="1.0" stroke-linecap="butt" d="M77.5 332.5L581.5 332.5" fill-rule="nonzero"/><path stroke="#cccccc" stroke-width="1.0" stroke-linecap="butt" d="M77.5 271.5L581.5 271.5" fill-rule="nonzero"/><path stroke="#cccccc" stroke-width="1.0" stroke-linecap="butt" d="M77.5 210.5L581.5 210.5" fill-rule="nonzero"/><path stroke="#cccccc" stroke-width="1.0" stroke-linecap="butt" d="M77.5 149.5L581.5 149.5" fill-rule="nonzero"/><path stroke="#cccccc" stroke-width="1.0" stroke-linecap="butt" d="M77.5 88.5L581.5 88.5" fill-rule="nonzero"/><clipPath id="id_0"><path d="M77.55 88.28333L581.45 88.28333L581.45 332.45L77.55 332.45L77.55 88.28333Z" clip-rule="nonzero"/></clipPath><path stroke="#000000" stroke-width="2.0" stroke-linecap="butt" stroke-opacity="0.0" clip-path="url(#id_0)" d="M329.0 332.0L210.0 332.0L210.0 99.0C210.0 97.89543 210.89543 97.0 212.0 97.0L327.0 97.0C328.10458 97.0 329.0 97.89543 329.0 99.0Z" fill-rule="nonzero"/><path fill="#4285f4" clip-path="url(#id_0)" d="M329.0 332.0L210.0 332.0L210.0 99.0C210.0 97.89543 210.89543 97.0 212.0 97.0L327.0 97.0C328.10458 97.0 329.0 97.89543 329.0 99.0Z" fill-rule="nonzero"/><path stroke="#000000" stroke-width="2.0" stroke-linecap="butt" stroke-opacity="0.0" clip-path="url(#id_0)" d="M450.0 332.0L331.0 332.0L331.0 311.0C331.0 309.89542 331.89542 309.0 333.0 309.0L448.0 309.0C449.10458 309.0 450.0 309.89542 450.0 311.0Z" fill-rule="nonzero"/><path fill="#ea4335" clip-path="url(#id_0)" d="M450.0 332.0L331.0 332.0L331.0 311.0C331.0 309.89542 331.89542 309.0 333.0 309.0L448.0 309.0C449.10458 309.0 450.0 309.89542 450.0 311.0Z" fill-rule="nonzero"/><path fill="#000000" d="M29.550013 273.8823L20.956263 270.58542L20.956263 269.36667L29.550013 265.85104L29.550013 267.1323L26.940638 268.14792L26.940638 271.72604L29.550013 272.67917L29.550013 273.8823ZM26.018763 271.39792L26.018763 268.49167L23.643763 269.3823Q22.565638 269.80417 21.862513 269.99167Q22.690638 270.16354 23.503138 270.46042L26.018763 271.39792ZM29.550013 264.35104L23.331263 266.71042L23.331263 265.60104L27.050013 264.2573Q27.659388 264.05417 28.300013 263.86667Q27.815638 263.72604 27.128138 263.47604L23.331263 262.08542L23.331263 261.0073L29.550013 263.36667L29.550013 264.35104ZM27.550013 256.8198L27.675013 255.72604Q28.628138 255.97604 29.159388 256.67917Q29.690638 257.3823 29.690638 258.46042Q29.690638 259.8198 28.846888 260.6323Q28.003138 261.42917 26.487513 261.42917Q24.925013 261.42917 24.065638 260.61667Q23.190638 259.80417 23.190638 258.52292Q23.190638 257.27292 24.034388 256.49167Q24.878138 255.6948 26.425013 255.6948Q26.518763 255.6948 26.706263 255.6948L26.706263 260.33542Q27.737513 260.27292 28.284388 259.7573Q28.815638 259.24167 28.815638 258.46042Q28.815638 257.8823 28.518763 257.47604Q28.206263 257.05417 27.550013 256.8198ZM25.846888 260.27292L25.846888 256.80417Q25.050013 256.86667 24.659388 257.1948Q24.050013 257.71042 24.050013 258.5073Q24.050013 259.24167 24.534388 259.74167Q25.018763 260.22604 25.846888 260.27292ZM29.550013 254.08542L23.331263 254.08542L23.331263 253.1323L24.268763 253.1323Q23.612513 252.77292 23.409388 252.47604Q23.190638 252.16354 23.190638 251.78854Q23.190638 251.2573 23.518763 250.71042L24.503138 251.0698Q24.268763 251.46042 24.268763 251.83542Q24.268763 252.1948 24.487513 252.47604Q24.690638 252.74167 25.065638 252.85104Q25.628138 253.03854 26.284388 253.03854L29.550013 253.03854L29.550013 254.08542ZM28.784388 246.0073Q29.284388 246.60104 29.487513 247.14792Q29.690638 247.67917 29.690638 248.30417Q29.690638 249.33542 29.190638 249.8823Q28.690638 250.42917 27.909388 250.42917Q27.456263 250.42917 27.081263 250.22604Q26.690638 250.02292 26.471888 249.67917Q26.237513 249.33542 26.128138 248.91354Q26.034388 248.61667 25.956263 247.97604Q25.815638 246.71042 25.596888 246.10104Q25.378138 246.10104 25.331263 246.10104Q24.675013 246.10104 24.409388 246.39792Q24.065638 246.80417 24.065638 247.60104Q24.065638 248.33542 24.331263 248.6948Q24.581263 249.05417 25.237513 249.22604L25.096888 250.2573Q24.440638 250.11667 24.034388 249.78854Q23.628138 249.46042 23.409388 248.85104Q23.190638 248.24167 23.190638 247.4448Q23.190638 246.64792 23.378138 246.14792Q23.565638 245.64792 23.846888 245.41354Q24.128138 245.17917 24.565638 245.08542Q24.831263 245.03854 25.534388 245.03854L26.940638 245.03854Q28.409388 245.03854 28.800013 244.97604Q29.190638 244.89792 29.550013 244.6948L29.550013 245.80417Q29.221888 245.96042 28.784388 246.0073ZM26.425013 246.10104Q26.659388 246.67917 26.831263 247.8198Q26.925013 248.47604 27.050013 248.74167Q27.159388 249.0073 27.378138 249.16354Q27.596888 249.30417 27.878138 249.30417Q28.300013 249.30417 28.581263 248.99167Q28.862513 248.66354 28.862513 248.05417Q28.862513 247.4448 28.596888 246.97604Q28.331263 246.49167 27.862513 246.27292Q27.503138 246.10104 26.815638 246.10104L26.425013 246.10104ZM30.065638 243.27292L30.221888 242.24167Q30.690638 242.17917 30.909388 241.8823Q31.206263 241.49167 31.206263 240.8198Q31.206263 240.08542 30.909388 239.6948Q30.612513 239.28854 30.096888 239.14792Q29.768763 239.05417 28.737513 239.0698Q29.550013 239.7573 29.550013 240.78854Q29.550013 242.0698 28.628138 242.77292Q27.690638 243.47604 26.409388 243.47604Q25.518763 243.47604 24.768763 243.16354Q24.003138 242.83542 23.596888 242.22604Q23.190638 241.61667 23.190638 240.78854Q23.190638 239.67917 24.081263 238.96042L23.331263 238.96042L23.331263 237.99167L28.706263 237.99167Q30.159388 237.99167 30.768763 238.28854Q31.378138 238.58542 31.721888 239.22604Q32.08126 239.86667 32.08126 240.80417Q32.08126 241.91354 31.581263 242.60104Q31.081263 243.28854 30.065638 243.27292ZM26.331263 242.39792Q27.550013 242.39792 28.112513 241.91354Q28.675013 241.42917 28.675013 240.6948Q28.675013 239.96042 28.112513 239.47604Q27.550013 238.97604 26.362513 238.97604Q25.221888 238.97604 24.643763 239.49167Q24.065638 239.99167 24.065638 240.71042Q24.065638 241.41354 24.643763 241.91354Q25.206263 242.39792 26.331263 242.39792ZM27.550013 231.8198L27.675013 230.72604Q28.628138 230.97604 29.159388 231.67917Q29.690638 232.3823 29.690638 233.46042Q29.690638 234.8198 28.846888 235.6323Q28.003138 236.42917 26.487513 236.42917Q24.925013 236.42917 24.065638 235.61667Q23.190638 234.80417 23.190638 233.52292Q23.190638 232.27292 24.034388 231.49167Q24.878138 230.6948 26.425013 230.6948Q26.518763 230.6948 26.706263 230.6948L26.706263 235.33542Q27.737513 235.27292 28.284388 234.7573Q28.815638 234.24167 28.815638 233.46042Q28.815638 232.8823 28.518763 232.47604Q28.206263 232.05417 27.550013 231.8198ZM25.846888 235.27292L25.846888 231.80417Q25.050013 231.86667 24.659388 232.1948Q24.050013 232.71042 24.050013 233.5073Q24.050013 234.24167 24.534388 234.74167Q25.018763 235.22604 25.846888 235.27292ZM29.550013 226.10104L20.956263 226.10104L20.956263 225.03854L29.550013 225.03854L29.550013 226.10104ZM28.784388 219.0073Q29.284388 219.60104 29.487513 220.14792Q29.690638 220.67917 29.690638 221.30417Q29.690638 222.33542 29.190638 222.8823Q28.690638 223.42917 27.909388 223.42917Q27.456263 223.42917 27.081263 223.22604Q26.690638 223.02292 26.471888 222.67917Q26.237513 222.33542 26.128138 221.91354Q26.034388 221.61667 25.956263 220.97604Q25.815638 219.71042 25.596888 219.10104Q25.378138 219.10104 25.331263 219.10104Q24.675013 219.10104 24.409388 219.39792Q24.065638 219.80417 24.065638 220.60104Q24.065638 221.33542 24.331263 221.6948Q24.581263 222.05417 25.237513 222.22604L25.096888 223.2573Q24.440638 223.11667 24.034388 222.78854Q23.628138 222.46042 23.409388 221.85104Q23.190638 221.24167 23.190638 220.4448Q23.190638 219.64792 23.378138 219.14792Q23.565638 218.64792 23.846888 218.41354Q24.128138 218.17917 24.565638 218.08542Q24.831263 218.03854 25.534388 218.03854L26.940638 218.03854Q28.409388 218.03854 28.800013 217.97604Q29.190638 217.89792 29.550013 217.6948L29.550013 218.80417Q29.221888 218.96042 28.784388 219.0073ZM26.425013 219.10104Q26.659388 219.67917 26.831263 220.8198Q26.925013 221.47604 27.050013 221.74167Q27.159388 222.0073 27.378138 222.16354Q27.596888 222.30417 27.878138 222.30417Q28.300013 222.30417 28.581263 221.99167Q28.862513 221.66354 28.862513 221.05417Q28.862513 220.4448 28.596888 219.97604Q28.331263 219.49167 27.862513 219.27292Q27.503138 219.10104 26.815638 219.10104L26.425013 219.10104ZM28.612513 213.77292L29.534388 213.61667Q29.628138 214.0698 29.628138 214.41354Q29.628138 214.99167 29.456263 215.30417Q29.268763 215.61667 28.971888 215.7573Q28.675013 215.8823 27.721888 215.8823L24.143763 215.8823L24.143763 216.64792L23.331263 216.64792L23.331263 215.8823L21.784388 215.8823L21.159388 214.83542L23.331263 214.83542L23.331263 213.77292L24.143763 213.77292L24.143763 214.83542L27.784388 214.83542Q28.237513 214.83542 28.362513 214.78854Q28.487513 214.72604 28.565638 214.60104Q28.643763 214.47604 28.643763 214.24167Q28.643763 214.05417 28.612513 213.77292ZM27.550013 208.8198L27.675013 207.72604Q28.628138 207.97604 29.159388 208.67917Q29.690638 209.3823 29.690638 210.46042Q29.690638 211.8198 28.846888 212.6323Q28.003138 213.42917 26.487513 213.42917Q24.925013 213.42917 24.065638 212.61667Q23.190638 211.80417 23.190638 210.52292Q23.190638 209.27292 24.034388 208.49167Q24.878138 207.6948 26.425013 207.6948Q26.518763 207.6948 26.706263 207.6948L26.706263 212.33542Q27.737513 212.27292 28.284388 211.7573Q28.815638 211.24167 28.815638 210.46042Q28.815638 209.8823 28.518763 209.47604Q28.206263 209.05417 27.550013 208.8198ZM25.846888 212.27292L25.846888 208.80417Q25.050013 208.86667 24.659388 209.1948Q24.050013 209.71042 24.050013 210.5073Q24.050013 211.24167 24.534388 211.74167Q25.018763 212.22604 25.846888 212.27292ZM29.550013 206.0698L23.331263 206.0698L23.331263 205.1323L24.206263 205.1323Q23.190638 204.4448 23.190638 203.14792Q23.190638 202.58542 23.393763 202.11667Q23.596888 201.6323 23.925013 201.39792Q24.253138 201.16354 24.690638 201.0698Q24.987513 201.02292 25.721888 201.02292L29.550013 201.02292L29.550013 202.0698L25.768763 202.0698Q25.112513 202.0698 24.800013 202.1948Q24.487513 202.3198 24.300013 202.6323Q24.096888 202.9448 24.096888 203.36667Q24.096888 204.03854 24.534388 204.53854Q24.956263 205.02292 26.143763 205.02292L29.550013 205.02292L29.550013 206.0698ZM27.268763 195.0073L27.409388 193.97604Q28.471888 194.14792 29.081263 194.85104Q29.690638 195.55417 29.690638 196.5698Q29.690638 197.85104 28.862513 198.6323Q28.018763 199.39792 26.456263 199.39792Q25.456263 199.39792 24.706263 199.0698Q23.940638 198.72604 23.565638 198.05417Q23.190638 197.36667 23.190638 196.55417Q23.190638 195.55417 23.706263 194.91354Q24.206263 194.2573 25.159388 194.0698L25.315638 195.10104Q24.690638 195.24167 24.378138 195.61667Q24.050013 195.99167 24.050013 196.52292Q24.050013 197.3198 24.628138 197.8198Q25.190638 198.3198 26.425013 198.3198Q27.690638 198.3198 28.253138 197.83542Q28.815638 197.35104 28.815638 196.58542Q28.815638 195.96042 28.440638 195.55417Q28.065638 195.1323 27.268763 195.0073ZM31.940638 193.11667L30.956263 193.24167Q31.050013 192.89792 31.050013 192.6323Q31.050013 192.28854 30.925013 192.08542Q30.815638 191.86667 30.612513 191.72604Q30.440638 191.6323 29.815638 191.39792Q29.737513 191.3823 29.565638 191.30417L23.331263 193.67917L23.331263 192.53854L26.925013 191.24167Q27.612513 190.99167 28.378138 190.78854Q27.643763 190.60104 26.956263 190.35104L23.331263 189.02292L23.331263 187.97604L29.659388 190.33542Q30.675013 190.72604 31.065638 190.92917Q31.596888 191.21042 31.831263 191.58542Q32.08126 191.9448 32.08126 192.4448Q32.08126 192.74167 31.940638 193.11667ZM32.08126 183.05417Q30.971888 183.92917 29.503138 184.53854Q28.018763 185.1323 26.440638 185.1323Q25.050013 185.1323 23.768763 184.6948Q22.284388 184.16354 20.815638 183.05417L20.815638 182.30417Q22.034388 183.0073 22.550013 183.24167Q23.362513 183.60104 24.237513 183.80417Q25.331263 184.05417 26.440638 184.05417Q29.268763 184.05417 32.08126 182.30417L32.08126 183.05417ZM29.550013 181.0698L23.331263 181.0698L23.331263 180.1323L24.206263 180.1323Q23.737513 179.83542 23.471888 179.35104Q23.190638 178.86667 23.190638 178.24167Q23.190638 177.55417 23.471888 177.11667Q23.753138 176.66354 24.268763 176.49167Q23.190638 175.74167 23.190638 174.5698Q23.190638 173.6323 23.706263 173.14792Q24.206263 172.64792 25.284388 172.64792L29.550013 172.64792L29.550013 173.6948L25.628138 173.6948Q25.003138 173.6948 24.721888 173.80417Q24.440638 173.89792 24.268763 174.16354Q24.096888 174.42917 24.096888 174.80417Q24.096888 175.46042 24.534388 175.89792Q24.971888 176.3198 25.940638 176.3198L29.550013 176.3198L29.550013 177.3823L25.503138 177.3823Q24.800013 177.3823 24.456263 177.64792Q24.096888 177.89792 24.096888 178.47604Q24.096888 178.92917 24.331263 179.30417Q24.565638 179.67917 25.018763 179.85104Q25.471888 180.02292 26.315638 180.02292L29.550013 180.02292L29.550013 181.0698ZM27.690638 170.49167L27.534388 169.46042Q28.159388 169.36667 28.487513 168.97604Q28.815638 168.5698 28.815638 167.83542Q28.815638 167.11667 28.534388 166.77292Q28.237513 166.41354 27.831263 166.41354Q27.471888 166.41354 27.268763 166.72604Q27.128138 166.9448 26.909388 167.80417Q26.612513 168.96042 26.409388 169.41354Q26.190638 169.85104 25.815638 170.08542Q25.440638 170.3198 24.971888 170.3198Q24.565638 170.3198 24.206263 170.1323Q23.846888 169.9448 23.612513 169.61667Q23.440638 169.36667 23.315638 168.9448Q23.190638 168.52292 23.190638 168.02292Q23.190638 167.30417 23.409388 166.7573Q23.612513 166.1948 23.971888 165.92917Q24.331263 165.66354 24.925013 165.5698L25.065638 166.60104Q24.596888 166.66354 24.331263 167.0073Q24.050013 167.33542 24.050013 167.96042Q24.050013 168.67917 24.300013 168.99167Q24.534388 169.30417 24.862513 169.30417Q25.065638 169.30417 25.221888 169.17917Q25.393763 169.03854 25.503138 168.77292Q25.565638 168.61667 25.768763 167.83542Q26.081263 166.71042 26.268763 166.27292Q26.456263 165.83542 26.815638 165.58542Q27.175013 165.33542 27.721888 165.33542Q28.253138 165.33542 28.721888 165.64792Q29.175013 165.9448 29.440638 166.52292Q29.690638 167.10104 29.690638 167.83542Q29.690638 169.05417 29.190638 169.6948Q28.675013 170.3198 27.690638 170.49167ZM32.08126 162.3823L32.08126 163.1323Q29.268763 161.3823 26.440638 161.3823Q25.346888 161.3823 24.253138 161.6323Q23.378138 161.83542 22.565638 162.1948Q22.050013 162.42917 20.815638 163.1323L20.815638 162.3823Q22.284388 161.28854 23.768763 160.7573Q25.050013 160.30417 26.440638 160.30417Q28.018763 160.30417 29.503138 160.91354Q30.971888 161.52292 32.08126 162.3823Z" fill-rule="nonzero"/><path fill="#000000" d="M65.05 332.21564Q65.05 330.6844 65.3625 329.7625Q65.675 328.825 66.28438 328.325Q66.90938 327.825 67.84688 327.825Q68.53438 327.825 69.05 328.10626Q69.58125 328.3875 69.925 328.91876Q70.26875 329.4344 70.45625 330.1844Q70.64375 330.9344 70.64375 332.21564Q70.64375 333.73126 70.33125 334.65314Q70.03438 335.575 69.40938 336.09064Q68.8 336.59064 67.84688 336.59064Q66.6125 336.59064 65.89375 335.7Q65.05 334.6375 65.05 332.21564ZM66.12813 332.21564Q66.12813 334.325 66.62813 335.02814Q67.12813 335.73126 67.84688 335.73126Q68.58125 335.73126 69.06563 335.02814Q69.56563 334.325 69.56563 332.21564Q69.56563 330.09064 69.06563 329.40314Q68.58125 328.7 67.83125 328.7Q67.1125 328.7 66.675 329.3094Q66.12813 330.09064 66.12813 332.21564Z" fill-rule="nonzero"/><path fill="#000000" d="M63.596874 274.3927L63.596874 275.40833L57.909374 275.40833Q57.909374 275.03333 58.034374 274.67395Q58.253124 274.09583 58.721874 273.53333Q59.20625 272.97083 60.1125 272.23645Q61.51875 271.0802 62.003124 270.40833Q62.503124 269.73645 62.503124 269.1427Q62.503124 268.5177 62.05 268.09583Q61.596874 267.65833 60.878124 267.65833Q60.1125 267.65833 59.659374 268.11145Q59.20625 268.56458 59.190624 269.37708L58.1125 269.2677Q58.221874 268.04895 58.940624 267.42395Q59.675 266.78333 60.909374 266.78333Q62.14375 266.78333 62.8625 267.47083Q63.58125 268.15833 63.58125 269.17395Q63.58125 269.68958 63.3625 270.18958Q63.159374 270.67395 62.659374 271.23645Q62.175 271.78333 61.05 272.73645Q60.096874 273.53333 59.815624 273.8302Q59.55 274.11145 59.378124 274.3927L63.596874 274.3927ZM65.05 271.17395Q65.05 269.6427 65.3625 268.72083Q65.675 267.78333 66.28438 267.28333Q66.90938 266.78333 67.84688 266.78333Q68.53438 266.78333 69.05 267.06458Q69.58125 267.34583 69.925 267.87708Q70.26875 268.3927 70.45625 269.1427Q70.64375 269.8927 70.64375 271.17395Q70.64375 272.68958 70.33125 273.61145Q70.03438 274.53333 69.40938 275.04895Q68.8 275.54895 67.84688 275.54895Q66.6125 275.54895 65.89375 274.65833Q65.05 273.59583 65.05 271.17395ZM66.12813 271.17395Q66.12813 273.28333 66.62813 273.98645Q67.12813 274.68958 67.84688 274.68958Q68.58125 274.68958 69.06563 273.98645Q69.56563 273.28333 69.56563 271.17395Q69.56563 269.04895 69.06563 268.36145Q68.58125 267.65833 67.83125 267.65833Q67.1125 267.65833 66.675 268.2677Q66.12813 269.04895 66.12813 271.17395Z" fill-rule="nonzero"/><path fill="#000000" d="M61.425 214.36667L61.425 212.30417L57.70625 212.30417L57.70625 211.33542L61.628124 205.77292L62.4875 205.77292L62.4875 211.33542L63.64375 211.33542L63.64375 212.30417L62.4875 212.30417L62.4875 214.36667L61.425 214.36667ZM61.425 211.33542L61.425 207.47604L58.7375 211.33542L61.425 211.33542ZM65.05 210.1323Q65.05 208.60104 65.3625 207.67917Q65.675 206.74167 66.28438 206.24167Q66.90938 205.74167 67.84688 205.74167Q68.53438 205.74167 69.05 206.02292Q69.58125 206.30417 69.925 206.83542Q70.26875 207.35104 70.45625 208.10104Q70.64375 208.85104 70.64375 210.1323Q70.64375 211.64792 70.33125 212.5698Q70.03438 213.49167 69.40938 214.0073Q68.8 214.5073 67.84688 214.5073Q66.6125 214.5073 65.89375 213.61667Q65.05 212.55417 65.05 210.1323ZM66.12813 210.1323Q66.12813 212.24167 66.62813 212.9448Q67.12813 213.64792 67.84688 213.64792Q68.58125 213.64792 69.06563 212.9448Q69.56563 212.24167 69.56563 210.1323Q69.56563 208.0073 69.06563 207.3198Q68.58125 206.61667 67.83125 206.61667Q67.1125 206.61667 66.675 207.22604Q66.12813 208.0073 66.12813 210.1323Z" fill-rule="nonzero"/><path fill="#000000" d="M63.51875 146.84062L62.471874 146.91875Q62.33125 146.29375 62.08125 146.0125Q61.64375 145.55937 61.01875 145.55937Q60.51875 145.55937 60.128124 145.84062Q59.64375 146.21562 59.346874 146.91875Q59.065624 147.60625 59.05 148.8875Q59.425 148.30937 59.971874 148.02812Q60.534374 147.74687 61.14375 147.74687Q62.190624 147.74687 62.925 148.52812Q63.675 149.30937 63.675 150.52812Q63.675 151.34062 63.315624 152.04375Q62.971874 152.73125 62.3625 153.10625Q61.753124 153.46562 60.9875 153.46562Q59.659374 153.46562 58.83125 152.49687Q58.003124 151.52812 58.003124 149.30937Q58.003124 146.80937 58.925 145.68437Q59.721874 144.7 61.08125 144.7Q62.096874 144.7 62.7375 145.27812Q63.39375 145.84062 63.51875 146.84062ZM59.221874 150.54375Q59.221874 151.09062 59.440624 151.59062Q59.675 152.075 60.08125 152.34062Q60.503124 152.60625 60.971874 152.60625Q61.628124 152.60625 62.1125 152.075Q62.596874 151.52812 62.596874 150.60625Q62.596874 149.71562 62.1125 149.2Q61.64375 148.68437 60.925 148.68437Q60.20625 148.68437 59.70625 149.2Q59.221874 149.71562 59.221874 150.54375ZM65.05 149.09062Q65.05 147.55937 65.3625 146.6375Q65.675 145.7 66.28438 145.2Q66.90938 144.7 67.84688 144.7Q68.53438 144.7 69.05 144.98125Q69.58125 145.2625 69.925 145.79375Q70.26875 146.30937 70.45625 147.05937Q70.64375 147.80937 70.64375 149.09062Q70.64375 150.60625 70.33125 151.52812Q70.03438 152.45 69.40938 152.96562Q68.8 153.46562 67.84688 153.46562Q66.6125 153.46562 65.89375 152.575Q65.05 151.5125 65.05 149.09062ZM66.12813 149.09062Q66.12813 151.2 66.62813 151.90312Q67.12813 152.60625 67.84688 152.60625Q68.58125 152.60625 69.06563 151.90312Q69.56563 151.2 69.56563 149.09062Q69.56563 146.96562 69.06563 146.27812Q68.58125 145.575 67.83125 145.575Q67.1125 145.575 66.675 146.18437Q66.12813 146.96562 66.12813 149.09062Z" fill-rule="nonzero"/><path fill="#000000" d="M59.675 87.62708Q59.01875 87.37708 58.690624 86.93958Q58.378124 86.48646 58.378124 85.87708Q58.378124 84.93958 59.05 84.29896Q59.7375 83.65833 60.846874 83.65833Q61.971874 83.65833 62.659374 84.31458Q63.346874 84.97083 63.346874 85.90833Q63.346874 86.50208 63.034374 86.93958Q62.721874 87.37708 62.08125 87.62708Q62.878124 87.87708 63.284374 88.45521Q63.690624 89.03333 63.690624 89.83021Q63.690624 90.92396 62.909374 91.67396Q62.14375 92.42396 60.8625 92.42396Q59.596874 92.42396 58.815624 91.67396Q58.034374 90.92396 58.034374 89.79896Q58.034374 88.95521 58.45625 88.39271Q58.89375 87.83021 59.675 87.62708ZM59.45625 85.83021Q59.45625 86.43958 59.846874 86.83021Q60.253124 87.22083 60.878124 87.22083Q61.4875 87.22083 61.878124 86.84583Q62.26875 86.45521 62.26875 85.89271Q62.26875 85.31458 61.8625 84.92396Q61.45625 84.51771 60.8625 84.51771Q60.253124 84.51771 59.846874 84.90833Q59.45625 85.29896 59.45625 85.83021ZM59.128124 89.79896Q59.128124 90.25208 59.33125 90.67396Q59.55 91.09583 59.971874 91.33021Q60.39375 91.56458 60.878124 91.56458Q61.628124 91.56458 62.1125 91.08021Q62.6125 90.59583 62.6125 89.84583Q62.6125 89.08021 62.1125 88.58021Q61.6125 88.08021 60.846874 88.08021Q60.096874 88.08021 59.6125 88.58021Q59.128124 89.06458 59.128124 89.79896ZM65.05 88.04896Q65.05 86.51771 65.3625 85.59583Q65.675 84.65833 66.28438 84.15833Q66.90938 83.65833 67.84688 83.65833Q68.53438 83.65833 69.05 83.93958Q69.58125 84.22083 69.925 84.75208Q70.26875 85.26771 70.45625 86.01771Q70.64375 86.76771 70.64375 88.04896Q70.64375 89.56458 70.33125 90.48646Q70.03438 91.40833 69.40938 91.92396Q68.8 92.42396 67.84688 92.42396Q66.6125 92.42396 65.89375 91.53333Q65.05 90.47083 65.05 88.04896ZM66.12813 88.04896Q66.12813 90.15833 66.62813 90.86146Q67.12813 91.56458 67.84688 91.56458Q68.58125 91.56458 69.06563 90.86146Q69.56563 90.15833 69.56563 88.04896Q69.56563 85.92396 69.06563 85.23646Q68.58125 84.53333 67.83125 84.53333Q67.1125 84.53333 66.675 85.14271Q66.12813 85.92396 66.12813 88.04896Z" fill-rule="nonzero"/><path fill="#000000" d="M272.48438 349.45L275.78125 340.85626L277.0 340.85626L280.51562 349.45L279.23438 349.45L278.21875 346.84064L274.64062 346.84064L273.6875 349.45L272.48438 349.45ZM274.96875 345.91876L277.875 345.91876L276.98438 343.54376Q276.5625 342.46564 276.375 341.7625Q276.20312 342.59064 275.90625 343.40314L274.96875 345.91876ZM282.01562 349.45L279.65625 343.23126L280.76562 343.23126L282.10938 346.95Q282.3125 347.5594 282.5 348.2Q282.64062 347.71564 282.89062 347.02814L284.28125 343.23126L285.35938 343.23126L283.0 349.45L282.01562 349.45ZM289.54688 347.45L290.64062 347.575Q290.39062 348.52814 289.6875 349.0594Q288.98438 349.59064 287.90625 349.59064Q286.54688 349.59064 285.73438 348.7469Q284.9375 347.90314 284.9375 346.3875Q284.9375 344.825 285.75 343.96564Q286.5625 343.09064 287.84375 343.09064Q289.09375 343.09064 289.875 343.9344Q290.67188 344.77814 290.67188 346.325Q290.67188 346.41876 290.67188 346.60626L286.03125 346.60626Q286.09375 347.6375 286.60938 348.1844Q287.125 348.71564 287.90625 348.71564Q288.48438 348.71564 288.89062 348.41876Q289.3125 348.10626 289.54688 347.45ZM286.09375 345.7469L289.5625 345.7469Q289.5 344.95 289.17188 344.5594Q288.65625 343.95 287.85938 343.95Q287.125 343.95 286.625 344.4344Q286.14062 344.91876 286.09375 345.7469ZM292.28125 349.45L292.28125 343.23126L293.23438 343.23126L293.23438 344.16876Q293.59375 343.5125 293.89062 343.3094Q294.20312 343.09064 294.57812 343.09064Q295.10938 343.09064 295.65625 343.41876L295.29688 344.40314Q294.90625 344.16876 294.53125 344.16876Q294.17188 344.16876 293.89062 344.3875Q293.625 344.59064 293.51562 344.96564Q293.32812 345.52814 293.32812 346.1844L293.32812 349.45L292.28125 349.45ZM300.35938 348.6844Q299.76562 349.1844 299.21875 349.3875Q298.6875 349.59064 298.0625 349.59064Q297.03125 349.59064 296.48438 349.09064Q295.9375 348.59064 295.9375 347.8094Q295.9375 347.35626 296.14062 346.98126Q296.34375 346.59064 296.6875 346.3719Q297.03125 346.1375 297.45312 346.02814Q297.75 345.9344 298.39062 345.85626Q299.65625 345.71564 300.26562 345.4969Q300.26562 345.27814 300.26562 345.23126Q300.26562 344.575 299.96875 344.3094Q299.5625 343.96564 298.76562 343.96564Q298.03125 343.96564 297.67188 344.23126Q297.3125 344.48126 297.14062 345.1375L296.10938 344.9969Q296.25 344.34064 296.57812 343.9344Q296.90625 343.52814 297.51562 343.3094Q298.125 343.09064 298.92188 343.09064Q299.71875 343.09064 300.21875 343.27814Q300.71875 343.46564 300.95312 343.7469Q301.1875 344.02814 301.28125 344.46564Q301.32812 344.73126 301.32812 345.4344L301.32812 346.84064Q301.32812 348.3094 301.39062 348.7Q301.46875 349.09064 301.67188 349.45L300.5625 349.45Q300.40625 349.1219 300.35938 348.6844ZM300.26562 346.325Q299.6875 346.5594 298.54688 346.73126Q297.89062 346.825 297.625 346.95Q297.35938 347.0594 297.20312 347.27814Q297.0625 347.4969 297.0625 347.77814Q297.0625 348.2 297.375 348.48126Q297.70312 348.7625 298.3125 348.7625Q298.92188 348.7625 299.39062 348.4969Q299.875 348.23126 300.09375 347.7625Q300.26562 347.40314 300.26562 346.71564L300.26562 346.325ZM303.09375 349.96564L304.125 350.1219Q304.1875 350.59064 304.48438 350.8094Q304.875 351.10626 305.54688 351.10626Q306.28125 351.10626 306.67188 350.8094Q307.07812 350.5125 307.21875 349.9969Q307.3125 349.66876 307.29688 348.6375Q306.60938 349.45 305.57812 349.45Q304.29688 349.45 303.59375 348.52814Q302.89062 347.59064 302.89062 346.3094Q302.89062 345.41876 303.20312 344.66876Q303.53125 343.90314 304.14062 343.4969Q304.75 343.09064 305.57812 343.09064Q306.6875 343.09064 307.40625 343.98126L307.40625 343.23126L308.375 343.23126L308.375 348.60626Q308.375 350.0594 308.07812 350.66876Q307.78125 351.27814 307.14062 351.6219Q306.5 351.98126 305.5625 351.98126Q304.45312 351.98126 303.76562 351.48126Q303.07812 350.98126 303.09375 349.96564ZM303.96875 346.23126Q303.96875 347.45 304.45312 348.0125Q304.9375 348.575 305.67188 348.575Q306.40625 348.575 306.89062 348.0125Q307.39062 347.45 307.39062 346.2625Q307.39062 345.1219 306.875 344.54376Q306.375 343.96564 305.65625 343.96564Q304.95312 343.96564 304.45312 344.54376Q303.96875 345.10626 303.96875 346.23126ZM314.54688 347.45L315.64062 347.575Q315.39062 348.52814 314.6875 349.0594Q313.98438 349.59064 312.90625 349.59064Q311.54688 349.59064 310.73438 348.7469Q309.9375 347.90314 309.9375 346.3875Q309.9375 344.825 310.75 343.96564Q311.5625 343.09064 312.84375 343.09064Q314.09375 343.09064 314.875 343.9344Q315.67188 344.77814 315.67188 346.325Q315.67188 346.41876 315.67188 346.60626L311.03125 346.60626Q311.09375 347.6375 311.60938 348.1844Q312.125 348.71564 312.90625 348.71564Q313.48438 348.71564 313.89062 348.41876Q314.3125 348.10626 314.54688 347.45ZM311.09375 345.7469L314.5625 345.7469Q314.5 344.95 314.17188 344.5594Q313.65625 343.95 312.85938 343.95Q312.125 343.95 311.625 344.4344Q311.14062 344.91876 311.09375 345.7469ZM320.26562 349.45L320.26562 340.85626L321.32812 340.85626L321.32812 349.45L320.26562 349.45ZM327.35938 348.6844Q326.76562 349.1844 326.21875 349.3875Q325.6875 349.59064 325.0625 349.59064Q324.03125 349.59064 323.48438 349.09064Q322.9375 348.59064 322.9375 347.8094Q322.9375 347.35626 323.14062 346.98126Q323.34375 346.59064 323.6875 346.3719Q324.03125 346.1375 324.45312 346.02814Q324.75 345.9344 325.39062 345.85626Q326.65625 345.71564 327.26562 345.4969Q327.26562 345.27814 327.26562 345.23126Q327.26562 344.575 326.96875 344.3094Q326.5625 343.96564 325.76562 343.96564Q325.03125 343.96564 324.67188 344.23126Q324.3125 344.48126 324.14062 345.1375L323.10938 344.9969Q323.25 344.34064 323.57812 343.9344Q323.90625 343.52814 324.51562 343.3094Q325.125 343.09064 325.92188 343.09064Q326.71875 343.09064 327.21875 343.27814Q327.71875 343.46564 327.95312 343.7469Q328.1875 344.02814 328.28125 344.46564Q328.32812 344.73126 328.32812 345.4344L328.32812 346.84064Q328.32812 348.3094 328.39062 348.7Q328.46875 349.09064 328.67188 349.45L327.5625 349.45Q327.40625 349.1219 327.35938 348.6844ZM327.26562 346.325Q326.6875 346.5594 325.54688 346.73126Q324.89062 346.825 324.625 346.95Q324.35938 347.0594 324.20312 347.27814Q324.0625 347.4969 324.0625 347.77814Q324.0625 348.2 324.375 348.48126Q324.70312 348.7625 325.3125 348.7625Q325.92188 348.7625 326.39062 348.4969Q326.875 348.23126 327.09375 347.7625Q327.26562 347.40314 327.26562 346.71564L327.26562 346.325ZM332.59375 348.5125L332.75 349.4344Q332.29688 349.52814 331.95312 349.52814Q331.375 349.52814 331.0625 349.35626Q330.75 349.16876 330.60938 348.8719Q330.48438 348.575 330.48438 347.6219L330.48438 344.04376L329.71875 344.04376L329.71875 343.23126L330.48438 343.23126L330.48438 341.6844L331.53125 341.0594L331.53125 343.23126L332.59375 343.23126L332.59375 344.04376L331.53125 344.04376L331.53125 347.6844Q331.53125 348.1375 331.57812 348.2625Q331.64062 348.3875 331.76562 348.46564Q331.89062 348.54376 332.125 348.54376Q332.3125 348.54376 332.59375 348.5125ZM337.54688 347.45L338.64062 347.575Q338.39062 348.52814 337.6875 349.0594Q336.98438 349.59064 335.90625 349.59064Q334.54688 349.59064 333.73438 348.7469Q332.9375 347.90314 332.9375 346.3875Q332.9375 344.825 333.75 343.96564Q334.5625 343.09064 335.84375 343.09064Q337.09375 343.09064 337.875 343.9344Q338.67188 344.77814 338.67188 346.325Q338.67188 346.41876 338.67188 346.60626L334.03125 346.60626Q334.09375 347.6375 334.60938 348.1844Q335.125 348.71564 335.90625 348.71564Q336.48438 348.71564 336.89062 348.41876Q337.3125 348.10626 337.54688 347.45ZM334.09375 345.7469L337.5625 345.7469Q337.5 344.95 337.17188 344.5594Q336.65625 343.95 335.85938 343.95Q335.125 343.95 334.625 344.4344Q334.14062 344.91876 334.09375 345.7469ZM340.29688 349.45L340.29688 343.23126L341.23438 343.23126L341.23438 344.10626Q341.92188 343.09064 343.21875 343.09064Q343.78125 343.09064 344.25 343.29376Q344.73438 343.4969 344.96875 343.825Q345.20312 344.15314 345.29688 344.59064Q345.34375 344.8875 345.34375 345.6219L345.34375 349.45L344.29688 349.45L344.29688 345.66876Q344.29688 345.0125 344.17188 344.7Q344.04688 344.3875 343.73438 344.2Q343.42188 343.9969 343.0 343.9969Q342.32812 343.9969 341.82812 344.4344Q341.34375 344.85626 341.34375 346.04376L341.34375 349.45L340.29688 349.45ZM351.35938 347.16876L352.39062 347.3094Q352.21875 348.3719 351.51562 348.98126Q350.8125 349.59064 349.79688 349.59064Q348.51562 349.59064 347.73438 348.7625Q346.96875 347.91876 346.96875 346.35626Q346.96875 345.35626 347.29688 344.60626Q347.64062 343.84064 348.3125 343.46564Q349.0 343.09064 349.8125 343.09064Q350.8125 343.09064 351.45312 343.60626Q352.10938 344.10626 352.29688 345.0594L351.26562 345.21564Q351.125 344.59064 350.75 344.27814Q350.375 343.95 349.84375 343.95Q349.04688 343.95 348.54688 344.52814Q348.04688 345.09064 348.04688 346.325Q348.04688 347.59064 348.53125 348.15314Q349.01562 348.71564 349.78125 348.71564Q350.40625 348.71564 350.8125 348.34064Q351.23438 347.96564 351.35938 347.16876ZM353.25 351.84064L353.125 350.85626Q353.46875 350.95 353.73438 350.95Q354.07812 350.95 354.28125 350.825Q354.5 350.71564 354.64062 350.5125Q354.73438 350.34064 354.96875 349.71564Q354.98438 349.6375 355.0625 349.46564L352.6875 343.23126L353.82812 343.23126L355.125 346.825Q355.375 347.5125 355.57812 348.27814Q355.76562 347.54376 356.01562 346.85626L357.34375 343.23126L358.39062 343.23126L356.03125 349.5594Q355.64062 350.575 355.4375 350.96564Q355.15625 351.4969 354.78125 351.73126Q354.42188 351.98126 353.92188 351.98126Q353.625 351.98126 353.25 351.84064ZM363.3125 351.98126Q362.4375 350.8719 361.82812 349.40314Q361.23438 347.91876 361.23438 346.34064Q361.23438 344.95 361.67188 343.66876Q362.20312 342.1844 363.3125 340.71564L364.0625 340.71564Q363.35938 341.9344 363.125 342.45Q362.76562 343.2625 362.5625 344.1375Q362.3125 345.23126 362.3125 346.34064Q362.3125 349.16876 364.0625 351.98126L363.3125 351.98126ZM365.29688 349.45L365.29688 343.23126L366.23438 343.23126L366.23438 344.10626Q366.53125 343.6375 367.01562 343.3719Q367.5 343.09064 368.125 343.09064Q368.8125 343.09064 369.25 343.3719Q369.70312 343.65314 369.875 344.16876Q370.625 343.09064 371.79688 343.09064Q372.73438 343.09064 373.21875 343.60626Q373.71875 344.10626 373.71875 345.1844L373.71875 349.45L372.67188 349.45L372.67188 345.52814Q372.67188 344.90314 372.5625 344.6219Q372.46875 344.34064 372.20312 344.16876Q371.9375 343.9969 371.5625 343.9969Q370.90625 343.9969 370.46875 344.4344Q370.04688 344.8719 370.04688 345.84064L370.04688 349.45L368.98438 349.45L368.98438 345.40314Q368.98438 344.7 368.71875 344.35626Q368.46875 343.9969 367.89062 343.9969Q367.4375 343.9969 367.0625 344.23126Q366.6875 344.46564 366.51562 344.91876Q366.34375 345.3719 366.34375 346.21564L366.34375 349.45L365.29688 349.45ZM375.875 347.59064L376.90625 347.4344Q377.0 348.0594 377.39062 348.3875Q377.79688 348.71564 378.53125 348.71564Q379.25 348.71564 379.59375 348.4344Q379.95312 348.1375 379.95312 347.73126Q379.95312 347.3719 379.64062 347.16876Q379.42188 347.02814 378.5625 346.8094Q377.40625 346.5125 376.95312 346.3094Q376.51562 346.09064 376.28125 345.71564Q376.04688 345.34064 376.04688 344.8719Q376.04688 344.46564 376.23438 344.10626Q376.42188 343.7469 376.75 343.5125Q377.0 343.34064 377.42188 343.21564Q377.84375 343.09064 378.34375 343.09064Q379.0625 343.09064 379.60938 343.3094Q380.17188 343.5125 380.4375 343.8719Q380.70312 344.23126 380.79688 344.825L379.76562 344.96564Q379.70312 344.4969 379.35938 344.23126Q379.03125 343.95 378.40625 343.95Q377.6875 343.95 377.375 344.2Q377.0625 344.4344 377.0625 344.7625Q377.0625 344.96564 377.1875 345.1219Q377.32812 345.29376 377.59375 345.40314Q377.75 345.46564 378.53125 345.66876Q379.65625 345.98126 380.09375 346.16876Q380.53125 346.35626 380.78125 346.71564Q381.03125 347.075 381.03125 347.6219Q381.03125 348.15314 380.71875 348.6219Q380.42188 349.075 379.84375 349.34064Q379.26562 349.59064 378.53125 349.59064Q377.3125 349.59064 376.67188 349.09064Q376.04688 348.575 375.875 347.59064ZM383.98438 351.98126L383.23438 351.98126Q384.98438 349.16876 384.98438 346.34064Q384.98438 345.2469 384.73438 344.15314Q384.53125 343.27814 384.17188 342.46564Q383.9375 341.95 383.23438 340.71564L383.98438 340.71564Q385.07812 342.1844 385.60938 343.66876Q386.0625 344.95 386.0625 346.34064Q386.0625 347.91876 385.45312 349.40314Q384.84375 350.8719 383.98438 351.98126Z" fill-rule="nonzero"/><path fill="#4285f4" d="M218.0 56.916668C218.0 56.364384 218.44771 55.916668 219.0 55.916668L229.0 55.916668C229.55229 55.916668 230.0 56.364384 230.0 56.916668L230.0 66.916664C230.0 67.46895 229.55229 67.916664 229.0 67.916664L219.0 67.916664C218.44771 67.916664 218.0 67.46895 218.0 66.916664Z" fill-rule="nonzero"/><path fill="#1a1a1a" d="M242.875 65.916664L242.875 64.99479Q242.14062 66.05729 240.89062 66.05729Q240.34375 66.05729 239.85938 65.854164Q239.39062 65.635414 239.15625 65.322914Q238.92188 64.99479 238.82812 64.52604Q238.76562 64.229164 238.76562 63.541664L238.76562 59.697914L239.82812 59.697914L239.82812 63.15104Q239.82812 63.96354 239.89062 64.260414Q239.98438 64.666664 240.29688 64.916664Q240.625 65.15104 241.10938 65.15104Q241.57812 65.15104 241.98438 64.916664Q242.40625 64.666664 242.57812 64.24479Q242.76562 63.822914 242.76562 63.02604L242.76562 59.697914L243.8125 59.697914L243.8125 65.916664L242.875 65.916664ZM245.375 64.05729L246.40625 63.90104Q246.5 64.52604 246.89062 64.854164Q247.29688 65.18229 248.03125 65.18229Q248.75 65.18229 249.09375 64.90104Q249.45312 64.604164 249.45312 64.197914Q249.45312 63.83854 249.14062 63.635414Q248.92188 63.49479 248.0625 63.27604Q246.90625 62.979164 246.45312 62.77604Q246.01562 62.55729 245.78125 62.18229Q245.54688 61.80729 245.54688 61.33854Q245.54688 60.93229 245.73438 60.572914Q245.92188 60.21354 246.25 59.979164Q246.5 59.80729 246.92188 59.68229Q247.34375 59.55729 247.84375 59.55729Q248.5625 59.55729 249.10938 59.77604Q249.67188 59.979164 249.9375 60.33854Q250.20312 60.697914 250.29688 61.291664L249.26562 61.43229Q249.20312 60.96354 248.85938 60.697914Q248.53125 60.416664 247.90625 60.416664Q247.1875 60.416664 246.875 60.666664Q246.5625 60.90104 246.5625 61.229164Q246.5625 61.43229 246.6875 61.58854Q246.82812 61.760414 247.09375 61.86979Q247.25 61.93229 248.03125 62.135414Q249.15625 62.447914 249.59375 62.635414Q250.03125 62.822914 250.28125 63.18229Q250.53125 63.541664 250.53125 64.08854Q250.53125 64.61979 250.21875 65.08854Q249.92188 65.541664 249.34375 65.80729Q248.76562 66.05729 248.03125 66.05729Q246.8125 66.05729 246.17188 65.55729Q245.54688 65.041664 245.375 64.05729ZM252.375 63.33854L252.375 62.27604L255.625 62.27604L255.625 63.33854L252.375 63.33854ZM257.9375 65.916664L256.03125 59.697914L257.125 59.697914L258.10938 63.291664L258.48438 64.61979Q258.51562 64.52604 258.8125 63.33854L259.79688 59.697914L260.875 59.697914L261.8125 63.30729L262.125 64.49479L262.48438 63.291664L263.54688 59.697914L264.57812 59.697914L262.625 65.916664L261.53125 65.916664L260.54688 62.18229L260.29688 61.135414L259.04688 65.916664L257.9375 65.916664ZM270.04688 63.916664L271.14062 64.041664Q270.89062 64.99479 270.1875 65.52604Q269.48438 66.05729 268.40625 66.05729Q267.04688 66.05729 266.23438 65.21354Q265.4375 64.36979 265.4375 62.854164Q265.4375 61.291664 266.25 60.43229Q267.0625 59.55729 268.34375 59.55729Q269.59375 59.55729 270.375 60.40104Q271.17188 61.24479 271.17188 62.791664Q271.17188 62.885414 271.17188 63.072914L266.53125 63.072914Q266.59375 64.104164 267.10938 64.65104Q267.625 65.18229 268.40625 65.18229Q268.98438 65.18229 269.39062 64.885414Q269.8125 64.572914 270.04688 63.916664ZM266.59375 62.21354L270.0625 62.21354Q270.0 61.416664 269.67188 61.02604Q269.15625 60.416664 268.35938 60.416664Q267.625 60.416664 267.125 60.90104Q266.64062 61.385414 266.59375 62.21354ZM272.375 64.05729L273.40625 63.90104Q273.5 64.52604 273.89062 64.854164Q274.29688 65.18229 275.03125 65.18229Q275.75 65.18229 276.09375 64.90104Q276.45312 64.604164 276.45312 64.197914Q276.45312 63.83854 276.14062 63.635414Q275.92188 63.49479 275.0625 63.27604Q273.90625 62.979164 273.45312 62.77604Q273.01562 62.55729 272.78125 62.18229Q272.54688 61.80729 272.54688 61.33854Q272.54688 60.93229 272.73438 60.572914Q272.92188 60.21354 273.25 59.979164Q273.5 59.80729 273.92188 59.68229Q274.34375 59.55729 274.84375 59.55729Q275.5625 59.55729 276.10938 59.77604Q276.67188 59.979164 276.9375 60.33854Q277.20312 60.697914 277.29688 61.291664L276.26562 61.43229Q276.20312 60.96354 275.85938 60.697914Q275.53125 60.416664 274.90625 60.416664Q274.1875 60.416664 273.875 60.666664Q273.5625 60.90104 273.5625 61.229164Q273.5625 61.43229 273.6875 61.58854Q273.82812 61.760414 274.09375 61.86979Q274.25 61.93229 275.03125 62.135414Q276.15625 62.447914 276.59375 62.635414Q277.03125 62.822914 277.28125 63.18229Q277.53125 63.541664 277.53125 64.08854Q277.53125 64.61979 277.21875 65.08854Q276.92188 65.541664 276.34375 65.80729Q275.76562 66.05729 275.03125 66.05729Q273.8125 66.05729 273.17188 65.55729Q272.54688 65.041664 272.375 64.05729ZM282.09375 64.979164L282.25 65.90104Q281.79688 65.99479 281.45312 65.99479Q280.875 65.99479 280.5625 65.822914Q280.25 65.635414 280.10938 65.33854Q279.98438 65.041664 279.98438 64.08854L279.98438 60.510414L279.21875 60.510414L279.21875 59.697914L279.98438 59.697914L279.98438 58.15104L281.03125 57.52604L281.03125 59.697914L282.09375 59.697914L282.09375 60.510414L281.03125 60.510414L281.03125 64.15104Q281.03125 64.604164 281.07812 64.729164Q281.14062 64.854164 281.26562 64.93229Q281.39062 65.010414 281.625 65.010414Q281.8125 65.010414 282.09375 64.979164ZM282.375 63.33854L282.375 62.27604L285.625 62.27604L285.625 63.33854L282.375 63.33854ZM292.04688 64.90104L292.04688 65.916664L286.35938 65.916664Q286.35938 65.541664 286.48438 65.18229Q286.70312 64.604164 287.17188 64.041664Q287.65625 63.479164 288.5625 62.74479Q289.96875 61.58854 290.45312 60.916664Q290.95312 60.24479 290.95312 59.65104Q290.95312 59.02604 290.5 58.604164Q290.04688 58.166664 289.32812 58.166664Q288.5625 58.166664 288.10938 58.61979Q287.65625 59.072914 287.64062 59.885414L286.5625 59.77604Q286.67188 58.55729 287.39062 57.93229Q288.125 57.291664 289.35938 57.291664Q290.59375 57.291664 291.3125 57.979164Q292.03125 58.666664 292.03125 59.68229Q292.03125 60.197914 291.8125 60.697914Q291.60938 61.18229 291.10938 61.74479Q290.625 62.291664 289.5 63.24479Q288.54688 64.041664 288.26562 64.33854Q288.0 64.61979 287.82812 64.90104L292.04688 64.90104Z" fill-rule="nonzero"/><path fill="#ea4335" d="M309.0 56.916668C309.0 56.364384 309.44772 55.916668 310.0 55.916668L320.0 55.916668C320.55228 55.916668 321.0 56.364384 321.0 56.916668L321.0 66.916664C321.0 67.46895 320.55228 67.916664 320.0 67.916664L310.0 67.916664C309.44772 67.916664 309.0 67.46895 309.0 66.916664Z" fill-rule="nonzero"/><path fill="#1a1a1a" d="M333.875 65.916664L333.875 64.99479Q333.14062 66.05729 331.89062 66.05729Q331.34375 66.05729 330.85938 65.854164Q330.39062 65.635414 330.15625 65.322914Q329.92188 64.99479 329.82812 64.52604Q329.76562 64.229164 329.76562 63.541664L329.76562 59.697914L330.82812 59.697914L330.82812 63.15104Q330.82812 63.96354 330.89062 64.260414Q330.98438 64.666664 331.29688 64.916664Q331.625 65.15104 332.10938 65.15104Q332.57812 65.15104 332.98438 64.916664Q333.40625 64.666664 333.57812 64.24479Q333.76562 63.822914 333.76562 63.02604L333.76562 59.697914L334.8125 59.697914L334.8125 65.916664L333.875 65.916664ZM336.375 64.05729L337.40625 63.90104Q337.5 64.52604 337.89062 64.854164Q338.29688 65.18229 339.03125 65.18229Q339.75 65.18229 340.09375 64.90104Q340.45312 64.604164 340.45312 64.197914Q340.45312 63.83854 340.14062 63.635414Q339.92188 63.49479 339.0625 63.27604Q337.90625 62.979164 337.45312 62.77604Q337.01562 62.55729 336.78125 62.18229Q336.54688 61.80729 336.54688 61.33854Q336.54688 60.93229 336.73438 60.572914Q336.92188 60.21354 337.25 59.979164Q337.5 59.80729 337.92188 59.68229Q338.34375 59.55729 338.84375 59.55729Q339.5625 59.55729 340.10938 59.77604Q340.67188 59.979164 340.9375 60.33854Q341.20312 60.697914 341.29688 61.291664L340.26562 61.43229Q340.20312 60.96354 339.85938 60.697914Q339.53125 60.416664 338.90625 60.416664Q338.1875 60.416664 337.875 60.666664Q337.5625 60.90104 337.5625 61.229164Q337.5625 61.43229 337.6875 61.58854Q337.82812 61.760414 338.09375 61.86979Q338.25 61.93229 339.03125 62.135414Q340.15625 62.447914 340.59375 62.635414Q341.03125 62.822914 341.28125 63.18229Q341.53125 63.541664 341.53125 64.08854Q341.53125 64.61979 341.21875 65.08854Q340.92188 65.541664 340.34375 65.80729Q339.76562 66.05729 339.03125 66.05729Q337.8125 66.05729 337.17188 65.55729Q336.54688 65.041664 336.375 64.05729ZM343.375 63.33854L343.375 62.27604L346.625 62.27604L346.625 63.33854L343.375 63.33854ZM352.04688 63.916664L353.14062 64.041664Q352.89062 64.99479 352.1875 65.52604Q351.48438 66.05729 350.40625 66.05729Q349.04688 66.05729 348.23438 65.21354Q347.4375 64.36979 347.4375 62.854164Q347.4375 61.291664 348.25 60.43229Q349.0625 59.55729 350.34375 59.55729Q351.59375 59.55729 352.375 60.40104Q353.17188 61.24479 353.17188 62.791664Q353.17188 62.885414 353.17188 63.072914L348.53125 63.072914Q348.59375 64.104164 349.10938 64.65104Q349.625 65.18229 350.40625 65.18229Q350.98438 65.18229 351.39062 64.885414Q351.8125 64.572914 352.04688 63.916664ZM348.59375 62.21354L352.0625 62.21354Q352.0 61.416664 351.67188 61.02604Q351.15625 60.416664 350.35938 60.416664Q349.625 60.416664 349.125 60.90104Q348.64062 61.385414 348.59375 62.21354ZM358.85938 65.15104Q358.26562 65.65104 357.71875 65.854164Q357.1875 66.05729 356.5625 66.05729Q355.53125 66.05729 354.98438 65.55729Q354.4375 65.05729 354.4375 64.27604Q354.4375 63.822914 354.64062 63.447914Q354.84375 63.05729 355.1875 62.83854Q355.53125 62.604164 355.95312 62.49479Q356.25 62.40104 356.89062 62.322914Q358.15625 62.18229 358.76562 61.96354Q358.76562 61.74479 358.76562 61.697914Q358.76562 61.041664 358.46875 60.77604Q358.0625 60.43229 357.26562 60.43229Q356.53125 60.43229 356.17188 60.697914Q355.8125 60.947914 355.64062 61.604164L354.60938 61.46354Q354.75 60.80729 355.07812 60.40104Q355.40625 59.99479 356.01562 59.77604Q356.625 59.55729 357.42188 59.55729Q358.21875 59.55729 358.71875 59.74479Q359.21875 59.93229 359.45312 60.21354Q359.6875 60.49479 359.78125 60.93229Q359.82812 61.197914 359.82812 61.90104L359.82812 63.30729Q359.82812 64.77604 359.89062 65.166664Q359.96875 65.55729 360.17188 65.916664L359.0625 65.916664Q358.90625 65.58854 358.85938 65.15104ZM358.76562 62.791664Q358.1875 63.02604 357.04688 63.197914Q356.39062 63.291664 356.125 63.416664Q355.85938 63.52604 355.70312 63.74479Q355.5625 63.96354 355.5625 64.24479Q355.5625 64.666664 355.875 64.947914Q356.20312 65.229164 356.8125 65.229164Q357.42188 65.229164 357.89062 64.96354Q358.375 64.697914 358.59375 64.229164Q358.76562 63.86979 358.76562 63.18229L358.76562 62.791664ZM361.375 64.05729L362.40625 63.90104Q362.5 64.52604 362.89062 64.854164Q363.29688 65.18229 364.03125 65.18229Q364.75 65.18229 365.09375 64.90104Q365.45312 64.604164 365.45312 64.197914Q365.45312 63.83854 365.14062 63.635414Q364.92188 63.49479 364.0625 63.27604Q362.90625 62.979164 362.45312 62.77604Q362.01562 62.55729 361.78125 62.18229Q361.54688 61.80729 361.54688 61.33854Q361.54688 60.93229 361.73438 60.572914Q361.92188 60.21354 362.25 59.979164Q362.5 59.80729 362.92188 59.68229Q363.34375 59.55729 363.84375 59.55729Q364.5625 59.55729 365.10938 59.77604Q365.67188 59.979164 365.9375 60.33854Q366.20312 60.697914 366.29688 61.291664L365.26562 61.43229Q365.20312 60.96354 364.85938 60.697914Q364.53125 60.416664 363.90625 60.416664Q363.1875 60.416664 362.875 60.666664Q362.5625 60.90104 362.5625 61.229164Q362.5625 61.43229 362.6875 61.58854Q362.82812 61.760414 363.09375 61.86979Q363.25 61.93229 364.03125 62.135414Q365.15625 62.447914 365.59375 62.635414Q366.03125 62.822914 366.28125 63.18229Q366.53125 63.541664 366.53125 64.08854Q366.53125 64.61979 366.21875 65.08854Q365.92188 65.541664 365.34375 65.80729Q364.76562 66.05729 364.03125 66.05729Q362.8125 66.05729 362.17188 65.55729Q361.54688 65.041664 361.375 64.05729ZM371.09375 64.979164L371.25 65.90104Q370.79688 65.99479 370.45312 65.99479Q369.875 65.99479 369.5625 65.822914Q369.25 65.635414 369.10938 65.33854Q368.98438 65.041664 368.98438 64.08854L368.98438 60.510414L368.21875 60.510414L368.21875 59.697914L368.98438 59.697914L368.98438 58.15104L370.03125 57.52604L370.03125 59.697914L371.09375 59.697914L371.09375 60.510414L370.03125 60.510414L370.03125 64.15104Q370.03125 64.604164 370.07812 64.729164Q370.14062 64.854164 370.26562 64.93229Q370.39062 65.010414 370.625 65.010414Q370.8125 65.010414 371.09375 64.979164ZM371.375 63.33854L371.375 62.27604L374.625 62.27604L374.625 63.33854L371.375 63.33854ZM379.46875 65.916664L378.42188 65.916664L378.42188 59.197914Q378.03125 59.55729 377.40625 59.93229Q376.79688 60.291664 376.3125 60.46354L376.3125 59.447914Q377.1875 59.02604 377.84375 58.447914Q378.51562 57.854164 378.79688 57.291664L379.46875 57.291664L379.46875 65.916664Z" fill-rule="nonzero"/><path fill="#757575" d="M200.46875 37.55L200.46875 23.2375L202.35938 23.2375L202.35938 35.8625L209.40625 35.8625L209.40625 37.55L200.46875 37.55ZM218.09375 36.26875Q217.10938 37.096874 216.20312 37.440624Q215.29688 37.784374 214.26562 37.784374Q212.5625 37.784374 211.64062 36.95625Q210.71875 36.1125 210.71875 34.815624Q210.71875 34.05 211.0625 33.425Q211.42188 32.8 211.98438 32.425Q212.54688 32.034374 213.25 31.83125Q213.76562 31.70625 214.8125 31.565624Q216.9375 31.315624 217.9375 30.971874Q217.95312 30.6125 217.95312 30.503124Q217.95312 29.440624 217.45312 28.9875Q216.78125 28.39375 215.45312 28.39375Q214.20312 28.39375 213.60938 28.83125Q213.03125 29.26875 212.75 30.378124L211.03125 30.14375Q211.26562 29.034374 211.79688 28.3625Q212.32812 27.675 213.34375 27.315624Q214.35938 26.940624 215.70312 26.940624Q217.03125 26.940624 217.85938 27.253124Q218.6875 27.565624 219.07812 28.05Q219.46875 28.51875 219.625 29.2375Q219.71875 29.690624 219.71875 30.8625L219.71875 33.20625Q219.71875 35.659374 219.82812 36.315624Q219.9375 36.95625 220.28125 37.55L218.4375 37.55Q218.17188 37.003124 218.09375 36.26875ZM217.9375 32.346874Q216.98438 32.7375 215.0625 33.003124Q213.98438 33.159374 213.53125 33.3625Q213.09375 33.55 212.84375 33.925Q212.59375 34.3 212.59375 34.76875Q212.59375 35.471874 213.125 35.940624Q213.65625 36.409374 214.6875 36.409374Q215.70312 36.409374 216.48438 35.971874Q217.28125 35.51875 217.65625 34.753124Q217.9375 34.14375 217.9375 32.9875L217.9375 32.346874ZM226.15625 35.971874L226.40625 37.534374Q225.67188 37.690624 225.07812 37.690624Q224.125 37.690624 223.59375 37.39375Q223.07812 37.08125 222.85938 36.596874Q222.64062 36.096874 222.64062 34.51875L222.64062 28.55L221.35938 28.55L221.35938 27.175L222.64062 27.175L222.64062 24.6125L224.39062 23.55L224.39062 27.175L226.15625 27.175L226.15625 28.55L224.39062 28.55L224.39062 34.6125Q224.39062 35.3625 224.48438 35.58125Q224.57812 35.784374 224.78125 35.925Q225.0 36.05 225.39062 36.05Q225.67188 36.05 226.15625 35.971874ZM235.42188 34.20625L237.23438 34.440624Q236.8125 36.01875 235.64062 36.909374Q234.48438 37.784374 232.67188 37.784374Q230.40625 37.784374 229.0625 36.39375Q227.73438 34.9875 227.73438 32.45625Q227.73438 29.83125 229.07812 28.39375Q230.42188 26.940624 232.57812 26.940624Q234.65625 26.940624 235.96875 28.3625Q237.29688 29.76875 237.29688 32.346874Q237.29688 32.503124 237.28125 32.815624L229.54688 32.815624Q229.64062 34.51875 230.51562 35.425Q231.39062 36.33125 232.6875 36.33125Q233.65625 36.33125 234.32812 35.83125Q235.01562 35.315624 235.42188 34.20625ZM229.64062 31.3625L235.4375 31.3625Q235.32812 30.065624 234.78125 29.409374Q233.9375 28.39375 232.59375 28.39375Q231.39062 28.39375 230.5625 29.20625Q229.73438 30.003124 229.64062 31.3625ZM239.3125 37.55L239.3125 27.175L240.90625 27.175L240.90625 28.659374Q242.04688 26.940624 244.20312 26.940624Q245.14062 26.940624 245.92188 27.284374Q246.71875 27.6125 247.10938 28.159374Q247.5 28.70625 247.65625 29.45625Q247.75 29.95625 247.75 31.175L247.75 37.55L245.98438 37.55L245.98438 31.2375Q245.98438 30.159374 245.78125 29.628124Q245.57812 29.096874 245.04688 28.784374Q244.53125 28.471874 243.82812 28.471874Q242.70312 28.471874 241.89062 29.190624Q241.07812 29.89375 241.07812 31.878124L241.07812 37.55L239.3125 37.55ZM256.09375 33.753124L257.8125 33.971874Q257.53125 35.76875 256.35938 36.784374Q255.20312 37.784374 253.5 37.784374Q251.375 37.784374 250.07812 36.39375Q248.78125 35.003124 248.78125 32.409374Q248.78125 30.721874 249.32812 29.471874Q249.89062 28.20625 251.03125 27.58125Q252.17188 26.940624 253.51562 26.940624Q255.20312 26.940624 256.26562 27.8Q257.34375 28.659374 257.65625 30.221874L255.9375 30.4875Q255.70312 29.440624 255.07812 28.925Q254.45312 28.39375 253.57812 28.39375Q252.25 28.39375 251.42188 29.346874Q250.59375 30.3 250.59375 32.346874Q250.59375 34.440624 251.39062 35.39375Q252.1875 36.33125 253.48438 36.33125Q254.51562 36.33125 255.20312 35.70625Q255.90625 35.065624 256.09375 33.753124ZM259.23438 41.55L259.04688 39.89375Q259.625 40.05 260.04688 40.05Q260.64062 40.05 260.98438 39.846874Q261.34375 39.659374 261.5625 39.315624Q261.73438 39.05 262.10938 38.003124Q262.15625 37.846874 262.26562 37.565624L258.32812 27.175L260.21875 27.175L262.375 33.190624Q262.79688 34.33125 263.125 35.58125Q263.4375 34.378124 263.84375 33.221874L266.0625 27.175L267.82812 27.175L263.875 37.721874Q263.25 39.440624 262.89062 40.08125Q262.42188 40.95625 261.8125 41.346874Q261.21875 41.753124 260.375 41.753124Q259.85938 41.753124 259.23438 41.55ZM278.67188 41.753124Q277.21875 39.925 276.21875 37.471874Q275.21875 35.003124 275.21875 32.3625Q275.21875 30.034374 275.96875 27.909374Q276.84375 25.440624 278.67188 22.9875L279.9375 22.9875Q278.75 25.01875 278.375 25.89375Q277.78125 27.2375 277.4375 28.70625Q277.01562 30.534374 277.01562 32.378124Q277.01562 37.065624 279.9375 41.753124L278.67188 41.753124ZM282.28125 37.55L282.28125 23.2375L284.03125 23.2375L284.03125 37.55L282.28125 37.55ZM293.42188 34.20625L295.23438 34.440624Q294.8125 36.01875 293.64062 36.909374Q292.48438 37.784374 290.67188 37.784374Q288.40625 37.784374 287.0625 36.39375Q285.73438 34.9875 285.73438 32.45625Q285.73438 29.83125 287.07812 28.39375Q288.42188 26.940624 290.57812 26.940624Q292.65625 26.940624 293.96875 28.3625Q295.29688 29.76875 295.29688 32.346874Q295.29688 32.503124 295.28125 32.815624L287.54688 32.815624Q287.64062 34.51875 288.51562 35.425Q289.39062 36.33125 290.6875 36.33125Q291.65625 36.33125 292.32812 35.83125Q293.01562 35.315624 293.42188 34.20625ZM287.64062 31.3625L293.4375 31.3625Q293.32812 30.065624 292.78125 29.409374Q291.9375 28.39375 290.59375 28.39375Q289.39062 28.39375 288.5625 29.20625Q287.73438 30.003124 287.64062 31.3625ZM296.60938 34.45625L298.35938 34.175Q298.5 35.221874 299.17188 35.784374Q299.84375 36.33125 301.04688 36.33125Q302.25 36.33125 302.82812 35.846874Q303.42188 35.346874 303.42188 34.690624Q303.42188 34.096874 302.90625 33.753124Q302.54688 33.51875 301.10938 33.159374Q299.17188 32.659374 298.42188 32.315624Q297.6875 31.95625 297.29688 31.33125Q296.90625 30.690624 296.90625 29.925Q296.90625 29.2375 297.21875 28.64375Q297.54688 28.05 298.09375 27.659374Q298.5 27.3625 299.20312 27.159374Q299.92188 26.940624 300.73438 26.940624Q301.95312 26.940624 302.875 27.3Q303.79688 27.64375 304.23438 28.253124Q304.67188 28.846874 304.84375 29.846874L303.125 30.08125Q303.0 29.284374 302.4375 28.846874Q301.875 28.39375 300.85938 28.39375Q299.64062 28.39375 299.125 28.8Q298.60938 29.190624 298.60938 29.721874Q298.60938 30.065624 298.82812 30.346874Q299.03125 30.628124 299.5 30.815624Q299.76562 30.909374 301.04688 31.253124Q302.92188 31.753124 303.65625 32.08125Q304.39062 32.39375 304.8125 33.003124Q305.23438 33.596874 305.23438 34.503124Q305.23438 35.378124 304.71875 36.159374Q304.20312 36.940624 303.23438 37.3625Q302.26562 37.784374 301.04688 37.784374Q299.03125 37.784374 297.96875 36.940624Q296.90625 36.096874 296.60938 34.45625ZM306.60938 34.45625L308.35938 34.175Q308.5 35.221874 309.17188 35.784374Q309.84375 36.33125 311.04688 36.33125Q312.25 36.33125 312.82812 35.846874Q313.42188 35.346874 313.42188 34.690624Q313.42188 34.096874 312.90625 33.753124Q312.54688 33.51875 311.10938 33.159374Q309.17188 32.659374 308.42188 32.315624Q307.6875 31.95625 307.29688 31.33125Q306.90625 30.690624 306.90625 29.925Q306.90625 29.2375 307.21875 28.64375Q307.54688 28.05 308.09375 27.659374Q308.5 27.3625 309.20312 27.159374Q309.92188 26.940624 310.73438 26.940624Q311.95312 26.940624 312.875 27.3Q313.79688 27.64375 314.23438 28.253124Q314.67188 28.846874 314.84375 29.846874L313.125 30.08125Q313.0 29.284374 312.4375 28.846874Q311.875 28.39375 310.85938 28.39375Q309.64062 28.39375 309.125 28.8Q308.60938 29.190624 308.60938 29.721874Q308.60938 30.065624 308.82812 30.346874Q309.03125 30.628124 309.5 30.815624Q309.76562 30.909374 311.04688 31.253124Q312.92188 31.753124 313.65625 32.08125Q314.39062 32.39375 314.8125 33.003124Q315.23438 33.596874 315.23438 34.503124Q315.23438 35.378124 314.71875 36.159374Q314.20312 36.940624 313.23438 37.3625Q312.26562 37.784374 311.04688 37.784374Q309.03125 37.784374 307.96875 36.940624Q306.90625 36.096874 306.60938 34.45625ZM323.32812 25.253124L323.32812 23.2375L325.09375 23.2375L325.09375 25.253124L323.32812 25.253124ZM323.32812 37.55L323.32812 27.175L325.09375 27.175L325.09375 37.55L323.32812 37.55ZM326.60938 34.45625L328.35938 34.175Q328.5 35.221874 329.17188 35.784374Q329.84375 36.33125 331.04688 36.33125Q332.25 36.33125 332.82812 35.846874Q333.42188 35.346874 333.42188 34.690624Q333.42188 34.096874 332.90625 33.753124Q332.54688 33.51875 331.10938 33.159374Q329.17188 32.659374 328.42188 32.315624Q327.6875 31.95625 327.29688 31.33125Q326.90625 30.690624 326.90625 29.925Q326.90625 29.2375 327.21875 28.64375Q327.54688 28.05 328.09375 27.659374Q328.5 27.3625 329.20312 27.159374Q329.92188 26.940624 330.73438 26.940624Q331.95312 26.940624 332.875 27.3Q333.79688 27.64375 334.23438 28.253124Q334.67188 28.846874 334.84375 29.846874L333.125 30.08125Q333.0 29.284374 332.4375 28.846874Q331.875 28.39375 330.85938 28.39375Q329.64062 28.39375 329.125 28.8Q328.60938 29.190624 328.60938 29.721874Q328.60938 30.065624 328.82812 30.346874Q329.03125 30.628124 329.5 30.815624Q329.76562 30.909374 331.04688 31.253124Q332.92188 31.753124 333.65625 32.08125Q334.39062 32.39375 334.8125 33.003124Q335.23438 33.596874 335.23438 34.503124Q335.23438 35.378124 334.71875 36.159374Q334.20312 36.940624 333.23438 37.3625Q332.26562 37.784374 331.04688 37.784374Q329.03125 37.784374 327.96875 36.940624Q326.90625 36.096874 326.60938 34.45625ZM344.9375 37.55L343.3125 37.55L343.3125 23.2375L345.0625 23.2375L345.0625 28.346874Q346.1875 26.940624 347.90625 26.940624Q348.85938 26.940624 349.71875 27.33125Q350.57812 27.721874 351.125 28.425Q351.67188 29.1125 351.98438 30.096874Q352.29688 31.08125 352.29688 32.20625Q352.29688 34.878124 350.98438 36.33125Q349.67188 37.784374 347.82812 37.784374Q345.98438 37.784374 344.9375 36.253124L344.9375 37.55ZM344.92188 32.284374Q344.92188 34.14375 345.42188 34.9875Q346.26562 36.33125 347.67188 36.33125Q348.82812 36.33125 349.65625 35.33125Q350.5 34.33125 350.5 32.346874Q350.5 30.315624 349.6875 29.3625Q348.89062 28.39375 347.75 28.39375Q346.59375 28.39375 345.75 29.39375Q344.92188 30.39375 344.92188 32.284374ZM361.42188 34.20625L363.23438 34.440624Q362.8125 36.01875 361.64062 36.909374Q360.48438 37.784374 358.67188 37.784374Q356.40625 37.784374 355.0625 36.39375Q353.73438 34.9875 353.73438 32.45625Q353.73438 29.83125 355.07812 28.39375Q356.42188 26.940624 358.57812 26.940624Q360.65625 26.940624 361.96875 28.3625Q363.29688 29.76875 363.29688 32.346874Q363.29688 32.503124 363.28125 32.815624L355.54688 32.815624Q355.64062 34.51875 356.51562 35.425Q357.39062 36.33125 358.6875 36.33125Q359.65625 36.33125 360.32812 35.83125Q361.01562 35.315624 361.42188 34.20625ZM355.64062 31.3625L361.4375 31.3625Q361.32812 30.065624 360.78125 29.409374Q359.9375 28.39375 358.59375 28.39375Q357.39062 28.39375 356.5625 29.20625Q355.73438 30.003124 355.64062 31.3625ZM369.15625 35.971874L369.40625 37.534374Q368.67188 37.690624 368.07812 37.690624Q367.125 37.690624 366.59375 37.39375Q366.07812 37.08125 365.85938 36.596874Q365.64062 36.096874 365.64062 34.51875L365.64062 28.55L364.35938 28.55L364.35938 27.175L365.64062 27.175L365.64062 24.6125L367.39062 23.55L367.39062 27.175L369.15625 27.175L369.15625 28.55L367.39062 28.55L367.39062 34.6125Q367.39062 35.3625 367.48438 35.58125Q367.57812 35.784374 367.78125 35.925Q368.0 36.05 368.39062 36.05Q368.67188 36.05 369.15625 35.971874ZM375.15625 35.971874L375.40625 37.534374Q374.67188 37.690624 374.07812 37.690624Q373.125 37.690624 372.59375 37.39375Q372.07812 37.08125 371.85938 36.596874Q371.64062 36.096874 371.64062 34.51875L371.64062 28.55L370.35938 28.55L370.35938 27.175L371.64062 27.175L371.64062 24.6125L373.39062 23.55L373.39062 27.175L375.15625 27.175L375.15625 28.55L373.39062 28.55L373.39062 34.6125Q373.39062 35.3625 373.48438 35.58125Q373.57812 35.784374 373.78125 35.925Q374.0 36.05 374.39062 36.05Q374.67188 36.05 375.15625 35.971874ZM384.42188 34.20625L386.23438 34.440624Q385.8125 36.01875 384.64062 36.909374Q383.48438 37.784374 381.67188 37.784374Q379.40625 37.784374 378.0625 36.39375Q376.73438 34.9875 376.73438 32.45625Q376.73438 29.83125 378.07812 28.39375Q379.42188 26.940624 381.57812 26.940624Q383.65625 26.940624 384.96875 28.3625Q386.29688 29.76875 386.29688 32.346874Q386.29688 32.503124 386.28125 32.815624L378.54688 32.815624Q378.64062 34.51875 379.51562 35.425Q380.39062 36.33125 381.6875 36.33125Q382.65625 36.33125 383.32812 35.83125Q384.01562 35.315624 384.42188 34.20625ZM378.64062 31.3625L384.4375 31.3625Q384.32812 30.065624 383.78125 29.409374Q382.9375 28.39375 381.59375 28.39375Q380.39062 28.39375 379.5625 29.20625Q378.73438 30.003124 378.64062 31.3625ZM388.29688 37.55L388.29688 27.175L389.875 27.175L389.875 28.753124Q390.48438 27.64375 391.0 27.3Q391.51562 26.940624 392.125 26.940624Q393.01562 26.940624 393.9375 27.503124L393.32812 29.14375Q392.6875 28.753124 392.04688 28.753124Q391.46875 28.753124 391.0 29.1125Q390.54688 29.45625 390.34375 30.065624Q390.0625 31.003124 390.0625 32.1125L390.0625 37.55L388.29688 37.55ZM396.46875 41.753124L395.21875 41.753124Q398.125 37.065624 398.125 32.378124Q398.125 30.534374 397.71875 28.7375Q397.375 27.26875 396.78125 25.925Q396.40625 25.034374 395.21875 22.9875L396.46875 22.9875Q398.3125 25.440624 399.1875 27.909374Q399.9375 30.034374 399.9375 32.3625Q399.9375 35.003124 398.92188 37.471874Q397.92188 39.925 396.46875 41.753124Z" fill-rule="nonzero"/></svg>