<svg version="1.1" viewBox="0.0 0.0 600.0 371.0" fill="none" stroke="none" stroke-linecap="square" stroke-miterlimit="10" width="600" height="371" xmlns:xlink="http://www.w3.org/1999/xlink" xmlns="http://www.w3.org/2000/svg"><path fill="#ffffff" d="M0 0L600.0 0L600.0 371.0L0 371.0L0 0Z" fill-rule="nonzero"/><path stroke="#333333" stroke-width="1.0" stroke-linecap="butt" d="M52.5 332.5L581.5 332.5" fill-rule="nonzero"/><path stroke="#cccccc" stroke-width="1.0" stroke-linecap="butt" d="M52.5 251.5L581.5 251.5" fill-rule="nonzero"/><path stroke="#cccccc" stroke-width="1.0" stroke-linecap="butt" d="M52.5 169.5L581.5 169.5" fill-rule="nonzero"/><path stroke="#cccccc" stroke-width="1.0" stroke-linecap="butt" d="M52.5 88.5L581.5 88.5" fill-rule="nonzero"/><clipPath id="id_0"><path d="M52.55 88.28333L581.45 88.28333L581.45 332.45L52.55 332.45L52.55 88.28333Z" clip-rule="nonzero"/></clipPath><path stroke="#000000" stroke-width="2.0" stroke-linecap="butt" stroke-opacity="0.0" clip-path="url(#id_0)" d="M316.0 332.0L191.0 332.0L191.0 313.0C191.0 311.89542 191.89543 311.0 193.0 311.0L314.0 311.0C315.10458 311.0 316.0 311.89542 316.0 313.0Z" fill-rule="nonzero"/><path fill="#4285f4" clip-path="url(#id_0)" d="M316.0 332.0L191.0 332.0L191.0 313.0C191.0 311.89542 191.89543 311.0 193.0 311.0L314.0 311.0C315.10458 311.0 316.0 311.89542 316.0 313.0Z" fill-rule="nonzero"/><path stroke="#000000" stroke-width="2.0" stroke-linecap="butt" stroke-opacity="0.0" clip-path="url(#id_0)" d="M443.0 332.0L318.0 332.0L318.0 123.0C318.0 121.89543 318.89542 121.0 320.0 121.0L441.0 121.0C442.10458 121.0 443.0 121.89543 443.0 123.0Z" fill-rule="nonzero"/><path fill="#ea4335" clip-path="url(#id_0)" d="M443.0 332.0L318.0 332.0L318.0 123.0C318.0 121.89543 318.89542 121.0 320.0 121.0L441.0 121.0C442.10458 121.0 443.0 121.89543 443.0 123.0Z" fill-rule="nonzero"/><path fill="#000000" d="M40.05 332.21564Q40.05 330.6844 40.3625 329.7625Q40.675 328.825 41.284374 328.325Q41.909374 327.825 42.846874 327.825Q43.534374 327.825 44.05 328.10626Q44.58125 328.3875 44.925 328.91876Q45.26875 329.4344 45.45625 330.1844Q45.64375 330.9344 45.64375 332.21564Q45.64375 333.73126 45.33125 334.65314Q45.034374 335.575 44.409374 336.09064Q43.8 336.59064 42.846874 336.59064Q41.6125 336.59064 40.89375 335.7Q40.05 334.6375 40.05 332.21564ZM41.128124 332.21564Q41.128124 334.325 41.628124 335.02814Q42.128124 335.73126 42.846874 335.73126Q43.58125 335.73126 44.065624 335.02814Q44.565624 334.325 44.565624 332.21564Q44.565624 330.09064 44.065624 329.40314Q43.58125 328.7 42.83125 328.7Q42.1125 328.7 41.675 329.3094Q41.128124 330.09064 41.128124 332.21564Z" fill-rule="nonzero"/><path fill="#000000" d="M26.05 252.81111L27.159374 252.71736Q27.284374 253.52986 27.721874 253.93611Q28.175 254.34236 28.815624 254.34236Q29.565624 254.34236 30.096874 253.76424Q30.628124 253.18611 30.628124 252.24861Q30.628124 251.34236 30.1125 250.82674Q29.6125 250.29549 28.784374 250.29549Q28.284374 250.29549 27.8625 250.52986Q27.45625 250.76424 27.221874 251.12361L26.2375 250.99861L27.065624 246.59236L31.346874 246.59236L31.346874 247.59236L27.909374 247.59236L27.45625 249.90486Q28.221874 249.35799 29.065624 249.35799Q30.190624 249.35799 30.95625 250.13924Q31.7375 250.92049 31.7375 252.15486Q31.7375 253.31111 31.065624 254.17049Q30.2375 255.20174 28.815624 255.20174Q27.64375 255.20174 26.89375 254.54549Q26.159374 253.88924 26.05 252.81111ZM33.05 250.82674Q33.05 249.29549 33.3625 248.37361Q33.675 247.43611 34.284374 246.93611Q34.909374 246.43611 35.846874 246.43611Q36.534374 246.43611 37.05 246.71736Q37.58125 246.99861 37.925 247.52986Q38.26875 248.04549 38.45625 248.79549Q38.64375 249.54549 38.64375 250.82674Q38.64375 252.34236 38.33125 253.26424Q38.034374 254.18611 37.409374 254.70174Q36.8 255.20174 35.846874 255.20174Q34.6125 255.20174 33.89375 254.31111Q33.05 253.24861 33.05 250.82674ZM34.128124 250.82674Q34.128124 252.93611 34.628124 253.63924Q35.128124 254.34236 35.846874 254.34236Q36.58125 254.34236 37.065624 253.63924Q37.565624 252.93611 37.565624 250.82674Q37.565624 248.70174 37.065624 248.01424Q36.58125 247.31111 35.83125 247.31111Q35.1125 247.31111 34.675 247.92049Q34.128124 248.70174 34.128124 250.82674ZM40.05 250.82674Q40.05 249.29549 40.3625 248.37361Q40.675 247.43611 41.284374 246.93611Q41.909374 246.43611 42.846874 246.43611Q43.534374 246.43611 44.05 246.71736Q44.58125 246.99861 44.925 247.52986Q45.26875 248.04549 45.45625 248.79549Q45.64375 249.54549 45.64375 250.82674Q45.64375 252.34236 45.33125 253.26424Q45.034374 254.18611 44.409374 254.70174Q43.8 255.20174 42.846874 255.20174Q41.6125 255.20174 40.89375 254.31111Q40.05 253.24861 40.05 250.82674ZM41.128124 250.82674Q41.128124 252.93611 41.628124 253.63924Q42.128124 254.34236 42.846874 254.34236Q43.58125 254.34236 44.065624 253.63924Q44.565624 252.93611 44.565624 250.82674Q44.565624 248.70174 44.065624 248.01424Q43.58125 247.31111 42.83125 247.31111Q42.1125 247.31111 41.675 247.92049Q41.128124 248.70174 41.128124 250.82674Z" fill-rule="nonzero"/><path fill="#000000" d="M23.01875 173.67223L21.971874 173.67223L21.971874 166.95348Q21.58125 167.31285 20.95625 167.68785Q20.346874 168.04723 19.8625 168.2191L19.8625 167.20348Q20.7375 166.7816 21.39375 166.20348Q22.065624 165.60973 22.346874 165.04723L23.01875 165.04723L23.01875 173.67223ZM26.05 169.43785Q26.05 167.9066 26.3625 166.98473Q26.675 166.04723 27.284374 165.54723Q27.909374 165.04723 28.846874 165.04723Q29.534374 165.04723 30.05 165.32848Q30.58125 165.60973 30.925 166.14098Q31.26875 166.6566 31.45625 167.4066Q31.64375 168.1566 31.64375 169.43785Q31.64375 170.95348 31.33125 171.87535Q31.034374 172.79723 30.409374 173.31285Q29.8 173.81285 28.846874 173.81285Q27.6125 173.81285 26.89375 172.92223Q26.05 171.85973 26.05 169.43785ZM27.128124 169.43785Q27.128124 171.54723 27.628124 172.25035Q28.128124 172.95348 28.846874 172.95348Q29.58125 172.95348 30.065624 172.25035Q30.565624 171.54723 30.565624 169.43785Q30.565624 167.31285 30.065624 166.62535Q29.58125 165.92223 28.83125 165.92223Q28.1125 165.92223 27.675 166.5316Q27.128124 167.31285 27.128124 169.43785ZM33.05 169.43785Q33.05 167.9066 33.3625 166.98473Q33.675 166.04723 34.284374 165.54723Q34.909374 165.04723 35.846874 165.04723Q36.534374 165.04723 37.05 165.32848Q37.58125 165.60973 37.925 166.14098Q38.26875 166.6566 38.45625 167.4066Q38.64375 168.1566 38.64375 169.43785Q38.64375 170.95348 38.33125 171.87535Q38.034374 172.79723 37.409374 173.31285Q36.8 173.81285 35.846874 173.81285Q34.6125 173.81285 33.89375 172.92223Q33.05 171.85973 33.05 169.43785ZM34.128124 169.43785Q34.128124 171.54723 34.628124 172.25035Q35.128124 172.95348 35.846874 172.95348Q36.58125 172.95348 37.065624 172.25035Q37.565624 171.54723 37.565624 169.43785Q37.565624 167.31285 37.065624 166.62535Q36.58125 165.92223 35.83125 165.92223Q35.1125 165.92223 34.675 166.5316Q34.128124 167.31285 34.128124 169.43785ZM40.05 169.43785Q40.05 167.9066 40.3625 166.98473Q40.675 166.04723 41.284374 165.54723Q41.909374 165.04723 42.846874 165.04723Q43.534374 165.04723 44.05 165.32848Q44.58125 165.60973 44.925 166.14098Q45.26875 166.6566 45.45625 167.4066Q45.64375 168.1566 45.64375 169.43785Q45.64375 170.95348 45.33125 171.87535Q45.034374 172.79723 44.409374 173.31285Q43.8 173.81285 42.846874 173.81285Q41.6125 173.81285 40.89375 172.92223Q40.05 171.85973 40.05 169.43785ZM41.128124 169.43785Q41.128124 171.54723 41.628124 172.25035Q42.128124 172.95348 42.846874 172.95348Q43.58125 172.95348 44.065624 172.25035Q44.565624 171.54723 44.565624 169.43785Q44.565624 167.31285 44.065624 166.62535Q43.58125 165.92223 42.83125 165.92223Q42.1125 165.92223 41.675 166.5316Q41.128124 167.31285 41.128124 169.43785Z" fill-rule="nonzero"/><path fill="#000000" d="M23.01875 92.28333L21.971874 92.28333L21.971874 85.56458Q21.58125 85.92396 20.95625 86.29896Q20.346874 86.65833 19.8625 86.83021L19.8625 85.81458Q20.7375 85.39271 21.39375 84.81458Q22.065624 84.22083 22.346874 83.65833L23.01875 83.65833L23.01875 92.28333ZM26.05 90.03333L27.159374 89.93958Q27.284374 90.75208 27.721874 91.15833Q28.175 91.56458 28.815624 91.56458Q29.565624 91.56458 30.096874 90.98646Q30.628124 90.40833 30.628124 89.47083Q30.628124 88.56458 30.1125 88.04896Q29.6125 87.51771 28.784374 87.51771Q28.284374 87.51771 27.8625 87.75208Q27.45625 87.98646 27.221874 88.34583L26.2375 88.22083L27.065624 83.81458L31.346874 83.81458L31.346874 84.81458L27.909374 84.81458L27.45625 87.12708Q28.221874 86.58021 29.065624 86.58021Q30.190624 86.58021 30.95625 87.36146Q31.7375 88.14271 31.7375 89.37708Q31.7375 90.53333 31.065624 91.39271Q30.2375 92.42396 28.815624 92.42396Q27.64375 92.42396 26.89375 91.76771Q26.159374 91.11146 26.05 90.03333ZM33.05 88.04896Q33.05 86.51771 33.3625 85.59583Q33.675 84.65833 34.284374 84.15833Q34.909374 83.65833 35.846874 83.65833Q36.534374 83.65833 37.05 83.93958Q37.58125 84.22083 37.925 84.75208Q38.26875 85.26771 38.45625 86.01771Q38.64375 86.76771 38.64375 88.04896Q38.64375 89.56458 38.33125 90.48646Q38.034374 91.40833 37.409374 91.92396Q36.8 92.42396 35.846874 92.42396Q34.6125 92.42396 33.89375 91.53333Q33.05 90.47083 33.05 88.04896ZM34.128124 88.04896Q34.128124 90.15833 34.628124 90.86146Q35.128124 91.56458 35.846874 91.56458Q36.58125 91.56458 37.065624 90.86146Q37.565624 90.15833 37.565624 88.04896Q37.565624 85.92396 37.065624 85.23646Q36.58125 84.53333 35.83125 84.53333Q35.1125 84.53333 34.675 85.14271Q34.128124 85.92396 34.128124 88.04896ZM40.05 88.04896Q40.05 86.51771 40.3625 85.59583Q40.675 84.65833 41.284374 84.15833Q41.909374 83.65833 42.846874 83.65833Q43.534374 83.65833 44.05 83.93958Q44.58125 84.22083 44.925 84.75208Q45.26875 85.26771 45.45625 86.01771Q45.64375 86.76771 45.64375 88.04896Q45.64375 89.56458 45.33125 90.48646Q45.034374 91.40833 44.409374 91.92396Q43.8 92.42396 42.846874 92.42396Q41.6125 92.42396 40.89375 91.53333Q40.05 90.47083 40.05 88.04896ZM41.128124 88.04896Q41.128124 90.15833 41.628124 90.86146Q42.128124 91.56458 42.846874 91.56458Q43.58125 91.56458 44.065624 90.86146Q44.565624 90.15833 44.565624 88.04896Q44.565624 85.92396 44.065624 85.23646Q43.58125 84.53333 42.83125 84.53333Q42.1125 84.53333 41.675 85.14271Q41.128124 85.92396 41.128124 88.04896Z" fill-rule="nonzero"/><path fill="#000000" d="M269.9375 348.52814Q270.73438 349.075 271.39062 349.325L271.0625 350.1219Q270.14062 349.77814 269.21875 349.0594Q268.26562 349.59064 267.10938 349.59064Q265.9375 349.59064 264.98438 349.02814Q264.04688 348.46564 263.53125 347.45Q263.01562 346.4344 263.01562 345.15314Q263.01562 343.8875 263.53125 342.84064Q264.04688 341.79376 265.0 341.2469Q265.95312 340.7 267.125 340.7Q268.3125 340.7 269.26562 341.27814Q270.23438 341.84064 270.73438 342.85626Q271.23438 343.8719 271.23438 345.15314Q271.23438 346.21564 270.90625 347.0594Q270.59375 347.90314 269.9375 348.52814ZM267.4375 347.075Q268.42188 347.35626 269.0625 347.90314Q270.0625 346.98126 270.0625 345.15314Q270.0625 344.10626 269.70312 343.325Q269.34375 342.54376 268.65625 342.1219Q267.98438 341.6844 267.14062 341.6844Q265.85938 341.6844 265.01562 342.5594Q264.1875 343.41876 264.1875 345.15314Q264.1875 346.825 265.01562 347.73126Q265.84375 348.6219 267.14062 348.6219Q267.75 348.6219 268.28125 348.3875Q267.75 348.04376 267.15625 347.90314L267.4375 347.075ZM276.375 349.45L276.375 348.52814Q275.64062 349.59064 274.39062 349.59064Q273.84375 349.59064 273.35938 349.3875Q272.89062 349.16876 272.65625 348.85626Q272.42188 348.52814 272.32812 348.0594Q272.26562 347.7625 272.26562 347.075L272.26562 343.23126L273.32812 343.23126L273.32812 346.6844Q273.32812 347.4969 273.39062 347.79376Q273.48438 348.2 273.79688 348.45Q274.125 348.6844 274.60938 348.6844Q275.07812 348.6844 275.48438 348.45Q275.90625 348.2 276.07812 347.77814Q276.26562 347.35626 276.26562 346.5594L276.26562 343.23126L277.3125 343.23126L277.3125 349.45L276.375 349.45ZM283.54688 347.45L284.64062 347.575Q284.39062 348.52814 283.6875 349.0594Q282.98438 349.59064 281.90625 349.59064Q280.54688 349.59064 279.73438 348.7469Q278.9375 347.90314 278.9375 346.3875Q278.9375 344.825 279.75 343.96564Q280.5625 343.09064 281.84375 343.09064Q283.09375 343.09064 283.875 343.9344Q284.67188 344.77814 284.67188 346.325Q284.67188 346.41876 284.67188 346.60626L280.03125 346.60626Q280.09375 347.6375 280.60938 348.1844Q281.125 348.71564 281.90625 348.71564Q282.48438 348.71564 282.89062 348.41876Q283.3125 348.10626 283.54688 347.45ZM280.09375 345.7469L283.5625 345.7469Q283.5 344.95 283.17188 344.5594Q282.65625 343.95 281.85938 343.95Q281.125 343.95 280.625 344.4344Q280.14062 344.91876 280.09375 345.7469ZM286.28125 349.45L286.28125 343.23126L287.23438 343.23126L287.23438 344.16876Q287.59375 343.5125 287.89062 343.3094Q288.20312 343.09064 288.57812 343.09064Q289.10938 343.09064 289.65625 343.41876L289.29688 344.40314Q288.90625 344.16876 288.53125 344.16876Q288.17188 344.16876 287.89062 344.3875Q287.625 344.59064 287.51562 344.96564Q287.32812 345.52814 287.32812 346.1844L287.32812 349.45L286.28125 349.45ZM290.29688 342.075L290.29688 340.85626L291.35938 340.85626L291.35938 342.075L290.29688 342.075ZM290.29688 349.45L290.29688 343.23126L291.35938 343.23126L291.35938 349.45L290.29688 349.45ZM297.54688 347.45L298.64062 347.575Q298.39062 348.52814 297.6875 349.0594Q296.98438 349.59064 295.90625 349.59064Q294.54688 349.59064 293.73438 348.7469Q292.9375 347.90314 292.9375 346.3875Q292.9375 344.825 293.75 343.96564Q294.5625 343.09064 295.84375 343.09064Q297.09375 343.09064 297.875 343.9344Q298.67188 344.77814 298.67188 346.325Q298.67188 346.41876 298.67188 346.60626L294.03125 346.60626Q294.09375 347.6375 294.60938 348.1844Q295.125 348.71564 295.90625 348.71564Q296.48438 348.71564 296.89062 348.41876Q297.3125 348.10626 297.54688 347.45ZM294.09375 345.7469L297.5625 345.7469Q297.5 344.95 297.17188 344.5594Q296.65625 343.95 295.85938 343.95Q295.125 343.95 294.625 344.4344Q294.14062 344.91876 294.09375 345.7469ZM299.875 347.59064L300.90625 347.4344Q301.0 348.0594 301.39062 348.3875Q301.79688 348.71564 302.53125 348.71564Q303.25 348.71564 303.59375 348.4344Q303.95312 348.1375 303.95312 347.73126Q303.95312 347.3719 303.64062 347.16876Q303.42188 347.02814 302.5625 346.8094Q301.40625 346.5125 300.95312 346.3094Q300.51562 346.09064 300.28125 345.71564Q300.04688 345.34064 300.04688 344.8719Q300.04688 344.46564 300.23438 344.10626Q300.42188 343.7469 300.75 343.5125Q301.0 343.34064 301.42188 343.21564Q301.84375 343.09064 302.34375 343.09064Q303.0625 343.09064 303.60938 343.3094Q304.17188 343.5125 304.4375 343.8719Q304.70312 344.23126 304.79688 344.825L303.76562 344.96564Q303.70312 344.4969 303.35938 344.23126Q303.03125 343.95 302.40625 343.95Q301.6875 343.95 301.375 344.2Q301.0625 344.4344 301.0625 344.7625Q301.0625 344.96564 301.1875 345.1219Q301.32812 345.29376 301.59375 345.40314Q301.75 345.46564 302.53125 345.66876Q303.65625 345.98126 304.09375 346.16876Q304.53125 346.35626 304.78125 346.71564Q305.03125 347.075 305.03125 347.6219Q305.03125 348.15314 304.71875 348.6219Q304.42188 349.075 303.84375 349.34064Q303.26562 349.59064 302.53125 349.59064Q301.3125 349.59064 300.67188 349.09064Q300.04688 348.575 299.875 347.59064ZM310.29688 351.84064L310.29688 343.23126L311.25 343.23126L311.25 344.02814Q311.59375 343.5594 312.01562 343.325Q312.45312 343.09064 313.0625 343.09064Q313.85938 343.09064 314.46875 343.4969Q315.07812 343.90314 315.375 344.65314Q315.6875 345.40314 315.6875 346.29376Q315.6875 347.2469 315.34375 348.0125Q315.01562 348.77814 314.35938 349.1844Q313.70312 349.59064 312.98438 349.59064Q312.45312 349.59064 312.03125 349.3719Q311.60938 349.1375 311.34375 348.8094L311.34375 351.84064L310.29688 351.84064ZM311.25 346.3719Q311.25 347.575 311.73438 348.15314Q312.21875 348.71564 312.90625 348.71564Q313.60938 348.71564 314.10938 348.1219Q314.60938 347.52814 314.60938 346.27814Q314.60938 345.09064 314.125 344.5125Q313.64062 343.91876 312.95312 343.91876Q312.28125 343.91876 311.76562 344.54376Q311.25 345.16876 311.25 346.3719ZM321.54688 347.45L322.64062 347.575Q322.39062 348.52814 321.6875 349.0594Q320.98438 349.59064 319.90625 349.59064Q318.54688 349.59064 317.73438 348.7469Q316.9375 347.90314 316.9375 346.3875Q316.9375 344.825 317.75 343.96564Q318.5625 343.09064 319.84375 343.09064Q321.09375 343.09064 321.875 343.9344Q322.67188 344.77814 322.67188 346.325Q322.67188 346.41876 322.67188 346.60626L318.03125 346.60626Q318.09375 347.6375 318.60938 348.1844Q319.125 348.71564 319.90625 348.71564Q320.48438 348.71564 320.89062 348.41876Q321.3125 348.10626 321.54688 347.45ZM318.09375 345.7469L321.5625 345.7469Q321.5 344.95 321.17188 344.5594Q320.65625 343.95 319.85938 343.95Q319.125 343.95 318.625 344.4344Q318.14062 344.91876 318.09375 345.7469ZM324.28125 349.45L324.28125 343.23126L325.23438 343.23126L325.23438 344.16876Q325.59375 343.5125 325.89062 343.3094Q326.20312 343.09064 326.57812 343.09064Q327.10938 343.09064 327.65625 343.41876L327.29688 344.40314Q326.90625 344.16876 326.53125 344.16876Q326.17188 344.16876 325.89062 344.3875Q325.625 344.59064 325.51562 344.96564Q325.32812 345.52814 325.32812 346.1844L325.32812 349.45L324.28125 349.45ZM330.875 347.59064L331.90625 347.4344Q332.0 348.0594 332.39062 348.3875Q332.79688 348.71564 333.53125 348.71564Q334.25 348.71564 334.59375 348.4344Q334.95312 348.1375 334.95312 347.73126Q334.95312 347.3719 334.64062 347.16876Q334.42188 347.02814 333.5625 346.8094Q332.40625 346.5125 331.95312 346.3094Q331.51562 346.09064 331.28125 345.71564Q331.04688 345.34064 331.04688 344.8719Q331.04688 344.46564 331.23438 344.10626Q331.42188 343.7469 331.75 343.5125Q332.0 343.34064 332.42188 343.21564Q332.84375 343.09064 333.34375 343.09064Q334.0625 343.09064 334.60938 343.3094Q335.17188 343.5125 335.4375 343.8719Q335.70312 344.23126 335.79688 344.825L334.76562 344.96564Q334.70312 344.4969 334.35938 344.23126Q334.03125 343.95 333.40625 343.95Q332.6875 343.95 332.375 344.2Q332.0625 344.4344 332.0625 344.7625Q332.0625 344.96564 332.1875 345.1219Q332.32812 345.29376 332.59375 345.40314Q332.75 345.46564 333.53125 345.66876Q334.65625 345.98126 335.09375 346.16876Q335.53125 346.35626 335.78125 346.71564Q336.03125 347.075 336.03125 347.6219Q336.03125 348.15314 335.71875 348.6219Q335.42188 349.075 334.84375 349.34064Q334.26562 349.59064 333.53125 349.59064Q332.3125 349.59064 331.67188 349.09064Q331.04688 348.575 330.875 347.59064ZM342.54688 347.45L343.64062 347.575Q343.39062 348.52814 342.6875 349.0594Q341.98438 349.59064 340.90625 349.59064Q339.54688 349.59064 338.73438 348.7469Q337.9375 347.90314 337.9375 346.3875Q337.9375 344.825 338.75 343.96564Q339.5625 343.09064 340.84375 343.09064Q342.09375 343.09064 342.875 343.9344Q343.67188 344.77814 343.67188 346.325Q343.67188 346.41876 343.67188 346.60626L339.03125 346.60626Q339.09375 347.6375 339.60938 348.1844Q340.125 348.71564 340.90625 348.71564Q341.48438 348.71564 341.89062 348.41876Q342.3125 348.10626 342.54688 347.45ZM339.09375 345.7469L342.5625 345.7469Q342.5 344.95 342.17188 344.5594Q341.65625 343.95 340.85938 343.95Q340.125 343.95 339.625 344.4344Q339.14062 344.91876 339.09375 345.7469ZM349.35938 347.16876L350.39062 347.3094Q350.21875 348.3719 349.51562 348.98126Q348.8125 349.59064 347.79688 349.59064Q346.51562 349.59064 345.73438 348.7625Q344.96875 347.91876 344.96875 346.35626Q344.96875 345.35626 345.29688 344.60626Q345.64062 343.84064 346.3125 343.46564Q347.0 343.09064 347.8125 343.09064Q348.8125 343.09064 349.45312 343.60626Q350.10938 344.10626 350.29688 345.0594L349.26562 345.21564Q349.125 344.59064 348.75 344.27814Q348.375 343.95 347.84375 343.95Q347.04688 343.95 346.54688 344.52814Q346.04688 345.09064 346.04688 346.325Q346.04688 347.59064 346.53125 348.15314Q347.01562 348.71564 347.78125 348.71564Q348.40625 348.71564 348.8125 348.34064Q349.23438 347.96564 349.35938 347.16876ZM350.90625 346.34064Q350.90625 344.60626 351.85938 343.77814Q352.65625 343.09064 353.8125 343.09064Q355.09375 343.09064 355.90625 343.9344Q356.73438 344.7625 356.73438 346.2469Q356.73438 347.45 356.375 348.1375Q356.01562 348.825 355.3125 349.21564Q354.625 349.59064 353.8125 349.59064Q352.51562 349.59064 351.70312 348.7625Q350.90625 347.91876 350.90625 346.34064ZM351.98438 346.34064Q351.98438 347.52814 352.5 348.1219Q353.03125 348.71564 353.8125 348.71564Q354.60938 348.71564 355.125 348.1219Q355.64062 347.52814 355.64062 346.3094Q355.64062 345.15314 355.10938 344.5594Q354.59375 343.96564 353.8125 343.96564Q353.03125 343.96564 352.5 344.5594Q351.98438 345.1375 351.98438 346.34064ZM358.29688 349.45L358.29688 343.23126L359.23438 343.23126L359.23438 344.10626Q359.92188 343.09064 361.21875 343.09064Q361.78125 343.09064 362.25 343.29376Q362.73438 343.4969 362.96875 343.825Q363.20312 344.15314 363.29688 344.59064Q363.34375 344.8875 363.34375 345.6219L363.34375 349.45L362.29688 349.45L362.29688 345.66876Q362.29688 345.0125 362.17188 344.7Q362.04688 344.3875 361.73438 344.2Q361.42188 343.9969 361.0 343.9969Q360.32812 343.9969 359.82812 344.4344Q359.34375 344.85626 359.34375 346.04376L359.34375 349.45L358.29688 349.45ZM369.32812 349.45L369.32812 348.66876Q368.73438 349.59064 367.59375 349.59064Q366.84375 349.59064 366.21875 349.1844Q365.59375 348.7625 365.25 348.02814Q364.90625 347.29376 364.90625 346.34064Q364.90625 345.41876 365.21875 344.65314Q365.53125 343.8875 366.15625 343.4969Q366.78125 343.09064 367.54688 343.09064Q368.10938 343.09064 368.54688 343.325Q368.98438 343.5594 369.26562 343.9344L369.26562 340.85626L370.3125 340.85626L370.3125 349.45L369.32812 349.45ZM366.0 346.34064Q366.0 347.54376 366.5 348.1375Q367.0 348.71564 367.6875 348.71564Q368.375 348.71564 368.85938 348.15314Q369.34375 347.59064 369.34375 346.4344Q369.34375 345.15314 368.84375 344.5594Q368.35938 343.96564 367.64062 343.96564Q366.9375 343.96564 366.46875 344.54376Q366.0 345.10626 366.0 346.34064Z" fill-rule="nonzero"/><path fill="#4285f4" d="M218.0 56.916668C218.0 56.364384 218.44771 55.916668 219.0 55.916668L229.0 55.916668C229.55229 55.916668 230.0 56.364384 230.0 56.916668L230.0 66.916664C230.0 67.46895 229.55229 67.916664 229.0 67.916664L219.0 67.916664C218.44771 67.916664 218.0 67.46895 218.0 66.916664Z" fill-rule="nonzero"/><path fill="#1a1a1a" d="M242.875 65.916664L242.875 64.99479Q242.14062 66.05729 240.89062 66.05729Q240.34375 66.05729 239.85938 65.854164Q239.39062 65.635414 239.15625 65.322914Q238.92188 64.99479 238.82812 64.52604Q238.76562 64.229164 238.76562 63.541664L238.76562 59.697914L239.82812 59.697914L239.82812 63.15104Q239.82812 63.96354 239.89062 64.260414Q239.98438 64.666664 240.29688 64.916664Q240.625 65.15104 241.10938 65.15104Q241.57812 65.15104 241.98438 64.916664Q242.40625 64.666664 242.57812 64.24479Q242.76562 63.822914 242.76562 63.02604L242.76562 59.697914L243.8125 59.697914L243.8125 65.916664L242.875 65.916664ZM245.375 64.05729L246.40625 63.90104Q246.5 64.52604 246.89062 64.854164Q247.29688 65.18229 248.03125 65.18229Q248.75 65.18229 249.09375 64.90104Q249.45312 64.604164 249.45312 64.197914Q249.45312 63.83854 249.14062 63.635414Q248.92188 63.49479 248.0625 63.27604Q246.90625 62.979164 246.45312 62.77604Q246.01562 62.55729 245.78125 62.18229Q245.54688 61.80729 245.54688 61.33854Q245.54688 60.93229 245.73438 60.572914Q245.92188 60.21354 246.25 59.979164Q246.5 59.80729 246.92188 59.68229Q247.34375 59.55729 247.84375 59.55729Q248.5625 59.55729 249.10938 59.77604Q249.67188 59.979164 249.9375 60.33854Q250.20312 60.697914 250.29688 61.291664L249.26562 61.43229Q249.20312 60.96354 248.85938 60.697914Q248.53125 60.416664 247.90625 60.416664Q247.1875 60.416664 246.875 60.666664Q246.5625 60.90104 246.5625 61.229164Q246.5625 61.43229 246.6875 61.58854Q246.82812 61.760414 247.09375 61.86979Q247.25 61.93229 248.03125 62.135414Q249.15625 62.447914 249.59375 62.635414Q250.03125 62.822914 250.28125 63.18229Q250.53125 63.541664 250.53125 64.08854Q250.53125 64.61979 250.21875 65.08854Q249.92188 65.541664 249.34375 65.80729Q248.76562 66.05729 248.03125 66.05729Q246.8125 66.05729 246.17188 65.55729Q245.54688 65.041664 245.375 64.05729ZM252.375 63.33854L252.375 62.27604L255.625 62.27604L255.625 63.33854L252.375 63.33854ZM257.9375 65.916664L256.03125 59.697914L257.125 59.697914L258.10938 63.291664L258.48438 64.61979Q258.51562 64.52604 258.8125 63.33854L259.79688 59.697914L260.875 59.697914L261.8125 63.30729L262.125 64.49479L262.48438 63.291664L263.54688 59.697914L264.57812 59.697914L262.625 65.916664L261.53125 65.916664L260.54688 62.18229L260.29688 61.135414L259.04688 65.916664L257.9375 65.916664ZM270.04688 63.916664L271.14062 64.041664Q270.89062 64.99479 270.1875 65.52604Q269.48438 66.05729 268.40625 66.05729Q267.04688 66.05729 266.23438 65.21354Q265.4375 64.36979 265.4375 62.854164Q265.4375 61.291664 266.25 60.43229Q267.0625 59.55729 268.34375 59.55729Q269.59375 59.55729 270.375 60.40104Q271.17188 61.24479 271.17188 62.791664Q271.17188 62.885414 271.17188 63.072914L266.53125 63.072914Q266.59375 64.104164 267.10938 64.65104Q267.625 65.18229 268.40625 65.18229Q268.98438 65.18229 269.39062 64.885414Q269.8125 64.572914 270.04688 63.916664ZM266.59375 62.21354L270.0625 62.21354Q270.0 61.416664 269.67188 61.02604Q269.15625 60.416664 268.35938 60.416664Q267.625 60.416664 267.125 60.90104Q266.64062 61.385414 266.59375 62.21354ZM272.375 64.05729L273.40625 63.90104Q273.5 64.52604 273.89062 64.854164Q274.29688 65.18229 275.03125 65.18229Q275.75 65.18229 276.09375 64.90104Q276.45312 64.604164 276.45312 64.197914Q276.45312 63.83854 276.14062 63.635414Q275.92188 63.49479 275.0625 63.27604Q273.90625 62.979164 273.45312 62.77604Q273.01562 62.55729 272.78125 62.18229Q272.54688 61.80729 272.54688 61.33854Q272.54688 60.93229 272.73438 60.572914Q272.92188 60.21354 273.25 59.979164Q273.5 59.80729 273.92188 59.68229Q274.34375 59.55729 274.84375 59.55729Q275.5625 59.55729 276.10938 59.77604Q276.67188 59.979164 276.9375 60.33854Q277.20312 60.697914 277.29688 61.291664L276.26562 61.43229Q276.20312 60.96354 275.85938 60.697914Q275.53125 60.416664 274.90625 60.416664Q274.1875 60.416664 273.875 60.666664Q273.5625 60.90104 273.5625 61.229164Q273.5625 61.43229 273.6875 61.58854Q273.82812 61.760414 274.09375 61.86979Q274.25 61.93229 275.03125 62.135414Q276.15625 62.447914 276.59375 62.635414Q277.03125 62.822914 277.28125 63.18229Q277.53125 63.541664 277.53125 64.08854Q277.53125 64.61979 277.21875 65.08854Q276.92188 65.541664 276.34375 65.80729Q275.76562 66.05729 275.03125 66.05729Q273.8125 66.05729 273.17188 65.55729Q272.54688 65.041664 272.375 64.05729ZM282.09375 64.979164L282.25 65.90104Q281.79688 65.99479 281.45312 65.99479Q280.875 65.99479 280.5625 65.822914Q280.25 65.635414 280.10938 65.33854Q279.98438 65.041664 279.98438 64.08854L279.98438 60.510414L279.21875 60.510414L279.21875 59.697914L279.98438 59.697914L279.98438 58.15104L281.03125 57.52604L281.03125 59.697914L282.09375 59.697914L282.09375 60.510414L281.03125 60.510414L281.03125 64.15104Q281.03125 64.604164 281.07812 64.729164Q281.14062 64.854164 281.26562 64.93229Q281.39062 65.010414 281.625 65.010414Q281.8125 65.010414 282.09375 64.979164ZM282.375 63.33854L282.375 62.27604L285.625 62.27604L285.625 63.33854L282.375 63.33854ZM292.04688 64.90104L292.04688 65.916664L286.35938 65.916664Q286.35938 65.541664 286.48438 65.18229Q286.70312 64.604164 287.17188 64.041664Q287.65625 63.479164 288.5625 62.74479Q289.96875 61.58854 290.45312 60.916664Q290.95312 60.24479 290.95312 59.65104Q290.95312 59.02604 290.5 58.604164Q290.04688 58.166664 289.32812 58.166664Q288.5625 58.166664 288.10938 58.61979Q287.65625 59.072914 287.64062 59.885414L286.5625 59.77604Q286.67188 58.55729 287.39062 57.93229Q288.125 57.291664 289.35938 57.291664Q290.59375 57.291664 291.3125 57.979164Q292.03125 58.666664 292.03125 59.68229Q292.03125 60.197914 291.8125 60.697914Q291.60938 61.18229 291.10938 61.74479Q290.625 62.291664 289.5 63.24479Q288.54688 64.041664 288.26562 64.33854Q288.0 64.61979 287.82812 64.90104L292.04688 64.90104Z" fill-rule="nonzero"/><path fill="#ea4335" d="M309.0 56.916668C309.0 56.364384 309.44772 55.916668 310.0 55.916668L320.0 55.916668C320.55228 55.916668 321.0 56.364384 321.0 56.916668L321.0 66.916664C321.0 67.46895 320.55228 67.916664 320.0 67.916664L310.0 67.916664C309.44772 67.916664 309.0 67.46895 309.0 66.916664Z" fill-rule="nonzero"/><path fill="#1a1a1a" d="M333.875 65.916664L333.875 64.99479Q333.14062 66.05729 331.89062 66.05729Q331.34375 66.05729 330.85938 65.854164Q330.39062 65.635414 330.15625 65.322914Q329.92188 64.99479 329.82812 64.52604Q329.76562 64.229164 329.76562 63.541664L329.76562 59.697914L330.82812 59.697914L330.82812 63.15104Q330.82812 63.96354 330.89062 64.260414Q330.98438 64.666664 331.29688 64.916664Q331.625 65.15104 332.10938 65.15104Q332.57812 65.15104 332.98438 64.916664Q333.40625 64.666664 333.57812 64.24479Q333.76562 63.822914 333.76562 63.02604L333.76562 59.697914L334.8125 59.697914L334.8125 65.916664L333.875 65.916664ZM336.375 64.05729L337.40625 63.90104Q337.5 64.52604 337.89062 64.854164Q338.29688 65.18229 339.03125 65.18229Q339.75 65.18229 340.09375 64.90104Q340.45312 64.604164 340.45312 64.197914Q340.45312 63.83854 340.14062 63.635414Q339.92188 63.49479 339.0625 63.27604Q337.90625 62.979164 337.45312 62.77604Q337.01562 62.55729 336.78125 62.18229Q336.54688 61.80729 336.54688 61.33854Q336.54688 60.93229 336.73438 60.572914Q336.92188 60.21354 337.25 59.979164Q337.5 59.80729 337.92188 59.68229Q338.34375 59.55729 338.84375 59.55729Q339.5625 59.55729 340.10938 59.77604Q340.67188 59.979164 340.9375 60.33854Q341.20312 60.697914 341.29688 61.291664L340.26562 61.43229Q340.20312 60.96354 339.85938 60.697914Q339.53125 60.416664 338.90625 60.416664Q338.1875 60.416664 337.875 60.666664Q337.5625 60.90104 337.5625 61.229164Q337.5625 61.43229 337.6875 61.58854Q337.82812 61.760414 338.09375 61.86979Q338.25 61.93229 339.03125 62.135414Q340.15625 62.447914 340.59375 62.635414Q341.03125 62.822914 341.28125 63.18229Q341.53125 63.541664 341.53125 64.08854Q341.53125 64.61979 341.21875 65.08854Q340.92188 65.541664 340.34375 65.80729Q339.76562 66.05729 339.03125 66.05729Q337.8125 66.05729 337.17188 65.55729Q336.54688 65.041664 336.375 64.05729ZM343.375 63.33854L343.375 62.27604L346.625 62.27604L346.625 63.33854L343.375 63.33854ZM352.04688 63.916664L353.14062 64.041664Q352.89062 64.99479 352.1875 65.52604Q351.48438 66.05729 350.40625 66.05729Q349.04688 66.05729 348.23438 65.21354Q347.4375 64.36979 347.4375 62.854164Q347.4375 61.291664 348.25 60.43229Q349.0625 59.55729 350.34375 59.55729Q351.59375 59.55729 352.375 60.40104Q353.17188 61.24479 353.17188 62.791664Q353.17188 62.885414 353.17188 63.072914L348.53125 63.072914Q348.59375 64.104164 349.10938 64.65104Q349.625 65.18229 350.40625 65.18229Q350.98438 65.18229 351.39062 64.885414Q351.8125 64.572914 352.04688 63.916664ZM348.59375 62.21354L352.0625 62.21354Q352.0 61.416664 351.67188 61.02604Q351.15625 60.416664 350.35938 60.416664Q349.625 60.416664 349.125 60.90104Q348.64062 61.385414 348.59375 62.21354ZM358.85938 65.15104Q358.26562 65.65104 357.71875 65.854164Q357.1875 66.05729 356.5625 66.05729Q355.53125 66.05729 354.98438 65.55729Q354.4375 65.05729 354.4375 64.27604Q354.4375 63.822914 354.64062 63.447914Q354.84375 63.05729 355.1875 62.83854Q355.53125 62.604164 355.95312 62.49479Q356.25 62.40104 356.89062 62.322914Q358.15625 62.18229 358.76562 61.96354Q358.76562 61.74479 358.76562 61.697914Q358.76562 61.041664 358.46875 60.77604Q358.0625 60.43229 357.26562 60.43229Q356.53125 60.43229 356.17188 60.697914Q355.8125 60.947914 355.64062 61.604164L354.60938 61.46354Q354.75 60.80729 355.07812 60.40104Q355.40625 59.99479 356.01562 59.77604Q356.625 59.55729 357.42188 59.55729Q358.21875 59.55729 358.71875 59.74479Q359.21875 59.93229 359.45312 60.21354Q359.6875 60.49479 359.78125 60.93229Q359.82812 61.197914 359.82812 61.90104L359.82812 63.30729Q359.82812 64.77604 359.89062 65.166664Q359.96875 65.55729 360.17188 65.916664L359.0625 65.916664Q358.90625 65.58854 358.85938 65.15104ZM358.76562 62.791664Q358.1875 63.02604 357.04688 63.197914Q356.39062 63.291664 356.125 63.416664Q355.85938 63.52604 355.70312 63.74479Q355.5625 63.96354 355.5625 64.24479Q355.5625 64.666664 355.875 64.947914Q356.20312 65.229164 356.8125 65.229164Q357.42188 65.229164 357.89062 64.96354Q358.375 64.697914 358.59375 64.229164Q358.76562 63.86979 358.76562 63.18229L358.76562 62.791664ZM361.375 64.05729L362.40625 63.90104Q362.5 64.52604 362.89062 64.854164Q363.29688 65.18229 364.03125 65.18229Q364.75 65.18229 365.09375 64.90104Q365.45312 64.604164 365.45312 64.197914Q365.45312 63.83854 365.14062 63.635414Q364.92188 63.49479 364.0625 63.27604Q362.90625 62.979164 362.45312 62.77604Q362.01562 62.55729 361.78125 62.18229Q361.54688 61.80729 361.54688 61.33854Q361.54688 60.93229 361.73438 60.572914Q361.92188 60.21354 362.25 59.979164Q362.5 59.80729 362.92188 59.68229Q363.34375 59.55729 363.84375 59.55729Q364.5625 59.55729 365.10938 59.77604Q365.67188 59.979164 365.9375 60.33854Q366.20312 60.697914 366.29688 61.291664L365.26562 61.43229Q365.20312 60.96354 364.85938 60.697914Q364.53125 60.416664 363.90625 60.416664Q363.1875 60.416664 362.875 60.666664Q362.5625 60.90104 362.5625 61.229164Q362.5625 61.43229 362.6875 61.58854Q362.82812 61.760414 363.09375 61.86979Q363.25 61.93229 364.03125 62.135414Q365.15625 62.447914 365.59375 62.635414Q366.03125 62.822914 366.28125 63.18229Q366.53125 63.541664 366.53125 64.08854Q366.53125 64.61979 366.21875 65.08854Q365.92188 65.541664 365.34375 65.80729Q364.76562 66.05729 364.03125 66.05729Q362.8125 66.05729 362.17188 65.55729Q361.54688 65.041664 361.375 64.05729ZM371.09375 64.979164L371.25 65.90104Q370.79688 65.99479 370.45312 65.99479Q369.875 65.99479 369.5625 65.822914Q369.25 65.635414 369.10938 65.33854Q368.98438 65.041664 368.98438 64.08854L368.98438 60.510414L368.21875 60.510414L368.21875 59.697914L368.98438 59.697914L368.98438 58.15104L370.03125 57.52604L370.03125 59.697914L371.09375 59.697914L371.09375 60.510414L370.03125 60.510414L370.03125 64.15104Q370.03125 64.604164 370.07812 64.729164Q370.14062 64.854164 370.26562 64.93229Q370.39062 65.010414 370.625 65.010414Q370.8125 65.010414 371.09375 64.979164ZM371.375 63.33854L371.375 62.27604L374.625 62.27604L374.625 63.33854L371.375 63.33854ZM379.46875 65.916664L378.42188 65.916664L378.42188 59.197914Q378.03125 59.55729 377.40625 59.93229Q376.79688 60.291664 376.3125 60.46354L376.3125 59.447914Q377.1875 59.02604 377.84375 58.447914Q378.51562 57.854164 378.79688 57.291664L379.46875 57.291664L379.46875 65.916664Z" fill-rule="nonzero"/><path fill="#757575" d="M184.6875 37.55L184.6875 24.925L179.96875 24.925L179.96875 23.2375L191.3125 23.2375L191.3125 24.925L186.57812 24.925L186.57812 37.55L184.6875 37.55ZM192.8125 37.55L192.8125 23.2375L194.57812 23.2375L194.57812 28.3625Q195.8125 26.940624 197.6875 26.940624Q198.82812 26.940624 199.67188 27.39375Q200.53125 27.846874 200.89062 28.659374Q201.26562 29.45625 201.26562 30.971874L201.26562 37.55L199.51562 37.55L199.51562 30.971874Q199.51562 29.659374 198.9375 29.065624Q198.35938 28.45625 197.32812 28.45625Q196.54688 28.45625 195.84375 28.8625Q195.15625 29.26875 194.85938 29.971874Q194.57812 30.659374 194.57812 31.878124L194.57812 37.55L192.8125 37.55ZM202.79688 37.55L202.79688 27.175L204.375 27.175L204.375 28.753124Q204.98438 27.64375 205.5 27.3Q206.01562 26.940624 206.625 26.940624Q207.51562 26.940624 208.4375 27.503124L207.82812 29.14375Q207.1875 28.753124 206.54688 28.753124Q205.96875 28.753124 205.5 29.1125Q205.04688 29.45625 204.84375 30.065624Q204.5625 31.003124 204.5625 32.1125L204.5625 37.55L202.79688 37.55ZM209.17188 32.3625Q209.17188 29.4875 210.76562 28.096874Q212.10938 26.940624 214.03125 26.940624Q216.17188 26.940624 217.51562 28.346874Q218.875 29.753124 218.875 32.221874Q218.875 34.221874 218.28125 35.378124Q217.6875 36.51875 216.53125 37.159374Q215.39062 37.784374 214.03125 37.784374Q211.84375 37.784374 210.5 36.39375Q209.17188 34.9875 209.17188 32.3625ZM210.96875 32.3625Q210.96875 34.3625 211.82812 35.346874Q212.70312 36.33125 214.03125 36.33125Q215.34375 36.33125 216.20312 35.346874Q217.07812 34.346874 217.07812 32.3Q217.07812 30.378124 216.20312 29.39375Q215.32812 28.39375 214.03125 28.39375Q212.70312 28.39375 211.82812 29.39375Q210.96875 30.378124 210.96875 32.3625ZM227.60938 37.55L227.60938 36.01875Q226.40625 37.784374 224.32812 37.784374Q223.40625 37.784374 222.60938 37.440624Q221.8125 37.08125 221.42188 36.55Q221.04688 36.01875 220.89062 35.2375Q220.78125 34.721874 220.78125 33.596874L220.78125 27.175L222.53125 27.175L222.53125 32.925Q222.53125 34.3 222.64062 34.784374Q222.8125 35.471874 223.34375 35.878124Q223.89062 36.26875 224.67188 36.26875Q225.46875 36.26875 226.15625 35.8625Q226.85938 35.45625 227.14062 34.76875Q227.4375 34.065624 227.4375 32.7375L227.4375 27.175L229.1875 27.175L229.1875 37.55L227.60938 37.55ZM230.5 38.409374L232.20312 38.659374Q232.3125 39.45625 232.79688 39.815624Q233.45312 40.3 234.59375 40.3Q235.8125 40.3 236.46875 39.815624Q237.14062 39.33125 237.375 38.45625Q237.51562 37.909374 237.5 36.190624Q236.34375 37.55 234.625 37.55Q232.48438 37.55 231.3125 36.003124Q230.14062 34.45625 230.14062 32.3Q230.14062 30.815624 230.67188 29.565624Q231.21875 28.315624 232.23438 27.628124Q233.26562 26.940624 234.64062 26.940624Q236.46875 26.940624 237.67188 28.425L237.67188 27.175L239.28125 27.175L239.28125 36.14375Q239.28125 38.565624 238.78125 39.565624Q238.29688 40.58125 237.21875 41.159374Q236.15625 41.753124 234.59375 41.753124Q232.75 41.753124 231.59375 40.925Q230.45312 40.096874 230.5 38.409374ZM231.95312 32.175Q231.95312 34.221874 232.76562 35.159374Q233.57812 36.096874 234.79688 36.096874Q236.0 36.096874 236.8125 35.159374Q237.64062 34.221874 237.64062 32.2375Q237.64062 30.33125 236.79688 29.3625Q235.95312 28.39375 234.76562 28.39375Q233.59375 28.39375 232.76562 29.346874Q231.95312 30.3 231.95312 32.175ZM241.8125 37.55L241.8125 23.2375L243.57812 23.2375L243.57812 28.3625Q244.8125 26.940624 246.6875 26.940624Q247.82812 26.940624 248.67188 27.39375Q249.53125 27.846874 249.89062 28.659374Q250.26562 29.45625 250.26562 30.971874L250.26562 37.55L248.51562 37.55L248.51562 30.971874Q248.51562 29.659374 247.9375 29.065624Q247.35938 28.45625 246.32812 28.45625Q245.54688 28.45625 244.84375 28.8625Q244.15625 29.26875 243.85938 29.971874Q243.57812 30.659374 243.57812 31.878124L243.57812 37.55L241.8125 37.55ZM251.8125 41.51875L251.8125 27.175L253.42188 27.175L253.42188 28.51875Q253.98438 27.7375 254.6875 27.346874Q255.40625 26.940624 256.42188 26.940624Q257.75 26.940624 258.76562 27.628124Q259.78125 28.315624 260.29688 29.565624Q260.82812 30.8 260.82812 32.284374Q260.82812 33.878124 260.25 35.159374Q259.6875 36.425 258.59375 37.1125Q257.5 37.784374 256.29688 37.784374Q255.42188 37.784374 254.71875 37.409374Q254.03125 37.034374 253.57812 36.471874L253.57812 41.51875L251.8125 41.51875ZM253.40625 32.425Q253.40625 34.425 254.21875 35.378124Q255.03125 36.33125 256.1875 36.33125Q257.35938 36.33125 258.1875 35.346874Q259.03125 34.3625 259.03125 32.26875Q259.03125 30.3 258.20312 29.315624Q257.39062 28.315624 256.26562 28.315624Q255.14062 28.315624 254.26562 29.378124Q253.40625 30.425 253.40625 32.425ZM269.60938 37.55L269.60938 36.01875Q268.40625 37.784374 266.32812 37.784374Q265.40625 37.784374 264.60938 37.440624Q263.8125 37.08125 263.42188 36.55Q263.04688 36.01875 262.89062 35.2375Q262.78125 34.721874 262.78125 33.596874L262.78125 27.175L264.53125 27.175L264.53125 32.925Q264.53125 34.3 264.64062 34.784374Q264.8125 35.471874 265.34375 35.878124Q265.89062 36.26875 266.67188 36.26875Q267.46875 36.26875 268.15625 35.8625Q268.85938 35.45625 269.14062 34.76875Q269.4375 34.065624 269.4375 32.7375L269.4375 27.175L271.1875 27.175L271.1875 37.55L269.60938 37.55ZM276.65625 35.971874L276.90625 37.534374Q276.17188 37.690624 275.57812 37.690624Q274.625 37.690624 274.09375 37.39375Q273.57812 37.08125 273.35938 36.596874Q273.14062 36.096874 273.14062 34.51875L273.14062 28.55L271.85938 28.55L271.85938 27.175L273.14062 27.175L273.14062 24.6125L274.89062 23.55L274.89062 27.175L276.65625 27.175L276.65625 28.55L274.89062 28.55L274.89062 34.6125Q274.89062 35.3625 274.98438 35.58125Q275.07812 35.784374 275.28125 35.925Q275.5 36.05 275.89062 36.05Q276.17188 36.05 276.65625 35.971874ZM288.17188 41.753124Q286.71875 39.925 285.71875 37.471874Q284.71875 35.003124 284.71875 32.3625Q284.71875 30.034374 285.46875 27.909374Q286.34375 25.440624 288.17188 22.9875L289.4375 22.9875Q288.25 25.01875 287.875 25.89375Q287.28125 27.2375 286.9375 28.70625Q286.51562 30.534374 286.51562 32.378124Q286.51562 37.065624 289.4375 41.753124L288.17188 41.753124ZM291.8125 37.55L291.8125 27.175L293.39062 27.175L293.39062 28.628124Q293.875 27.878124 294.6875 27.409374Q295.5 26.940624 296.53125 26.940624Q297.6875 26.940624 298.42188 27.425Q299.15625 27.89375 299.46875 28.753124Q300.70312 26.940624 302.67188 26.940624Q304.21875 26.940624 305.04688 27.8Q305.875 28.659374 305.875 30.425L305.875 37.55L304.125 37.55L304.125 31.01875Q304.125 29.95625 303.95312 29.503124Q303.78125 29.034374 303.32812 28.753124Q302.89062 28.471874 302.28125 28.471874Q301.1875 28.471874 300.45312 29.20625Q299.73438 29.925 299.73438 31.51875L299.73438 37.55L297.98438 37.55L297.98438 30.815624Q297.98438 29.64375 297.54688 29.065624Q297.125 28.471874 296.14062 28.471874Q295.40625 28.471874 294.76562 28.8625Q294.14062 29.253124 293.85938 30.003124Q293.57812 30.753124 293.57812 32.175L293.57812 37.55L291.8125 37.55ZM307.17188 32.3625Q307.17188 29.4875 308.76562 28.096874Q310.10938 26.940624 312.03125 26.940624Q314.17188 26.940624 315.51562 28.346874Q316.875 29.753124 316.875 32.221874Q316.875 34.221874 316.28125 35.378124Q315.6875 36.51875 314.53125 37.159374Q313.39062 37.784374 312.03125 37.784374Q309.84375 37.784374 308.5 36.39375Q307.17188 34.9875 307.17188 32.3625ZM308.96875 32.3625Q308.96875 34.3625 309.82812 35.346874Q310.70312 36.33125 312.03125 36.33125Q313.34375 36.33125 314.20312 35.346874Q315.07812 34.346874 315.07812 32.3Q315.07812 30.378124 314.20312 29.39375Q313.32812 28.39375 312.03125 28.39375Q310.70312 28.39375 309.82812 29.39375Q308.96875 30.378124 308.96875 32.3625ZM318.79688 37.55L318.79688 27.175L320.375 27.175L320.375 28.753124Q320.98438 27.64375 321.5 27.3Q322.01562 26.940624 322.625 26.940624Q323.51562 26.940624 324.4375 27.503124L323.82812 29.14375Q323.1875 28.753124 322.54688 28.753124Q321.96875 28.753124 321.5 29.1125Q321.04688 29.45625 320.84375 30.065624Q320.5625 31.003124 320.5625 32.1125L320.5625 37.55L318.79688 37.55ZM332.92188 34.20625L334.73438 34.440624Q334.3125 36.01875 333.14062 36.909374Q331.98438 37.784374 330.17188 37.784374Q327.90625 37.784374 326.5625 36.39375Q325.23438 34.9875 325.23438 32.45625Q325.23438 29.83125 326.57812 28.39375Q327.92188 26.940624 330.07812 26.940624Q332.15625 26.940624 333.46875 28.3625Q334.79688 29.76875 334.79688 32.346874Q334.79688 32.503124 334.78125 32.815624L327.04688 32.815624Q327.14062 34.51875 328.01562 35.425Q328.89062 36.33125 330.1875 36.33125Q331.15625 36.33125 331.82812 35.83125Q332.51562 35.315624 332.92188 34.20625ZM327.14062 31.3625L332.9375 31.3625Q332.82812 30.065624 332.28125 29.409374Q331.4375 28.39375 330.09375 28.39375Q328.89062 28.39375 328.0625 29.20625Q327.23438 30.003124 327.14062 31.3625ZM342.82812 25.253124L342.82812 23.2375L344.59375 23.2375L344.59375 25.253124L342.82812 25.253124ZM342.82812 37.55L342.82812 27.175L344.59375 27.175L344.59375 37.55L342.82812 37.55ZM346.10938 34.45625L347.85938 34.175Q348.0 35.221874 348.67188 35.784374Q349.34375 36.33125 350.54688 36.33125Q351.75 36.33125 352.32812 35.846874Q352.92188 35.346874 352.92188 34.690624Q352.92188 34.096874 352.40625 33.753124Q352.04688 33.51875 350.60938 33.159374Q348.67188 32.659374 347.92188 32.315624Q347.1875 31.95625 346.79688 31.33125Q346.40625 30.690624 346.40625 29.925Q346.40625 29.2375 346.71875 28.64375Q347.04688 28.05 347.59375 27.659374Q348.0 27.3625 348.70312 27.159374Q349.42188 26.940624 350.23438 26.940624Q351.45312 26.940624 352.375 27.3Q353.29688 27.64375 353.73438 28.253124Q354.17188 28.846874 354.34375 29.846874L352.625 30.08125Q352.5 29.284374 351.9375 28.846874Q351.375 28.39375 350.35938 28.39375Q349.14062 28.39375 348.625 28.8Q348.10938 29.190624 348.10938 29.721874Q348.10938 30.065624 348.32812 30.346874Q348.53125 30.628124 349.0 30.815624Q349.26562 30.909374 350.54688 31.253124Q352.42188 31.753124 353.15625 32.08125Q353.89062 32.39375 354.3125 33.003124Q354.73438 33.596874 354.73438 34.503124Q354.73438 35.378124 354.21875 36.159374Q353.70312 36.940624 352.73438 37.3625Q351.76562 37.784374 350.54688 37.784374Q348.53125 37.784374 347.46875 36.940624Q346.40625 36.096874 346.10938 34.45625ZM364.4375 37.55L362.8125 37.55L362.8125 23.2375L364.5625 23.2375L364.5625 28.346874Q365.6875 26.940624 367.40625 26.940624Q368.35938 26.940624 369.21875 27.33125Q370.07812 27.721874 370.625 28.425Q371.17188 29.1125 371.48438 30.096874Q371.79688 31.08125 371.79688 32.20625Q371.79688 34.878124 370.48438 36.33125Q369.17188 37.784374 367.32812 37.784374Q365.48438 37.784374 364.4375 36.253124L364.4375 37.55ZM364.42188 32.284374Q364.42188 34.14375 364.92188 34.9875Q365.76562 36.33125 367.17188 36.33125Q368.32812 36.33125 369.15625 35.33125Q370.0 34.33125 370.0 32.346874Q370.0 30.315624 369.1875 29.3625Q368.39062 28.39375 367.25 28.39375Q366.09375 28.39375 365.25 29.39375Q364.42188 30.39375 364.42188 32.284374ZM380.92188 34.20625L382.73438 34.440624Q382.3125 36.01875 381.14062 36.909374Q379.98438 37.784374 378.17188 37.784374Q375.90625 37.784374 374.5625 36.39375Q373.23438 34.9875 373.23438 32.45625Q373.23438 29.83125 374.57812 28.39375Q375.92188 26.940624 378.07812 26.940624Q380.15625 26.940624 381.46875 28.3625Q382.79688 29.76875 382.79688 32.346874Q382.79688 32.503124 382.78125 32.815624L375.04688 32.815624Q375.14062 34.51875 376.01562 35.425Q376.89062 36.33125 378.1875 36.33125Q379.15625 36.33125 379.82812 35.83125Q380.51562 35.315624 380.92188 34.20625ZM375.14062 31.3625L380.9375 31.3625Q380.82812 30.065624 380.28125 29.409374Q379.4375 28.39375 378.09375 28.39375Q376.89062 28.39375 376.0625 29.20625Q375.23438 30.003124 375.14062 31.3625ZM388.65625 35.971874L388.90625 37.534374Q388.17188 37.690624 387.57812 37.690624Q386.625 37.690624 386.09375 37.39375Q385.57812 37.08125 385.35938 36.596874Q385.14062 36.096874 385.14062 34.51875L385.14062 28.55L383.85938 28.55L383.85938 27.175L385.14062 27.175L385.14062 24.6125L386.89062 23.55L386.89062 27.175L388.65625 27.175L388.65625 28.55L386.89062 28.55L386.89062 34.6125Q386.89062 35.3625 386.98438 35.58125Q387.07812 35.784374 387.28125 35.925Q387.5 36.05 387.89062 36.05Q388.17188 36.05 388.65625 35.971874ZM394.65625 35.971874L394.90625 37.534374Q394.17188 37.690624 393.57812 37.690624Q392.625 37.690624 392.09375 37.39375Q391.57812 37.08125 391.35938 36.596874Q391.14062 36.096874 391.14062 34.51875L391.14062 28.55L389.85938 28.55L389.85938 27.175L391.14062 27.175L391.14062 24.6125L392.89062 23.55L392.89062 27.175L394.65625 27.175L394.65625 28.55L392.89062 28.55L392.89062 34.6125Q392.89062 35.3625 392.98438 35.58125Q393.07812 35.784374 393.28125 35.925Q393.5 36.05 393.89062 36.05Q394.17188 36.05 394.65625 35.971874ZM403.92188 34.20625L405.73438 34.440624Q405.3125 36.01875 404.14062 36.909374Q402.98438 37.784374 401.17188 37.784374Q398.90625 37.784374 397.5625 36.39375Q396.23438 34.9875 396.23438 32.45625Q396.23438 29.83125 397.57812 28.39375Q398.92188 26.940624 401.07812 26.940624Q403.15625 26.940624 404.46875 28.3625Q405.79688 29.76875 405.79688 32.346874Q405.79688 32.503124 405.78125 32.815624L398.04688 32.815624Q398.14062 34.51875 399.01562 35.425Q399.89062 36.33125 401.1875 36.33125Q402.15625 36.33125 402.82812 35.83125Q403.51562 35.315624 403.92188 34.20625ZM398.14062 31.3625L403.9375 31.3625Q403.82812 30.065624 403.28125 29.409374Q402.4375 28.39375 401.09375 28.39375Q399.89062 28.39375 399.0625 29.20625Q398.23438 30.003124 398.14062 31.3625ZM407.79688 37.55L407.79688 27.175L409.375 27.175L409.375 28.753124Q409.98438 27.64375 410.5 27.3Q411.01562 26.940624 411.625 26.940624Q412.51562 26.940624 413.4375 27.503124L412.82812 29.14375Q412.1875 28.753124 411.54688 28.753124Q410.96875 28.753124 410.5 29.1125Q410.04688 29.45625 409.84375 30.065624Q409.5625 31.003124 409.5625 32.1125L409.5625 37.55L407.79688 37.55ZM415.96875 41.753124L414.71875 41.753124Q417.625 37.065624 417.625 32.378124Q417.625 30.534374 417.21875 28.7375Q416.875 27.26875 416.28125 25.925Q415.90625 25.034374 414.71875 22.9875L415.96875 22.9875Q417.8125 25.440624 418.6875 27.909374Q419.4375 30.034374 419.4375 32.3625Q419.4375 35.003124 418.42188 37.471874Q417.42188 39.925 415.96875 41.753124Z" fill-rule="nonzero"/></svg>