<svg width="32" height="32" viewBox="0 0 32 32" fill="none" xmlns="http://www.w3.org/2000/svg">
<rect width="32" height="32" rx="8" transform="matrix(-1 0 0 1 32 0)" fill="url(#paint0_linear_179_3489)"/>
<path fill-rule="evenodd" clip-rule="evenodd" d="M13.363 6.57141C8.74135 6.57141 4.99214 10.2823 5 14.8741V24.47C5 24.9996 5.4323 25.4286 5.96678 25.4286H7.9522C8.48668 25.4286 8.91897 24.9996 8.91897 24.47V21.1189C8.91897 20.1289 10.5143 19.1428 11.5125 19.1428H14.8171C15.6031 19.1428 16.7821 19.9286 16.7821 21.1189V24.4582C16.7821 24.9878 17.2144 25.4168 17.7488 25.4168H19.7343C20.2687 25.4168 20.701 24.9878 20.701 24.4582V19.1428C20.701 16.8583 22.188 16.7879 24.4264 16.682C24.4975 16.6787 24.5694 16.6753 24.642 16.6718V19.5357C24.642 19.7541 24.5854 19.8461 24.5713 19.8618C24.5689 19.8657 24.5611 19.8751 24.532 19.8869C24.4413 19.919 24.3451 19.9331 24.249 19.9286C23.9363 19.9286 23.6365 20.0527 23.4153 20.2737C23.1942 20.4948 23.07 20.7945 23.07 21.1071C23.07 21.4197 23.1942 21.7195 23.4153 21.9405C23.6365 22.1615 23.9363 22.2857 24.249 22.2857C25.1223 22.2857 25.8745 21.9816 26.3838 21.3703C26.8609 20.7968 27 20.103 27 19.5357V10.4921C27 8.3267 25.2315 6.57141 23.0464 6.57141H13.363ZM14.4415 14.2218C14.4286 10.5 16.7866 8.14284 19.9305 8.14284V14.3734C19.9289 14.5979 19.8382 14.8126 19.6782 14.9703C19.5183 15.128 19.3022 15.2157 19.0776 15.2143H15.2823C15.1581 15.2155 15.0351 15.1893 14.9222 15.1376C14.8093 15.0859 14.7091 15.01 14.6288 14.9153C14.5486 14.8205 14.4902 14.7093 14.4578 14.5894C14.4254 14.4696 14.4199 14.3441 14.4415 14.2218ZM23.0745 12.0714C23.0745 11.6375 23.4264 11.2857 23.8605 11.2857C24.2946 11.2857 24.6465 11.6375 24.6465 12.0714V13.6289L24.6465 13.6348C24.4295 13.4704 24.1584 13.3716 23.8605 13.3716C23.5626 13.3716 23.2914 13.4704 23.0745 13.6348L23.0745 13.6289V12.0714Z" fill="#FAFAFA"/>
<defs>
<linearGradient id="paint0_linear_179_3489" x1="-4.79829e-07" y1="32" x2="33.6781" y2="1.87607" gradientUnits="userSpaceOnUse">
<stop stop-color="#D940FF"/>
<stop offset="0.244271" stop-color="#9E02FE"/>
<stop offset="1" stop-color="#00D1FF"/>
</linearGradient>
</defs>
</svg>
