<svg width="350" height="500" viewBox="0 0 350 500" fill="none" xmlns="http://www.w3.org/2000/svg">
<path d="M228.549 190.11C228.193 189.735 227.83 189.368 227.463 189.004C226.988 189.569 226.472 190.107 225.916 190.625C221.743 194.798 215.545 197.365 209.645 197.365C203.41 197.365 197.877 194.758 193.374 190.625C188.857 186.478 186.901 180.306 186.635 174.354C186.595 173.297 186.643 172.263 186.778 171.252C186.162 171.218 185.544 171.192 184.931 171.181C172.18 170.914 165.397 172.805 163.077 177.728C160.459 183.285 163.679 188.262 173.397 200.117C183.607 212.573 201.359 219.404 216.903 219.96C231.264 220.475 238.103 219.124 240.42 214.2C243.038 208.644 240.767 202.95 228.546 190.113L228.549 190.11Z" fill="#141E50"/>
<path d="M228.549 190.11C228.193 189.735 227.83 189.368 227.463 189.004C226.988 189.569 226.472 190.107 225.916 190.625C221.743 194.798 215.545 197.365 209.645 197.365C203.41 197.365 197.877 194.758 193.374 190.625C188.857 186.478 186.901 180.306 186.635 174.354C186.595 173.297 186.643 172.263 186.778 171.252C186.162 171.218 185.544 171.192 184.931 171.181C172.18 170.914 165.397 172.805 163.077 177.728C160.459 183.285 163.679 188.262 173.397 200.117C183.607 212.573 201.359 219.404 216.903 219.96C231.264 220.475 238.103 219.124 240.42 214.2C243.038 208.644 240.767 202.95 228.546 190.113L228.549 190.11Z" fill="url(#paint0_linear_503_6)"/>
<path d="M256.603 0.650236C350.177 57.721 386.958 155.176 301.486 236.964C299.224 239.129 295.498 238.325 294.332 235.418C287.146 217.508 281.372 198.201 270.537 182.359C245.601 145.902 205.386 133.87 164.489 126.225C110.635 116.158 107.209 119.225 112.379 174.532C117.085 224.878 140.041 266.579 181.078 296.209C226.28 328.846 288.495 330.687 328.154 273.717C330.497 270.351 335.765 271.712 336.168 275.793C347.307 388.07 261.967 491.311 130.985 488.444C127.158 488.361 125.245 483.778 127.874 481C133.382 475.18 138.323 469.99 143.057 464.617C190.622 410.645 182.109 332.841 124.981 299.981C121.902 298.211 118.623 296.787 114.937 295.957C110.326 294.92 107.539 300.986 111.345 303.79C111.374 303.81 111.403 303.833 111.431 303.853C153.167 333.915 148.854 396.439 120.531 433.627C91.7947 471.353 53.8679 492.545 5.06304 499.949C2.10152 500.399 -0.433225 497.809 0.0622698 494.857C6.90182 454.149 13.9332 414.569 20.0052 374.841C31.668 298.566 44.23 222.374 53.3609 145.784C57.8748 107.903 46.3896 71.2999 29.2478 37.062C27.4061 33.3816 25.4985 29.7355 23.1643 25.2933C21.2625 21.6701 24.8943 17.6317 28.6979 19.144C41.6037 24.2765 52.8024 28.9851 64.405 32.276C97.8008 41.7505 121.779 59.3564 198.466 59.9464C238.097 60.25 253.95 40.3643 249.938 4.90924C249.525 1.27465 253.484 -1.25155 256.606 0.650236H256.603Z" fill="#141E50"/>
<path d="M256.603 0.650236C350.177 57.721 386.958 155.176 301.486 236.964C299.224 239.129 295.498 238.325 294.332 235.418C287.146 217.508 281.372 198.201 270.537 182.359C245.601 145.902 205.386 133.87 164.489 126.225C110.635 116.158 107.209 119.225 112.379 174.532C117.085 224.878 140.041 266.579 181.078 296.209C226.28 328.846 288.495 330.687 328.154 273.717C330.497 270.351 335.765 271.712 336.168 275.793C347.307 388.07 261.967 491.311 130.985 488.444C127.158 488.361 125.245 483.778 127.874 481C133.382 475.18 138.323 469.99 143.057 464.617C190.622 410.645 182.109 332.841 124.981 299.981C121.902 298.211 118.623 296.787 114.937 295.957C110.326 294.92 107.539 300.986 111.345 303.79C111.374 303.81 111.403 303.833 111.431 303.853C153.167 333.915 148.854 396.439 120.531 433.627C91.7947 471.353 53.8679 492.545 5.06304 499.949C2.10152 500.399 -0.433225 497.809 0.0622698 494.857C6.90182 454.149 13.9332 414.569 20.0052 374.841C31.668 298.566 44.23 222.374 53.3609 145.784C57.8748 107.903 46.3896 71.2999 29.2478 37.062C27.4061 33.3816 25.4985 29.7355 23.1643 25.2933C21.2625 21.6701 24.8943 17.6317 28.6979 19.144C41.6037 24.2765 52.8024 28.9851 64.405 32.276C97.8008 41.7505 121.779 59.3564 198.466 59.9464C238.097 60.25 253.95 40.3643 249.938 4.90924C249.525 1.27465 253.484 -1.25155 256.606 0.650236H256.603Z" fill="url(#paint1_linear_503_6)"/>
<defs>
<linearGradient id="paint0_linear_503_6" x1="193.463" y1="218.302" x2="202.121" y2="177.25" gradientUnits="userSpaceOnUse">
<stop stop-color="#0066FF"/>
<stop offset="1" stop-color="#00B2FF"/>
</linearGradient>
<linearGradient id="paint1_linear_503_6" x1="138" y1="482" x2="310.868" y2="128.059" gradientUnits="userSpaceOnUse">
<stop stop-color="#FF417A"/>
<stop offset="0.380208" stop-color="#BD00FF"/>
<stop offset="0.555509" stop-color="#9234F0"/>
<stop offset="0.992891" stop-color="#00D1FF"/>
</linearGradient>
</defs>
</svg>
