<svg width="40" height="40" viewBox="0 0 40 40" fill="none" xmlns="http://www.w3.org/2000/svg">
<path d="M38.8625 16.3953C39.0957 17.7377 39.212 19.0978 39.21 20.4603C39.21 26.5453 37.035 31.6903 33.25 35.1728H33.255C29.945 38.2304 25.395 40.0003 20 40.0003C14.6957 40.0003 9.60859 37.8932 5.85786 34.1425C2.10714 30.3918 0 25.3047 0 20.0003C0 14.696 2.10714 9.60894 5.85786 5.85821C9.60859 2.10748 14.6957 0.000343154 20 0.000343154C24.9648 -0.0578027 29.7596 1.80743 33.38 5.20534L27.67 10.9153C25.6059 8.94778 22.8512 7.87032 20 7.91534C14.7825 7.91534 10.35 11.4353 8.77 16.1753C7.93226 18.6591 7.93226 21.3491 8.77 23.8328H8.7775C10.365 28.5653 14.79 32.0853 20.0075 32.0853C22.7025 32.0853 25.0175 31.3953 26.8125 30.1753H26.805C27.8473 29.4849 28.7388 28.5903 29.4259 27.5458C30.1129 26.5013 30.5812 25.3284 30.8025 24.0978H20V16.3978H38.8625V16.3953Z" fill="#FAFAFA"/>
</svg>
