<svg width="14" height="15" viewBox="0 0 14 15" fill="none" xmlns="http://www.w3.org/2000/svg">
<g id="cancel">
<mask id="mask0_2188_1448" style="mask-type:alpha" maskUnits="userSpaceOnUse" x="0" y="0" width="14" height="15">
<rect id="Bounding box" y="0.0195312" width="14" height="14" fill="#D9D9D9"/>
</mask>
<g mask="url(#mask0_2188_1448)">
<path id="cancel_2" d="M6.99966 7.63392L8.7923 9.42655C8.87306 9.50732 8.97458 9.54864 9.09686 9.55051C9.21913 9.55238 9.32251 9.51107 9.40702 9.42655C9.49153 9.34204 9.53379 9.23959 9.53379 9.11919C9.53379 8.99879 9.49153 8.89634 9.40702 8.81183L7.61439 7.01919L9.40702 5.22655C9.48779 5.14579 9.52911 5.04427 9.53098 4.92199C9.53285 4.79973 9.49153 4.69634 9.40702 4.61183C9.32251 4.52732 9.22006 4.48506 9.09966 4.48506C8.97926 4.48506 8.87681 4.52732 8.7923 4.61183L6.99966 6.40446L5.20702 4.61183C5.12626 4.53106 5.02474 4.48974 4.90246 4.48788C4.78019 4.486 4.67681 4.52732 4.5923 4.61183C4.50779 4.69634 4.46553 4.79879 4.46553 4.91919C4.46553 5.03959 4.50779 5.14204 4.5923 5.22655L6.38493 7.01919L4.5923 8.81183C4.51153 8.8926 4.47021 8.99412 4.46834 9.11639C4.46647 9.23866 4.50779 9.34204 4.5923 9.42655C4.67681 9.51107 4.77926 9.55332 4.89966 9.55332C5.02006 9.55332 5.12251 9.51107 5.20702 9.42655L6.99966 7.63392ZM7.00064 12.5608C6.23418 12.5608 5.51374 12.4154 4.83933 12.1245C4.16491 11.8336 3.57826 11.4389 3.07938 10.9402C2.5805 10.4415 2.18555 9.85514 1.89453 9.18103C1.60352 8.50692 1.45801 7.78663 1.45801 7.02017C1.45801 6.25371 1.60345 5.53327 1.89434 4.85886C2.18523 4.18444 2.58 3.59779 3.07865 3.09891C3.57732 2.60003 4.16371 2.20508 4.83783 1.91406C5.51194 1.62305 6.23222 1.47754 6.99868 1.47754C7.76514 1.47754 8.48558 1.62298 9.15999 1.91387C9.83441 2.20476 10.4211 2.59953 10.9199 3.09819C11.4188 3.59685 11.8138 4.18324 12.1048 4.85736C12.3958 5.53147 12.5413 6.25175 12.5413 7.01821C12.5413 7.78468 12.3959 8.50511 12.105 9.17952C11.8141 9.85394 11.4193 10.4406 10.9207 10.9395C10.422 11.4384 9.83561 11.8333 9.16149 12.1243C8.48738 12.4153 7.7671 12.5608 7.00064 12.5608Z" fill="#E9467A"/>
</g>
</g>
</svg>
