<svg width="48" height="48" viewBox="0 0 48 48" fill="none" xmlns="http://www.w3.org/2000/svg">
<path fill-rule="evenodd" clip-rule="evenodd" d="M16.5 10C16.5 6.96243 18.9624 4.5 22 4.5H26C29.0376 4.5 31.5 6.96243 31.5 10V14C31.5 14.8284 30.8284 15.5 30 15.5H18C17.1716 15.5 16.5 14.8284 16.5 14V10ZM22 7.5C20.6193 7.5 19.5 8.61929 19.5 10V12.5H28.5V10C28.5 8.61929 27.3807 7.5 26 7.5H22Z" fill="white" stroke="white" stroke-width="1.5" stroke-linecap="round" stroke-linejoin="round"/>
<path fill-rule="evenodd" clip-rule="evenodd" d="M14 11.5C12.6193 11.5 11.5 12.6193 11.5 14V38C11.5 39.3807 12.6193 40.5 14 40.5H20C20.8284 40.5 21.5 41.1716 21.5 42C21.5 42.8284 20.8284 43.5 20 43.5H14C10.9624 43.5 8.5 41.0376 8.5 38V14C8.5 10.9624 10.9624 8.5 14 8.5H18C18.8284 8.5 19.5 9.17157 19.5 10C19.5 10.8284 18.8284 11.5 18 11.5H14ZM28.5 10C28.5 9.17157 29.1716 8.5 30 8.5H34C37.0376 8.5 39.5 10.9624 39.5 14V24C39.5 24.8284 38.8284 25.5 38 25.5C37.1716 25.5 36.5 24.8284 36.5 24V14C36.5 12.6193 35.3807 11.5 34 11.5H30C29.1716 11.5 28.5 10.8284 28.5 10Z" fill="white" stroke="white" stroke-width="1.5" stroke-linecap="round" stroke-linejoin="round"/>
<path fill-rule="evenodd" clip-rule="evenodd" d="M41.0607 30.9393C41.6464 31.5251 41.6464 32.4749 41.0607 33.0607L31.0607 43.0607C30.4749 43.6464 29.5251 43.6464 28.9393 43.0607L24.9393 39.0607C24.3536 38.4749 24.3536 37.5251 24.9393 36.9393C25.5251 36.3536 26.4749 36.3536 27.0607 36.9393L30 39.8787L38.9393 30.9393C39.5251 30.3536 40.4749 30.3536 41.0607 30.9393Z" fill="white" stroke="white" stroke-width="1.5" stroke-linecap="round" stroke-linejoin="round"/>
</svg>
