<svg xmlns="http://www.w3.org/2000/svg" width="24" height="24" viewBox="0 0 24 24" fill="none">
  <path fill-rule="evenodd" clip-rule="evenodd" d="M8.25 5C8.25 3.48122 9.48122 2.25 11 2.25H13C14.5188 2.25 15.75 3.48122 15.75 5V7C15.75 7.41421 15.4142 7.75 15 7.75H9C8.58579 7.75 8.25 7.41421 8.25 7V5ZM11 3.75C10.3096 3.75 9.75 4.30964 9.75 5V6.25H14.25V5C14.25 4.30964 13.6904 3.75 13 3.75H11Z" fill="white"/>
  <path fill-rule="evenodd" clip-rule="evenodd" d="M7 5.75C6.30964 5.75 5.75 6.30964 5.75 7V19C5.75 19.6904 6.30964 20.25 7 20.25H10C10.4142 20.25 10.75 20.5858 10.75 21C10.75 21.4142 10.4142 21.75 10 21.75H7C5.48122 21.75 4.25 20.5188 4.25 19V7C4.25 5.48122 5.48122 4.25 7 4.25H9C9.41421 4.25 9.75 4.58579 9.75 5C9.75 5.41421 9.41421 5.75 9 5.75H7ZM14.25 5C14.25 4.58579 14.5858 4.25 15 4.25H17C18.5188 4.25 19.75 5.48122 19.75 7V12C19.75 12.4142 19.4142 12.75 19 12.75C18.5858 12.75 18.25 12.4142 18.25 12V7C18.25 6.30964 17.6904 5.75 17 5.75H15C14.5858 5.75 14.25 5.41421 14.25 5Z" fill="white"/>
  <path fill-rule="evenodd" clip-rule="evenodd" d="M20.5303 15.4697C20.8232 15.7626 20.8232 16.2374 20.5303 16.5303L15.5303 21.5303C15.2374 21.8232 14.7626 21.8232 14.4697 21.5303L12.4697 19.5303C12.1768 19.2374 12.1768 18.7626 12.4697 18.4697C12.7626 18.1768 13.2374 18.1768 13.5303 18.4697L15 19.9393L19.4697 15.4697C19.7626 15.1768 20.2374 15.1768 20.5303 15.4697Z" fill="white"/>
</svg>
