<svg width="15" height="11" viewBox="0 0 15 11" fill="none" xmlns="http://www.w3.org/2000/svg">
<path d="M14.5417 2.04148L5.70832 10.8748C5.63009 10.9537 5.52359 10.9981 5.41249 10.9981C5.30139 10.9981 5.19489 10.9537 5.11665 10.8748L0.624989 6.38315C0.546109 6.30491 0.50174 6.19841 0.50174 6.08731C0.50174 5.97621 0.546109 5.86972 0.624989 5.79148L1.20832 5.20815C1.28656 5.12927 1.39306 5.0849 1.50416 5.0849C1.61525 5.0849 1.72175 5.12927 1.79999 5.20815L5.40832 8.81648L13.3667 0.858146C13.5315 0.698326 13.7935 0.698326 13.9583 0.858146L14.5417 1.44981C14.6205 1.52805 14.6649 1.63455 14.6649 1.74565C14.6649 1.85674 14.6205 1.96324 14.5417 2.04148Z" fill="url(#paint0_linear_776_10451)"/>
<defs>
<linearGradient id="paint0_linear_776_10451" x1="14.6649" y1="0.738281" x2="4.91622" y2="14.1959" gradientUnits="userSpaceOnUse">
<stop stop-color="#44FFDD"/>
<stop offset="1" stop-color="#05C168"/>
</linearGradient>
</defs>
</svg>
