<svg width="24" height="25" viewBox="0 0 24 25" fill="none" xmlns="http://www.w3.org/2000/svg">
<g id="close_small">
<mask id="mask0_2088_8147" style="mask-type:alpha" maskUnits="userSpaceOnUse" x="0" y="0" width="24" height="25">
<rect id="Bounding box" y="0.0195312" width="24" height="24" fill="#D9D9D9"/>
</mask>
<g mask="url(#mask0_2088_8147)">
<path id="close_small_2" d="M12.0002 13.0829L8.75406 16.3291C8.60919 16.474 8.43355 16.5448 8.22713 16.5416C8.02073 16.5384 7.8451 16.4644 7.70023 16.3195C7.55537 16.1746 7.48293 15.9974 7.48293 15.7878C7.48293 15.5782 7.55537 15.4009 7.70023 15.2561L10.9368 12.0195L7.69061 8.79833C7.54574 8.65346 7.47492 8.47622 7.47813 8.2666C7.48133 8.05699 7.55537 7.87975 7.70023 7.73488C7.8451 7.59001 8.02234 7.51758 8.23196 7.51758C8.44156 7.51758 8.61879 7.59001 8.76366 7.73488L12.0002 10.9811L15.2214 7.73488C15.3663 7.59001 15.5419 7.51758 15.7483 7.51758C15.9547 7.51758 16.1304 7.59001 16.2752 7.73488C16.4303 7.89001 16.5079 8.06982 16.5079 8.2743C16.5079 8.47879 16.4303 8.65346 16.2752 8.79833L13.0387 12.0195L16.2849 15.2657C16.4297 15.4105 16.5022 15.5862 16.5022 15.7926C16.5022 15.999 16.4297 16.1746 16.2849 16.3195C16.1297 16.4746 15.9499 16.5522 15.7454 16.5522C15.5409 16.5522 15.3663 16.4746 15.2214 16.3195L12.0002 13.0829Z" fill="white"/>
</g>
</g>
</svg>
