<svg width="32" height="32" viewBox="0 0 32 32" fill="none" xmlns="http://www.w3.org/2000/svg">
<path d="M24.1013 21.0952C23.549 21.0952 23.1013 21.543 23.1013 22.0952C23.1013 22.6475 23.549 23.0952 24.1013 23.0952V21.0952ZM24.8043 22.0952V21.0952V22.0952ZM26.6667 20.2328H25.6667H26.6667ZM26.6667 7.19578L27.6667 7.19578V7.19578H26.6667ZM24.8043 5.33334V6.33334V5.33334ZM11.7672 5.33334L11.7672 4.33334L11.7672 5.33334ZM9.9048 7.19578H8.9048H9.9048ZM8.9048 7.69947C8.9048 8.25175 9.35252 8.69947 9.9048 8.69947C10.4571 8.69947 10.9048 8.25175 10.9048 7.69947H8.9048ZM24.1013 23.0952H24.8043V21.0952H24.1013V23.0952ZM24.8043 23.0952C25.5634 23.0952 26.2915 22.7937 26.8283 22.2569L25.4141 20.8426C25.2524 21.0044 25.033 21.0952 24.8043 21.0952V23.0952ZM26.8283 22.2569C27.3651 21.72 27.6667 20.992 27.6667 20.2328L25.6667 20.2328C25.6667 20.4615 25.5758 20.6809 25.4141 20.8426L26.8283 22.2569ZM27.6667 20.2328L27.6667 7.19578L25.6667 7.19578L25.6667 20.2328L27.6667 20.2328ZM27.6667 7.19578C27.6667 6.43661 27.3651 5.70854 26.8283 5.17173L25.4141 6.58595C25.5758 6.74768 25.6667 6.96705 25.6667 7.19578L27.6667 7.19578ZM26.8283 5.17173C26.2915 4.63492 25.5634 4.33334 24.8043 4.33334V6.33334C25.033 6.33334 25.2524 6.42421 25.4141 6.58595L26.8283 5.17173ZM24.8043 4.33334L11.7672 4.33334L11.7672 6.33334L24.8043 6.33334V4.33334ZM11.7672 4.33334C11.0081 4.33334 10.28 4.63492 9.74319 5.17173L11.1574 6.58594C11.3191 6.42421 11.5385 6.33334 11.7672 6.33334L11.7672 4.33334ZM9.74319 5.17173C9.20638 5.70854 8.9048 6.43661 8.9048 7.19578L10.9048 7.19578C10.9048 6.96705 10.9957 6.74768 11.1574 6.58594L9.74319 5.17173ZM8.9048 7.19578V7.69947H10.9048V7.19578H8.9048ZM6.85718 10.9048H20.5715V8.90477H6.85718V10.9048ZM21.0953 11.4286V25.1429H23.0953V11.4286H21.0953ZM20.5715 25.6667H6.85718V27.6667H20.5715V25.6667ZM6.33337 25.1429V11.4286H4.33337V25.1429H6.33337ZM6.85718 25.6667C6.56789 25.6667 6.33337 25.4322 6.33337 25.1429H4.33337C4.33337 26.5367 5.46332 27.6667 6.85718 27.6667V25.6667ZM21.0953 25.1429C21.0953 25.4322 20.8608 25.6667 20.5715 25.6667V27.6667C21.9653 27.6667 23.0953 26.5367 23.0953 25.1429H21.0953ZM20.5715 10.9048C20.8608 10.9048 21.0953 11.1393 21.0953 11.4286H23.0953C23.0953 10.0347 21.9653 8.90477 20.5715 8.90477V10.9048ZM6.85718 8.90477C5.46332 8.90477 4.33337 10.0347 4.33337 11.4286H6.33337C6.33337 11.1393 6.56789 10.9048 6.85718 10.9048V8.90477Z" fill="#FBFBFB"/>
</svg>
