<svg width="19" height="19" viewBox="0 0 19 19" fill="none" xmlns="http://www.w3.org/2000/svg">
<path id="Vector" d="M7.81953 11.9725C7.60703 11.9725 7.42891 11.9006 7.28516 11.7568C7.14141 11.6131 7.06953 11.435 7.06953 11.2225V7.59746C7.06953 7.38496 7.14141 7.20684 7.28516 7.06309C7.42891 6.91934 7.60703 6.84746 7.81953 6.84746H11.4445C11.657 6.84746 11.8352 6.91934 11.9789 7.06309C12.1227 7.20684 12.1945 7.38496 12.1945 7.59746V11.2225C12.1945 11.435 12.1227 11.6131 11.9789 11.7568C11.8352 11.9006 11.657 11.9725 11.4445 11.9725H7.81953ZM7.39016 18.3975C7.17641 18.3975 6.9987 18.3256 6.85703 18.1818C6.71536 18.0381 6.64453 17.86 6.64453 17.6475V16.3975H4.14453C3.74453 16.3975 3.39453 16.2475 3.09453 15.9475C2.79453 15.6475 2.64453 15.2975 2.64453 14.8975V12.3975H1.39453C1.18203 12.3975 1.00391 12.3252 0.860156 12.1806C0.716406 12.036 0.644531 11.8568 0.644531 11.6431C0.644531 11.4293 0.716406 11.2516 0.860156 11.11C1.00391 10.9683 1.18203 10.8975 1.39453 10.8975H2.64453V7.79746H1.39453C1.18203 7.79746 1.00391 7.72517 0.860156 7.58059C0.716406 7.43599 0.644531 7.25682 0.644531 7.04309C0.644531 6.82934 0.716406 6.65163 0.860156 6.50996C1.00391 6.36829 1.18203 6.29746 1.39453 6.29746H2.64453V3.79746C2.64453 3.39746 2.79453 3.04746 3.09453 2.74746C3.39453 2.44746 3.74453 2.29746 4.14453 2.29746H6.64453V1.14746C6.64453 0.934961 6.71682 0.756836 6.86141 0.613086C7.00601 0.469336 7.18517 0.397461 7.39891 0.397461C7.61266 0.397461 7.79036 0.469336 7.93203 0.613086C8.0737 0.756836 8.14453 0.934961 8.14453 1.14746V2.29746H11.2445V1.14746C11.2445 0.934961 11.3168 0.756836 11.4614 0.613086C11.606 0.469336 11.7852 0.397461 11.9989 0.397461C12.2127 0.397461 12.3904 0.469336 12.532 0.613086C12.6737 0.756836 12.7445 0.934961 12.7445 1.14746V2.29746H15.2445C15.6445 2.29746 15.9945 2.44746 16.2945 2.74746C16.5945 3.04746 16.7445 3.39746 16.7445 3.79746V6.29746H17.8945C18.107 6.29746 18.2852 6.36975 18.4289 6.51434C18.5727 6.65894 18.6445 6.8381 18.6445 7.05184C18.6445 7.26559 18.5727 7.44329 18.4289 7.58496C18.2852 7.72663 18.107 7.79746 17.8945 7.79746H16.7445V10.8975H17.8945C18.107 10.8975 18.2852 10.9698 18.4289 11.1143C18.5727 11.2589 18.6445 11.4381 18.6445 11.6518C18.6445 11.8656 18.5727 12.0433 18.4289 12.185C18.2852 12.3266 18.107 12.3975 17.8945 12.3975H16.7445V14.8975C16.7445 15.2975 16.5945 15.6475 16.2945 15.9475C15.9945 16.2475 15.6445 16.3975 15.2445 16.3975H12.7445V17.6475C12.7445 17.86 12.6722 18.0381 12.5277 18.1818C12.3831 18.3256 12.2039 18.3975 11.9902 18.3975C11.7764 18.3975 11.5987 18.3256 11.457 18.1818C11.3154 18.0381 11.2445 17.86 11.2445 17.6475V16.3975H8.14453V17.6475C8.14453 17.86 8.07224 18.0381 7.92766 18.1818C7.78306 18.3256 7.60389 18.3975 7.39016 18.3975ZM4.14453 14.8975H15.2445V3.79746H4.14453V14.8975ZM8.56953 10.4725H10.6945V8.34746H8.56953V10.4725Z" fill="#DEE0E7"/>
</svg>
