<svg width="32" height="32" viewBox="0 0 32 32" fill="none" xmlns="http://www.w3.org/2000/svg">
<path d="M21.3334 11C20.7811 11 20.3334 11.4477 20.3334 12C20.3334 12.5523 20.7811 13 21.3334 13V11ZM10.6667 13C11.219 13 11.6667 12.5523 11.6667 12C11.6667 11.4477 11.219 11 10.6667 11V13ZM6.77078 26.3664L6.3098 27.2538H6.3098L6.77078 26.3664ZM5.6336 25.2293L6.52102 24.7683H6.52102L5.6336 25.2293ZM26.3665 25.2293L27.2539 25.6902L26.3665 25.2293ZM25.2293 26.3664L25.6903 27.2538L25.2293 26.3664ZM26.3665 13.4374L27.2539 12.9764V12.9764L26.3665 13.4374ZM25.2293 12.3002L24.7683 13.1876V13.1876L25.2293 12.3002ZM5.6336 13.4374L4.74619 12.9764L5.6336 13.4374ZM6.77078 12.3002L6.3098 11.4128H6.3098L6.77078 12.3002ZM17 5.33333C17 4.78105 16.5523 4.33333 16 4.33333C15.4478 4.33333 15 4.78105 15 5.33333H17ZM16 18.6667L15.2929 19.3738C15.6835 19.7643 16.3166 19.7643 16.7071 19.3738L16 18.6667ZM13.3738 14.6262C12.9833 14.2357 12.3501 14.2357 11.9596 14.6262C11.5691 15.0168 11.5691 15.6499 11.9596 16.0404L13.3738 14.6262ZM20.0405 16.0404C20.431 15.6499 20.431 15.0168 20.0405 14.6262C19.65 14.2357 19.0168 14.2357 18.6263 14.6262L20.0405 16.0404ZM25.6667 16.2933V22.3733H27.6667V16.2933H25.6667ZM22.3734 25.6667H9.62671V27.6667H22.3734V25.6667ZM6.33337 22.3733V16.2933H4.33337V22.3733H6.33337ZM21.3334 13H22.3734V11H21.3334V13ZM9.62671 13H10.6667V11H9.62671V13ZM9.62671 25.6667C8.8506 25.6667 8.32967 25.6659 7.92875 25.6326C7.5398 25.6003 7.35421 25.5426 7.23175 25.479L6.3098 27.2538C6.76531 27.4905 7.24837 27.5829 7.76323 27.6257C8.26612 27.6675 8.88417 27.6667 9.62671 27.6667V25.6667ZM4.33337 22.3733C4.33337 23.1159 4.33257 23.7339 4.37433 24.2368C4.41709 24.7517 4.50957 25.2347 4.74619 25.6902L6.52102 24.7683C6.45741 24.6458 6.39977 24.4602 6.36747 24.0713C6.33418 23.6704 6.33337 23.1494 6.33337 22.3733H4.33337ZM7.23175 25.479C6.92734 25.3209 6.67914 25.0727 6.52102 24.7683L4.74619 25.6902C5.09407 26.3599 5.64011 26.906 6.3098 27.2538L7.23175 25.479ZM25.6667 22.3733C25.6667 23.1494 25.6659 23.6704 25.6326 24.0713C25.6003 24.4602 25.5427 24.6458 25.4791 24.7683L27.2539 25.6902C27.4905 25.2347 27.583 24.7517 27.6257 24.2368C27.6675 23.7339 27.6667 23.1159 27.6667 22.3733H25.6667ZM22.3734 27.6667C23.1159 27.6667 23.734 27.6675 24.2369 27.6257C24.7517 27.5829 25.2348 27.4905 25.6903 27.2538L24.7683 25.479C24.6459 25.5426 24.4603 25.6003 24.0713 25.6326C23.6704 25.6659 23.1495 25.6667 22.3734 25.6667V27.6667ZM25.4791 24.7683C25.3209 25.0727 25.0727 25.3209 24.7683 25.479L25.6903 27.2538C26.36 26.906 26.906 26.3599 27.2539 25.6902L25.4791 24.7683ZM27.6667 16.2933C27.6667 15.5508 27.6675 14.9327 27.6257 14.4299C27.583 13.915 27.4905 13.4319 27.2539 12.9764L25.4791 13.8984C25.5427 14.0208 25.6003 14.2064 25.6326 14.5954C25.6659 14.9963 25.6667 15.5172 25.6667 16.2933H27.6667ZM22.3734 13C23.1495 13 23.6704 13.0008 24.0713 13.0341C24.4603 13.0664 24.6459 13.124 24.7683 13.1876L25.6903 11.4128C25.2348 11.1762 24.7517 11.0837 24.2369 11.041C23.734 10.9992 23.1159 11 22.3734 11V13ZM27.2539 12.9764C26.906 12.3067 26.36 11.7607 25.6903 11.4128L24.7683 13.1876C25.0727 13.3458 25.3209 13.594 25.4791 13.8984L27.2539 12.9764ZM6.33337 16.2933C6.33337 15.5172 6.33418 14.9963 6.36747 14.5954C6.39977 14.2064 6.45741 14.0208 6.52102 13.8984L4.74619 12.9764C4.50957 13.4319 4.41709 13.915 4.37433 14.4299C4.33257 14.9327 4.33337 15.5508 4.33337 16.2933H6.33337ZM9.62671 11C8.88417 11 8.26612 10.9992 7.76323 11.041C7.24837 11.0837 6.76531 11.1762 6.3098 11.4128L7.23175 13.1876C7.35421 13.124 7.5398 13.0664 7.92875 13.0341C8.32967 13.0008 8.8506 13 9.62671 13V11ZM6.52102 13.8984C6.67914 13.594 6.92734 13.3458 7.23175 13.1876L6.3098 11.4128C5.64011 11.7607 5.09407 12.3067 4.74619 12.9764L6.52102 13.8984ZM15 5.33333V18.6667H17V5.33333H15ZM16.7071 17.9596L13.3738 14.6262L11.9596 16.0404L15.2929 19.3738L16.7071 17.9596ZM16.7071 19.3738L20.0405 16.0404L18.6263 14.6262L15.2929 17.9596L16.7071 19.3738Z" fill="#FBFBFB"/>
</svg>
