<svg width="19" height="19" viewBox="0 0 19 19" fill="none" xmlns="http://www.w3.org/2000/svg">
<path id="Vector" d="M7.94752 18.2012C7.18252 18.2012 6.60127 17.9724 6.20377 17.5149C5.80627 17.0574 5.60752 16.5362 5.60752 15.9512C5.60752 15.5612 5.69377 15.1824 5.86627 14.8149C6.03877 14.4474 6.30502 14.1437 6.66502 13.9037C6.99502 13.6937 7.26877 13.4124 7.48627 13.0599C7.70377 12.7074 7.86502 12.2237 7.97002 11.6087C7.95502 11.6087 7.94752 11.6049 7.94752 11.5974C7.94752 11.5899 7.93252 11.5787 7.90252 11.5637L5.29252 12.4862C5.03752 12.5762 4.79002 12.6512 4.55002 12.7112C4.31002 12.7712 4.06252 12.8012 3.80752 12.8012C2.86252 12.8012 2.02627 12.3887 1.29877 11.5637C0.57127 10.7387 0.20752 9.53117 0.20752 7.94117C0.20752 7.17617 0.43627 6.59492 0.89377 6.19742C1.35127 5.79992 1.86502 5.60117 2.43502 5.60117C2.82502 5.60117 3.20752 5.68742 3.58252 5.85992C3.95752 6.03242 4.26502 6.29867 4.50502 6.65867C4.71502 6.98867 5.01127 7.26992 5.39377 7.50242C5.77627 7.73492 6.24502 7.88867 6.80002 7.96367L6.83001 7.91867C6.84002 7.90367 6.84502 7.88867 6.84502 7.87367L5.92252 5.28617C5.83252 5.03117 5.75752 4.78367 5.69752 4.54367C5.63752 4.30367 5.60752 4.06367 5.60752 3.82367C5.60752 2.86367 6.02002 2.01992 6.84502 1.29242C7.67002 0.564922 8.87752 0.201172 10.4675 0.201172C11.2325 0.201172 11.8138 0.429922 12.2113 0.887422C12.6088 1.34492 12.8075 1.85867 12.8075 2.42867C12.8075 2.81867 12.7213 3.20117 12.5488 3.57617C12.3763 3.95117 12.11 4.25867 11.75 4.49867C11.36 4.75367 11.0563 5.09117 10.8388 5.51117C10.6213 5.93117 10.4975 6.36617 10.4675 6.81617C10.4825 6.83117 10.4938 6.83492 10.5013 6.82742C10.5088 6.81992 10.52 6.83117 10.535 6.86117L13.1225 5.89367C13.3775 5.80367 13.6213 5.73242 13.8538 5.67992C14.0863 5.62742 14.33 5.60117 14.585 5.60117C15.8 5.60117 16.7075 6.10367 17.3075 7.10867C17.9075 8.11367 18.2075 9.23117 18.2075 10.4612C18.2075 11.2262 17.9675 11.8074 17.4875 12.2049C17.0075 12.6024 16.475 12.8012 15.89 12.8012C15.515 12.8012 15.1513 12.7149 14.7988 12.5424C14.4463 12.3699 14.15 12.1037 13.91 11.7437C13.7 11.4137 13.4188 11.1399 13.0663 10.9224C12.7138 10.7049 12.23 10.5362 11.615 10.4162C11.6 10.4462 11.588 10.4691 11.579 10.485C11.57 10.5009 11.5595 10.5154 11.5475 10.5287L12.4925 13.1162C12.5825 13.3562 12.6575 13.5849 12.7175 13.8024C12.7775 14.0199 12.8075 14.2487 12.8075 14.4887C12.8225 15.4637 12.4175 16.3262 11.5925 17.0762C10.7675 17.8262 9.55252 18.2012 7.94752 18.2012ZM9.20752 10.5512C9.58252 10.5512 9.90127 10.4199 10.1638 10.1574C10.4263 9.89492 10.5575 9.57617 10.5575 9.20117C10.5575 8.82617 10.4263 8.50742 10.1638 8.24492C9.90127 7.98242 9.58252 7.85117 9.20752 7.85117C8.83252 7.85117 8.51377 7.98242 8.25127 8.24492C7.98877 8.50742 7.85752 8.82617 7.85752 9.20117C7.85752 9.57617 7.98877 9.89492 8.25127 10.1574C8.51377 10.4199 8.83252 10.5512 9.20752 10.5512ZM7.90252 6.83867C8.08252 6.76367 8.27752 6.69617 8.48752 6.63617C8.69752 6.57617 8.90752 6.53117 9.11752 6.50117C9.23752 5.82617 9.45877 5.21867 9.78127 4.67867C10.1038 4.13867 10.5125 3.70367 11.0075 3.37367C11.1575 3.26867 11.27 3.13742 11.345 2.97992C11.42 2.82242 11.4575 2.63867 11.4575 2.42867C11.4575 2.18236 11.3788 1.97452 11.2213 1.80517C11.0638 1.63584 10.8125 1.55117 10.4675 1.55117C9.82252 1.55117 9.08377 1.70527 8.25127 2.01348C7.41877 2.32168 6.98752 2.92409 6.95752 3.8207C6.95752 3.98882 6.97627 4.1476 7.01377 4.29703C7.05127 4.44646 7.09252 4.58117 7.13752 4.70117L7.90252 6.83867ZM3.80752 11.4512C4.01752 11.4512 4.31752 11.3912 4.70752 11.2712L6.84502 10.5062C6.72502 10.2962 6.63877 10.0862 6.58627 9.87617C6.53377 9.66617 6.50752 9.47117 6.50752 9.29117C5.83252 9.17117 5.22502 8.94992 4.68502 8.62742C4.14502 8.30492 3.71002 7.89617 3.38002 7.40117C3.27502 7.25117 3.13252 7.13867 2.95252 7.06367C2.77252 6.98867 2.60002 6.95117 2.43502 6.95117C2.15002 6.95117 1.93252 7.02992 1.78252 7.18742C1.63252 7.34492 1.55752 7.59617 1.55752 7.94117C1.55752 8.87029 1.74971 9.68757 2.13408 10.393C2.51846 11.0985 3.07627 11.4512 3.80752 11.4512ZM7.94752 16.8512C8.74447 16.8512 9.52871 16.6787 10.3002 16.3337C11.0718 15.9887 11.4575 15.3962 11.4575 14.5562C11.4575 14.3912 11.4425 14.2487 11.4125 14.1287C11.3825 14.0087 11.3375 13.8662 11.2775 13.7012L10.5125 11.5637C10.3175 11.6537 10.1188 11.7287 9.91627 11.7887C9.71377 11.8487 9.50752 11.8862 9.29752 11.9012C9.17752 12.5762 8.95627 13.1837 8.63377 13.7237C8.31127 14.2637 7.90252 14.6987 7.40752 15.0287C7.27252 15.1187 7.16377 15.2574 7.08127 15.4449C6.99877 15.6324 6.95752 15.8087 6.95752 15.9737C6.97252 16.1987 7.05502 16.4012 7.20502 16.5812C7.35502 16.7612 7.60252 16.8512 7.94752 16.8512ZM15.89 11.4512C16.1424 11.4512 16.3668 11.3824 16.5631 11.2449C16.7594 11.1074 16.8575 10.8462 16.8575 10.4612C16.8575 9.80117 16.7038 9.05867 16.3963 8.23367C16.0888 7.40867 15.4788 6.98117 14.5664 6.95117C14.3988 6.95117 14.2438 6.96617 14.1013 6.99617C13.9588 7.02617 13.8275 7.06367 13.7075 7.10867L11.57 7.89617C11.645 8.01617 11.72 8.20742 11.795 8.46992C11.87 8.73242 11.9075 8.94617 11.9075 9.11117C12.5825 9.23117 13.19 9.45242 13.73 9.77492C14.27 10.0974 14.705 10.5062 15.035 11.0012C15.125 11.1212 15.25 11.2262 15.41 11.3162C15.57 11.4062 15.73 11.4512 15.89 11.4512Z" fill="#5162FF"/>
</svg>
