<svg xmlns="http://www.w3.org/2000/svg" width="32" height="32" viewBox="0 0 32 32" fill="none">
<path fill-rule="evenodd" clip-rule="evenodd" d="M16 5C9.92487 5 5 9.92487 5 16C5 22.0751 9.92487 27 16 27C22.0751 27 27 22.0751 27 16C27 9.92487 22.0751 5 16 5ZM3 16C3 8.8203 8.8203 3 16 3C23.1797 3 29 8.8203 29 16C29 23.1797 23.1797 29 16 29C8.8203 29 3 23.1797 3 16ZM16.5853 10.391C16.0033 10.2752 15.4001 10.3346 14.852 10.5617C14.3038 10.7888 13.8352 11.1733 13.5056 11.6666C13.1759 12.16 13 12.74 13 13.3333C13 13.8856 12.5523 14.3333 12 14.3333C11.4477 14.3333 11 13.8856 11 13.3333C11 12.3444 11.2932 11.3777 11.8427 10.5555C12.3921 9.73324 13.173 9.09238 14.0866 8.71394C15.0002 8.3355 16.0055 8.23648 16.9755 8.42941C17.9454 8.62234 18.8363 9.09854 19.5355 9.7978C20.2348 10.4971 20.711 11.388 20.9039 12.3579C21.0969 13.3278 20.9978 14.3331 20.6194 15.2468C20.241 16.1604 19.6001 16.9413 18.7779 17.4907C18.2363 17.8526 17.632 18.1033 17 18.2323V18.6667C17 19.219 16.5523 19.6667 16 19.6667C15.4477 19.6667 15 19.219 15 18.6667V17.3333C15 17.0681 15.1054 16.8138 15.2929 16.6262C15.4804 16.4387 15.7348 16.3333 16 16.3333C16.5933 16.3333 17.1734 16.1574 17.6667 15.8277C18.1601 15.4981 18.5446 15.0296 18.7716 14.4814C18.9987 13.9332 19.0581 13.33 18.9424 12.7481C18.8266 12.1661 18.5409 11.6316 18.1213 11.212C17.7018 10.7925 17.1672 10.5067 16.5853 10.391Z" fill="white"/>
<path d="M17.3337 22.6666C17.3337 23.403 16.7367 23.9999 16.0003 23.9999C15.2639 23.9999 14.667 23.403 14.667 22.6666C14.667 21.9302 15.2639 21.3333 16.0003 21.3333C16.7367 21.3333 17.3337 21.9302 17.3337 22.6666Z" fill="white"/>
</svg>
