<svg width="68" height="59" viewBox="0 0 68 59" fill="none" xmlns="http://www.w3.org/2000/svg">
<path d="M35.7467 4.65281C35.7467 4.65281 30.8647 17.0801 15.9391 15.102C1.01348 13.124 -6.75211 33.1472 7.6193 39.5164C21.9907 45.8856 12.7902 54.5947 22.3418 58.2714C33.198 62.4502 36.2245 46.347 44.1051 47.4005C61.4981 49.7258 71.8172 43.5634 66.6765 36.3011C57.6528 23.5531 51.6831 24.3637 53.6275 15.7104C55.5719 7.05716 41.0501 -5.27887 35.7467 4.65281Z" fill="#CACFFF"/>
<g clip-path="url(#clip0_53_10039)">
<path d="M21.397 44.8187C20.7338 44.8187 20.1745 44.5864 19.7031 44.1138C19.2317 43.6412 19 43.0805 19 42.4157V18.3857C19 17.7208 19.2317 17.1601 19.7031 16.6875C20.1745 16.215 20.7338 15.9827 21.397 15.9827H45.367C46.0302 15.9827 46.5895 16.215 47.0609 16.6875C47.5323 17.1601 47.764 17.7208 47.764 18.3857V31.5621C47.3885 31.3459 46.997 31.1777 46.5815 31.0415C46.166 30.9053 45.7586 30.8012 45.3591 30.7211V18.3857H21.397V42.4157H33.7416C33.8454 42.8402 33.9653 43.2568 34.1011 43.6653C34.237 44.0738 34.3968 44.4583 34.5805 44.8187H21.397Z" fill="#28317F"/>
<path d="M26.1911 38.4108H33.8216C33.9254 37.9863 34.0453 37.5698 34.1811 37.1693C34.3169 36.7688 34.4847 36.3843 34.7005 36.0078H26.1911C25.7516 36.0078 25.3921 36.3683 25.3921 36.8088V37.6098C25.3921 38.0504 25.7516 38.4108 26.1911 38.4108Z" fill="#28317F"/>
<path d="M26.1911 31.6022H39.1349C39.5104 31.4179 39.87 31.2577 40.2136 31.1376C40.5571 31.0174 40.9486 30.9053 41.3721 30.7932V29.9922C41.3721 29.5516 41.0126 29.1912 40.5731 29.1912H26.1911C25.7516 29.1912 25.3921 29.5516 25.3921 29.9922V30.7932C25.3921 31.2337 25.7516 31.5942 26.1911 31.5942V31.6022Z" fill="#28317F"/>
<path d="M40.5731 22.3906H26.1911C25.7498 22.3906 25.3921 22.7492 25.3921 23.1916V23.9926C25.3921 24.435 25.7498 24.7936 26.1911 24.7936H40.5731C41.0144 24.7936 41.3721 24.435 41.3721 23.9926V23.1916C41.3721 22.7492 41.0144 22.3906 40.5731 22.3906Z" fill="#28317F"/>
<path d="M48.7868 35.1346C47.3087 33.6607 45.5429 32.9238 43.4974 32.9238C41.452 32.9238 39.6462 33.6607 38.1841 35.1346C36.7219 36.6084 35.9868 38.3947 35.9868 40.4933C35.9868 42.5919 36.7219 44.282 38.1841 45.7639C39.6462 47.2457 41.412 47.9907 43.4735 47.9907C45.5349 47.9907 47.3087 47.2537 48.7868 45.7639C50.265 44.274 51 42.5278 51 40.4933C51 38.4587 50.265 36.6164 48.7868 35.1346ZM48.603 40.5093C48.603 40.8778 48.3074 41.1661 47.9479 41.1661H44.2085V44.9148C44.2085 45.2833 43.9129 45.5716 43.5534 45.5716C43.1858 45.5716 42.8982 45.2753 42.8982 44.9148V41.1661H39.1589C38.7913 41.1661 38.5037 40.8698 38.5037 40.5093C38.5037 40.1409 38.7993 39.8445 39.1589 39.8445H42.8982V36.0958C42.8982 35.7273 43.1938 35.439 43.5534 35.439C43.9209 35.439 44.2085 35.7353 44.2085 36.0958V39.8445H47.9479C48.3154 39.8445 48.603 40.1409 48.603 40.5013V40.5093Z" fill="#5162FF"/>
</g>
<defs>
<clipPath id="clip0_53_10039">
<rect width="32" height="32" fill="white" transform="translate(19 15.9827)"/>
</clipPath>
</defs>
</svg>
