<svg width="24" height="24" viewBox="0 0 24 24" fill="none" xmlns="http://www.w3.org/2000/svg">
<path fill-rule="evenodd" clip-rule="evenodd" d="M8.50999 6.86034C8.98505 6.57868 9.14184 5.96523 8.86018 5.49017C8.57852 5.0151 7.96507 4.85832 7.49001 5.13998C6.38317 5.79621 5.40119 6.41423 4.7847 7.51011C4.17957 8.58577 4.00001 9.98152 4 12C4 12 4 12.0001 4 12.0002V17.8333C4 18.4773 4.52267 19 5.16667 19H9.83333C10.4773 19 11 18.4773 11 17.8333V13.1666C11 12.5226 10.4773 12 9.83333 12H6C6.00001 10.0186 6.19546 9.08148 6.5278 8.4907C6.84881 7.92008 7.36683 7.5381 8.50999 6.86034Z" fill="#F9F7F7"/>
<path fill-rule="evenodd" clip-rule="evenodd" d="M17.51 6.86034C17.9851 6.57868 18.1418 5.96523 17.8602 5.49017C17.5785 5.0151 16.9651 4.85832 16.49 5.13998C15.3832 5.79621 14.4012 6.41423 13.7847 7.51011C13.1796 8.58577 13 9.98152 13 12C13 12 13 12.0001 13 12.0002V17.8333C13 18.4773 13.5227 19 14.1667 19H18.8333C19.4773 19 20 18.4773 20 17.8333V13.1666C20 12.5226 19.4773 12 18.8333 12H15C15 10.0186 15.1955 9.08148 15.5278 8.4907C15.8488 7.92008 16.3668 7.5381 17.51 6.86034Z" fill="#F9F7F7"/>
</svg>
