<svg xmlns="http://www.w3.org/2000/svg" width="32" height="32" viewBox="0 0 32 32" fill="none">
  <path fill-rule="evenodd" clip-rule="evenodd" d="M7.54673 8.96094C5.95662 10.8684 5 13.3225 5 16C5 18.6775 5.95662 21.1316 7.54673 23.0391L10.8705 19.7153C10.1137 18.672 9.66667 17.3876 9.66667 16C9.66667 14.6124 10.1137 13.328 10.8705 12.2847L7.54673 8.96094ZM8.96094 7.54673L12.2847 10.8705C13.328 10.1137 14.6124 9.66667 16 9.66667C17.3876 9.66667 18.672 10.1137 19.7153 10.8705L23.0391 7.54673C21.1316 5.95662 18.6775 5 16 5C13.3225 5 10.8684 5.95662 8.96094 7.54673ZM24.4533 8.96094L21.1295 12.2847C21.8863 13.328 22.3333 14.6124 22.3333 16C22.3333 17.3876 21.8863 18.672 21.1295 19.7153L24.4533 23.0391C26.0434 21.1316 27 18.6775 27 16C27 13.3225 26.0434 10.8684 24.4533 8.96094ZM23.0391 24.4533L19.7153 21.1295C18.672 21.8863 17.3876 22.3333 16 22.3333C14.6124 22.3333 13.328 21.8863 12.2847 21.1295L8.96094 24.4533C10.8684 26.0434 13.3225 27 16 27C18.6775 27 21.1316 26.0434 23.0391 24.4533ZM3 16C3 8.8203 8.8203 3 16 3C23.1797 3 29 8.8203 29 16C29 23.1797 23.1797 29 16 29C8.8203 29 3 23.1797 3 16ZM16 11.6667C14.8031 11.6667 13.7211 12.1506 12.9359 12.9359C12.1506 13.7211 11.6667 14.8031 11.6667 16C11.6667 17.1969 12.1506 18.2789 12.9359 19.0641C13.7211 19.8494 14.8031 20.3333 16 20.3333C17.1969 20.3333 18.2789 19.8494 19.0641 19.0641C19.8494 18.2789 20.3333 17.1969 20.3333 16C20.3333 14.8031 19.8494 13.7211 19.0641 12.9359C18.2789 12.1506 17.1969 11.6667 16 11.6667Z" fill="white"/>
</svg>
