<svg width="48" height="48" viewBox="0 0 48 48" fill="none" xmlns="http://www.w3.org/2000/svg">
<path d="M34.0002 38C38.4185 38 42.0002 34.4183 42.0002 30C42.0002 25.5817 38.4185 22 34.0002 22H33.9554C33.9851 21.6706 34.0002 21.3371 34.0002 21C34.0002 14.9249 29.0753 10 23.0002 10C16.9251 10 12.0002 14.9249 12.0002 21C12.0002 21.0095 12.0002 21.0189 12.0002 21.0284C8.08782 21.8225 5.14307 25.2816 5.14307 29.4284C5.14307 34.1622 8.98063 37.9998 13.7145 37.9998" stroke="#FBFBFB" stroke-width="4" stroke-linecap="round" stroke-linejoin="round"/>
<path d="M24 38L24 28M24 28L28 32M24 28L20 32" stroke="#FBFBFB" stroke-width="4" stroke-linecap="round" stroke-linejoin="round"/>
</svg>
